<svg xmlns="http://www.w3.org/2000/svg" width="200" height="200" viewBox="0 0 200 200">
  <g id="Grupo_56414" data-name="Grupo 56414" transform="translate(-992 -1566)">
    <g id="Grupo_53420" data-name="Grupo 53420" transform="translate(232.833 -3194.113)">
      <rect id="Rect치ngulo_5117" data-name="Rect치ngulo 5117" width="200" height="200" transform="translate(759.168 4760.113)" fill="#f2e9e4" opacity="0"/>
      <g id="Grupo_53413" data-name="Grupo 53413">
        <g id="Grupo_53412" data-name="Grupo 53412">
          <circle id="Elipse_3967" data-name="Elipse 3967" cx="81.287" cy="81.287" r="81.287" transform="matrix(1, -0.022, 0.022, 1, 776.086, 4780.661)" fill="#f2e9e4"/>
        </g>
      </g>
      <rect id="Rect치ngulo_5118" data-name="Rect치ngulo 5118" width="181" height="181" transform="translate(768.668 4772.528)" fill="none"/>
      <g id="Grupo_53419" data-name="Grupo 53419">
        <path id="Trazado_100112" data-name="Trazado 100112" d="M851.522,4877.26c-31.455,0-56.954-7.966-56.954-17.794v34.278c7.994,7.432,30.472,12.786,56.954,12.786s48.96-5.354,56.954-12.786v-34.278c0,9.828-25.5,17.794-56.954,17.794Z" fill="#6595bf"/>
        <path id="Trazado_100113" data-name="Trazado 100113" d="M825.2,4875.249c-18.2-2.97-30.631-8.923-30.631-15.783v34.278c5.143,4.782,16.285,8.7,30.631,10.892Z" fill="#5e6178"/>
        <path id="Trazado_100114" data-name="Trazado 100114" d="M851.522,4818.406c-31.455,0-56.954-3.763-56.954-13.591v28.3c0,9.827,25.5,17.794,56.954,17.794s56.954-7.967,56.954-17.794v-28.3c0,9.827-25.5,13.591-56.954,13.591Z" fill="#6595bf"/>
        <path id="Trazado_100115" data-name="Trazado 100115" d="M825.2,4817.312c-18.2-1.732-30.631-5.637-30.631-12.5v28.3c0,6.86,12.427,12.812,30.631,15.782Z" fill="#5e6178"/>
        <path id="Trazado_100116" data-name="Trazado 100116" d="M851.522,4905.556c-31.455,0-56.954-7.967-56.954-17.795v27.65c0,9.827,25.5,17.794,56.954,17.794s56.954-7.967,56.954-17.794v-27.65c0,9.828-25.5,17.795-56.954,17.795Z" fill="#aed3f2"/>
        <path id="Trazado_100117" data-name="Trazado 100117" d="M825.2,4903.544c-18.2-2.969-30.631-8.922-30.631-15.783v27.65c0,6.86,12.427,12.812,30.631,15.782Z" fill="#6595bf"/>
        <path id="Trazado_100118" data-name="Trazado 100118" d="M851.522,4850.258c-31.455,0-56.954-7.967-56.954-17.794v27.649c0,9.827,25.5,17.794,56.954,17.794s56.954-7.967,56.954-17.794v-27.649c0,9.827-25.5,17.794-56.954,17.794Z" fill="#aed3f2"/>
        <path id="Trazado_100119" data-name="Trazado 100119" d="M825.2,4848.246c-18.2-2.969-30.631-8.922-30.631-15.782v27.649c0,6.86,12.427,12.812,30.631,15.782Z" fill="#6595bf"/>
        <ellipse id="Elipse_3968" data-name="Elipse 3968" cx="56.954" cy="17.794" rx="56.954" ry="17.794" transform="translate(794.568 4787.021)" fill="#bed8fb"/>
        <path id="Trazado_100120" data-name="Trazado 100120" d="M820.65,4804.815c0-6.766,6.095-12.866,15.855-17.168-24.168,2.059-41.937,8.964-41.937,17.168s17.769,15.109,41.937,17.168c-9.76-4.3-15.855-10.4-15.855-17.168Z" fill="#6595bf"/>
        <path id="Trazado_100121" data-name="Trazado 100121" d="M937.976,4797.835a2.362,2.362,0,0,0-2.015-.452c-5.155,1.2-17.973,2.952-25.64-6.618a2.342,2.342,0,0,0-1.935-.882l-.141.006v21.029h.147a13.157,13.157,0,0,1,13.142,13.142v.147h17.334v-24.524a2.347,2.347,0,0,0-.892-1.848Z" fill="#aed3f2"/>
        <path id="Trazado_100122" data-name="Trazado 100122" d="M921.534,4823.913v.147a13.158,13.158,0,0,1-13.142,13.142h-.147v24.024h.231a7.722,7.722,0,0,0,3.377-.781c8.123-3.977,27.015-14.416,27.015-25.425v-11.109Z" fill="#d9a171"/>
        <g id="Grupo_53415" data-name="Grupo 53415">
          <g id="Grupo_53414" data-name="Grupo 53414">
            <path id="Trazado_100123" data-name="Trazado 100123" d="M908.245,4856.292v4.934l.145,0h.086a7.727,7.727,0,0,0,3.377-.78c.628-.308,1.321-.655,2.065-1.037-1.684-.866-3.629-1.916-5.673-3.119Z" fill="#fec458"/>
          </g>
        </g>
        <path id="Trazado_100124" data-name="Trazado 100124" d="M895.25,4824.06v-.147H878.085v11.109c0,11.009,18.892,21.448,27.015,25.425a7.713,7.713,0,0,0,3.29.78l.149,0V4837.2h-.147a13.157,13.157,0,0,1-13.142-13.142Z" fill="#aed3f2"/>
        <path id="Trazado_100125" data-name="Trazado 100125" d="M888.968,4835.022v-11.109H878.085v11.109c0,11.009,18.892,21.448,27.015,25.425a7.713,7.713,0,0,0,3.29.78l.149,0v-4.765c-8.778-5.126-19.571-13.121-19.571-21.442Z" fill="#6595bf"/>
        <path id="Trazado_100126" data-name="Trazado 100126" d="M908.539,4810.918v-21.041l-.153.006a2.365,2.365,0,0,0-1.755.882c-7.667,9.57-20.484,7.816-25.639,6.618a2.365,2.365,0,0,0-2.907,2.3v24.524H895.25v-.147a13.157,13.157,0,0,1,13.142-13.142Z" fill="#d9a171"/>
        <g id="Grupo_53417" data-name="Grupo 53417">
          <g id="Grupo_53416" data-name="Grupo 53416">
            <path id="Trazado_100127" data-name="Trazado 100127" d="M888.968,4799.683a2.344,2.344,0,0,1,.424-1.345,36.675,36.675,0,0,1-8.4-.955,2.365,2.365,0,0,0-2.907,2.3v24.524h10.883v-24.524Z" fill="#a66d58"/>
          </g>
        </g>
        <circle id="Elipse_3969" data-name="Elipse 3969" cx="13.436" cy="13.436" r="13.436" transform="translate(894.956 4810.624)" fill="#a66d58"/>
        <path id="Trazado_100128" data-name="Trazado 100128" d="M902.246,4824.06a13.458,13.458,0,0,1,9.791-12.93,13.437,13.437,0,1,0,0,25.859,13.456,13.456,0,0,1-9.791-12.929Z" fill="#8a503f"/>
        <g id="Grupo_53418" data-name="Grupo 53418">
          <path id="Trazado_100129" data-name="Trazado 100129" d="M907.377,4830.464a2.2,2.2,0,0,1-1.56-.647l-3.871-3.87a2.206,2.206,0,0,1,3.12-3.12l2.311,2.311,4.539-4.54a2.206,2.206,0,0,1,3.12,3.12l-6.1,6.1a2.209,2.209,0,0,1-1.56.646Z" fill="#dfebfa"/>
        </g>
      </g>
    </g>
  </g>
</svg>
