<svg xmlns="http://www.w3.org/2000/svg" width="200" height="200" viewBox="0 0 200 200">
  <g id="Grupo_56413" data-name="Grupo 56413" transform="translate(-376 -1566)">
    <g id="Grupo_53425" data-name="Grupo 53425" transform="translate(-27.11 -3194.113)">
      <rect id="Rect치ngulo_5119" data-name="Rect치ngulo 5119" width="200" height="200" transform="translate(403.11 4760.113)" fill="#f2e9e4" opacity="0"/>
      <g id="Grupo_53422" data-name="Grupo 53422">
        <g id="Grupo_53421" data-name="Grupo 53421">
          <circle id="Elipse_3970" data-name="Elipse 3970" cx="81.287" cy="81.287" r="81.287" transform="matrix(1, -0.022, 0.022, 1, 420.029, 4780.661)" fill="#aed3f2"/>
        </g>
      </g>
      <g id="Grupo_53424" data-name="Grupo 53424">
        <path id="Trazado_100130" data-name="Trazado 100130" d="M575.729,4925.4h-130.5V4790.8h3.049v131.557H575.729Z" fill="#5e6178"/>
        <path id="Trazado_100131" data-name="Trazado 100131" d="M456.575,4871.855h19.476v50.5H456.575Z" fill="#344154"/>
        <path id="Trazado_100132" data-name="Trazado 100132" d="M486.033,4848.9h19.476v73.453H486.033Z" fill="#5e6178"/>
        <path id="Trazado_100133" data-name="Trazado 100133" d="M515.512,4857.807h19.477v64.549H515.512Z" fill="#6595bf"/>
        <path id="Trazado_100134" data-name="Trazado 100134" d="M544.97,4820.441h19.477v101.915H544.97Z" fill="#d9a171"/>
        <path id="Trazado_100135" data-name="Trazado 100135" d="M461.17,4842.295l-1.648-3.72,29.519-22.4,30.862,12.036,33.3-36.249,3.01,2.745-34.887,37.976-31.857-12.238Z" fill="#5e6178"/>
        <circle id="Elipse_3971" data-name="Elipse 3971" cx="8.722" cy="8.722" r="8.722" transform="translate(511.263 4820.441)" fill="#5e6178"/>
        <path id="Trazado_100136" data-name="Trazado 100136" d="M553.691,4785.981a8.722,8.722,0,1,0,8.722,8.722A8.722,8.722,0,0,0,553.691,4785.981Z" fill="#5e6178"/>
        <path id="Trazado_100137" data-name="Trazado 100137" d="M553.691,4789.641a5.062,5.062,0,1,0,5.062,5.062A5.063,5.063,0,0,0,553.691,4789.641Z" fill="#e1e6e9"/>
        <path id="Trazado_100138" data-name="Trazado 100138" d="M519.985,4824.1a5.061,5.061,0,1,0,.1,0Z" fill="#e1e6e9"/>
        <path id="Trazado_100139" data-name="Trazado 100139" d="M489.266,4810.58a8.722,8.722,0,1,0,8.722,8.722,8.721,8.721,0,0,0-8.722-8.722Z" fill="#5e6178"/>
        <path id="Trazado_100140" data-name="Trazado 100140" d="M460.8,4831.012a8.722,8.722,0,1,0,8.722,8.722,8.722,8.722,0,0,0-8.722-8.722Z" fill="#5e6178"/>
        <path id="Trazado_100141" data-name="Trazado 100141" d="M489.266,4814.219a5.082,5.082,0,1,0,5.062,5.1v-.02a5.062,5.062,0,0,0-5.043-5.082Z" fill="#e1e6e9"/>
        <path id="Trazado_100142" data-name="Trazado 100142" d="M460.8,4834.672a5.062,5.062,0,1,0,5.062,5.062A5.063,5.063,0,0,0,460.8,4834.672Z" fill="#e1e6e9"/>
        <g id="Grupo_53423" data-name="Grupo 53423">
          <path id="Trazado_100143" data-name="Trazado 100143" d="M430.491,4795.984h10.735v2.6H430.491Z" fill="#2f4859"/>
          <path id="Trazado_100144" data-name="Trazado 100144" d="M430.491,4807.978h10.735v2.6H430.491Z" fill="#2f4859"/>
          <path id="Trazado_100145" data-name="Trazado 100145" d="M430.491,4819.953h10.735v2.6H430.491Z" fill="#2f4859"/>
          <path id="Trazado_100146" data-name="Trazado 100146" d="M430.491,4831.927h10.735v2.6H430.491Z" fill="#2f4859"/>
          <path id="Trazado_100147" data-name="Trazado 100147" d="M430.491,4843.9h10.735v2.6H430.491Z" fill="#2f4859"/>
          <path id="Trazado_100148" data-name="Trazado 100148" d="M430.491,4855.9h10.735v2.6H430.491Z" fill="#2f4859"/>
          <path id="Trazado_100149" data-name="Trazado 100149" d="M430.491,4867.871h10.735v2.6H430.491Z" fill="#2f4859"/>
          <path id="Trazado_100150" data-name="Trazado 100150" d="M430.491,4879.845h10.735v2.6H430.491Z" fill="#2f4859"/>
          <path id="Trazado_100151" data-name="Trazado 100151" d="M430.491,4891.82h10.735v2.6H430.491Z" fill="#2f4859"/>
          <path id="Trazado_100152" data-name="Trazado 100152" d="M430.491,4903.814h10.735v2.6H430.491Z" fill="#2f4859"/>
          <path id="Trazado_100153" data-name="Trazado 100153" d="M430.491,4915.789h10.735v2.6H430.491Z" fill="#2f4859"/>
        </g>
      </g>
      <rect id="Rect치ngulo_5120" data-name="Rect치ngulo 5120" width="181" height="181" transform="translate(412.61 4772.528)" fill="none" opacity="0"/>
    </g>
  </g>
</svg>
