<svg xmlns="http://www.w3.org/2000/svg" width="458.98" height="309.582" viewBox="0 0 458.98 309.582">
  <g id="Grupo_53604" data-name="Grupo 53604" transform="translate(-149.835 -2521.419)">
    <g id="freepik--background-complete--inject-510" transform="translate(149.835 2606.789)">
      <rect id="Rectángulo_5227" data-name="Rectángulo 5227" width="30.403" height="0.229" transform="translate(382.587 201.06)" fill="#aed3f2"/>
      <rect id="Rectángulo_5228" data-name="Rectángulo 5228" width="7.977" height="0.229" transform="translate(296.069 203.557)" fill="#aed3f2"/>
      <rect id="Rectángulo_5229" data-name="Rectángulo 5229" width="17.616" height="0.229" transform="translate(364.054 192.542)" fill="#aed3f2"/>
      <rect id="Rectángulo_5230" data-name="Rectángulo 5230" width="39.647" height="0.229" transform="translate(48.156 194.084)" fill="#aed3f2"/>
      <rect id="Rectángulo_5231" data-name="Rectángulo 5231" width="5.811" height="0.229" transform="translate(95.982 194.084)" fill="#aed3f2"/>
      <rect id="Rectángulo_5232" data-name="Rectángulo 5232" width="85.994" height="0.229" transform="translate(120.684 197.958)" fill="#aed3f2"/>
      <rect id="Rectángulo_5233" data-name="Rectángulo 5233" width="458.98" height="0.229" transform="translate(0 186.29)" fill="#aed3f2"/>
      <path id="Trazado_100473" data-name="Trazado 100473" d="M308.984,2726.959h5.71v82.956a1.093,1.093,0,0,1-1.092,1.093h-3.534a1.093,1.093,0,0,1-1.092-1.093h0v-82.956Z" transform="translate(-162.891 -2623.652)" fill="#f0f0f0"/>
      <rect id="Rectángulo_5234" data-name="Rectángulo 5234" width="49.533" height="7.472" transform="translate(273.46 95.844)" fill="#aed3f2"/>
      <path id="Trazado_100474" data-name="Trazado 100474" d="M347.554,2726.959h5.71v82.956a1.093,1.093,0,0,1-1.092,1.093h-3.534a1.093,1.093,0,0,1-1.092-1.093h0v-82.956h.009Z" transform="translate(-166.055 -2623.652)" fill="#aed3f2"/>
      <path id="Trazado_100475" data-name="Trazado 100475" d="M491.834,2726.959h5.71v82.956a1.093,1.093,0,0,1-1.092,1.093h-3.534a1.093,1.093,0,0,1-1.092-1.093h0v-82.956Z" transform="translate(-177.892 -2623.652)" fill="#aed3f2"/>
      <rect id="Rectángulo_5235" data-name="Rectángulo 5235" width="144.799" height="7.472" transform="translate(142.789 95.844)" fill="#e0eaf2"/>
      <path id="Trazado_100476" data-name="Trazado 100476" d="M453.294,2726.959H459v82.956a1.093,1.093,0,0,1-1.092,1.093h-3.534a1.093,1.093,0,0,1-1.092-1.093h0v-82.956Z" transform="translate(-174.73 -2623.652)" fill="#f0f0f0"/>
      <rect id="Rectángulo_5236" data-name="Rectángulo 5236" width="2.423" height="151.72" transform="translate(372.93 34.478)" fill="#aed3f2"/>
      <path id="Trazado_100477" data-name="Trazado 100477" d="M582.16,2633.262c0,7.748-5.508,14.5-13.65,18.1H541.476c-8.133-3.6-13.641-10.355-13.641-18.1s5.508-14.494,13.65-18.093h27.034C576.67,2618.768,582.16,2625.523,582.16,2633.262Z" transform="translate(-180.846 -2614.48)" fill="#f0f0f0"/>
      <path id="Trazado_100478" data-name="Trazado 100478" d="M541.762,2650.718c-6.986-3.277-13.31-9.253-13.31-17.506s6.334-14.219,13.31-17.505c.8-.377.1-1.561-.7-1.184-7.417,3.488-13.99,9.978-13.99,18.689s6.563,15.211,13.99,18.7c.8.367,1.5-.817.7-1.193Z" transform="translate(-180.784 -2614.421)" fill="#e0e0e0"/>
      <path id="Trazado_100479" data-name="Trazado 100479" d="M548.883,2614.621c-9.574,9.18-9.574,28.016,0,37.168.643.615,1.616-.358.973-.973-9.033-8.629-9.042-26.621,0-35.222.643-.615-.331-1.588-.973-.973Z" transform="translate(-181.984 -2614.419)" fill="#e0e0e0"/>
      <path id="Trazado_100480" data-name="Trazado 100480" d="M556.675,2615.107v36.2a.688.688,0,0,0,1.377,0v-36.2a.688.688,0,0,0-1.377,0Z" transform="translate(-183.213 -2614.419)" fill="#e0e0e0"/>
      <path id="Trazado_100481" data-name="Trazado 100481" d="M564.236,2615.594c9.033,8.629,9.042,26.621,0,35.222-.643.615.33,1.588.973.973,9.574-9.18,9.574-28.025,0-37.168-.643-.615-1.616.358-.973.973Z" transform="translate(-183.816 -2614.419)" fill="#e0e0e0"/>
      <path id="Trazado_100482" data-name="Trazado 100482" d="M571.733,2615.7c6.986,3.286,13.31,9.253,13.31,17.505s-6.334,14.228-13.31,17.505c-.8.376-.1,1.561.7,1.194,7.417-3.488,13.99-9.979,13.99-18.7s-6.563-15.2-13.99-18.69c-.8-.376-1.5.808-.7,1.184Z" transform="translate(-184.419 -2614.421)" fill="#e0e0e0"/>
      <path id="Trazado_100483" data-name="Trazado 100483" d="M538.835,2818.147h34.056a4.158,4.158,0,0,0-4.158-4.158H543.021a4.149,4.149,0,0,0-4.149,4.149v.009Z" transform="translate(-181.749 -2630.792)" fill="#aed3f2"/>
      <path id="Trazado_100484" data-name="Trazado 100484" d="M263.624,2740.411c.083.11-.5.734,1.542.679,5.04-.129,13.889-1.065,16.918-5.847,4.324-6.839-6.618-5.508-5.792-9.18s12.851-1.524,14.779-6.8-6.554-3.672-6.334-6.38,9.446.156,12.053-5.508-5.067-2.2-3.947-4.544,10.474-12.392,6.288-14.21-12.9,8.6-15.927,9.859-4.379-8.261-8.262-4.819-.211,17.818-4.828,19.938c-3.442,1.579-1.836-3.745-6.215-3.259C258.043,2711.037,257.455,2731.507,263.624,2740.411Z" transform="translate(-158.811 -2620.489)" fill="#aed3f2"/>
      <path id="Trazado_100485" data-name="Trazado 100485" d="M282.692,2713.617a17.207,17.207,0,0,0-4.388.349,33.574,33.574,0,0,1,3.525-3.525.368.368,0,0,0,.072-.515l-.007-.008a.375.375,0,0,0-.523-.055,43.222,43.222,0,0,0-7.178,8.069,32.742,32.742,0,0,1,4.59-17.331.279.279,0,1,0-.468-.3h0a33.143,33.143,0,0,0-4.645,18.359q-.918,1.349-1.9,2.919a69.368,69.368,0,0,0-5.691,11.722,25.352,25.352,0,0,1-1.533-11.539.276.276,0,0,0-.245-.3h0a.276.276,0,0,0-.3.245v0a25.327,25.327,0,0,0,1.836,12.338,86.032,86.032,0,0,0-4.994,25.005.368.368,0,0,0,.348.385h.047a.376.376,0,0,0,.349-.349,81.322,81.322,0,0,1,7.72-31.284,10.188,10.188,0,0,1,6.251-2.607.3.3,0,0,0,.275-.284.274.274,0,0,0-.284-.266h0a10.445,10.445,0,0,0-5.664,1.983,61.442,61.442,0,0,1,7.821-11.933,15.186,15.186,0,0,1,4.994-.542.285.285,0,0,0,.294-.266A.293.293,0,0,0,282.692,2713.617Z" transform="translate(-158.942 -2621.454)" fill="#e0e0e0"/>
      <path id="Trazado_100486" data-name="Trazado 100486" d="M245.347,2743.315c-5.682.11-15.385-5.168-19.195-10.3s7.032-1.983,5.893-6.022-14.522-1.065-17-6.931,7.206-4.507,6.82-7.5-10.41-2.387-13.623-8.611,5.6-2.754,4.213-5.324-12.429-13.439-7.812-15.707,14.981,9.005,18.442,10.263,4.287-6.545,8.8-2.809,1.129,20.076,6.426,22.224c3.966,1.606,2.277-5.875,6.839-3.984C253.159,2711.921,247.651,2743.269,245.347,2743.315Z" transform="translate(-154.24 -2620.014)" fill="#aed3f2"/>
      <g id="Grupo_53597" data-name="Grupo 53597" transform="translate(49.283 62.607)" opacity="0.3">
        <path id="Trazado_100487" data-name="Trazado 100487" d="M245.347,2743.315c-5.682.11-15.385-5.168-19.195-10.3s7.032-1.983,5.893-6.022-14.522-1.065-17-6.931,7.206-4.507,6.82-7.5-10.41-2.387-13.623-8.611,5.6-2.754,4.213-5.324-12.429-13.439-7.812-15.707,14.981,9.005,18.442,10.263,4.287-6.545,8.8-2.809,1.129,20.076,6.426,22.224c3.966,1.606,2.277-5.875,6.839-3.984C253.159,2711.921,247.651,2743.269,245.347,2743.315Z" transform="translate(-203.523 -2682.622)" fill="#aed3f2"/>
      </g>
      <path id="Trazado_100488" data-name="Trazado 100488" d="M244.807,2737.587a.36.36,0,0,0,.2-.165,29.979,29.979,0,0,0,2.543-15.229.377.377,0,1,0-.753.055,30.362,30.362,0,0,1-2.3,14.476,117,117,0,0,0-8.647-18.3c1-12.19-5.251-22.187-5.315-22.279a.376.376,0,1,0-.659.363c.008.014.017.028.026.041a39.55,39.55,0,0,1,5.26,20.7,105.958,105.958,0,0,0-14.531-19.452.5.5,0,0,0-.7-.016l-.016.016a.5.5,0,0,0,0,.713l0,0a98.185,98.185,0,0,1,11.1,14.063,29.473,29.473,0,0,0-10.74-1.928.376.376,0,0,0-.376.376v.009a.386.386,0,0,0,.386.376h0a28.984,28.984,0,0,1,11.484,2.268,118.388,118.388,0,0,1,6.187,10.63,12.849,12.849,0,0,0-10.6-1.836.385.385,0,0,0-.266.468.367.367,0,0,0,.443.27l.016,0a12.287,12.287,0,0,1,11.208,2.708,102.8,102.8,0,0,1,11.016,41.657.515.515,0,0,0,.5.487h0a.514.514,0,0,0,.487-.533A100,100,0,0,0,244.807,2737.587Z" transform="translate(-155.572 -2621.107)" fill="#e0eaf2"/>
      <path id="Trazado_100489" data-name="Trazado 100489" d="M265.161,2813.551c4.406-12.54,7.3-30.66,7.3-38.6a27.739,27.739,0,0,0-5.379-16.991H244.544a27.74,27.74,0,0,0-5.379,16.964c0,7.94,2.892,26.061,7.344,38.6Z" transform="translate(-157.163 -2626.195)" fill="#aed3f2"/>
      <path id="Trazado_100490" data-name="Trazado 100490" d="M254.527,2741.953c.073.064-.22.6,1.184.22,3.47-.918,9.446-3.048,10.749-6.866,1.836-5.462-5.508-2.754-5.508-5.388s8.62-3.195,9.1-7.178-5.15-1.478-5.443-3.36,6.573-1.469,7.435-5.811-3.874-.688-3.488-2.5,5.2-10.327,1.992-10.9-7.509,8.115-9.391,9.492-4.425-5.031-6.508-1.974,2.818,12.383,0,14.623c-2.12,1.661-1.919-2.295-4.847-1.23C245.77,2722.538,248.762,2736.813,254.527,2741.953Z" transform="translate(-157.884 -2621.452)" fill="#6595bf"/>
      <path id="Trazado_100491" data-name="Trazado 100491" d="M263.337,2720.538a11.918,11.918,0,0,0-2.974.973,22.877,22.877,0,0,1,1.836-3.029.286.286,0,0,0,0-.377.266.266,0,0,0-.367.046,30.729,30.729,0,0,0-3.672,6.793,23.343,23.343,0,0,1,.3-12.778.193.193,0,0,0-.116-.247h0a.2.2,0,0,0-.257.12,23.869,23.869,0,0,0-.165,13.494c-.275.725-.56,1.505-.826,2.332a49.815,49.815,0,0,0-1.992,9.069,17.765,17.765,0,0,1-2.983-7.738.2.2,0,0,0-.229-.165.211.211,0,0,0-.165.22,18.3,18.3,0,0,0,3.3,8.261,61.622,61.622,0,0,0,.707,18.157.276.276,0,0,0,.312.211h0a.276.276,0,0,0,.184-.3,58.021,58.021,0,0,1,.138-22.949,7.221,7.221,0,0,1,3.9-2.846.2.2,0,0,0-.1-.385,7.344,7.344,0,0,0-3.589,2.323,43.854,43.854,0,0,1,3.516-9.593,11.21,11.21,0,0,1,3.369-1.2.185.185,0,0,0,.162-.2l-.006-.026a.192.192,0,0,0-.209-.174A.186.186,0,0,0,263.337,2720.538Z" transform="translate(-158.194 -2622.417)" fill="#e0e0e0"/>
      <rect id="Rectángulo_5237" data-name="Rectángulo 5237" width="59.548" height="79.229" transform="translate(158.183 108.126)" fill="#e0eaf2"/>
      <rect id="Rectángulo_5238" data-name="Rectángulo 5238" width="11.355" height="79.229" transform="translate(217.731 108.126)" fill="#aed3f2"/>
      <rect id="Rectángulo_5239" data-name="Rectángulo 5239" width="51.507" height="19.24" transform="translate(162.359 114.01)" fill="#fafafa"/>
      <path id="Trazado_100492" data-name="Trazado 100492" d="M347.445,2738.619l.22,2.561a1.645,1.645,0,0,0,1.634,1.5h9.721a1.653,1.653,0,0,0,1.634-1.5l.22-2.561Z" transform="translate(-166.047 -2624.608)" fill="#aed3f2"/>
      <rect id="Rectángulo_5240" data-name="Rectángulo 5240" width="51.507" height="19.24" transform="translate(162.359 135.353)" fill="#fafafa"/>
      <path id="Trazado_100493" data-name="Trazado 100493" d="M347.445,2761.869l.22,2.561a1.645,1.645,0,0,0,1.634,1.5h9.721a1.653,1.653,0,0,0,1.634-1.5l.22-2.561Z" transform="translate(-166.047 -2626.516)" fill="#aed3f2"/>
      <rect id="Rectángulo_5241" data-name="Rectángulo 5241" width="51.507" height="19.24" transform="translate(162.359 156.695)" fill="#fafafa"/>
      <path id="Trazado_100494" data-name="Trazado 100494" d="M347.445,2785.119l.22,2.561a1.645,1.645,0,0,0,1.634,1.5h9.721a1.654,1.654,0,0,0,1.634-1.45l.22-2.561Z" transform="translate(-166.047 -2628.423)" fill="#aed3f2"/>
    </g>
    <g id="freepik--Shadow--inject-510" transform="translate(196.917 2810.218)">
      <ellipse id="freepik--path--inject-510" cx="177.983" cy="10.391" rx="177.983" ry="10.391" fill="#e0eaf2"/>
    </g>
    <g id="freepik--Page--inject-510" transform="translate(260.146 2521.419)">
      <rect id="Rectángulo_5242" data-name="Rectángulo 5242" width="242.644" height="179.057" rx="3.88" transform="translate(0.046)" fill="#d9a171"/>
      <rect id="Rectángulo_5243" data-name="Rectángulo 5243" width="242.644" height="179.057" rx="3.88" transform="translate(0.046)" fill="#fff" opacity="0.6" style="isolation: isolate"/>
      <path id="Trazado_100495" data-name="Trazado 100495" d="M317.335,2521.419h-42.74a4.59,4.59,0,0,0-4.59,4.59v169.933a4.59,4.59,0,0,0,4.59,4.544h42.74Z" transform="translate(-270.005 -2521.419)" fill="#fff" opacity="0.3" style="isolation: isolate"/>
      <path id="Trazado_100496" data-name="Trazado 100496" d="M508.16,2521.419H274.595a4.59,4.59,0,0,0-4.59,4.59v11.842H512.7v-11.888A4.589,4.589,0,0,0,508.16,2521.419Z" transform="translate(-270.005 -2521.419)" fill="#344154"/>
      <path id="Trazado_100497" data-name="Trazado 100497" d="M278.616,2527.617a.8.8,0,0,1-.171-1.588.768.768,0,0,1,.171,0h6.251a.8.8,0,0,1,0,1.588Z" transform="translate(-270.639 -2521.797)" fill="#fff"/>
      <path id="Trazado_100498" data-name="Trazado 100498" d="M278.616,2531.067a.8.8,0,0,1-.171-1.588.74.74,0,0,1,.171,0h6.251a.8.8,0,0,1,0,1.588Z" transform="translate(-270.639 -2522.08)" fill="#fff"/>
      <path id="Trazado_100499" data-name="Trazado 100499" d="M278.616,2534.527a.8.8,0,0,1-.171-1.588.768.768,0,0,1,.171,0h6.251a.8.8,0,0,1,0,1.588Z" transform="translate(-270.639 -2522.363)" fill="#fff"/>
      <rect id="Rectángulo_5244" data-name="Rectángulo 5244" width="20.452" height="56.675" rx="2.19" transform="translate(55.684 26.924)" fill="#fff" opacity="0.7" style="isolation: isolate"/>
      <rect id="Rectángulo_5245" data-name="Rectángulo 5245" width="20.452" height="56.675" rx="2.19" transform="translate(81.249 26.924)" fill="#fff" opacity="0.4" style="isolation: isolate"/>
      <rect id="Rectángulo_5246" data-name="Rectángulo 5246" width="20.452" height="56.675" rx="2.19" transform="translate(106.814 26.924)" fill="#fff" opacity="0.7" style="isolation: isolate"/>
      <rect id="Rectángulo_5247" data-name="Rectángulo 5247" width="20.452" height="56.675" rx="2.19" transform="translate(132.379 26.924)" fill="#fff" opacity="0.4" style="isolation: isolate"/>
      <rect id="Rectángulo_5248" data-name="Rectángulo 5248" width="20.452" height="56.675" rx="2.19" transform="translate(157.944 26.924)" fill="#fff" opacity="0.7" style="isolation: isolate"/>
      <rect id="Rectángulo_5249" data-name="Rectángulo 5249" width="20.452" height="56.675" rx="2.19" transform="translate(183.509 26.924)" fill="#fff" opacity="0.4" style="isolation: isolate"/>
      <rect id="Rectángulo_5250" data-name="Rectángulo 5250" width="20.452" height="56.675" rx="2.19" transform="translate(209.075 26.924)" fill="#fff" opacity="0.7" style="isolation: isolate"/>
      <path id="Trazado_100500" data-name="Trazado 100500" d="M388.4,2650.023h-.734v.918H386.62v-.918h-2.405v-.7l2.111-2.837h1.083l-1.955,2.69h1.2v-.835h.973v.835h.734Z" transform="translate(-279.375 -2531.679)"/>
      <path id="Trazado_100501" data-name="Trazado 100501" d="M392.009,2648.545a1.238,1.238,0,0,1,.45,1.01,1.364,1.364,0,0,1-.2.743,1.509,1.509,0,0,1-.624.542,2.471,2.471,0,0,1-1.028.193,3.575,3.575,0,0,1-.918-.119,2.316,2.316,0,0,1-.771-.358l.4-.789a1.862,1.862,0,0,0,.587.293,2.191,2.191,0,0,0,.688.11,1.121,1.121,0,0,0,.615-.156.5.5,0,0,0,.22-.432.485.485,0,0,0-.229-.431,1.593,1.593,0,0,0-.817-.147h-1.138l.229-2.515h2.754v.826h-1.836l-.073.854h.367A2.156,2.156,0,0,1,392.009,2648.545Z" transform="translate(-279.76 -2531.679)"/>
      <path id="Trazado_100502" data-name="Trazado 100502" d="M393.4,2648.559a1.443,1.443,0,0,1,0-1.79,1.11,1.11,0,0,1,1.571-.027l.027.027a1.476,1.476,0,0,1,0,1.79,1.112,1.112,0,0,1-1.571.027Zm1.138-.367a1.148,1.148,0,0,0,0-1.056.392.392,0,0,0-.34-.184.4.4,0,0,0-.34.184,1.148,1.148,0,0,0,0,1.056.406.406,0,0,0,.34.184A.4.4,0,0,0,394.535,2648.192Zm2.322-1.708h.762l-3.057,4.47h-.789Zm-.2,4.37a.987.987,0,0,1-.386-.431,1.352,1.352,0,0,1-.147-.652,1.368,1.368,0,0,1,.147-.652,1.032,1.032,0,0,1,.386-.431,1.1,1.1,0,0,1,.578-.147,1.044,1.044,0,0,1,.8.331,1.262,1.262,0,0,1,.312.918,1.247,1.247,0,0,1-.312.918,1.022,1.022,0,0,1-.8.34A1.115,1.115,0,0,1,396.656,2650.854Zm.918-.551a1.226,1.226,0,0,0,0-1.055.412.412,0,0,0-.575-.1.422.422,0,0,0-.1.1.924.924,0,0,0-.129.532.869.869,0,0,0,.129.532.4.4,0,0,0,.34.184.4.4,0,0,0,.34-.193Z" transform="translate(-280.103 -2531.675)"/>
      <path id="Trazado_100503" data-name="Trazado 100503" d="M464.082,2648.317a1.48,1.48,0,0,1,.551.487,1.335,1.335,0,0,1,.2.734,1.412,1.412,0,0,1-.22.789,1.532,1.532,0,0,1-.606.523,2.067,2.067,0,0,1-.863.174,1.885,1.885,0,0,1-1.469-.569,2.333,2.333,0,0,1-.532-1.643,2.857,2.857,0,0,1,.285-1.3,1.9,1.9,0,0,1,.808-.826,2.47,2.47,0,0,1,1.193-.284,2.841,2.841,0,0,1,.688.083,1.772,1.772,0,0,1,.551.229l-.376.762a1.445,1.445,0,0,0-.845-.229,1.218,1.218,0,0,0-.918.33,1.44,1.44,0,0,0-.358.973,1.493,1.493,0,0,1,1.111-.4A1.83,1.83,0,0,1,464.082,2648.317Zm-.45,1.762a.687.687,0,0,0,0-.973.808.808,0,0,0-.56-.184.84.84,0,0,0-.551.184.642.642,0,0,0-.057.907c.018.02.037.039.057.057a.965.965,0,0,0,1.12,0Z" transform="translate(-285.686 -2531.672)"/>
      <path id="Trazado_100504" data-name="Trazado 100504" d="M468.5,2648.545a1.265,1.265,0,0,1,.45,1.01,1.453,1.453,0,0,1-.2.743,1.509,1.509,0,0,1-.624.542,2.5,2.5,0,0,1-1.037.193,3.533,3.533,0,0,1-.918-.119,2.462,2.462,0,0,1-.78-.358l.413-.789a1.793,1.793,0,0,0,.587.293,2.159,2.159,0,0,0,.679.11,1.074,1.074,0,0,0,.615-.156.487.487,0,0,0,.229-.432.5.5,0,0,0-.239-.431,1.559,1.559,0,0,0-.808-.147h-1.138l.229-2.515h2.754v.826h-1.836l-.073.854h.367A2.183,2.183,0,0,1,468.5,2648.545Z" transform="translate(-286.034 -2531.679)"/>
      <path id="Trazado_100505" data-name="Trazado 100505" d="M469.878,2648.559a1.479,1.479,0,0,1,0-1.79,1.119,1.119,0,0,1,1.583-.023l.023.023a1.476,1.476,0,0,1,0,1.79,1.119,1.119,0,0,1-1.583.022Zm1.147-.367a1.227,1.227,0,0,0,0-1.056.4.4,0,0,0-.679,0,1.148,1.148,0,0,0,0,1.056.4.4,0,0,0,.679,0Zm2.322-1.708h.762l-3.057,4.471h-.762Zm-.2,4.37a1.078,1.078,0,0,1-.395-.431,1.455,1.455,0,0,1-.138-.652,1.478,1.478,0,0,1,.138-.652,1.116,1.116,0,0,1,.395-.432,1.165,1.165,0,0,1,1.377.184,1.505,1.505,0,0,1,0,1.835,1.041,1.041,0,0,1-.808.34A1.084,1.084,0,0,1,473.146,2650.854Zm.918-.551a1.227,1.227,0,0,0,0-1.056.412.412,0,0,0-.679-.009.926.926,0,0,0-.129.533.869.869,0,0,0,.129.532.387.387,0,0,0,.33.184.4.4,0,0,0,.349-.184Z" transform="translate(-286.378 -2531.675)"/>
      <path id="Trazado_100506" data-name="Trazado 100506" d="M478.906,2532.525a1.845,1.845,0,0,1-1.111.459v.716h-.633v-.7a3.734,3.734,0,0,1-.918-.165,2.445,2.445,0,0,1-.688-.34l.358-.78a2.214,2.214,0,0,0,.569.294,2.409,2.409,0,0,0,.67.156v-1.093a4.83,4.83,0,0,1-.771-.248,1.239,1.239,0,0,1-.523-.395,1.039,1.039,0,0,1-.211-.679,1.248,1.248,0,0,1,.386-.918,1.835,1.835,0,0,1,1.12-.459v-.707h.633v.7a2.747,2.747,0,0,1,1.3.386l-.321.789a2.752,2.752,0,0,0-.982-.34v1.092a4.713,4.713,0,0,1,.762.229,1.453,1.453,0,0,1,.523.395,1.035,1.035,0,0,1,.211.679A1.221,1.221,0,0,1,478.906,2532.525Zm-2.1-2.534a1.1,1.1,0,0,0,.358.165v-.918a.649.649,0,0,0-.358.175.4.4,0,0,0-.119.293.359.359,0,0,0,.119.257Zm1.34,1.983a.374.374,0,0,0,.11-.275.326.326,0,0,0-.11-.257,1.007,1.007,0,0,0-.349-.184v.918a.73.73,0,0,0,.349-.229Z" transform="translate(-286.868 -2521.931)" fill="#fff"/>
      <path id="Trazado_100507" data-name="Trazado 100507" d="M481.72,2528.5v4.48h-1.037V2529.3h-.918v-.835Z" transform="translate(-287.214 -2521.997)" fill="#fff"/>
      <path id="Trazado_100508" data-name="Trazado 100508" d="M486.065,2532.128v.844h-3.378v-.679l1.726-1.625a1.747,1.747,0,0,0,.367-.45.821.821,0,0,0,.1-.376.51.51,0,0,0-.184-.413.913.913,0,0,0-.532-.138,1.224,1.224,0,0,0-.532.11.978.978,0,0,0-.395.331l-.753-.487a1.782,1.782,0,0,1,.716-.606,2.439,2.439,0,0,1,1.056-.22,2.135,2.135,0,0,1,.872.166,1.274,1.274,0,0,1,.588.459,1.168,1.168,0,0,1,.2.7,1.568,1.568,0,0,1-.147.68,2.778,2.778,0,0,1-.6.734l-1.028.973Z" transform="translate(-287.437 -2521.993)" fill="#fff"/>
      <path id="Trazado_100509" data-name="Trazado 100509" d="M487.069,2533.142a.628.628,0,0,1-.184-.45.58.58,0,0,1,.184-.44.642.642,0,0,1,.909-.009l.009.009a.567.567,0,0,1,.174.44.615.615,0,0,1-.174.45.643.643,0,0,1-.909.009Z" transform="translate(-287.798 -2522.292)" fill="#fff"/>
      <path id="Trazado_100510" data-name="Trazado 100510" d="M489.582,2532.77a1.882,1.882,0,0,1-.679-.8,3.254,3.254,0,0,1,0-2.488,1.92,1.92,0,0,1,.679-.79,1.831,1.831,0,0,1,2.662.79,3.246,3.246,0,0,1,0,2.488,1.835,1.835,0,0,1-2.425.925,1.9,1.9,0,0,1-.237-.127Zm1.634-.918a1.972,1.972,0,0,0,.239-1.083,1.951,1.951,0,0,0-.239-1.083.743.743,0,0,0-1.276,0,2.73,2.73,0,0,0,.037,2.148.744.744,0,0,0,1.276,0Z" transform="translate(-287.943 -2521.993)" fill="#fff"/>
      <path id="Trazado_100511" data-name="Trazado 100511" d="M496.414,2528.992a2.312,2.312,0,0,1,.532,1.643,2.753,2.753,0,0,1-.285,1.3,1.839,1.839,0,0,1-.8.826,2.423,2.423,0,0,1-1.193.285,2.858,2.858,0,0,1-.688-.083,1.693,1.693,0,0,1-.551-.229l.376-.753a1.489,1.489,0,0,0,.845.22,1.2,1.2,0,0,0,.918-.34,1.4,1.4,0,0,0,.358-.918,1.516,1.516,0,0,1-1.111.4,1.653,1.653,0,0,1-.78-.174,1.38,1.38,0,0,1-.56-.487,1.323,1.323,0,0,1-.2-.734,1.444,1.444,0,0,1,.22-.79,1.465,1.465,0,0,1,.615-.514,1.837,1.837,0,0,1,.854-.183A1.9,1.9,0,0,1,496.414,2528.992Zm-.789,1.349a.632.632,0,0,0,.211-.487.611.611,0,0,0-.2-.477.916.916,0,0,0-.578-.184.823.823,0,0,0-.542.184.594.594,0,0,0-.2.477.615.615,0,0,0,.2.5.858.858,0,0,0,.56.183A.811.811,0,0,0,495.625,2530.341Z" transform="translate(-288.322 -2521.997)" fill="#fff"/>
      <path id="Trazado_100512" data-name="Trazado 100512" d="M501.387,2531.054a1.077,1.077,0,0,1,.184.615,1.162,1.162,0,0,1-.239.725,1.478,1.478,0,0,1-.67.478,2.883,2.883,0,0,1-1.974,0,1.448,1.448,0,0,1-.661-.478,1.155,1.155,0,0,1-.193-.725,1.073,1.073,0,0,1,.174-.615,1.251,1.251,0,0,1,.5-.441,1.035,1.035,0,0,1-.386-.386,1.023,1.023,0,0,1-.138-.532,1.089,1.089,0,0,1,.22-.679,1.36,1.36,0,0,1,.606-.441,2.429,2.429,0,0,1,.918-.156,2.506,2.506,0,0,1,.918.156,1.336,1.336,0,0,1,.615.441,1.144,1.144,0,0,1,.211.679,1.1,1.1,0,0,1-.128.532,1.066,1.066,0,0,1-.395.386A1.19,1.19,0,0,1,501.387,2531.054Zm-1.092,1.055a.578.578,0,0,0,.22-.468.549.549,0,0,0-.22-.468.989.989,0,0,0-.624-.174.959.959,0,0,0-.606.174.608.608,0,0,0,0,.918.968.968,0,0,0,.606.174A1,1,0,0,0,500.295,2532.109Zm-1.12-2.754a.541.541,0,0,0-.052.764.461.461,0,0,0,.052.053.956.956,0,0,0,1.019,0,.478.478,0,0,0,.193-.4.5.5,0,0,0-.193-.413.8.8,0,0,0-.514-.147.776.776,0,0,0-.5.119Z" transform="translate(-288.696 -2521.993)" fill="#fff"/>
      <path id="Trazado_100513" data-name="Trazado 100513" d="M502.629,2533.142a.619.619,0,0,1-.174-.45.57.57,0,0,1,.174-.44.642.642,0,0,1,.909-.009l.009.009a.573.573,0,0,1,.184.44.628.628,0,0,1-.184.45.643.643,0,0,1-.909.009Z" transform="translate(-289.075 -2522.292)" fill="#fff"/>
      <path id="Trazado_100514" data-name="Trazado 100514" d="M507.227,2530.555a1.276,1.276,0,0,1,.45,1.01,1.368,1.368,0,0,1-.826,1.285,2.359,2.359,0,0,1-1.037.2,3.58,3.58,0,0,1-.918-.128,2.564,2.564,0,0,1-.78-.349l.413-.8a1.994,1.994,0,0,0,.587.3,2.464,2.464,0,0,0,.679.1,1.077,1.077,0,0,0,.615-.147.518.518,0,0,0,.229-.432.466.466,0,0,0-.239-.431,1.545,1.545,0,0,0-.808-.156h-1.147l.239-2.515h2.754v.835H505.6l-.073.844h.367A2.184,2.184,0,0,1,507.227,2530.555Z" transform="translate(-289.212 -2522)" fill="#fff"/>
      <path id="Trazado_100515" data-name="Trazado 100515" d="M509.382,2532.77a1.771,1.771,0,0,1-.679-.8,3.254,3.254,0,0,1,0-2.488,1.78,1.78,0,0,1,1.671-1.065,1.839,1.839,0,0,1,.991.275,1.913,1.913,0,0,1,.679.79,3.246,3.246,0,0,1,0,2.488,1.883,1.883,0,0,1-.679.8,1.922,1.922,0,0,1-1.983,0Zm1.634-.918a1.977,1.977,0,0,0,.229-1.083,1.956,1.956,0,0,0-.229-1.083.734.734,0,0,0-.643-.358.723.723,0,0,0-.643.358,1.964,1.964,0,0,0-.229,1.083,1.985,1.985,0,0,0,.229,1.083.727.727,0,0,0,.643.358.736.736,0,0,0,.643-.395Z" transform="translate(-289.568 -2521.993)" fill="#fff"/>
      <path id="Trazado_100516" data-name="Trazado 100516" d="M514.84,2528.5v4.48H513.8V2529.3h-.918v-.835Z" transform="translate(-289.931 -2521.997)" fill="#fff"/>
      <path id="Trazado_100517" data-name="Trazado 100517" d="M516.009,2533.142a.618.618,0,0,1-.174-.45.569.569,0,0,1,.174-.44.642.642,0,0,1,.909-.009l.009.009a.573.573,0,0,1,.184.44.628.628,0,0,1-.184.45.644.644,0,0,1-.909.009Z" transform="translate(-290.173 -2522.292)" fill="#fff"/>
      <path id="Trazado_100518" data-name="Trazado 100518" d="M518.523,2532.77a1.883,1.883,0,0,1-.679-.8,3.358,3.358,0,0,1,0-2.488,1.92,1.92,0,0,1,.679-.79,1.839,1.839,0,0,1,.991-.275,1.779,1.779,0,0,1,1.671,1.065,3.246,3.246,0,0,1,0,2.488,1.771,1.771,0,0,1-.679.8,1.922,1.922,0,0,1-1.983,0Zm1.634-.918a1.973,1.973,0,0,0,.239-1.083,1.952,1.952,0,0,0-.239-1.083.743.743,0,0,0-1.276,0,1.964,1.964,0,0,0-.229,1.083,1.986,1.986,0,0,0,.229,1.083.744.744,0,0,0,1.276,0Z" transform="translate(-290.318 -2521.993)" fill="#fff"/>
      <path id="Trazado_100519" data-name="Trazado 100519" d="M523.252,2532.77a1.883,1.883,0,0,1-.679-.8,3.254,3.254,0,0,1,0-2.488,1.92,1.92,0,0,1,.679-.79,1.832,1.832,0,0,1,2.662.79,3.246,3.246,0,0,1,0,2.488,1.836,1.836,0,0,1-2.425.925,1.9,1.9,0,0,1-.237-.127Zm1.634-.918a1.972,1.972,0,0,0,.239-1.083,1.952,1.952,0,0,0-.239-1.083.743.743,0,0,0-1.276,0,1.951,1.951,0,0,0-.239,1.083,1.971,1.971,0,0,0,.239,1.083.744.744,0,0,0,1.276,0Z" transform="translate(-290.706 -2521.993)" fill="#fff"/>
      <path id="Trazado_100520" data-name="Trazado 100520" d="M339.54,2620.2v4.48H338.5V2621h-.918v-.835Z" transform="translate(-275.549 -2529.52)"/>
      <path id="Trazado_100521" data-name="Trazado 100521" d="M340.835,2620.2h2.029a2.745,2.745,0,0,1,1.285.285,2.053,2.053,0,0,1,.872.78,2.369,2.369,0,0,1,0,2.35,2.064,2.064,0,0,1-.872.78,2.76,2.76,0,0,1-1.285.285h-2.029Zm1.974,3.626a1.518,1.518,0,0,0,1.074-.376,1.46,1.46,0,0,0,0-2.02,1.476,1.476,0,0,0-1.074-.376h-.918v2.754Z" transform="translate(-275.816 -2529.523)"/>
      <path id="Trazado_100522" data-name="Trazado 100522" d="M366.22,2620.2v4.48h-1.037V2621h-.918v-.835Z" transform="translate(-277.738 -2529.52)"/>
      <path id="Trazado_100523" data-name="Trazado 100523" d="M374.276,2620.2l-1.46,4.48H371.7l-.982-3.029-1.01,3.029h-1.111l-1.469-4.48H368.2l1.01,3.148,1.056-3.148h.918l1.028,3.176,1.037-3.176Z" transform="translate(-277.973 -2529.523)"/>
      <path id="Trazado_100524" data-name="Trazado 100524" d="M394.79,2620.2v4.48h-1.037V2621h-.918v-.835Z" transform="translate(-280.082 -2529.52)"/>
      <path id="Trazado_100525" data-name="Trazado 100525" d="M400.192,2624.679v-2.69l-1.322,2.213H398.4l-1.3-2.148v2.625h-.973v-4.48h.854l1.68,2.754,1.643-2.754h.854v4.48Z" transform="translate(-280.352 -2529.523)"/>
      <rect id="Rectángulo_5251" data-name="Rectángulo 5251" width="16.615" height="10.226" rx="4" transform="translate(134.298 87.922)" fill="#d9a171"/>
      <path id="Trazado_100526" data-name="Trazado 100526" d="M423.215,2622.457a1.247,1.247,0,0,1,.312.854,1.361,1.361,0,0,1-.826,1.239,2.346,2.346,0,0,1-1.028.2,3.136,3.136,0,0,1-.918-.128,2.279,2.279,0,0,1-.78-.349l.4-.8a2,2,0,0,0,.587.3,2.218,2.218,0,0,0,.688.1,1.093,1.093,0,0,0,.615-.147.478.478,0,0,0,.22-.422c0-.367-.275-.551-.835-.551h-.468v-.688l.918-1.037H420.2v-.835h3.13v.7l-1.01,1.157A1.565,1.565,0,0,1,423.215,2622.457Z" transform="translate(-282.309 -2529.523)" fill="#fff"/>
      <path id="Trazado_100527" data-name="Trazado 100527" d="M428.742,2624.679v-2.69l-1.313,2.213h-.468l-1.313-2.148v2.625h-.964v-4.48h.854l1.671,2.754,1.652-2.754h.854v4.48Z" transform="translate(-282.695 -2529.523)" fill="#fff"/>
      <path id="Trazado_100528" data-name="Trazado 100528" d="M450.872,2622.037a1.344,1.344,0,0,1,.551.487,1.316,1.316,0,0,1,.211.734,1.433,1.433,0,0,1-.835,1.3,2.058,2.058,0,0,1-.863.184,1.893,1.893,0,0,1-1.469-.578,2.3,2.3,0,0,1-.532-1.643,2.766,2.766,0,0,1,.294-1.3,1.912,1.912,0,0,1,.8-.817,2.386,2.386,0,0,1,1.193-.284,2.8,2.8,0,0,1,.688.083,1.841,1.841,0,0,1,.56.22l-.386.762a1.481,1.481,0,0,0-.835-.22,1.23,1.23,0,0,0-.918.33,1.4,1.4,0,0,0-.358.964,1.493,1.493,0,0,1,1.111-.395A1.69,1.69,0,0,1,450.872,2622.037Zm-.45,1.753a.6.6,0,0,0,.2-.486.613.613,0,0,0-.2-.486.821.821,0,0,0-.56-.184.8.8,0,0,0-.551.193.589.589,0,0,0-.22.477.638.638,0,0,0,.211.486.923.923,0,0,0,.578.184A.811.811,0,0,0,450.422,2623.791Z" transform="translate(-284.602 -2529.516)"/>
      <path id="Trazado_100529" data-name="Trazado 100529" d="M456.752,2624.679v-2.69l-1.313,2.213h-.468l-1.313-2.148v2.625h-.973v-4.48h.863l1.671,2.754,1.652-2.754h.845v4.48Z" transform="translate(-284.992 -2529.523)"/>
      <path id="Trazado_100530" data-name="Trazado 100530" d="M479.32,2620.2v4.48h-1.037V2621h-.918v-.835Z" transform="translate(-287.017 -2529.52)"/>
      <path id="Trazado_100531" data-name="Trazado 100531" d="M482.736,2623.091v1.588h-1.056v-1.6l-1.726-2.883h1.092l1.2,1.992,1.193-1.992h1.019Z" transform="translate(-287.229 -2529.523)"/>
      <path id="Trazado_100532" data-name="Trazado 100532" d="M507.776,2622.457a1.247,1.247,0,0,1,.312.854,1.33,1.33,0,0,1-.211.716,1.372,1.372,0,0,1-.624.523,2.274,2.274,0,0,1-1.019.2,3.272,3.272,0,0,1-.918-.128,2.318,2.318,0,0,1-.771-.349l.4-.8a2,2,0,0,0,.587.3,2.169,2.169,0,0,0,.688.1,1.117,1.117,0,0,0,.615-.147.478.478,0,0,0,.22-.422c0-.367-.275-.551-.835-.551h-.5v-.688l.918-1.037h-1.909v-.835h3.13v.7l-1.01,1.157A1.567,1.567,0,0,1,507.776,2622.457Z" transform="translate(-289.247 -2529.523)"/>
      <path id="Trazado_100533" data-name="Trazado 100533" d="M511.248,2623.091v1.588H510.22v-1.6l-1.735-2.883h1.1l1.193,1.992,1.193-1.992h1.019Z" transform="translate(-289.57 -2529.523)"/>
      <path id="Trazado_100534" data-name="Trazado 100534" d="M327.834,2591.743h0a1.276,1.276,0,0,1,1.074-1.45h0l24.151-3.672,25.7-10.676,25.868-3.451,25.382,8.886,25.354-11.015h25.62l24.161-8.051a1.275,1.275,0,0,1,1.615.8v0h0a1.276,1.276,0,0,1-.805,1.615h0L481.473,2573h-25.5l-25.785,11.172-25.749-9.014-25.1,3.351-25.7,10.676-24.3,3.672a1.3,1.3,0,0,1-1.5-1.054C327.839,2591.78,327.837,2591.761,327.834,2591.743Z" transform="translate(-274.748 -2524.769)" fill="#d9a171"/>
      <path id="Trazado_100535" data-name="Trazado 100535" d="M353.055,2596.874l-25.024-20.434a1.3,1.3,0,0,1-.2-1.82l.013-.016h0a1.275,1.275,0,0,1,1.791-.22l.045.037,24.133,19.7,24.877-4.14,25.455-9.335,25.7-12.393,25.813-6.885,25.446,3.442,24.078-8.427a1.276,1.276,0,0,1,1.625.781h0a1.276,1.276,0,0,1-.78,1.625l-24.647,8.629L455.766,2564l-25.207,6.719-25.455,12.3-25.886,9.492Z" transform="translate(-274.726 -2524.281)" fill="#6595bf"/>
      <circle id="Elipse_3982" data-name="Elipse 3982" cx="6.958" cy="6.958" r="6.958" transform="translate(16.736 23.901)" fill="#d9a171"/>
      <rect id="Rectángulo_5252" data-name="Rectángulo 5252" width="36.425" height="9.886" rx="1.54" transform="translate(5.48 42.722)" fill="#fff" opacity="0.5" style="isolation: isolate"/>
      <path id="Trazado_100536" data-name="Trazado 100536" d="M280.915,2574.617l-1.45.762.275-1.616-1.175-1.147,1.625-.239.725-1.469.725,1.469,1.625.239-1.175,1.147.275,1.616Z" transform="translate(-270.707 -2525.479)" fill="#d9a171"/>
      <path id="Trazado_100537" data-name="Trazado 100537" d="M288.265,2574.617l-1.45.762.275-1.616-1.175-1.147,1.625-.239.725-1.469.725,1.469,1.625.239-1.175,1.147.275,1.616Z" transform="translate(-271.31 -2525.479)" fill="#d9a171"/>
      <path id="Trazado_100538" data-name="Trazado 100538" d="M295.615,2574.617l-1.46.762.285-1.616-1.175-1.147,1.616-.239.734-1.469.725,1.469,1.616.239-1.175,1.147.285,1.616Z" transform="translate(-271.913 -2525.479)" fill="#d9a171"/>
      <path id="Trazado_100539" data-name="Trazado 100539" d="M302.955,2574.617l-1.45.762.275-1.616-1.175-1.147,1.625-.239.725-1.469.725,1.469,1.625.239-1.175,1.147.275,1.616Z" transform="translate(-272.515 -2525.479)" fill="#fff" opacity="0.9" style="isolation: isolate"/>
      <path id="Trazado_100540" data-name="Trazado 100540" d="M310.305,2574.617l-1.45.762.275-1.616-1.175-1.147,1.625-.239.725-1.469.725,1.469,1.625.239-1.175,1.147.275,1.616Z" transform="translate(-273.118 -2525.479)" fill="#fff" opacity="0.9" style="isolation: isolate"/>
      <circle id="Elipse_3983" data-name="Elipse 3983" cx="6.958" cy="6.958" r="6.958" transform="translate(16.732 62.177)" fill="#344154"/>
      <circle id="Elipse_3984" data-name="Elipse 3984" cx="6.958" cy="6.958" r="6.958" transform="translate(16.732 62.177)" fill="#fff" opacity="0.7" style="isolation: isolate"/>
      <rect id="Rectángulo_5253" data-name="Rectángulo 5253" width="36.425" height="9.886" rx="1.54" transform="translate(5.48 81.001)" fill="#fff" opacity="0.5" style="isolation: isolate"/>
      <path id="Trazado_100541" data-name="Trazado 100541" d="M280.915,2616.308l-1.45.762.275-1.615-1.175-1.138,1.625-.239.725-1.469.725,1.469,1.625.239-1.175,1.138.275,1.615Z" transform="translate(-270.707 -2528.9)" fill="#d9a171"/>
      <path id="Trazado_100542" data-name="Trazado 100542" d="M288.265,2616.308l-1.45.762.275-1.615-1.175-1.138,1.625-.239.725-1.469.725,1.469,1.625.239-1.175,1.138.275,1.615Z" transform="translate(-271.31 -2528.9)" fill="#d9a171"/>
      <path id="Trazado_100543" data-name="Trazado 100543" d="M295.615,2616.308l-1.46.762.285-1.615-1.175-1.138,1.616-.239.734-1.469.725,1.469,1.616.239-1.175,1.138.285,1.615Z" transform="translate(-271.913 -2528.9)" fill="#fff" opacity="0.9" style="isolation: isolate"/>
      <path id="Trazado_100544" data-name="Trazado 100544" d="M302.955,2616.308l-1.45.762.275-1.615-1.175-1.138,1.625-.239.725-1.469.725,1.469,1.625.239-1.175,1.138.275,1.615Z" transform="translate(-272.515 -2528.9)" fill="#fff" opacity="0.9" style="isolation: isolate"/>
      <path id="Trazado_100545" data-name="Trazado 100545" d="M310.305,2616.308l-1.45.762.275-1.615-1.175-1.138,1.625-.239.725-1.469.725,1.469,1.625.239-1.175,1.138.275,1.615Z" transform="translate(-273.118 -2528.9)" fill="#fff" opacity="0.9" style="isolation: isolate"/>
      <circle id="Elipse_3985" data-name="Elipse 3985" cx="6.958" cy="6.958" r="6.958" transform="translate(16.733 100.454)" fill="#d9a171"/>
      <circle id="Elipse_3986" data-name="Elipse 3986" cx="6.958" cy="6.958" r="6.958" transform="translate(16.733 100.454)" fill="#fff" opacity="0.3" style="isolation: isolate"/>
      <rect id="Rectángulo_5254" data-name="Rectángulo 5254" width="36.425" height="9.886" rx="1.54" transform="translate(5.48 119.27)" fill="#fff" opacity="0.5" style="isolation: isolate"/>
      <path id="Trazado_100546" data-name="Trazado 100546" d="M280.915,2658.008l-1.45.762.275-1.615-1.175-1.138,1.625-.239.725-1.469.725,1.469,1.625.239-1.175,1.138.275,1.615Z" transform="translate(-270.707 -2532.321)" fill="#d9a171"/>
      <path id="Trazado_100547" data-name="Trazado 100547" d="M288.265,2658.008l-1.45.762.275-1.615-1.175-1.138,1.625-.239.725-1.469.725,1.469,1.625.239-1.175,1.138.275,1.615Z" transform="translate(-271.31 -2532.321)" fill="#d9a171"/>
      <path id="Trazado_100548" data-name="Trazado 100548" d="M295.615,2658.008l-1.46.762.285-1.615-1.175-1.138,1.616-.239.734-1.469.725,1.469,1.616.239-1.175,1.138.285,1.615Z" transform="translate(-271.913 -2532.321)" fill="#d9a171"/>
      <path id="Trazado_100549" data-name="Trazado 100549" d="M302.955,2658.008l-1.45.762.275-1.615-1.175-1.138,1.625-.239.725-1.469.725,1.469,1.625.239-1.175,1.138.275,1.615Z" transform="translate(-272.515 -2532.321)" fill="#d9a171"/>
      <path id="Trazado_100550" data-name="Trazado 100550" d="M310.305,2658.008l-1.45.762.275-1.615-1.175-1.138,1.625-.239.725-1.469.725,1.469,1.625.239-1.175,1.138.275,1.615Z" transform="translate(-273.118 -2532.321)" fill="#fff" opacity="0.9" style="isolation: isolate"/>
      <circle id="Elipse_3987" data-name="Elipse 3987" cx="6.958" cy="6.958" r="6.958" transform="translate(16.739 138.738)" fill="#344154"/>
      <circle id="Elipse_3988" data-name="Elipse 3988" cx="6.958" cy="6.958" r="6.958" transform="translate(16.739 138.738)" fill="#fff" opacity="0.5" style="isolation: isolate"/>
      <rect id="Rectángulo_5255" data-name="Rectángulo 5255" width="36.425" height="9.886" rx="1.54" transform="translate(5.48 157.549)" fill="#fff" opacity="0.5" style="isolation: isolate"/>
      <path id="Trazado_100551" data-name="Trazado 100551" d="M280.915,2699.707l-1.45.762.275-1.616-1.175-1.147,1.625-.239.725-1.469.725,1.469,1.625.239-1.175,1.147.275,1.616Z" transform="translate(-270.707 -2535.741)" fill="#d9a171"/>
      <path id="Trazado_100552" data-name="Trazado 100552" d="M288.265,2699.707l-1.45.762.275-1.616-1.175-1.147,1.625-.239.725-1.469.725,1.469,1.625.239-1.175,1.147.275,1.616Z" transform="translate(-271.31 -2535.741)" fill="#d9a171"/>
      <path id="Trazado_100553" data-name="Trazado 100553" d="M295.615,2699.707l-1.46.762.285-1.616-1.175-1.147,1.616-.239.734-1.469.725,1.469,1.616.239-1.175,1.147.285,1.616Z" transform="translate(-271.913 -2535.741)" fill="#fff" opacity="0.9" style="isolation: isolate"/>
      <path id="Trazado_100554" data-name="Trazado 100554" d="M295.615,2699.707l-1.46.762.285-1.616-1.175-1.147,1.616-.239.734-1.469Z" transform="translate(-271.913 -2535.741)" fill="#d9a171"/>
      <path id="Trazado_100555" data-name="Trazado 100555" d="M302.955,2699.707l-1.45.762.275-1.616-1.175-1.147,1.625-.239.725-1.469.725,1.469,1.625.239-1.175,1.147.275,1.616Z" transform="translate(-272.515 -2535.741)" fill="#fff" opacity="0.9" style="isolation: isolate"/>
      <path id="Trazado_100556" data-name="Trazado 100556" d="M310.305,2699.707l-1.45.762.275-1.616-1.175-1.147,1.625-.239.725-1.469.725,1.469,1.625.239-1.175,1.147.275,1.616Z" transform="translate(-273.118 -2535.741)" fill="#fff" opacity="0.9" style="isolation: isolate"/>
      <rect id="Rectángulo_5256" data-name="Rectángulo 5256" width="7.445" height="14.091" transform="translate(55.684 151.913)" fill="#d9a171"/>
      <rect id="Rectángulo_5257" data-name="Rectángulo 5257" width="7.445" height="19.47" transform="translate(73.657 146.534)" fill="#d9a171"/>
      <rect id="Rectángulo_5258" data-name="Rectángulo 5258" width="7.445" height="29.356" transform="translate(91.622 136.647)" fill="#d9a171"/>
      <rect id="Rectángulo_5259" data-name="Rectángulo 5259" width="7.445" height="22.187" transform="translate(64.67 143.826)" fill="#344154"/>
      <rect id="Rectángulo_5260" data-name="Rectángulo 5260" width="7.445" height="24.418" transform="translate(82.635 141.586)" fill="#344154"/>
      <rect id="Rectángulo_5261" data-name="Rectángulo 5261" width="7.445" height="23.839" transform="translate(100.608 142.164)" fill="#344154"/>
      <g id="Grupo_53598" data-name="Grupo 53598" transform="translate(64.67 141.586)" opacity="0.6">
        <rect id="Rectángulo_5262" data-name="Rectángulo 5262" width="7.445" height="22.187" transform="translate(0 2.24)" fill="#fff"/>
        <rect id="Rectángulo_5263" data-name="Rectángulo 5263" width="7.445" height="24.418" transform="translate(17.964)" fill="#fff"/>
        <rect id="Rectángulo_5264" data-name="Rectángulo 5264" width="7.445" height="23.839" transform="translate(35.938 0.578)" fill="#fff"/>
      </g>
      <rect id="Rectángulo_5265" data-name="Rectángulo 5265" width="7.445" height="32.184" transform="translate(109.595 133.82)" fill="#d9a171"/>
      <path id="Trazado_100557" data-name="Trazado 100557" d="M470,2699.382H408.645l4.158-14.091,8.546-8.087,8.987,12.438,8.987-14.678,8.987,9.74,8.987-9.161,8.987-8.344H470Z" transform="translate(-281.379 -2533.379)" fill="#d9a171"/>
      <path id="Trazado_100558" data-name="Trazado 100558" d="M470,2699.382H408.645l4.158-9.409,8.546-6.921,8.987,6.591,8.987-7.656,8.987,2.717,8.987-2.139,8.987-3.663L470,2667.2Z" transform="translate(-281.379 -2533.379)" fill="#fff" opacity="0.8" style="isolation: isolate"/>
      <path id="Trazado_100559" data-name="Trazado 100559" d="M501.958,2650.4h14.954a14.963,14.963,0,0,0-29.916,0Z" transform="translate(-287.807 -2530.803)" fill="#d9a171"/>
      <path id="Trazado_100560" data-name="Trazado 100560" d="M501.958,2650.4h14.954a14.963,14.963,0,0,0-29.916,0Z" transform="translate(-287.807 -2530.803)" fill="#fff" opacity="0.5" style="isolation: isolate"/>
      <path id="Trazado_100561" data-name="Trazado 100561" d="M512.553,2639.8a14.962,14.962,0,0,0-25.538,10.575h14.963Z" transform="translate(-287.809 -2530.771)" fill="#fff" opacity="0.7" style="isolation: isolate"/>
      <path id="Trazado_100562" data-name="Trazado 100562" d="M491.765,2639.777l10.584,10.575v-14.963A14.934,14.934,0,0,0,491.765,2639.777Z" transform="translate(-288.198 -2530.769)" opacity="0.2" style="isolation: isolate"/>
      <path id="Trazado_100563" data-name="Trazado 100563" d="M491.765,2639.777l10.584,10.575v-14.963A14.934,14.934,0,0,0,491.765,2639.777Z" transform="translate(-288.198 -2530.769)" fill="#d9a171"/>
      <path id="Trazado_100564" data-name="Trazado 100564" d="M491.765,2639.777l10.584,10.575v-14.963A14.934,14.934,0,0,0,491.765,2639.777Z" transform="translate(-288.198 -2530.769)" fill="#fff" opacity="0.5" style="isolation: isolate"/>
      <path id="Trazado_100565" data-name="Trazado 100565" d="M511.4,2643.8l-1.074-1.083-6.765,6.747a1.551,1.551,0,1,0-.819,2.993,1.594,1.594,0,0,0,.415.055,1.561,1.561,0,0,0,1.561-1.561h0a1.406,1.406,0,0,0-.083-.4Z" transform="translate(-289.005 -2531.37)"/>
      <path id="Trazado_100566" data-name="Trazado 100566" d="M501.957,2675.949h14.954a14.963,14.963,0,0,0-29.916-.742c-.005.247-.005.495,0,.742Z" transform="translate(-287.807 -2532.839)" fill="#d9a171"/>
      <path id="Trazado_100567" data-name="Trazado 100567" d="M501.957,2675.949h14.954a14.963,14.963,0,0,0-29.916-.742c-.005.247-.005.495,0,.742Z" transform="translate(-287.807 -2532.839)" fill="#fff" opacity="0.5" style="isolation: isolate"/>
      <path id="Trazado_100568" data-name="Trazado 100568" d="M512.553,2665.4a14.962,14.962,0,0,0-25.538,10.584h14.963Z" transform="translate(-287.809 -2532.872)" fill="#fff" opacity="0.7" style="isolation: isolate"/>
      <path id="Trazado_100569" data-name="Trazado 100569" d="M491.765,2665.374l10.584,10.575v-14.99A14.927,14.927,0,0,0,491.765,2665.374Z" transform="translate(-288.198 -2532.867)" fill="#d9a171"/>
      <path id="Trazado_100570" data-name="Trazado 100570" d="M491.765,2665.374l10.584,10.575v-14.99A14.927,14.927,0,0,0,491.765,2665.374Z" transform="translate(-288.198 -2532.867)" fill="#fff" opacity="0.5" style="isolation: isolate"/>
      <path id="Trazado_100571" data-name="Trazado 100571" d="M503.907,2675.062v-8.693h-1.515v8.693a1.524,1.524,0,0,0-.808,1.331,1.57,1.57,0,0,0,3.13.24,1.49,1.49,0,0,0,0-.24A1.522,1.522,0,0,0,503.907,2675.062Z" transform="translate(-289.004 -2533.311)"/>
      <path id="Trazado_100572" data-name="Trazado 100572" d="M501.958,2701.655h14.954a14.963,14.963,0,0,0-29.916,0Z" transform="translate(-287.807 -2535.008)" fill="#d9a171"/>
      <path id="Trazado_100573" data-name="Trazado 100573" d="M501.958,2701.655h14.954a14.963,14.963,0,0,0-29.916,0Z" transform="translate(-287.807 -2535.008)" fill="#fff" opacity="0.5" style="isolation: isolate"/>
      <path id="Trazado_100574" data-name="Trazado 100574" d="M512.551,2691.006a14.962,14.962,0,0,0-25.556,10.612h14.963Z" transform="translate(-287.807 -2534.971)" fill="#fff" opacity="0.7" style="isolation: isolate"/>
      <path id="Trazado_100575" data-name="Trazado 100575" d="M491.765,2690.988l10.584,10.575v-14.954A14.926,14.926,0,0,0,491.765,2690.988Z" transform="translate(-288.198 -2534.971)" fill="#d9a171"/>
      <path id="Trazado_100576" data-name="Trazado 100576" d="M491.765,2690.988l10.584,10.575v-14.954A14.926,14.926,0,0,0,491.765,2690.988Z" transform="translate(-288.198 -2534.971)" fill="#fff" opacity="0.5" style="isolation: isolate"/>
      <path id="Trazado_100577" data-name="Trazado 100577" d="M511.4,2695.015l-1.074-1.055-6.765,6.756a1.551,1.551,0,1,0-.88,2.975,1.592,1.592,0,0,0,2.037-1.5h0a1.408,1.408,0,0,0-.083-.4Z" transform="translate(-289.002 -2535.574)"/>
      <path id="Trazado_100578" data-name="Trazado 100578" d="M524.326,2537.819l-10.052.11a2.5,2.5,0,0,0-2.469,2.523h0l.092,8.409a2.5,2.5,0,0,0,2.515,2.479h2.91l1.258,1.937a1.065,1.065,0,0,0,1.836,0l1.193-1.992H524.5a2.487,2.487,0,0,0,2.479-2.5v-.028l-.092-8.39a2.488,2.488,0,0,0-2.422-2.553C524.42,2537.817,524.373,2537.817,524.326,2537.819Z" transform="translate(-289.842 -2522.764)" fill="#d9a171"/>
      <path id="Trazado_100579" data-name="Trazado 100579" d="M516.833,2545.117a.977.977,0,0,1,.413.358,1,1,0,0,1,.147.532,1.012,1.012,0,0,1-.615.955,1.4,1.4,0,0,1-.624.137,1.444,1.444,0,0,1-1.083-.422,1.721,1.721,0,0,1-.385-1.2,2.037,2.037,0,0,1,.211-.918,1.445,1.445,0,0,1,.587-.606,1.759,1.759,0,0,1,.872-.2,2.207,2.207,0,0,1,.5.055,1.272,1.272,0,0,1,.413.165l-.285.56a1.068,1.068,0,0,0-.615-.165.914.914,0,0,0-.661.239,1.05,1.05,0,0,0-.257.707,1.083,1.083,0,0,1,.808-.285A1.175,1.175,0,0,1,516.833,2545.117Zm-.331,1.285a.487.487,0,0,0,.029-.688c-.009-.01-.018-.019-.029-.028a.641.641,0,0,0-.808,0,.421.421,0,0,0-.165.349.453.453,0,0,0,.156.349.616.616,0,0,0,.422.138.6.6,0,0,0,.395-.119Z" transform="translate(-290.078 -2523.251)" fill="#fff"/>
      <path id="Trazado_100580" data-name="Trazado 100580" d="M518.614,2546.891a1.376,1.376,0,0,1-.5-.587,1.957,1.957,0,0,1-.184-.918,2.015,2.015,0,0,1,.184-.918,1.33,1.33,0,0,1,2.442,0,2.134,2.134,0,0,1,.184.918,2.079,2.079,0,0,1-.184.918,1.358,1.358,0,0,1-1.8.664A1.23,1.23,0,0,1,518.614,2546.891Zm1.193-.7a1.918,1.918,0,0,0,0-1.6.54.54,0,0,0-.468-.257.55.55,0,0,0-.468.257,2.013,2.013,0,0,0,0,1.6.533.533,0,0,0,.468.257.524.524,0,0,0,.468-.257Z" transform="translate(-290.345 -2523.244)" fill="#fff"/>
      <path id="Trazado_100581" data-name="Trazado 100581" d="M521.565,2545.289a1.065,1.065,0,0,1,0-1.322.843.843,0,0,1,1.175,0,1.1,1.1,0,0,1,0,1.322.842.842,0,0,1-1.175,0Zm.835-.275a.851.851,0,0,0,0-.771.294.294,0,0,0-.406-.091.3.3,0,0,0-.09.091.851.851,0,0,0,0,.771.294.294,0,0,0,.406.09A.3.3,0,0,0,522.4,2545.014Zm1.7-1.248h.56l-2.24,3.277h-.551Zm-.147,3.2a.747.747,0,0,1-.321-.275,1.114,1.114,0,0,1-.1-.477,1.137,1.137,0,0,1,.1-.477.718.718,0,0,1,.285-.312.823.823,0,0,1,.422-.11.749.749,0,0,1,.588.248,1.053,1.053,0,0,1,0,1.313.754.754,0,0,1-.588.248A.829.829,0,0,1,523.951,2546.969Zm.67-.413a.628.628,0,0,0,.092-.386.666.666,0,0,0-.092-.385.3.3,0,0,0-.422-.074.3.3,0,0,0-.073.074.666.666,0,0,0-.092.385.683.683,0,0,0,.092.395.306.306,0,0,0,.248.128.267.267,0,0,0,.248-.137Z" transform="translate(-290.624 -2523.249)" fill="#fff"/>
      <path id="Trazado_100582" data-name="Trazado 100582" d="M514.448,2584.305l10.052-.11a2.5,2.5,0,0,0,2.469-2.524h0l-.092-8.417a2.487,2.487,0,0,0-2.506-2.469h-2.919l-1.258-1.873a1.056,1.056,0,0,0-1.836,0l-1.193,1.992h-2.892a2.487,2.487,0,0,0-2.478,2.5v.029l.083,8.39a2.506,2.506,0,0,0,2.523,2.488Z" transform="translate(-289.842 -2525.271)" fill="#344154"/>
      <path id="Trazado_100583" data-name="Trazado 100583" d="M516.931,2578.825a.916.916,0,0,1,.33.744,1.022,1.022,0,0,1-.156.542,1.054,1.054,0,0,1-.45.4,1.854,1.854,0,0,1-.762.146,2.823,2.823,0,0,1-.679-.091,1.941,1.941,0,0,1-.569-.257l.3-.587a1.3,1.3,0,0,0,.432.22,1.485,1.485,0,0,0,.5.073.8.8,0,0,0,.45-.11.351.351,0,0,0,.165-.312.356.356,0,0,0-.174-.321,1.263,1.263,0,0,0-.588-.1h-.835l.165-1.836h2v.578h-1.322l-.055.624h.266A1.578,1.578,0,0,1,516.931,2578.825Z" transform="translate(-290.075 -2526.006)" fill="#fff"/>
      <path id="Trazado_100584" data-name="Trazado 100584" d="M518.5,2580.393a1.376,1.376,0,0,1-.5-.587,2.092,2.092,0,0,1-.184-.918,2.134,2.134,0,0,1,.184-.918,1.282,1.282,0,0,1,.5-.578,1.309,1.309,0,0,1,.725-.2,1.273,1.273,0,0,1,.725.2,1.358,1.358,0,0,1,.5.578,2.142,2.142,0,0,1,.174.918,2.09,2.09,0,0,1-.174.918,1.453,1.453,0,0,1-.5.587,1.287,1.287,0,0,1-.725.2A1.315,1.315,0,0,1,518.5,2580.393Zm1.166-.661a1.427,1.427,0,0,0,.174-.8,1.378,1.378,0,0,0-.174-.79.532.532,0,0,0-.918,0,1.377,1.377,0,0,0-.174.79,1.441,1.441,0,0,0,.174.8.551.551,0,0,0,.918,0Z" transform="translate(-290.336 -2525.994)" fill="#fff"/>
      <path id="Trazado_100585" data-name="Trazado 100585" d="M521.454,2578.82a1.065,1.065,0,0,1,0-1.322.793.793,0,0,1,.588-.239.777.777,0,0,1,.588.239,1.1,1.1,0,0,1,0,1.322.757.757,0,0,1-.588.239A.767.767,0,0,1,521.454,2578.82Zm.835-.275a.852.852,0,0,0,0-.771.265.265,0,0,0-.248-.138.294.294,0,0,0-.248.138.857.857,0,0,0,0,.771.3.3,0,0,0,.248.138.268.268,0,0,0,.248-.165ZM524,2577.3h.542l-2.24,3.277h-.514Zm-.147,3.2a.776.776,0,0,1-.294-.321,1.114,1.114,0,0,1-.1-.478,1.137,1.137,0,0,1,.1-.477.737.737,0,0,1,.294-.312.764.764,0,0,1,.413-.11.741.741,0,0,1,.588.248,1.053,1.053,0,0,1,0,1.313.747.747,0,0,1-.588.248.775.775,0,0,1-.413-.138Zm.67-.413a.7.7,0,0,0,.092-.386.742.742,0,0,0-.092-.385.309.309,0,0,0-.257-.128.3.3,0,0,0-.248.128.667.667,0,0,0-.092.385.684.684,0,0,0,.092.4.306.306,0,0,0,.248.128.3.3,0,0,0,.275-.165Z" transform="translate(-290.615 -2526)" fill="#fff"/>
      <path id="Trazado_100586" data-name="Trazado 100586" d="M410.486,2648.433a1.212,1.212,0,0,1,0-2.414h37.343a1.212,1.212,0,1,1,.211,2.414,1.325,1.325,0,0,1-.211,0Z" transform="translate(-281.439 -2531.641)" fill="#344154"/>
      <path id="Trazado_100587" data-name="Trazado 100587" d="M410.486,2657.913a1.212,1.212,0,0,1,0-2.414h30.063a1.212,1.212,0,1,1,.211,2.414,1.325,1.325,0,0,1-.211,0Z" transform="translate(-281.439 -2532.418)" fill="#344154"/>
      <path id="Trazado_100588" data-name="Trazado 100588" d="M410.486,2653.173a1.212,1.212,0,0,1,0-2.414h27a1.212,1.212,0,0,1,0,2.414Z" transform="translate(-281.439 -2532.03)" fill="#344154"/>
      <g id="Grupo_53599" data-name="Grupo 53599" transform="translate(127.941 114.373)" opacity="0.5">
        <path id="Trazado_100589" data-name="Trazado 100589" d="M410.486,2648.433a1.212,1.212,0,0,1,0-2.414h37.343a1.212,1.212,0,1,1,.211,2.414,1.325,1.325,0,0,1-.211,0Z" transform="translate(-409.38 -2646.014)" fill="#fff"/>
        <path id="Trazado_100590" data-name="Trazado 100590" d="M410.486,2657.913a1.212,1.212,0,0,1,0-2.414h30.063a1.212,1.212,0,1,1,.211,2.414,1.325,1.325,0,0,1-.211,0Z" transform="translate(-409.38 -2646.792)" fill="#fff"/>
        <path id="Trazado_100591" data-name="Trazado 100591" d="M410.486,2653.173a1.212,1.212,0,0,1,0-2.414h27a1.212,1.212,0,0,1,0,2.414Z" transform="translate(-409.38 -2646.403)" fill="#fff"/>
      </g>
      <path id="Trazado_100592" data-name="Trazado 100592" d="M331.876,2648.433a1.212,1.212,0,0,1,0-2.414h37.343a1.212,1.212,0,1,1,.211,2.414,1.325,1.325,0,0,1-.211,0Z" transform="translate(-274.99 -2531.641)" fill="#344154"/>
      <path id="Trazado_100593" data-name="Trazado 100593" d="M331.876,2657.913a1.212,1.212,0,0,1,0-2.414h21.9a1.212,1.212,0,0,1,0,2.414Z" transform="translate(-274.99 -2532.419)" fill="#344154"/>
      <path id="Trazado_100594" data-name="Trazado 100594" d="M331.876,2653.173a1.212,1.212,0,0,1,0-2.414h31.679a1.212,1.212,0,0,1,0,2.414Z" transform="translate(-274.99 -2532.03)" fill="#344154"/>
      <g id="Grupo_53600" data-name="Grupo 53600" transform="translate(55.78 114.373)" opacity="0.5">
        <path id="Trazado_100595" data-name="Trazado 100595" d="M331.876,2648.433a1.212,1.212,0,0,1,0-2.414h37.343a1.212,1.212,0,1,1,.211,2.414,1.325,1.325,0,0,1-.211,0Z" transform="translate(-330.77 -2646.014)" fill="#fff"/>
        <path id="Trazado_100596" data-name="Trazado 100596" d="M331.876,2657.913a1.212,1.212,0,0,1,0-2.414h21.9a1.212,1.212,0,0,1,0,2.414Z" transform="translate(-330.77 -2646.792)" fill="#fff"/>
        <path id="Trazado_100597" data-name="Trazado 100597" d="M331.876,2653.173a1.212,1.212,0,0,1,0-2.414h31.679a1.212,1.212,0,0,1,0,2.414Z" transform="translate(-330.77 -2646.403)" fill="#fff"/>
      </g>
    </g>
    <g id="freepik--character-2--inject-510" transform="translate(453.562 2593.506)">
      <path id="Trazado_100598" data-name="Trazado 100598" d="M503.405,2656.45H487.451a1.6,1.6,0,0,1-1.561-1.423l-2.056-23.766a1.286,1.286,0,0,1,1.13-1.424,1.059,1.059,0,0,1,.173-.008h15.954a1.606,1.606,0,0,1,1.561,1.432l2.075,23.766a1.284,1.284,0,0,1-1.139,1.416A1.379,1.379,0,0,1,503.405,2656.45Z" transform="translate(-480.963 -2602.4)" fill="#d9a171"/>
      <path id="Trazado_100599" data-name="Trazado 100599" d="M504.405,2656.45H488.451a1.6,1.6,0,0,1-1.56-1.423l-2.056-23.766a1.286,1.286,0,0,1,1.13-1.424,1.058,1.058,0,0,1,.173-.008h15.954a1.606,1.606,0,0,1,1.56,1.432l2.075,23.766a1.284,1.284,0,0,1-1.139,1.416A1.38,1.38,0,0,1,504.405,2656.45Z" transform="translate(-481.045 -2602.4)" fill="#d9a171"/>
      <path id="Trazado_100600" data-name="Trazado 100600" d="M504.405,2656.45H488.451a1.6,1.6,0,0,1-1.56-1.423l-2.056-23.766a1.286,1.286,0,0,1,1.13-1.424,1.058,1.058,0,0,1,.173-.008h15.954a1.606,1.606,0,0,1,1.56,1.432l2.075,23.766a1.284,1.284,0,0,1-1.139,1.416A1.38,1.38,0,0,1,504.405,2656.45Z" transform="translate(-481.045 -2602.4)" opacity="0.5" style="isolation: isolate"/>
      <path id="Trazado_100601" data-name="Trazado 100601" d="M502.237,2630.829H486.283a.458.458,0,0,0-.471.446.423.423,0,0,0,0,.068l2.075,23.766a.569.569,0,0,0,.56.505H504.4a.46.46,0,0,0,.471-.448c0-.019,0-.039,0-.057l-2.075-23.766A.578.578,0,0,0,502.237,2630.829Z" transform="translate(-481.126 -2602.482)" fill="#fff" opacity="0.6" style="isolation: isolate"/>
      <path id="Trazado_100602" data-name="Trazado 100602" d="M505.075,2655.184l-2.047-23.445L488.3,2655.551a.567.567,0,0,0,.358.138h15.954a.46.46,0,0,0,.471-.448C505.078,2655.221,505.077,2655.2,505.075,2655.184Z" transform="translate(-481.33 -2602.556)" fill="#fff" opacity="0.3" style="isolation: isolate"/>
      <path id="Trazado_100603" data-name="Trazado 100603" d="M500.106,2643.729h-8.262a1.066,1.066,0,0,1-1.037-.918l-.422-4.875a.854.854,0,0,1,.787-.916.727.727,0,0,1,.076,0h8.262a1.063,1.063,0,0,1,1.037.918l.422,4.875a.853.853,0,0,1-.787.915Z" transform="translate(-481.501 -2602.99)" fill="#fff" opacity="0.9" style="isolation: isolate"/>
      <path id="Trazado_100604" data-name="Trazado 100604" d="M500.906,2652.979h-8.262a1.066,1.066,0,0,1-1.037-.918l-.422-4.875a.853.853,0,0,1,.787-.916.667.667,0,0,1,.076,0h8.262a1.064,1.064,0,0,1,1.037.918l.422,4.875a.853.853,0,0,1-.787.915Z" transform="translate(-481.566 -2603.748)" fill="#fff" opacity="0.9" style="isolation: isolate"/>
      <path id="Trazado_100605" data-name="Trazado 100605" d="M492.087,2639.018a.322.322,0,0,1-.312-.285.267.267,0,0,1,.238-.293h6.665a.33.33,0,0,1,.321.294.266.266,0,0,1-.247.284h-6.665Z" transform="translate(-481.615 -2603.106)" fill="#344154"/>
      <path id="Trazado_100606" data-name="Trazado 100606" d="M492.287,2641.306a.322.322,0,0,1-.312-.293.267.267,0,0,1,.238-.293h5.536a.329.329,0,0,1,.321.294.265.265,0,0,1-.237.292l-.029,0Z" transform="translate(-481.631 -2603.293)" fill="#344154"/>
      <path id="Trazado_100607" data-name="Trazado 100607" d="M492.187,2640.167a.332.332,0,0,1-.312-.294.267.267,0,0,1,.238-.293h4.416a.321.321,0,0,1,.312.294.265.265,0,0,1-.237.292l-.029,0Z" transform="translate(-481.623 -2603.199)" fill="#344154"/>
      <g id="Grupo_53601" data-name="Grupo 53601" transform="translate(10.159 35.333)" opacity="0.5">
        <path id="Trazado_100608" data-name="Trazado 100608" d="M492.087,2639.018a.322.322,0,0,1-.312-.285.267.267,0,0,1,.238-.293h6.665a.33.33,0,0,1,.321.294.266.266,0,0,1-.247.284h-6.665Z" transform="translate(-491.773 -2638.439)" fill="#fff"/>
        <path id="Trazado_100609" data-name="Trazado 100609" d="M492.287,2641.306a.322.322,0,0,1-.312-.293.267.267,0,0,1,.238-.293h5.536a.329.329,0,0,1,.321.294.265.265,0,0,1-.237.292l-.029,0Z" transform="translate(-491.79 -2638.626)" fill="#fff"/>
        <path id="Trazado_100610" data-name="Trazado 100610" d="M492.187,2640.167a.332.332,0,0,1-.312-.294.267.267,0,0,1,.238-.293h4.416a.321.321,0,0,1,.312.294.265.265,0,0,1-.237.292l-.029,0Z" transform="translate(-491.782 -2638.532)" fill="#fff"/>
      </g>
      <path id="Trazado_100611" data-name="Trazado 100611" d="M492.916,2648.406a.331.331,0,0,1-.321-.294.276.276,0,0,1,.256-.294H499.5a.329.329,0,0,1,.321.294.265.265,0,0,1-.237.292l-.029,0Z" transform="translate(-481.682 -2603.875)" fill="#344154"/>
      <path id="Trazado_100612" data-name="Trazado 100612" d="M493.016,2649.547a.331.331,0,0,1-.321-.294.267.267,0,0,1,.247-.285h4.407a.321.321,0,0,1,.312.285.257.257,0,0,1-.218.291.266.266,0,0,1-.049,0Z" transform="translate(-481.691 -2603.97)" fill="#344154"/>
      <g id="Grupo_53602" data-name="Grupo 53602" transform="translate(10.912 43.943)" opacity="0.5">
        <path id="Trazado_100613" data-name="Trazado 100613" d="M492.916,2648.406a.331.331,0,0,1-.321-.294.276.276,0,0,1,.256-.294H499.5a.329.329,0,0,1,.321.294.265.265,0,0,1-.237.292l-.029,0Z" transform="translate(-492.594 -2647.819)" fill="#fff"/>
        <path id="Trazado_100614" data-name="Trazado 100614" d="M493.016,2649.547a.331.331,0,0,1-.321-.294.267.267,0,0,1,.247-.285h4.407a.321.321,0,0,1,.312.285.257.257,0,0,1-.218.291.266.266,0,0,1-.049,0Z" transform="translate(-492.603 -2647.913)" fill="#fff"/>
      </g>
      <path id="Trazado_100615" data-name="Trazado 100615" d="M520.585,2614.1c.147-.532,0-1.046-.358-1.147s-.753.257-.918.79,0,1.037.349,1.138S520.429,2614.637,520.585,2614.1Z" transform="translate(-483.869 -2601.014)" fill="#344154"/>
      <path id="Trazado_100616" data-name="Trazado 100616" d="M519.582,2615.079l-4.057,2.644a3.609,3.609,0,0,0,2.8,1.643Z" transform="translate(-483.564 -2601.19)" fill="#de5753"/>
      <path id="Trazado_100617" data-name="Trazado 100617" d="M538.551,2619.3c-2.754,6.426-3.736,9.18-8.262,11.4-6.27,1.634-14.072-1.441-13.329-8.546.679-6.426,5-15.8,12.365-16.184a9.528,9.528,0,0,1,9.18,13.329Z" transform="translate(-483.677 -2600.441)" fill="#e4897b"/>
      <path id="Trazado_100618" data-name="Trazado 100618" d="M521.923,2612.9a.342.342,0,0,1-.22-.211,2.566,2.566,0,0,0-1.579-1.716.325.325,0,1,1,.184-.624,3.209,3.209,0,0,1,2.02,2.147.321.321,0,0,1-.184.4h0A.306.306,0,0,1,521.923,2612.9Z" transform="translate(-483.922 -2600.801)" fill="#344154"/>
      <path id="Trazado_100619" data-name="Trazado 100619" d="M523.6,2629.339s-4.672.918-6.518-3.13c.633,3.268,3.351,5.361,6.628,6.178l1.12-.789-.606-1.662Z" transform="translate(-483.692 -2602.103)" opacity="0.2" style="isolation: isolate"/>
      <path id="Trazado_100620" data-name="Trazado 100620" d="M532.337,2640.161s-4.03-1.973-1.12-9.666c0,0-3.222-3.195-6.573-1.836s-.542,8.436-4.48,9.529C520.165,2638.188,522.221,2641.042,532.337,2640.161Z" transform="translate(-483.944 -2602.276)" fill="#e4897b"/>
      <path id="Trazado_100621" data-name="Trazado 100621" d="M520.427,2613.013a1.608,1.608,0,0,1-.982-.744,1.25,1.25,0,0,0,.835,1Z" transform="translate(-483.885 -2600.959)" fill="#344154"/>
      <path id="Trazado_100622" data-name="Trazado 100622" d="M518.075,2639.141s2.405-3.754,8.886-3.011,5.2,4.663,5.2,4.663Z" transform="translate(-483.773 -2602.909)" fill="#d9a171"/>
      <path id="Trazado_100623" data-name="Trazado 100623" d="M518.075,2639.141s2.405-3.754,8.886-3.011,5.2,4.663,5.2,4.663Z" transform="translate(-483.773 -2602.909)" fill="#fff" opacity="0.3" style="isolation: isolate"/>
      <path id="Trazado_100624" data-name="Trazado 100624" d="M523.765,2617.4a10.6,10.6,0,0,1,1.836-5.306c1.836-2.754.808-4.544.918-6.288s9.06-3.507,12.5,2.46c0,0,6.2,5.352,1.836,11.778s-6.123,11.337-11.4,10.529S527.207,2621.039,523.765,2617.4Z" transform="translate(-484.24 -2600.292)" fill="#344154"/>
      <path id="Trazado_100625" data-name="Trazado 100625" d="M539.6,2608.275a8.5,8.5,0,0,0-6.793-4.066c-1.368,3.048,2.249,6.426,2.249,6.426s-5.306,1.313-4.461,5.664,7.032,2.056,7.032,2.056-3.9,3.782-1.047,6.013a2.041,2.041,0,0,0,1.781.459c.918-1.432,1.9-3.039,3.075-4.773C545.8,2613.627,539.6,2608.275,539.6,2608.275Z" transform="translate(-484.793 -2600.298)" opacity="0.4" style="isolation: isolate"/>
      <path id="Trazado_100626" data-name="Trazado 100626" d="M539.927,2608.484a7.671,7.671,0,0,0-1.377-1.735,7.482,7.482,0,0,0-4.085,6.665c0,6.187,5.508,7.344,6.885,7.463l.413-.615C546.123,2613.836,539.927,2608.484,539.927,2608.484Z" transform="translate(-485.117 -2600.506)" fill="#d9a171"/>
      <path id="Trazado_100627" data-name="Trazado 100627" d="M524.048,2616.34a5.4,5.4,0,0,0-2.176,3.488c-.294,1.836,1.432,2.6,3.084,1.909,1.5-.624,3.424-2.341,2.965-4.14a2.423,2.423,0,0,0-3.874-1.258Z" transform="translate(-484.082 -2601.248)" fill="#e4897b"/>
      <path id="Trazado_100628" data-name="Trazado 100628" d="M537.548,2610.781s-4.764-5.3-.78-8.363c3.213-2.469,5.691,3.791,5.691,3.791s-.523-7,4.406-6.2,1.955,6.885,1.955,6.885,4.36-2.754,6.2.229-3.507,4.948-3.507,4.948,6.031,3.553,3.158,6.013-5.618-.477-5.618-.477,1.717,4.773-1.5,5.508c-2.91.679-3.782-3.736-3.782-3.736s-2.185,5.278-4.819,3.213.11-5.553.11-5.553-4.856,2.111-5.646-1.9S537.548,2610.781,537.548,2610.781Z" transform="translate(-485.024 -2599.948)" fill="#344154"/>
      <path id="Trazado_100629" data-name="Trazado 100629" d="M544.966,2657.729s8.73,18.754,4.526,20.461-17.028,4.59-17.028,4.59l-6.178,2.23-3.58-2.323.918-6.022,9.033,1.974,10.841-4.856-5.122-11.4Z" transform="translate(-484.153 -2604.689)" fill="#e4897b"/>
      <path id="Trazado_100630" data-name="Trazado 100630" d="M542.026,2646.742a.605.605,0,0,1,.857-.037.6.6,0,0,1,.144.2c2,4.636,11.41,26.9,8.785,30.137-1.955,2.405-11.4,3.672-11.4,3.672l-2.01-5.4,5.728-2.635L537.7,2658S537,2652.378,542.026,2646.742Z" transform="translate(-485.38 -2603.771)" fill="#d9a171"/>
      <path id="Trazado_100631" data-name="Trazado 100631" d="M537.682,2658.013l3.433,7.83c2.846-16.927.918-19.084.918-19.084C537,2652.4,537.682,2658.013,537.682,2658.013Z" transform="translate(-485.379 -2603.789)" opacity="0.2" style="isolation: isolate"/>
      <path id="Trazado_100632" data-name="Trazado 100632" d="M539.145,2821.654l4.92,16.734,4.994-.293L548,2819.929Z" transform="translate(-485.501 -2617.996)" fill="#e4897b"/>
      <path id="Trazado_100633" data-name="Trazado 100633" d="M510.678,2686.685s-6.068,12.209-.229,34.662,29.2,100.672,29.2,100.672l6.582-.79s.413-28.071-8.84-50.717c0,0-4.443-38.508-2.286-47.559,1.515-6.325,2.433-11.613-.174-21.205a67.076,67.076,0,0,0-4.213-11.933c-1.717-3.424-1.212-4.746-1.212-4.746Z" transform="translate(-482.939 -2606.932)" fill="#344154"/>
      <path id="Trazado_100634" data-name="Trazado 100634" d="M542.417,2833.922l6.582-.79v-2.983l-7.344,1Z" transform="translate(-485.707 -2618.834)" opacity="0.5" style="isolation: isolate"/>
      <path id="Trazado_100635" data-name="Trazado 100635" d="M518.844,2752.08c8.445-23.454,6.123-40.473,6.123-40.473l-5.278-.688-4.131,7.344-2.882,12.035C514.309,2736.236,516.494,2743.81,518.844,2752.08Z" transform="translate(-483.33 -2609.052)" opacity="0.4" style="isolation: isolate"/>
      <path id="Trazado_100636" data-name="Trazado 100636" d="M543.574,2839.444l5.939-.835a.549.549,0,0,1,.587.367l2.836,5.425a.918.918,0,0,1-.544,1.179l-.016.006a.6.6,0,0,1-.184.046c-2.479.257-4.691.385-7.775.762-3.626.441-2.653.771-6.912,1.34-2.57.349-3.4-2.515-2.323-2.754,4.92-1.239,5.251-2.809,6.958-4.828A2.225,2.225,0,0,1,543.574,2839.444Z" transform="translate(-485.139 -2619.528)" fill="#344154"/>
      <path id="Trazado_100637" data-name="Trazado 100637" d="M540.905,2832.836l9.125-1.147-.147,2.717-8.041.991Z" transform="translate(-485.646 -2618.96)" fill="#344154"/>
      <path id="Trazado_100638" data-name="Trazado 100638" d="M511.675,2823.039l2.148,16.679h5.049l1.3-16.367Z" transform="translate(-483.248 -2618.251)" fill="#e4897b"/>
      <path id="Trazado_100639" data-name="Trazado 100639" d="M501.689,2684.789a15.822,15.822,0,0,1-1.239,4.379,59.347,59.347,0,0,0-3.8,29.916c2.68,23.05,15.009,103.729,15.009,103.729H518.3s4.544-27.428-.826-51.58c0,0-1.9-33.964.918-42.878,1.964-6.169,7.546-12.145,6.114-25.18s-4.893-17.506-4.893-17.506Z" transform="translate(-481.974 -2606.909)" fill="#344154"/>
      <path id="Trazado_100640" data-name="Trazado 100640" d="M512.555,2831.9l.459,3h6.637s.174-1.093.422-3Z" transform="translate(-483.32 -2618.978)" opacity="0.5" style="isolation: isolate"/>
      <path id="Trazado_100641" data-name="Trazado 100641" d="M512.962,2840.638l5.912.129a.532.532,0,0,1,.523.431l1.138,5.581a.918.918,0,0,1-.707,1.083h-.193c-2.46-.092-4.645-.266-7.711-.312-3.617-.064-2.708.376-6.958.367-2.561,0-2.974-2.938-1.882-3.057,4.975-.542,6.426-2.029,8.39-3.773A2.229,2.229,0,0,1,512.962,2840.638Z" transform="translate(-482.496 -2619.694)" fill="#344154"/>
      <path id="Trazado_100642" data-name="Trazado 100642" d="M511.675,2833.639h9.2l-.514,2.671h-8.115Z" transform="translate(-483.248 -2619.12)" fill="#344154"/>
      <path id="Trazado_100643" data-name="Trazado 100643" d="M534.18,2692.5c-9.418-12.961,6.995-41.767,5.076-47.156s-31.816-14.348-35.745.918-1.836,25.7-2.433,32.358c-.863,9.749-4.884,13.65-4.884,13.65S516.978,2700.072,534.18,2692.5Z" transform="translate(-481.978 -2603.053)" fill="#d9a171"/>
      <path id="Trazado_100644" data-name="Trazado 100644" d="M501.869,2658.92a105.188,105.188,0,0,0-.312,13.457c11.116-12.852,8.656-25.088,8.656-25.088l-.918.569-4.021,3.332S503.7,2654.6,501.869,2658.92Z" transform="translate(-482.41 -2603.832)" opacity="0.2" style="isolation: isolate"/>
      <path id="Trazado_100645" data-name="Trazado 100645" d="M482.826,2656.685s3.112,16.248,6.664,19.066,15.835-17.267,15.835-17.267l-6.068-3.672-8.418,11.309-4.966-11.649.982-6.205-1.616-3.81a1.331,1.331,0,0,0-2.378.1l-1.836,4.067a3.594,3.594,0,0,0-.11,2.689Z" transform="translate(-480.707 -2603.543)" fill="#e4897b"/>
      <path id="Trazado_100646" data-name="Trazado 100646" d="M491.129,2664.857l-2.9-7.041-3.883,5.746s1.928,13.7,6.866,12.42c4.709-1.212,15.357-17.249,17.671-23.427s-.817-12.2-.817-12.2-3.773-.982-8.629,10.41C495.26,2660.552,491.129,2664.857,491.129,2664.857Z" transform="translate(-481.006 -2603.262)" fill="#d9a171"/>
    </g>
    <g id="freepik--character-1--inject-510" transform="translate(249.23 2582.903)">
      <path id="Trazado_100647" data-name="Trazado 100647" d="M273.1,2633.094a2.184,2.184,0,0,0-3.075.3,2.135,2.135,0,0,0-.229.338c-3.727,6.71-14.43,27-11.016,32.643,4.112,6.8,23.6,6.251,23.6,6.251l.918-5.765-12.512-6.472s3.855-7.692,5.03-10.309C277.631,2646.056,280.32,2639.2,273.1,2633.094Z" transform="translate(-258.113 -2592.025)" fill="#344154"/>
      <path id="Trazado_100648" data-name="Trazado 100648" d="M271.689,2660.59s3.855-7.692,5.03-10.309c1.3-2.91,3.066-7.289,1.221-11.8l-3.194-3.387-3.057.964s-6.2,29.88,0,36.012c2.13.33,4.232.523,6.049.634,2.185-1.267,3.773-4,4.828-6.426Z" transform="translate(-259.001 -2592.229)" opacity="0.4" style="isolation: isolate"/>
      <path id="Trazado_100649" data-name="Trazado 100649" d="M294.379,2602.222c-.165-.6,0-1.184.4-1.294s.863.285,1.037.918,0,1.184-.4,1.3S294.554,2602.791,294.379,2602.222Z" transform="translate(-261.083 -2589.425)" fill="#344154"/>
      <path id="Trazado_100650" data-name="Trazado 100650" d="M295.255,2603.349l4.59,2.965a4.113,4.113,0,0,1-3.194,1.836Z" transform="translate(-261.16 -2589.625)" fill="#a24e3f"/>
      <path id="Trazado_100651" data-name="Trazado 100651" d="M271.753,2608.149c3.1,7.344,4.259,10.5,9.4,13.007,7.16,1.836,16.055-1.643,15.2-9.758-.762-7.289-5.7-18.02-14.1-18.451a10.86,10.86,0,0,0-10.5,15.2Z" transform="translate(-259.157 -2588.771)" fill="#b97964"/>
      <path id="Trazado_100652" data-name="Trazado 100652" d="M292.8,2600.858a.414.414,0,0,0,.257-.239,2.9,2.9,0,0,1,1.836-1.964.368.368,0,0,0,.248-.45.384.384,0,0,0-.459-.257,3.671,3.671,0,0,0-2.3,2.442.367.367,0,0,0,.22.468h0A.324.324,0,0,0,292.8,2600.858Z" transform="translate(-260.922 -2589.181)" fill="#344154"/>
      <path id="Trazado_100653" data-name="Trazado 100653" d="M290.289,2619.64s5.324,1.083,7.435-3.571c-.716,3.727-3.819,6.114-7.555,7.041l-1.285-.918.688-1.9Z" transform="translate(-260.637 -2590.669)" opacity="0.2" style="isolation: isolate"/>
      <path id="Trazado_100654" data-name="Trazado 100654" d="M279.175,2633.51s5.141-2.515,1.441-12.319c0,0,4.1-4.066,8.363-2.341s.688,10.75,5.71,12.145C294.689,2631,292.063,2634.622,279.175,2633.51Z" transform="translate(-259.841 -2590.862)" fill="#b97964"/>
      <path id="Trazado_100655" data-name="Trazado 100655" d="M280.23,2629.012s-.918-3.332,4.783-4.727,10.446.312,11.2,2.818S280.23,2629.012,280.23,2629.012Z" transform="translate(-259.923 -2591.302)" fill="#344154"/>
      <path id="Trazado_100656" data-name="Trazado 100656" d="M280.23,2629.012s-.918-3.332,4.783-4.727,10.446.312,11.2,2.818S280.23,2629.012,280.23,2629.012Z" transform="translate(-259.923 -2591.302)" fill="#fff" opacity="0.2" style="isolation: isolate"/>
      <path id="Trazado_100657" data-name="Trazado 100657" d="M290.791,2605.978a2.065,2.065,0,0,0,.381-2.9,2.018,2.018,0,0,0-.381-.381c-1.836-1.717-4.59-3.176-3.81-5.554s-2.864-4-2.864-4,3.589-2.341,1.487-4.213-3.066,1.634-8.115,3.672c-5.82,2.295-12.328,7.83-8.353,15.091s7.491,13.338,12.255,12.172,7.022-10.382,7.022-10.382Z" transform="translate(-258.917 -2588.398)" fill="#344154"/>
      <path id="Trazado_100658" data-name="Trazado 100658" d="M290.963,2604.783a6.083,6.083,0,0,1,2.478,3.975c.34,2.13-1.634,2.965-3.516,2.176-1.7-.707-3.91-2.671-3.378-4.719a2.754,2.754,0,0,1,4.415-1.432Z" transform="translate(-260.439 -2589.691)" fill="#b97964"/>
      <path id="Trazado_100659" data-name="Trazado 100659" d="M303.565,2827.366l1.808,12.245,7.362-.275.56-12.668Z" transform="translate(-261.842 -2607.946)" fill="#b97964"/>
      <path id="Trazado_100660" data-name="Trazado 100660" d="M312.282,2839.519l-7.261.156a.678.678,0,0,0-.652.542l-1.386,6.848a1.121,1.121,0,0,0,.859,1.33h0a1.027,1.027,0,0,0,.239,0c3.02-.1,5.71-.321,9.473-.385,4.443-.073,3.323.478,8.546.459,3.149,0,3.672-3.607,2.322-3.764-6.123-.652-7.913-2.488-10.309-4.59A2.753,2.753,0,0,0,312.282,2839.519Z" transform="translate(-261.792 -2609)" fill="#344154"/>
      <path id="Trazado_100661" data-name="Trazado 100661" d="M264.4,2827.366l-.477,10.85,7.647,1,2.561-12.548Z" transform="translate(-258.59 -2607.946)" fill="#b97964"/>
      <path id="Trazado_100662" data-name="Trazado 100662" d="M270.886,2838.158l-7.252-.459a.679.679,0,0,0-.688.487l-1.964,6.71a1.13,1.13,0,0,0,.753,1.4,1.147,1.147,0,0,0,.239,0c3.02.147,5.71.156,9.473.413,4.434.285,3.268.744,8.482,1.166,3.13.248,3.947-3.286,2.625-3.552-6.049-1.166-7.683-3.139-9.886-5.508A2.752,2.752,0,0,0,270.886,2838.158Z" transform="translate(-258.344 -2608.851)" fill="#344154"/>
      <path id="Trazado_100663" data-name="Trazado 100663" d="M283.269,2670.173l4.507,1.083,7.619-1.928,1.23,3.36.945,4.718-6.059,1.037-4.985-3-6.352-.129Z" transform="translate(-259.923 -2595.038)" fill="#b97964"/>
      <path id="Trazado_100664" data-name="Trazado 100664" d="M271.834,2633.869l3.672,52.259,39.95.312s4.874-14.43-1.147-34.882l-5.884-19.718a4.91,4.91,0,0,0-3.507-3.36c-5.921-1.459-20.324-3.2-31.559,2.6A2.9,2.9,0,0,0,271.834,2633.869Z" transform="translate(-259.238 -2591.569)" fill="#344154"/>
      <path id="Trazado_100665" data-name="Trazado 100665" d="M273.914,2691.689c-2.24,10.355-2.827,17.616-2.754,22.463a40.49,40.49,0,0,0,.22,4.269,61.723,61.723,0,0,1,.266,10.345l-.055.918c-.615,9.951-.725,20.112-.707,26.813v.138a40.771,40.771,0,0,1-2.038,12.916c-.211.643-.422,1.313-.615,1.983-5.645,19.369-5.168,50.267-5.168,50.267l10.96.615,30.137-132.627H276.154A2.331,2.331,0,0,0,273.914,2691.689Z" transform="translate(-258.518 -2596.717)" fill="#d9a171"/>
      <path id="Trazado_100666" data-name="Trazado 100666" d="M292.183,2713.411l-3.754-.863-2.313-2.809s.239,20.994,6.325,41.446l5.93-26.088Z" transform="translate(-260.41 -2598.353)" opacity="0.2" style="isolation: isolate"/>
      <path id="Trazado_100667" data-name="Trazado 100667" d="M261.975,2831.249l.156,3.222,12.466.514.56-3.277Z" transform="translate(-258.43 -2608.322)" fill="#d9a171"/>
      <path id="Trazado_100668" data-name="Trazado 100668" d="M261.975,2831.249l.156,3.222,12.466.514.56-3.277Z" transform="translate(-258.43 -2608.322)" opacity="0.3" style="isolation: isolate"/>
      <path id="Trazado_100669" data-name="Trazado 100669" d="M286.715,2689.788c-2.561,15.33-.982,24.069.716,28.64.165.441.33.854.5,1.221a31.188,31.188,0,0,1,2.506,8.73,1.031,1.031,0,0,0,.064.431,271.539,271.539,0,0,0,6.426,31.265v.1a23.853,23.853,0,0,1,.606,9.326c-.138,1.019-.248,2.111-.321,3.259-1.212,17.845,4.654,50.378,4.654,50.378l10.777-1.01,4.691-130.809a1.469,1.469,0,0,0-1.382-1.551h-.031Z" transform="translate(-260.349 -2596.715)" fill="#d9a171"/>
      <path id="Trazado_100670" data-name="Trazado 100670" d="M301.885,2833.16l.918,3.149,12.053-1.046.174-3.314Z" transform="translate(-261.704 -2608.379)" fill="#d9a171"/>
      <path id="Trazado_100671" data-name="Trazado 100671" d="M301.885,2833.16l.918,3.149,12.053-1.046.174-3.314Z" transform="translate(-261.704 -2608.379)" opacity="0.3" style="isolation: isolate"/>
      <g id="Grupo_53603" data-name="Grupo 53603" transform="translate(15.745 95.303)" opacity="0.7">
        <rect id="Rectángulo_5266" data-name="Rectángulo 5266" width="20.241" height="2.809" transform="translate(10.869)" fill="#fff"/>
        <path id="Trazado_100672" data-name="Trazado 100672" d="M283.463,2692.219h-7.775l-.422,2.809h8.2Z" transform="translate(-275.265 -2692.219)" fill="#fff"/>
        <rect id="Rectángulo_5267" data-name="Rectángulo 5267" width="6.169" height="2.809" transform="translate(33.845)" fill="#fff"/>
      </g>
      <path id="Trazado_100673" data-name="Trazado 100673" d="M317.29,2652.334l-3.176-10.648-2.176-3.029-2.809-2.157-1.294,3.277a26.535,26.535,0,0,0,10.8,17.661C318.236,2655.785,317.8,2654.087,317.29,2652.334Z" transform="translate(-262.192 -2592.345)" opacity="0.4" style="isolation: isolate"/>
      <path id="Trazado_100674" data-name="Trazado 100674" d="M338.895,2633.076l1.937-4.214-.34-6.545a3.24,3.24,0,0,1,.78-2.295l1.12-1.294a3.249,3.249,0,0,1,4.582-.347,3.1,3.1,0,0,1,.347.347l.643.753a3.187,3.187,0,0,1,.771,2.194l-.092,3.672a3.249,3.249,0,0,1-.845,2.1l-3.094,3.406-1.359,6.215Z" transform="translate(-264.74 -2590.794)" fill="#b97964"/>
      <path id="Trazado_100675" data-name="Trazado 100675" d="M311.185,2629.66l18.855,15.174,6.582-12.741,5.664,2.359s-4.03,22.637-9.18,23-18.056-5.746-23.362-13.007c-3.865-5.278-2.111-11.319-.863-14.219a1.494,1.494,0,0,1,2.3-.569Z" transform="translate(-262.155 -2591.757)" fill="#344154"/>
    </g>
  </g>
</svg>
