<svg xmlns="http://www.w3.org/2000/svg" width="401" height="401" viewBox="0 0 401 401">
  <g id="Grupo_54615" data-name="Grupo 54615" transform="translate(-5977.068 -7603.098)">
    <rect id="Rectángulo_5364" data-name="Rectángulo 5364" width="396" height="396" transform="translate(5979.568 7605.598)" fill="#aed3f2" stroke="#aed3f2" stroke-miterlimit="10" stroke-width="5" opacity="0"/>
    <g id="Grupo_54614" data-name="Grupo 54614" transform="translate(6004.575 7664.898)">
      <g id="freepik--background-complete--inject-42" transform="translate(0 7.959)">
        <path id="Trazado_101262" data-name="Trazado 101262" d="M6053.56,7690.886a12.664,12.664,0,0,1,9.767,1.781,22.234,22.234,0,0,1,6.926,7.377c3.467,5.6,4.638,13.083,4.749,19.661-7.306-.364-13.456-6.166-16.447-9.3-4.686-4.971-10.068-16.788-4.995-19.519" transform="translate(-6019.574 -7690.574)" fill="#e0eaf2"/>
        <path id="Trazado_101263" data-name="Trazado 101263" d="M6094.965,7727.609a10.81,10.81,0,0,1-3.625-10.242,14.385,14.385,0,0,1,6.269-9.157c1.465-.974,3.261-1.75,4.947-1.235a4.639,4.639,0,0,1,2.96,3.633,9.5,9.5,0,0,1-.609,4.836c-1.9,5.3-4.7,10.092-9.941,12.166" transform="translate(-6027.839 -7693.958)" fill="#e0eaf2"/>
        <path id="Trazado_101264" data-name="Trazado 101264" d="M6100.131,7745.8a21.451,21.451,0,0,1-2.066-3.831,19.807,19.807,0,0,1-1.457-4.527,43.95,43.95,0,0,1-.942-5.715,21.786,21.786,0,0,1,1.646-10.393,15.942,15.942,0,0,1,1.583-2.771,4.71,4.71,0,0,1,.792-.862,22.079,22.079,0,0,0-3.332,13.97,51.039,51.039,0,0,0,.839,5.651,22.2,22.2,0,0,0,1.267,4.457A25.118,25.118,0,0,1,6100.131,7745.8Z" transform="translate(-6028.762 -7696.228)" fill="#aed3f2"/>
        <path id="Trazado_101265" data-name="Trazado 101265" d="M6060.318,7701.868a12.257,12.257,0,0,1,1.536,1.583c.942,1.053,2.3,2.6,3.957,4.511,3.3,3.839,7.8,9.19,12.665,15.213s9.047,11.619,11.976,15.719c1.479,2.058,2.659,3.728,3.451,4.9a1.106,1.106,0,1,1-.229.174l-3.642-4.749c-3.071-4.021-7.345-9.546-12.174-15.569l-12.458-15.355-3.768-4.654A13.873,13.873,0,0,1,6060.318,7701.868Z" transform="translate(-6021.41 -7692.928)" fill="#aed3f2"/>
        <path id="Trazado_101266" data-name="Trazado 101266" d="M6082.575,7740.913a25.33,25.33,0,0,0-22.954-2.9c-1.916.712-3.958,2.05-4.053,4.092s1.947,3.5,3.839,4.29a21.617,21.617,0,0,0,23.445-5.042" transform="translate(-6020.419 -7700.146)" fill="#e0eaf2"/>
        <path id="Trazado_101267" data-name="Trazado 101267" d="M6067.159,7742a3.707,3.707,0,0,1,1.1-.38c.713-.2,1.765-.428,3.071-.673a28.707,28.707,0,0,1,10.409-.087,17.964,17.964,0,0,1,5.4,2.065,17.315,17.315,0,0,1,5.636,5.438,3.659,3.659,0,0,1,.562,1.013c-.119.087-1.021-1.3-2.889-3.166a17.582,17.582,0,0,0-8.857-4.67,32.212,32.212,0,0,0-10.179-.119C6068.8,7741.766,6067.183,7742.083,6067.159,7742Z" transform="translate(-6022.836 -7700.968)" fill="#aed3f2"/>
        <path id="Trazado_101268" data-name="Trazado 101268" d="M6084.027,7903.277c23.6-11.462,32.808-38.238,35.9-63.132.522-4.155,1.67-8.437.277-12.379s-5.581-7.124-9.562-5.992c-3.293.95-5.2,4.313-7.385,6.989a24.551,24.551,0,0,1-11.168,7.718c-2.85.941-6.237,1.258-8.612-.586-3.253-2.533-2.889-7.527-2.208-11.636l3.8-22.954c.681-4.108,1.361-8.3.7-12.411s-2.9-8.176-6.641-9.894-8.929-.229-10.393,3.657c-.618,1.622-.546,3.411-.934,5.1s-1.48,3.443-3.166,3.665-3.166-1.2-4.211-2.6c-3.578-4.828-5.612-10.63-7.457-16.376s-3.585-11.6-6.72-16.741-7.915-9.577-13.717-10.852-12.665,1.369-15.086,6.91,0,11.976,2.96,17.255a92.88,92.88,0,0,0,16.21,21.245c1.147,1.131,2.375,2.374,2.644,3.957.459,2.881-2.572,5.192-5.422,5.659-3.221.53-6.5-.316-9.767-.443s-6.958.729-8.651,3.563c-2.375,3.957.459,8.9,3.459,12.331a79.442,79.442,0,0,0,21.11,17.121c2.842,1.583,5.873,3.063,7.971,5.58s2.984,6.442,1.052,9.1-5.865,2.984-8.936,1.892-5.635-3.269-8.477-4.852c-5.3-3.032-12.665-3.808-17.057.5-2.889,2.834-3.808,7.267-3.214,11.287s2.509,7.693,4.615,11.145c7.361,12.063,17.588,22.464,29.975,29.089s24.324,9.8,38.1,7.123" transform="translate(-6011.162 -7701.824)" fill="#aed3f2"/>
        <path id="Trazado_101269" data-name="Trazado 101269" d="M6084.13,7905.258c.665-9.949,1.108-4.789-.569-17.857a377.028,377.028,0,0,0-8.311-41.95l-2.747-10.9c-.91-3.569-1.8-7.124-2.9-10.527a185.58,185.58,0,0,0-7.417-19.242c-2.651-6.008-5.39-11.612-7.994-16.828s-5.121-10.06-7.623-14.35a148.137,148.137,0,0,0-13.242-19.36c-1.733-2.153-3.167-3.776-4.1-4.868l-1.108-1.235a2.741,2.741,0,0,0-.4-.4,2.917,2.917,0,0,0,.34.459c.261.316.609.736,1.045,1.282.926,1.116,2.287,2.778,3.958,4.955a156.686,156.686,0,0,1,13,19.448c2.454,4.3,4.939,9.118,7.528,14.334s5.279,10.836,7.915,16.835a186.821,186.821,0,0,1,7.345,19.21c1.084,3.4,1.971,6.91,2.881,10.5s1.813,7.21,2.738,10.883a382.923,382.923,0,0,1,8.358,41.887c1.694,13.028,1.322,7.812.729,17.73" transform="translate(-6014.613 -7702.491)" fill="#aed3f2"/>
        <path id="Trazado_101270" data-name="Trazado 101270" d="M6080.369,7832.347a8.929,8.929,0,0,0,.681-1.693c.4-1.1.918-2.707,1.528-4.71,1.235-4,2.747-9.585,4.393-15.743s3.237-11.714,4.528-15.68c.633-1.986,1.171-3.593,1.583-4.693a8.351,8.351,0,0,0,.515-1.75,8.65,8.65,0,0,0-.792,1.639c-.467,1.076-1.084,2.651-1.789,4.63-1.425,3.958-3.1,9.5-4.749,15.648s-3.063,11.588-4.179,15.83c-.507,1.892-.942,3.491-1.29,4.749A7.541,7.541,0,0,0,6080.369,7832.347Z" transform="translate(-6025.59 -7710.901)" fill="#aed3f2"/>
        <path id="Trazado_101271" data-name="Trazado 101271" d="M6015.579,7820.9a11.23,11.23,0,0,0,2.074.594c1.33.333,3.269.792,5.644,1.473,4.749,1.3,11.263,3.309,18.347,5.849s13.393,5.138,17.9,7.124c2.264.989,4.076,1.836,5.327,2.375a11.013,11.013,0,0,0,1.987.839,11.594,11.594,0,0,0-1.852-1.108c-1.219-.657-3-1.583-5.24-2.636-4.464-2.129-10.765-4.8-17.865-7.36a188.494,188.494,0,0,0-18.474-5.652c-2.375-.594-4.361-1-5.723-1.242A12.019,12.019,0,0,0,6015.579,7820.9Z" transform="translate(-6012.083 -7717.744)" fill="#aed3f2"/>
        <path id="Trazado_101272" data-name="Trazado 101272" d="M6097.688,7906.166a4.831,4.831,0,0,0,.467-.586l1.212-1.765c1.037-1.543,2.485-3.807,4.242-6.633,3.515-5.651,8.121-13.606,13.084-22.456s9.5-16.835,12.886-22.55c1.662-2.771,3.023-5.058,4.037-6.752.435-.736.791-1.345,1.092-1.844a2.75,2.75,0,0,0,.332-.673,4.956,4.956,0,0,0-.467.586l-1.266,1.765c-1.045,1.544-2.494,3.808-4.251,6.633-3.49,5.667-8.1,13.583-13.061,22.456s-9.5,16.836-12.886,22.551c-1.662,2.77-3.023,5.057-4.036,6.751l-1.085,1.844A2.71,2.71,0,0,0,6097.688,7906.166Z" transform="translate(-6029.201 -7722.333)" fill="#aed3f2"/>
        <path id="Trazado_101273" data-name="Trazado 101273" d="M6013.469,7880.118a2.816,2.816,0,0,0,.649.4l1.9,1.005,7.124,3.633c6.023,3.071,14.295,7.409,23.421,12.213s17.414,9.063,23.54,12.015c3.039,1.472,5.541,2.636,7.242,3.412l1.995.878a2.9,2.9,0,0,0,.712.253,2.832,2.832,0,0,0-.649-.4l-1.931-1-7.124-3.633c-6.023-3.071-14.295-7.409-23.421-12.213s-17.414-9.071-23.532-12.016c-3.047-1.472-5.541-2.636-7.25-3.412l-1.963-.894A2.91,2.91,0,0,0,6013.469,7880.118Z" transform="translate(-6011.643 -7730.09)" fill="#aed3f2"/>
      </g>
      <g id="freepik--Floor--inject-42" transform="translate(3.979 276.746)">
        <path id="Trazado_101274" data-name="Trazado 101274" d="M6350.89,8030.364c0,.111-74.933.206-167.342.206s-167.359-.087-167.359-.206,74.917-.206,167.359-.206S6350.89,8030.253,6350.89,8030.364Z" transform="translate(-6016.188 -8030.158)" fill="#344154"/>
      </g>
      <g id="freepik--Plant--inject-42" transform="translate(19.73 145.389)">
        <path id="Trazado_101275" data-name="Trazado 101275" d="M6038.725,7864.682s5.461-3.688,12.284,9.4a171.07,171.07,0,0,1,9.435,20.642s1.8,2.739,3.673.918,4.417-6.949,7.646-6.055,4.48,4.63,3.894,10.108-1.425,17.524-1.5,18.608.554,2.636,2.026,1.583,9.934-10.63,14.248-6.332.182,19.273-.237,20.92-.1,2.375.688,2.747,3.324-3.095,5.841-5.723,5.9-5.248,8.176-2.564,3.111,13.891-7.393,32.207l-5.422,8.168-9.838-.451c-21-2.256-29.587-9.5-30.411-12.925s3.261-4.623,6.871-5.113,7.915-.5,8.065-1.37-.237-1.543-1.82-2.168-16.139-6.079-17.073-12.086,11.794-7.219,13.5-7.812.792-2.01-.111-2.581-11.168-6.973-15.941-9.719-7.124-5.834-5.9-9.087c1.171-3.166,6.815-2.177,9.4-2.627s1.409-3.515,1.409-3.515-4.591-6.546-11.168-19.788-.229-15.49-.229-15.49" transform="translate(-6036.089 -7864.202)" fill="#d9a171"/>
        <path id="Trazado_101276" data-name="Trazado 101276" d="M6047.169,7879.6a2.561,2.561,0,0,1,.134.229l.373.7,1.385,2.7,5.066,9.958c4.314,8.406,10.29,19.986,16.82,32.785s12.521,24.4,16.732,32.84c2.089,4.211,3.776,7.63,4.955,10.013l1.322,2.73.34.721c.071.158.1.245.1.245a1.839,1.839,0,0,1-.143-.229l-.364-.7c-.333-.641-.792-1.583-1.385-2.707-1.211-2.375-2.937-5.762-5.066-9.958-4.243-8.406-10.234-19.994-16.828-32.777s-12.514-24.41-16.7-32.848l-4.986-10.013c-.562-1.171-1.005-2.09-1.322-2.731-.143-.3-.253-.538-.333-.72A.925.925,0,0,1,6047.169,7879.6Z" transform="translate(-6038.399 -7867.412)" fill="#344154"/>
        <path id="Trazado_101277" data-name="Trazado 101277" d="M6075.914,7905.518a19.608,19.608,0,0,1-.546,2.58c-.38,1.686-.871,3.823-1.417,6.2s-1.06,4.6-1.472,6.182c-.214.792-.4,1.417-.539,1.852a2.4,2.4,0,0,1-.261.657,24.979,24.979,0,0,1,.538-2.581l1.369-6.206c.554-2.422,1.092-4.606,1.528-6.182.221-.792.412-1.417.554-1.844A2.349,2.349,0,0,1,6075.914,7905.518Z" transform="translate(-6043.509 -7872.816)" fill="#344154"/>
        <path id="Trazado_101278" data-name="Trazado 101278" d="M6065.273,7926.375c0,.095-4.528-1.061-10.053-2.6s-9.973-2.85-9.941-2.952,4.52,1.061,10.044,2.589S6065.3,7926.271,6065.273,7926.375Z" transform="translate(-6038.005 -7876.005)" fill="#344154"/>
        <path id="Trazado_101279" data-name="Trazado 101279" d="M6081.749,7955.52a2.711,2.711,0,0,1-.721.1c-.459.047-1.132.1-1.963.134-1.662.08-3.958.135-6.506.063s-4.828-.253-6.483-.427c-.792-.087-1.5-.174-1.963-.246a2.612,2.612,0,0,1-.7-.15,21.6,21.6,0,0,1,2.683.127c1.663.11,3.958.245,6.483.316s4.82.063,6.483.047A20.883,20.883,0,0,1,6081.749,7955.52Z" transform="translate(-6041.785 -7883.13)" fill="#344154"/>
        <path id="Trazado_101280" data-name="Trazado 101280" d="M6094.706,7936.757a16.189,16.189,0,0,1-1.1,2.232c-.728,1.354-1.749,3.214-2.9,5.255s-2.208,3.887-2.992,5.208a15.857,15.857,0,0,1-1.338,2.1,16.133,16.133,0,0,1,1.1-2.232c.728-1.354,1.749-3.213,2.9-5.256s2.208-3.886,2.992-5.2A16.31,16.31,0,0,1,6094.706,7936.757Z" transform="translate(-6046.573 -7879.328)" fill="#344154"/>
        <path id="Trazado_101281" data-name="Trazado 101281" d="M6111.323,7959.518a3.5,3.5,0,0,1-.356.792l-1.116,2.05c-.95,1.717-2.287,4.084-3.783,6.688s-2.874,4.955-3.887,6.641c-.475.792-.887,1.448-1.211,1.994a3.533,3.533,0,0,1-.491.7,3.664,3.664,0,0,1,.356-.792l1.116-2.05c.95-1.725,2.288-4.092,3.784-6.7s2.873-4.947,3.886-6.633l1.211-1.995A4.246,4.246,0,0,1,6111.323,7959.518Z" transform="translate(-6049.513 -7884.073)" fill="#344154"/>
        <path id="Trazado_101282" data-name="Trazado 101282" d="M6094.565,7982.333a3.675,3.675,0,0,1-.91.079c-.593,0-1.448.04-2.5.047-2.105,0-5.026,0-8.24-.213s-6.126-.451-8.216-.7c-1.053-.119-1.9-.237-2.477-.325a3.914,3.914,0,0,1-.9-.182,5.057,5.057,0,0,1,.918,0l2.485.206c2.1.182,5,.412,8.208.585s6.119.269,8.224.325l2.5.071A4.723,4.723,0,0,1,6094.565,7982.333Z" transform="translate(-6043.434 -7888.557)" fill="#344154"/>
      </g>
      <g id="freepik--Character--inject-42" transform="translate(71.947)">
        <path id="Trazado_101283" data-name="Trazado 101283" d="M6378.824,7835.211l-26.492,25.8-24.41,46.581-27.45,52.675-33.727-15.831-36.457-18.664,23.318-44.546,14.493-49.865c-10.242,6.791-29.286,16.044-52,11.215-24.648-5.224-12.815-98.148-12.815-98.148l27.086-.7,2.723,65.514,30.592-13.519.047.111c1.844-.792,3.459-1.583,4.314-2.019,16.93-9.237,28.043-10.353,46.209-3.87h0l26.207,8.707c6.736,3.166,31.566,15.395,38.365,36.56" transform="translate(-6122.57 -7693.696)" fill="#d9a171"/>
        <path id="Trazado_101284" data-name="Trazado 101284" d="M6303.771,7799.658s-.609.348-1.638,1.084a18.141,18.141,0,0,0-3.8,3.728,26.876,26.876,0,0,0-3.736,6.958,94.855,94.855,0,0,0-2.794,9.332l-4.654,17.121c-.61,2.145-1.1,3.9-1.464,5.168-.167.578-.309,1.045-.412,1.4a2.2,2.2,0,0,1-.174.482,1.979,1.979,0,0,1,.1-.5c.087-.372.2-.839.34-1.424.324-1.283.792-3.047,1.33-5.208,1.171-4.433,2.771-10.472,4.543-17.152a90.673,90.673,0,0,1,2.833-9.356,26.42,26.42,0,0,1,3.862-7,17.078,17.078,0,0,1,3.958-3.688,11.542,11.542,0,0,1,1.267-.744A3.378,3.378,0,0,1,6303.771,7799.658Z" transform="translate(-6140.219 -7705.357)" fill="#344154"/>
        <g id="Grupo_54608" data-name="Grupo 54608" transform="translate(113.179 107.433)" opacity="0.3">
          <path id="Trazado_101285" data-name="Trazado 101285" d="M6285.535,7816.248c-7.575,20.508-21.2,31.969-40.486,42.243a71.041,71.041,0,0,0,31.811-11.651" transform="translate(-6245.049 -7816.248)" fill="#344154"/>
        </g>
        <g id="Grupo_54609" data-name="Grupo 54609" transform="translate(177.799 92.837)" opacity="0.3">
          <path id="Trazado_101286" data-name="Trazado 101286" d="M6326.689,7797.808q4.812,77.078,9.625,154.148l-9.5,19.582Z" transform="translate(-6326.689 -7797.808)" fill="#344154"/>
        </g>
        <path id="Trazado_101287" data-name="Trazado 101287" d="M6363.081,7862.368c-.111.047-1.077-2.375-2.43-5.3s-2.557-5.24-2.453-5.3a6.862,6.862,0,0,1,.942,1.433c.53.918,1.21,2.216,1.883,3.688s1.227,2.826,1.583,3.823A6.292,6.292,0,0,1,6363.081,7862.368Z" transform="translate(-6155.458 -7716.222)" fill="#fafafa"/>
        <path id="Trazado_101288" data-name="Trazado 101288" d="M6388.84,7851.468a44.283,44.283,0,0,1-5.145,3.451,46.529,46.529,0,0,1-5.366,3.1,48.439,48.439,0,0,1,5.152-3.451A46.712,46.712,0,0,1,6388.84,7851.468Z" transform="translate(-6159.657 -7716.158)" fill="#fafafa"/>
        <path id="Trazado_101289" data-name="Trazado 101289" d="M6379.65,7839.386a41.77,41.77,0,0,1-.427-8.437,21.067,21.067,0,0,1,.427,4.211A21.674,21.674,0,0,1,6379.65,7839.386Z" transform="translate(-6159.822 -7711.88)" fill="#fafafa"/>
        <path id="Trazado_101290" data-name="Trazado 101290" d="M6404.99,7838.48a47.975,47.975,0,0,1-7.551-4.662,24.236,24.236,0,0,1,3.887,2.153A23.8,23.8,0,0,1,6404.99,7838.48Z" transform="translate(-6163.64 -7712.479)" fill="#fafafa"/>
        <path id="Trazado_101291" data-name="Trazado 101291" d="M6365.409,7890.806a42.375,42.375,0,0,1,2.137-5.477,43.018,43.018,0,0,1,2.518-5.311,41.662,41.662,0,0,1-2.138,5.477A42.461,42.461,0,0,1,6365.409,7890.806Z" transform="translate(-6156.963 -7722.11)" fill="#fafafa"/>
        <path id="Trazado_101292" data-name="Trazado 101292" d="M6352.373,7904.065a18.758,18.758,0,0,1-1.931-3.4,19.039,19.039,0,0,1-1.583-3.593,19.239,19.239,0,0,1,1.939,3.4A18.544,18.544,0,0,1,6352.373,7904.065Z" transform="translate(-6153.513 -7725.665)" fill="#fafafa"/>
        <path id="Trazado_101293" data-name="Trazado 101293" d="M6361.252,7922.412a13.278,13.278,0,0,1-4.069,1.037,13.122,13.122,0,0,1-4.2.126c0-.119,1.86-.206,4.14-.53S6361.221,7922.285,6361.252,7922.412Z" transform="translate(-6154.373 -7730.944)" fill="#fafafa"/>
        <path id="Trazado_101294" data-name="Trazado 101294" d="M6376.418,7902.377a20.994,20.994,0,0,1,1.409-3.839,20.162,20.162,0,0,1,1.781-3.681,20.7,20.7,0,0,1-1.4,3.839A19.373,19.373,0,0,1,6376.418,7902.377Z" transform="translate(-6159.258 -7725.204)" fill="#fafafa"/>
        <path id="Trazado_101295" data-name="Trazado 101295" d="M6343.3,7940.732c-.1.063-1.267-1.543-2.865-3.388s-3.023-3.229-2.937-3.316A21.619,21.619,0,0,1,6343.3,7940.732Z" transform="translate(-6151.143 -7733.371)" fill="#fafafa"/>
        <path id="Trazado_101296" data-name="Trazado 101296" d="M6337.915,7901.488a23.4,23.4,0,0,1-2.066,3.958,24.252,24.252,0,0,1-2.43,3.768,25,25,0,0,1,2.073-3.958A24.377,24.377,0,0,1,6337.915,7901.488Z" transform="translate(-6150.293 -7726.586)" fill="#fafafa"/>
        <path id="Trazado_101297" data-name="Trazado 101297" d="M6340.875,7886.821a25.71,25.71,0,0,1-4.425-.934,2.263,2.263,0,1,1,.1-.4A24.487,24.487,0,0,1,6340.875,7886.821Z" transform="translate(-6150.024 -7723.056)" fill="#fafafa"/>
        <path id="Trazado_101298" data-name="Trazado 101298" d="M6342.938,7858.418a27.08,27.08,0,0,1,2.375,3.229,26.685,26.685,0,0,1,2.2,3.324,15.472,15.472,0,0,1-2.533-3.095A15.088,15.088,0,0,1,6342.938,7858.418Z" transform="translate(-6152.278 -7717.607)" fill="#fafafa"/>
        <path id="Trazado_101299" data-name="Trazado 101299" d="M6332.175,7856.967a35.041,35.041,0,0,1-5.746,5,17.42,17.42,0,0,1,2.738-2.66A18.006,18.006,0,0,1,6332.175,7856.967Z" transform="translate(-6148.836 -7717.304)" fill="#fafafa"/>
        <path id="Trazado_101300" data-name="Trazado 101300" d="M6339.273,7839.769a25.68,25.68,0,0,1-6.554-7.7c.1-.063,1.4,1.789,3.213,3.91S6339.36,7839.682,6339.273,7839.769Z" transform="translate(-6150.147 -7712.113)" fill="#fafafa"/>
        <path id="Trazado_101301" data-name="Trazado 101301" d="M6364.208,7837.127a26.792,26.792,0,0,1-4.44,1.583,26.406,26.406,0,0,1-4.56,1.171,28.164,28.164,0,0,1,4.44-1.583A26.688,26.688,0,0,1,6364.208,7837.127Z" transform="translate(-6154.836 -7713.168)" fill="#fafafa"/>
        <path id="Trazado_101302" data-name="Trazado 101302" d="M6330.3,7810.668c-.119,0-.063-1.812-.349-4.013s-.791-3.958-.648-3.958a14.63,14.63,0,0,1,1,7.994Z" transform="translate(-6149.43 -7705.991)" fill="#fafafa"/>
        <path id="Trazado_101303" data-name="Trazado 101303" d="M6304.54,7885.278a15.013,15.013,0,0,1-1.86,1.377c-1.171.792-2.77,1.971-4.48,3.316s-3.213,2.62-4.29,3.554a16.15,16.15,0,0,1-1.781,1.488,10.888,10.888,0,0,1,1.583-1.7,53.8,53.8,0,0,1,4.235-3.665,55.65,55.65,0,0,1,4.567-3.237A12.3,12.3,0,0,1,6304.54,7885.278Z" transform="translate(-6141.685 -7723.207)" fill="#fafafa"/>
        <path id="Trazado_101304" data-name="Trazado 101304" d="M6304.742,7874.95c-.1.056-1.433-2.01-3.276-4.424s-3.475-4.25-3.388-4.337a5.586,5.586,0,0,1,1.2,1.1,38.826,38.826,0,0,1,2.524,2.984c.918,1.219,1.687,2.375,2.2,3.229A5.89,5.89,0,0,1,6304.742,7874.95Z" transform="translate(-6142.925 -7719.227)" fill="#fafafa"/>
        <path id="Trazado_101305" data-name="Trazado 101305" d="M6310.546,7845.648a47.888,47.888,0,0,1-7.757,4.282,24.169,24.169,0,0,1,3.783-2.319A23.478,23.478,0,0,1,6310.546,7845.648Z" transform="translate(-6143.908 -7714.945)" fill="#fafafa"/>
        <path id="Trazado_101306" data-name="Trazado 101306" d="M6304.605,7829.469a6.2,6.2,0,0,1-1.354-1.068,28.25,28.25,0,0,1-2.858-3.023,28.914,28.914,0,0,1-2.414-3.4,6.234,6.234,0,0,1-.792-1.535c.111-.063,1.464,2.185,3.515,4.678S6304.708,7829.374,6304.605,7829.469Z" transform="translate(-6142.74 -7709.688)" fill="#fafafa"/>
        <path id="Trazado_101307" data-name="Trazado 101307" d="M6316.939,7829.782a34.327,34.327,0,0,1,3.285-6.744,34.364,34.364,0,0,1-3.285,6.744Z" transform="translate(-6146.858 -7710.23)" fill="#fafafa"/>
        <path id="Trazado_101308" data-name="Trazado 101308" d="M6313.724,7812.939c-.126,0,0-2.462-.459-5.43s-1.337-5.264-1.219-5.311a5.3,5.3,0,0,1,.673,1.472,20.759,20.759,0,0,1,.958,3.776,22.017,22.017,0,0,1,.246,3.886A5.082,5.082,0,0,1,6313.724,7812.939Z" transform="translate(-6145.835 -7705.886)" fill="#fafafa"/>
        <path id="Trazado_101309" data-name="Trazado 101309" d="M6316.578,7891.279a17.021,17.021,0,0,1,0-2.319c.056-1.424.1-3.4.04-5.541s-.2-4.14-.316-5.541a14.805,14.805,0,0,1-.142-2.311,11.9,11.9,0,0,1,.435,2.28,51.57,51.57,0,0,1,.435,5.588,50.958,50.958,0,0,1-.158,5.6A10.929,10.929,0,0,1,6316.578,7891.279Z" transform="translate(-6146.695 -7721.183)" fill="#fafafa"/>
        <path id="Trazado_101310" data-name="Trazado 101310" d="M6313.224,7919.038a34.452,34.452,0,0,0-3.506-2.826,34.97,34.97,0,0,0-4.029-1.994,11.5,11.5,0,0,1,7.551,4.82Z" transform="translate(-6144.512 -7729.24)" fill="#fafafa"/>
        <path id="Trazado_101311" data-name="Trazado 101311" d="M6324.774,7935.708a46.746,46.746,0,0,1-5.438,3.047,45.878,45.878,0,0,1-5.627,2.675,48.314,48.314,0,0,1,5.438-3.04A46.622,46.622,0,0,1,6324.774,7935.708Z" transform="translate(-6146.185 -7733.721)" fill="#fafafa"/>
        <path id="Trazado_101312" data-name="Trazado 101312" d="M6290.486,7939.79a49.627,49.627,0,0,1-4-5.089,51.014,51.014,0,0,1-3.673-5.343,51.655,51.655,0,0,1,4.006,5.1A52.505,52.505,0,0,1,6290.486,7939.79Z" transform="translate(-6139.742 -7732.397)" fill="#fafafa"/>
        <path id="Trazado_101313" data-name="Trazado 101313" d="M6281.631,7911.168a5.8,5.8,0,0,1-.182-1.623c-.04-1.005-.056-2.375,0-3.958s.213-2.921.348-3.958a6.083,6.083,0,0,1,.325-1.583c.119,0-.119,2.486-.261,5.541S6281.711,7911.168,6281.631,7911.168Z" transform="translate(-6139.451 -7726.286)" fill="#fafafa"/>
        <path id="Trazado_101314" data-name="Trazado 101314" d="M6267.543,7960.68a42.216,42.216,0,0,1-4.623-3.578,41.658,41.658,0,0,1-4.361-3.894,42.1,42.1,0,0,1,4.623,3.578A41.646,41.646,0,0,1,6267.543,7960.68Z" transform="translate(-6134.686 -7737.369)" fill="#fafafa"/>
        <path id="Trazado_101315" data-name="Trazado 101315" d="M6276.836,7957.887a46.907,46.907,0,0,1-.356-6.206,47.464,47.464,0,0,1,.063-6.214,47.086,47.086,0,0,1,.356,6.206A47.712,47.712,0,0,1,6276.836,7957.887Z" transform="translate(-6138.407 -7735.755)" fill="#fafafa"/>
        <path id="Trazado_101316" data-name="Trazado 101316" d="M6286.075,7990.486c0,.063-.989-.325-2.581-.839a36.991,36.991,0,0,0-12.838-1.75c-1.67.063-2.7.182-2.707.111a2.528,2.528,0,0,1,.712-.166c.459-.087,1.14-.167,1.979-.238a31.078,31.078,0,0,1,12.934,1.773,17.292,17.292,0,0,1,1.844.792A2.378,2.378,0,0,1,6286.075,7990.486Z" transform="translate(-6136.644 -7744.521)" fill="#fafafa"/>
        <path id="Trazado_101317" data-name="Trazado 101317" d="M6302.3,7996.768a9.1,9.1,0,0,1,1.789,1.227,45.305,45.305,0,0,1,7.385,7.385,9.122,9.122,0,0,1,1.227,1.789,14.551,14.551,0,0,1-1.456-1.583c-.871-1.005-2.106-2.375-3.539-3.807s-2.8-2.66-3.807-3.539A14.575,14.575,0,0,1,6302.3,7996.768Z" transform="translate(-6143.806 -7746.451)" fill="#fafafa"/>
        <path id="Trazado_101318" data-name="Trazado 101318" d="M6306.309,7942.2a31.868,31.868,0,0,1-2.05-4.615,31.185,31.185,0,0,1-1.67-4.749,32.186,32.186,0,0,1,2.05,4.615A31.361,31.361,0,0,1,6306.309,7942.2Z" transform="translate(-6143.866 -7733.122)" fill="#fafafa"/>
        <path id="Trazado_101319" data-name="Trazado 101319" d="M6264.467,7843.317a6.183,6.183,0,0,1-1.211,1.322,26.862,26.862,0,0,1-3.388,2.675,26.254,26.254,0,0,1-3.784,2.105,6.337,6.337,0,0,1-1.686.609c-.047-.119,2.462-1.2,5.24-3.055S6264.379,7843.222,6264.467,7843.317Z" transform="translate(-6133.819 -7714.458)" fill="#fafafa"/>
        <path id="Trazado_101320" data-name="Trazado 101320" d="M6269.669,7830.862a30.277,30.277,0,0,1,.333-7.044A30.277,30.277,0,0,1,6269.669,7830.862Z" transform="translate(-6136.987 -7710.393)" fill="#fafafa"/>
        <path id="Trazado_101321" data-name="Trazado 101321" d="M6247.614,7840.646a23.7,23.7,0,0,1-4.108-1.654,24.133,24.133,0,0,1-3.958-2.034,24.482,24.482,0,0,1,4.108,1.654A24.1,24.1,0,0,1,6247.614,7840.646Z" transform="translate(-6130.723 -7713.133)" fill="#fafafa"/>
        <path id="Trazado_101322" data-name="Trazado 101322" d="M6285.316,7825.761a23.429,23.429,0,0,1,.135-4.378,22.45,22.45,0,0,1,.538-4.345,23.928,23.928,0,0,1-.126,4.377A23.176,23.176,0,0,1,6285.316,7825.761Z" transform="translate(-6140.255 -7708.98)" fill="#fafafa"/>
        <path id="Trazado_101323" data-name="Trazado 101323" d="M6236.931,7861.491a14.87,14.87,0,0,1-4.512-1.979,14.453,14.453,0,0,1-3.871-3.055c.079-.1,1.765,1.322,4.077,2.707S6236.979,7861.372,6236.931,7861.491Z" transform="translate(-6128.43 -7717.197)" fill="#fafafa"/>
        <path id="Trazado_101324" data-name="Trazado 101324" d="M6222.454,7842.457a33.378,33.378,0,0,1-3.372,3.958,34.047,34.047,0,0,1-3.672,3.72,66.743,66.743,0,0,1,7.044-7.717Z" transform="translate(-6125.69 -7714.271)" fill="#fafafa"/>
        <path id="Trazado_101325" data-name="Trazado 101325" d="M6221.271,7822.913a11.594,11.594,0,0,1-3.7-2.065,11.967,11.967,0,0,1-3.016-2.96c.087-.087,1.417,1.25,3.269,2.628S6221.326,7822.81,6221.271,7822.913Z" transform="translate(-6125.513 -7709.156)" fill="#fafafa"/>
        <path id="Trazado_101326" data-name="Trazado 101326" d="M6212.718,7828.058a10.015,10.015,0,0,1-1.687,2.311,10.3,10.3,0,0,1-2,2.05A19.967,19.967,0,0,1,6212.718,7828.058Z" transform="translate(-6124.36 -7711.277)" fill="#fafafa"/>
        <path id="Trazado_101327" data-name="Trazado 101327" d="M6231.975,7794.218a32.415,32.415,0,0,1-3.095,4.1,31.313,31.313,0,0,1-3.411,3.847,63.49,63.49,0,0,1,6.506-7.947Z" transform="translate(-6127.788 -7704.223)" fill="#fafafa"/>
        <path id="Trazado_101328" data-name="Trazado 101328" d="M6214.866,7796.135a58.145,58.145,0,0,1-6.428-7.337,28.735,28.735,0,0,1,3.372,3.53A29.292,29.292,0,0,1,6214.866,7796.135Z" transform="translate(-6124.237 -7703.092)" fill="#fafafa"/>
        <path id="Trazado_101329" data-name="Trazado 101329" d="M6223.986,7774.317a23.51,23.51,0,0,1-2.375-3.752,24.727,24.727,0,0,1-2-3.958,23.945,23.945,0,0,1,2.375,3.759A24.694,24.694,0,0,1,6223.986,7774.317Z" transform="translate(-6126.566 -7698.466)" fill="#fafafa"/>
        <path id="Trazado_101330" data-name="Trazado 101330" d="M6224.688,7760.317c-.1-.08,1.092-1.583,2.034-3.712s1.282-4,1.409-3.958a12.2,12.2,0,0,1-3.443,7.694Z" transform="translate(-6127.624 -7695.555)" fill="#fafafa"/>
        <path id="Trazado_101331" data-name="Trazado 101331" d="M6208.192,7759.2a9.2,9.2,0,0,1,.974-4.844,11.668,11.668,0,0,1,1.932-2.945,3.819,3.819,0,0,1,1.1-.957,22.964,22.964,0,0,0-2.659,4.068A22.657,22.657,0,0,0,6208.192,7759.2Z" transform="translate(-6124.181 -7695.099)" fill="#fafafa"/>
        <path id="Trazado_101332" data-name="Trazado 101332" d="M6352.3,7731.015a50.213,50.213,0,0,1-.119-9.878,16.843,16.843,0,0,1,3.641-9.046,10.221,10.221,0,0,1,8.754-3.689c2.026.261,3.958,1.259,5.976,1.2,2.375-.071,4.409-1.528,6.554-2.5a17.171,17.171,0,0,1,10.8-1.132,10.3,10.3,0,0,1,5.105,2.58,5.718,5.718,0,0,1,1.654,5.288,27.248,27.248,0,0,1,7.124.625,9.2,9.2,0,0,1,5.691,3.958,5.609,5.609,0,0,1-.594,6.609,4.56,4.56,0,0,1,5.034,3.435,5.873,5.873,0,0,1-2.375,5.889,10.98,10.98,0,0,1-7.4,1.488,16.021,16.021,0,0,1-6.514-2.375" transform="translate(-6154.165 -7685.741)" fill="#344154"/>
        <path id="Trazado_101333" data-name="Trazado 101333" d="M6346.813,7809.36h0a17.082,17.082,0,0,0,20.762-12.174c1.337-5.073,2.43-9.324,2.43-9.324s13.227,2.271,17.6-10.29,11.873-42.116,11.873-42.116h0a46.108,46.108,0,0,0-45.758-9.221l-2.375.791-16.8,61.208a17.081,17.081,0,0,0,11.892,21.026C6346.561,7809.295,6346.687,7809.328,6346.813,7809.36Z" transform="translate(-6150.397 -7689.524)" fill="#ffaaa8"/>
        <path id="Trazado_101334" data-name="Trazado 101334" d="M6375.7,7801.863a30.86,30.86,0,0,1-14.825-10.155s.839,10.345,13.764,13.456Z" transform="translate(-6156.019 -7703.699)" fill="#aa6550"/>
        <path id="Trazado_101335" data-name="Trazado 101335" d="M6349.572,7744.618c-.182-.166-7.781-5.453-10.385,3.237s6.649,9.5,6.736,9.269S6349.572,7744.618,6349.572,7744.618Z" transform="translate(-6151.399 -7693.518)" fill="#ffaaa8"/>
        <path id="Trazado_101336" data-name="Trazado 101336" d="M6344.874,7753.76a2.638,2.638,0,0,1-.475.1,1.58,1.58,0,0,1-1.108-.332c-.791-.609-1.147-2.3-.72-3.879a5.176,5.176,0,0,1,1.068-2.042,1.834,1.834,0,0,1,1.488-.791.791.791,0,0,1,.791.681c.048.276-.062.436,0,.467s.229-.095.262-.475a1,1,0,0,0-.174-.642,1.183,1.183,0,0,0-.792-.475,2.206,2.206,0,0,0-1.987.87,5.3,5.3,0,0,0-1.25,2.264c-.475,1.766-.071,3.673,1.076,4.417a1.7,1.7,0,0,0,1.457.183C6344.819,7753.966,6344.922,7753.791,6344.874,7753.76Z" transform="translate(-6152.037 -7694.246)" fill="#aa6550"/>
        <path id="Trazado_101337" data-name="Trazado 101337" d="M6402.312,7760.855a1.9,1.9,0,0,1-2.375,1.227,1.813,1.813,0,0,1-1.317-2.2l.011-.04a1.9,1.9,0,0,1,2.335-1.235,1.82,1.82,0,0,1,1.36,2.186C6402.322,7760.814,6402.317,7760.835,6402.312,7760.855Z" transform="translate(-6163.875 -7696.782)" fill="#344154"/>
        <path id="Trazado_101338" data-name="Trazado 101338" d="M6404.4,7759.047c-.3.158-1.322-1.3-3.253-1.948s-3.68-.15-3.807-.458c-.071-.135.3-.483,1.069-.729a5.161,5.161,0,0,1,3.166.079,4.974,4.974,0,0,1,2.493,1.844C6404.484,7758.493,6404.54,7758.983,6404.4,7759.047Z" transform="translate(-6163.617 -7696.192)" fill="#344154"/>
        <path id="Trazado_101339" data-name="Trazado 101339" d="M6378.322,7752.807a1.9,1.9,0,0,1-2.335,1.235,1.812,1.812,0,0,1-1.316-2.2l.011-.041a1.891,1.891,0,0,1,2.335-1.235,1.812,1.812,0,0,1,1.316,2.2Z" transform="translate(-6158.882 -7695.106)" fill="#344154"/>
        <path id="Trazado_101340" data-name="Trazado 101340" d="M6380.256,7751.448c-.3.166-1.33-1.3-3.262-1.947s-3.673-.15-3.808-.459c-.062-.135.3-.482,1.077-.721a5.2,5.2,0,0,1,3.166.071,5.041,5.041,0,0,1,2.5,1.845C6380.335,7750.895,6380.4,7751.385,6380.256,7751.448Z" transform="translate(-6158.583 -7694.609)" fill="#344154"/>
        <path id="Trazado_101341" data-name="Trazado 101341" d="M6384.9,7769.1a13.61,13.61,0,0,1,3.324.482c.515.119,1.013.174,1.211-.134a2.689,2.689,0,0,0,.159-1.583c-.063-1.354-.127-2.771-.2-4.25-.229-6.023-.222-10.915,0-10.923s.625,4.876.855,10.9c.048,1.48.087,2.9.126,4.25a2.986,2.986,0,0,1-.388,2.018,1.3,1.3,0,0,1-1.053.451,3.221,3.221,0,0,1-.878-.167A14.042,14.042,0,0,1,6384.9,7769.1Z" transform="translate(-6161.026 -7695.564)" fill="#344154"/>
        <path id="Trazado_101342" data-name="Trazado 101342" d="M6376.923,7772.687c.316.087-.38,2.185.918,4.274s3.6,2.612,3.522,2.9c0,.143-.641.246-1.583-.047a5.483,5.483,0,0,1-2.976-2.312,4.745,4.745,0,0,1-.634-3.538C6376.377,7773.066,6376.78,7772.623,6376.923,7772.687Z" transform="translate(-6159.184 -7699.732)" fill="#344154"/>
        <path id="Trazado_101343" data-name="Trazado 101343" d="M6405.094,7754.444c-.483.324-1.662-.578-3.253-1.14s-3.055-.7-3.214-1.259c-.063-.27.3-.641,1.029-.854a5,5,0,0,1,5.216,1.932C6405.284,7753.764,6405.315,7754.278,6405.094,7754.444Z" transform="translate(-6163.887 -7695.223)" fill="#344154"/>
        <path id="Trazado_101344" data-name="Trazado 101344" d="M6379.942,7741.333c-.293.158-.792-.1-1.354-.443a15.367,15.367,0,0,0-2.28-1.116,14.55,14.55,0,0,0-2.461-.649c-.673-.134-1.2-.237-1.314-.554s.261-.792,1.116-1.108a5.359,5.359,0,0,1,6.174,2.3C6380.258,7740.588,6380.219,7741.206,6379.942,7741.333Z" transform="translate(-6158.444 -7692.338)" fill="#344154"/>
        <path id="Trazado_101345" data-name="Trazado 101345" d="M6402.129,7738.813a31.141,31.141,0,0,1-18.031-7.083c-5.683-4.654-12.8-7.916-14.738-7s-3.784,7.44-10.575,7.915c0,0-2.422,12.7-7.346,11.082s2.652-20.4,2.652-20.4l13.654-3.214,13.986.515,12.562,2.85,10.868,6.245Z" transform="translate(-6153.704 -7688.773)" fill="#344154"/>
        <rect id="Rectángulo_5365" data-name="Rectángulo 5365" width="177.719" height="276.746" transform="translate(0.182 0.214)" fill="#fafafa"/>
        <path id="Trazado_101346" data-name="Trazado 101346" d="M6279.96,7957.47c0-1.7-.079-114.1-.189-276.746l.189.19h-177.7l.214-.206c0,104.7,0,201.109-.047,276.747l-.167-.167,177.72.167-177.72.158h-.158v-.143c0-75.638,0-172.044-.048-276.746v-.206h178.115v.19C6280.039,7843.38,6279.96,7955.776,6279.96,7957.47Z" transform="translate(-6102.059 -7680.518)" fill="#344154"/>
        <path id="Trazado_101347" data-name="Trazado 101347" d="M6155.729,7748.859h-22.741a2.848,2.848,0,0,1-2.849-2.841V7714.54a2.849,2.849,0,0,1,2.849-2.842h14.421l11.161,11.5v22.819A2.841,2.841,0,0,1,6155.729,7748.859Z" transform="translate(-6107.913 -7687.018)" fill="#d9a171"/>
        <path id="Trazado_101348" data-name="Trazado 101348" d="M6151.958,7711.7v8.857a2.651,2.651,0,0,0,2.644,2.644h8.517Z" transform="translate(-6112.462 -7687.018)" fill="#d9a171"/>
        <g id="Grupo_54610" data-name="Grupo 54610" transform="translate(39.615 34.312)" opacity="0.2">
          <path id="Trazado_101349" data-name="Trazado 101349" d="M6152.108,7723.868a2.938,2.938,0,0,0,2.327,2.857l.285.063c1.108.2,8.43,1.5,8.43,1.329v-2.375h-8.517S6152.513,7725.665,6152.108,7723.868Z" transform="translate(-6152.108 -7723.868)" fill="#344154"/>
        </g>
        <g id="Grupo_54611" data-name="Grupo 54611" transform="translate(39.497 24.68)" opacity="0.3">
          <path id="Trazado_101350" data-name="Trazado 101350" d="M6151.958,7711.7v8.857a2.651,2.651,0,0,0,2.644,2.644h8.517Z" transform="translate(-6151.958 -7711.698)" fill="#ffbf9d"/>
        </g>
        <path id="Trazado_101351" data-name="Trazado 101351" d="M6146.778,7722.357a67.393,67.393,0,1,1-5.264-.206A34.281,34.281,0,0,1,6146.778,7722.357Z" transform="translate(-6109.189 -7689.192)" fill="#fafafa"/>
        <path id="Trazado_101352" data-name="Trazado 101352" d="M6153.569,7728.7c0,.111-3.871.206-8.651.206s-8.66-.095-8.66-.206,3.879-.206,8.66-.206S6153.569,7728.584,6153.569,7728.7Z" transform="translate(-6109.189 -7690.521)" fill="#fafafa"/>
        <path id="Trazado_101353" data-name="Trazado 101353" d="M6155.129,7733.983c0,.119-4.219.206-9.435.206s-9.435-.087-9.435-.206,4.227-.206,9.435-.206S6155.129,7733.873,6155.129,7733.983Z" transform="translate(-6109.189 -7691.621)" fill="#fafafa"/>
        <path id="Trazado_101354" data-name="Trazado 101354" d="M6155.129,7738.973c0,.111-4.219.206-9.435.206s-9.435-.095-9.435-.206,4.227-.206,9.435-.206S6155.129,7738.854,6155.129,7738.973Z" transform="translate(-6109.189 -7692.662)" fill="#fafafa"/>
        <path id="Trazado_101355" data-name="Trazado 101355" d="M6155.129,7743.953c0,.119-4.219.206-9.435.206s-9.435-.087-9.435-.206,4.227-.205,9.435-.205S6155.129,7743.843,6155.129,7743.953Z" transform="translate(-6109.189 -7693.7)" fill="#fafafa"/>
        <path id="Trazado_101356" data-name="Trazado 101356" d="M6155.129,7748.943c0,.111-4.219.206-9.435.206s-9.435-.095-9.435-.206,4.227-.206,9.435-.206S6155.129,7748.825,6155.129,7748.943Z" transform="translate(-6109.189 -7694.741)" fill="#fafafa"/>
        <rect id="Rectángulo_5366" data-name="Rectángulo 5366" width="3.039" height="232.366" rx="1.33" transform="translate(164.508 17.247)" fill="#aed3f2"/>
        <rect id="Rectángulo_5367" data-name="Rectángulo 5367" width="3.039" height="119.796" rx="1.33" transform="translate(164.508 17.247)" fill="#d9a171"/>
        <path id="Trazado_101357" data-name="Trazado 101357" d="M6256.781,7812.753c0,.119-27.315.206-61,.206s-61.011-.087-61.011-.206,27.315-.206,61.011-.206S6256.781,7812.643,6256.781,7812.753Z" transform="translate(-6108.878 -7708.043)" fill="#344154"/>
        <path id="Trazado_101358" data-name="Trazado 101358" d="M6256.781,7824.424c0,.111-27.315.206-61,.206s-61.011-.095-61.011-.206,27.315-.206,61.011-.206S6256.781,7824.305,6256.781,7824.424Z" transform="translate(-6108.878 -7710.477)" fill="#344154"/>
        <path id="Trazado_101359" data-name="Trazado 101359" d="M6256.781,7836.084c0,.118-27.315.205-61,.205s-61.011-.087-61.011-.205,27.315-.206,61.011-.206S6256.781,7835.973,6256.781,7836.084Z" transform="translate(-6108.878 -7712.908)" fill="#344154"/>
        <path id="Trazado_101360" data-name="Trazado 101360" d="M6256.781,7847.753c0,.111-27.315.206-61,.206s-61.011-.095-61.011-.206,27.315-.206,61.011-.206S6256.781,7847.635,6256.781,7847.753Z" transform="translate(-6108.878 -7715.34)" fill="#344154"/>
        <path id="Trazado_101361" data-name="Trazado 101361" d="M6256.781,7859.414c0,.119-27.315.206-61,.206s-61.011-.087-61.011-.206,27.315-.206,61.011-.206S6256.781,7859.3,6256.781,7859.414Z" transform="translate(-6108.878 -7717.772)" fill="#344154"/>
        <path id="Trazado_101362" data-name="Trazado 101362" d="M6256.781,7871.084c0,.11-27.315.205-61,.205s-61.011-.095-61.011-.205,27.315-.206,61.011-.206S6256.781,7870.965,6256.781,7871.084Z" transform="translate(-6108.878 -7720.205)" fill="#344154"/>
        <path id="Trazado_101363" data-name="Trazado 101363" d="M6256.781,7915.364c0,.111-27.315.206-61,.206s-61.011-.1-61.011-.206,27.315-.206,61.011-.206S6256.781,7915.269,6256.781,7915.364Z" transform="translate(-6108.878 -7729.437)" fill="#344154"/>
        <path id="Trazado_101364" data-name="Trazado 101364" d="M6256.781,7935.363c0,.111-27.315.206-61,.206s-61.011-.095-61.011-.206,27.315-.206,61.011-.206S6256.781,7935.237,6256.781,7935.363Z" transform="translate(-6108.878 -7733.605)" fill="#aed3f2"/>
        <path id="Trazado_101365" data-name="Trazado 101365" d="M6244.551,7980.828h-3.166l-.657,1.5h-.878l2.707-5.976h.839l2.715,5.976h-.895Zm-.3-.681-1.291-2.928-1.282,2.928Z" transform="translate(-6130.786 -7742.193)" fill="#ffbf9d"/>
        <path id="Trazado_101366" data-name="Trazado 101366" d="M6248.139,7980.43a2.263,2.263,0,0,1,2.221-2.306c.051,0,.1,0,.154,0a2.019,2.019,0,0,1,1.844.966l-.625.4a1.411,1.411,0,0,0-1.227-.649,1.583,1.583,0,0,0,0,3.166,1.409,1.409,0,0,0,1.227-.649l.625.388a2.027,2.027,0,0,1-1.844.974,2.264,2.264,0,0,1-2.372-2.15C6248.139,7980.521,6248.138,7980.476,6248.139,7980.43Z" transform="translate(-6132.514 -7742.563)" fill="#ffbf9d"/>
        <path id="Trazado_101367" data-name="Trazado 101367" d="M6254.209,7980.43a2.263,2.263,0,0,1,2.221-2.306c.051,0,.1,0,.154,0a2.013,2.013,0,0,1,1.844.966l-.625.4a1.41,1.41,0,0,0-1.227-.649,1.583,1.583,0,0,0,0,3.166,1.407,1.407,0,0,0,1.227-.649l.625.388a2.02,2.02,0,0,1-1.844.974,2.264,2.264,0,0,1-2.373-2.15C6254.209,7980.521,6254.208,7980.476,6254.209,7980.43Z" transform="translate(-6133.78 -7742.563)" fill="#ffbf9d"/>
        <path id="Trazado_101368" data-name="Trazado 101368" d="M6264.774,7980.738H6261.1a1.535,1.535,0,0,0,1.639,1.321,1.691,1.691,0,0,0,1.306-.546l.451.53a2.29,2.29,0,0,1-1.789.728,2.261,2.261,0,0,1-2.424-2.09,1.96,1.96,0,0,1-.006-.221,2.217,2.217,0,0,1,2.126-2.3h.146a2.18,2.18,0,0,1,2.24,2.327C6264.79,7980.532,6264.782,7980.635,6264.774,7980.738Zm-3.673-.594h2.9a1.456,1.456,0,0,0-2.9,0Z" transform="translate(-6135.044 -7742.57)" fill="#ffbf9d"/>
        <path id="Trazado_101369" data-name="Trazado 101369" d="M6272.1,7980.422a2.194,2.194,0,0,1-2.068,2.311c-.074,0-.146,0-.219,0a1.943,1.943,0,0,1-1.583-.728v2.334h-.792v-6.181h.792v.72a1.917,1.917,0,0,1,1.583-.792,2.194,2.194,0,0,1,2.29,2.091C6272.106,7980.259,6272.105,7980.341,6272.1,7980.422Zm-.832,0a1.528,1.528,0,1,0-1.527,1.583,1.5,1.5,0,0,0,1.529-1.461,1.01,1.01,0,0,0,0-.122Z" transform="translate(-6136.538 -7742.555)" fill="#ffbf9d"/>
        <path id="Trazado_101370" data-name="Trazado 101370" d="M6277.13,7982.176a1.586,1.586,0,0,1-1,.316,1.29,1.29,0,0,1-1.431-1.132,1.265,1.265,0,0,1,0-.285v-2.485h-.791v-.672h.791v-.989h.792v.989h1.3v.672h-1.3v2.454a.665.665,0,0,0,.522.781.686.686,0,0,0,.182.01,1.022,1.022,0,0,0,.641-.214Z" transform="translate(-6137.887 -7742.314)" fill="#ffbf9d"/>
        <path id="Trazado_101371" data-name="Trazado 101371" d="M6319.652,7980.53l9.213-4.432-5.066-14.976-11.128-2.572c-1.037-.237-2.193-.515-3.475-.871a13.923,13.923,0,0,1-4.218-1.987,21.157,21.157,0,0,1-4.417-3.744c-1.053-1.433-3.285-.895-3.285.7s2.81,5.6,7.8,8.445-3.839,4.211-7.037,4.749-13.028,2.747-13.614,3.863c-.854,1.63.792,2.88,3.958,2.256s12.894-1.86,13.147-.167v.048a6.949,6.949,0,0,0,.419,8.074c1.789,2.24,4.472,5.05,6.443,4.622C6312.1,7983.752,6319.652,7980.53,6319.652,7980.53Z" transform="translate(-6140.033 -7736.933)" fill="#ffaaa8"/>
        <path id="Trazado_101372" data-name="Trazado 101372" d="M6328.279,7934.854l8.636,29.2,67.049-20.373a26.913,26.913,0,0,0,17.874-33.6q-.077-.253-.16-.507l-16.44-51.155-35.705,8.865,19.6,47.332Z" transform="translate(-6149.222 -7717.607)" fill="#d9a171"/>
        <path id="Trazado_101373" data-name="Trazado 101373" d="M6405.413,7948.061l-.325.119-.965.309-3.752,1.164-14.049,4.306-48.805,14.81-.182.047-.063-.174c-2.984-8.928-5.881-18.743-9.229-28.827l-.063-.189.2-.072,1.686-.554,59.174-19.653-.1.214c-4.749-11.477-8.6-20.88-11.287-27.435-1.33-3.261-2.375-5.81-3.087-7.559-.34-.863-.609-1.528-.792-1.987s-.253-.681-.253-.681.111.222.3.665l.839,1.963c.728,1.742,1.8,4.282,3.166,7.528,2.723,6.538,6.633,15.925,11.414,27.387l.063.158-.166.056-59.174,19.732-1.686.562.126-.261c3.356,10.092,6.237,19.906,9.213,28.827l-.238-.126,48.845-14.659,14.1-4.2,3.768-1.1.981-.277Z" transform="translate(-6149.159 -7722.502)" fill="#344154"/>
        <path id="Trazado_101374" data-name="Trazado 101374" d="M6417.448,7937.923c-.063,0-.506-.736-1.4-1.852a18.141,18.141,0,0,0-9.142-6.063c-1.377-.4-2.264-.507-2.256-.578a1.815,1.815,0,0,1,.633,0,11.65,11.65,0,0,1,1.694.285,16.416,16.416,0,0,1,5.192,2.264,16.234,16.234,0,0,1,4.108,3.9,11.379,11.379,0,0,1,.918,1.457A1.778,1.778,0,0,1,6417.448,7937.923Z" transform="translate(-6165.144 -7732.406)" fill="#344154"/>
        <path id="Trazado_101375" data-name="Trazado 101375" d="M6400.228,7870.477a45.584,45.584,0,0,1,0-8.659A45.8,45.8,0,0,1,6400.228,7870.477Z" transform="translate(-6164.173 -7718.316)" fill="#fafafa"/>
        <path id="Trazado_101376" data-name="Trazado 101376" d="M6416.636,7871.412a23.033,23.033,0,0,1-1.457-4.147,23.287,23.287,0,0,1-1.061-4.266A46.821,46.821,0,0,1,6416.636,7871.412Z" transform="translate(-6167.118 -7718.562)" fill="#fafafa"/>
        <path id="Trazado_101377" data-name="Trazado 101377" d="M6404.687,7888.371a14.887,14.887,0,0,1-7.828-2.3c.056-.111,1.71.673,3.871,1.3S6404.695,7888.252,6404.687,7888.371Z" transform="translate(-6163.52 -7723.371)" fill="#fafafa"/>
        <path id="Trazado_101378" data-name="Trazado 101378" d="M6425.988,7895.258a42.514,42.514,0,0,1,1.417-8.2,21.8,21.8,0,0,1-.506,4.14A20.9,20.9,0,0,1,6425.988,7895.258Z" transform="translate(-6169.592 -7723.578)" fill="#fafafa"/>
        <path id="Trazado_101379" data-name="Trazado 101379" d="M6418.173,7909.151a43.69,43.69,0,0,1-3.554-7.773A44.631,44.631,0,0,1,6418.173,7909.151Z" transform="translate(-6167.222 -7726.563)" fill="#fafafa"/>
        <path id="Trazado_101380" data-name="Trazado 101380" d="M6414.358,7922.323a20.015,20.015,0,0,1-3.76-1.583,19.661,19.661,0,0,1-3.57-1.963,21.634,21.634,0,0,1,3.752,1.583A20.21,20.21,0,0,1,6414.358,7922.323Z" transform="translate(-6165.64 -7730.19)" fill="#fafafa"/>
        <path id="Trazado_101381" data-name="Trazado 101381" d="M6437.114,7920.048a31.359,31.359,0,0,1-1.512,3.633,31.767,31.767,0,0,1-1.583,3.594A20.828,20.828,0,0,1,6437.114,7920.048Z" transform="translate(-6171.267 -7730.456)" fill="#fafafa"/>
        <path id="Trazado_101382" data-name="Trazado 101382" d="M6431.678,7946.757a47.364,47.364,0,0,1-.879-8.889,25.246,25.246,0,0,1,.641,4.424A24.7,24.7,0,0,1,6431.678,7946.757Z" transform="translate(-6170.596 -7734.171)" fill="#fafafa"/>
        <path id="Trazado_101383" data-name="Trazado 101383" d="M6415.04,7956.813a19.944,19.944,0,0,1-3.166-2.612,20.424,20.424,0,0,1-2.866-2.912,20.017,20.017,0,0,1,3.167,2.611A20.584,20.584,0,0,1,6415.04,7956.813Z" transform="translate(-6166.052 -7736.969)" fill="#fafafa"/>
        <path id="Trazado_101384" data-name="Trazado 101384" d="M6388.865,7960.9a45.891,45.891,0,0,1-5.177,7.061,22.578,22.578,0,0,1,2.423-3.648A23.345,23.345,0,0,1,6388.865,7960.9Z" transform="translate(-6160.773 -7738.972)" fill="#fafafa"/>
        <path id="Trazado_101385" data-name="Trazado 101385" d="M6397.079,7946.889a14.514,14.514,0,0,1-3.206-2.818,14.049,14.049,0,0,1-2.564-3.4c.095-.071,1.274,1.417,2.865,3.126S6397.15,7946.8,6397.079,7946.889Z" transform="translate(-6162.363 -7734.754)" fill="#fafafa"/>
        <path id="Trazado_101386" data-name="Trazado 101386" d="M6377.046,7951.213a6.169,6.169,0,0,1-3.166.388,6.332,6.332,0,0,1-3.071-.839c.047-.119,1.385.309,3.095.428S6377.046,7951.095,6377.046,7951.213Z" transform="translate(-6158.089 -7736.854)" fill="#fafafa"/>
        <path id="Trazado_101387" data-name="Trazado 101387" d="M6365.768,7971.406a15.029,15.029,0,0,1-.792-3.4,14.659,14.659,0,0,1-.388-3.476A29.848,29.848,0,0,1,6365.768,7971.406Z" transform="translate(-6156.792 -7739.729)" fill="#fafafa"/>
        <path id="Trazado_101388" data-name="Trazado 101388" d="M6349.153,7979.467a50.8,50.8,0,0,1-7.765-4.9,25.831,25.831,0,0,1,4,2.28A26.208,26.208,0,0,1,6349.153,7979.467Z" transform="translate(-6151.955 -7741.822)" fill="#fafafa"/>
        <path id="Trazado_101389" data-name="Trazado 101389" d="M6355.28,7954.138c.088.079-1.06,1.44-2.334,3.214a37.167,37.167,0,0,1-2.327,3.229,12.907,12.907,0,0,1,1.986-3.475A12.645,12.645,0,0,1,6355.28,7954.138Z" transform="translate(-6153.879 -7737.563)" fill="#fafafa"/>
        <path id="Trazado_101390" data-name="Trazado 101390" d="M6343.839,7958.6a7.675,7.675,0,0,1-2.319-.926,7.475,7.475,0,0,1-2.122-1.3,15.007,15.007,0,0,1,4.44,2.224Z" transform="translate(-6151.54 -7738.03)" fill="#fafafa"/>
        <g id="Grupo_54612" data-name="Grupo 54612" transform="translate(239.347 195.228)" opacity="0.2">
          <path id="Trazado_101391" data-name="Trazado 101391" d="M6404.449,7927.738c3.577.364,7.163.736,10.732,1.188a13.219,13.219,0,0,1,3.642.792,4.632,4.632,0,0,1,2.6,2.541,2.842,2.842,0,0,1-.989,3.316,3.282,3.282,0,0,1-3.245-.143,17.3,17.3,0,0,1-2.676-2.1,14.925,14.925,0,0,0-5.492-2.873,9.429,9.429,0,0,1-2.629-.918,2.279,2.279,0,0,1-1.14-2.375" transform="translate(-6404.449 -7927.168)" fill="#344154"/>
        </g>
        <g id="Grupo_54613" data-name="Grupo 54613" transform="translate(36.368 75.162)">
          <path id="Trazado_101392" data-name="Trazado 101392" d="M6149.978,7782.337v3.37h-1.971v-9.566h3.732a4.312,4.312,0,0,1,1.895.395,2.9,2.9,0,0,1,1.259,1.12,3.125,3.125,0,0,1,.44,1.652,2.745,2.745,0,0,1-.963,2.218,4.007,4.007,0,0,1-2.664.812Zm0-1.6h1.761a1.733,1.733,0,0,0,1.192-.368,1.338,1.338,0,0,0,.41-1.051,1.576,1.576,0,0,0-.414-1.137,1.545,1.545,0,0,0-1.143-.446h-1.807Z" transform="translate(-6148.007 -7775.615)" fill="#344154"/>
          <path id="Trazado_101393" data-name="Trazado 101393" d="M6158.333,7782.7a4.21,4.21,0,0,1,.408-1.885,2.982,2.982,0,0,1,1.172-1.281,3.418,3.418,0,0,1,1.778-.453,3.239,3.239,0,0,1,2.348.88,3.533,3.533,0,0,1,1.016,2.392l.013.486a3.718,3.718,0,0,1-.913,2.625,3.541,3.541,0,0,1-4.905,0,3.783,3.783,0,0,1-.917-2.681Zm1.9.136a2.66,2.66,0,0,0,.381,1.55,1.368,1.368,0,0,0,2.168.006,2.913,2.913,0,0,0,.388-1.694,2.632,2.632,0,0,0-.388-1.539,1.261,1.261,0,0,0-1.09-.547,1.238,1.238,0,0,0-1.078.544A2.954,2.954,0,0,0,6160.232,7782.835Z" transform="translate(-6150.16 -7776.228)" fill="#344154"/>
          <path id="Trazado_101394" data-name="Trazado 101394" d="M6170.349,7785.569h-1.905v-10.092h1.905Z" transform="translate(-6152.268 -7775.477)" fill="#344154"/>
          <path id="Trazado_101395" data-name="Trazado 101395" d="M6174.916,7785.595h-1.9v-7.109h1.9Zm-.559-9.993h2.069l-1.819,2.036h-1.545Z" transform="translate(-6153.221 -7775.502)" fill="#344154"/>
          <path id="Trazado_101396" data-name="Trazado 101396" d="M6179.581,7777.038v1.747h1.216v1.393h-1.216v3.548a.847.847,0,0,0,.151.565.764.764,0,0,0,.579.171,3.056,3.056,0,0,0,.558-.046v1.438a3.893,3.893,0,0,1-1.15.171,1.812,1.812,0,0,1-2.036-2.018v-3.83h-1.038v-1.393h1.038v-1.747Z" transform="translate(-6153.977 -7775.803)" fill="#344154"/>
          <path id="Trazado_101397" data-name="Trazado 101397" d="M6183.211,7776.664a.935.935,0,0,1,.285-.7,1.228,1.228,0,0,1,1.555,0,1,1,0,0,1,0,1.412,1.216,1.216,0,0,1-1.543,0A.93.93,0,0,1,6183.211,7776.664Zm2.017,8.948h-1.9V7778.5h1.9Z" transform="translate(-6155.346 -7775.52)" fill="#344154"/>
          <path id="Trazado_101398" data-name="Trazado 101398" d="M6190.613,7784.921a1.247,1.247,0,0,0,.854-.289,1.015,1.015,0,0,0,.342-.769h1.78a2.432,2.432,0,0,1-.394,1.324,2.616,2.616,0,0,1-1.062.933,3.327,3.327,0,0,1-1.488.331,3.089,3.089,0,0,1-2.4-.969,3.835,3.835,0,0,1-.88-2.678v-.124a3.791,3.791,0,0,1,.874-2.622,3.051,3.051,0,0,1,2.4-.979,2.985,2.985,0,0,1,2.138.759,2.68,2.68,0,0,1,.818,2.02h-1.78a1.307,1.307,0,0,0-.342-.9,1.27,1.27,0,0,0-1.87.138,2.808,2.808,0,0,0-.338,1.568v.2a2.836,2.836,0,0,0,.335,1.579A1.16,1.16,0,0,0,6190.613,7784.921Z" transform="translate(-6156.211 -7776.228)" fill="#344154"/>
          <path id="Trazado_101399" data-name="Trazado 101399" d="M6200.645,7786.32a2.1,2.1,0,0,1-.19-.638,2.3,2.3,0,0,1-1.794.769,2.53,2.53,0,0,1-1.732-.6,1.948,1.948,0,0,1-.686-1.524,2.01,2.01,0,0,1,.837-1.735,4.137,4.137,0,0,1,2.421-.61h.874v-.408a1.167,1.167,0,0,0-.253-.788,1,1,0,0,0-.8-.3,1.134,1.134,0,0,0-.753.23.781.781,0,0,0-.272.631h-1.9a1.909,1.909,0,0,1,.381-1.144,2.51,2.51,0,0,1,1.078-.824,3.921,3.921,0,0,1,1.563-.3,3.1,3.1,0,0,1,2.087.66,2.31,2.31,0,0,1,.771,1.854v3.083a3.413,3.413,0,0,0,.283,1.531v.111Zm-1.57-1.32a1.623,1.623,0,0,0,.775-.188,1.217,1.217,0,0,0,.525-.5v-1.222h-.709q-1.425,0-1.518.985l-.006.111a.758.758,0,0,0,.25.585A.971.971,0,0,0,6199.075,7785Z" transform="translate(-6158.063 -7776.228)" fill="#344154"/>
          <path id="Trazado_101400" data-name="Trazado 101400" d="M6212.826,7784.921a1.247,1.247,0,0,0,.854-.289,1.015,1.015,0,0,0,.342-.769h1.78a2.428,2.428,0,0,1-.395,1.324,2.611,2.611,0,0,1-1.061.933,3.326,3.326,0,0,1-1.488.331,3.089,3.089,0,0,1-2.4-.969,3.835,3.835,0,0,1-.88-2.678v-.124a3.789,3.789,0,0,1,.874-2.622,3.051,3.051,0,0,1,2.4-.979,2.988,2.988,0,0,1,2.139.759,2.685,2.685,0,0,1,.817,2.02h-1.78a1.307,1.307,0,0,0-.342-.9,1.27,1.27,0,0,0-1.87.138,2.8,2.8,0,0,0-.338,1.568v.2a2.836,2.836,0,0,0,.335,1.579A1.16,1.16,0,0,0,6212.826,7784.921Z" transform="translate(-6160.842 -7776.228)" fill="#344154"/>
          <path id="Trazado_101401" data-name="Trazado 101401" d="M6218.438,7782.7a4.21,4.21,0,0,1,.408-1.885,2.982,2.982,0,0,1,1.172-1.281,3.421,3.421,0,0,1,1.778-.453,3.239,3.239,0,0,1,2.348.88,3.533,3.533,0,0,1,1.016,2.392l.013.486a3.715,3.715,0,0,1-.913,2.625,3.541,3.541,0,0,1-4.9,0,3.781,3.781,0,0,1-.917-2.681Zm1.9.136a2.66,2.66,0,0,0,.381,1.55,1.369,1.369,0,0,0,2.168.006,2.913,2.913,0,0,0,.388-1.694,2.632,2.632,0,0,0-.388-1.539,1.262,1.262,0,0,0-1.091-.547,1.239,1.239,0,0,0-1.078.544A2.954,2.954,0,0,0,6220.337,7782.835Z" transform="translate(-6162.69 -7776.228)" fill="#344154"/>
          <path id="Trazado_101402" data-name="Trazado 101402" d="M6230.162,7779.211l.06.822a2.48,2.48,0,0,1,2.043-.953,2.061,2.061,0,0,1,1.682.664,3.093,3.093,0,0,1,.565,1.982v4.594h-1.9v-4.547a1.234,1.234,0,0,0-.263-.877,1.177,1.177,0,0,0-.874-.273,1.307,1.307,0,0,0-1.2.684v5.014h-1.9v-7.109Z" transform="translate(-6164.762 -7776.228)" fill="#344154"/>
          <path id="Trazado_101403" data-name="Trazado 101403" d="M6240.044,7777.038v1.747h1.216v1.393h-1.216v3.548a.847.847,0,0,0,.151.565.762.762,0,0,0,.578.171,3.067,3.067,0,0,0,.559-.046v1.438a3.9,3.9,0,0,1-1.149.171,1.813,1.813,0,0,1-2.037-2.018v-3.83h-1.038v-1.393h1.038v-1.747Z" transform="translate(-6166.583 -7775.803)" fill="#344154"/>
          <path id="Trazado_101404" data-name="Trazado 101404" d="M6247.735,7786.32a2.122,2.122,0,0,1-.191-.638,2.3,2.3,0,0,1-1.793.769,2.528,2.528,0,0,1-1.731-.6,1.945,1.945,0,0,1-.687-1.524,2.01,2.01,0,0,1,.838-1.735,4.136,4.136,0,0,1,2.421-.61h.874v-.408a1.17,1.17,0,0,0-.253-.788,1,1,0,0,0-.8-.3,1.133,1.133,0,0,0-.752.23.78.78,0,0,0-.272.631h-1.9a1.91,1.91,0,0,1,.382-1.144,2.517,2.517,0,0,1,1.077-.824,3.931,3.931,0,0,1,1.564-.3,3.1,3.1,0,0,1,2.086.66,2.311,2.311,0,0,1,.771,1.854v3.083a3.386,3.386,0,0,0,.283,1.531v.111Zm-1.57-1.32a1.623,1.623,0,0,0,.775-.188,1.223,1.223,0,0,0,.525-.5v-1.222h-.709q-1.427,0-1.519.985l-.007.111a.756.756,0,0,0,.25.585A.972.972,0,0,0,6246.165,7785Z" transform="translate(-6167.881 -7776.228)" fill="#344154"/>
          <path id="Trazado_101405" data-name="Trazado 101405" d="M6259.21,7782.08a4.3,4.3,0,0,1-.73,2.665,2.415,2.415,0,0,1-2.037.956,2.218,2.218,0,0,1-1.846-.887l-.085.756H6252.8v-10.092h1.9v3.62a2.162,2.162,0,0,1,1.728-.769,2.435,2.435,0,0,1,2.04.956,4.307,4.307,0,0,1,.74,2.69Zm-1.9-.138a2.825,2.825,0,0,0-.342-1.573,1.155,1.155,0,0,0-1.019-.5,1.253,1.253,0,0,0-1.248.742v2.806a1.271,1.271,0,0,0,1.262.75,1.173,1.173,0,0,0,1.209-.908A4.66,4.66,0,0,0,6257.312,7781.942Z" transform="translate(-6169.855 -7775.477)" fill="#344154"/>
          <path id="Trazado_101406" data-name="Trazado 101406" d="M6264.405,7785.569H6262.5v-10.092h1.905Z" transform="translate(-6171.876 -7775.477)" fill="#344154"/>
          <path id="Trazado_101407" data-name="Trazado 101407" d="M6270.086,7786.451a3.488,3.488,0,0,1-2.545-.959,3.406,3.406,0,0,1-.982-2.556v-.185a4.29,4.29,0,0,1,.414-1.915,3.035,3.035,0,0,1,1.173-1.3,3.279,3.279,0,0,1,1.731-.457,2.948,2.948,0,0,1,2.3.92,3.733,3.733,0,0,1,.837,2.608v.774h-4.526a1.76,1.76,0,0,0,.555,1.117,1.676,1.676,0,0,0,1.172.421,2.05,2.05,0,0,0,1.715-.795l.933,1.044a2.849,2.849,0,0,1-1.156.942A3.782,3.782,0,0,1,6270.086,7786.451Zm-.217-5.841a1.186,1.186,0,0,0-.917.384,1.975,1.975,0,0,0-.45,1.094h2.642v-.15a1.414,1.414,0,0,0-.342-.98A1.226,1.226,0,0,0,6269.87,7780.61Z" transform="translate(-6172.722 -7776.228)" fill="#344154"/>
        </g>
      </g>
    </g>
  </g>
</svg>
