<svg xmlns="http://www.w3.org/2000/svg" width="401" height="401" viewBox="0 0 401 401">
  <g id="Grupo_53610" data-name="Grupo 53610" transform="translate(2.5 2.5)">
    <g id="Grupo_53882" data-name="Grupo 53882">
      <rect id="Rectángulo_5271" data-name="Rectángulo 5271" width="396" height="396" fill="#aed3f2" stroke="#aed3f2" stroke-miterlimit="10" stroke-width="5" opacity="0"/>
      <g id="Grupo_53881" data-name="Grupo 53881" transform="translate(16.68 31.677)">
        <rect id="Rectángulo_5272" data-name="Rectángulo 5272" width="178.117" height="250.773" transform="translate(164.261 34.58)" fill="#344154" opacity="0.15"/>
        <g id="Grupo_53622" data-name="Grupo 53622" transform="translate(13.507)">
          <g id="Grupo_53616" data-name="Grupo 53616" transform="translate(3.484)">
            <rect id="Rectángulo_5273" data-name="Rectángulo 5273" width="104.763" height="173.413" fill="#839eb6"/>
          </g>
          <g id="Grupo_53617" data-name="Grupo 53617">
            <rect id="Rectángulo_5274" data-name="Rectángulo 5274" width="104.763" height="173.413" fill="#aed3f2"/>
          </g>
          <g id="Grupo_53618" data-name="Grupo 53618" transform="translate(4.461 3.517)">
            <rect id="Rectángulo_5275" data-name="Rectángulo 5275" width="95.841" height="166.38" fill="#fafafa"/>
          </g>
          <g id="Grupo_53621" data-name="Grupo 53621" transform="translate(22.706 25.136)">
            <g id="Grupo_53619" data-name="Grupo 53619" transform="translate(0.001)">
              <rect id="Rectángulo_5276" data-name="Rectángulo 5276" width="58.934" height="123.14" fill="#aed3f2"/>
            </g>
            <g id="Grupo_53620" data-name="Grupo 53620" transform="translate(0 34.136)">
              <path id="Trazado_100677" data-name="Trazado 100677" d="M5825.73,6105.563c-.137-11.5,10.206-22.732,21.6-24.338,5.433-.766,11.2.312,16.279-1.769,9.06-3.714,11.941-15.75,21.058-19.321l.417,89H5825.73Z" transform="translate(-5825.729 -6060.134)" fill="#839eb6"/>
            </g>
          </g>
        </g>
        <g id="Grupo_53624" data-name="Grupo 53624" transform="translate(255.175 289.056)">
          <g id="Grupo_53623" data-name="Grupo 53623">
            <path id="Trazado_100678" data-name="Trazado 100678" d="M6057.768,6297.775a15.618,15.618,0,0,1,3.808-1.655l.784-3.769,6.369-.112.916,3.74a15.561,15.561,0,0,1,3.864,1.519l3.219-2.109,4.582,4.424-1.995,3.29a15.578,15.578,0,0,1,1.655,3.809l3.769.785.112,6.368-3.739.917a15.625,15.625,0,0,1-1.52,3.863l2.109,3.218-4.423,4.583-3.29-2a15.6,15.6,0,0,1-3.808,1.655l-.785,3.769-6.368.112-.917-3.739a15.62,15.62,0,0,1-3.863-1.52l-3.218,2.109-4.583-4.423,2-3.29a15.564,15.564,0,0,1-1.655-3.809l-3.769-.785-.112-6.368,3.739-.917a15.616,15.616,0,0,1,1.52-3.864l-2.11-3.218,4.425-4.583,3.291,2Zm3.4,8.483a6.832,6.832,0,1,0,9.66-.17A6.831,6.831,0,0,0,6061.163,6306.258Z" transform="translate(-6046.903 -6292.239)" fill="#f5f5f5"/>
          </g>
        </g>
        <g id="Grupo_53625" data-name="Grupo 53625" transform="translate(0 332.23)">
          <path id="Trazado_100679" data-name="Trazado 100679" d="M6147.161,6336.057s.377-.016,1.146-.024l3.484-.021v.091c-18,.093-91.333.162-179,.162l-129.861-.06c-16.612-.029-30.054-.052-39.354-.066l-10.7-.04-2.783-.021c-.626-.007-.948-.021-.948-.021s.321-.015.948-.022l2.783-.021,10.7-.039,39.354-.066,129.861-.062c87.664,0,160.992.07,179,.164v.091l-3.484-.023C6147.538,6336.072,6147.161,6336.057,6147.161,6336.057Z" transform="translate(-5789.15 -6335.848)" fill="#344154"/>
        </g>
        <g id="Grupo_53642" data-name="Grupo 53642" transform="translate(148.507 21.301)">
          <g id="Grupo_53638" data-name="Grupo 53638">
            <g id="Grupo_53627" data-name="Grupo 53627">
              <rect id="Rectángulo_5277" data-name="Rectángulo 5277" width="179.36" height="253.077" transform="translate(0.208 0.208)" fill="#fff"/>
              <g id="Grupo_53626" data-name="Grupo 53626">
                <path id="Trazado_100680" data-name="Trazado 100680" d="M6118.725,6275.063c0-1.683-.077-103.569-.189-253.075l.189.189-179.339.019h-.021l.209-.208c-.015,94.837-.029,182.533-.04,253.075l-.169-.168,179.36.168-179.36.169h-.169v-.169c-.01-70.542-.024-158.238-.039-253.075v-.209h.229l179.339.019h.19v.19C6118.8,6171.5,6118.727,6273.381,6118.725,6275.063Z" transform="translate(-5939.157 -6021.779)" fill="#344154"/>
              </g>
            </g>
            <rect id="Rectángulo_5278" data-name="Rectángulo 5278" width="76.568" height="17.555" rx="6.688" transform="translate(12.29 168.236)" fill="#f5f5f5"/>
            <rect id="Rectángulo_5279" data-name="Rectángulo 5279" width="35.953" height="17.555" rx="6.688" transform="translate(49.817 168.236)" fill="#f5f5f5"/>
            <rect id="Rectángulo_5280" data-name="Rectángulo 5280" width="157.88" height="17.555" rx="6.688" transform="translate(11.928 204.22)" fill="#f5f5f5"/>
            <g id="Grupo_53628" data-name="Grupo 53628" transform="translate(14.389 160.964)">
              <path id="Trazado_100681" data-name="Trazado 100681" d="M5986.749,6184.577c0,.116-7.4.209-16.527.209s-16.529-.093-16.529-.209,7.4-.208,16.529-.208S5986.749,6184.462,5986.749,6184.577Z" transform="translate(-5953.692 -6184.369)" fill="#344154"/>
            </g>
            <g id="Grupo_53629" data-name="Grupo 53629" transform="translate(14.805 196.767)">
              <path id="Trazado_100682" data-name="Trazado 100682" d="M6007.729,6220.741c0,.115-12,.209-26.808.209s-26.81-.094-26.81-.209,12-.208,26.81-.208S6007.729,6220.626,6007.729,6220.741Z" transform="translate(-5954.112 -6220.534)" fill="#344154"/>
            </g>
            <rect id="Rectángulo_5281" data-name="Rectángulo 5281" width="127.934" height="31.815" rx="6.508" transform="translate(36.887 97.849)" fill="#839eb6"/>
            <rect id="Rectángulo_5282" data-name="Rectángulo 5282" width="160.698" height="19.191" rx="6.508" transform="translate(9.11 11.701)" fill="#839eb6"/>
            <g id="Grupo_53630" data-name="Grupo 53630" transform="translate(60.001 21.088)">
              <path id="Trazado_100683" data-name="Trazado 100683" d="M6063.451,6043.288c0,.114-14.258.208-31.841.208s-31.845-.094-31.845-.208,14.255-.208,31.845-.208S6063.451,6043.173,6063.451,6043.288Z" transform="translate(-5999.764 -6043.08)" fill="#344154"/>
            </g>
            <g id="Grupo_53631" data-name="Grupo 53631" transform="translate(0.047 35.33)">
              <path id="Trazado_100684" data-name="Trazado 100684" d="M6118.726,6057.674c0,.116-40.19.209-89.756.209-49.583,0-89.764-.093-89.764-.209s40.181-.208,89.764-.208C6078.536,6057.466,6118.726,6057.559,6118.726,6057.674Z" transform="translate(-5939.205 -6057.466)" fill="#aed3f2"/>
            </g>
            <g id="Grupo_53632" data-name="Grupo 53632" transform="translate(0.047 120.226)">
              <path id="Trazado_100685" data-name="Trazado 100685" d="M6118.726,6143.427c0,.115-40.19.208-89.756.208-49.583,0-89.764-.093-89.764-.208s40.181-.208,89.764-.208C6078.536,6143.219,6118.726,6143.312,6118.726,6143.427Z" transform="translate(-5939.205 -6143.219)" fill="#aed3f2"/>
            </g>
            <rect id="Rectángulo_5283" data-name="Rectángulo 5283" width="76.568" height="17.555" rx="6.688" transform="translate(12.29 54.778)" fill="#f5f5f5"/>
            <rect id="Rectángulo_5284" data-name="Rectángulo 5284" width="35.953" height="17.555" rx="6.688" transform="translate(49.817 54.778)" fill="#f5f5f5"/>
            <rect id="Rectángulo_5285" data-name="Rectángulo 5285" width="75.816" height="17.555" rx="6.688" transform="translate(87.733 71.504)" fill="#f5f5f5"/>
            <g id="Grupo_53633" data-name="Grupo 53633" transform="translate(14.389 47.506)">
              <path id="Trazado_100686" data-name="Trazado 100686" d="M5986.749,6069.973c0,.115-7.4.209-16.527.209s-16.529-.094-16.529-.209,7.4-.208,16.529-.208S5986.749,6069.858,5986.749,6069.973Z" transform="translate(-5953.692 -6069.765)" fill="#344154"/>
            </g>
            <g id="Grupo_53634" data-name="Grupo 53634" transform="translate(99.612 47.506)">
              <path id="Trazado_100687" data-name="Trazado 100687" d="M6065.8,6069.973c0,.115-5.827.209-13.014.209s-13.014-.094-13.014-.209,5.826-.208,13.014-.208S6065.8,6069.858,6065.8,6069.973Z" transform="translate(-6039.776 -6069.765)" fill="#344154"/>
            </g>
            <g id="Grupo_53635" data-name="Grupo 53635" transform="translate(14.805 83.308)">
              <path id="Trazado_100688" data-name="Trazado 100688" d="M6007.729,6106.137c0,.115-12,.208-26.808.208s-26.81-.093-26.81-.208,12-.208,26.81-.208S6007.729,6106.022,6007.729,6106.137Z" transform="translate(-5954.112 -6105.928)" fill="#344154"/>
            </g>
            <g id="Grupo_53636" data-name="Grupo 53636" transform="translate(111.97 232.236)">
              <path id="Trazado_100689" data-name="Trazado 100689" d="M6104.557,6256.569c0,.115-11.708.208-26.148.208s-26.151-.093-26.151-.208,11.706-.208,26.151-.208S6104.557,6256.454,6104.557,6256.569Z" transform="translate(-6052.258 -6256.361)" fill="#344154"/>
            </g>
            <g id="Grupo_53637" data-name="Grupo 53637" transform="translate(92.609 99.95)">
              <path id="Trazado_100690" data-name="Trazado 100690" d="M6051.674,6126.089l-10.391,23.895h-5.629l10.41-22.571H6032.7v-4.3h18.973Z" transform="translate(-6032.701 -6122.743)" fill="#fff"/>
              <path id="Trazado_100691" data-name="Trazado 100691" d="M6056.108,6136.77l1.55-13.658h15.06v4.448h-10.686l-.664,5.776a8.46,8.46,0,0,1,4.042-1.015,7.741,7.741,0,0,1,6.016,2.381,9.506,9.506,0,0,1,2.178,6.662,9.737,9.737,0,0,1-1.1,4.661,7.747,7.747,0,0,1-3.146,3.192,9.805,9.805,0,0,1-4.835,1.135,10.424,10.424,0,0,1-4.522-.988,8.023,8.023,0,0,1-3.294-2.777,7.567,7.567,0,0,1-1.282-4.079h5.278a3.952,3.952,0,0,0,1.171,2.611,3.717,3.717,0,0,0,2.631.933,3.279,3.279,0,0,0,2.787-1.3,6.025,6.025,0,0,0,.978-3.682,4.986,4.986,0,0,0-1.126-3.506,4.132,4.132,0,0,0-3.193-1.218,4.621,4.621,0,0,0-3.083,1l-.517.48Z" transform="translate(-6032.928 -6122.743)" fill="#fff"/>
              <path id="Trazado_100692" data-name="Trazado 100692" d="M6095.3,6138.871q0,5.573-2.307,8.526a9.221,9.221,0,0,1-13.473.055q-2.325-2.9-2.381-8.305V6134.2q0-5.629,2.335-8.544a9.235,9.235,0,0,1,13.444-.029q2.325,2.89,2.381,8.3Zm-5.334-5.438a9.83,9.83,0,0,0-.914-4.868,3.085,3.085,0,0,0-2.851-1.525,3.03,3.03,0,0,0-2.777,1.45,9.216,9.216,0,0,0-.952,4.536v6.54a10.335,10.335,0,0,0,.9,4.886,3.048,3.048,0,0,0,2.87,1.6,3,3,0,0,0,2.825-1.534,10.089,10.089,0,0,0,.9-4.692Z" transform="translate(-6033.146 -6122.739)" fill="#fff"/>
            </g>
          </g>
          <g id="Grupo_53639" data-name="Grupo 53639" transform="translate(19.297 58.905)">
            <path id="Trazado_100693" data-name="Trazado 100693" d="M6016.447,6087.774a9.143,9.143,0,0,1-1.239.311,14.663,14.663,0,0,1-9.24-1.324,5.31,5.31,0,0,1-1.42-1.075,3.39,3.39,0,0,1-.854-1.706,2.526,2.526,0,0,1,.412-1.985,1.926,1.926,0,0,1,2.022-.644,1.458,1.458,0,0,1,.889.75,1.87,1.87,0,0,1,.151,1.167,4.2,4.2,0,0,1-1.107,2.055,10.049,10.049,0,0,1-4.016,2.742,9.67,9.67,0,0,1-5.184.471,5.786,5.786,0,0,1-2.536-1.115,3.012,3.012,0,0,1-1.233-2.565,2.809,2.809,0,0,1,.552-1.4,2.189,2.189,0,0,1,1.261-.88,1.569,1.569,0,0,1,1.5.492,2.244,2.244,0,0,1,.537,1.479,3.036,3.036,0,0,1-.368,1.523,3.431,3.431,0,0,1-1.087,1.141,9.87,9.87,0,0,1-2.864,1.149,12.6,12.6,0,0,1-6.228.662,5.873,5.873,0,0,1-2.865-1.554,4.114,4.114,0,0,1-1.242-3.061,2.713,2.713,0,0,1,.867-1.943,1.988,1.988,0,0,1,2.111-.225,1.63,1.63,0,0,1,.8.777,1.674,1.674,0,0,1,.1,1.105,3.149,3.149,0,0,1-1.25,1.649,16.194,16.194,0,0,1-7.2,2.737,7.293,7.293,0,0,1-3.751-.329,3.778,3.778,0,0,1-2.306-2.827,2.577,2.577,0,0,1,1.908-2.878,1.784,1.784,0,0,1,1.708.613,2.727,2.727,0,0,1,.6,1.664,3.317,3.317,0,0,1-.367,1.686,3.947,3.947,0,0,1-1.136,1.242,8.745,8.745,0,0,1-2.937,1.231,9.844,9.844,0,0,1-5.859.211,5.036,5.036,0,0,1-2.226-1.622,3.612,3.612,0,0,1-.789-2.467,3.46,3.46,0,0,1,1.069-2.174,2.355,2.355,0,0,1,2.136-.639l.086.022,0,.086a6.191,6.191,0,0,1-1.569,4.256,6.478,6.478,0,0,1-2.8,1.911,5.315,5.315,0,0,1-2.1.27,6.041,6.041,0,0,1-.719-.136,5.557,5.557,0,0,0,2.779-.25,6.426,6.426,0,0,0,2.707-1.912,6.017,6.017,0,0,0,1.474-4.126l.089.108a2.11,2.11,0,0,0-1.907.6,3.206,3.206,0,0,0-.97,2.011,4.029,4.029,0,0,0,2.851,3.777,9.578,9.578,0,0,0,5.664-.251,8.444,8.444,0,0,0,2.814-1.187,3.626,3.626,0,0,0,1.028-1.127,2.953,2.953,0,0,0,.317-1.5,2.365,2.365,0,0,0-.516-1.437,1.41,1.41,0,0,0-1.354-.485,2.2,2.2,0,0,0-1.6,2.454,3.392,3.392,0,0,0,2.076,2.515,6.918,6.918,0,0,0,3.547.293,15.823,15.823,0,0,0,7-2.667,2.764,2.764,0,0,0,1.1-1.416,1.186,1.186,0,0,0-.669-1.409,1.577,1.577,0,0,0-1.662.167,2.3,2.3,0,0,0-.721,1.648,3.692,3.692,0,0,0,1.123,2.748,5.47,5.47,0,0,0,2.662,1.443,12.258,12.258,0,0,0,6.021-.652,9.528,9.528,0,0,0,2.749-1.09,3.045,3.045,0,0,0,.964-1,2.647,2.647,0,0,0,.32-1.321,1.844,1.844,0,0,0-.43-1.22,1.169,1.169,0,0,0-1.124-.377,2.242,2.242,0,0,0-1.513,1.933,2.646,2.646,0,0,0,1.088,2.234,5.436,5.436,0,0,0,2.367,1.047,9.356,9.356,0,0,0,5-.436,9.732,9.732,0,0,0,3.9-2.634,3.894,3.894,0,0,0,1.043-1.89,1.321,1.321,0,0,0-.823-1.584,1.642,1.642,0,0,0-1.716.535,2.262,2.262,0,0,0-.371,1.766,3.832,3.832,0,0,0,2.126,2.622,14.549,14.549,0,0,0,5.483,1.573,15.45,15.45,0,0,0,3.63-.128c.411-.068.725-.125.933-.172A1.919,1.919,0,0,1,6016.447,6087.774Z" transform="translate(-5958.649 -6081.279)" fill="#d9a171"/>
          </g>
          <g id="Grupo_53640" data-name="Grupo 53640" transform="translate(106.025 58.328)">
            <path id="Trazado_100694" data-name="Trazado 100694" d="M6095.612,6086.815a5.326,5.326,0,0,1-1.005.5,9.2,9.2,0,0,1-3.15.661,9.668,9.668,0,0,1-4.945-1.156,6.151,6.151,0,0,1-2.408-2.114,2.863,2.863,0,0,1-.432-1.74,2.426,2.426,0,0,1,.929-1.649,1.573,1.573,0,0,1,.974-.323,1.5,1.5,0,0,1,.971.413,2.375,2.375,0,0,1,.648,1.972,3.483,3.483,0,0,1-1,1.9,8.319,8.319,0,0,1-1.751,1.336,10.415,10.415,0,0,1-4.371,1.4,8.345,8.345,0,0,1-4.78-.891,4.687,4.687,0,0,1-1.853-1.792,3.489,3.489,0,0,1-.424-1.276,3.089,3.089,0,0,1,.2-1.353,3.136,3.136,0,0,1,1.906-1.922,1.827,1.827,0,0,1,1.438.143,2.231,2.231,0,0,1,.964,1.076,3.325,3.325,0,0,1-.106,2.8,5.8,5.8,0,0,1-1.906,2.1,10.45,10.45,0,0,1-5.371,1.857,10.67,10.67,0,0,1-5.557-1.2,8.364,8.364,0,0,1-2.26-1.684,3.823,3.823,0,0,1-1.122-2.57,2.533,2.533,0,0,1,1.541-2.281,1.554,1.554,0,0,1,1.437.171,2.1,2.1,0,0,1,.794,1.168,3.018,3.018,0,0,1-.54,2.589,8.026,8.026,0,0,1-1.842,1.775,11.265,11.265,0,0,1-9.041,1.934,6.1,6.1,0,0,1-3.666-2.2,3.389,3.389,0,0,1-.679-1.946,3.693,3.693,0,0,1,.482-1.915,2.435,2.435,0,0,1,1.478-1.178,2.1,2.1,0,0,1,1.75.39,3.217,3.217,0,0,1,1.181,2.934,3.954,3.954,0,0,1-1.414,2.394,5.3,5.3,0,0,1-2.09,1.062,10.3,10.3,0,0,1-3.215.2l-.833-.073a1.446,1.446,0,0,1-.283-.042,1.521,1.521,0,0,1,.286,0l.834.032a10.753,10.753,0,0,0,3.169-.274,5.167,5.167,0,0,0,2-1.054,3.758,3.758,0,0,0,1.312-2.276,2.976,2.976,0,0,0-1.109-2.689,1.82,1.82,0,0,0-1.524-.331,2.153,2.153,0,0,0-1.29,1.053,3.217,3.217,0,0,0,.2,3.525,5.783,5.783,0,0,0,3.481,2.046,10.926,10.926,0,0,0,8.737-1.906,7.745,7.745,0,0,0,1.748-1.689,2.623,2.623,0,0,0,.479-2.256,1.709,1.709,0,0,0-.638-.947,1.149,1.149,0,0,0-1.072-.124,2.142,2.142,0,0,0-1.272,1.907,3.429,3.429,0,0,0,1.018,2.286,7.982,7.982,0,0,0,2.15,1.6,10.285,10.285,0,0,0,5.339,1.145,10.051,10.051,0,0,0,5.154-1.779,5.4,5.4,0,0,0,1.776-1.94,2.912,2.912,0,0,0,.1-2.455,1.6,1.6,0,0,0-1.914-1,2.756,2.756,0,0,0-1.649,1.678,2.713,2.713,0,0,0-.177,1.173,3.128,3.128,0,0,0,.375,1.126,4.294,4.294,0,0,0,1.7,1.646,7.992,7.992,0,0,0,4.56.862,10.114,10.114,0,0,0,4.228-1.332,8.07,8.07,0,0,0,1.685-1.27,3.166,3.166,0,0,0,.926-1.712,2.067,2.067,0,0,0-.541-1.707,1.18,1.18,0,0,0-1.559-.077,2.152,2.152,0,0,0-.825,1.445,2.6,2.6,0,0,0,.382,1.571,5.938,5.938,0,0,0,2.291,2.045,9.656,9.656,0,0,0,7.954.621C6095.267,6086.991,6095.6,6086.789,6095.612,6086.815Z" transform="translate(-6046.253 -6080.697)" fill="#d9a171"/>
          </g>
          <g id="Grupo_53641" data-name="Grupo 53641" transform="translate(17.699 95.58)">
            <path id="Trazado_100695" data-name="Trazado 100695" d="M6020.327,6122.537a2,2,0,0,1-.307.155l-.918.417c-.811.358-2.009.883-3.589,1.477a29.191,29.191,0,0,1-5.938,1.581,22.876,22.876,0,0,1-3.839.232,13.012,13.012,0,0,1-4.273-.646,5.088,5.088,0,0,1-3.247-3.381,3.3,3.3,0,0,1,.315-2.552,2.884,2.884,0,0,1,2.211-1.49,2.446,2.446,0,0,1,2.3,1.483,3.772,3.772,0,0,1,.2,2.846,5.567,5.567,0,0,1-1.676,2.4,10.915,10.915,0,0,1-2.514,1.621,8.617,8.617,0,0,1-6.076.709,6.156,6.156,0,0,1-4.221-4.652,5.07,5.07,0,0,1-.011-1.694,3.26,3.26,0,0,1,.688-1.586,2.154,2.154,0,0,1,1.542-.889,1.551,1.551,0,0,1,1.478,1.032,4.139,4.139,0,0,1-.59,3.4,10.278,10.278,0,0,1-2.243,2.658,9.465,9.465,0,0,1-12.542-.193,5.345,5.345,0,0,1-1.624-2.863,3.271,3.271,0,0,1,.107-1.666,3.363,3.363,0,0,1,.937-1.365,2.79,2.79,0,0,1,1.492-.7,1.975,1.975,0,0,1,1.575.492,3.045,3.045,0,0,1,.716,3,5.6,5.6,0,0,1-1.659,2.515,13.68,13.68,0,0,1-2.328,1.738,13.516,13.516,0,0,1-5.226,1.776,11.732,11.732,0,0,1-5.135-.461,5.717,5.717,0,0,1-2.112-1.266,3.956,3.956,0,0,1-1.146-2.067,3.612,3.612,0,0,1,.208-2.248,2.22,2.22,0,0,1,1.681-1.309,2.515,2.515,0,0,1,1.952.535,1.85,1.85,0,0,1,.621,1.782,2.793,2.793,0,0,1-.923,1.511,5.863,5.863,0,0,1-1.355.9,15.69,15.69,0,0,1-2.628,1,14.942,14.942,0,0,1-3.84.57,9.633,9.633,0,0,1-1.352-.058,2.236,2.236,0,0,1,.343-.007c.227,0,.564,0,1.006-.02a15.81,15.81,0,0,0,6.383-1.668,5.724,5.724,0,0,0,1.3-.879,2.59,2.59,0,0,0,.841-1.4,1.6,1.6,0,0,0-.551-1.549,2.267,2.267,0,0,0-1.751-.464,1.943,1.943,0,0,0-1.467,1.167,3.322,3.322,0,0,0-.174,2.066,4.36,4.36,0,0,0,3.077,3.092,11.441,11.441,0,0,0,4.987.421,13.159,13.159,0,0,0,5.081-1.748,13.314,13.314,0,0,0,2.256-1.7,5.248,5.248,0,0,0,1.547-2.343,2.671,2.671,0,0,0-.607-2.607,1.89,1.89,0,0,0-2.542.218,2.954,2.954,0,0,0-.822,1.2,2.877,2.877,0,0,0-.088,1.464,4.956,4.956,0,0,0,1.512,2.638,9.061,9.061,0,0,0,11.989.167,9.877,9.877,0,0,0,2.152-2.55,4.741,4.741,0,0,0,.613-1.5,2.8,2.8,0,0,0-.05-1.542,1.134,1.134,0,0,0-1.08-.769,1.754,1.754,0,0,0-1.233.733,3.71,3.71,0,0,0-.6,2.947,5.761,5.761,0,0,0,3.932,4.345,8.236,8.236,0,0,0,5.8-.676c1.738-.835,3.415-2.05,4.006-3.793a3.418,3.418,0,0,0-.174-2.572,2.1,2.1,0,0,0-1.958-1.3,2.549,2.549,0,0,0-1.944,1.314,2.972,2.972,0,0,0-.292,2.3,4.782,4.782,0,0,0,3.04,3.185,12.788,12.788,0,0,0,4.173.655,22.9,22.9,0,0,0,3.8-.2,29.746,29.746,0,0,0,5.914-1.5c1.583-.568,2.791-1.069,3.612-1.4l.935-.378A2.094,2.094,0,0,1,6020.327,6122.537Z" transform="translate(-5957.035 -6118.324)" fill="#d9a171"/>
          </g>
        </g>
        <g id="Grupo_53667" data-name="Grupo 53667" transform="translate(275.594 215.217)">
          <g id="Grupo_53663" data-name="Grupo 53663">
            <g id="Grupo_53643" data-name="Grupo 53643" transform="translate(0 20.712)">
              <path id="Trazado_100696" data-name="Trazado 100696" d="M6097.322,6299.81s-18.414-21.194-25.363-42.388-3.648-18.762-3.648-18.762,9.381,20.588,16.5,30.533,19.8,24.537,19.8,24.537Z" transform="translate(-6067.527 -6238.575)" fill="#5e6178"/>
            </g>
            <g id="Grupo_53644" data-name="Grupo 53644" transform="translate(31.454 23.549)">
              <path id="Trazado_100697" data-name="Trazado 100697" d="M6101.31,6241.991a1.073,1.073,0,0,0-2,.682c1.123,7.445,3.549,24.916,3.454,36.246-.124,14.72.005,20.409.005,20.409h7.663s-1.36-30.429-3.092-39.706A63.675,63.675,0,0,0,6101.31,6241.991Z" transform="translate(-6099.299 -6241.44)" fill="#5e6178"/>
            </g>
            <g id="Grupo_53645" data-name="Grupo 53645" transform="translate(37.643 20.924)">
              <path id="Trazado_100698" data-name="Trazado 100698" d="M6105.551,6296.827a81.176,81.176,0,0,0,6.309-22.883c.631-5.417-.5-12.74-2.17-22.512a60.664,60.664,0,0,1-.969-10.832,1.829,1.829,0,0,1,3.434-.858c.925,1.651,3.6,7.289,4.282,10.824,1.855,9.649,3.958,14.473,2.351,23.626s-7.546,23.254-7.546,23.254Z" transform="translate(-6105.551 -6238.788)" fill="#5e6178"/>
            </g>
            <g id="Grupo_53646" data-name="Grupo 53646" transform="translate(44.547 9.192)">
              <path id="Trazado_100699" data-name="Trazado 100699" d="M6112.524,6297.327s20.217-43.449,21.619-49.9,6.166-21.3,6.726-20.459,1.4,8.688-2.242,17.656-19.2,54.021-19.2,54.021h-6.9" transform="translate(-6112.524 -6226.939)" fill="#5e6178"/>
            </g>
            <g id="Grupo_53648" data-name="Grupo 53648" transform="translate(0.247 21.286)">
              <g id="Grupo_53647" data-name="Grupo 53647">
                <path id="Trazado_100700" data-name="Trazado 100700" d="M6102.959,6295.505a4.167,4.167,0,0,1-.567-.389c-.359-.273-.9-.655-1.566-1.2a71.564,71.564,0,0,1-5.433-4.8,91.169,91.169,0,0,1-14.669-18.826,123.347,123.347,0,0,1-10.012-21.688c-1.017-2.886-1.759-5.249-2.24-6.89-.247-.819-.417-1.46-.537-1.9a3.963,3.963,0,0,1-.157-.669,4.185,4.185,0,0,1,.24.645q.229.7.614,1.87c.53,1.624,1.316,3.968,2.367,6.835a131.184,131.184,0,0,0,10.1,21.572,95.181,95.181,0,0,0,14.511,18.829c2.165,2.151,4.015,3.79,5.326,4.884.645.561,1.171.963,1.513,1.257A3.971,3.971,0,0,1,6102.959,6295.505Z" transform="translate(-6067.776 -6239.155)" fill="#344154"/>
              </g>
            </g>
            <g id="Grupo_53650" data-name="Grupo 53650" transform="translate(32.452 24.545)">
              <g id="Grupo_53649" data-name="Grupo 53649">
                <path id="Trazado_100701" data-name="Trazado 100701" d="M6105.5,6274.694a7.4,7.4,0,0,1-.181-1.275c-.1-.9-.222-2.072-.374-3.483-.319-2.939-.819-6.993-1.533-11.446s-1.514-8.46-2.131-11.352c-.3-1.388-.548-2.541-.738-3.424a7.375,7.375,0,0,1-.228-1.268,7.465,7.465,0,0,1,.391,1.227c.226.8.525,1.958.872,3.4.695,2.879,1.541,6.887,2.26,11.35s1.168,8.534,1.411,11.486c.123,1.476.2,2.671.237,3.5A7.353,7.353,0,0,1,6105.5,6274.694Z" transform="translate(-6100.306 -6242.446)" fill="#344154"/>
              </g>
            </g>
            <g id="Grupo_53652" data-name="Grupo 53652" transform="translate(40.312 21.536)">
              <g id="Grupo_53651" data-name="Grupo 53651">
                <path id="Trazado_100702" data-name="Trazado 100702" d="M6110.312,6239.407a3.132,3.132,0,0,1,.239.552c.153.409.354.945.605,1.614.267.7.575,1.563.867,2.587s.69,2.171.983,3.479q.238.978.5,2.043c.169.711.29,1.464.444,2.236.331,1.543.535,3.216.78,4.972a74.232,74.232,0,0,1-.824,22.967c-.37,1.734-.694,3.388-1.133,4.9-.21.759-.383,1.5-.6,2.2s-.439,1.363-.646,2c-.386,1.284-.856,2.4-1.229,3.4s-.733,1.839-1.05,2.519l-.72,1.566a3.118,3.118,0,0,1-.278.534,3.175,3.175,0,0,1,.2-.569c.163-.4.377-.936.645-1.6.292-.687.637-1.532.979-2.538s.8-2.124,1.165-3.408l.617-2c.21-.7.376-1.437.577-2.195.422-1.512.731-3.16,1.088-4.888a76.647,76.647,0,0,0,.82-22.848c-.233-1.747-.423-3.414-.737-4.952-.146-.77-.258-1.521-.418-2.231s-.32-1.389-.471-2.041c-.273-1.308-.641-2.459-.918-3.483s-.553-1.895-.8-2.6c-.218-.679-.4-1.224-.528-1.638A3.126,3.126,0,0,1,6110.312,6239.407Z" transform="translate(-6108.247 -6239.407)" fill="#344154"/>
              </g>
            </g>
            <g id="Grupo_53654" data-name="Grupo 53654" transform="translate(47.851 10.1)">
              <g id="Grupo_53653" data-name="Grupo 53653">
                <path id="Trazado_100703" data-name="Trazado 100703" d="M6140.671,6227.855a.654.654,0,0,1-.016.195l-.09.564c-.089.494-.2,1.229-.4,2.162-.391,1.87-1.042,4.56-2.052,7.823s-2.389,7.092-4.026,11.3-3.527,8.789-5.322,13.667c-1.822,4.871-3.226,9.625-4.546,13.938s-2.547,8.192-3.746,11.391a72.632,72.632,0,0,1-3.193,7.43c-.413.861-.786,1.5-1.027,1.944l-.282.5a.649.649,0,0,1-.11.162.74.74,0,0,1,.071-.183c.066-.14.147-.309.246-.517.214-.454.562-1.107.952-1.976.813-1.723,1.91-4.255,3.056-7.463s2.367-7.078,3.653-11.4,2.694-9.088,4.521-13.973c1.8-4.89,3.707-9.468,5.357-13.663s3.064-8,4.1-11.244,1.741-5.911,2.18-7.765c.222-.927.36-1.654.477-2.143.053-.224.1-.406.131-.556A.643.643,0,0,1,6140.671,6227.855Z" transform="translate(-6115.862 -6227.855)" fill="#344154"/>
              </g>
            </g>
            <g id="Grupo_53662" data-name="Grupo 53662" transform="translate(7.368)">
              <g id="Grupo_53655" data-name="Grupo 53655">
                <path id="Trazado_100704" data-name="Trazado 100704" d="M6077.918,6218.156a1.74,1.74,0,0,0-2.866,1.775,49.7,49.7,0,0,0,2.54,6.533c2.78,5.906,10.944,27.1,14.766,38.74s9.208,33.354,9.208,33.354l8.162-1.324s-7.468-35.679-14.763-48.535C6089.1,6238.371,6083.24,6223.444,6077.918,6218.156Z" transform="translate(-6074.969 -6217.653)" fill="#5e6178"/>
              </g>
              <g id="Grupo_53657" data-name="Grupo 53657" transform="translate(19.618 54.83)">
                <g id="Grupo_53656" data-name="Grupo 53656">
                  <path id="Trazado_100705" data-name="Trazado 100705" d="M6094.791,6273.037a5.056,5.056,0,0,1,.419.978c.242.64.571,1.575.942,2.74.751,2.328,1.671,5.58,2.6,9.192s1.695,6.9,2.231,9.285l.614,2.829a5.12,5.12,0,0,1,.169,1.05,4.953,4.953,0,0,1-.333-1.011l-.747-2.8c-.624-2.456-1.444-5.682-2.352-9.25-.926-3.608-1.8-6.866-2.472-9.211-.323-1.107-.593-2.036-.808-2.775A4.943,4.943,0,0,1,6094.791,6273.037Z" transform="translate(-6094.786 -6273.037)" fill="#344154"/>
                </g>
              </g>
              <g id="Grupo_53659" data-name="Grupo 53659" transform="translate(0.942 0.366)">
                <g id="Grupo_53658" data-name="Grupo 53658">
                  <path id="Trazado_100706" data-name="Trazado 100706" d="M6105.676,6297.9a.9.9,0,0,1-.046-.218c-.024-.169-.055-.381-.092-.643-.086-.564-.163-1.4-.334-2.471-.3-2.145-.835-5.234-1.711-9a129.032,129.032,0,0,0-3.82-13.038c-1.674-4.835-3.774-10.06-6.153-15.467-4.8-10.8-9.6-20.381-12.749-27.465-1.594-3.533-2.828-6.418-3.639-8.429-.415-1-.711-1.789-.918-2.32-.092-.249-.167-.449-.227-.609a.875.875,0,0,1-.063-.213.829.829,0,0,1,.1.2l.267.592c.241.554.572,1.319.992,2.29.859,1.988,2.135,4.853,3.762,8.367,3.221,7.046,8.059,16.6,12.867,27.418,2.383,5.416,4.477,10.657,6.134,15.511a122.626,122.626,0,0,1,3.742,13.1,91.727,91.727,0,0,1,1.58,9.048c.146,1.075.2,1.917.253,2.485.021.263.037.476.051.647A.822.822,0,0,1,6105.676,6297.9Z" transform="translate(-6075.921 -6218.023)" fill="#344154"/>
                </g>
              </g>
              <g id="Grupo_53661" data-name="Grupo 53661" transform="translate(25.819 45.288)">
                <g id="Grupo_53660" data-name="Grupo 53660">
                  <path id="Trazado_100707" data-name="Trazado 100707" d="M6109.989,6297.691a8.521,8.521,0,0,1-.276-1.371c-.161-.959-.376-2.223-.635-3.752-.562-3.162-1.422-7.517-2.656-12.258s-2.6-8.966-3.658-12l-1.276-3.584a8.539,8.539,0,0,1-.434-1.33,8.657,8.657,0,0,1,.589,1.268c.353.828.844,2.034,1.408,3.542a118.54,118.54,0,0,1,3.789,11.993,124.49,124.49,0,0,1,2.539,12.316c.232,1.592.41,2.882.5,3.778A8.983,8.983,0,0,1,6109.989,6297.691Z" transform="translate(-6101.05 -6263.399)" fill="#344154"/>
                </g>
              </g>
            </g>
          </g>
          <g id="Grupo_53666" data-name="Grupo 53666" transform="translate(20.452 78.408)">
            <g id="Grupo_53664" data-name="Grupo 53664" transform="translate(6.569)">
              <rect id="Rectángulo_5286" data-name="Rectángulo 5286" width="31.856" height="38.813" fill="#344154"/>
            </g>
            <g id="Grupo_53665" data-name="Grupo 53665">
              <rect id="Rectángulo_5287" data-name="Rectángulo 5287" width="28.263" height="38.813" fill="#6595bf"/>
            </g>
          </g>
        </g>
        <g id="Grupo_53880" data-name="Grupo 53880" transform="translate(5.094 41.623)">
          <g id="Grupo_53834" data-name="Grupo 53834" transform="translate(47.963)">
            <g id="Grupo_53830" data-name="Grupo 53830" transform="translate(0 11.156)">
              <g id="Grupo_53700" data-name="Grupo 53700" transform="translate(11.462)">
                <g id="Grupo_53699" data-name="Grupo 53699">
                  <g id="Grupo_53698" data-name="Grupo 53698">
                    <g id="Grupo_53682" data-name="Grupo 53682">
                      <g id="Grupo_53681" data-name="Grupo 53681">
                        <g id="Grupo_53680" data-name="Grupo 53680">
                          <g id="Grupo_53679" data-name="Grupo 53679">
                            <g id="Grupo_53678" data-name="Grupo 53678">
                              <g id="Grupo_53677" data-name="Grupo 53677">
                                <g id="Grupo_53676" data-name="Grupo 53676">
                                  <g id="Grupo_53675" data-name="Grupo 53675">
                                    <g id="Grupo_53674" data-name="Grupo 53674">
                                      <g id="Grupo_53673" data-name="Grupo 53673">
                                        <g id="Grupo_53672" data-name="Grupo 53672">
                                          <g id="Grupo_53671" data-name="Grupo 53671">
                                            <g id="Grupo_53670" data-name="Grupo 53670">
                                              <g id="Grupo_53669" data-name="Grupo 53669">
                                                <g id="Grupo_53668" data-name="Grupo 53668">
                                                  <path id="Trazado_100708" data-name="Trazado 100708" d="M5855.234,6088.642l-.906,72.915c-.154,12.4,2.153,30.646,21.768,30h0c16.977-1.847,21.48-17.918,21.613-29.49.063-5.489.125-10.065.169-10.629,0,0,18.583-1.516,20.152-19.871.758-8.87.832-27.267.705-43.911a34.312,34.312,0,0,0-31.824-33.943l-1.773-.129C5865.942,6053.3,5854.981,6069.446,5855.234,6088.642Z" transform="translate(-5854.321 -6053.575)" fill="#ffbf9d"/>
                                                </g>
                                              </g>
                                            </g>
                                          </g>
                                        </g>
                                      </g>
                                    </g>
                                  </g>
                                </g>
                              </g>
                            </g>
                          </g>
                        </g>
                      </g>
                    </g>
                    <g id="Grupo_53697" data-name="Grupo 53697" transform="translate(20.153 89.039)">
                      <g id="Grupo_53696" data-name="Grupo 53696">
                        <g id="Grupo_53695" data-name="Grupo 53695">
                          <g id="Grupo_53694" data-name="Grupo 53694">
                            <g id="Grupo_53693" data-name="Grupo 53693">
                              <g id="Grupo_53692" data-name="Grupo 53692">
                                <g id="Grupo_53691" data-name="Grupo 53691">
                                  <g id="Grupo_53690" data-name="Grupo 53690">
                                    <g id="Grupo_53689" data-name="Grupo 53689">
                                      <g id="Grupo_53688" data-name="Grupo 53688">
                                        <g id="Grupo_53687" data-name="Grupo 53687">
                                          <g id="Grupo_53686" data-name="Grupo 53686">
                                            <g id="Grupo_53685" data-name="Grupo 53685">
                                              <g id="Grupo_53684" data-name="Grupo 53684">
                                                <g id="Grupo_53683" data-name="Grupo 53683">
                                                  <path id="Trazado_100709" data-name="Trazado 100709" d="M5898.082,6152.332a44.507,44.507,0,0,1-23.4-8.819s4.854,13.845,23.308,13.528Z" transform="translate(-5874.678 -6143.513)" fill="#ff9a6c"/>
                                                </g>
                                              </g>
                                            </g>
                                          </g>
                                        </g>
                                      </g>
                                    </g>
                                  </g>
                                </g>
                              </g>
                            </g>
                          </g>
                        </g>
                      </g>
                    </g>
                  </g>
                </g>
              </g>
              <g id="Grupo_53784" data-name="Grupo 53784" transform="translate(31.739 27.728)">
                <g id="Grupo_53783" data-name="Grupo 53783">
                  <g id="Grupo_53752" data-name="Grupo 53752" transform="translate(1.467 10.622)">
                    <g id="Grupo_53751" data-name="Grupo 53751">
                      <g id="Grupo_53750" data-name="Grupo 53750">
                        <g id="Grupo_53717" data-name="Grupo 53717">
                          <g id="Grupo_53716" data-name="Grupo 53716">
                            <g id="Grupo_53715" data-name="Grupo 53715">
                              <g id="Grupo_53714" data-name="Grupo 53714">
                                <g id="Grupo_53713" data-name="Grupo 53713">
                                  <g id="Grupo_53712" data-name="Grupo 53712">
                                    <g id="Grupo_53711" data-name="Grupo 53711">
                                      <g id="Grupo_53710" data-name="Grupo 53710">
                                        <g id="Grupo_53709" data-name="Grupo 53709">
                                          <g id="Grupo_53708" data-name="Grupo 53708">
                                            <g id="Grupo_53707" data-name="Grupo 53707">
                                              <g id="Grupo_53706" data-name="Grupo 53706">
                                                <g id="Grupo_53705" data-name="Grupo 53705">
                                                  <g id="Grupo_53704" data-name="Grupo 53704">
                                                    <g id="Grupo_53703" data-name="Grupo 53703">
                                                      <g id="Grupo_53702" data-name="Grupo 53702">
                                                        <g id="Grupo_53701" data-name="Grupo 53701">
                                                          <path id="Trazado_100710" data-name="Trazado 100710" d="M5887.574,6095.56c-.364.372-2.483-1.335-5.56-1.417-3.07-.129-5.372,1.426-5.694,1.03-.159-.176.221-.855,1.223-1.559a7.705,7.705,0,0,1,4.572-1.3,7.429,7.429,0,0,1,4.412,1.606C5887.452,6094.694,5887.753,6095.394,5887.574,6095.56Z" transform="translate(-5876.284 -6092.313)" fill="#344154"/>
                                                        </g>
                                                      </g>
                                                    </g>
                                                  </g>
                                                </g>
                                              </g>
                                            </g>
                                          </g>
                                        </g>
                                      </g>
                                    </g>
                                  </g>
                                </g>
                              </g>
                            </g>
                          </g>
                        </g>
                        <g id="Grupo_53733" data-name="Grupo 53733" transform="translate(6.225 7.181)">
                          <g id="Grupo_53732" data-name="Grupo 53732">
                            <g id="Grupo_53731" data-name="Grupo 53731">
                              <g id="Grupo_53730" data-name="Grupo 53730">
                                <g id="Grupo_53729" data-name="Grupo 53729">
                                  <g id="Grupo_53728" data-name="Grupo 53728">
                                    <g id="Grupo_53727" data-name="Grupo 53727">
                                      <g id="Grupo_53726" data-name="Grupo 53726">
                                        <g id="Grupo_53725" data-name="Grupo 53725">
                                          <g id="Grupo_53724" data-name="Grupo 53724">
                                            <g id="Grupo_53723" data-name="Grupo 53723">
                                              <g id="Grupo_53722" data-name="Grupo 53722">
                                                <g id="Grupo_53721" data-name="Grupo 53721">
                                                  <g id="Grupo_53720" data-name="Grupo 53720">
                                                    <g id="Grupo_53719" data-name="Grupo 53719">
                                                      <g id="Grupo_53718" data-name="Grupo 53718">
                                                        <path id="Trazado_100711" data-name="Trazado 100711" d="M5887.545,6101.994a2.489,2.489,0,0,1-2.576,2.329,2.381,2.381,0,0,1-2.395-2.425,2.49,2.49,0,0,1,2.574-2.331A2.382,2.382,0,0,1,5887.545,6101.994Z" transform="translate(-5882.573 -6099.566)" fill="#344154"/>
                                                      </g>
                                                    </g>
                                                  </g>
                                                </g>
                                              </g>
                                            </g>
                                          </g>
                                        </g>
                                      </g>
                                    </g>
                                  </g>
                                </g>
                              </g>
                            </g>
                          </g>
                        </g>
                        <g id="Grupo_53749" data-name="Grupo 53749" transform="translate(18.993 1.021)">
                          <g id="Grupo_53748" data-name="Grupo 53748">
                            <g id="Grupo_53747" data-name="Grupo 53747">
                              <g id="Grupo_53746" data-name="Grupo 53746">
                                <g id="Grupo_53745" data-name="Grupo 53745">
                                  <g id="Grupo_53744" data-name="Grupo 53744">
                                    <g id="Grupo_53743" data-name="Grupo 53743">
                                      <g id="Grupo_53742" data-name="Grupo 53742">
                                        <g id="Grupo_53741" data-name="Grupo 53741">
                                          <g id="Grupo_53740" data-name="Grupo 53740">
                                            <g id="Grupo_53739" data-name="Grupo 53739">
                                              <g id="Grupo_53738" data-name="Grupo 53738">
                                                <g id="Grupo_53737" data-name="Grupo 53737">
                                                  <g id="Grupo_53736" data-name="Grupo 53736">
                                                    <g id="Grupo_53735" data-name="Grupo 53735">
                                                      <g id="Grupo_53734" data-name="Grupo 53734">
                                                        <path id="Trazado_100712" data-name="Trazado 100712" d="M5895.469,6116.963c0-.162,1.776-.337,4.646-.493.727-.022,1.418-.115,1.576-.6a3.679,3.679,0,0,0-.325-2.172q-.825-2.691-1.731-5.645c-2.39-8.033-4.064-14.616-3.739-14.709s2.525,6.342,4.914,14.374q.859,2.969,1.64,5.671a4.19,4.19,0,0,1,.167,2.857,1.813,1.813,0,0,1-1.262.967,4.9,4.9,0,0,1-1.237.081C5897.244,6117.24,5895.468,6117.124,5895.469,6116.963Z" transform="translate(-5895.469 -6093.344)" fill="#344154"/>
                                                      </g>
                                                    </g>
                                                  </g>
                                                </g>
                                              </g>
                                            </g>
                                          </g>
                                        </g>
                                      </g>
                                    </g>
                                  </g>
                                </g>
                              </g>
                            </g>
                          </g>
                        </g>
                      </g>
                    </g>
                  </g>
                  <g id="Grupo_53767" data-name="Grupo 53767">
                    <g id="Grupo_53766" data-name="Grupo 53766">
                      <g id="Grupo_53765" data-name="Grupo 53765">
                        <g id="Grupo_53764" data-name="Grupo 53764">
                          <g id="Grupo_53763" data-name="Grupo 53763">
                            <g id="Grupo_53762" data-name="Grupo 53762">
                              <g id="Grupo_53761" data-name="Grupo 53761">
                                <g id="Grupo_53760" data-name="Grupo 53760">
                                  <g id="Grupo_53759" data-name="Grupo 53759">
                                    <g id="Grupo_53758" data-name="Grupo 53758">
                                      <g id="Grupo_53757" data-name="Grupo 53757">
                                        <g id="Grupo_53756" data-name="Grupo 53756">
                                          <g id="Grupo_53755" data-name="Grupo 53755">
                                            <g id="Grupo_53754" data-name="Grupo 53754">
                                              <g id="Grupo_53753" data-name="Grupo 53753">
                                                <path id="Trazado_100713" data-name="Trazado 100713" d="M5886.25,6083.891c-.3.682-2.758.168-5.707.319-2.951.089-5.372.8-5.713.146-.15-.314.308-.942,1.309-1.55a9.322,9.322,0,0,1,4.317-1.215,9.218,9.218,0,0,1,4.384.86C5885.881,6082.976,5886.381,6083.566,5886.25,6083.891Z" transform="translate(-5874.803 -6081.583)" fill="#344154"/>
                                              </g>
                                            </g>
                                          </g>
                                        </g>
                                      </g>
                                    </g>
                                  </g>
                                </g>
                              </g>
                            </g>
                          </g>
                        </g>
                      </g>
                    </g>
                  </g>
                  <g id="Grupo_53782" data-name="Grupo 53782" transform="translate(29.373 5.62)">
                    <g id="Grupo_53781" data-name="Grupo 53781">
                      <g id="Grupo_53780" data-name="Grupo 53780">
                        <g id="Grupo_53779" data-name="Grupo 53779">
                          <g id="Grupo_53778" data-name="Grupo 53778">
                            <g id="Grupo_53777" data-name="Grupo 53777">
                              <g id="Grupo_53776" data-name="Grupo 53776">
                                <g id="Grupo_53775" data-name="Grupo 53775">
                                  <g id="Grupo_53774" data-name="Grupo 53774">
                                    <g id="Grupo_53773" data-name="Grupo 53773">
                                      <g id="Grupo_53772" data-name="Grupo 53772">
                                        <g id="Grupo_53771" data-name="Grupo 53771">
                                          <g id="Grupo_53770" data-name="Grupo 53770">
                                            <g id="Grupo_53769" data-name="Grupo 53769">
                                              <g id="Grupo_53768" data-name="Grupo 53768">
                                                <path id="Trazado_100714" data-name="Trazado 100714" d="M5915.754,6089.646c-.323.555-2.723-.062-5.63-.151-2.909-.143-5.322.283-5.629-.3-.135-.277.344-.776,1.358-1.218a10.158,10.158,0,0,1,4.3-.71,10.493,10.493,0,0,1,4.277,1.053C5915.432,6088.843,5915.9,6089.379,5915.754,6089.646Z" transform="translate(-5904.473 -6087.259)" fill="#344154"/>
                                              </g>
                                            </g>
                                          </g>
                                        </g>
                                      </g>
                                    </g>
                                  </g>
                                </g>
                              </g>
                            </g>
                          </g>
                        </g>
                      </g>
                    </g>
                  </g>
                </g>
              </g>
              <g id="Grupo_53797" data-name="Grupo 53797" transform="translate(0 47.871)">
                <g id="Grupo_53796" data-name="Grupo 53796">
                  <g id="Grupo_53795" data-name="Grupo 53795">
                    <g id="Grupo_53794" data-name="Grupo 53794">
                      <g id="Grupo_53793" data-name="Grupo 53793">
                        <g id="Grupo_53792" data-name="Grupo 53792">
                          <g id="Grupo_53791" data-name="Grupo 53791">
                            <g id="Grupo_53790" data-name="Grupo 53790">
                              <g id="Grupo_53789" data-name="Grupo 53789">
                                <g id="Grupo_53788" data-name="Grupo 53788">
                                  <g id="Grupo_53787" data-name="Grupo 53787">
                                    <g id="Grupo_53786" data-name="Grupo 53786">
                                      <g id="Grupo_53785" data-name="Grupo 53785">
                                        <path id="Trazado_100715" data-name="Trazado 100715" d="M5855.625,6102.838c-.3-.159-12.35-4.655-12.866,7.934s12.229,10.511,12.267,10.15S5855.625,6102.838,5855.625,6102.838Z" transform="translate(-5842.743 -6101.93)" fill="#ffbf9d"/>
                                      </g>
                                    </g>
                                  </g>
                                </g>
                              </g>
                            </g>
                          </g>
                        </g>
                      </g>
                    </g>
                  </g>
                </g>
              </g>
              <g id="Grupo_53811" data-name="Grupo 53811" transform="translate(3.197 51.878)">
                <g id="Grupo_53810" data-name="Grupo 53810">
                  <g id="Grupo_53809" data-name="Grupo 53809">
                    <g id="Grupo_53808" data-name="Grupo 53808">
                      <g id="Grupo_53807" data-name="Grupo 53807">
                        <g id="Grupo_53806" data-name="Grupo 53806">
                          <g id="Grupo_53805" data-name="Grupo 53805">
                            <g id="Grupo_53804" data-name="Grupo 53804">
                              <g id="Grupo_53803" data-name="Grupo 53803">
                                <g id="Grupo_53802" data-name="Grupo 53802">
                                  <g id="Grupo_53801" data-name="Grupo 53801">
                                    <g id="Grupo_53800" data-name="Grupo 53800">
                                      <g id="Grupo_53799" data-name="Grupo 53799">
                                        <g id="Grupo_53798" data-name="Grupo 53798">
                                          <path id="Trazado_100716" data-name="Trazado 100716" d="M5851.407,6116.036c-.054-.042-.226.145-.6.3a2.193,2.193,0,0,1-1.642-.033c-1.31-.543-2.343-2.7-2.312-4.972a7.263,7.263,0,0,1,.743-3.115,2.535,2.535,0,0,1,1.72-1.615,1.116,1.116,0,0,1,1.269.653c.155.359.064.607.13.631.035.033.279-.2.2-.725a1.4,1.4,0,0,0-.463-.809,1.662,1.662,0,0,0-1.2-.37,3.082,3.082,0,0,0-2.371,1.858,7.448,7.448,0,0,0-.9,3.478c-.023,2.541,1.178,4.967,2.977,5.568a2.35,2.35,0,0,0,2.019-.25C5851.372,6116.339,5851.45,6116.06,5851.407,6116.036Z" transform="translate(-5845.973 -6105.977)" fill="#ff9a6c"/>
                                        </g>
                                      </g>
                                    </g>
                                  </g>
                                </g>
                              </g>
                            </g>
                          </g>
                        </g>
                      </g>
                    </g>
                  </g>
                </g>
              </g>
              <g id="Grupo_53812" data-name="Grupo 53812" transform="translate(42.566 63.6)">
                <path id="Trazado_100717" data-name="Trazado 100717" d="M5892.4,6125.923c.138-.318-2.329-1.057-4.063-3.37a14.1,14.1,0,0,1-1.743-3.288c-.367-.914-.645-1.488-.781-1.445s-.1.659.1,1.654a9.294,9.294,0,0,0,1.621,3.682,7.524,7.524,0,0,0,3.215,2.462C5891.718,6126.007,5892.368,6126.031,5892.4,6125.923Z" transform="translate(-5885.739 -6117.817)" fill="#344154"/>
              </g>
              <g id="Grupo_53821" data-name="Grupo 53821" transform="translate(61.242 39.509)">
                <g id="Grupo_53820" data-name="Grupo 53820">
                  <g id="Grupo_53819" data-name="Grupo 53819">
                    <g id="Grupo_53818" data-name="Grupo 53818">
                      <g id="Grupo_53817" data-name="Grupo 53817">
                        <g id="Grupo_53816" data-name="Grupo 53816">
                          <g id="Grupo_53815" data-name="Grupo 53815">
                            <g id="Grupo_53814" data-name="Grupo 53814">
                              <g id="Grupo_53813" data-name="Grupo 53813">
                                <path id="Trazado_100718" data-name="Trazado 100718" d="M5915.893,6096.73c-.365.372-2.483-1.335-5.56-1.417-3.071-.129-5.372,1.425-5.694,1.03-.16-.176.221-.855,1.223-1.559a7.7,7.7,0,0,1,4.572-1.3,7.428,7.428,0,0,1,4.413,1.605C5915.77,6095.864,5916.072,6096.564,5915.893,6096.73Z" transform="translate(-5904.604 -6093.483)" fill="#344154"/>
                              </g>
                            </g>
                          </g>
                        </g>
                      </g>
                    </g>
                  </g>
                </g>
              </g>
              <g id="Grupo_53829" data-name="Grupo 53829" transform="translate(67.055 46.425)">
                <g id="Grupo_53828" data-name="Grupo 53828">
                  <g id="Grupo_53827" data-name="Grupo 53827">
                    <g id="Grupo_53826" data-name="Grupo 53826">
                      <g id="Grupo_53825" data-name="Grupo 53825">
                        <g id="Grupo_53824" data-name="Grupo 53824">
                          <g id="Grupo_53823" data-name="Grupo 53823">
                            <g id="Grupo_53822" data-name="Grupo 53822">
                              <path id="Trazado_100719" data-name="Trazado 100719" d="M5915.447,6102.9a2.489,2.489,0,0,1-2.576,2.33,2.379,2.379,0,0,1-2.394-2.424,2.489,2.489,0,0,1,2.574-2.331A2.381,2.381,0,0,1,5915.447,6102.9Z" transform="translate(-5910.476 -6100.469)" fill="#344154"/>
                            </g>
                          </g>
                        </g>
                      </g>
                    </g>
                  </g>
                </g>
              </g>
            </g>
            <g id="Grupo_53831" data-name="Grupo 53831" transform="translate(1.025)">
              <path id="Trazado_100720" data-name="Trazado 100720" d="M5931.435,6063.163a9.932,9.932,0,0,0-12.389-3.92,13.6,13.6,0,0,0-23.42-11.74,5.554,5.554,0,0,0-2.708-3.726,10.968,10.968,0,0,0-4.52-1.347,21.609,21.609,0,0,0-19.742,8.608,23.525,23.525,0,0,0-19.934,7.274c-5.914,6.549-7.029,21.732-.551,34.847l1.524,8.223c2.032-.006,3.89.14,5.143,1.265,1.7,1.53,2.462,4.409,5.289,3.316,1.44-.557,2.752-3.575,3.234-5.041a71.633,71.633,0,0,0,3.1-30.324,23.027,23.027,0,0,1,7.11-5.13l-.217.195c5.129-1.782,10.933-3.534,15.8-1.126,3.776,1.868,5.995,5.786,8.817,8.912a28.826,28.826,0,0,0,20.541,9.487c.271,5.168-.163,12.474.108,17.642l4.347-8.279,0,.042c.356-.606.651-1.217.936-1.83l.1-.186v-.023l0-.006c.795-.646,1.4-1.829,2.742-3.368a10.845,10.845,0,0,0,1.781-11.1A9.934,9.934,0,0,0,5931.435,6063.163Z" transform="translate(-5843.779 -6042.305)" fill="#344154"/>
              <path id="Trazado_100721" data-name="Trazado 100721" d="M5926.335,6087.86l-.017-.015h0Z" transform="translate(-5844.604 -6042.761)" fill="#344154"/>
            </g>
            <g id="Grupo_53832" data-name="Grupo 53832" transform="translate(59.673 21.047)">
              <path id="Trazado_100722" data-name="Trazado 100722" d="M5924.5,6063.565c.013,0,.044.089.092.271a3.721,3.721,0,0,1,.116.814,5.473,5.473,0,0,1-.733,2.95,5.637,5.637,0,0,1-1.407,1.628,5.036,5.036,0,0,1-2.294.979,5.683,5.683,0,0,1-5.249-1.976l.313-.269a3.47,3.47,0,0,1,.886,2.468,4.551,4.551,0,0,1-1.407,3.172,5.136,5.136,0,0,1-2.977,1.267,8,8,0,0,1-5.176-1.423,16.905,16.905,0,0,1-2.766-2.351,7.037,7.037,0,0,1-.881-.994,9.545,9.545,0,0,1,.994.877,19.549,19.549,0,0,0,2.812,2.219,7.82,7.82,0,0,0,4.977,1.29,4.788,4.788,0,0,0,2.738-1.182,4.18,4.18,0,0,0,1.27-2.884,3.068,3.068,0,0,0-.771-2.177l.312-.268a5.343,5.343,0,0,0,4.87,1.87,4.93,4.93,0,0,0,3.521-2.386,5.574,5.574,0,0,0,.819-2.81C5924.568,6063.953,5924.465,6063.573,5924.5,6063.565Z" transform="translate(-5903.019 -6063.565)" fill="#5e6178"/>
            </g>
            <g id="Grupo_53833" data-name="Grupo 53833" transform="translate(53.139 7.248)">
              <path id="Trazado_100723" data-name="Trazado 100723" d="M5908.685,6049.629c.007-.012.1.03.27.121a5.518,5.518,0,0,1,.7.473,6.129,6.129,0,0,1,1.9,2.466,4.827,4.827,0,0,1-.433,4.535,3.716,3.716,0,0,1-2.293,1.574,3.775,3.775,0,0,1-2.934-.568,3.258,3.258,0,0,1-.7-.695l.36-.2a3.525,3.525,0,0,1-.094,2.83,3.872,3.872,0,0,1-1.832,1.876,5.1,5.1,0,0,1-4.289-.009,6.825,6.825,0,0,1-2.311-1.742,3.32,3.32,0,0,1-.613-.857c.027-.02.252.277.727.75a7.293,7.293,0,0,0,2.31,1.587,4.859,4.859,0,0,0,4.008-.066,3.51,3.51,0,0,0,1.632-1.706,3.133,3.133,0,0,0,.079-2.5l-.666-1.544,1.026,1.341a2.893,2.893,0,0,0,.6.6,3.394,3.394,0,0,0,2.606.507,3.349,3.349,0,0,0,2.063-1.394,4.564,4.564,0,0,0,.473-4.209,6.368,6.368,0,0,0-1.729-2.448C5909.016,6049.866,5908.664,6049.662,5908.685,6049.629Z" transform="translate(-5896.419 -6049.627)" fill="#5e6178"/>
            </g>
          </g>
          <g id="Grupo_53879" data-name="Grupo 53879" transform="translate(0 97.104)">
            <g id="Grupo_53849" data-name="Grupo 53849" transform="translate(187.966)">
              <g id="Grupo_53835" data-name="Grupo 53835" transform="translate(1.708)">
                <path id="Trazado_100724" data-name="Trazado 100724" d="M6016.411,6142.321l-29.047,22.18a3.762,3.762,0,0,0-.557,5.457h0a3.762,3.762,0,0,0,5.148.5l28.807-22.386,3.9-7.686Z" transform="translate(-5985.886 -6140.39)" fill="#d9a171"/>
                <path id="Trazado_100725" data-name="Trazado 100725" d="M6021.235,6141.272l2.06,2.4-2.226,4.415a1.767,1.767,0,0,1-1.937-2.009,1.556,1.556,0,0,1-1.758-2.017s-1.511-.134-.658-1.729Z" transform="translate(-5986.191 -6140.399)" fill="#fff" opacity="0.5"/>
                <path id="Trazado_100726" data-name="Trazado 100726" d="M5987.379,6164.731l4.767,5.824,1.6-1.244-4.572-5.951Z" transform="translate(-5985.901 -6140.62)" fill="#344154"/>
              </g>
              <g id="Grupo_53836" data-name="Grupo 53836" transform="translate(0 3.758)">
                <path id="Trazado_100727" data-name="Trazado 100727" d="M5985.2,6220.144l-1.044-.188,21.4-37.407-3.382-10.784s-3.921-15.359-.653-19.28c0,0,7.147-8.413,9.466-8.3s4.174.58,4.637,2.318c0,0,3.942-.463,4.985.812a20.053,20.053,0,0,1,1.855,2.783s4.29-.349,5.449,3.362c0,0,4.058,2.087,4.406,5.1s-.812,17.042-2.087,20.637-6.029,11.129-7.42,22.26-6.294,18.355-10.654,34.621l-11.838,4.682Z" transform="translate(-5984.161 -6144.186)" fill="#ffbf9d"/>
              </g>
              <g id="Grupo_53838" data-name="Grupo 53838" transform="translate(27.196 5.83)">
                <g id="Grupo_53837" data-name="Grupo 53837">
                  <path id="Trazado_100728" data-name="Trazado 100728" d="M6015.7,6146.29a12.681,12.681,0,0,0-4.021,6.4,7.256,7.256,0,0,1,4.021-6.4Z" transform="translate(-6011.63 -6146.28)" fill="#ff9a6c"/>
                </g>
              </g>
              <g id="Grupo_53840" data-name="Grupo 53840" transform="translate(33.985 9.653)">
                <g id="Grupo_53839" data-name="Grupo 53839">
                  <path id="Trazado_100729" data-name="Trazado 100729" d="M6022.581,6150.154a12.415,12.415,0,0,0-4.054,5.765,6.726,6.726,0,0,1,4.054-5.765Z" transform="translate(-6018.489 -6150.141)" fill="#ff9a6c"/>
                </g>
              </g>
              <g id="Grupo_53842" data-name="Grupo 53842" transform="translate(39.918 12.907)">
                <g id="Grupo_53841" data-name="Grupo 53841">
                  <path id="Trazado_100730" data-name="Trazado 100730" d="M6028.092,6153.437c.091.112-.975,1.044-1.952,2.458s-1.5,2.726-1.635,2.68a7.555,7.555,0,0,1,3.587-5.138Z" transform="translate(-6024.481 -6153.428)" fill="#ff9a6c"/>
                </g>
              </g>
              <g id="Grupo_53844" data-name="Grupo 53844" transform="translate(18.752 13.248)">
                <g id="Grupo_53843" data-name="Grupo 53843">
                  <path id="Trazado_100731" data-name="Trazado 100731" d="M6007.784,6154.671a5.133,5.133,0,0,0-4.675.318c-.042-.042.114-.3.5-.591a3.51,3.51,0,0,1,3.594-.243C6007.63,6154.387,6007.821,6154.624,6007.784,6154.671Z" transform="translate(-6003.102 -6153.772)" fill="#ff9a6c"/>
                </g>
              </g>
              <g id="Grupo_53846" data-name="Grupo 53846" transform="translate(27.694 16.131)">
                <g id="Grupo_53845" data-name="Grupo 53845">
                  <path id="Trazado_100732" data-name="Trazado 100732" d="M6016.407,6160.036a6.221,6.221,0,0,0-4.273-3.258c0-.058.33-.135.869-.066a4.267,4.267,0,0,1,3.239,2.469C6016.45,6159.683,6016.464,6160.022,6016.407,6160.036Z" transform="translate(-6012.134 -6156.685)" fill="#ff9a6c"/>
                </g>
              </g>
              <g id="Grupo_53848" data-name="Grupo 53848" transform="translate(34.847 19.288)">
                <g id="Grupo_53847" data-name="Grupo 53847">
                  <path id="Trazado_100733" data-name="Trazado 100733" d="M6024.953,6161.877a6.961,6.961,0,0,0-5.593-1.514c-.021-.055.283-.25.847-.384a4.776,4.776,0,0,1,4.208,1.14C6024.835,6161.52,6025,6161.841,6024.953,6161.877Z" transform="translate(-6019.359 -6159.873)" fill="#ff9a6c"/>
                </g>
              </g>
            </g>
            <g id="Grupo_53873" data-name="Grupo 53873" transform="translate(0 9.101)">
              <g id="Grupo_53850" data-name="Grupo 53850" transform="translate(0 52.994)">
                <path id="Trazado_100734" data-name="Trazado 100734" d="M5806.8,6203.112s-13.114,74.49-12.482,81.455,4.122,18.046,12.034,19.945a34.812,34.812,0,0,0,15.193,0l-9.5-91.493Z" transform="translate(-5794.295 -6203.112)" fill="#d9a171"/>
              </g>
              <g id="Grupo_53851" data-name="Grupo 53851" transform="translate(12.338)">
                <path id="Trazado_100735" data-name="Trazado 100735" d="M5845.325,6164.154s-15.7,11.157-19.166,14.439c-14.51,13.724-17.548,19.34-19.236,23.983S5817,6315.067,5817,6315.067l2.383,18.843h0l110.167.284h0v-96.271L5913,6170.172l-10.184-2.9-2.057-8.076s-12.654-9.344-33.525-9.613c-6.421-.083-15.5,2.44-20.577,6.376h0Z" transform="translate(-5806.758 -6149.583)" fill="#d9a171"/>
              </g>
              <g id="Grupo_53852" data-name="Grupo 53852" transform="translate(97.151 20.529)">
                <path id="Trazado_100736" data-name="Trazado 100736" d="M5901.531,6170.659s11.322-.51,12.321-.279c3.49.806,13.073,9.59,23.988,20.416,10.413,10.328,30.9,31.816,30.9,31.816s3.682-3.719,7.881,1.244l16.175-23.527s24.277,2.982,28.094,21.306c0,0-7.441,14.207-13.535,24.364,0,0-22.563,37.442-40.385,30.661-16.279-6.192-36.69-22.754-39.564-26.292l-23.967-17.1s-16.415-31.3-9.162-46.955Z" transform="translate(-5892.428 -6170.319)" fill="#d9a171"/>
              </g>
              <g id="Grupo_53854" data-name="Grupo 53854" transform="translate(50.905 12.493)">
                <g id="Grupo_53853" data-name="Grupo 53853">
                  <path id="Trazado_100737" data-name="Trazado 100737" d="M5903.2,6167.4a2.866,2.866,0,0,1-.582-.119l-1.635-.431c-1.421-.361-3.486-.857-6.064-1.344a168.767,168.767,0,0,0-20.332-2.507,139.044,139.044,0,0,0-20.479.06c-2.611.225-4.71.551-6.152.813l-1.657.328a2.683,2.683,0,0,1-.587.082,2.877,2.877,0,0,1,.563-.177l1.643-.417a53.758,53.758,0,0,1,6.156-.968,125.647,125.647,0,0,1,20.542-.2,149.733,149.733,0,0,1,20.369,2.655c2.577.53,4.637,1.079,6.047,1.5l1.614.52A2.76,2.76,0,0,1,5903.2,6167.4Z" transform="translate(-5845.715 -6162.202)" fill="#344154"/>
                </g>
              </g>
              <g id="Grupo_53856" data-name="Grupo 53856" transform="translate(64.279 3.783)">
                <g id="Grupo_53855" data-name="Grupo 53855">
                  <path id="Trazado_100738" data-name="Trazado 100738" d="M5860.426,6161.708a36.346,36.346,0,1,1-.336-4.185A18.313,18.313,0,0,1,5860.426,6161.708Z" transform="translate(-5859.224 -6153.404)" fill="#344154"/>
                </g>
              </g>
              <g id="Grupo_53858" data-name="Grupo 53858" transform="translate(68.587 3.396)">
                <g id="Grupo_53857" data-name="Grupo 53857">
                  <path id="Trazado_100739" data-name="Trazado 100739" d="M5864.583,6161.351a13.145,13.145,0,0,1-.578-8.337c.144.021-.073,1.889.094,4.182C5864.25,6159.49,5864.722,6161.311,5864.583,6161.351Z" transform="translate(-5863.575 -6153.014)" fill="#344154"/>
                </g>
              </g>
              <g id="Grupo_53860" data-name="Grupo 53860" transform="translate(51.269 12.806)" opacity="0.3">
                <g id="Grupo_53859" data-name="Grupo 53859">
                  <path id="Trazado_100740" data-name="Trazado 100740" d="M5846.082,6164.19c17.241,3.051,34.717.028,52.962,2.187-17.617-3.646-35.964-5.375-52.962-2.187" transform="translate(-5846.082 -6162.518)" fill="#d9a171"/>
                </g>
              </g>
              <g id="Grupo_53862" data-name="Grupo 53862" transform="translate(12.914 81.489)" opacity="0.3">
                <g id="Grupo_53861" data-name="Grupo 53861">
                  <path id="Trazado_100741" data-name="Trazado 100741" d="M5815.439,6304.94c-9.7-22.712-8.55-48.384-7.235-73.045Z" transform="translate(-5807.34 -6231.895)" fill="#d9a171"/>
                </g>
              </g>
              <g id="Grupo_53864" data-name="Grupo 53864" transform="translate(12.499 69.234)">
                <g id="Grupo_53863" data-name="Grupo 53863">
                  <path id="Trazado_100742" data-name="Trazado 100742" d="M5806.926,6219.516a1.242,1.242,0,0,1,.052.287c.026.216.06.495.1.844.082.776.2,1.865.345,3.251.283,2.858.687,6.937,1.184,11.963.985,10.1,2.332,24.063,3.936,39.467s3.215,29.34,4.5,39.409c.633,5.035,1.177,9.105,1.56,11.918.183,1.381.325,2.466.428,3.24.041.35.073.628.1.845a1.227,1.227,0,0,1,.017.29,1.319,1.319,0,0,1-.066-.283l-.146-.837c-.124-.77-.3-1.852-.519-3.227-.439-2.8-1.037-6.87-1.713-11.9-1.373-10.061-3.033-23.991-4.642-39.4s-2.9-29.373-3.794-39.484c-.433-5.033-.784-9.117-1.031-11.979-.108-1.39-.193-2.48-.253-3.259-.021-.352-.04-.632-.053-.85A1.293,1.293,0,0,1,5806.926,6219.516Z" transform="translate(-5806.92 -6219.516)" fill="#344154"/>
                </g>
              </g>
              <g id="Grupo_53866" data-name="Grupo 53866" transform="translate(17.988 56.836)">
                <g id="Grupo_53865" data-name="Grupo 53865">
                  <path id="Trazado_100743" data-name="Trazado 100743" d="M5881.567,6207.2a3.9,3.9,0,0,1-.71.038l-2.034.013c-1.766-.006-4.322.019-7.478.094-6.312.142-15.028.6-24.592,1.737s-18.15,2.739-24.318,4.083c-3.085.669-5.575,1.243-7.29,1.666l-1.981.463a.356.356,0,1,1-.024-.095l1.958-.552c1.7-.478,4.183-1.1,7.263-1.817a230.2,230.2,0,0,1,48.979-5.828c3.161-.03,5.719,0,7.485.061l2.034.078A3.849,3.849,0,0,1,5881.567,6207.2Z" transform="translate(-5812.465 -6206.993)" fill="#344154"/>
                </g>
              </g>
              <g id="Grupo_53868" data-name="Grupo 53868" transform="translate(44.749 35.107)">
                <g id="Grupo_53867" data-name="Grupo 53867">
                  <path id="Trazado_100744" data-name="Trazado 100744" d="M5839.533,6231.1c-.135,0,.119-10.32.565-23.037s.917-23.027,1.051-23.022-.119,10.318-.565,23.04S5839.667,6231.109,5839.533,6231.1Z" transform="translate(-5839.497 -6185.045)" fill="#344154"/>
                </g>
              </g>
              <g id="Grupo_53870" data-name="Grupo 53870" transform="translate(88.701 19.171)">
                <g id="Grupo_53869" data-name="Grupo 53869">
                  <path id="Trazado_100745" data-name="Trazado 100745" d="M5896.279,6229.667a4.6,4.6,0,0,1-.414-.646q-.411-.71-1.1-1.9l-4.065-6.982a60.5,60.5,0,0,1-5.1-10.864,35.574,35.574,0,0,1-1.521-6.946,41.814,41.814,0,0,1-.021-7.632,40.522,40.522,0,0,1,3.637-14.22,23.441,23.441,0,0,1,3.586-5.351,20.343,20.343,0,0,1,4.308-3.6,16.406,16.406,0,0,1,7.643-2.56,10.771,10.771,0,0,1,2.962.164,27.454,27.454,0,0,0-2.947.025,16.667,16.667,0,0,0-7.475,2.662,20.273,20.273,0,0,0-4.191,3.575,23.314,23.314,0,0,0-3.483,5.278,40.669,40.669,0,0,0-3.555,14.068,41.973,41.973,0,0,0,.012,7.537,35.647,35.647,0,0,0,1.473,6.857,62.415,62.415,0,0,0,4.972,10.834l3.931,7.058,1.025,1.944A4.494,4.494,0,0,1,5896.279,6229.667Z" transform="translate(-5883.892 -6168.947)" fill="#344154"/>
                </g>
              </g>
              <g id="Grupo_53872" data-name="Grupo 53872" transform="translate(19.358 57.264)" opacity="0.3">
                <g id="Grupo_53871" data-name="Grupo 53871">
                  <path id="Trazado_100746" data-name="Trazado 100746" d="M5814.262,6215.375a131.269,131.269,0,0,0,20.7-2.731,31.575,31.575,0,0,0-1.159,9.261,21.239,21.239,0,0,0,4.6-8.47,12.823,12.823,0,0,0,5.223,8.57,27.994,27.994,0,0,0,.465-9.437q15.452-1.861,30.7-5.08a208.129,208.129,0,0,0-60.944,7.586" transform="translate(-5813.849 -6207.425)" fill="#d9a171"/>
                </g>
              </g>
            </g>
            <g id="Grupo_53874" data-name="Grupo 53874" transform="translate(108.695 93.209)">
              <path id="Trazado_100747" data-name="Trazado 100747" d="M5947.6,6266.994a2.745,2.745,0,0,1-.474-.283l-1.317-.878c-1.138-.769-2.773-1.9-4.785-3.312-4.021-2.823-9.534-6.785-15.543-11.266s-11.381-8.636-15.233-11.687c-1.926-1.524-3.477-2.77-4.538-3.641l-1.218-1.011a.278.278,0,1,1,.053-.066l1.265.95,4.619,3.535c3.9,2.99,9.293,7.1,15.3,11.586s11.489,8.477,15.466,11.359c1.958,1.421,3.556,2.583,4.706,3.419l1.271.941A2.736,2.736,0,0,1,5947.6,6266.994Z" transform="translate(-5904.088 -6234.541)" fill="#344154"/>
            </g>
            <g id="Grupo_53875" data-name="Grupo 53875" transform="translate(172.831 80.943)">
              <path id="Trazado_100748" data-name="Trazado 100748" d="M5975.142,6242.313c-.073,0-.026-1.21-.167-3.146a32.977,32.977,0,0,0-4.454-14.331c-.981-1.674-1.7-2.641-1.645-2.685a3.316,3.316,0,0,1,.563.637,20.943,20.943,0,0,1,1.333,1.9,29.329,29.329,0,0,1,4.5,14.468,20.9,20.9,0,0,1-.023,2.316A3.358,3.358,0,0,1,5975.142,6242.313Z" transform="translate(-5968.873 -6222.151)" fill="#344154"/>
            </g>
            <g id="Grupo_53876" data-name="Grupo 53876" transform="translate(182.146 82.753)">
              <path id="Trazado_100749" data-name="Trazado 100749" d="M5980.192,6240.521c-.066-.012.086-.947.2-2.464a30.8,30.8,0,0,0-1.349-11.723c-.458-1.451-.819-2.328-.756-2.354a2.047,2.047,0,0,1,.333.581,17.253,17.253,0,0,1,.7,1.678,25.765,25.765,0,0,1,1.363,11.846,17.207,17.207,0,0,1-.3,1.794A2.042,2.042,0,0,1,5980.192,6240.521Z" transform="translate(-5978.282 -6223.979)" fill="#344154"/>
            </g>
            <g id="Grupo_53877" data-name="Grupo 53877" transform="translate(193.951 65.76)">
              <path id="Trazado_100750" data-name="Trazado 100750" d="M6017.9,6230.046c-.024.006.011-.154-.186-.3a.973.973,0,0,1-.325-.353c-.094-.166-.154-.373-.269-.566-.214-.4-.746-.711-1.132-1.3a8.5,8.5,0,0,1-.965-2.112,14.078,14.078,0,0,0-2.746-5.182,22.8,22.8,0,0,0-2.475-2.466,26.122,26.122,0,0,0-2.985-2.28,24.533,24.533,0,0,0-3.194-1.981l-3.167-1.551c-1.013-.477-1.952-.972-2.873-1.367l-2.563-1.092a11.643,11.643,0,0,1-1.115-.508c-.339-.2-.623-.424-.91-.583l-.831-.441c-.261-.139-.472-.319-.664-.44-.394-.246-.743-.381-.963-.5a1.1,1.1,0,0,1-.328-.2,1.643,1.643,0,0,1,.361.125,7.668,7.668,0,0,1,1.014.439,10.948,10.948,0,0,0,1.521.815c.309.16.606.375.93.556s.718.3,1.1.471l2.575,1.041c.924.379,1.885.87,2.91,1.341l3.18,1.53a24.041,24.041,0,0,1,3.242,2,25.711,25.711,0,0,1,3.025,2.32,22.568,22.568,0,0,1,2.5,2.528,14.005,14.005,0,0,1,2.731,5.335,8.611,8.611,0,0,0,.879,2.075c.334.562.852.891,1.079,1.354.117.223.163.431.239.59a.939.939,0,0,0,.271.345C6017.97,6229.877,6017.9,6230.062,6017.9,6230.046Z" transform="translate(-5990.206 -6206.815)" fill="#344154"/>
            </g>
            <g id="Grupo_53878" data-name="Grupo 53878" transform="translate(118.771 101.406)">
              <path id="Trazado_100751" data-name="Trazado 100751" d="M5914.475,6333.261c-.116,0-.209-20.247-.209-45.218s.093-45.223.209-45.223.208,20.243.208,45.223S5914.589,6333.261,5914.475,6333.261Z" transform="translate(-5914.266 -6242.821)" fill="#344154"/>
            </g>
          </g>
        </g>
      </g>
    </g>
  </g>
</svg>
