<svg id="Grupo_56362" data-name="Grupo 56362" xmlns="http://www.w3.org/2000/svg" width="168.613" height="168.613" viewBox="0 0 168.613 168.613">
  <rect id="Rectángulo_5443" data-name="Rectángulo 5443" width="168.613" height="168.613" transform="translate(0 0)" fill="#5e6178" opacity="0"/>
  <g id="surface1" transform="translate(13.403 13.403)">
    <path id="Trazado_102780" data-name="Trazado 102780" d="M947.846,5022.744a70.9,70.9,0,1,1-70.9-70.9A70.9,70.9,0,0,1,947.846,5022.744Z" transform="translate(-806.039 -4951.841)" fill="#aed3f2"/>
    <path id="Trazado_102781" data-name="Trazado 102781" d="M913.9,4980.793l-16.521-15.465a1.167,1.167,0,0,0-1.964.851v4.734H837.307v21.466h58.109v4.733a1.167,1.167,0,0,0,1.964.853L913.9,4982.5A1.166,1.166,0,0,0,913.9,4980.793Z" transform="translate(-810.946 -4953.908)" fill="#d9a171"/>
    <path id="Trazado_102782" data-name="Trazado 102782" d="M933.142,5032l-16.521-15.467a1.167,1.167,0,0,0-1.964.852v4.734h-77.35v21.466h77.35v4.733a1.167,1.167,0,0,0,1.964.852l16.521-15.467A1.166,1.166,0,0,0,933.142,5032Z" transform="translate(-810.946 -4961.943)" fill="#a66d58"/>
    <path id="Trazado_102783" data-name="Trazado 102783" d="M952.383,5083.2l-16.52-15.467a1.168,1.168,0,0,0-1.965.853v4.733H837.307v21.466H933.9v4.732a1.167,1.167,0,0,0,1.964.853l16.522-15.467A1.165,1.165,0,0,0,952.383,5083.2Z" transform="translate(-810.946 -4969.978)" fill="#6595bf"/>
    <path id="Trazado_102784" data-name="Trazado 102784" d="M868.746,5086.543a1.913,1.913,0,0,0,0-2.792l-9.974-9.337H837.307v21.466h21.464Z" transform="translate(-810.946 -4971.077)" fill="#84aacc"/>
    <path id="Trazado_102785" data-name="Trazado 102785" d="M837.307,5095.88h14.709c6.372-6.378,6.346-15.113.005-21.466H837.307Z" transform="translate(-810.946 -4971.077)" fill="#4c708f"/>
    <path id="Trazado_102786" data-name="Trazado 102786" d="M868.746,5035.342a1.913,1.913,0,0,0,0-2.792l-9.974-9.337H837.307v21.466h21.464Z" transform="translate(-810.946 -4963.042)" fill="#b88a79"/>
    <path id="Trazado_102787" data-name="Trazado 102787" d="M837.307,5044.679h14.715c5.564-5.591,6.49-13.329,1.521-19.739a18.554,18.554,0,0,0-1.528-1.728H837.307Z" transform="translate(-810.946 -4963.042)" fill="#53372c"/>
    <path id="Trazado_102788" data-name="Trazado 102788" d="M868.746,4984.14a1.912,1.912,0,0,0,0-2.792l-9.974-9.337H837.307v21.466h21.464Z" transform="translate(-810.946 -4955.006)" fill="#d9a171"/>
    <path id="Trazado_102789" data-name="Trazado 102789" d="M837.307,4993.477h14.714c6.344-6.356,6.363-15.092-.005-21.466H837.307Z" transform="translate(-810.946 -4955.006)" fill="#a37955"/>
    <path id="Trazado_102790" data-name="Trazado 102790" d="M815.5,4992.294a18.008,18.008,0,1,0,23.429-26.2A71.235,71.235,0,0,0,815.5,4992.294Z" transform="translate(-807.523 -4954.078)" fill="#e8c7aa"/>
    <path id="Trazado_102791" data-name="Trazado 102791" d="M845.108,5023.583a18.01,18.01,0,1,0-6.591,24.6A18.009,18.009,0,0,0,845.108,5023.583Z" transform="translate(-806.896 -4961.686)" fill="#a66d58"/>
    <path id="Trazado_102792" data-name="Trazado 102792" d="M822.489,5036.746a18.013,18.013,0,0,1,2.652-21.525,18.01,18.01,0,1,0,17.316,29.991A18.016,18.016,0,0,1,822.489,5036.746Z" transform="translate(-806.896 -4961.788)" fill="#b88a79"/>
    <path id="Trazado_102793" data-name="Trazado 102793" d="M843.081,4997.4a18.013,18.013,0,0,1-21.456-11.781,70.9,70.9,0,0,0-6.129,9.742A18.014,18.014,0,0,0,843.081,4997.4Z" transform="translate(-807.523 -4957.142)" fill="#d9a171"/>
    <path id="Trazado_102794" data-name="Trazado 102794" d="M830.139,5065.781a17.98,17.98,0,0,0-14.643,7.533,71.234,71.234,0,0,0,23.43,26.2,18.01,18.01,0,0,0-8.786-33.732Z" transform="translate(-807.523 -4969.722)" fill="#6595bf"/>
    <path id="Trazado_102795" data-name="Trazado 102795" d="M815.5,5073.429a71.206,71.206,0,0,0,5.607,9.035,18.052,18.052,0,0,1,4.337-15.945A18.031,18.031,0,0,0,815.5,5073.429Z" transform="translate(-807.523 -4969.838)" fill="#4c708f"/>
    <path id="Trazado_102796" data-name="Trazado 102796" d="M818.476,4988.42a13.555,13.555,0,1,0,16.794-18.778A71.309,71.309,0,0,0,818.476,4988.42Z" transform="translate(-807.991 -4954.634)" fill="#d9a171"/>
    <path id="Trazado_102797" data-name="Trazado 102797" d="M830.607,4998.434a13.511,13.511,0,0,0,4.845-.9,17.968,17.968,0,0,1-13.359-11.922c-1.372,1.835-2.493,3.5-3.613,5.317A13.552,13.552,0,0,0,830.607,4998.434Z" transform="translate(-807.991 -4957.142)" fill="#a37955"/>
    <path id="Trazado_102798" data-name="Trazado 102798" d="M842.079,5026.64a13.554,13.554,0,1,0-4.961,18.516A13.555,13.555,0,0,0,842.079,5026.64Z" transform="translate(-807.725 -4962.516)" fill="#b88a79"/>
    <path id="Trazado_102799" data-name="Trazado 102799" d="M821.8,5023.462a13.556,13.556,0,0,0,13.385,23.185,17.99,17.99,0,0,1-13.385-23.185Z" transform="translate(-807.726 -4963.081)" fill="#53372c"/>
    <path id="Trazado_102800" data-name="Trazado 102800" d="M830.607,5071.067a13.553,13.553,0,0,0-12.131,7.508,71.3,71.3,0,0,0,16.794,18.777,13.557,13.557,0,0,0-4.663-26.285Z" transform="translate(-807.991 -4970.552)" fill="#84aacc"/>
    <path id="Trazado_102801" data-name="Trazado 102801" d="M818.48,5079.153q1.458,2.365,3.093,4.607a18,18,0,0,1,.374-8.98A13.613,13.613,0,0,0,818.48,5079.153Z" transform="translate(-807.991 -4971.134)" fill="#4c708f"/>
    <path id="Trazado_102802" data-name="Trazado 102802" d="M833.664,4986.774h-3.106a2.5,2.5,0,0,1,0-4.993h3.106a2.5,2.5,0,1,1,0,4.993Z" transform="translate(-809.495 -4956.54)" fill="#d9a171"/>
    <path id="Trazado_102803" data-name="Trazado 102803" d="M833.664,5037.975h-3.106a2.5,2.5,0,1,1,0-4.992h3.106a2.5,2.5,0,1,1,0,4.992Z" transform="translate(-809.495 -4964.575)" fill="#a66d58"/>
    <path id="Trazado_102804" data-name="Trazado 102804" d="M833.664,5089.176h-3.106a2.5,2.5,0,1,1,0-4.992h3.106a2.5,2.5,0,1,1,0,4.992Z" transform="translate(-809.495 -4972.61)" fill="#6595bf"/>
  </g>
</svg>
