<svg id="Grupo_56136" data-name="Grupo 56136" xmlns="http://www.w3.org/2000/svg" width="165.837" height="165.837" viewBox="0 0 165.837 165.837">
  <rect id="Rectángulo_5434" data-name="Rectángulo 5434" width="165.837" height="165.837" transform="translate(0 0)" fill="#5e6178" opacity="0"/>
  <g id="surface1" transform="translate(13.16 9.076)">
    <path id="Trazado_102248" data-name="Trazado 102248" d="M456.86,4584.967a69.617,69.617,0,1,1-69.617-69.617A69.616,69.616,0,0,1,456.86,4584.967Z" transform="translate(-317.627 -4506.5)" fill="#aed3f2"/>
    <path id="Trazado_102249" data-name="Trazado 102249" d="M346.982,4551.508a1.166,1.166,0,0,0-1.7,0l-15.463,16.517a1.167,1.167,0,0,0,.852,1.965H335.4V4635.2a70.048,70.048,0,0,0,10.484,10.354h10.979v-75.567h4.732a1.168,1.168,0,0,0,.852-1.965Z" transform="translate(-319.672 -4512.664)" fill="#f2e9e4"/>
    <path id="Trazado_102250" data-name="Trazado 102250" d="M461.137,4569.991h4.733a1.168,1.168,0,0,0,.852-1.965l-15.463-16.517a1.167,1.167,0,0,0-1.7,0l-15.463,16.517a1.168,1.168,0,0,0,.852,1.965h4.732v75.567h10.979a70.024,70.024,0,0,0,10.483-10.354Z" transform="translate(-337.632 -4512.664)" fill="#e8c7aa"/>
    <path id="Trazado_102251" data-name="Trazado 102251" d="M397.416,4505.027l-15.463,16.517a1.168,1.168,0,0,0,.852,1.965h4.732v114.042H409V4523.51h4.733a1.167,1.167,0,0,0,.852-1.965l-15.463-16.517A1.166,1.166,0,0,0,397.416,4505.027Z" transform="translate(-328.652 -4504.658)" fill="#6595bf"/>
    <path id="Trazado_102252" data-name="Trazado 102252" d="M346.507,4605.581l-9.88,10.553v28.384a70.027,70.027,0,0,0,10.484,10.354h10.979v-38.737l-9.879-10.553A1.165,1.165,0,0,0,346.507,4605.581Z" transform="translate(-320.9 -4521.977)" fill="#d9a171"/>
    <path id="Trazado_102253" data-name="Trazado 102253" d="M462.364,4616.134l-9.879-10.553a1.165,1.165,0,0,0-1.7,0l-9.88,10.553v38.737h10.979a70.1,70.1,0,0,0,10.483-10.354Z" transform="translate(-338.86 -4521.977)" fill="#d9a171"/>
    <path id="Trazado_102254" data-name="Trazado 102254" d="M400.348,4559.1a1.167,1.167,0,0,0-1.7,0l-9.879,10.553v77.213h21.461v-77.213Z" transform="translate(-329.88 -4513.971)" fill="#4c708f"/>
    <path id="Trazado_102255" data-name="Trazado 102255" d="M336.627,4636.5v13.4a70.077,70.077,0,0,0,10.484,10.354h10.979V4636.5A11.807,11.807,0,0,1,336.627,4636.5Z" transform="translate(-320.9 -4527.366)" fill="#d9a171"/>
    <path id="Trazado_102256" data-name="Trazado 102256" d="M388.765,4636.5v23.761h21.461V4636.5A11.806,11.806,0,0,1,388.765,4636.5Z" transform="translate(-329.88 -4527.366)" fill="#334b60"/>
    <path id="Trazado_102257" data-name="Trazado 102257" d="M440.9,4636.5v23.759h10.979a70.105,70.105,0,0,0,10.483-10.354v-13.4A11.806,11.806,0,0,1,440.9,4636.5Z" transform="translate(-338.86 -4527.366)" fill="#a66d58"/>
    <path id="Trazado_102258" data-name="Trazado 102258" d="M438.332,4662.337H345.893a69.745,69.745,0,0,0,5.955,4.745h80.528A69.891,69.891,0,0,0,438.332,4662.337Z" transform="translate(-322.495 -4531.816)" fill="#5d6776"/>
    <path id="Trazado_102259" data-name="Trazado 102259" d="M402.9,4662.337H345.893a69.745,69.745,0,0,0,5.955,4.745H402.9A2.659,2.659,0,0,1,402.9,4662.337Z" transform="translate(-322.495 -4531.816)" fill="#344154"/>
  </g>
</svg>
