<svg id="Grupo_56137" data-name="Grupo 56137" xmlns="http://www.w3.org/2000/svg" width="165.553" height="165.553" viewBox="0 0 165.553 165.553">
  <rect id="Rectángulo_5435" data-name="Rectángulo 5435" width="165.553" height="165.553" fill="#5e6178" opacity="0"/>
  <g id="surface1" transform="translate(8.734 8.734)">
    <path id="Trazado_102260" data-name="Trazado 102260" d="M460.364,4800.516a74.042,74.042,0,1,1-74.042-74.042A74.042,74.042,0,0,1,460.364,4800.516Z" transform="translate(-312.28 -4726.474)" fill="#aed3f2"/>
    <path id="Trazado_102261" data-name="Trazado 102261" d="M327.16,4865.331a74.049,74.049,0,0,0,123.45,0Z" transform="translate(-314.843 -4750.391)" fill="#5d6776"/>
    <path id="Trazado_102262" data-name="Trazado 102262" d="M390.634,4882.515a17.475,17.475,0,0,1,14.32-17.184H327.16a74.155,74.155,0,0,0,72.34,32.388A17.462,17.462,0,0,1,390.634,4882.515Z" transform="translate(-314.843 -4750.391)" fill="#344154"/>
    <path id="Trazado_102263" data-name="Trazado 102263" d="M378.374,4830.055c-1.817-4.512-7.317-4.58-9.215-.113-.564.855-7,21.479-28.118,28.724h32.826c3.835-3.93,7.459-9.6,10.8-16.77A56.353,56.353,0,0,1,378.374,4830.055Z" transform="translate(-317.234 -4743.726)" fill="#6595bf"/>
    <path id="Trazado_102264" data-name="Trazado 102264" d="M374.993,4829.942a5.836,5.836,0,0,1,1.28-2.543c-2.393-1.567-5.721-.733-7.113,2.543-.564.855-7,21.479-28.118,28.724h16.412C370.538,4851.47,374.7,4830.665,374.993,4829.942Z" transform="translate(-317.234 -4743.725)" fill="#4c708f"/>
    <path id="Trazado_102265" data-name="Trazado 102265" d="M433.774,4821.26c-5.541-14.779-10.058-34.085-13.089-56.564-.9-6.669-9.148-6.709-10.095-.05-.379,1.95-4.633,39.454-16.851,65.718a44.19,44.19,0,0,0,22.033,16.77C422.583,4842.129,428.732,4833.186,433.774,4821.26Z" transform="translate(-326.31 -4732.193)" fill="#d9a171"/>
    <path id="Trazado_102266" data-name="Trazado 102266" d="M391.494,4845.072c-3.336,7.171-6.961,12.84-10.795,16.77h32.828A44.188,44.188,0,0,1,391.494,4845.072Z" transform="translate(-324.064 -4746.901)" fill="#5e6178"/>
    <path id="Trazado_102267" data-name="Trazado 102267" d="M394.454,4861.842a48.864,48.864,0,0,0,4.61-8.345,47.986,47.986,0,0,1-7.572-8.425c-3.337,7.171-6.961,12.84-10.8,16.77h13.757Z" transform="translate(-324.064 -4746.901)" fill="#344154"/>
    <path id="Trazado_102268" data-name="Trazado 102268" d="M401.311,4838.788c8.536-19.108,13.09-50.389,15.252-71.218.314-1.734.028-5.032,1.91-6.954-2.788-2.069-7.2-.737-7.882,4.029-.379,1.95-4.633,39.454-16.852,65.718A47.932,47.932,0,0,0,401.311,4838.788Z" transform="translate(-326.31 -4732.192)" fill="#a66d58"/>
    <path id="Trazado_102269" data-name="Trazado 102269" d="M477.613,4838.185c-11.251-18.369-15.067-42.706-15.824-45.591-1.165-6.2-8.75-6.248-9.977-.068-.347,1.444-3.035,17.816-9.709,33.6,4.378,11.673,9.394,20.522,14.825,25.873h13.478A73.8,73.8,0,0,0,477.613,4838.185Z" transform="translate(-334.64 -4737.057)" fill="#f2e9e4"/>
    <path id="Trazado_102270" data-name="Trazado 102270" d="M420.358,4859.948h32.826c-5.431-5.351-10.447-14.2-14.825-25.874C433.317,4846,427.167,4854.944,420.358,4859.948Z" transform="translate(-330.895 -4745.007)" fill="#d9a171"/>
    <path id="Trazado_102271" data-name="Trazado 102271" d="M434.591,4859.948c3.184-3.188,6.171-7.977,8.877-14.114a116.151,116.151,0,0,1-5.109-11.759c-5.042,11.926-11.191,20.869-18,25.874h14.233Z" transform="translate(-330.895 -4745.007)" fill="#a37955"/>
    <path id="Trazado_102272" data-name="Trazado 102272" d="M458.676,4792.526a6.868,6.868,0,0,1,1.313-3.354c-2.672-2.43-7.246-1.327-8.176,3.354-.347,1.444-3.035,17.816-9.709,33.6a116.189,116.189,0,0,0,5.109,11.759C454.956,4820.324,457.606,4798.569,458.676,4792.526Z" transform="translate(-334.64 -4737.057)" fill="#d9a171"/>
    <path id="Trazado_102273" data-name="Trazado 102273" d="M339.8,4768.29h-3.307a2.656,2.656,0,1,1,0-5.313H339.8a2.656,2.656,0,0,1,0,5.313Z" transform="translate(-315.993 -4732.761)" fill="#358eba"/>
    <path id="Trazado_102274" data-name="Trazado 102274" d="M339.8,4788.12h-3.307a2.657,2.657,0,1,1,0-5.313H339.8a2.657,2.657,0,0,1,0,5.313Z" transform="translate(-315.993 -4736.177)" fill="#358eba"/>
    <path id="Trazado_102275" data-name="Trazado 102275" d="M339.8,4807.948h-3.307a2.657,2.657,0,1,1,0-5.314H339.8a2.657,2.657,0,0,1,0,5.314Z" transform="translate(-315.993 -4739.592)" fill="#358eba"/>
    <path id="Trazado_102276" data-name="Trazado 102276" d="M339.8,4827.776h-3.307a2.656,2.656,0,1,1,0-5.313H339.8a2.656,2.656,0,0,1,0,5.313Z" transform="translate(-315.993 -4743.007)" fill="#358eba"/>
    <path id="Trazado_102277" data-name="Trazado 102277" d="M339.8,4847.606h-3.307a2.657,2.657,0,1,1,0-5.313H339.8a2.657,2.657,0,0,1,0,5.313Z" transform="translate(-315.993 -4746.422)" fill="#358eba"/>
    <path id="Trazado_102278" data-name="Trazado 102278" d="M326.087,4768.29h-.041a2.656,2.656,0,0,1,0-5.313h.041a2.656,2.656,0,0,1,0,5.313Z" transform="translate(-314.194 -4732.761)" fill="#358eba"/>
    <path id="Trazado_102279" data-name="Trazado 102279" d="M326.087,4788.12h-.041a2.657,2.657,0,0,1,0-5.313h.041a2.657,2.657,0,0,1,0,5.313Z" transform="translate(-314.194 -4736.177)" fill="#358eba"/>
    <path id="Trazado_102280" data-name="Trazado 102280" d="M326.087,4807.948h-.041a2.657,2.657,0,0,1,0-5.314h.041a2.657,2.657,0,0,1,0,5.314Z" transform="translate(-314.194 -4739.592)" fill="#358eba"/>
    <path id="Trazado_102281" data-name="Trazado 102281" d="M326.087,4827.776h-.041a2.656,2.656,0,0,1,0-5.313h.041a2.656,2.656,0,0,1,0,5.313Z" transform="translate(-314.194 -4743.007)" fill="#358eba"/>
    <path id="Trazado_102282" data-name="Trazado 102282" d="M326.087,4847.606h-.041a2.657,2.657,0,0,1,0-5.313h.041a2.657,2.657,0,0,1,0,5.313Z" transform="translate(-314.194 -4746.422)" fill="#358eba"/>
    <path id="Trazado_102283" data-name="Trazado 102283" d="M360.317,4870.741a2.656,2.656,0,0,1-2.657-2.656v-3.308a2.657,2.657,0,0,1,5.313,0v3.308A2.655,2.655,0,0,1,360.317,4870.741Z" transform="translate(-320.096 -4749.838)" fill="#358eba"/>
    <path id="Trazado_102284" data-name="Trazado 102284" d="M380.146,4870.741a2.655,2.655,0,0,1-2.656-2.656v-3.308a2.657,2.657,0,0,1,5.313,0v3.308A2.656,2.656,0,0,1,380.146,4870.741Z" transform="translate(-323.512 -4749.838)" fill="#358eba"/>
    <path id="Trazado_102285" data-name="Trazado 102285" d="M399.975,4870.741a2.656,2.656,0,0,1-2.656-2.656v-3.308a2.657,2.657,0,0,1,5.313,0v3.308A2.656,2.656,0,0,1,399.975,4870.741Z" transform="translate(-326.927 -4749.838)" fill="#358eba"/>
    <path id="Trazado_102286" data-name="Trazado 102286" d="M419.805,4870.741a2.656,2.656,0,0,1-2.657-2.656v-3.308a2.657,2.657,0,0,1,5.313,0v3.308A2.656,2.656,0,0,1,419.805,4870.741Z" transform="translate(-330.342 -4749.838)" fill="#3ea4cc"/>
    <path id="Trazado_102287" data-name="Trazado 102287" d="M439.634,4870.741a2.656,2.656,0,0,1-2.657-2.656v-3.308a2.657,2.657,0,0,1,5.314,0v3.308A2.656,2.656,0,0,1,439.634,4870.741Z" transform="translate(-333.757 -4749.838)" fill="#3ea4cc"/>
    <path id="Trazado_102288" data-name="Trazado 102288" d="M459.463,4870.741a2.655,2.655,0,0,1-2.656-2.656v-3.308a2.657,2.657,0,0,1,5.313,0v3.308A2.656,2.656,0,0,1,459.463,4870.741Z" transform="translate(-337.173 -4749.838)" fill="#3ea4cc"/>
    <path id="Trazado_102289" data-name="Trazado 102289" d="M360.315,4881.59a2.657,2.657,0,0,1-2.657-2.657v-.054a2.658,2.658,0,0,1,5.315,0v.054A2.657,2.657,0,0,1,360.315,4881.59Z" transform="translate(-320.096 -4752.267)" fill="#358eba"/>
    <path id="Trazado_102290" data-name="Trazado 102290" d="M380.146,4881.59a2.657,2.657,0,0,1-2.657-2.657v-.054a2.657,2.657,0,1,1,5.313,0v.054A2.657,2.657,0,0,1,380.146,4881.59Z" transform="translate(-323.511 -4752.267)" fill="#358eba"/>
    <path id="Trazado_102291" data-name="Trazado 102291" d="M399.975,4881.59a2.657,2.657,0,0,1-2.658-2.657v-.054a2.657,2.657,0,1,1,5.313,0v.054A2.655,2.655,0,0,1,399.975,4881.59Z" transform="translate(-326.927 -4752.267)" fill="#358eba"/>
    <path id="Trazado_102292" data-name="Trazado 102292" d="M419.8,4881.59a2.655,2.655,0,0,1-2.655-2.657v-.054a2.657,2.657,0,1,1,5.313,0v.054A2.657,2.657,0,0,1,419.8,4881.59Z" transform="translate(-330.342 -4752.267)" fill="#3ea4cc"/>
    <path id="Trazado_102293" data-name="Trazado 102293" d="M439.632,4881.59a2.656,2.656,0,0,1-2.655-2.657v-.054a2.657,2.657,0,1,1,5.313,0v.054A2.657,2.657,0,0,1,439.632,4881.59Z" transform="translate(-333.757 -4752.267)" fill="#3ea4cc"/>
    <path id="Trazado_102294" data-name="Trazado 102294" d="M459.461,4881.59a2.657,2.657,0,0,1-2.656-2.657v-.054a2.657,2.657,0,1,1,5.313,0v.054A2.657,2.657,0,0,1,459.461,4881.59Z" transform="translate(-337.173 -4752.267)" fill="#3ea4cc"/>
    <path id="Trazado_102295" data-name="Trazado 102295" d="M453.447,4862.122H336.493a2.657,2.657,0,1,0,0,5.313H449.911Q451.788,4864.86,453.447,4862.122Z" transform="translate(-315.993 -4749.838)" fill="#358eba"/>
    <path id="Trazado_102296" data-name="Trazado 102296" d="M397.176,4864.778a2.656,2.656,0,0,1,2.657-2.656h-63.34a2.657,2.657,0,1,0,0,5.313h63.34A2.657,2.657,0,0,1,397.176,4864.778Z" transform="translate(-315.993 -4749.838)" fill="#236c9b"/>
    <path id="Trazado_102297" data-name="Trazado 102297" d="M337.831,4752.313v96.011a2.657,2.657,0,1,0,5.313,0V4747.391Q340.368,4749.723,337.831,4752.313Z" transform="translate(-316.681 -4730.077)" fill="#236c9b"/>
  </g>
</svg>
