<svg id="Grupo_56363" data-name="Grupo 56363" xmlns="http://www.w3.org/2000/svg" width="168.613" height="168.613" viewBox="0 0 168.613 168.613">
  <rect id="Rectángulo_5444" data-name="Rectángulo 5444" width="168.613" height="168.613" fill="#5e6178" opacity="0"/>
  <g id="surface1" transform="translate(14.844 13.403)">
    <path id="Trazado_102805" data-name="Trazado 102805" d="M945.818,4725.28a69.462,69.462,0,1,1-69.462-69.462A69.462,69.462,0,0,1,945.818,4725.28Z" transform="translate(-806.894 -4652.937)" fill="#aed3f2"/>
    <path id="Trazado_102806" data-name="Trazado 102806" d="M925.624,4657.891H944.2v109.328h-18.58Z" transform="translate(-825.527 -4653.262)" fill="#6595bf"/>
    <path id="Trazado_102807" data-name="Trazado 102807" d="M830.911,4756.1H849.49v26.532H830.911Z" transform="translate(-810.663 -4668.674)" fill="#e8c7aa"/>
    <path id="Trazado_102808" data-name="Trazado 102808" d="M862.481,4723.363H881.06v54.131H862.481Z" transform="translate(-815.617 -4663.537)" fill="#d9a171"/>
    <path id="Trazado_102809" data-name="Trazado 102809" d="M894.053,4690.626h18.579v81.73H894.053Z" transform="translate(-820.572 -4658.399)" fill="#b88a79"/>
    <path id="Trazado_102810" data-name="Trazado 102810" d="M849.49,4755.237c0-2.557-4.16-4.629-9.291-4.629s-9.289,2.073-9.289,4.629,4.159,4.629,9.289,4.629S849.49,4757.793,849.49,4755.237Z" transform="translate(-810.663 -4667.812)" fill="#f2e9e4"/>
    <path id="Trazado_102811" data-name="Trazado 102811" d="M912.632,4689.764c0-2.556-4.159-4.629-9.291-4.629s-9.289,2.074-9.289,4.629,4.159,4.63,9.289,4.63S912.632,4692.321,912.632,4689.764Z" transform="translate(-820.572 -4657.537)" fill="#a66d58"/>
    <path id="Trazado_102812" data-name="Trazado 102812" d="M944.2,4657.029c0-2.557-4.159-4.629-9.289-4.629s-9.291,2.072-9.291,4.629,4.16,4.629,9.291,4.629S944.2,4659.585,944.2,4657.029Z" transform="translate(-825.527 -4652.4)" fill="#a3bfd9"/>
    <path id="Trazado_102813" data-name="Trazado 102813" d="M881.06,4722.5c0-2.557-4.159-4.629-9.289-4.629s-9.291,2.072-9.291,4.629,4.161,4.629,9.291,4.629S881.06,4725.059,881.06,4722.5Z" transform="translate(-815.617 -4662.675)" fill="#e1b48d"/>
    <path id="Trazado_102814" data-name="Trazado 102814" d="M840.2,4773.541c-5.13,0-9.289-2.073-9.289-4.63v15.73H849.49v-15.73C849.49,4771.468,845.331,4773.541,840.2,4773.541Z" transform="translate(-810.663 -4670.685)" fill="#e1b48d"/>
    <path id="Trazado_102815" data-name="Trazado 102815" d="M934.914,4773.541c-5.131,0-9.291-2.073-9.291-4.63v15.73H944.2v-15.73C944.2,4771.468,940.044,4773.541,934.914,4773.541Z" transform="translate(-825.527 -4670.685)" fill="#334b60"/>
    <path id="Trazado_102816" data-name="Trazado 102816" d="M903.342,4773.541c-5.13,0-9.289-2.073-9.289-4.63v15.73h18.579v-15.73C912.632,4771.468,908.473,4773.541,903.342,4773.541Z" transform="translate(-820.572 -4670.685)" fill="#53372c"/>
    <path id="Trazado_102817" data-name="Trazado 102817" d="M871.772,4773.541c-5.13,0-9.291-2.073-9.291-4.63v15.73H881.06v-15.73C881.06,4771.468,876.9,4773.541,871.772,4773.541Z" transform="translate(-815.617 -4670.685)" fill="#a37955"/>
    <path id="Trazado_102818" data-name="Trazado 102818" d="M823.319,4787.582a69.475,69.475,0,0,0,111.229,0Z" transform="translate(-809.472 -4673.615)" fill="#5d6776"/>
    <path id="Trazado_102819" data-name="Trazado 102819" d="M872.4,4802.33a14.844,14.844,0,0,1,13.172-14.748H823.319a69.353,69.353,0,0,0,56.908,27.826A14.837,14.837,0,0,1,872.4,4802.33Z" transform="translate(-809.472 -4673.615)" fill="#344154"/>
    <path id="Trazado_102820" data-name="Trazado 102820" d="M841.53,4794.6a2.156,2.156,0,0,1-2.156-2.155v-5.266a2.155,2.155,0,0,1,4.31,0v5.266A2.155,2.155,0,0,1,841.53,4794.6Z" transform="translate(-811.991 -4673.214)" fill="#358eba"/>
    <path id="Trazado_102821" data-name="Trazado 102821" d="M873.1,4794.6a2.154,2.154,0,0,1-2.154-2.155v-5.266a2.154,2.154,0,1,1,4.308,0v5.266A2.154,2.154,0,0,1,873.1,4794.6Z" transform="translate(-816.946 -4673.214)" fill="#358eba"/>
    <path id="Trazado_102822" data-name="Trazado 102822" d="M904.672,4794.6a2.155,2.155,0,0,1-2.155-2.155v-5.266a2.154,2.154,0,0,1,4.309,0v5.266A2.155,2.155,0,0,1,904.672,4794.6Z" transform="translate(-821.901 -4673.214)" fill="#3ea4cc"/>
    <path id="Trazado_102823" data-name="Trazado 102823" d="M936.242,4794.6a2.155,2.155,0,0,1-2.154-2.155v-5.266a2.154,2.154,0,0,1,4.309,0v5.266A2.156,2.156,0,0,1,936.242,4794.6Z" transform="translate(-826.855 -4673.214)" fill="#3ea4cc"/>
    <path id="Trazado_102824" data-name="Trazado 102824" d="M841.528,4803.671a2.156,2.156,0,0,1-2.154-2.156v-.043a2.154,2.154,0,1,1,4.308,0v.043A2.155,2.155,0,0,1,841.528,4803.671Z" transform="translate(-811.991 -4675.457)" fill="#358eba"/>
    <path id="Trazado_102825" data-name="Trazado 102825" d="M873.1,4803.671a2.155,2.155,0,0,1-2.154-2.156v-.043a2.154,2.154,0,1,1,4.308,0v.043A2.156,2.156,0,0,1,873.1,4803.671Z" transform="translate(-816.946 -4675.457)" fill="#358eba"/>
    <path id="Trazado_102826" data-name="Trazado 102826" d="M904.67,4803.671a2.156,2.156,0,0,1-2.154-2.156v-.043a2.154,2.154,0,1,1,4.308,0v.043A2.155,2.155,0,0,1,904.67,4803.671Z" transform="translate(-821.901 -4675.457)" fill="#3ea4cc"/>
    <path id="Trazado_102827" data-name="Trazado 102827" d="M936.242,4803.671a2.155,2.155,0,0,1-2.154-2.156v-.043a2.154,2.154,0,1,1,4.308,0v.043A2.155,2.155,0,0,1,936.242,4803.671Z" transform="translate(-826.855 -4675.457)" fill="#3ea4cc"/>
    <path id="Trazado_102828" data-name="Trazado 102828" d="M935.807,4785.027H821.485q1.534,2.218,3.233,4.309H932.575Q934.272,4787.245,935.807,4785.027Z" transform="translate(-809.184 -4673.214)" fill="#358eba"/>
    <path id="Trazado_102829" data-name="Trazado 102829" d="M879,4785.027H821.485q1.534,2.218,3.233,4.309H879A2.363,2.363,0,0,1,879,4785.027Z" transform="translate(-809.184 -4673.214)" fill="#236c9b"/>
  </g>
</svg>
