<svg xmlns="http://www.w3.org/2000/svg" width="530.041" height="300.865" viewBox="0 0 530.041 300.865">
  <g id="Grupo_53462" data-name="Grupo 53462" transform="translate(-857.559 -2148.166)">
    <g id="Grupo_53429" data-name="Grupo 53429" transform="translate(1279.262 2248.801)">
      <path id="Trazado_100154" data-name="Trazado 100154" d="M1250.107,2325.97s-25.389-5.135-49.9-2.648,11.532,34.515,11.532,34.515h5.06s-19.1-20.308-18.037-25.364,49.168,1.608,49.168,1.608Z" transform="translate(-1191.666 -2246.925)" fill="#344154"/>
      <path id="Trazado_100155" data-name="Trazado 100155" d="M1250.107,2325.97s-25.389-5.135-49.9-2.648,11.532,34.515,11.532,34.515h5.06s-19.1-20.308-18.037-25.364,49.168,1.608,49.168,1.608Z" transform="translate(-1191.666 -2246.925)" fill="#fff" opacity="0.2" style="isolation: isolate"/>
      <path id="Trazado_100156" data-name="Trazado 100156" d="M1239.693,2358.586s11.894-42.311,13.858-95.888a11.91,11.91,0,0,1,11.912-11.451h21.365a11.915,11.915,0,0,1,11.923,11.859c.084,19.465-1.277,63.138-12.255,95.479Z" transform="translate(-1190.418 -2248.781)" fill="#344154"/>
      <path id="Trazado_100157" data-name="Trazado 100157" d="M1239.693,2358.586s11.894-42.311,13.858-95.888a11.91,11.91,0,0,1,11.912-11.451h21.365a11.915,11.915,0,0,1,11.923,11.859c.084,19.465-1.277,63.138-12.255,95.479Z" transform="translate(-1190.418 -2248.781)" fill="#fff" opacity="0.4" style="isolation: isolate"/>
      <path id="Trazado_100158" data-name="Trazado 100158" d="M1233.621,2353.223c3.471-13.129,11.288-47.093,12.935-91.965a12.911,12.911,0,0,1,12.914-12.415h23.162a12.918,12.918,0,0,1,12.926,12.857c.09,21.1-1.384,64.238-13.286,99.3l-44.086-1.623A4.9,4.9,0,0,1,1233.621,2353.223Z" transform="translate(-1190.58 -2248.843)" fill="#d9a171"/>
      <path id="Rectángulo_5121" data-name="Rectángulo 5121" d="M0,0H78.356a0,0,0,0,1,0,0V12.368a5,5,0,0,1-5,5H5a5,5,0,0,1-5-5V0A0,0,0,0,1,0,0Z" transform="translate(88.898 110.832) rotate(180)" fill="#d9a171"/>
      <path id="Trazado_100159" data-name="Trazado 100159" d="M1277.463,2417.344l-25.107-2.468v-35.285H1242.4v35.275l-25.208,2.478a4.887,4.887,0,0,0-4.411,4.864v3.77h69.086v-3.77A4.887,4.887,0,0,0,1277.463,2417.344Z" transform="translate(-1191.117 -2245.444)" fill="#344154"/>
      <path id="Trazado_100160" data-name="Trazado 100160" d="M1277.463,2417.344l-25.107-2.468v-35.285H1242.4v35.275l-25.208,2.478a4.887,4.887,0,0,0-4.411,4.864v3.77h69.086v-3.77A4.887,4.887,0,0,0,1277.463,2417.344Z" transform="translate(-1191.117 -2245.444)" fill="#fff" opacity="0.4" style="isolation: isolate"/>
      <path id="Trazado_100161" data-name="Trazado 100161" d="M1222.047,2429.526a6.506,6.506,0,1,1-6.506-6.506A6.5,6.5,0,0,1,1222.047,2429.526Z" transform="translate(-1191.215 -2244.315)" fill="#344154"/>
      <path id="Trazado_100162" data-name="Trazado 100162" d="M1215.463,2432.875a3.427,3.427,0,1,1,3.427-3.427A3.431,3.431,0,0,1,1215.463,2432.875Z" transform="translate(-1191.137 -2244.237)" fill="#fff" opacity="0.4" style="isolation: isolate"/>
      <path id="Trazado_100163" data-name="Trazado 100163" d="M1271.192,2429.526a6.505,6.505,0,1,0,6.5-6.506A6.5,6.5,0,0,0,1271.192,2429.526Z" transform="translate(-1189.599 -2244.315)" fill="#344154"/>
      <path id="Trazado_100164" data-name="Trazado 100164" d="M1277.619,2432.875a3.427,3.427,0,1,1,3.428-3.427A3.432,3.432,0,0,1,1277.619,2432.875Z" transform="translate(-1189.521 -2244.237)" fill="#fff" opacity="0.4" style="isolation: isolate"/>
      <path id="Rectángulo_5122" data-name="Rectángulo 5122" d="M0,0H13.377a0,0,0,0,1,0,0V27.294a4.133,4.133,0,0,1-4.133,4.133H4.133A4.133,4.133,0,0,1,0,27.294V0A0,0,0,0,1,0,0Z" transform="translate(49.574 110.304)" fill="#344154"/>
      <path id="Rectángulo_5123" data-name="Rectángulo 5123" d="M0,0H13.377a0,0,0,0,1,0,0V27.294a4.133,4.133,0,0,1-4.133,4.133H4.133A4.133,4.133,0,0,1,0,27.294V0A0,0,0,0,1,0,0Z" transform="translate(49.574 110.304)" fill="#fff" opacity="0.2" style="isolation: isolate"/>
      <g id="Grupo_53426" data-name="Grupo 53426" transform="translate(7.748 108.817)">
        <rect id="Rectángulo_5124" data-name="Rectángulo 5124" width="89.172" height="5.093" rx="2.011" transform="translate(89.172 5.093) rotate(180)" fill="#344154"/>
      </g>
      <g id="Grupo_53427" data-name="Grupo 53427" transform="translate(7.748 108.817)" opacity="0.4" style="isolation: isolate">
        <rect id="Rectángulo_5125" data-name="Rectángulo 5125" width="89.172" height="5.093" rx="2.011" transform="translate(89.172 5.093) rotate(180)" fill="#fff"/>
      </g>
      <g id="Grupo_53428" data-name="Grupo 53428" transform="translate(45.144 75.718)">
        <path id="Trazado_100165" data-name="Trazado 100165" d="M1294.107,2325.97s-25.389-5.135-49.9-2.648,11.532,34.515,11.532,34.515h5.06s-19.1-20.308-18.037-25.364,49.168,1.608,49.168,1.608Z" transform="translate(-1235.666 -2322.642)" fill="#344154"/>
        <path id="Trazado_100166" data-name="Trazado 100166" d="M1294.107,2325.97s-25.389-5.135-49.9-2.648,11.532,34.515,11.532,34.515h5.06s-19.1-20.308-18.037-25.364,49.168,1.608,49.168,1.608Z" transform="translate(-1235.666 -2322.642)" fill="#fff" opacity="0.4" style="isolation: isolate"/>
      </g>
    </g>
    <g id="Grupo_53439" data-name="Grupo 53439" transform="translate(857.559 2261.606)">
      <g id="Grupo_53438" data-name="Grupo 53438">
        <g id="Grupo_53430" data-name="Grupo 53430" transform="translate(38.551 68.176)">
          <path id="Trazado_100167" data-name="Trazado 100167" d="M1011.969,2331.338v1.036H996.333v-.79c0-1.9,1.97-3.458,4.494-3.56l.831-.031,5.294-.215C1009.681,2327.665,1011.969,2329.286,1011.969,2331.338Z" transform="translate(-996.333 -2327.773)" fill="#344154"/>
          <path id="Trazado_100168" data-name="Trazado 100168" d="M1004.767,2331.333v1.036h-8.434v-.79c0-1.9,1.97-3.458,4.494-3.56l.831-.031C1003.464,2328.48,1004.767,2329.794,1004.767,2331.333Z" transform="translate(-996.333 -2327.767)" fill="#fff" opacity="0.2" style="isolation: isolate"/>
        </g>
        <g id="Grupo_53431" data-name="Grupo 53431" transform="translate(178.839 82.171)">
          <path id="Trazado_100169" data-name="Trazado 100169" d="M1135.915,2438.1h1.573a.364.364,0,0,0,.361-.356l2.488-96.332h-7.271l2.487,96.33A.366.366,0,0,0,1135.915,2438.1Z" transform="translate(-1133.066 -2341.413)" fill="#344154"/>
        </g>
        <g id="Grupo_53432" data-name="Grupo 53432" transform="translate(223.89 82.171)">
          <path id="Trazado_100170" data-name="Trazado 100170" d="M1190.872,2438.1h3.636l-10.26-96.688h-7.271Z" transform="translate(-1176.976 -2341.413)" fill="#344154"/>
        </g>
        <path id="Trazado_100171" data-name="Trazado 100171" d="M962.356,2438.1h0l13.934-96.688h-7.271l-10.26,96.688Z" transform="translate(-958.759 -2259.242)" fill="#344154"/>
        <path id="Trazado_100172" data-name="Trazado 100172" d="M1014.214,2438.1h4.177l0,0,1.546-96.685h-7.271Z" transform="translate(-957.357 -2259.242)" fill="#344154"/>
        <g id="Grupo_53433" data-name="Grupo 53433" transform="translate(223.89 82.171)" opacity="0.4" style="isolation: isolate">
          <path id="Trazado_100173" data-name="Trazado 100173" d="M1190.872,2438.1h3.636l-10.26-96.688h-7.271Z" transform="translate(-1176.976 -2341.413)" fill="#fff"/>
        </g>
        <path id="Trazado_100174" data-name="Trazado 100174" d="M1014.214,2438.1h4.177l0,0,1.546-96.685h-7.271Z" transform="translate(-957.357 -2259.242)" fill="#fff" opacity="0.4" style="isolation: isolate"/>
        <g id="Grupo_53434" data-name="Grupo 53434" transform="translate(178.839 82.171)" opacity="0.2" style="isolation: isolate">
          <path id="Trazado_100175" data-name="Trazado 100175" d="M1135.915,2438.1h1.573a.364.364,0,0,0,.361-.356l2.488-96.332h-7.271l2.487,96.33A.366.366,0,0,0,1135.915,2438.1Z" transform="translate(-1133.066 -2341.413)" fill="#fff"/>
        </g>
        <path id="Trazado_100176" data-name="Trazado 100176" d="M962.356,2438.1h0l13.934-96.688h-7.271l-10.26,96.688Z" transform="translate(-958.759 -2259.242)" fill="#fff" opacity="0.2" style="isolation: isolate"/>
        <g id="Grupo_53435" data-name="Grupo 53435" transform="translate(36.54)">
          <path id="Trazado_100177" data-name="Trazado 100177" d="M1026.514,2333.56h20.693l3.291-28.893a2.028,2.028,0,0,0-2.024-1.93h-13.864a2.027,2.027,0,0,0-2.025,1.93Z" transform="translate(-993.537 -2260.247)" fill="#344154"/>
          <path id="Trazado_100178" data-name="Trazado 100178" d="M995.766,2261.324h5.166l5.806,54.567h-5.166a1.767,1.767,0,0,1-1.714-1.549l-5.477-51.468A1.368,1.368,0,0,1,995.766,2261.324Z" transform="translate(-994.372 -2261.324)" fill="#344154"/>
          <path id="Trazado_100179" data-name="Trazado 100179" d="M1003.7,2315.891h77.422a1.367,1.367,0,0,0,1.385-1.549l-5.477-51.468a1.766,1.766,0,0,0-1.714-1.55H997.9a1.368,1.368,0,0,0-1.385,1.55l5.477,51.468A1.766,1.766,0,0,0,1003.7,2315.891Z" transform="translate(-994.317 -2261.324)" fill="#344154"/>
          <rect id="Rectángulo_5126" data-name="Rectángulo 5126" width="27.694" height="2.244" rx="0.959" transform="translate(58.773 73.312) rotate(180)" fill="#344154"/>
          <path id="Trazado_100180" data-name="Trazado 100180" d="M1003.7,2315.891h77.422a1.367,1.367,0,0,0,1.385-1.549l-5.477-51.468a1.766,1.766,0,0,0-1.714-1.55H997.9a1.368,1.368,0,0,0-1.385,1.55l5.477,51.468A1.766,1.766,0,0,0,1003.7,2315.891Z" transform="translate(-994.317 -2261.324)" fill="#fff" opacity="0.2" style="isolation: isolate"/>
          <path id="Trazado_100181" data-name="Trazado 100181" d="M1005.088,2310.8H1078.1a1.193,1.193,0,0,0,1.209-1.352l-4.778-44.9a1.54,1.54,0,0,0-1.5-1.352h-73.008a1.193,1.193,0,0,0-1.209,1.352l4.777,44.9A1.543,1.543,0,0,0,1005.088,2310.8Z" transform="translate(-994.257 -2261.276)" fill="#d9a171"/>
          <rect id="Rectángulo_5127" data-name="Rectángulo 5127" width="27.694" height="2.244" rx="0.959" transform="translate(58.773 73.312) rotate(180)" fill="#fff" opacity="0.2" style="isolation: isolate"/>
          <path id="Trazado_100182" data-name="Trazado 100182" d="M1005.088,2310.8H1078.1a1.193,1.193,0,0,0,1.209-1.352l-4.778-44.9a1.54,1.54,0,0,0-1.5-1.352h-73.008a1.193,1.193,0,0,0-1.209,1.352l4.777,44.9A1.543,1.543,0,0,0,1005.088,2310.8Z" transform="translate(-994.257 -2261.276)" fill="#d9a171" opacity="0.2" style="isolation: isolate"/>
        </g>
        <path id="Trazado_100183" data-name="Trazado 100183" d="M1027.691,2332.146H964.662v9.509H1193.97v-9.509Z" transform="translate(-958.605 -2259.482)" fill="#d9a171"/>
        <g id="Grupo_53437" data-name="Grupo 53437" transform="translate(76.422 68.174)">
          <g id="Grupo_53436" data-name="Grupo 53436" transform="translate(1.573)">
            <path id="Trazado_100184" data-name="Trazado 100184" d="M1071.554,2330.551h1.931a.369.369,0,0,0,.368-.369v-2.043a.369.369,0,0,0-.368-.368H1072.1a.369.369,0,0,0-.356.274l-.545,2.041A.369.369,0,0,0,1071.554,2330.551Z" transform="translate(-1033.831 -2327.771)" fill="#d9a171"/>
            <path id="Trazado_100185" data-name="Trazado 100185" d="M1068.954,2330.551h1.93a.369.369,0,0,0,.369-.369v-2.043a.369.369,0,0,0-.369-.368H1069.5a.37.37,0,0,0-.356.274l-.545,2.041A.37.37,0,0,0,1068.954,2330.551Z" transform="translate(-1033.899 -2327.771)" fill="#d9a171"/>
            <path id="Trazado_100186" data-name="Trazado 100186" d="M1066.353,2330.551h1.931a.369.369,0,0,0,.368-.369v-2.043a.368.368,0,0,0-.368-.368H1066.9a.369.369,0,0,0-.356.274l-.545,2.041A.369.369,0,0,0,1066.353,2330.551Z" transform="translate(-1033.966 -2327.771)" fill="#d9a171"/>
            <path id="Trazado_100187" data-name="Trazado 100187" d="M1063.752,2330.551h1.931a.369.369,0,0,0,.369-.369v-2.043a.369.369,0,0,0-.369-.368H1064.3a.369.369,0,0,0-.356.274l-.545,2.041A.369.369,0,0,0,1063.752,2330.551Z" transform="translate(-1034.034 -2327.771)" fill="#d9a171"/>
            <path id="Trazado_100188" data-name="Trazado 100188" d="M1061.152,2330.551h1.931a.369.369,0,0,0,.368-.369v-2.043a.368.368,0,0,0-.368-.368H1061.7a.37.37,0,0,0-.357.274l-.544,2.041A.369.369,0,0,0,1061.152,2330.551Z" transform="translate(-1034.102 -2327.771)" fill="#d9a171"/>
            <path id="Trazado_100189" data-name="Trazado 100189" d="M1058.551,2330.551h1.931a.368.368,0,0,0,.369-.369v-2.043a.368.368,0,0,0-.369-.368H1059.1a.369.369,0,0,0-.356.274l-.545,2.041A.369.369,0,0,0,1058.551,2330.551Z" transform="translate(-1034.169 -2327.771)" fill="#d9a171"/>
            <path id="Trazado_100190" data-name="Trazado 100190" d="M1055.952,2330.551h1.929a.369.369,0,0,0,.369-.369v-2.043a.368.368,0,0,0-.369-.368H1056.5a.37.37,0,0,0-.356.274l-.544,2.041A.369.369,0,0,0,1055.952,2330.551Z" transform="translate(-1034.237 -2327.771)" fill="#d9a171"/>
            <path id="Trazado_100191" data-name="Trazado 100191" d="M1053.35,2330.551h1.931a.369.369,0,0,0,.368-.369v-2.043a.368.368,0,0,0-.368-.368H1053.9a.369.369,0,0,0-.356.274l-.545,2.041A.369.369,0,0,0,1053.35,2330.551Z" transform="translate(-1034.304 -2327.771)" fill="#d9a171"/>
            <path id="Trazado_100192" data-name="Trazado 100192" d="M1050.749,2330.551h1.931a.369.369,0,0,0,.37-.369v-2.043a.369.369,0,0,0-.37-.368h-1.386a.37.37,0,0,0-.356.274l-.545,2.041A.369.369,0,0,0,1050.749,2330.551Z" transform="translate(-1034.372 -2327.771)" fill="#d9a171"/>
            <path id="Trazado_100193" data-name="Trazado 100193" d="M1048.149,2330.551h1.931a.369.369,0,0,0,.368-.369v-2.043a.368.368,0,0,0-.368-.368h-1.386a.37.37,0,0,0-.357.274l-.544,2.041A.369.369,0,0,0,1048.149,2330.551Z" transform="translate(-1034.439 -2327.771)" fill="#d9a171"/>
            <path id="Trazado_100194" data-name="Trazado 100194" d="M1045.548,2330.551h1.931a.368.368,0,0,0,.368-.369v-2.043a.368.368,0,0,0-.368-.368h-1.386a.369.369,0,0,0-.356.274l-.545,2.041A.369.369,0,0,0,1045.548,2330.551Z" transform="translate(-1034.507 -2327.771)" fill="#d9a171"/>
            <path id="Trazado_100195" data-name="Trazado 100195" d="M1042.948,2330.551h1.931a.369.369,0,0,0,.368-.369v-2.043a.368.368,0,0,0-.368-.368h-1.387a.37.37,0,0,0-.356.274l-.544,2.041A.369.369,0,0,0,1042.948,2330.551Z" transform="translate(-1034.575 -2327.771)" fill="#d9a171"/>
            <path id="Trazado_100196" data-name="Trazado 100196" d="M1040.347,2330.551h1.931a.369.369,0,0,0,.368-.369v-2.043a.368.368,0,0,0-.368-.368h-1.386a.369.369,0,0,0-.356.274l-.545,2.041A.369.369,0,0,0,1040.347,2330.551Z" transform="translate(-1034.642 -2327.771)" fill="#d9a171"/>
            <path id="Trazado_100197" data-name="Trazado 100197" d="M1037.747,2330.551h1.93a.369.369,0,0,0,.369-.369v-2.043a.369.369,0,0,0-.369-.368h-1.386a.37.37,0,0,0-.356.274l-.545,2.041A.37.37,0,0,0,1037.747,2330.551Z" transform="translate(-1034.71 -2327.771)" fill="#d9a171"/>
            <path id="Trazado_100198" data-name="Trazado 100198" d="M1035.146,2330.551h1.931a.369.369,0,0,0,.368-.369v-2.043a.368.368,0,0,0-.368-.368h-1.386a.368.368,0,0,0-.356.274l-.545,2.041A.369.369,0,0,0,1035.146,2330.551Z" transform="translate(-1034.778 -2327.771)" fill="#d9a171"/>
          </g>
          <rect id="Rectángulo_5128" data-name="Rectángulo 5128" width="43.17" height="3.215" transform="translate(43.17 4.605) rotate(180)" fill="#344154"/>
          <rect id="Rectángulo_5129" data-name="Rectángulo 5129" width="43.17" height="3.215" transform="translate(43.17 4.605) rotate(180)" fill="#fff" opacity="0.2" style="isolation: isolate"/>
          <rect id="Rectángulo_5130" data-name="Rectángulo 5130" width="13.988" height="3.215" transform="translate(13.988 4.605) rotate(180)" fill="#fff" opacity="0.2" style="isolation: isolate"/>
        </g>
        <rect id="Rectángulo_5131" data-name="Rectángulo 5131" width="184.258" height="9.509" transform="translate(235.365 82.171) rotate(180)" fill="#fff" opacity="0.2" style="isolation: isolate"/>
      </g>
    </g>
    <g id="Grupo_53444" data-name="Grupo 53444" transform="translate(1001.517 2405.766)">
      <g id="Grupo_53440" data-name="Grupo 53440" transform="translate(3.527 10.372)">
        <path id="Trazado_100199" data-name="Trazado 100199" d="M998.925,2418.238a1.613,1.613,0,0,0-1.292-2.314,3.454,3.454,0,0,0-1.094-3.771.816.816,0,0,0-.475-.211.918.918,0,0,0-.51.226l-3.019,2.169a1.819,1.819,0,0,0-.6.592c-.617,1.2,1.608,2.728.693,3.715-.263.283-.685.342-1.013.546-.719.45-.806,1.437-1.141,2.214s-1.5,1.383-1.949.663c.331-.747-.668-1.391-1.478-1.485s-1.657-.14-2.105-.9c-1.15,1-3.726-1.8-3.667-2.931a2.22,2.22,0,0,0-1.8,1.844,13.24,13.24,0,0,0-.1,2.818c-.029,1.831-.62,3.625-.587,5.456.025,1.424.575,3.007,1.88,3.58a4.9,4.9,0,0,0,2.024.271l14.855-.094a2.278,2.278,0,0,0,1.045-.174c.67-.35.812-1.23.874-1.984q.4-4.842.8-9.683Z" transform="translate(-978.793 -2411.941)" fill="#d9a171"/>
        <path id="Trazado_100200" data-name="Trazado 100200" d="M998.925,2418.238a1.613,1.613,0,0,0-1.292-2.314,3.454,3.454,0,0,0-1.094-3.771.816.816,0,0,0-.475-.211.918.918,0,0,0-.51.226l-3.019,2.169a1.819,1.819,0,0,0-.6.592c-.617,1.2,1.608,2.728.693,3.715-.263.283-.685.342-1.013.546-.719.45-.806,1.437-1.141,2.214s-1.5,1.383-1.949.663c.331-.747-.668-1.391-1.478-1.485s-1.657-.14-2.105-.9c-1.15,1-3.726-1.8-3.667-2.931a2.22,2.22,0,0,0-1.8,1.844,13.24,13.24,0,0,0-.1,2.818c-.029,1.831-.62,3.625-.587,5.456.025,1.424.575,3.007,1.88,3.58a4.9,4.9,0,0,0,2.024.271l14.855-.094a2.278,2.278,0,0,0,1.045-.174c.67-.35.812-1.23.874-1.984q.4-4.842.8-9.683Z" transform="translate(-978.793 -2411.941)" fill="#fff" opacity="0.3" style="isolation: isolate"/>
      </g>
      <g id="Grupo_53443" data-name="Grupo 53443" transform="translate(1.476 0.966)">
        <g id="Grupo_53441" data-name="Grupo 53441">
          <path id="Trazado_100201" data-name="Trazado 100201" d="M999.844,2402.773h-23.05l.19,2.329.135,1.662.352,4.328.2,2.486.266,3.309.114,1.42.037.421.135,1.668.185,2.286.114,1.419.119,1.44.135,1.668.1,1.261.114,1.419.049.617H1000.2l.049-.617.114-1.414.1-1.272.135-1.668.119-1.435.114-1.419.184-2.291.135-1.663.033-.421.114-1.42.271-3.309.2-2.481.347-4.333.135-1.662.19-2.329Zm1.387,1.528h0l-.444-.444h.482Zm-.114,1.412-.043.563-2.064,2.064-2.366-2.367,2.118-2.118h.5Zm-.6,7.377-1.511,1.511-2.366-2.367,2.366-2.362,1.636,1.636Zm-21.935-1.582h0l1.635-1.636,2.367,2.362-2.367,2.367-1.505-1.511Zm19.66-2.4-2.367,2.367-2.367-2.367,2.367-2.367Zm-3.721-5.248h2.709l-1.354,1.353Zm.586,8.378-2.362,2.367-2.367-2.367,2.367-2.362Zm-7.859,3.13,2.367-2.361,2.362,2.361-2.362,2.367Zm1.6,3.13-2.367,2.367-2.361-2.361,2.367-2.367Zm3.9-2.361,2.362,2.367-2.362,2.361-2.367-2.367Zm-3.13-4.663-2.367-2.367,2.367-2.367,2.362,2.367Zm-.77.763-2.361,2.367-2.367-2.367,2.367-2.362Zm-5.5-.763-2.361-2.367,2.361-2.367,2.367,2.367Zm0,1.533,2.367,2.361-2.367,2.367-2.361-2.367Zm2.367,8.627-2.367,2.361-2.361-2.361,2.361-2.367Zm.763.763,2.367,2.367-2.361,2.367-2.367-2.367Zm.77-.763,2.367-2.367,2.362,2.367-2.362,2.361Zm5.5.763,2.362,2.367-2.362,2.367-2.367-2.367Zm3.13,3.131,2.367,2.367-1.533,1.532h-1.668l-1.533-1.532Zm-2.367-3.894,2.367-2.367,2.367,2.367-2.367,2.361Zm0-6.267L995.88,2413l2.367,2.361-2.367,2.367Zm1.6-9.391-2.362,2.367-2.367-2.367,2.118-2.118h.5Zm-5.492-.765-1.354-1.353h2.7Zm-.77.765-2.361,2.367-2.367-2.367,2.118-2.118h.5Zm-4.143-2.118-1.354,1.353L982,2403.857Zm-4.235,0,2.118,2.118-2.367,2.367-2.058-2.064-.043-.563,1.853-1.857Zm-2.025,0-.439.438h0l-.038-.438Zm-.147,4.088,1.16,1.16-.986.986Zm.644,7.935-.091-1.121h0l.606.606-.515.515Zm.114,1.424,1.164-1.17,2.367,2.367-2.367,2.361-.953-.953Zm.352,4.376-.005-.1.054.054-.049.048Zm.412,5.043-.3-3.629.7-.7,2.367,2.367-2.367,2.361-.4-.4Zm.217,2.7-.044-.542.228-.228.769.77Zm.953-1.532,2.361-2.367,2.367,2.367-1.533,1.532h-1.667Zm4.728,1.532.77-.77.768.77Zm3.066,0-1.533-1.532,2.367-2.367,2.362,2.367-1.528,1.532Zm3.2,0,.768-.77.769.77Zm7.214,0h-.953l.768-.77.228.228Zm.222-2.7-.406.4-2.366-2.361,2.366-2.367.7.7Zm.418-5.15-.011.108-.048-.048.06-.06Zm.135-1.663-.959.953-2.366-2.361,2.366-2.367,1.171,1.17Zm.324-4.024-.519-.52.611-.606Zm.645-7.945-.173,2.155-.991-.991,1.165-1.164Z" transform="translate(-976.794 -2402.773)" fill="#d9a171"/>
        </g>
        <g id="Grupo_53442" data-name="Grupo 53442" opacity="0.6" style="isolation: isolate">
          <path id="Trazado_100202" data-name="Trazado 100202" d="M999.844,2402.773h-23.05l.19,2.329.135,1.662.352,4.328.2,2.486.266,3.309.114,1.42.037.421.135,1.668.185,2.286.114,1.419.119,1.44.135,1.668.1,1.261.114,1.419.049.617H1000.2l.049-.617.114-1.414.1-1.272.135-1.668.119-1.435.114-1.419.184-2.291.135-1.663.033-.421.114-1.42.271-3.309.2-2.481.347-4.333.135-1.662.19-2.329Zm1.387,1.528h0l-.444-.444h.482Zm-.114,1.412-.043.563-2.064,2.064-2.366-2.367,2.118-2.118h.5Zm-.6,7.377-1.511,1.511-2.366-2.367,2.366-2.362,1.636,1.636Zm-21.935-1.582h0l1.635-1.636,2.367,2.362-2.367,2.367-1.505-1.511Zm19.66-2.4-2.367,2.367-2.367-2.367,2.367-2.367Zm-3.721-5.248h2.709l-1.354,1.353Zm.586,8.378-2.362,2.367-2.367-2.367,2.367-2.362Zm-7.859,3.13,2.367-2.361,2.362,2.361-2.362,2.367Zm1.6,3.13-2.367,2.367-2.361-2.361,2.367-2.367Zm3.9-2.361,2.362,2.367-2.362,2.361-2.367-2.367Zm-3.13-4.663-2.367-2.367,2.367-2.367,2.362,2.367Zm-.77.763-2.361,2.367-2.367-2.367,2.367-2.362Zm-5.5-.763-2.361-2.367,2.361-2.367,2.367,2.367Zm0,1.533,2.367,2.361-2.367,2.367-2.361-2.367Zm2.367,8.627-2.367,2.361-2.361-2.361,2.361-2.367Zm.763.763,2.367,2.367-2.361,2.367-2.367-2.367Zm.77-.763,2.367-2.367,2.362,2.367-2.362,2.361Zm5.5.763,2.362,2.367-2.362,2.367-2.367-2.367Zm3.13,3.131,2.367,2.367-1.533,1.532h-1.668l-1.533-1.532Zm-2.367-3.894,2.367-2.367,2.367,2.367-2.367,2.361Zm0-6.267L995.88,2413l2.367,2.361-2.367,2.367Zm1.6-9.391-2.362,2.367-2.367-2.367,2.118-2.118h.5Zm-5.492-.765-1.354-1.353h2.7Zm-.77.765-2.361,2.367-2.367-2.367,2.118-2.118h.5Zm-4.143-2.118-1.354,1.353L982,2403.857Zm-4.235,0,2.118,2.118-2.367,2.367-2.058-2.064-.043-.563,1.853-1.857Zm-2.025,0-.439.438h0l-.038-.438Zm-.147,4.088,1.16,1.16-.986.986Zm.644,7.935-.091-1.121h0l.606.606-.515.515Zm.114,1.424,1.164-1.17,2.367,2.367-2.367,2.361-.953-.953Zm.352,4.376-.005-.1.054.054-.049.048Zm.412,5.043-.3-3.629.7-.7,2.367,2.367-2.367,2.361-.4-.4Zm.217,2.7-.044-.542.228-.228.769.77Zm.953-1.532,2.361-2.367,2.367,2.367-1.533,1.532h-1.667Zm4.728,1.532.77-.77.768.77Zm3.066,0-1.533-1.532,2.367-2.367,2.362,2.367-1.528,1.532Zm3.2,0,.768-.77.769.77Zm7.214,0h-.953l.768-.77.228.228Zm.222-2.7-.406.4-2.366-2.361,2.366-2.367.7.7Zm.418-5.15-.011.108-.048-.048.06-.06Zm.135-1.663-.959.953-2.366-2.361,2.366-2.367,1.171,1.17Zm.324-4.024-.519-.52.611-.606Zm.645-7.945-.173,2.155-.991-.991,1.165-1.164Z" transform="translate(-976.794 -2402.773)" fill="#fff"/>
        </g>
      </g>
      <rect id="Rectángulo_5132" data-name="Rectángulo 5132" width="28.598" height="3.015" rx="1.469" transform="translate(28.598 3.015) rotate(-180)" fill="#d9a171"/>
      <rect id="Rectángulo_5133" data-name="Rectángulo 5133" width="24.474" height="3.015" rx="1.469" transform="translate(2.062 27.08)" fill="#d9a171"/>
    </g>
    <g id="Grupo_53446" data-name="Grupo 53446" transform="translate(1121.125 2148.167)">
      <rect id="Rectángulo_5134" data-name="Rectángulo 5134" width="38.285" height="38.285" rx="3.692" transform="translate(44.254 37.724) rotate(170.18)" fill="#d9a171"/>
      <path id="Trazado_100203" data-name="Trazado 100203" d="M1136.128,2153.272s6.911,10.46,18.6,12.079c0,0-6.743-2.476-8.312-14.347Z" transform="translate(-1115.295 -2114.501)" fill="#d9a171"/>
      <g id="Grupo_53445" data-name="Grupo 53445" transform="translate(11.475 9.008)">
        <path id="Trazado_100204" data-name="Trazado 100204" d="M1146.36,2134.441l-4.881.584s-1.6-3.269-2.616-10.819a9.03,9.03,0,0,0-2.5.393c-.786.349.085,8.8.085,8.8s-8.85.615-9.27,1.057c-.266.279-.16,1.589-.047,2.508a1.119,1.119,0,0,0,1.047.981l.311.018,1.573,8.309a1.233,1.233,0,0,0,1.367.993l8.19-1.048a4.034,4.034,0,0,0,2.179-1l.809-.724,5.091-.328Z" transform="translate(-1127.008 -2124.206)" fill="#d9a171"/>
        <path id="Trazado_100205" data-name="Trazado 100205" d="M1146.36,2134.441l-4.881.584s-1.6-3.269-2.616-10.819a9.03,9.03,0,0,0-2.5.393c-.786.349.085,8.8.085,8.8s-8.85.615-9.27,1.057c-.266.279-.16,1.589-.047,2.508a1.119,1.119,0,0,0,1.047.981l.311.018,1.573,8.309a1.233,1.233,0,0,0,1.367.993l8.19-1.048a4.034,4.034,0,0,0,2.179-1l.809-.724,5.091-.328Z" transform="translate(-1127.008 -2124.206)" fill="#fff" opacity="0.7" style="isolation: isolate"/>
      </g>
    </g>
    <g id="Grupo_53461" data-name="Grupo 53461" transform="translate(1071.037 2148.166)">
      <g id="_Group_" data-name="&lt;Group&gt;" transform="translate(86.54 0)">
        <path id="Trazado_100206" data-name="Trazado 100206" d="M1163.743,2192.786c-4.47-.169-21.9,28.208-21.9,28.208L1130,2218.759l-2.536,6.053s10.673,5.2,14.965,5.669,20.715-22.447,20.715-22.447Z" transform="translate(-1127.461 -2149.666)" fill="#d9a171"/>
        <path id="Trazado_100207" data-name="Trazado 100207" d="M1163.744,2192.781l-.6,15.25s-.4.553-1.085,1.479c-1.254,1.717-3.5,4.722-6.054,7.93-4.993,6.259-11.183,13.3-13.578,13.036-4.293-.464-14.967-5.66-14.967-5.66l2.541-6.055L1141.84,2221S1159.271,2192.612,1163.744,2192.781Z" transform="translate(-1127.461 -2149.666)" fill="#fff" opacity="0.2" style="isolation: isolate"/>
        <path id="Trazado_100208" data-name="Trazado 100208" d="M1161.337,2209.23c-1.254,1.717-3.5,4.722-6.054,7.93.09-6.054,5.389-13.578,5.389-13.578S1161.044,2206.044,1161.337,2209.23Z" transform="translate(-1126.738 -2149.385)" fill="#d9a171" opacity="0.2" style="isolation: isolate"/>
        <path id="Trazado_100209" data-name="Trazado 100209" d="M1196.328,2434.856h10.009a.724.724,0,0,1,.7.566l1.624,7.336a1.216,1.216,0,0,1-.938,1.442,1.246,1.246,0,0,1-.268.027c-3.238-.054-5.6-.253-9.663-.253-2.505,0-10.062.263-13.521.263s-3.91-3.417-2.495-3.732c6.352-1.383,11.131-3.3,13.164-5.125A1.994,1.994,0,0,1,1196.328,2434.856Z" transform="translate(-1126.069 -2143.372)" fill="#344154"/>
        <path id="Trazado_100210" data-name="Trazado 100210" d="M1154.955,2434.6h10.009a.721.721,0,0,1,.7.565l1.624,7.337a1.216,1.216,0,0,1-.937,1.442,1.238,1.238,0,0,1-.267.025c-3.239-.053-5.6-.251-9.664-.251-2.5,0-10.062.262-13.521.262s-3.909-3.416-2.494-3.731c6.351-1.384,11.131-3.3,13.165-5.126A1.986,1.986,0,0,1,1154.955,2434.6Z" transform="translate(-1127.144 -2143.379)" fill="#344154"/>
        <path id="Trazado_100211" data-name="Trazado 100211" d="M1202.5,2254.015h-43.731c-4.158,22.705-17.173,114.9-7.836,186.494h14.805s-1.371-108.725,11.7-143.861c1.5,18.8,16.787,143.787,16.787,143.787H1209.3s-2.25-47.016-4.506-91.427C1203.373,2321.043,1202.564,2259.757,1202.5,2254.015Z" transform="translate(-1126.936 -2148.073)" fill="#344154"/>
        <path id="Trazado_100212" data-name="Trazado 100212" d="M1176.812,2295.965a117.3,117.3,0,0,0-4.884,18.918c-1.223-16.732,3.668-34.479,3.668-34.479Z" transform="translate(-1126.31 -2147.387)" fill="#d9a171" opacity="0.2" style="isolation: isolate"/>
        <path id="Trazado_100213" data-name="Trazado 100213" d="M1158.146,2254.526h44.02v5.24l-44.582-.541Z" transform="translate(-1126.678 -2148.06)" fill="#d9a171"/>
        <rect id="Rectángulo_5135" data-name="Rectángulo 5135" width="1.572" height="9.302" transform="translate(59.767 104.107)" fill="#344154"/>
        <rect id="Rectángulo_5136" data-name="Rectángulo 5136" width="1.572" height="9.302" transform="translate(37.495 104.107)" fill="#344154"/>
        <rect id="Rectángulo_5137" data-name="Rectángulo 5137" width="8.142" height="5.867" transform="translate(43.39 105.548)" fill="#fff"/>
        <g id="Grupo_53447" data-name="Grupo 53447" transform="translate(31.294 42.979)">
          <path id="Trazado_100214" data-name="Trazado 100214" d="M1202.291,2256.98c1.167-25.049,8.536-60.5,8.536-60.5-20.442-4.928-47.879-3.695-47.879-3.695-5.35,19.128-5.248,49.989-4.786,64.191Z" transform="translate(-1157.962 -2192.648)" fill="#d9a171"/>
          <path id="Trazado_100215" data-name="Trazado 100215" d="M1210.825,2196.479s-.824,3.965-1.965,10.178c-.543,2.96-1.164,6.439-1.8,10.245-.361,2.225-.746,4.553-1.107,6.959-.361,2.338-.722,4.744-1.062,7.184-1.209,8.7-2.225,17.86-2.609,25.936h-44.123c-.464-14.2-.554-45.061,4.789-64.2C1162.951,2192.785,1190.391,2191.554,1210.825,2196.479Z" transform="translate(-1157.962 -2192.648)" fill="#fff" opacity="0.2" style="isolation: isolate"/>
          <path id="Trazado_100216" data-name="Trazado 100216" d="M1207.669,2206.372c-.542,2.96-1.163,6.439-1.8,10.246-.361,2.226-.746,4.553-1.107,6.96-3.242-8.507,2.282-20,2.282-20Z" transform="translate(-1156.772 -2192.364)" fill="#d9a171" opacity="0.2" style="isolation: isolate"/>
        </g>
        <path id="Trazado_100217" data-name="Trazado 100217" d="M1177.148,2196.032l1.1,5.423s-6.314,26.335-7.671,40l2.3,2.3,3.62-2.3s.324-27.816,3.518-39.5l5.725-4.688-4.506-1.459Z" transform="translate(-1126.34 -2149.587)" fill="#344154"/>
        <path id="Trazado_100218" data-name="Trazado 100218" d="M1194.136,2194.2c-3.783,3.437-13.05,2.166-13.05,2.166s-5.783-1.583-4.569-3.39c3.407-.563,5.056-2.153,5.737-4.188a9.9,9.9,0,0,0,.346-3.891,20.434,20.434,0,0,0-.286-2.173l11.456-8.483C1192.268,2179.838,1190.432,2190.138,1194.136,2194.2Z" transform="translate(-1126.19 -2150.148)" fill="#fcc1bb"/>
        <path id="Trazado_100219" data-name="Trazado 100219" d="M1190.974,2179.493c-.454,6.875-6.1,8.771-8.869,9.155a9.9,9.9,0,0,0,.346-3.891Z" transform="translate(-1126.04 -2150.011)" fill="#d9a171" opacity="0.2" style="isolation: isolate"/>
        <g id="Grupo_53448" data-name="Grupo 53448" transform="translate(48.427 39.688)">
          <path id="Trazado_100220" data-name="Trazado 100220" d="M1192.491,2189.44l-10.951,4.938-.641-3.958-4.026,1.416a3.308,3.308,0,0,0-2.193,3.465l.454,4.344,5.556-3.041,2.767,3.915,13.153-6.335Z" transform="translate(-1174.662 -2189.44)" fill="#d9a171"/>
          <path id="Trazado_100221" data-name="Trazado 100221" d="M1192.491,2189.44l-10.951,4.938-.641-3.958-4.026,1.416a3.308,3.308,0,0,0-2.193,3.465l.454,4.344,5.556-3.041,2.767,3.915,13.153-6.335Z" transform="translate(-1174.662 -2189.44)" fill="#fff" opacity="0.3" style="isolation: isolate"/>
        </g>
        <g id="Grupo_53450" data-name="Grupo 53450" transform="translate(42.629)">
          <path id="Trazado_100222" data-name="Trazado 100222" d="M1170.444,2158.755s-1.71,11.029,4.134,15.292,5.906-16.281,5.906-16.281Z" transform="translate(-1168.978 -2150.576)" fill="#344154"/>
          <path id="Trazado_100223" data-name="Trazado 100223" d="M1191.534,2182.917a10.016,10.016,0,0,1-11.512,3.847,11.309,11.309,0,0,1-6.877-6.265c-2.863-6.752-3.743-18.551,3.4-22.949a10.861,10.861,0,0,1,16.559,8.229C1193.955,2173.666,1194.828,2178.262,1191.534,2182.917Z" transform="translate(-1168.957 -2150.625)" fill="#fcc1bb"/>
          <path id="Trazado_100224" data-name="Trazado 100224" d="M1181.368,2169.627c.151.624-.138,1.206-.562,1.276s-.839-.4-.949-1.029.15-1.209.562-1.276S1181.256,2168.983,1181.368,2169.627Z" transform="translate(-1168.728 -2150.295)" fill="#344154"/>
          <path id="Trazado_100225" data-name="Trazado 100225" d="M1174.35,2170.8c.151.624-.149,1.21-.562,1.278s-.838-.4-.949-1.029.15-1.21.562-1.278S1174.247,2170.2,1174.35,2170.8Z" transform="translate(-1168.911 -2150.264)" fill="#344154"/>
          <path id="Trazado_100226" data-name="Trazado 100226" d="M1176.646,2170.708a22.984,22.984,0,0,1-2.129,5.959,3.738,3.738,0,0,0,3.157.058Z" transform="translate(-1168.866 -2150.239)" fill="#eb827e"/>
          <path id="Trazado_100227" data-name="Trazado 100227" d="M1171.213,2168.256a.4.4,0,0,0,.39-.072,3.054,3.054,0,0,1,2.63-.765.377.377,0,0,0,.2-.727h0a3.756,3.756,0,0,0-3.328.921.376.376,0,0,0-.049.53l.006.007A.577.577,0,0,0,1171.213,2168.256Z" transform="translate(-1168.959 -2150.345)" fill="#344154"/>
          <path id="Trazado_100228" data-name="Trazado 100228" d="M1182.338,2166.591a.362.362,0,0,0,.2-.109.378.378,0,0,0-.121-.52l-.007,0a3.757,3.757,0,0,0-3.452-.292.377.377,0,0,0-.173.5h0a.387.387,0,0,0,.5.174h0a3.056,3.056,0,0,1,2.73.275A.387.387,0,0,0,1182.338,2166.591Z" transform="translate(-1168.757 -2150.378)" fill="#344154"/>
          <path id="Trazado_100229" data-name="Trazado 100229" d="M1185.355,2156.955l-.01,3.521a2.607,2.607,0,0,1,1.688,3.1c-.773,3.053,1.423,7.385,3.878,8.925,0,0-.081-1.274,1.022-1.1s1.592,6.8-.116,10.185c0,0,2.811-3.217,3.766-10.344.884-6.592.453-11.947-1.155-14.264Z" transform="translate(-1168.585 -2150.597)" fill="#344154"/>
          <path id="Trazado_100230" data-name="Trazado 100230" d="M1197.114,2171.336a7.546,7.546,0,0,1-3.635,4.479c-2.335,1.245-4.071-.709-3.906-3.213.168-2.223,1.562-5.62,4.145-5.807S1197.786,2168.976,1197.114,2171.336Z" transform="translate(-1168.476 -2150.341)" fill="#fcc1bb"/>
          <g id="Grupo_53449" data-name="Grupo 53449" transform="translate(9.635 25.911)">
            <path id="Trazado_100231" data-name="Trazado 100231" d="M1178.4,2178.523a20.85,20.85,0,0,1,1.468,2.632c.172-.046.343-.091.511-.146,2.308-.677,3.156-1.754,3.395-2.742a3.11,3.11,0,0,0-.034-1.469,3,3,0,0,0-.3-.784,11.332,11.332,0,0,1-4.254,2.266C1178.708,2178.444,1178.4,2178.523,1178.4,2178.523Z" transform="translate(-1178.4 -2176.013)" fill="#344154"/>
            <path id="Trazado_100232" data-name="Trazado 100232" d="M1179.164,2178.28l.453.764c2.173-.643,3.617-1.387,4.1-2.247a3,3,0,0,0-.3-.784A11.333,11.333,0,0,1,1179.164,2178.28Z" transform="translate(-1178.38 -2176.013)" fill="#fff"/>
            <path id="Trazado_100233" data-name="Trazado 100233" d="M1180.329,2180.952c2.308-.677,3.156-1.754,3.395-2.743a7.712,7.712,0,0,0-2.414,1.26A2.9,2.9,0,0,0,1180.329,2180.952Z" transform="translate(-1178.35 -2175.956)" fill="#fd5652"/>
          </g>
          <path id="Trazado_100234" data-name="Trazado 100234" d="M1194.327,2158.777s3.788-4.616-5.3-7.447-22.363,5.606-19.663,8.937,12,1.937,12,1.937a7.058,7.058,0,0,1-3.551-1.49S1191.282,2161.608,1194.327,2158.777Z" transform="translate(-1169.01 -2150.758)" fill="#344154"/>
        </g>
        <path id="Trazado_100235" data-name="Trazado 100235" d="M1209.59,2196.386c5.75,1.946,9.69,37.735,9.619,40.844s-8.885,4.451-9.617-2.029-3.766-20.333-3.766-20.333-.8-6.256,0-10.054S1209.59,2196.386,1209.59,2196.386Z" transform="translate(-1125.433 -2149.572)" fill="#d9a171"/>
        <path id="Trazado_100236" data-name="Trazado 100236" d="M1209.59,2196.386c5.75,1.946,9.69,37.735,9.619,40.844s-8.885,4.451-9.617-2.029-3.766-20.333-3.766-20.333-.8-6.256,0-10.054S1209.59,2196.386,1209.59,2196.386Z" transform="translate(-1125.433 -2149.572)" fill="#fff" opacity="0.2" style="isolation: isolate"/>
      </g>
      <g id="Grupo_53460" data-name="Grupo 53460" transform="translate(0 64.991)">
        <rect id="Rectángulo_5138" data-name="Rectángulo 5138" width="202.017" height="140.527" transform="matrix(0.994, 0.108, -0.108, 0.994, 15.116, 0)" fill="#d9a171"/>
        <rect id="Rectángulo_5139" data-name="Rectángulo 5139" width="202.017" height="140.527" transform="matrix(0.994, 0.108, -0.108, 0.994, 15.116, 0)" fill="#fff" opacity="0.6" style="isolation: isolate"/>
        <rect id="Rectángulo_5140" data-name="Rectángulo 5140" width="130.995" height="191.731" transform="translate(210.335 25.915) rotate(96.175)" fill="none" stroke="#6595bf" stroke-miterlimit="10" stroke-width="1"/>
        <path id="Trazado_100237" data-name="Trazado 100237" d="M1254.917,2248.073l1.1-10.153-10.153-1.1-.427,3.951-175.1-18.945.428-3.951-10.154-1.1-1.1,10.154,4.058.439-12.388,114.5-4.059-.439-1.1,10.154,10.153,1.1.427-3.951,175.1,18.945-.427,3.951,10.153,1.1,1.1-10.153-4.059-.439,12.388-114.5Z" transform="translate(-1043.039 -2214.033)" fill="none" stroke="#6595bf" stroke-miterlimit="10" stroke-width="1"/>
        <g id="Grupo_53451" data-name="Grupo 53451" transform="translate(8.535 8.318)">
          <g id="Rectángulo_5141" data-name="Rectángulo 5141" transform="translate(13.497 0) rotate(6.173)" fill="none" stroke="#6595bf" stroke-miterlimit="10" stroke-width="1">
            <rect width="2.346" height="2.346" stroke="none"/>
            <rect x="-0.5" y="-0.5" width="3.346" height="3.346" fill="none"/>
          </g>
          <g id="Rectángulo_5142" data-name="Rectángulo 5142" transform="matrix(0.994, 0.108, -0.108, 0.994, 0.252, 122.415)" fill="none" stroke="#6595bf" stroke-miterlimit="10" stroke-width="1">
            <rect width="2.346" height="2.346" stroke="none"/>
            <rect x="-0.5" y="-0.5" width="3.346" height="3.346" fill="none"/>
          </g>
          <g id="Rectángulo_5143" data-name="Rectángulo 5143" transform="matrix(0.994, 0.108, -0.108, 0.994, 196.558, 19.806)" fill="none" stroke="#6595bf" stroke-miterlimit="10" stroke-width="1">
            <rect width="2.346" height="2.346" stroke="none"/>
            <rect x="-0.5" y="-0.5" width="3.346" height="3.346" fill="none"/>
          </g>
          <g id="Rectángulo_5144" data-name="Rectángulo 5144" transform="translate(183.313 142.221) rotate(6.173)" fill="none" stroke="#6595bf" stroke-miterlimit="10" stroke-width="1">
            <rect width="2.346" height="2.346" stroke="none"/>
            <rect x="-0.5" y="-0.5" width="3.346" height="3.346" fill="none"/>
          </g>
        </g>
        <path id="Trazado_100238" data-name="Trazado 100238" d="M1197.941,2285.614l-93.885-10.157a4,4,0,1,0-.86,7.945l93.885,10.158a4,4,0,0,0,.86-7.947Z" transform="translate(-1041.645 -2212.508)" fill="#fff" opacity="0.6" style="isolation: isolate"/>
        <g id="Grupo_53452" data-name="Grupo 53452" transform="translate(35.328 74.619)">
          <line id="Línea_158" data-name="Línea 158" x1="143.309" y1="15.505" transform="translate(0.486 3.085)" fill="none" stroke="#6595bf" stroke-linecap="round" stroke-linejoin="round" stroke-width="1"/>
          <line id="Línea_159" data-name="Línea 159" x1="132.078" y1="14.29" transform="translate(12.182)" fill="none" stroke="#6595bf" stroke-linecap="round" stroke-linejoin="round" stroke-width="1"/>
          <line id="Línea_160" data-name="Línea 160" x1="87.155" y1="9.43" transform="translate(0 7.577)" fill="none" stroke="#6595bf" stroke-linecap="round" stroke-linejoin="round" stroke-width="1"/>
        </g>
        <g id="Grupo_53453" data-name="Grupo 53453" transform="translate(38.122 44.296)">
          <line id="Línea_161" data-name="Línea 161" x2="132.078" y2="14.29" transform="translate(12.668)" fill="none" stroke="#6595bf" stroke-linecap="round" stroke-linejoin="round" stroke-width="1"/>
          <line id="Línea_162" data-name="Línea 162" x2="143.309" y2="15.505" transform="translate(0.972 3.085)" fill="none" stroke="#6595bf" stroke-linecap="round" stroke-linejoin="round" stroke-width="1"/>
          <line id="Línea_163" data-name="Línea 163" x2="64.694" y2="6.999" transform="translate(0 12.069)" fill="none" stroke="#6595bf" stroke-linecap="round" stroke-linejoin="round" stroke-width="1"/>
          <line id="Línea_164" data-name="Línea 164" x2="143.309" y2="15.505" transform="translate(0.486 7.577)" fill="none" stroke="#6595bf" stroke-linecap="round" stroke-linejoin="round" stroke-width="1"/>
        </g>
        <g id="Grupo_53456" data-name="Grupo 53456" transform="translate(144.678 101.284)">
          <g id="Grupo_53454" data-name="Grupo 53454" transform="translate(6.58 17.247)">
            <path id="Trazado_100239" data-name="Trazado 100239" d="M1203.115,2352.268l-5.924-4.05-6.653,2.689,2.3-21.278,12.576,1.361Z" transform="translate(-1190.539 -2329.63)" fill="#d9a171"/>
            <path id="Trazado_100240" data-name="Trazado 100240" d="M1203.115,2352.268l-5.924-4.05-6.653,2.689,2.3-21.278,12.576,1.361Z" transform="translate(-1190.539 -2329.63)" fill="#d9a171" opacity="0.2" style="isolation: isolate"/>
          </g>
          <path id="Trazado_100241" data-name="Trazado 100241" d="M1201.06,2314.444l2.079-1.207,1.313,2.013,2.314-.652.771,2.277,2.4-.056.181,2.4,2.341.543-.421,2.366,2.133,1.108-1,2.188,1.79,1.6-1.509,1.871,1.335,2-1.927,1.437.8,2.268-2.224.913.207,2.395-2.381.331-.4,2.371-2.388-.272-.972,2.2-2.246-.857-1.488,1.887-1.962-1.389-1.911,1.458-1.555-1.833-2.214.937-1.05-2.162-2.377.357-.48-2.356-2.391-.245.121-2.4-2.255-.833.714-2.295-1.977-1.367,1.263-2.046-1.575-1.816,1.732-1.667-1.074-2.151,2.092-1.184-.505-2.35,2.321-.627.095-2.4,2.4-.03.689-2.3,2.335.569,1.24-2.059,2.121,1.132,1.713-1.686Z" transform="translate(-1184.126 -2312.82)" fill="#d9a171"/>
          <path id="Trazado_100242" data-name="Trazado 100242" d="M1200.679,2317.163l1.659-.964,1.049,1.608,1.847-.521.616,1.818,1.919-.044.144,1.914,1.87.434-.336,1.89,1.7.885-.8,1.747,1.429,1.281-1.205,1.494,1.066,1.6-1.539,1.147.636,1.811-1.776.729.165,1.912-1.9.264-.315,1.893-1.907-.217-.776,1.755-1.793-.684-1.189,1.507-1.567-1.109-1.526,1.164-1.242-1.464-1.768.748-.839-1.726-1.9.285-.383-1.881-1.909-.2.1-1.917-1.8-.665.57-1.832-1.579-1.092,1.008-1.633-1.257-1.449,1.383-1.332-.858-1.717,1.67-.945-.4-1.876,1.853-.5.076-1.917,1.919-.024.55-1.839,1.865.454.99-1.644,1.693.9,1.368-1.346Z" transform="translate(-1184.047 -2312.741)" fill="#fff" opacity="0.2" style="isolation: isolate"/>
          <g id="Grupo_53455" data-name="Grupo 53455" transform="translate(10.073 11.45)">
            <path id="Trazado_100243" data-name="Trazado 100243" d="M1199.312,2328.969l1.43.155-.1.962-1.546-.167-.417,1.777-.964-.1.417-1.777-1.79-.194-.417,1.778-.965-.105.418-1.776-1.43-.154.1-.963,1.546.167.448-1.859-1.429-.154.1-.965,1.545.167.418-1.776.964.1-.417,1.776,1.779.192.417-1.776.964.1-.417,1.776,1.42.152-.094.965-1.546-.167Zm-.963-.1.437-1.859-1.78-.193-.448,1.86Z" transform="translate(-1193.944 -2323.98)" fill="#d9a171"/>
            <path id="Trazado_100244" data-name="Trazado 100244" d="M1204.662,2324.851l-.8,7.413-1.376-.149.677-6.26-1.568-.169.125-1.154Z" transform="translate(-1193.745 -2323.966)" fill="#d9a171"/>
          </g>
        </g>
        <g id="Grupo_53457" data-name="Grupo 53457" transform="translate(33.214 95.158)">
          <path id="Trazado_100245" data-name="Trazado 100245" d="M1088.773,2307.276h0a1.1,1.1,0,0,1,1.467.349h0a1.1,1.1,0,0,0,1.216.457h0a1.1,1.1,0,0,1,1.335.7h0a1.1,1.1,0,0,0,1.063.744h0a1.1,1.1,0,0,1,1.119,1.014h0a1.1,1.1,0,0,0,.845.985h0a1.1,1.1,0,0,1,.831,1.259h0a1.1,1.1,0,0,0,.574,1.165h0a1.1,1.1,0,0,1,.491,1.426h0a1.1,1.1,0,0,0,.266,1.27h0a1.1,1.1,0,0,1,.122,1.5h0a1.1,1.1,0,0,0-.058,1.3h0a1.094,1.094,0,0,1-.257,1.487h0a1.1,1.1,0,0,0-.379,1.241h0a1.1,1.1,0,0,1-.618,1.376h0a1.1,1.1,0,0,0-.676,1.108h0a1.1,1.1,0,0,1-.941,1.18h0a1.1,1.1,0,0,0-.929.905h0a1.1,1.1,0,0,1-1.2.909h0a1.1,1.1,0,0,0-1.127.645h0a1.1,1.1,0,0,1-1.392.581h0a1.094,1.094,0,0,0-1.251.344h0a1.1,1.1,0,0,1-1.494.216h0a1.1,1.1,0,0,0-1.3.023h0a1.1,1.1,0,0,1-1.5-.162h0a1.1,1.1,0,0,0-1.262-.3h0a1.094,1.094,0,0,1-1.413-.53h0a1.1,1.1,0,0,0-1.148-.6h0a1.1,1.1,0,0,1-1.236-.865h0a1.1,1.1,0,0,0-.962-.871h0a1.1,1.1,0,0,1-.982-1.145h0a1.1,1.1,0,0,0-.715-1.083h0a1.1,1.1,0,0,1-.667-1.354h0a1.1,1.1,0,0,0-.423-1.227h0a1.1,1.1,0,0,1-.31-1.477h0a1.093,1.093,0,0,0-.1-1.293h0a1.1,1.1,0,0,1,.068-1.508h0a1.093,1.093,0,0,0,.221-1.278h0a1.1,1.1,0,0,1,.441-1.444h0a1.1,1.1,0,0,0,.532-1.184h0a1.1,1.1,0,0,1,.785-1.288h0a1.1,1.1,0,0,0,.809-1.015h0a1.1,1.1,0,0,1,1.081-1.052h0a1.1,1.1,0,0,0,1.036-.781h0a1.1,1.1,0,0,1,1.309-.751h0a1.1,1.1,0,0,0,1.2-.5h0a1.1,1.1,0,0,1,1.455-.4h0a1.1,1.1,0,0,0,1.285-.186h0a1.1,1.1,0,0,1,1.508-.027h0A1.1,1.1,0,0,0,1088.773,2307.276Z" transform="translate(-1075.487 -2306.849)" fill="#d9a171"/>
          <circle id="Elipse_3972" data-name="Elipse 3972" cx="9.459" cy="9.459" r="9.459" transform="translate(1.977 2.03)" fill="#fff" opacity="0.2" style="isolation: isolate"/>
          <path id="Trazado_100246" data-name="Trazado 100246" d="M1087.263,2313.469l1.192,3.257,3.359.865-2.73,2.14.215,3.461-2.879-1.935-3.226,1.274.951-3.336-2.209-2.674,3.466-.127Z" transform="translate(-1075.319 -2306.677)" fill="#d9a171"/>
        </g>
        <g id="Grupo_53459" data-name="Grupo 53459" transform="translate(63.207 94.258)">
          <circle id="Elipse_3973" data-name="Elipse 3973" cx="11.482" cy="11.482" r="11.482" transform="matrix(0.779, -0.627, 0.627, 0.779, 0, 14.397)" fill="#d9a171"/>
          <path id="Trazado_100247" data-name="Trazado 100247" d="M1129.283,2322.857a8.659,8.659,0,1,1-7.678-9.541A8.658,8.658,0,0,1,1129.283,2322.857Z" transform="translate(-1104.53 -2305.782)" fill="#fff" opacity="0.2" style="isolation: isolate"/>
          <g id="Grupo_53458" data-name="Grupo 53458" transform="translate(6.199 6.2)" opacity="0.2" style="isolation: isolate">
            <path id="Trazado_100248" data-name="Trazado 100248" d="M1119.637,2331.845a9.944,9.944,0,1,1,10.956-8.817A9.955,9.955,0,0,1,1119.637,2331.845Zm2.075-19.17a9.338,9.338,0,1,0,8.279,10.288A9.348,9.348,0,0,0,1121.711,2312.675Z" transform="translate(-1110.762 -2312.014)" fill="#fff"/>
          </g>
          <path id="Trazado_100249" data-name="Trazado 100249" d="M1122.417,2322.2l-1.446-3.89-2.244,3.49-3.6-3.807.866,6.847,2.144.232,1.865.2.425.046,1.865.2,2.144.232,2.311-6.5Z" transform="translate(-1104.449 -2305.659)" fill="#d9a171"/>
        </g>
      </g>
      <path id="Trazado_100250" data-name="Trazado 100250" d="M1126.183,2224.168l2.532-2.323,2.077.225.381-2.95-3.712-.857s-5.169-.7-6.957-.713c-.745,0-1.62,0-3.706,4.586C1116.429,2222.95,1126.183,2224.168,1126.183,2224.168Z" transform="translate(-1041.199 -2149.022)" fill="#fcc1bb"/>
      <path id="Trazado_100251" data-name="Trazado 100251" d="M1207.574,2230.388a16.861,16.861,0,0,1,1.965-3.281c.686-.6,6.948.783,7.985,1.64s.553,2.777.553,2.777-1.744,2.733-2.937,2.584-7.239-.448-7.567-.895S1207.574,2230.388,1207.574,2230.388Z" transform="translate(-1038.843 -2148.777)" fill="#fcc1bb"/>
    </g>
  </g>
</svg>
