<svg xmlns="http://www.w3.org/2000/svg" width="737.845" height="444.585" viewBox="0 0 737.845 444.585">
  <g id="Grupo_53409" data-name="Grupo 53409" transform="translate(-269.358 -707.429)">
    <g id="freepik--background-complete--inject-241">
      <path id="Trazado_99941" data-name="Trazado 99941" d="M486.19,1107.509v42.72H617.56v-42.72Z" fill="#f5f5f5"/>
      <path id="Trazado_99942" data-name="Trazado 99942" d="M480.68,1095.569v11.94H622.15v-11.94H480.68Z" fill="#6595bf"/>
      <path id="Trazado_99943" data-name="Trazado 99943" d="M551.42,1150.229h66.14v-42.72h4.59v-11.94H548.66v10.84Z" fill="#6595bf"/>
      <rect id="Rectángulo_5113" data-name="Rectángulo 5113" width="26.64" height="6.43" transform="translate(504.56 1114.399)" fill="#6595bf"/>
      <rect id="Rectángulo_5114" data-name="Rectángulo 5114" width="34.21" height="13.58" transform="translate(501.13 1128.869)" fill="#fff"/>
      <path id="Trazado_99944" data-name="Trazado 99944" d="M501.27,1062.749v32.82H602.19v-32.82Z" fill="#f5f5f5"/>
      <path id="Trazado_99945" data-name="Trazado 99945" d="M497.04,1053.579v9.17H605.71v-9.17H497.04Z" fill="#6595bf"/>
      <path id="Trazado_99946" data-name="Trazado 99946" d="M551.38,1095.569h50.81v-32.82h3.52v-9.17H549.26v8.33Z" fill="#ebebeb"/>
      <rect id="Rectángulo_5115" data-name="Rectángulo 5115" width="20.46" height="4.94" transform="translate(515.39 1068.049)" fill="#6595bf"/>
      <rect id="Rectángulo_5116" data-name="Rectángulo 5116" width="26.28" height="10.43" transform="translate(512.75 1079.159)" fill="#fff"/>
      <g id="Grupo_53401" data-name="Grupo 53401">
        <path id="Trazado_99947" data-name="Trazado 99947" d="M788.41,1149.119c-22.09-15.1-27.36-43.48-26.76-69.06.1-4.26-.42-8.76,1.57-12.52s6.71-6.38,10.54-4.62c3.19,1.46,4.61,5.13,6.41,8.16a25.011,25.011,0,0,0,10.11,9.46c2.73,1.38,6.1,2.21,8.77.7,3.66-2.07,4-7.16,4-11.4q-.189-11.871-.4-23.73c-.07-4.24-.12-8.58,1.15-12.62s4.16-7.81,8.19-9,9,1.11,9.93,5.25c.38,1.73,0,3.53.18,5.29s1,3.7,2.66,4.17,3.38-.74,4.64-2c4.33-4.33,7.25-9.88,10-15.4s5.36-11.16,9.28-15.88,9.39-8.47,15.46-8.88,12.59,3.28,14.19,9.23-1.83,12.07-5.57,16.95a94.616,94.616,0,0,1-19.53,19c-1.33,1-2.77,2-3.26,3.58-.9,2.84,1.81,5.62,4.62,6.52,3.17,1,6.6.66,9.91,1s6.92,1.77,8.2,4.89c1.78,4.32-1.8,8.9-5.34,11.92a81.137,81.137,0,0,1-23.87,14.11c-3.11,1.18-6.38,2.21-8.88,4.43s-4,6.05-2.42,9,5.47,3.9,8.73,3.26,6.17-2.45,9.28-3.66c5.8-2.26,13.34-1.94,17.13,3.07,2.49,3.28,2.75,7.89,1.55,11.86s-3.68,7.39-6.32,10.55c-9.24,11.07-21.11,20-34.59,24.85s-26,6.23-39.5,1.46" fill="#aed3f2"/>
        <path id="Trazado_99948" data-name="Trazado 99948" d="M794.84,1133.049a380.568,380.568,0,0,1,14.67-41.1q2.22-5.351,4.4-10.57c1.45-3.47,2.89-6.91,4.5-10.19a191.331,191.331,0,0,1,10.37-18.29c3.58-5.66,7.18-10.9,10.58-15.78s6.68-9.35,9.84-13.31a152.128,152.128,0,0,1,16.25-17.54c2.08-1.91,3.73-3.34,4.87-4.3l1.3-1.08a3.179,3.179,0,0,1,.46-.34,3,3,0,0,1-.41.41l-1.25,1.16c-1.1,1-2.72,2.46-4.76,4.41a159.766,159.766,0,0,0-16,17.66c-3.12,4-6.35,8.46-9.74,13.34s-6.95,10.13-10.51,15.79a192.851,192.851,0,0,0-10.28,18.25c-1.6,3.26-3,6.67-4.48,10.14l-4.39,10.58a390.766,390.766,0,0,0-14.7,41" fill="#6595bf"/>
        <path id="Trazado_99949" data-name="Trazado 99949" d="M818.64,1071.119a8.452,8.452,0,0,1-.44-1.8c-.23-1.18-.52-2.88-.84-5-.64-4.22-1.33-10.08-2.07-16.54s-1.51-12.29-2.21-16.49c-.35-2.1-.65-3.8-.87-5a7.938,7.938,0,0,1-.25-1.84,9.149,9.149,0,0,1,.55,1.78c.31,1.15.69,2.84,1.11,4.93.85,4.19,1.71,10,2.45,16.5l1.84,16.55c.24,2,.44,3.67.59,5A8.792,8.792,0,0,1,818.64,1071.119Z" fill="#6595bf"/>
        <path id="Trazado_99950" data-name="Trazado 99950" d="M873.1,1060.4a12.679,12.679,0,0,1-2.18.28c-1.4.14-3.42.33-5.92.65-5,.59-11.85,1.64-19.38,3.14s-14.28,3.18-19.12,4.52c-2.43.65-4.39,1.23-5.74,1.63a11.455,11.455,0,0,1-2.12.54,11.24,11.24,0,0,1,2-.84c1.32-.48,3.26-1.14,5.67-1.87,4.83-1.48,11.58-3.23,19.13-4.75a193.2,193.2,0,0,1,19.53-2.93c2.51-.25,4.54-.35,5.95-.4A11.331,11.331,0,0,1,873.1,1060.4Z" fill="#6595bf"/>
        <path id="Trazado_99951" data-name="Trazado 99951" d="M795.5,1132.039a2.324,2.324,0,0,1-.38-.66c-.26-.53-.57-1.18-1-2-.82-1.71-1.94-4.22-3.28-7.33-2.7-6.22-6.16-14.94-9.84-24.6s-7.03-18.33-9.58-24.64l-3.06-7.42-.82-2a3.291,3.291,0,0,1-.24-.73,2.48,2.48,0,0,1,.38.66l1,2c.82,1.71,1.94,4.22,3.29,7.33,2.7,6.22,6.15,14.94,9.84,24.61s7.05,18.4,9.61,24.67l3.06,7.42.82,2A3.246,3.246,0,0,1,795.5,1132.039Z" fill="#6595bf"/>
        <path id="Trazado_99952" data-name="Trazado 99952" d="M867.76,1107.919a2.644,2.644,0,0,1-.71.3l-2.1.73-7.74,2.6c-6.53,2.19-15.52,5.33-25.45,8.8s-19,6.54-25.54,8.6c-3.29,1-6,1.83-7.82,2.35l-2.14.59a2.431,2.431,0,0,1-.76.15,3.11,3.11,0,0,1,.72-.3l2.09-.73,7.74-2.6c6.54-2.19,15.53-5.32,25.46-8.8s18.95-6.53,25.53-8.59c3.29-1,6-1.84,7.82-2.36l2.11-.54A2.887,2.887,0,0,1,867.76,1107.919Z" fill="#6595bf"/>
      </g>
      <path id="Trazado_99953" data-name="Trazado 99953" d="M853.135,772.959a10.241,10.241,0,0,0,6.1-9.47c0-5.65-4.26-10.25-9.56-10.28s-9.62,4.54-9.64,10.19a10.21,10.21,0,0,0,6.12,9.56c-14.77,2.23-14.1,18.28-14.1,18.28l34.93.16S867.775,775.169,853.135,772.959Z" fill="#6595bf"/>
      <path id="Trazado_99954" data-name="Trazado 99954" d="M848.025,896.539a15.957,15.957,0,0,1,3.85-1.67l.8-3.82,6.45-.12.93,3.79a15.733,15.733,0,0,1,3.91,1.54l3.26-2.14,4.64,4.49-2,3.33a15.741,15.741,0,0,1,1.68,3.86l3.82.79.11,6.45-3.79.93a15.617,15.617,0,0,1-1.54,3.92l2.14,3.26-4.45,4.64-3.34-2a16.053,16.053,0,0,1-3.85,1.67l-.8,3.82-6.45.11-.93-3.78a16.158,16.158,0,0,1-3.91-1.54l-3.26,2.13-4.64-4.48,2-3.33a15.7,15.7,0,0,1-1.68-3.86l-3.82-.79-.11-6.45,3.79-.93a15.526,15.526,0,0,1,1.54-3.92l-2.17-3.32,4.48-4.64,3.34,2Zm3.43,8.6a5.01,5.01,0,1,0,.005-.025l-.005.005Z" fill="#6595bf"/>
      <path id="Trazado_99955" data-name="Trazado 99955" d="M851.455,905.119a5.545,5.545,0,0,1,1.29-1.14,7,7,0,0,1,10.7,4.74,6.916,6.916,0,0,1,0,2.13,7.051,7.051,0,0,1-5.84,6.05,6.68,6.68,0,0,1-2.14,0,6.449,6.449,0,0,1-2-.57,7,7,0,0,1-3.567-9.235,6.836,6.836,0,0,1,.4-.765,5.364,5.364,0,0,1,1.08-1.32,8.479,8.479,0,0,0-.95,1.4,6.886,6.886,0,0,0-.76,4.43,6.778,6.778,0,0,0,3.95,5.12,6.433,6.433,0,0,0,1.86.52,6.575,6.575,0,0,0,2,0,6.722,6.722,0,0,0,5.52-5.72,6.507,6.507,0,0,0-.58-3.85,6.888,6.888,0,0,0-2.33-2.68,6.787,6.787,0,0,0-2.92-1.08,6.875,6.875,0,0,0-4.33.97A15.175,15.175,0,0,0,851.455,905.119Z" fill="#6595bf"/>
      <path id="Trazado_99956" data-name="Trazado 99956" d="M848.025,896.539a.839.839,0,0,1-.22-.11l-.64-.37-2.51-1.48h.08l-4.46,4.66v-.12c.66,1,1.38,2.08,2.15,3.25v.12a15.857,15.857,0,0,0-1.52,3.89v.07h-.08l-3.79.94.11-.14c0,2,.08,4.19.13,6.45l-.12-.15,3.81.79h.1v.1a15.747,15.747,0,0,0,1.66,3.81l.06.09-.06.09-2,3.33v-.22c1.46,1.41,3,2.93,4.65,4.48h-.23l3.26-2.14.09-.06h.1a15.462,15.462,0,0,0,3.87,1.52h.11v.11l.93,3.79-.19-.15,6.45-.12-.19.16.79-3.82v-.12h.11a15.715,15.715,0,0,0,3.81-1.65h0l.11-.07.1.07,3.33,2h-.24q2.259-2.351,4.48-4.64v.24l-2.13-3.26-.07-.1.06-.1a15.567,15.567,0,0,0,1.53-3.86v-.12h.12l3.78-.92-.14.19c0-2.21-.07-4.36-.11-6.45l.15.17-3.82-.8h-.1v-.1a15.785,15.785,0,0,0-1.65-3.82l-.06-.09.06-.09,2-3.33v.2q-2.441-2.351-4.63-4.49h.18l-3.26,2.13-.07.05h-.08a15.7,15.7,0,0,0-3.87-1.54h-.08v-.08c-.33-1.37-.63-2.62-.92-3.79l.12.09-6.45.09.08-.07c-.321,1.52-.59,2.77-.81,3.81h0a15.97,15.97,0,0,0-2.951,1.13l-.69.36a1.07,1.07,0,0,1-.23.12l.21-.14c.15-.1.37-.23.68-.4a16.206,16.206,0,0,1,2.95-1.2h0l.77-3.82v-.07h.08l6.45-.14h.09v.09l.94,3.78-.09-.09a15.4,15.4,0,0,1,3.931,1.64h-.15l3.26-2.14.1-.07.09.09,4.65,4.47.09.09-.07.11-2,3.34v-.18a16.093,16.093,0,0,1,1.7,3.9l-.14-.13,3.82.79h.15v.15q.06,3.15.12,6.45v.15h-.15l-3.78.93.14-.14a16.337,16.337,0,0,1-1.56,4v-.2c.71,1.07,1.42,2.16,2.14,3.26l.09.13-.11.11-4.48,4.64-.11.12-.14-.08-3.33-2h.2a16.039,16.039,0,0,1-3.9,1.69l.14-.15c-.27,1.31-.54,2.61-.8,3.82v.15h-.17l-6.46.11h-.15v-.15l-.92-3.79.14.14a15.911,15.911,0,0,1-4-1.56h.19l-3.26,2.14-.12.08-.11-.1-4.64-4.49-.1-.1.08-.12,2-3.33v.18a16.249,16.249,0,0,1-1.69-3.9l.13.11-3.82-.8h-.12v-.12c0-2.26-.07-4.42-.1-6.45v-.15h.11l3.79-.92-.1.1a15.412,15.412,0,0,1,1.57-3.94v.12l-2.12-3.27-.05-.07.06-.06,4.51-4.61h0l2.46,1.52.63.41Z" fill="#6595bf"/>
      <path id="Trazado_99957" data-name="Trazado 99957" d="M423.378,773.649a7.537,7.537,0,0,0,7.12-1.54c1.23,1.78,2.8,3.9,4.57,6.15q1.47,1.86,2.82,3.47a7.7,7.7,0,0,0-4,9.08c-1.67.52-3.56,1.16-5.57,1.9-1.79.65-3.44,1.31-4.91,1.92a7.72,7.72,0,1,0,0,4.55,7.566,7.566,0,0,0,.32-2.65c1.62-.51,3.42-1.12,5.35-1.82s4-1.52,5.59-2.22a7.73,7.73,0,1,0,5.21-11.41c-.94-1.29-2-2.68-3.15-4.14-1.83-2.33-3.57-4.4-5-6.05a9.127,9.127,0,0,0,1.56-2.93c1.4-4.43-.77-9.06-4.84-10.34s-8.49,1.27-9.89,5.69S419.308,772.359,423.378,773.649Z" fill="#6595bf"/>
      <path id="Trazado_99958" data-name="Trazado 99958" d="M358.789,921.083l7.8,9.62a1.413,1.413,0,0,0,1.21.52l12.34-1a1.43,1.43,0,0,1,1.31,2.2l-6.73,10.39a1.411,1.411,0,0,0-.12,1.32l4.74,11.43a1.43,1.43,0,0,1-1.67,1.96l-12-3.2a1.428,1.428,0,0,0-1.3.3l-9.41,8a1.42,1.42,0,0,1-2.34-1l-.66-12.36a1.448,1.448,0,0,0-.68-1.14l-10.56-6.46a1.43,1.43,0,0,1,.23-2.55l11.64-4.42a1.426,1.426,0,0,0,.88-1l2.88-12a1.43,1.43,0,0,1,2.44-.61Z" fill="#6595bf"/>
      <path id="Trazado_99959" data-name="Trazado 99959" d="M754.295,973.519a14,14,0,1,0-26,7.06h0v.05c.53.9,1.2,1.55,1.88,2.49l8.11,10.74a2.512,2.512,0,0,0,4,0l8-10.56a29.461,29.461,0,0,0,2-2.69h0A13.9,13.9,0,0,0,754.295,973.519Zm-14,6.08a6.15,6.15,0,1,1,6.15-6.15v.01a6.14,6.14,0,0,1-6.12,6.14Z" fill="#6595bf"/>
    </g>
    <g id="freepik--mind-map--inject-241">
      <path id="Trazado_99960" data-name="Trazado 99960" d="M648.142,905.426a3.873,3.873,0,0,1-.37.61l-1.15,1.69c-1,1.46-2.47,3.55-4.31,6.13-3.68,5.15-8.83,12.21-14.68,19.89s-11.31,14.52-15.43,19.34c-2.06,2.4-3.74,4.34-5,5.62l-1.4,1.48a4.723,4.723,0,0,1-.52.49,4.575,4.575,0,0,1,.44-.56l1.33-1.55c1.17-1.32,2.8-3.29,4.83-5.71,4-4.87,9.44-11.74,15.29-19.42s11.05-14.71,14.8-19.8l4.45-6c.51-.67.91-1.21,1.22-1.63A3.541,3.541,0,0,1,648.142,905.426Z" fill="#d9a171"/>
      <path id="Trazado_99961" data-name="Trazado 99961" d="M676.622,785.486c.14,0-.49,5.38-1.41,12s-1.78,11.91-1.92,11.89.49-5.38,1.41-12S676.482,785.466,676.622,785.486Z" fill="#d9a171"/>
      <path id="Trazado_99962" data-name="Trazado 99962" d="M855.562,763.169a6.832,6.832,0,0,1-.67.58c-.48.4-1.14.93-2,1.6l-143.95,66.077a4.39,4.39,0,0,1-.73.5,6.731,6.731,0,0,1,.67-.58l143.99-66.137,2-1.51A5.379,5.379,0,0,1,855.562,763.169Z" fill="#d9a171"/>
      <path id="Trazado_99963" data-name="Trazado 99963" d="M921.962,832.961c0,.14-121.29,13.6-151.53,15.955s-54.76,4.17-54.77,4,24.49-2.17,54.73-4.54S921.952,832.851,921.962,832.961Z" fill="#d9a171"/>
      <path id="Trazado_99964" data-name="Trazado 99964" d="M921.843,942.26c-.06.131-210.591-61.134-210.591-61.244S921.923,942.13,921.843,942.26Z" fill="#d9a171"/>
      <path id="Trazado_99965" data-name="Trazado 99965" d="M633.542,821.376a4.8,4.8,0,0,1-.51-.62s-142.85-64.814-143.9-66.5c-.51-.81-.91-1.47-1.21-1.95a3.563,3.563,0,0,1-.38-.7,5.97,5.97,0,0,1,.47.64l1.29,1.9c1.13,1.71,143.85,66.524,143.85,66.524A3.768,3.768,0,0,1,633.542,821.376Z" fill="#d9a171"/>
      <path id="Trazado_99966" data-name="Trazado 99966" d="M618.827,843.474c-.026.141-7.4-1.231-16.428-2.946s-16.309-3.337-16.341-3.463,7.383,1.183,16.428,2.946S618.858,843.353,618.827,843.474Z" fill="#d9a171"/>
      <path id="Trazado_99967" data-name="Trazado 99967" d="M616.432,858.846c0,.14-23-1.8-51.27-4.34S358.283,834.83,358.293,834.69s178.629,16.756,206.909,19.3S616.442,858.7,616.432,858.846Z" fill="#d9a171"/>
      <path id="Trazado_99968" data-name="Trazado 99968" d="M624.632,886.266c.06.13-13.57,6.06-30.44,13.25s-100.59,42.92-100.65,42.75,83.57-36.07,100.45-43.26S624.542,886.146,624.632,886.266Z" fill="#d9a171"/>
      <circle id="Elipse_3959" data-name="Elipse 3959" cx="49.97" cy="49.97" r="49.97" transform="translate(616.432 808.876)" fill="#d9a171"/>
      <g id="Grupo_53402" data-name="Grupo 53402" opacity="0.8">
        <circle id="Elipse_3960" data-name="Elipse 3960" cx="49.97" cy="49.97" r="49.97" transform="translate(616.432 808.876)" fill="#fff"/>
      </g>
      <path id="Trazado_99969" data-name="Trazado 99969" d="M683.2,846.116a19.85,19.85,0,1,0-21.66,25.57l1.49,4.78,16.59-5.2s-.74-2.71-1.45-5.12A19.821,19.821,0,0,0,683.2,846.116Z" fill="#d9a171"/>
      <path id="Trazado_99970" data-name="Trazado 99970" d="M673.592,873.086l-.06-.24a4.784,4.784,0,0,0-.13-.71c-.12-.63-.29-1.54-.47-2.73s-.4-2.65-.53-4.36a28.565,28.565,0,0,1,.08-5.81,18.954,18.954,0,0,1,.67-3.32,3.638,3.638,0,0,1,.93-1.56,2.07,2.07,0,0,1,1.82-.51,1.369,1.369,0,0,1,.84.57,1.435,1.435,0,0,1,.22,1,2.832,2.832,0,0,1-1.07,1.72,5.419,5.419,0,0,1-4,.95,5.5,5.5,0,0,1-3.66-2.33,4.079,4.079,0,0,1-.79-2.15,1.78,1.78,0,0,1,1.31-1.85,1.249,1.249,0,0,1,1.17.37,1.8,1.8,0,0,1,.52,1.12,3.859,3.859,0,0,1-.75,2.29,5.889,5.889,0,0,1-4,2.66,5.15,5.15,0,0,1-4.52-1.59,3,3,0,0,1-.84-2.25,1.45,1.45,0,0,1,1.5-1.4,1.418,1.418,0,0,1,.267.035,2,2,0,0,1,1.06.59,3.091,3.091,0,0,1,.63,1,5.8,5.8,0,0,1,.38,2.25,5.884,5.884,0,0,1-1.68,4,6,6,0,0,1-3.75,1.76,3.133,3.133,0,0,1-2-.37,1.519,1.519,0,0,1-.67-1.79,1.24,1.24,0,0,1,.72-.68,1.756,1.756,0,0,1,1-.11,2.845,2.845,0,0,1,1.56.94c.8.88,1.49,1.76,2.18,2.59,2.7,3.35,4.76,6.16,6.16,8.12.69,1,1.23,1.74,1.58,2.27l.41.59.13.21a1.532,1.532,0,0,1-.15-.19l-.43-.59-1.69-2.24c-1.42-1.94-3.5-4.73-6.22-8.06-.68-.83-1.39-1.71-2.17-2.57a2.737,2.737,0,0,0-1.46-.88,1.37,1.37,0,0,0-1.47.67,1.33,1.33,0,0,0,.6,1.54,3,3,0,0,0,1.86.34,5.8,5.8,0,0,0,3.61-1.71,5.675,5.675,0,0,0,1.61-3.85,5.494,5.494,0,0,0-.37-2.16,2.179,2.179,0,0,0-1.52-1.44,1.25,1.25,0,0,0-1,.21,1.275,1.275,0,0,0-.47.93,2.761,2.761,0,0,0,.78,2.07,4.92,4.92,0,0,0,4.3,1.51,5.684,5.684,0,0,0,3.85-2.55,3.641,3.641,0,0,0,.71-2.14,1.524,1.524,0,0,0-.45-1,1,1,0,0,0-.95-.31,1.385,1.385,0,0,0-.85.6,1.794,1.794,0,0,0-.28,1,4.064,4.064,0,0,0,.75,2,5.23,5.23,0,0,0,7.261,1.408l.1-.068a2.567,2.567,0,0,0,1-1.57,1.18,1.18,0,0,0-.9-1.34,1.859,1.859,0,0,0-1.63.45,3.424,3.424,0,0,0-.89,1.48,18.276,18.276,0,0,0-.68,3.29,29.908,29.908,0,0,0-.12,5.77c.13,1.71.32,3.16.49,4.35s.33,2.1.43,2.74a3.421,3.421,0,0,0,.11.71Z" fill="#344154"/>
      <path id="Trazado_99971" data-name="Trazado 99971" d="M679.3,874.766l-14.26,4.44a1.14,1.14,0,0,1-1.41-.74h0a1.12,1.12,0,0,1,.74-1.4l14.26-4.44a1.109,1.109,0,0,1,1.4.717l0,.013h0a1.12,1.12,0,0,1-.725,1.408Z" fill="#344154"/>
      <path id="Trazado_99972" data-name="Trazado 99972" d="M679.592,875.7l-14.26,4.44a1.139,1.139,0,0,0-.74,1.41,1.11,1.11,0,0,0,1.387.734l.013,0,1.57-.48,3.31,3.3a1.43,1.43,0,0,0,1.44.36l5.1-1.59a1.432,1.432,0,0,0,1-1.13l.79-4.57,1.07-.33a1.111,1.111,0,0,0,.734-1.388l0-.012a1.12,1.12,0,0,0-1.4-.744Z" fill="#344154"/>
      <g id="Grupo_53403" data-name="Grupo 53403" opacity="0.2">
        <path id="Trazado_99973" data-name="Trazado 99973" d="M648.322,843.736a14.748,14.748,0,0,1,3-3.7,10.737,10.737,0,0,1,2.65-1.76c.7-.3,1.13-.35,1.21-.21.19.31-1.09,1.27-2.62,3.17a16.34,16.34,0,0,0-2.34,17.51c1,2.23,2,3.49,1.7,3.75-.12.11-.51,0-1.11-.52a10.619,10.619,0,0,1-2.1-2.4,14.479,14.479,0,0,1-1.93-4.36,15.372,15.372,0,0,1-.38-5.89" fill="#fff"/>
      </g>
      <g id="Grupo_53404" data-name="Grupo 53404" opacity="0.2">
        <path id="Trazado_99974" data-name="Trazado 99974" d="M660,837.456c-1.2.37-2.36.37-2.69-.23-.15-.3,0-.7.32-1.1a3.667,3.667,0,0,1,1.66-1,3.71,3.71,0,0,1,1.93-.1c.51.13.84.4.88.74" fill="#fff"/>
      </g>
      <path id="Trazado_99975" data-name="Trazado 99975" d="M678.242,883.156h-1.07a8.5,8.5,0,0,0-2.52.44,8.683,8.683,0,0,0-2.26,1.19,9.2,9.2,0,0,1-.85.66,3.031,3.031,0,0,1,.75-.79,7.274,7.274,0,0,1,2.28-1.29,7.406,7.406,0,0,1,2.6-.39A3.274,3.274,0,0,1,678.242,883.156Z" fill="#455a64"/>
      <path id="Trazado_99976" data-name="Trazado 99976" d="M679.242,878.206c0,.07-2.55.92-5.72,1.91s-5.78,1.74-5.8,1.68,2.54-.92,5.72-1.91S679.222,878.146,679.242,878.206Z" fill="#455a64"/>
      <path id="Trazado_99977" data-name="Trazado 99977" d="M678.872,880.176a8.193,8.193,0,0,1-1.36.58c-.85.33-2,.75-3.36,1.18s-2.53.8-3.41,1a8.345,8.345,0,0,1-1.44.33,9.144,9.144,0,0,1,1.39-.5l3.38-1.1,3.38-1.11A10.682,10.682,0,0,1,678.872,880.176Z" fill="#455a64"/>
      <path id="Trazado_99978" data-name="Trazado 99978" d="M498.142,732.152a1.7,1.7,0,0,1,0-.39,10.058,10.058,0,0,0-.09-1.17l-.08-.86a6.46,6.46,0,0,0-.16-1,17.334,17.334,0,0,0-.52-2.53,23.468,23.468,0,0,0-2.73-6.49,24.351,24.351,0,0,0-29.25-10.38,25.5,25.5,0,0,0-3.17,1.4,24.461,24.461,0,0,0-3,1.92,25.464,25.464,0,0,0-2.75,2.34,27.312,27.312,0,0,0-2.42,2.8,24.247,24.247,0,0,0,0,28.73,30.8,30.8,0,0,0,2.38,2.82,28.89,28.89,0,0,0,2.76,2.34,25.521,25.521,0,0,0,3,1.92,26.638,26.638,0,0,0,3.17,1.39,24.324,24.324,0,0,0,29.25-10.37,23.486,23.486,0,0,0,2.73-6.5,17.155,17.155,0,0,0,.52-2.52c.06-.37.12-.71.16-1l.05-.85c0-.5.07-.88.09-1.17a1.909,1.909,0,0,1,0-.4v2.44a7.726,7.726,0,0,1-.14,1,17.078,17.078,0,0,1-.47,2.55,23.312,23.312,0,0,1-2.68,6.6,24.746,24.746,0,0,1-29.64,10.72,27.749,27.749,0,0,1-3.24-1.42,25.13,25.13,0,0,1-3-1.95,26.327,26.327,0,0,1-2.82-2.39,26.938,26.938,0,0,1-2.44-2.87,23.926,23.926,0,0,1-3.55-6.84,24.6,24.6,0,0,1,0-15.66,23.76,23.76,0,0,1,3.55-6.83,27.255,27.255,0,0,1,2.44-2.88,27.734,27.734,0,0,1,2.82-2.38,25.381,25.381,0,0,1,3-1.95,26.563,26.563,0,0,1,3.24-1.42,24.691,24.691,0,0,1,29.66,10.68,23.407,23.407,0,0,1,2.68,6.59,17.129,17.129,0,0,1,.47,2.56c.05.37.11.72.14,1a8.415,8.415,0,0,1,0,.87v1.17A3.73,3.73,0,0,1,498.142,732.152Z" fill="#d9a171"/>
      <path id="Trazado_99979" data-name="Trazado 99979" d="M478.882,729.582a12.32,12.32,0,0,0-.29-1.86,7.419,7.419,0,0,0-.86-2,7.688,7.688,0,0,0-1.94-2.15,7.572,7.572,0,0,0-7.18-1.14,6.89,6.89,0,0,0-1.92,1,8.554,8.554,0,0,0-.86.73,9.263,9.263,0,0,0-.74.88,7.551,7.551,0,0,0,0,9,9.011,9.011,0,0,0,.74.88,8.546,8.546,0,0,0,.86.73,6.837,6.837,0,0,0,1.92,1,7.609,7.609,0,0,0,9.12-3.22,7.391,7.391,0,0,0,.86-2,12.159,12.159,0,0,0,.29-1.87v.5a3.229,3.229,0,0,1,0,.59,7.715,7.715,0,0,1-.15.8,7.433,7.433,0,0,1-.83,2.07,7.755,7.755,0,0,1-9.32,3.37,7.234,7.234,0,0,1-2-1.06,9.067,9.067,0,0,1-.89-.75,9.442,9.442,0,0,1-.77-.9,7.771,7.771,0,0,1,0-9.23,9.7,9.7,0,0,1,.77-.9,9.365,9.365,0,0,1,.89-.75,7.262,7.262,0,0,1,2-1.06,7.761,7.761,0,0,1,9.32,3.37,7.458,7.458,0,0,1,.83,2.07,7.268,7.268,0,0,1,.15.8,3.229,3.229,0,0,1,0,.59v.51Z" fill="#344154"/>
      <path id="Trazado_99980" data-name="Trazado 99980" d="M476.452,735.192c.05,0,1.72,1.55,3.74,3.57s3.63,3.7,3.58,3.74-1.72-1.55-3.74-3.57S476.412,735.232,476.452,735.192Z" fill="#344154"/>
      <circle id="Elipse_3961" data-name="Elipse 3961" cx="32.84" cy="32.84" r="32.84" transform="translate(292.613 797.89)" fill="#fff"/>
      <path id="Trazado_99981" data-name="Trazado 99981" d="M358.293,830.73v-.53c0-.35-.06-.89-.11-1.56a6.739,6.739,0,0,0-.07-1.15c-.07-.42-.13-.87-.21-1.37a22.786,22.786,0,0,0-.68-3.39,31.508,31.508,0,0,0-3.64-8.7,32.84,32.84,0,0,0-22.06-15.35,29.528,29.528,0,0,0-4.12-.47c-.71,0-1.41-.1-2.13-.09l-2.16.12a5.757,5.757,0,0,0-1.09.07l-1.08.16c-.73.13-1.47.21-2.2.36a36.264,36.264,0,0,0-8.6,3.15c-.68.37-1.34.81-2,1.21a17.3,17.3,0,0,0-2,1.36,35.4,35.4,0,0,0-3.7,3.14,36.636,36.636,0,0,0-3.19,3.78,31.645,31.645,0,0,0-4.66,9,32.323,32.323,0,0,0,0,20.57,31.541,31.541,0,0,0,4.66,9,37.134,37.134,0,0,0,3.19,3.78,36.538,36.538,0,0,0,3.7,3.14,16.223,16.223,0,0,0,2,1.36c.69.4,1.35.83,2,1.21a33.963,33.963,0,0,0,4.26,1.87,35.621,35.621,0,0,0,4.34,1.28c.73.15,1.47.23,2.2.35l1.08.17c.37.05.73.05,1.09.07l2.16.11c.72,0,1.43-.05,2.13-.08a30.8,30.8,0,0,0,4.12-.47,32.8,32.8,0,0,0,22.06-15.36,31.217,31.217,0,0,0,3.64-8.7,22.582,22.582,0,0,0,.68-3.38c.08-.5.17-.95.21-1.38s0-.8.07-1.14c0-.67.08-1.19.11-1.56a2.275,2.275,0,0,0,0-.53v3.25a13.116,13.116,0,0,1-.18,1.38,22.855,22.855,0,0,1-.65,3.411,30.99,30.99,0,0,1-3.58,8.8,33,33,0,0,1-22.33,15.579,31.388,31.388,0,0,1-4.18.5c-.71,0-1.43.09-2.15.08l-2.19-.1a5.757,5.757,0,0,1-1.1-.07l-1.11-.17c-.73-.12-1.48-.2-2.22-.36a33.471,33.471,0,0,1-4.42-1.28,33.991,33.991,0,0,1-4.27-1.89c-.7-.38-1.37-.82-2.06-1.23a16.8,16.8,0,0,1-2-1.37,31.946,31.946,0,0,1-7.05-7.01,31.776,31.776,0,0,1-4.74-9.12,32.769,32.769,0,0,1,0-20.89,31.93,31.93,0,0,1,4.74-9.12,29.064,29.064,0,0,1,7-7.05,17.89,17.89,0,0,1,2-1.38c.69-.41,1.36-.85,2.06-1.22a34.3,34.3,0,0,1,4.32-1.89,35.535,35.535,0,0,1,4.42-1.29c.74-.15,1.49-.23,2.22-.35l1.1-.17c.37-.05.74-.05,1.11-.07l2.19-.11c.72,0,1.44.06,2.15.09a30.113,30.113,0,0,1,4.18.5,33.085,33.085,0,0,1,22.23,15.62,31.26,31.26,0,0,1,3.58,8.8,22.741,22.741,0,0,1,.65,3.42c.06.5.15,1,.18,1.38s0,.81,0,1.15v1.57A1.242,1.242,0,0,0,358.293,830.73Z" fill="#d9a171"/>
      <circle id="Elipse_3962" data-name="Elipse 3962" cx="17.51" cy="17.51" r="17.51" transform="translate(308.043 814.026)" fill="#f5f5f5"/>
      <path id="Trazado_99982" data-name="Trazado 99982" d="M343.063,831.54s0-.39-.08-1.12a8.277,8.277,0,0,0-.14-1.34,14.16,14.16,0,0,0-.37-1.81,16.51,16.51,0,0,0-1.94-4.65,17.412,17.412,0,0,0-20.92-7.44,16.652,16.652,0,0,0-4.4,2.37,15.67,15.67,0,0,0-3.68,3.7,17.331,17.331,0,0,0,0,20.58,22.162,22.162,0,0,0,1.71,2,20.675,20.675,0,0,0,2,1.68,16.65,16.65,0,0,0,4.4,2.37,17.47,17.47,0,0,0,20.93-7.45,16.514,16.514,0,0,0,1.93-4.65,13.943,13.943,0,0,0,.37-1.8,8.364,8.364,0,0,0,.14-1.35c.05-.73.08-1.11.08-1.11v1.12a8.025,8.025,0,0,1-.12,1.35,12.2,12.2,0,0,1-.35,1.81,16.713,16.713,0,0,1-1.91,4.69,17.528,17.528,0,0,1-21.09,7.57,16.6,16.6,0,0,1-4.46-2.39,17.218,17.218,0,0,1-3.73-3.7,17.51,17.51,0,0,1,0-20.82,17.218,17.218,0,0,1,3.73-3.7,16.8,16.8,0,0,1,4.46-2.39,17.519,17.519,0,0,1,21.08,7.57,16.542,16.542,0,0,1,1.85,4.67,12.415,12.415,0,0,1,.35,1.82,8.051,8.051,0,0,1,.12,1.35C343.053,831.15,343.063,831.54,343.063,831.54Z" fill="#344154"/>
      <path id="Trazado_99983" data-name="Trazado 99983" d="M325.553,820.1a11.44,11.44,0,1,0,11.44,11.44A11.44,11.44,0,0,0,325.553,820.1Z" fill="none"/>
      <path id="Trazado_99984" data-name="Trazado 99984" d="M325.553,820.1a8.807,8.807,0,0,1,2.81.26,11.541,11.541,0,0,1,8.15,15.15,11.569,11.569,0,0,1-17.82,5.43,10.986,10.986,0,0,1-2.48-2.47,11.3,11.3,0,0,1-1.58-3,11.554,11.554,0,0,1,8.15-15.16,8.871,8.871,0,0,1,2.82-.26,20.944,20.944,0,0,0-2.77.46,11.372,11.372,0,0,0-8.26,8.91,11.2,11.2,0,0,0,.51,5.88,10.651,10.651,0,0,0,1.53,2.83,10.445,10.445,0,0,0,2.3,2.41,11.1,11.1,0,0,0,13.21,0,10.214,10.214,0,0,0,2.38-2.36,10.383,10.383,0,0,0,1.53-2.83,11.2,11.2,0,0,0-1.57-10.62,11.365,11.365,0,0,0-6.18-4.17A21.024,21.024,0,0,0,325.553,820.1Z" fill="#d9a171"/>
      <path id="Trazado_99985" data-name="Trazado 99985" d="M325.553,827.91a3.63,3.63,0,1,0,3.63,3.63,3.63,3.63,0,0,0-3.63-3.63Z" fill="none"/>
      <path id="Trazado_99986" data-name="Trazado 99986" d="M325.553,827.91a1.6,1.6,0,0,1,.91,0,3.694,3.694,0,0,1,2.12,1.31,3.8,3.8,0,0,1,.6,3.63,3.86,3.86,0,0,1-7.27,0,3.783,3.783,0,0,1,.61-3.63,3.632,3.632,0,0,1,2.12-1.31,1.637,1.637,0,0,1,.91,0,2.6,2.6,0,0,0-.86.21,3.62,3.62,0,0,0-1.88,1.33,3.41,3.41,0,1,0,5.48,0,3.65,3.65,0,0,0-1.88-1.33C325.913,827.96,325.553,827.95,325.553,827.91Z" fill="#d9a171"/>
      <path id="Trazado_99987" data-name="Trazado 99987" d="M306.913,844.16c6.05-4.22,12.61-8.4,18.66-12.62" fill="#f5f5f5"/>
      <path id="Trazado_99988" data-name="Trazado 99988" d="M325.553,831.54s-4.12,2.91-9.28,6.4-9.36,6.27-9.36,6.22,4.11-2.91,9.27-6.4S325.513,831.49,325.553,831.54Z" fill="#344154"/>
      <path id="Trazado_99989" data-name="Trazado 99989" d="M308.913,842.94a10.68,10.68,0,0,1-2.16,0,10.861,10.861,0,0,1-2.16-.18,10.824,10.824,0,0,1,2.16,0A10.939,10.939,0,0,1,308.913,842.94Z" fill="#344154"/>
      <path id="Trazado_99990" data-name="Trazado 99990" d="M308.213,845.78a5.378,5.378,0,0,1,.21-1.48,5.1,5.1,0,0,1,.42-1.44,5.614,5.614,0,0,1-.22,1.48A5.717,5.717,0,0,1,308.213,845.78Z" fill="#344154"/>
      <path id="Trazado_99991" data-name="Trazado 99991" d="M309.263,845.45a6.632,6.632,0,0,1,.18-1.55,6.449,6.449,0,0,1,.37-1.51,5.738,5.738,0,0,1-.17,1.55A5.618,5.618,0,0,1,309.263,845.45Z" fill="#344154"/>
      <path id="Trazado_99992" data-name="Trazado 99992" d="M306.783,841.69a6.144,6.144,0,0,1,1.5.25,5.445,5.445,0,0,1,1.46.45,5.136,5.136,0,0,1-1.5-.25A5.386,5.386,0,0,1,306.783,841.69Z" fill="#344154"/>
      <circle id="Elipse_3963" data-name="Elipse 3963" cx="19.04" cy="19.04" r="19.04" transform="translate(545.788 820.383) rotate(-22.23)" fill="#fff"/>
      <path id="Trazado_99993" data-name="Trazado 99993" d="M586.674,829.324a1.365,1.365,0,0,1,0-.286c0-.212-.046-.489-.074-.83a7.245,7.245,0,0,0-.156-1.338,11.391,11.391,0,0,0-.379-1.845,16.687,16.687,0,0,0-1.955-4.612,17.36,17.36,0,0,0-20.865-7.379,16.2,16.2,0,0,0-4.391,2.361,19.562,19.562,0,0,0-2.02,1.67,20.892,20.892,0,0,0-1.7,2.011,17.248,17.248,0,0,0,0,20.477,19.862,19.862,0,0,0,1.7,2.011,19.66,19.66,0,0,0,1.964,1.67,16.285,16.285,0,0,0,4.391,2.371,17.416,17.416,0,0,0,20.865-7.38,16.66,16.66,0,0,0,1.956-4.612,11.724,11.724,0,0,0,.378-1.845,7.348,7.348,0,0,0,.157-1.347,7.513,7.513,0,0,1,.074-.83,1.513,1.513,0,0,1,0-.286,1.366,1.366,0,0,1,0,.286v.84a8.8,8.8,0,0,1-.111,1.356,12.414,12.414,0,0,1-.341,1.844,16.53,16.53,0,0,1-1.91,4.733,17.681,17.681,0,0,1-21.252,7.665,16.516,16.516,0,0,1-4.5-2.417,17.686,17.686,0,0,1-2.02-1.706,19.958,19.958,0,0,1-1.752-2.067,17.673,17.673,0,0,1,0-21.031,19.851,19.851,0,0,1,1.752-2.066,20.952,20.952,0,0,1,2.02-1.707,16.5,16.5,0,0,1,4.5-2.407,17.65,17.65,0,0,1,21.252,7.665,16.4,16.4,0,0,1,1.91,4.723,12.4,12.4,0,0,1,.341,1.845,8.91,8.91,0,0,1,.111,1.365v.83A1.36,1.36,0,0,1,586.674,829.324Z" fill="#d9a171"/>
      <path id="Trazado_99994" data-name="Trazado 99994" d="M572.182,831.107a4.44,4.44,0,0,0,2.65-4.12,4.18,4.18,0,1,0-8.34-.578,4.288,4.288,0,0,0,0,.578,4.441,4.441,0,0,0,2.66,4.16c-6.42,1-6.13,7.94-6.13,7.94l15.18.07S578.552,832.067,572.182,831.107Z" fill="#f5f5f5"/>
      <path id="Trazado_99995" data-name="Trazado 99995" d="M570.559,829.591a6.8,6.8,0,0,1,2.592.923,6.037,6.037,0,0,1,2.122,2.38,9.074,9.074,0,0,1,.922,4.114v.064H562.027v-.083a9.059,9.059,0,0,1,.867-3.966,6.083,6.083,0,0,1,2.029-2.389,7.268,7.268,0,0,1,2.832-1.07v.175a4.2,4.2,0,0,1-2.5-3.69,4.283,4.283,0,0,1,1.762-3.69,3.747,3.747,0,0,1,3.69-.378,4.086,4.086,0,0,1,2.158,2.371,4.416,4.416,0,0,1,.1,2.638,4.234,4.234,0,0,1-.922,1.734,4.1,4.1,0,0,1-.987.766,3.868,3.868,0,0,1-.4.175,4.34,4.34,0,0,0,1.328-.987,4.082,4.082,0,0,0,.923-1.716,4.269,4.269,0,0,0-.12-2.564,3.929,3.929,0,0,0-2.1-2.278,3.6,3.6,0,0,0-3.506.369,4.171,4.171,0,0,0-1.679,3.579,4,4,0,0,0,2.4,3.505l.295.12-.323.064a7.109,7.109,0,0,0-2.767,1.043,5.854,5.854,0,0,0-1.965,2.315,8.962,8.962,0,0,0-.858,3.874l-.092-.092,14,.083-.073.074a9.233,9.233,0,0,0-.867-4.059,6.08,6.08,0,0,0-2.067-2.361,5.225,5.225,0,0,0-1.042-.526,4.268,4.268,0,0,0-.821-.277Z" fill="#344154"/>
      <circle id="Elipse_3964" data-name="Elipse 3964" cx="33.213" cy="33.213" r="33.213" transform="translate(429.433 920.05)" fill="#fff"/>
      <path id="Trazado_99996" data-name="Trazado 99996" d="M495.812,954.376a4.208,4.208,0,0,0-.05-.53c-.05-.35-.06-.9-.11-1.58a6.911,6.911,0,0,0-.07-1.16c-.07-.43-.13-.88-.21-1.38a24.72,24.72,0,0,0-.69-3.42,31.753,31.753,0,0,0-3.68-8.79,33.1,33.1,0,0,0-8.4-9.36,32.744,32.744,0,0,0-13.88-6.15,31.44,31.44,0,0,0-4.16-.48c-.71,0-1.43-.09-2.15-.08l-2.18.11a5.762,5.762,0,0,0-1.1.07l-1.1.17c-.73.12-1.48.21-2.22.36a35.445,35.445,0,0,0-4.39,1.29,36.01,36.01,0,0,0-4.29,1.89c-.7.38-1.36.82-2,1.23a16.641,16.641,0,0,0-2,1.36,35.879,35.879,0,0,0-3.73,3.18,37.238,37.238,0,0,0-3.23,3.82,31.69,31.69,0,0,0-4.7,9.06,32.692,32.692,0,0,0,0,20.78,32.056,32.056,0,0,0,4.71,9.07,30.105,30.105,0,0,0,7,7,16.754,16.754,0,0,0,2,1.37c.68.41,1.35.85,2,1.22a32.512,32.512,0,0,0,4.29,1.89,33.666,33.666,0,0,0,4.39,1.29c.74.16,1.49.24,2.22.36l1.1.17c.36.05.73.05,1.1.07l2.18.12c.72,0,1.44-.06,2.15-.08a31.6,31.6,0,0,0,4.16-.48,33.2,33.2,0,0,0,22.23-15.5,31.87,31.87,0,0,0,3.68-8.79,24.723,24.723,0,0,0,.69-3.42c.08-.5.17-1,.21-1.39s.05-.81.07-1.16c0-.67.08-1.2.11-1.57s.05-.54.05-.54v.54c0,.36,0,.9-.05,1.58a9.564,9.564,0,0,1-.05,1.16c-.05.42-.12.89-.19,1.4a23.363,23.363,0,0,1-.65,3.45,31.621,31.621,0,0,1-3.62,8.89A33.361,33.361,0,0,1,468.8,987.2a30.7,30.7,0,0,1-4.22.5c-.72,0-1.44.1-2.17.09l-2.21-.11a6.021,6.021,0,0,1-1.12-.07l-1.11-.17c-.75-.12-1.51-.2-2.25-.36a32.893,32.893,0,0,1-4.46-1.3,34.057,34.057,0,0,1-4.36-1.9c-.71-.39-1.39-.83-2.09-1.24a18.24,18.24,0,0,1-2-1.39,30.755,30.755,0,0,1-7.07-7.09,32.516,32.516,0,0,1-4.79-9.21,33.22,33.22,0,0,1,0-21.1,32.5,32.5,0,0,1,4.79-9.21,37.956,37.956,0,0,1,3.28-3.87,37.056,37.056,0,0,1,3.8-3.21,15.93,15.93,0,0,1,2-1.39c.7-.41,1.38-.86,2.09-1.24a36.41,36.41,0,0,1,8.82-3.21c.74-.15,1.5-.24,2.24-.36l1.12-.17a5.92,5.92,0,0,0,1.11-.07l2.21-.1c.74,0,1.46.06,2.18.09a30.551,30.551,0,0,1,4.22.5,33.361,33.361,0,0,1,22.45,15.78,31.607,31.607,0,0,1,3.62,8.89,23.1,23.1,0,0,1,.65,3.45c.07.5.15,1,.19,1.39s0,.82.05,1.17a13.835,13.835,0,0,0,.05,1.58A1.061,1.061,0,0,1,495.812,954.376Z" fill="#d9a171"/>
      <circle id="Elipse_3965" data-name="Elipse 3965" cx="17.63" cy="17.63" r="17.63" transform="translate(444.936 936.563)" fill="#f5f5f5"/>
      <path id="Trazado_99997" data-name="Trazado 99997" d="M444.972,953.056a1.749,1.749,0,0,1,0,.29v1.45a3.25,3.25,0,0,0,.06.74,14.621,14.621,0,0,0,.26,1.84,16.753,16.753,0,0,0,1.65,4.77,17.49,17.49,0,0,0,20.45,8.8,19.305,19.305,0,0,0,2.33-.85,18.837,18.837,0,0,0,2.22-1.24,19.3,19.3,0,0,0,2.08-1.54,19.638,19.638,0,0,0,1.84-1.91,16.855,16.855,0,0,0,2.8-4.63,18.627,18.627,0,0,0,1.26-5.42,18.993,18.993,0,0,0-.54-5.55,16.81,16.81,0,0,0-2.17-4.95,15.992,15.992,0,0,0-3.43-3.94,19.549,19.549,0,0,0-2-1.51,18.631,18.631,0,0,0-2.24-1.14,17.529,17.529,0,0,0-21.42,6,16.648,16.648,0,0,0-2.26,4.52,12.436,12.436,0,0,0-.49,1.78c-.06.26-.13.5-.17.73s-.05.42-.08.61l-.11.83a1.227,1.227,0,0,1-.06.28,1.56,1.56,0,0,1,0-.29,3.452,3.452,0,0,1,.08-.83l.06-.62a4.311,4.311,0,0,1,.15-.73,12.275,12.275,0,0,1,.46-1.81,16.649,16.649,0,0,1,2.22-4.61,17.718,17.718,0,0,1,21.77-6.26,19.26,19.26,0,0,1,2.25,1.17,18.172,18.172,0,0,1,2.09,1.54,16.014,16.014,0,0,1,3.52,4,17.006,17.006,0,0,1,2.23,5.07,17.64,17.64,0,0,1-.74,11.23,17.223,17.223,0,0,1-2.87,4.73,20.422,20.422,0,0,1-1.88,2,21.447,21.447,0,0,1-2.13,1.58,19.6,19.6,0,0,1-2.28,1.25,18.208,18.208,0,0,1-11.77,1,17.7,17.7,0,0,1-11.34-9.17,16.458,16.458,0,0,1-1.61-4.86,12.374,12.374,0,0,1-.22-1.85,3.59,3.59,0,0,0-.05-.75,2.567,2.567,0,0,1,0-.62v-.84A1.385,1.385,0,0,1,444.972,953.056Z" fill="#344154"/>
      <path id="Trazado_99998" data-name="Trazado 99998" d="M470.542,954.756h-8.22v-9.8a5.089,5.089,0,0,1,0-.72,4.323,4.323,0,0,1,0,.72v9.69l-.12-.12h7.48A3.136,3.136,0,0,1,470.542,954.756Z" fill="#344154"/>
      <path id="Trazado_99999" data-name="Trazado 99999" d="M462.542,939.476a9.99,9.99,0,0,1,0,3A9.154,9.154,0,0,1,462.542,939.476Z" fill="#344154"/>
      <path id="Trazado_100000" data-name="Trazado 100000" d="M470.542,941.856a9.448,9.448,0,0,1-2.06,2.06A9.448,9.448,0,0,1,470.542,941.856Z" fill="#344154"/>
      <path id="Trazado_100001" data-name="Trazado 100001" d="M475.252,946.986a6.1,6.1,0,0,1-1.22.81,6.021,6.021,0,0,1-1.28.71,4.065,4.065,0,0,1,1.16-.9A3.72,3.72,0,0,1,475.252,946.986Z" fill="#344154"/>
      <path id="Trazado_100002" data-name="Trazado 100002" d="M478,954.6a17.046,17.046,0,0,1-4,0A18.575,18.575,0,0,1,478,954.6Z" fill="#344154"/>
      <path id="Trazado_100003" data-name="Trazado 100003" d="M450,954.326a15.257,15.257,0,0,1-3.82,0A16.6,16.6,0,0,1,450,954.326Z" fill="#344154"/>
      <path id="Trazado_100004" data-name="Trazado 100004" d="M451.982,960a8.4,8.4,0,0,1-1.44,1.27,8.569,8.569,0,0,1-1.59,1.13,8.773,8.773,0,0,1,1.44-1.31A8.551,8.551,0,0,1,451.982,960Z" fill="#344154"/>
      <path id="Trazado_100005" data-name="Trazado 100005" d="M456.862,964.386a186.636,186.636,0,0,1-2,3.36,6.3,6.3,0,0,1,.85-1.78A6.459,6.459,0,0,1,456.862,964.386Z" fill="#344154"/>
      <path id="Trazado_100006" data-name="Trazado 100006" d="M462.542,970.036a17.046,17.046,0,0,1,0-4A18.571,18.571,0,0,1,462.542,970.036Z" fill="#344154"/>
      <path id="Trazado_100007" data-name="Trazado 100007" d="M471.222,967.346a8.7,8.7,0,0,1-3-2.64,18.145,18.145,0,0,1,1.51,1.33A15.437,15.437,0,0,1,471.222,967.346Z" fill="#344154"/>
      <path id="Trazado_100008" data-name="Trazado 100008" d="M475.312,962.946a6.726,6.726,0,0,1-1.34-1.18,7.653,7.653,0,0,1-1.18-1.33,6.472,6.472,0,0,1,1.34,1.17A7.07,7.07,0,0,1,475.312,962.946Z" fill="#344154"/>
      <path id="Trazado_100009" data-name="Trazado 100009" d="M451.792,948.9a5.457,5.457,0,0,1-1.18-1,6.1,6.1,0,0,1-1-1.18,4.981,4.981,0,0,1,1.18,1A5.329,5.329,0,0,1,451.792,948.9Z" fill="#344154"/>
      <path id="Trazado_100010" data-name="Trazado 100010" d="M456.832,943.586a5.233,5.233,0,0,1-1.16-1,4.783,4.783,0,0,1-1-1.16,5.482,5.482,0,0,1,1.16,1A5.088,5.088,0,0,1,456.832,943.586Z" fill="#344154"/>
      <path id="Trazado_100011" data-name="Trazado 100011" d="M611.932,973.086a27.626,27.626,0,0,0-.57-3.63,14.45,14.45,0,0,0-1.67-3.93,14.77,14.77,0,0,0-17.74-6.26,13.74,13.74,0,0,0-3.72,2,13.9,13.9,0,0,0-3.1,3.12,14.63,14.63,0,0,0,0,17.38,13.742,13.742,0,0,0,3.1,3.13,14.01,14.01,0,0,0,3.72,2,14.77,14.77,0,0,0,17.74-6.26,14.314,14.314,0,0,0,1.67-3.93,27.328,27.328,0,0,0,.57-3.63q.006.12,0,.24v.72a7.766,7.766,0,0,1-.09,1.16,11.153,11.153,0,0,1-.28,1.56,14.405,14.405,0,0,1-1.62,4,15.1,15.1,0,0,1-10.17,7.2,15.306,15.306,0,0,1-8-.63,15.18,15.18,0,1,1,18.17-22.01,14.53,14.53,0,0,1,1.62,4,10.987,10.987,0,0,1,.28,1.57,7.625,7.625,0,0,1,.09,1.15v.72A2.273,2.273,0,0,1,611.932,973.086Z" fill="#d9a171"/>
      <path id="Trazado_100012" data-name="Trazado 100012" d="M599.912,976.536a2.37,2.37,0,0,0-2,1.13c-.54-.41-1.21-.9-2-1.4l-1.17-.78a2.411,2.411,0,0,0,.32-3.1,17.645,17.645,0,0,0,1.49-1.1c.49-.42.91-.71,1.29-1a2.431,2.431,0,1,0-.42-1.37,2.474,2.474,0,0,0,.15.83c-.43.3-.92.66-1.43,1.06s-1,.83-1.46,1.19a2.43,2.43,0,1,0-1.63,4.22,2.473,2.473,0,0,0,1.15-.3l1.34.94c.77.52,1.49,1,2.08,1.34a2.85,2.85,0,0,0-.19,1,2.44,2.44,0,1,0,2.43-2.65Z" fill="#f5f5f5"/>
      <path id="Trazado_100013" data-name="Trazado 100013" d="M599.912,976.536a1.73,1.73,0,0,1,.91.16,2.66,2.66,0,0,1,1.54,2,2.949,2.949,0,0,1-.33,1.86,2.5,2.5,0,0,1-1.79,1.27,2.4,2.4,0,0,1-2.28-1,2.9,2.9,0,0,1-.37-2.75v.1c-1.09-.69-2.26-1.42-3.44-2.28h.1a2.47,2.47,0,0,1-2.48,0,2.53,2.53,0,1,1,3-4h-.14l1.43-1.16,1.47-1.1v.12a2.439,2.439,0,0,1,.13-2,2.468,2.468,0,0,1,1.55-1.26,2.515,2.515,0,0,1,1.94.23,2.6,2.6,0,0,1,1.18,1.49,2.52,2.52,0,0,1-4.51,2.13h.13c-1,.8-1.91,1.5-2.79,2.14v-.11a2.51,2.51,0,0,1-.35,3.19v-.1c1.32.84,2.32,1.63,3.13,2.2h-.06a2.444,2.444,0,0,1,1.41-1.05,1.572,1.572,0,0,1,.61-.06,2.593,2.593,0,0,0-.6.1,2.487,2.487,0,0,0-1.35,1.06h0c-.82-.56-1.83-1.33-3.15-2.16h-.07l.06-.05a2.361,2.361,0,0,0,.31-3v-.07h.06c.88-.64,1.81-1.34,2.77-2.15l.07-.06v.08a2.351,2.351,0,1,0-.12-2.4,2.3,2.3,0,0,0-.12,1.87v.08h-.07l-1.46,1.09-1.42,1.16-.08.06-.06-.06a2.33,2.33,0,1,0-.46,3.76h.11c1.16.86,2.33,1.59,3.41,2.28h.06v.07a2.8,2.8,0,0,0,.33,2.6,2.279,2.279,0,0,0,2.14.94,2.34,2.34,0,0,0,1.71-1.19,2.775,2.775,0,0,0,.33-1.78,2.569,2.569,0,0,0-1.46-2A2.493,2.493,0,0,0,599.912,976.536Z" fill="#344154"/>
      <path id="Trazado_100014" data-name="Trazado 100014" d="M986.343,959.74a3.932,3.932,0,0,0-.06-.56c-.06-.369-.06-.929-.1-1.64l-.08-1.2a10.557,10.557,0,0,0-.22-1.441,24.02,24.02,0,0,0-.72-3.55,32.794,32.794,0,0,0-3.82-9.14,34.489,34.489,0,0,0-23.15-16.119,31.964,31.964,0,0,0-4.33-.5c-.74,0-1.48-.09-2.23-.081l-2.27.12a6.151,6.151,0,0,0-1.14.071l-1.14.179c-.76.12-1.54.211-2.3.37a36.67,36.67,0,0,0-4.57,1.34,35.919,35.919,0,0,0-4.46,2c-.72.4-1.42.85-2.13,1.28a17,17,0,0,0-2.07,1.42,40.153,40.153,0,0,0-3.88,3.3,37.961,37.961,0,0,0-3.35,4,33.1,33.1,0,0,0-4.89,9.42,33.8,33.8,0,0,0,0,21.59,32.885,32.885,0,0,0,4.89,9.351,38.784,38.784,0,0,0,3.35,4,37.766,37.766,0,0,0,3.88,3.309,18.068,18.068,0,0,0,2.07,1.421c.71.42,1.41.88,2.13,1.27a35.919,35.919,0,0,0,4.46,2,36.841,36.841,0,0,0,4.57,1.35c.76.15,1.54.239,2.3.37l1.14.179c.38.05.77,0,1.15.071l2.26.119c.75,0,1.5-.059,2.23-.089a32.279,32.279,0,0,0,4.33-.5,34.344,34.344,0,0,0,23.15-16.12,32.734,32.734,0,0,0,3.82-9.13,24.124,24.124,0,0,0,.72-3.56c.08-.52.18-1,.22-1.43s.05-.85.08-1.21c0-.7.08-1.25.1-1.63a3.793,3.793,0,0,1,.06-.56v.56c0,.369,0,.929-.06,1.639a10.553,10.553,0,0,1-.05,1.211c-.05.45-.12.92-.19,1.45a25.48,25.48,0,0,1-.68,3.58,32.552,32.552,0,0,1-3.77,9.23,34.639,34.639,0,0,1-23.32,16.4,32.9,32.9,0,0,1-4.38.52c-.75,0-1.5.1-2.26.09l-2.3-.11a5.783,5.783,0,0,1-1.16-.079l-1.15-.171c-.78-.13-1.56-.22-2.34-.38a37.275,37.275,0,0,1-4.63-1.34,36.038,36.038,0,0,1-4.53-2c-.74-.39-1.44-.85-2.17-1.28a19.514,19.514,0,0,1-2.09-1.44,31.605,31.605,0,0,1-7.35-7.37,33.481,33.481,0,0,1-5-9.57,34.236,34.236,0,0,1,0-21.91,33.507,33.507,0,0,1,5-9.57,31.853,31.853,0,0,1,7.35-7.36,17.419,17.419,0,0,1,2.09-1.44c.73-.43,1.43-.89,2.17-1.29a38.115,38.115,0,0,1,9.16-3.33c.78-.16,1.56-.25,2.33-.37l1.16-.18a6.4,6.4,0,0,0,1.16-.07l2.3-.11c.76,0,1.51.06,2.26.09a31.613,31.613,0,0,1,4.38.52,34.589,34.589,0,0,1,23.32,16.39,32.594,32.594,0,0,1,3.77,9.24,25.188,25.188,0,0,1,.68,3.58c.07.52.15,1,.19,1.45s0,.85.05,1.21a12.358,12.358,0,0,0,.06,1.64A.936.936,0,0,1,986.343,959.74Z" fill="#d9a171"/>
      <path id="Trazado_100015" data-name="Trazado 100015" d="M973.043,977.35a3.4,3.4,0,0,1-.76.05l-2.18.05-8,.08-26.47.07h-2.14v-.25c0-9.89.06-18.76.08-25.21,0-3.17.05-5.74.07-7.58,0-.86,0-1.54.05-2.05a3.164,3.164,0,0,1,.05-.72,5.761,5.761,0,0,1,0,.72v2.05c0,1.84.05,4.41.08,7.58,0,6.45.05,15.32.08,25.21l-.25-.25h1.89l26.47.08,8,.08h2.18A6.728,6.728,0,0,1,973.043,977.35Z" fill="#344154"/>
      <path id="Trazado_100016" data-name="Trazado 100016" d="M968.673,950.421a10.941,10.941,0,0,1-1.17,1.119l-3.32,2.92c-2.82,2.44-6.74,5.79-11.08,9.47l-.66.56-.17.14-.16-.149c-1.74-1.61-3.39-3.161-4.93-4.581h.31l-7.24,6-2.09,1.68a4.85,4.85,0,0,1-.79.56,4.668,4.668,0,0,1,.69-.68l2-1.78,7.12-6.11.16-.13.15.14,4.95,4.55h-.33l.66-.56c4.34-3.679,8.29-7,11.17-9.36l3.42-2.8A10,10,0,0,1,968.673,950.421Z" fill="#344154"/>
      <path id="Trazado_100017" data-name="Trazado 100017" d="M968.673,958.661a11.768,11.768,0,0,1-.17-2.45c-.05-1.52-.08-3.63-.08-6l.25.25h-.42c-2.45,0-4.67,0-6.27-.08a13.291,13.291,0,0,1-2.59-.17,13.536,13.536,0,0,1,2.59-.18c1.6,0,3.82-.07,6.27-.07h.67v.25c0,2.35,0,4.46-.08,6A11.764,11.764,0,0,1,968.673,958.661Z" fill="#344154"/>
      <path id="Trazado_100018" data-name="Trazado 100018" d="M974.062,832.181a2.039,2.039,0,0,1-.05-.42,11.375,11.375,0,0,0-.09-1.23,4.9,4.9,0,0,0-.06-.91c-.06-.33-.11-.69-.17-1.08a18.408,18.408,0,0,0-.54-2.68,24.879,24.879,0,0,0-2.89-6.87,25.76,25.76,0,0,0-30.93-11,27.607,27.607,0,0,0-3.36,1.47,27.194,27.194,0,0,0-3.15,2,30.964,30.964,0,0,0-2.92,2.48,30.069,30.069,0,0,0-2.51,3,25.108,25.108,0,0,0-3.68,7.08,25.605,25.605,0,0,0,0,16.23,24.807,24.807,0,0,0,3.67,7.08,30.444,30.444,0,0,0,2.52,3,29.631,29.631,0,0,0,2.92,2.48,27.048,27.048,0,0,0,3.15,2,27.607,27.607,0,0,0,3.36,1.47,25.81,25.81,0,0,0,30.93-11,24.764,24.764,0,0,0,2.89-6.87,17.966,17.966,0,0,0,.54-2.67c.06-.39.14-.75.17-1.08a8.178,8.178,0,0,1,.06-.91q.06-.78.09-1.23a2.047,2.047,0,0,1,.05-.42,2.266,2.266,0,0,1,0,.42v2.15a9.589,9.589,0,0,1-.14,1.09,17.925,17.925,0,0,1-.51,2.7,24.107,24.107,0,0,1-2.83,7,26.04,26.04,0,0,1-31.35,11.28,27.653,27.653,0,0,1-3.42-1.49,28.161,28.161,0,0,1-3.22-2.06,29.424,29.424,0,0,1-3-2.53,29.957,29.957,0,0,1-2.58-3,25.579,25.579,0,0,1-3.75-7.23,25.846,25.846,0,0,1,0-16.55,25.2,25.2,0,0,1,3.76-7.22,28.917,28.917,0,0,1,2.57-3,28.42,28.42,0,0,1,3-2.52,23.651,23.651,0,0,1,6.63-3.55,25.964,25.964,0,0,1,31.29,11.26,24.35,24.35,0,0,1,2.83,7,18.326,18.326,0,0,1,.51,2.71c.05.39.11.75.14,1.09s0,.64,0,.91v1.24A2.25,2.25,0,0,1,974.062,832.181Z" fill="#d9a171"/>
      <path id="Trazado_100019" data-name="Trazado 100019" d="M948.9,818.3l3.48,7a.9.9,0,0,0,.67.49l7.77,1.13a.9.9,0,0,1,.5,1.54l-5.62,5.48a.891.891,0,0,0-.26.79l1.33,7.74a.9.9,0,0,1-1.31,1l-6.95-3.62a.892.892,0,0,0-.84,0l-6.94,3.65a.9.9,0,0,1-1.31-1l1.32-7.74a.861.861,0,0,0-.25-.79l-5.62-5.48a.9.9,0,0,1,.5-1.54l7.76-1.13a.888.888,0,0,0,.68-.49l3.47-7a.9.9,0,0,1,1.62-.03Z" fill="#fafafa"/>
      <path id="Trazado_100020" data-name="Trazado 100020" d="M948.9,818.3s0-.07-.15-.18a.813.813,0,0,0-.6-.28.861.861,0,0,0-.85.56c-.2.41-.42.88-.68,1.4-.51,1.07-1.14,2.36-1.86,3.86l-.57,1.16-.3.62a1.057,1.057,0,0,1-.6.48c-1,.17-1.94.3-3,.46l-3.26.48-1.73.26a.75.75,0,0,0-.4,1.2l5.64,5.48a1.131,1.131,0,0,1,.34,1.11l-.18,1-.36,2.13c-.24,1.44-.49,2.9-.75,4.39a.728.728,0,0,0,.75.91,1.254,1.254,0,0,0,.46-.18l2.06-1.08,4.2-2.21.54-.29a1.139,1.139,0,0,1,.7-.08,2.552,2.552,0,0,1,.59.26l.53.28,2.09,1.1,4.07,2.14a.709.709,0,0,0,.81-.18.617.617,0,0,0,.18-.4,2.5,2.5,0,0,0-.05-.51c-.13-.73-.25-1.45-.37-2.17q-.37-2.149-.72-4.2c-.06-.35-.12-.69-.17-1a1.1,1.1,0,0,1,.39-1.07l1.43-1.39,2.75-2.67,1.31-1.27a.76.76,0,0,0,.113-1.069.771.771,0,0,0-.213-.181,2.744,2.744,0,0,0-.77-.16l-.83-.13-1.59-.23-3-.45-1.36-.2a1.367,1.367,0,0,1-.67-.12,1,1,0,0,1-.54-.43l-1.88-3.86-1.06-2.43c-.13-.26-.22-.47-.3-.64l-.09-.22a1.113,1.113,0,0,1,.13.21l.32.62c.3.57.71,1.38,1.23,2.41s1.18,2.33,1.93,3.81a.773.773,0,0,0,.43.34,5.16,5.16,0,0,0,.63.1l1.37.19,3,.42,1.6.23.83.11a2.715,2.715,0,0,1,.87.2,1,1,0,0,1,.17,1.72l-1.3,1.28-2.82,2.68-1.44,1.4a.751.751,0,0,0-.28.76c.06.33.11.67.17,1,.24,1.37.48,2.77.73,4.2.13.72.25,1.44.38,2.17a2.751,2.751,0,0,1,.06.6,1,1,0,0,1-.27.61,1.088,1.088,0,0,1-1.24.28l-4.1-2.15-2.09-1.09-.52-.28a2.633,2.633,0,0,0-.5-.23.738.738,0,0,0-.46.06l-.52.27-4.21,2.21-2,1.08a1.572,1.572,0,0,1-.61.22,1.1,1.1,0,0,1-1.14-1.34c.25-1.49.51-3,.75-4.39.13-.72.25-1.42.37-2.13l.18-1a.75.75,0,0,0-.24-.8l-5.64-5.53a1.081,1.081,0,0,1-.17-1,1,1,0,0,1,.76-.67l1.74-.26,3.27-.46,2.95-.42a.791.791,0,0,0,.47-.37l.3-.6.58-1.16,1.92-3.82c.27-.52.5-1,.71-1.39a1,1,0,0,1,1-.59.9.9,0,0,1,.62.33A.471.471,0,0,1,948.9,818.3Z" fill="#344154"/>
      <path id="Trazado_100021" data-name="Trazado 100021" d="M886.7,748.469a1.047,1.047,0,0,1-.05-.31,4.554,4.554,0,0,0-.07-.9,9.081,9.081,0,0,0-.17-1.46,12.536,12.536,0,0,0-.41-2,18.029,18.029,0,0,0-2.12-5,18.821,18.821,0,0,0-22.62-8,17.6,17.6,0,0,0-4.76,2.56,21.287,21.287,0,0,0-2.17,1.83,21.607,21.607,0,0,0-1.84,2.18,18.7,18.7,0,0,0,0,22.2,21.387,21.387,0,0,0,1.84,2.18,21,21,0,0,0,2.13,1.81,17.589,17.589,0,0,0,4.76,2.57,18.88,18.88,0,0,0,22.62-8,18,18,0,0,0,2.12-5,12.493,12.493,0,0,0,.41-2,9.056,9.056,0,0,0,.17-1.46c0-.37.06-.67.07-.9a1.129,1.129,0,0,1,.05-.31,1.462,1.462,0,0,1,0,.31v.91a8.614,8.614,0,0,1-.13,1.47,13.281,13.281,0,0,1-.36,2,18.209,18.209,0,0,1-2.07,5.13,19.169,19.169,0,0,1-23.04,8.31,18.161,18.161,0,0,1-4.88-2.62,19.129,19.129,0,0,1-2.19-1.85,20.416,20.416,0,0,1-1.9-2.24,19.16,19.16,0,0,1,0-22.8,17.529,17.529,0,0,1,4.09-4.09,18.186,18.186,0,0,1,4.88-2.62,19.169,19.169,0,0,1,23.04,8.31,18.234,18.234,0,0,1,2.07,5.13,13.325,13.325,0,0,1,.36,2,8.632,8.632,0,0,1,.13,1.47v.91A1.476,1.476,0,0,1,886.7,748.469Z" fill="#d9a171"/>
      <path id="Trazado_100022" data-name="Trazado 100022" d="M876.112,746.179a8.68,8.68,0,1,0-16.16,4.38h0a16.15,16.15,0,0,0,1.17,1.55l5,6.68a1.569,1.569,0,0,0,2.2.3,1.522,1.522,0,0,0,.3-.3l5-6.57s.92-1.11,1.26-1.67h0A8.6,8.6,0,0,0,876.112,746.179Zm-8.68,3.78a3.83,3.83,0,1,1,3.82-3.84v.02a3.82,3.82,0,0,1-3.82,3.82Z" fill="#f5f5f5"/>
      <path id="Trazado_100023" data-name="Trazado 100023" d="M876.112,746.179a8.68,8.68,0,1,0-16.16,4.38h0a16.15,16.15,0,0,0,1.17,1.55l5,6.68a1.569,1.569,0,0,0,2.2.3,1.522,1.522,0,0,0,.3-.3l5-6.57s.92-1.11,1.26-1.67h0A8.6,8.6,0,0,0,876.112,746.179Zm-8.68,3.78a3.83,3.83,0,1,1,3.82-3.84v.02a3.82,3.82,0,0,1-3.82,3.82Z" fill="none"/>
      <path id="Trazado_100024" data-name="Trazado 100024" d="M867.432,749.959a3.853,3.853,0,0,0,.92-.16,3.8,3.8,0,0,0,2.06-1.4,3.73,3.73,0,1,0-6,0,3.834,3.834,0,0,0,2.06,1.4c.58.15.92.13.92.16a2.889,2.889,0,0,1-.94-.08,3.8,3.8,0,0,1-2.12-1.39,3.917,3.917,0,1,1,4,1.41A2.9,2.9,0,0,1,867.432,749.959Z" fill="#344154"/>
      <path id="Trazado_100025" data-name="Trazado 100025" d="M876.112,746.179a6.5,6.5,0,0,1,0,1.2,8.56,8.56,0,0,1-1.1,3.21l-.05-.08h.12l-.07.09h0l-5.95,7.94a2,2,0,0,1-1.23.95,1.648,1.648,0,0,1-1.54-.47c-.68-.86-1.33-1.74-2-2.66l-4.32-5.72h0l-.13-.17h.22l-.09.16a8.947,8.947,0,0,1-.77-1.69,8.75,8.75,0,0,1,13-10.18,8.647,8.647,0,0,1,3.77,5.09,6.354,6.354,0,0,1,.21,1,4.384,4.384,0,0,1,.07.74v.61a11.392,11.392,0,0,0-.37-2.32,8.635,8.635,0,0,0-3.76-5,8.807,8.807,0,0,0-4.17-1.29,8.677,8.677,0,0,0-8.62,11.31,9.383,9.383,0,0,0,.75,1.64l.09.16h-.19l.08-.17h0l4.3,5.72,1.97,2.65a1.5,1.5,0,0,0,1.37.42,1.805,1.805,0,0,0,1.12-.88c2.41-3.16,4.45-5.86,6-7.88h0v.09h-.1l.05-.09a8.775,8.775,0,0,0,1.13-3.16,8.243,8.243,0,0,0,.09-.89A1.18,1.18,0,0,0,876.112,746.179Z" fill="#344154"/>
      <path id="Trazado_100026" data-name="Trazado 100026" d="M715.422,752.266a4.48,4.48,0,0,0-.05-.55c-.05-.36-.06-.91-.11-1.59a7.026,7.026,0,0,0-.07-1.17c-.07-.43-.14-.9-.22-1.41a23.959,23.959,0,0,0-.7-3.46,31.837,31.837,0,0,0-3.73-8.91,33.529,33.529,0,0,0-22.57-15.72,30.692,30.692,0,0,0-4.22-.49c-.72,0-1.45-.09-2.18-.08l-2.21.11a5.327,5.327,0,0,0-1.12.08l-1.11.17c-.74.12-1.5.21-2.24.36a35.838,35.838,0,0,0-4.45,1.31,34.165,34.165,0,0,0-4.36,1.92c-.7.38-1.38.82-2.07,1.24a16.337,16.337,0,0,0-2,1.38,39.427,39.427,0,0,0-3.78,3.22,38.084,38.084,0,0,0-3.27,3.87,32.22,32.22,0,0,0-4.77,9.19,32.912,32.912,0,0,0-.02,21.06,32.288,32.288,0,0,0,4.77,9.2,30.883,30.883,0,0,0,7,7.08,17.109,17.109,0,0,0,2,1.39c.7.41,1.38.86,2.08,1.24a34.312,34.312,0,0,0,4.36,1.92,35.808,35.808,0,0,0,4.45,1.3c.74.16,1.5.25,2.24.37l1.12.17a5.914,5.914,0,0,1,1.11.07l2.21.12c.73,0,1.46-.06,2.18-.09a30.829,30.829,0,0,0,4.22-.48,33.663,33.663,0,0,0,22.63-15.73,32.074,32.074,0,0,0,3.72-8.91,24.27,24.27,0,0,0,.7-3.46c.08-.51.17-1,.22-1.41s.05-.82.07-1.17c0-.69.08-1.22.11-1.6s.05-.54.05-.54v.54c0,.36,0,.92-.05,1.6a9.885,9.885,0,0,1-.05,1.18c-.05.43-.12.91-.19,1.42a25.4,25.4,0,0,1-.66,3.49,31.88,31.88,0,0,1-3.67,9,33.842,33.842,0,0,1-22.75,16,31.584,31.584,0,0,1-4.28.51c-.73,0-1.46.1-2.2.09l-2.24-.11a6.074,6.074,0,0,1-1.13-.07l-1.13-.17c-.76-.12-1.52-.21-2.28-.37a35.645,35.645,0,0,1-4.52-1.31,35.22,35.22,0,0,1-4.42-1.94c-.71-.38-1.4-.83-2.11-1.25a17.524,17.524,0,0,1-2-1.41,31.494,31.494,0,0,1-7.19-7.2,32.593,32.593,0,0,1-4.85-9.33,33.343,33.343,0,0,1-.01-21.35,32.578,32.578,0,0,1,4.86-9.32,36.941,36.941,0,0,1,3.32-3.92,38.221,38.221,0,0,1,3.85-3.27,17.442,17.442,0,0,1,2-1.4c.71-.42,1.4-.87,2.11-1.26a35.014,35.014,0,0,1,4.42-1.93,37.337,37.337,0,0,1,4.52-1.32c.76-.15,1.52-.24,2.28-.36l1.13-.17c.37-.05.75-.05,1.13-.07l2.24-.11c.74,0,1.47.06,2.2.09a29.89,29.89,0,0,1,4.28.51,33.708,33.708,0,0,1,22.74,16,31.925,31.925,0,0,1,3.68,9,25.351,25.351,0,0,1,.66,3.49c.07.51.15,1,.19,1.41s0,.83.05,1.18a14.018,14.018,0,0,0,.05,1.6A2.348,2.348,0,0,1,715.422,752.266Z" fill="#d9a171"/>
      <path id="Trazado_100027" data-name="Trazado 100027" d="M682.992,736.746a15.354,15.354,0,0,1,4,1.05l2.92-2.45,5,3.82-1.58,3.47a15.653,15.653,0,0,1,2.07,3.55l3.79.33.85,6.25-3.57,1.34a15.3,15.3,0,0,1-1.05,4l2.45,2.92-3.82,5-3.51-1.59a14.954,14.954,0,0,1-3.55,2.07l-.33,3.8-6.25.85-1.34-3.57a15.592,15.592,0,0,1-4-1l-2.93,2.45-5-3.82,1.59-3.47a15.314,15.314,0,0,1-2.07-3.55l-3.8-.34-.85-6.25,3.62-1.34a15.252,15.252,0,0,1,1.05-4l-2.45-2.92,3.82-5,3.49,1.54a16.071,16.071,0,0,1,3.55-2.07l.34-3.8,6.25-.84,1.33,3.57Zm-2.56,8.67a6.664,6.664,0,1,0,.034-.005Z" fill="none"/>
      <path id="Trazado_100028" data-name="Trazado 100028" d="M680.432,745.416a2.39,2.39,0,0,1,.42-.09,4.841,4.841,0,0,1,1.25,0,6.681,6.681,0,0,1,4.15,1.9,7,7,0,0,1-8.27,11.04,6.846,6.846,0,0,1-2.85-2.92,6.94,6.94,0,0,1,.16-6.68,6.737,6.737,0,0,1,3.49-2.94,5.145,5.145,0,0,1,1.21-.31,1.251,1.251,0,0,1,.44,0c0,.06-.6.12-1.57.53a6.808,6.808,0,0,0-3.24,2.94,6.536,6.536,0,1,0,10.36-1.4,6.7,6.7,0,0,0-3.9-2C681.032,745.376,680.432,745.476,680.432,745.416Z" fill="#344154"/>
      <path id="Trazado_100029" data-name="Trazado 100029" d="M682.992,736.746a1.969,1.969,0,0,1-.1-.22l-.27-.66c-.25-.63-.6-1.52-1-2.66l.09.05-6.24.9.12-.12c-.1,1.15-.2,2.43-.32,3.79v.1h-.1a15.847,15.847,0,0,0-3.5,2.06l-.08.07h-.1l-3.48-1.56.24-.06-3.81,5v-.27l2.45,2.92.09.1v.13a15.516,15.516,0,0,0-1,3.92v.14l-.14.05-3.56,1.34.15-.26q.405,3,.86,6.25l-.23-.22,3.8.33h.15l.06.15a15.591,15.591,0,0,0,2,3.48l.1.13-.06.15c-.5,1.08-1,2.27-1.58,3.47l-.08-.33,5,3.82h-.34l2.92-2.45.13-.11.15.07a15.322,15.322,0,0,0,3.9,1h0c.1.07-.22-.18.23.17h0v.17l.08.23.17.45.34.89.66,1.78-.29-.17,6.25-.85-.23.24.33-3.79v-.16l.15-.07a15,15,0,0,0,3.49-2l.13-.1.14.07,3.47,1.59-.32.07,3.83-5v.32l-2.41-2.82-.09-.11.06-.14a15.452,15.452,0,0,0,1-3.91v-.15h.13l3.57-1.33-.14.24c-.3-2.2-.57-4.27-.83-6.25l.19.18-3.8-.35h-.12v-.11a15.12,15.12,0,0,0-2-3.51l-.06-.09v-.1c.58-1.26,1.11-2.39,1.6-3.46v.2l-5-3.86h.16c-1.17,1-2.14,1.76-2.95,2.42h-.05a16.388,16.388,0,0,0-2.94-.93l-.75-.15-.25-.05a.756.756,0,0,1,.26,0,7.207,7.207,0,0,1,.76.1,15.409,15.409,0,0,1,3,.85h-.09l2.9-2.48.07-.06.08.06,5.05,3.79.1.08-.06.11c-.48,1.08-1,2.22-1.56,3.48v-.18a15.555,15.555,0,0,1,2.07,3.55l-.16-.12,3.79.32h.17v.16c.28,2,.56,4,.87,6.25v.18l-.17.07-3.5,1.36.15-.19a16.023,16.023,0,0,1-1.06,4v-.26l2.45,2.92.13.16-.12.16-3.81,5-.13.17-.21-.02-3.47-1.58h.27a15.316,15.316,0,0,1-3.61,2.11l.17-.22c-.11,1.25-.22,2.51-.33,3.79v.22h-.22l-6.25.85h-.21l-.08-.21c-.22-.59-.44-1.18-.67-1.78l-.33-.89-.17-.45-.08-.23v-.11h0l.22.18h0a15.929,15.929,0,0,1-4-1.07h.28l-2.92,2.44-.17.14-.17-.13-5-3.82-.17-.13.09-.2,1.42-3.59v.27a15.713,15.713,0,0,1-2.1-3.62l.21.16-3.79-.34h-.21v-.21c-.29-2.17-.58-4.28-.84-6.25v-.19l.19-.07,3.54-1.33-.15.19a15.661,15.661,0,0,1,1.07-4v.24l-2.44-2.93-.11-.14.1-.13,3.84-5,.09-.12.14.06,3.47,1.6h-.19a15.754,15.754,0,0,1,3.6-2.08l-.1.14c.13-1.37.25-2.65.36-3.8v-.11h.11l6.26-.8h.07v.07c.4,1.14.72,2,.94,2.65l.24.7A1.013,1.013,0,0,1,682.992,736.746Z" fill="#344154"/>
    </g>
    <g id="freepik--Character--inject-241">
      <path id="Trazado_100030" data-name="Trazado 100030" d="M640.832,1001.456l-1.4.47c-6.24,2.1-24.81,8.24-30.42,10.54,0,0,9.94,87.91,11.1,96.08s1.43,40.86,1.43,40.86h105.77s-.28-88.11,0-101.77c.39-17.68,2.58-35.17,2.58-35.17l-18.44-7.2-21.59-11.4Z" fill="#d9a171"/>
      <g id="Grupo_53405" data-name="Grupo 53405" opacity="0.3">
        <path id="Trazado_100031" data-name="Trazado 100031" d="M664.352,1020.476q-12.941,48.08-27.28,95.79c-1.13,3.75-2.24,7.86-.72,11.47a10.27,10.27,0,0,0,8.16,5.8,16.485,16.485,0,0,0,10.03-2.27c7.15-4,11.79-11.51,14.07-19.37s2.49-16.15,2.67-24.33l1.5-65.47Z"/>
      </g>
      <path id="Trazado_100032" data-name="Trazado 100032" d="M609.012,1012.466s-15.51,6.87-14.3,34.43a339.41,339.41,0,0,0,3.66,35.91l43.61-12.54-11.09-47.86Z" fill="#d9a171"/>
      <path id="Trazado_100033" data-name="Trazado 100033" d="M712.432,1056.816l-2.33,31.81,43.84-14.2s-9.4-56.14-24.29-62l-16.05,27.43Z" fill="#d9a171"/>
      <path id="Trazado_100034" data-name="Trazado 100034" d="M717.422,1047.636a4.746,4.746,0,0,1,.08.64c0,.48.08,1.1.13,1.87.09,1.68.22,4,.38,6.84.28,5.79.59,13.78.88,22.61s.53,16.77.72,22.62c.09,2.84.16,5.17.21,6.85v1.87a4.715,4.715,0,0,1,0,.65,2.753,2.753,0,0,1-.09-.65c0-.48-.07-1.1-.13-1.86-.09-1.68-.22-4-.38-6.85-.28-5.78-.59-13.78-.87-22.61s-.54-16.77-.73-22.61c-.09-2.85-.16-5.17-.21-6.86v-1.86A2.669,2.669,0,0,1,717.422,1047.636Z" fill="#344154"/>
      <path id="Trazado_100035" data-name="Trazado 100035" d="M630.7,1034.266a5.849,5.849,0,0,1-.57-1c-.38-.77-.86-1.71-1.41-2.83a47.126,47.126,0,0,0-5.47-8.78,21.36,21.36,0,0,0-8.11-6.18,25.837,25.837,0,0,0-4.12-1.16,4.1,4.1,0,0,1,1.16,0,14.07,14.07,0,0,1,3.09.77,20.6,20.6,0,0,1,8.39,6.2,41.515,41.515,0,0,1,5.39,9c.56,1.22,1,2.21,1.26,2.9A4.071,4.071,0,0,1,630.7,1034.266Z" fill="#344154"/>
      <path id="Trazado_100036" data-name="Trazado 100036" d="M722.542,1011.126a64.128,64.128,0,0,0-2.76,7.36,62.891,62.891,0,0,0-1.3,7.76,8.02,8.02,0,0,1-.08-2.33,26.484,26.484,0,0,1,.88-5.56,25.946,25.946,0,0,1,2-5.25A8.461,8.461,0,0,1,722.542,1011.126Z" fill="#344154"/>
      <path id="Trazado_100037" data-name="Trazado 100037" d="M625.032,1024.826a2.628,2.628,0,0,0-.43.05,1.66,1.66,0,0,0-1,.7,4.064,4.064,0,0,0-.66,1.81,8.424,8.424,0,0,1-.32,1.24,2.376,2.376,0,0,1-.89,1.19,2.94,2.94,0,0,1-3.24-.34,11.58,11.58,0,0,1-2.32-2.95,5.255,5.255,0,0,0-1.3-1.4,2.915,2.915,0,0,0-1.78-.6,1.886,1.886,0,0,0-1.52,1,4.99,4.99,0,0,0-.46,2.05c-.05.74-.06,1.49-.15,2.23a4.654,4.654,0,0,1-.71,2.15,2.277,2.277,0,0,1-.38.44,2.033,2.033,0,0,1-.46.35,2.807,2.807,0,0,1-1.07.34,3.887,3.887,0,0,1-2.07-.39,8.483,8.483,0,0,1-2.77-2.56,10,10,0,0,0-2.2-2.25,3.323,3.323,0,0,0-2.39-.62,2.534,2.534,0,0,0-1.54,1,1.858,1.858,0,0,0-.34,1.15c0,.28.1.42.07.43a.921.921,0,0,1-.17-.42,1.835,1.835,0,0,1,.26-1.26,2.685,2.685,0,0,1,1.66-1.22,3.539,3.539,0,0,1,2.65.61,10.047,10.047,0,0,1,2.34,2.28,8.058,8.058,0,0,0,2.7,2.43,3.429,3.429,0,0,0,1.81.34,2.11,2.11,0,0,0,1.55-.93c.74-1.09.65-2.64.76-4.13a5.5,5.5,0,0,1,.52-2.26,2.439,2.439,0,0,1,2-1.24,4.288,4.288,0,0,1,3.49,2.24,12.131,12.131,0,0,0,2.18,2.87,2.592,2.592,0,0,0,2.79.39,3.3,3.3,0,0,0,1.12-2.19,4.225,4.225,0,0,1,.79-1.88,1.8,1.8,0,0,1,1.11-.68A.826.826,0,0,1,625.032,1024.826Z" fill="#fafafa"/>
      <path id="Trazado_100038" data-name="Trazado 100038" d="M633.9,1039.576a2.012,2.012,0,0,1,0,.58,3.772,3.772,0,0,1-.55,1.55,4.508,4.508,0,0,1-2,1.72,3.862,3.862,0,0,1-3.44-.05c-1.17-.57-2.14-1.68-3.5-2.06s-2.87.54-3.74,1.87-1.28,3.1-2.2,4.74a5.633,5.633,0,0,1-2,2.07,3.232,3.232,0,0,1-3,.24,5.284,5.284,0,0,1-2.08-2.12c-.49-.82-.9-1.65-1.4-2.38a3.537,3.537,0,0,0-1.9-1.54,2.679,2.679,0,0,0-2.24.44,8.523,8.523,0,0,0-2.7,3.68,30.659,30.659,0,0,1-1.88,3.71,6.362,6.362,0,0,1-4.83,3.24,3.491,3.491,0,0,1-1.62-.29,1.6,1.6,0,0,1-.38-.2l-.12-.09a4.312,4.312,0,0,0,2.11.37,6.2,6.2,0,0,0,4.62-3.23,31.061,31.061,0,0,0,1.8-3.69,8.875,8.875,0,0,1,2.82-3.9,3.207,3.207,0,0,1,2.64-.52,4,4,0,0,1,2.19,1.73c.53.77.94,1.61,1.43,2.4a4.668,4.668,0,0,0,1.85,1.91,2.681,2.681,0,0,0,2.5-.21,5,5,0,0,0,1.81-1.88c.88-1.53,1.25-3.3,2.24-4.75a5.271,5.271,0,0,1,1.86-1.72,3.189,3.189,0,0,1,2.39-.3,5.822,5.822,0,0,1,1.94,1.06,14.487,14.487,0,0,0,1.62,1.09,3.542,3.542,0,0,0,3.15.11A4.219,4.219,0,0,0,633.9,1039.576Z" fill="#fafafa"/>
      <path id="Trazado_100039" data-name="Trazado 100039" d="M628.8,1060.936a1.591,1.591,0,0,1-.36-.06,1.467,1.467,0,0,0-1,.31,2.993,2.993,0,0,0-.92,1.37,5.045,5.045,0,0,0-.1,2.23,5.65,5.65,0,0,1-.21,2.9,3.081,3.081,0,0,1-2.91,1.67,4.63,4.63,0,0,1-3.43-1.6,13.737,13.737,0,0,1-2.18-3.5l.18.14a2.94,2.94,0,0,0-2.72,1.35,7,7,0,0,0-1.15,3.3,25.217,25.217,0,0,1-.48,2.7,5.75,5.75,0,0,1-1.31,2.41,3.231,3.231,0,0,1-2.43,1.12,3.82,3.82,0,0,1-2.35-1c-1.28-1.09-1.91-2.53-2.79-3.6a4.2,4.2,0,0,0-3.16-1.8,4,4,0,0,0-2.88,1,4.128,4.128,0,0,0-1.22,2,5.086,5.086,0,0,0-.09,2l-.06-.12a2.513,2.513,0,0,1-.1-.4,4.066,4.066,0,0,1,0-1.57,4.139,4.139,0,0,1,4.32-3.28,4.28,4.28,0,0,1,1.89.51,5.543,5.543,0,0,1,1.59,1.39c.93,1.12,1.57,2.52,2.76,3.51a3.321,3.321,0,0,0,2.05.87,2.722,2.722,0,0,0,2.05-1,5.354,5.354,0,0,0,1.18-2.19,26.72,26.72,0,0,0,.47-2.65,7.331,7.331,0,0,1,1.25-3.53,3.42,3.42,0,0,1,3.21-1.53h.13l.06.11a13.758,13.758,0,0,0,2.07,3.4,4.182,4.182,0,0,0,3.1,1.49,2.68,2.68,0,0,0,2.56-1.4,5.5,5.5,0,0,0,.24-2.71,4.993,4.993,0,0,1,.18-2.35,2.992,2.992,0,0,1,1.05-1.42,1.418,1.418,0,0,1,1.08-.25A.78.78,0,0,1,628.8,1060.936Z" fill="#fafafa"/>
      <path id="Trazado_100040" data-name="Trazado 100040" d="M750.2,1056.706a1.405,1.405,0,0,0-.5.14,2.369,2.369,0,0,0-1.13.91,6.193,6.193,0,0,0-.89,2.16,12.64,12.64,0,0,1-.85,3.1,3.153,3.153,0,0,1-1.29,1.45,2.3,2.3,0,0,1-2.12.07,4.231,4.231,0,0,1-1.61-1.56,14.1,14.1,0,0,1-1.06-2,6.472,6.472,0,0,0-1.29-1.89,2.206,2.206,0,0,0-2-.77,1.929,1.929,0,0,0-1.36,1.67,14.7,14.7,0,0,0-.13,2.61,7.29,7.29,0,0,1-1.82,5,4.381,4.381,0,0,1-4.75,1.13c-1.53-.69-2.44-2-3.47-2.83a3.558,3.558,0,0,0-3.31-1.15,4.182,4.182,0,0,0-2.38,1.8,7.677,7.677,0,0,0-.93,2.15c-.34,1.27-.46,2-.51,2a2.139,2.139,0,0,1,0-.53c.05-.34.12-.85.27-1.5a7.758,7.758,0,0,1,.88-2.26,4.522,4.522,0,0,1,2.54-2,3.276,3.276,0,0,1,1.93.08,5.607,5.607,0,0,1,1.76,1.1c1.06.91,2,2.13,3.36,2.72a3.92,3.92,0,0,0,4.2-1.05,6.789,6.789,0,0,0,1.67-4.65,13.7,13.7,0,0,1,.15-2.7,3.1,3.1,0,0,1,.55-1.3,2.159,2.159,0,0,1,1.19-.77,2.729,2.729,0,0,1,2.47.92,7,7,0,0,1,1.38,2,13.384,13.384,0,0,0,1,2,3.769,3.769,0,0,0,1.41,1.42,1.9,1.9,0,0,0,1.74,0,2.781,2.781,0,0,0,1.13-1.27,12.684,12.684,0,0,0,.9-3,6.058,6.058,0,0,1,1-2.21,2.317,2.317,0,0,1,1.26-.89A1.133,1.133,0,0,1,750.2,1056.706Z" fill="#fafafa"/>
      <path id="Trazado_100041" data-name="Trazado 100041" d="M745,1033.206a1.511,1.511,0,0,1-.18.37c-.14.23-.35.56-.64,1a10.256,10.256,0,0,1-1.19,1.44,5.27,5.27,0,0,1-2.13,1.31,3.712,3.712,0,0,1-3-.27c-1-.61-1.49-1.79-2.39-2.41a1.54,1.54,0,0,0-1.51-.16,2.644,2.644,0,0,0-1.16,1.26,4.893,4.893,0,0,0-.48,1.81v2.05a5.84,5.84,0,0,1-.4,2.09,2.93,2.93,0,0,1-1.45,1.55,4.745,4.745,0,0,1-3.85-.22,16.88,16.88,0,0,1-2.88-1.9,8.447,8.447,0,0,0-2.53-1.38,3.32,3.32,0,0,0-2.28.11,3.082,3.082,0,0,0-1.39,1.06,2.21,2.21,0,0,0-.34,1.46,1.331,1.331,0,0,1-.11-.4,1.845,1.845,0,0,1,.28-1.16,3.111,3.111,0,0,1,1.44-1.22,3.667,3.667,0,0,1,2.5-.21,8.809,8.809,0,0,1,2.68,1.39,18.378,18.378,0,0,0,2.82,1.81,4.3,4.3,0,0,0,3.44.2,2.486,2.486,0,0,0,1.2-1.29,5.42,5.42,0,0,0,.35-1.91v-2.06a5.485,5.485,0,0,1,.54-2,3.127,3.127,0,0,1,1.42-1.48,2,2,0,0,1,2,.21c1.06.79,1.49,1.93,2.34,2.45a3.4,3.4,0,0,0,2.7.28,5.084,5.084,0,0,0,2-1.17,11,11,0,0,0,1.23-1.35A14.6,14.6,0,0,1,745,1033.206Z" fill="#fafafa"/>
      <path id="Trazado_100042" data-name="Trazado 100042" d="M719.442,1090.746a1.444,1.444,0,0,1-.51.59,2.893,2.893,0,0,1-2.2.36,5.948,5.948,0,0,1-1.55-.53,16.858,16.858,0,0,1-1.61-1,9.18,9.18,0,0,0-1.87-1.07,3.138,3.138,0,0,0-2.28-.06,4.077,4.077,0,0,0-1.87,1.73,21.666,21.666,0,0,0-1.3,2.6,14.316,14.316,0,0,1-1.52,2.81,4.419,4.419,0,0,1-1.29,1.09,2.591,2.591,0,0,1-.85.32,3.822,3.822,0,0,0-.44.09h-.46a3.214,3.214,0,0,1-1.74-.61,6.407,6.407,0,0,1-1.32-1.28c-.77-.95-1.4-2-2.15-3a5.568,5.568,0,0,0-2.81-2.18,4.529,4.529,0,0,0-3.52.74,8.187,8.187,0,0,0-2.58,2.72c-.69,1.07-1.24,2.2-1.88,3.29a11.143,11.143,0,0,1-2.3,2.93,6.067,6.067,0,0,1-3.24,1.55,4.528,4.528,0,0,1-3.29-1,10.778,10.778,0,0,1-2.12-2.39c-1.16-1.67-2.18-3.3-3.61-4.2a4.068,4.068,0,0,0-2.23-.68,5.273,5.273,0,0,0-2.06.47,5.7,5.7,0,0,0-2.55,2.24,4.537,4.537,0,0,0-.66,2.06,5.829,5.829,0,0,1,0,.77v-.19a4.7,4.7,0,0,1-.06-.58,4.528,4.528,0,0,1,.6-2.16,5.788,5.788,0,0,1,2.6-2.4,5.392,5.392,0,0,1,2.18-.54,4.411,4.411,0,0,1,2.43.69,15.357,15.357,0,0,1,3.76,4.27,11.061,11.061,0,0,0,2.05,2.28,4,4,0,0,0,2.95.87,5.546,5.546,0,0,0,3-1.45,10.543,10.543,0,0,0,2.18-2.81c.62-1.07,1.18-2.21,1.88-3.31a8.744,8.744,0,0,1,2.74-2.88,5,5,0,0,1,3.93-.8,6.174,6.174,0,0,1,3.09,2.36c.77,1,1.39,2.06,2.13,3a3.8,3.8,0,0,0,2.69,1.72,3.161,3.161,0,0,0,2.66-1.35,14.67,14.67,0,0,0,1.49-2.71,20.9,20.9,0,0,1,1.35-2.64,4.45,4.45,0,0,1,2.08-1.86,3.477,3.477,0,0,1,2.53.1,8.966,8.966,0,0,1,1.91,1.14,16.256,16.256,0,0,0,1.57,1.07,5.323,5.323,0,0,0,1.47.55,2.8,2.8,0,0,0,2.1-.25A4.626,4.626,0,0,0,719.442,1090.746Z" fill="#fafafa"/>
      <path id="Trazado_100043" data-name="Trazado 100043" d="M717.542,1057.466a.338.338,0,0,1-.08.17,1.072,1.072,0,0,1-.41.34,2.3,2.3,0,0,1-2-.18c-.82-.38-1.47-1.32-2.57-1.76a1.62,1.62,0,0,0-1.69.29,4.193,4.193,0,0,0-.92,1.88,12.738,12.738,0,0,1-.81,2.33,3.268,3.268,0,0,1-.87,1.06,2.734,2.734,0,0,1-1.34.52c-2,.2-3.86-1.12-5.14-2.69a15.649,15.649,0,0,0-2.17-2.16,4.486,4.486,0,0,0-2.91-.93,8,8,0,0,0-5.58,3.29c-1.43,1.84-2.38,4-3.65,5.84a9.714,9.714,0,0,1-5,4.14,5.589,5.589,0,0,1-3.08.18,5.116,5.116,0,0,1-2.49-1.5c-1.29-1.34-2.14-2.87-3.42-3.66a3.351,3.351,0,0,0-2-.51,3.436,3.436,0,0,0-1.75.65,7.708,7.708,0,0,0-2.07,2.29c-.92,1.46-1.24,2.38-1.29,2.35a2.742,2.742,0,0,1,.22-.66,15.929,15.929,0,0,1,.89-1.8,8.1,8.1,0,0,1,2.08-2.42,3.745,3.745,0,0,1,1.89-.74,3.677,3.677,0,0,1,2.22.53c1.41.85,2.28,2.41,3.54,3.67a4.683,4.683,0,0,0,2.28,1.36,5.2,5.2,0,0,0,2.83-.2,9.276,9.276,0,0,0,4.7-4c1.23-1.83,2.18-4,3.66-5.88a8.42,8.42,0,0,1,6-3.48,5.088,5.088,0,0,1,3.22,1,16.509,16.509,0,0,1,2.26,2.25,8.55,8.55,0,0,0,2.18,1.93,4.378,4.378,0,0,0,2.56.65,2.37,2.37,0,0,0,1.9-1.34,13.054,13.054,0,0,0,.82-2.25,4.448,4.448,0,0,1,1.05-2,2,2,0,0,1,2-.32c1.2.53,1.81,1.5,2.57,1.86a2.223,2.223,0,0,0,1.85.27A1.519,1.519,0,0,0,717.542,1057.466Z" fill="#fafafa"/>
      <path id="Trazado_100044" data-name="Trazado 100044" d="M718.052,1022.956a2.286,2.286,0,0,0-.51-.34,2.378,2.378,0,0,0-1.69-.12,3.262,3.262,0,0,0-2.06,1.68,17.282,17.282,0,0,0-1.25,3.51,7.731,7.731,0,0,1-.95,2,3.814,3.814,0,0,1-2,1.48,4.726,4.726,0,0,1-2.63-.08,9.268,9.268,0,0,1-2.48-1.18c-1.55-1-3-2.35-5-2.68a4.51,4.51,0,0,0-2.8.45,8.4,8.4,0,0,0-2.38,1.89c-1.42,1.53-2.38,3.41-3.72,4.95a10.016,10.016,0,0,1-2.23,2,5.543,5.543,0,0,1-2.78.89,7.787,7.787,0,0,1-4.88-2c-1.29-1-2.37-2.11-3.51-2.88a6.055,6.055,0,0,0-3.39-1.23,4.353,4.353,0,0,0-2.58.83,2.809,2.809,0,0,0-1,1.36c-.14.38-.13.6-.17.6a1.6,1.6,0,0,1,.07-.63,2.816,2.816,0,0,1,1-1.49,4.56,4.56,0,0,1,2.7-1,6.454,6.454,0,0,1,3.6,1.22c1.19.77,2.3,1.85,3.57,2.85a7.34,7.34,0,0,0,4.59,1.88,6.6,6.6,0,0,0,4.64-2.77c1.29-1.49,2.25-3.37,3.73-5a8.91,8.91,0,0,1,2.53-2,5.053,5.053,0,0,1,3.12-.5c2.11.4,3.62,1.81,5.12,2.79s3.22,1.66,4.73,1.24a3.391,3.391,0,0,0,1.76-1.29,7.2,7.2,0,0,0,.93-1.91,18.121,18.121,0,0,1,1.34-3.54,4.158,4.158,0,0,1,1.05-1.18,3.453,3.453,0,0,1,1.22-.55,2.38,2.38,0,0,1,1.79.23A1.3,1.3,0,0,1,718.052,1022.956Z" fill="#fafafa"/>
      <path id="Trazado_100045" data-name="Trazado 100045" d="M712.922,1006.736a1.162,1.162,0,0,1-.06.37,5.943,5.943,0,0,1-.36,1,3.472,3.472,0,0,1-1.06,1.39,1.84,1.84,0,0,1-2.28-.15,11.11,11.11,0,0,1-1.54-2.3,3.188,3.188,0,0,0-.95-1.05,2.79,2.79,0,0,0-1.4-.44,4.068,4.068,0,0,0-3,1.11,9.894,9.894,0,0,0-2.07,2.94,7.433,7.433,0,0,1-1.05,1.65,2.231,2.231,0,0,1-1.82.81,2.472,2.472,0,0,1-1.65-1,4.856,4.856,0,0,1-.83-1.57,6.34,6.34,0,0,0-1.28-2.71,2,2,0,0,0-1.12-.58,1.339,1.339,0,0,0-1.06.32,4.553,4.553,0,0,0-1.05,1.87,4.082,4.082,0,0,1-.86,1.51,1.642,1.642,0,0,1-.95.55.737.737,0,0,1-.39,0,1.791,1.791,0,0,0,1.19-.66,4.308,4.308,0,0,0,.74-1.47,4.612,4.612,0,0,1,1.07-2.05,1.718,1.718,0,0,1,1.36-.45,2.471,2.471,0,0,1,1.37.67,6.631,6.631,0,0,1,1.44,2.86,4.356,4.356,0,0,0,.75,1.41,2,2,0,0,0,1.32.77,1.693,1.693,0,0,0,1.39-.65,7.541,7.541,0,0,0,1-1.53,9.9,9.9,0,0,1,2.19-3.09,4.521,4.521,0,0,1,3.35-1.21,3.262,3.262,0,0,1,1.62.54,3.677,3.677,0,0,1,1.07,1.2,11.071,11.071,0,0,0,1.42,2.25,1.49,1.49,0,0,0,1.87.18,3.348,3.348,0,0,0,1-1.23C712.742,1007.266,712.872,1006.716,712.922,1006.736Z" fill="#fafafa"/>
      <path id="Trazado_100046" data-name="Trazado 100046" d="M647.712,1006.806a1.874,1.874,0,0,1,.1.48q.094.687.12,1.38a6.755,6.755,0,0,1-.26,2.19,3.7,3.7,0,0,1-1.9,2.24,2.615,2.615,0,0,1-1.76.22,2.775,2.775,0,0,1-1.56-1.12,16.591,16.591,0,0,1-1-1.66,2.642,2.642,0,0,0-4.83.25,5.434,5.434,0,0,0-.62,2.13,17.188,17.188,0,0,0,0,2.38,7.417,7.417,0,0,1-.17,2.48,3.5,3.5,0,0,1-1.41,2,2.722,2.722,0,0,1-2.4.19,5.279,5.279,0,0,1-1.89-1.24c-1-1.06-1.64-2.26-2.52-3.11a3.85,3.85,0,0,0-3-1.22,3.8,3.8,0,0,0-2.49,1.07,3.9,3.9,0,0,0-1,1.81,5.184,5.184,0,0,0-.1,1.82,1.16,1.16,0,0,1-.14-.47,3.744,3.744,0,0,1,0-1.4,4,4,0,0,1,3.68-3.2,4.247,4.247,0,0,1,3.32,1.28c.94.89,1.61,2.11,2.56,3.08a4.913,4.913,0,0,0,1.72,1.12,2.251,2.251,0,0,0,2-.16,3,3,0,0,0,1.18-1.75,6.827,6.827,0,0,0,.15-2.31,8.273,8.273,0,0,1,.66-4.79,3.43,3.43,0,0,1,4.05-1.72,3.393,3.393,0,0,1,1.6,1.47c.37.58.65,1.17,1,1.65a2.357,2.357,0,0,0,1.31,1,2.27,2.27,0,0,0,1.5-.16,3.382,3.382,0,0,0,1.78-2,6.659,6.659,0,0,0,.34-2.1C647.732,1007.476,647.662,1006.816,647.712,1006.806Z" fill="#fafafa"/>
      <path id="Trazado_100047" data-name="Trazado 100047" d="M701.282,891.666c-6.77-1.46-13.15,5-20,4.28-4.18-.46-7.56-3.48-11.39-5.22-5.73-2.59-13.51-2.43-18.86.88s-8.69,6.65-8.93,12.93c-5.33-2.49-13.27,4.64-15.64,11.06s-1.1,12.74,1.1,19.23a90.391,90.391,0,0,0,17.52,30.44c.69.79,1.76,1.63,2.66,1.11a2.261,2.261,0,0,0,.82-1.91c.46-6.13-.83-12.25-1.87-18.31s-1.83-12.34-.39-18.33,5.54-11.68,11.45-13.37c4.37-1.26,9.11-.2,13.25,1.68s7.86,4.56,11.83,6.76,8.38,4,12.92,3.79,9.21-2.73,10.79-7-1.07-9.9-5.58-10.47a8.93,8.93,0,0,0,.32-17.53Z" fill="#344154"/>
      <path id="Trazado_100048" data-name="Trazado 100048" d="M689.912,999.536l-1.75-13s17-4.77,15.12-22.1c-.9-8.37-4.16-25.46-7.28-40.88a32.49,32.49,0,0,0-35.71-25.81l-1.67.2c-17.88,3.22-25.14,20.2-21.43,38l10.07,69.6a21.54,21.54,0,0,0,24.28,18.17h0A21.531,21.531,0,0,0,689.912,999.536Z" fill="#ffbe9d"/>
      <path id="Trazado_100049" data-name="Trazado 100049" d="M688.182,986.466a40.5,40.5,0,0,1-23.34-3.7s6.83,11.82,23.92,8.18Z" fill="#eb996e"/>
      <path id="Trazado_100050" data-name="Trazado 100050" d="M690.672,934.016a2.521,2.521,0,0,1-2.06,2.87,2.421,2.421,0,0,1-2.82-1.94l-.01-.06a2.529,2.529,0,0,1,2.06-2.88,2.42,2.42,0,0,1,2.818,1.941Z" fill="#344154"/>
      <path id="Trazado_100051" data-name="Trazado 100051" d="M693.292,933.566c-.27.35-2.3-.81-5-.48s-4.45,1.89-4.78,1.6c-.16-.13.08-.75.86-1.47a6.856,6.856,0,0,1,3.77-1.68,6.652,6.652,0,0,1,4,.78C693.082,932.846,693.432,933.4,693.292,933.566Z" fill="#344154"/>
      <path id="Trazado_100052" data-name="Trazado 100052" d="M665.362,936.146a2.56,2.56,0,0,1-2.06,2.92,2.44,2.44,0,0,1-2.827-1.979c-.005-.027-.009-.054-.013-.081a2.56,2.56,0,0,1,2.05-2.93,2.459,2.459,0,0,1,2.84,2.009Z" fill="#344154"/>
      <path id="Trazado_100053" data-name="Trazado 100053" d="M667.762,935.636c-.27.36-2.31-.8-5-.48s-4.45,1.89-4.78,1.6c-.16-.12.08-.74.86-1.46a6.784,6.784,0,0,1,3.77-1.68,6.577,6.577,0,0,1,4,.78C667.542,934.926,667.9,935.476,667.762,935.636Z" fill="#344154"/>
      <path id="Trazado_100054" data-name="Trazado 100054" d="M679.232,954.606c0-.15,1.59-.63,4.23-1.3.67-.15,1.29-.36,1.35-.84a3.482,3.482,0,0,0-.69-1.95l-2.58-4.93c-3.68-7-6.42-12.84-6.14-13s3.49,5.43,7.17,12.46l2.55,5a4,4,0,0,1,.67,2.63,1.733,1.733,0,0,1-1,1.12,4.471,4.471,0,0,1-1.13.3C680.932,954.546,679.262,954.756,679.232,954.606Z" fill="#344154"/>
      <path id="Trazado_100055" data-name="Trazado 100055" d="M671.622,957.386c.43-.07.78,2.81,3.5,4.56s5.75,1.07,5.82,1.47c.07.18-.61.64-1.91.83a7.171,7.171,0,0,1-4.84-1.06,6.279,6.279,0,0,1-2.75-3.84C671.192,958.146,671.422,957.4,671.622,957.386Z" fill="#344154"/>
      <path id="Trazado_100056" data-name="Trazado 100056" d="M666.422,923.466c-.17.76-2.87.74-5.94,1.49s-5.5,1.9-6,1.3c-.22-.29.13-1,1.07-1.84a10.64,10.64,0,0,1,9.09-2.12C665.852,922.616,666.542,923.116,666.422,923.466Z" fill="#344154"/>
      <path id="Trazado_100057" data-name="Trazado 100057" d="M691.392,924.826c-.4.66-2.3.26-4.51.49s-4,.9-4.52.32c-.23-.29,0-.93.74-1.6a6.569,6.569,0,0,1,7.28-.65C691.232,923.916,691.542,924.506,691.392,924.826Z" fill="#344154"/>
      <path id="Trazado_100058" data-name="Trazado 100058" d="M640.142,948.526c-.31-.09-12.31-2.09-10.52,9.7s13.27,7.55,13.23,7.2S640.142,948.526,640.142,948.526Z" fill="#ffbe9d"/>
      <path id="Trazado_100059" data-name="Trazado 100059" d="M638.542,961.516c-.05,0-.18.17-.5.39a2.1,2.1,0,0,1-1.53.26c-1.32-.27-2.67-2.08-3.05-4.2a6.938,6.938,0,0,1,.13-3,2.39,2.39,0,0,1,1.3-1.81,1.06,1.06,0,0,1,1.3.38c.21.31.17.55.23.56s.23-.23.06-.71a1.371,1.371,0,0,0-.58-.66,1.569,1.569,0,0,0-1.18-.13,2.918,2.918,0,0,0-1.87,2.16,7.057,7.057,0,0,0-.21,3.39c.44,2.36,2,4.4,3.77,4.63a2.181,2.181,0,0,0,1.83-.6C638.592,961.806,638.622,961.526,638.542,961.516Z" fill="#eb996e"/>
      <path id="Trazado_100060" data-name="Trazado 100060" d="M699.222,919.436a25.182,25.182,0,0,1-22.8-2.34c-4.64-3.06-8.51-7.8-14-8.79a14.131,14.131,0,0,0-10.57,2.76,27.372,27.372,0,0,0-7.25,8.47c4.4,8.39,3.33,18.48,2.15,27.88a4.732,4.732,0,0,1-1,2.9c-1.27,1.24-3.46.65-4.84-.48-2.2-1.81-3.3-4.6-4.13-7.33a49.067,49.067,0,0,1-2.24-19.24,33.4,33.4,0,0,1,7.1-17.82,31.617,31.617,0,0,1,21-11,38.825,38.825,0,0,1,23.32,5.31,22.7,22.7,0,0,1,8.27,7.5" fill="#344154"/>
      <path id="Trazado_100061" data-name="Trazado 100061" d="M706.752,895.266a2.551,2.551,0,0,1,0,1,4.793,4.793,0,0,1-1.36,2.64,7.541,7.541,0,0,1-4.24,2,12.942,12.942,0,0,1-3,.17,6.248,6.248,0,0,1-3.18-1,4.159,4.159,0,0,1-1.88-3.16,3.679,3.679,0,0,1,2.15-3.32,4.537,4.537,0,0,1,2.09-.53,4,4,0,0,1,2.15.67,5.423,5.423,0,0,1,2.25,3.93,6.25,6.25,0,0,1-1.34,4.56,9.594,9.594,0,0,1-4,2.95,15.64,15.64,0,0,1-10.25.11,44.166,44.166,0,0,1-9.38-4.22,57.76,57.76,0,0,0-8.54-4.11,17.563,17.563,0,0,0-8.37-1,16.851,16.851,0,0,0-6.86,2.67,21.088,21.088,0,0,0-7,8.07c-.58,1.14-.95,2.07-1.2,2.7a6.529,6.529,0,0,1-.39,1,.8.8,0,0,1,.06-.26c.05-.17.11-.42.22-.74a21.941,21.941,0,0,1,1.11-2.76,20.887,20.887,0,0,1,7-8.32,17.265,17.265,0,0,1,7-2.81,18,18,0,0,1,8.61,1,55.723,55.723,0,0,1,8.65,4.12,45.235,45.235,0,0,0,9.27,4.16,15.2,15.2,0,0,0,9.86-.09,9,9,0,0,0,3.76-2.75,5.683,5.683,0,0,0,1.25-4.16,4.882,4.882,0,0,0-2-3.56,3.629,3.629,0,0,0-3.73-.14,3.269,3.269,0,0,0-1.92,2.87,3.8,3.8,0,0,0,1.67,2.84,5.839,5.839,0,0,0,3,1,11.874,11.874,0,0,0,2.88-.12,7.381,7.381,0,0,0,4.13-1.84,4.88,4.88,0,0,0,1.41-2.5A10.208,10.208,0,0,0,706.752,895.266Z" fill="#455a64"/>
      <path id="Trazado_100062" data-name="Trazado 100062" d="M625.542,926.036a19.794,19.794,0,0,0,3.73.51,10.6,10.6,0,0,0,3.92-.89,17.592,17.592,0,0,0,4.18-2.67,14,14,0,0,0,4.42-7.68,29.824,29.824,0,0,0,.35-3.76,3.073,3.073,0,0,1,.18,1,11.485,11.485,0,0,1-.12,2.82,13.6,13.6,0,0,1-4.45,8.06,16.777,16.777,0,0,1-4.35,2.72,10.012,10.012,0,0,1-4.13.8,9.36,9.36,0,0,1-2.78-.49A3.439,3.439,0,0,1,625.542,926.036Z" fill="#455a64"/>
      <path id="Trazado_100063" data-name="Trazado 100063" d="M627.082,934.536c0-.11,1.42,0,3.64-.36a16.35,16.35,0,0,0,12.71-10.79c.75-2.12.84-3.54,1-3.53a3.106,3.106,0,0,1,0,1,13.59,13.59,0,0,1-.55,2.67,15.772,15.772,0,0,1-13,11.06,13.524,13.524,0,0,1-2.72.11A2.754,2.754,0,0,1,627.082,934.536Z" fill="#455a64"/>
      <path id="Trazado_100064" data-name="Trazado 100064" d="M659.732,948.416a.31.31,0,0,1-.38-.219h0a.3.3,0,0,1,.16-.393l.02-.007a.32.32,0,0,1,.38.22.31.31,0,0,1-.18.4Z" fill="#eb996e"/>
      <path id="Trazado_100065" data-name="Trazado 100065" d="M664.672,946.646a.38.38,0,0,1-.23-.7.35.35,0,0,1,.4.26A.34.34,0,0,1,664.672,946.646Z" fill="#eb996e"/>
      <path id="Trazado_100066" data-name="Trazado 100066" d="M668.082,946.156c-.15,0-.33-.14-.4-.4s0-.5.17-.54.34.14.4.4S668.242,946.116,668.082,946.156Z" fill="#eb996e"/>
      <path id="Trazado_100067" data-name="Trazado 100067" d="M662.612,951.266c-.16,0-.3-.05-.31-.16s.1-.2.27-.22.3,0,.31.15S662.772,951.266,662.612,951.266Z" fill="#eb996e"/>
      <path id="Trazado_100068" data-name="Trazado 100068" d="M667.142,949.666a.34.34,0,1,1,.208-.434.313.313,0,0,1,.012.044A.321.321,0,0,1,667.142,949.666Z" fill="#eb996e"/>
      <path id="Trazado_100069" data-name="Trazado 100069" d="M691.052,943.856a.32.32,0,0,1-.39-.23h0a.309.309,0,0,1,.167-.4l.013-.005a.31.31,0,0,1,.378.222l0,.008A.321.321,0,0,1,691.052,943.856Z" fill="#eb996e"/>
      <path id="Trazado_100070" data-name="Trazado 100070" d="M694.472,943.116a.368.368,0,0,1-.37-.29.34.34,0,0,1,.21-.43.38.38,0,0,1,.16.72Z" fill="#eb996e"/>
      <path id="Trazado_100071" data-name="Trazado 100071" d="M688,944.266a.281.281,0,0,1-.36-.15.271.271,0,0,1,.182-.336l.018,0a.26.26,0,1,1,.225.469.3.3,0,0,1-.065.021Z" fill="#eb996e"/>
      <path id="Trazado_100072" data-name="Trazado 100072" d="M690.982,947.466a.329.329,0,0,1-.43-.15.3.3,0,1,1,.51-.3A.33.33,0,0,1,690.982,947.466Z" fill="#eb996e"/>
      <path id="Trazado_100073" data-name="Trazado 100073" d="M693.872,946.516a.28.28,0,0,1-.26-.29.27.27,0,0,1,.324-.2l.006,0a.252.252,0,1,1-.07.49Z" fill="#eb996e"/>
      <path id="Trazado_100074" data-name="Trazado 100074" d="M628.992,954.766c0,.06-.65.05-1.18-.72a2.078,2.078,0,0,1-.31-1.54,2.625,2.625,0,0,1,1.07-1.6,2.69,2.69,0,0,1,1.86-.45,3,3,0,0,1,1.44.55c.72.53.84,1.12.79,1.12a4.385,4.385,0,0,0-1-.82,2.677,2.677,0,0,0-2.8,0,2.219,2.219,0,0,0-.9,1.27,1.727,1.727,0,0,0,.16,1.25C628.482,954.546,629.032,954.686,628.992,954.766Z" fill="#344154"/>
      <path id="Trazado_100075" data-name="Trazado 100075" d="M718.542,1083.936l.89,25.83s-74.89,14.83-84.53,19.79-13.56,5.73-13,20l119.63-.2s14.74-5.52,14.45-21.57-4.3-54.62-4.3-54.62Z" fill="#ffbe9d"/>
      <path id="Trazado_100076" data-name="Trazado 100076" d="M634.3,1149.976l9.94-.91,9.49-22.67c-1.53-.26-33.55-5-35.44-4.47l-7.67,27.28S633.622,1149.976,634.3,1149.976Z" fill="#ffbe9d"/>
      <path id="Trazado_100077" data-name="Trazado 100077" d="M612.412,1149.636a1.383,1.383,0,0,0,.53.12c2.65.29,14.86-.46,14.86-.46.56-1.57-.5-6.31-2-6.59s-14.51.6-14.51.6-2,.27-2.56,3.71C608.392,1149.136,612.412,1149.636,612.412,1149.636Z" fill="#ffbe9d"/>
      <path id="Trazado_100078" data-name="Trazado 100078" d="M608.292,1142.7a1.265,1.265,0,0,0,.53.12c2.64.29,14.19.16,14.68-1.25.56-1.57-.32-5.52-1.84-5.8s-14.52.6-14.52.6-2,.27-2.56,3.71C604.272,1142.2,608.292,1142.7,608.292,1142.7Z" fill="#ffbe9d"/>
      <path id="Trazado_100079" data-name="Trazado 100079" d="M606.242,1135.916a1.263,1.263,0,0,0,.53.12c2.65.29,14.19.16,14.69-1.25.56-1.57-.33-5.52-1.85-5.8s-14.52.6-14.52.6-2,.27-2.55,3.71C602.222,1135.416,606.242,1135.916,606.242,1135.916Z" fill="#ffbe9d"/>
      <path id="Trazado_100080" data-name="Trazado 100080" d="M604.322,1129.166c0,.05.21.09.53.12,2.64.29,14.19.16,14.69-1.24.55-1.58-.33-5.53-1.85-5.8s-14.52.6-14.52.6-2,.26-2.55,3.7C600.3,1128.676,604.322,1129.166,604.322,1129.166Z" fill="#ffbe9d"/>
      <path id="Trazado_100081" data-name="Trazado 100081" d="M622.412,1142.646c0,.19-2.54.43-5.62.52s-5.58,0-5.56-.2,2.53-.44,5.62-.52S622.422,1142.446,622.412,1142.646Z" fill="#eb996e"/>
      <path id="Trazado_100082" data-name="Trazado 100082" d="M622.472,1135.836c0,.2-3.57.48-8,.62s-8,.09-8-.11,3.58-.48,8-.62S622.462,1135.636,622.472,1135.836Z" fill="#eb996e"/>
      <g id="Grupo_53406" data-name="Grupo 53406" opacity="0.78">
        <path id="Trazado_100083" data-name="Trazado 100083" d="M621.922,1128.916c0,.2-3.57.48-8,.62s-8,.09-8-.11,3.57-.48,8-.61S621.922,1128.716,621.922,1128.916Z" fill="#eb996e"/>
      </g>
      <path id="Trazado_100084" data-name="Trazado 100084" d="M640.452,1124.646s-21.79-9.69-23.15-8.29-3.46,5.9-3.46,5.9Z" fill="#ffbe9d"/>
      <path id="Trazado_100085" data-name="Trazado 100085" d="M736.122,1132.266c-.09,0-.53-1.56-1.57-4a39.817,39.817,0,0,0-2.07-4.15,41.988,41.988,0,0,0-3.15-4.71,45.832,45.832,0,0,0-3.79-4.14,40.842,40.842,0,0,0-3.53-3c-2.1-1.6-3.53-2.42-3.49-2.5a4.906,4.906,0,0,1,1,.51,26.142,26.142,0,0,1,2.66,1.69,35.547,35.547,0,0,1,3.64,3,39.75,39.75,0,0,1,3.88,4.24,40.389,40.389,0,0,1,3.16,4.8,33.673,33.673,0,0,1,2,4.24,25.482,25.482,0,0,1,1,3A4.43,4.43,0,0,1,736.122,1132.266Z" fill="#eb996e"/>
      <path id="Trazado_100086" data-name="Trazado 100086" d="M648.482,1010.716l-22.54,64.16-25.34,7.3s9.19,38.88,18.57,45.87c3.19,2.37,8.4,4.94,13.74,4.57,10.13-.71,21.49-7.85,25.82-17.83,3.81-8.86,14.13-100.52,14.13-100.52Z" fill="#ffbe9d"/>
      <path id="Trazado_100087" data-name="Trazado 100087" d="M672.542,1017.026l1.32-15.63-3.63-12.55-1.4-4.8,2.74,2.81,5-5.33s-1.62-9.47-3-9.47a25.143,25.143,0,0,0-5.07,1.49c-1,.37-1.79.67-1.79.67l-4.17,2.17,4.24-6.5s4.36,3.63,6.59.48c1.7-2.41-4.65-7.81-7-9.72a2.387,2.387,0,0,0-1.95-.46l-2.47.49a3.59,3.59,0,0,0-3.61-3.29,5.561,5.561,0,0,0-4.8,2.88l-2.6.47a4.338,4.338,0,0,0-4.07,2.83l-5.72,15.56,7.34,31.63" fill="#ffbe9d"/>
      <path id="Trazado_100088" data-name="Trazado 100088" d="M648.482,1010.716s-.06-.19-.16-.56-.24-.95-.41-1.66c-.36-1.48-.88-3.61-1.53-6.34-1.31-5.52-3.17-13.41-5.44-23v-.12c1.13-3.08,2.32-6.35,3.57-9.78l1.93-5.26a5,5,0,0,1,1.6-2.5,4.611,4.611,0,0,1,2.88-1h0l2.6-.47-.17.12a6.3,6.3,0,0,1,1.9-2,5.2,5.2,0,0,1,2.73-.91,4,4,0,0,1,2.8.88,3.45,3.45,0,0,1,1.39,2.67l-.31-.27,1.87-.37a6.637,6.637,0,0,1,1-.17,2.7,2.7,0,0,1,1.05.15,2.822,2.822,0,0,1,.89.54l.76.62c.5.42,1,.85,1.49,1.29a33.863,33.863,0,0,1,2.81,2.81,9.323,9.323,0,0,1,2.13,3.5,2.4,2.4,0,0,1,0,1.27,3.136,3.136,0,0,1-2.99,1.82,7.737,7.737,0,0,1-4.21-1.82l.39-.05c-1.44,2.19-2.85,4.36-4.24,6.49l-.33-.37,4.23-2.16h0c1.43-.54,2.84-1.08,4.26-1.53a17.128,17.128,0,0,1,2.17-.59,2.019,2.019,0,0,1,.63,0,1,1,0,0,1,.56.44,4.945,4.945,0,0,1,.52,1,49.261,49.261,0,0,1,2,8.2v.11l-.08.09q-2.61,2.76-5,5.32l-.16.16-.16-.16-2.73-2.81.35-.2c1.92,6.72,3.6,12.55,5,17.36v.05c-.45,4.93-.8,8.83-1,11.52l-.3,3.06a6.312,6.312,0,0,1-.08.78.828.828,0,0,1-.05.26v-1.05c.05-.72.12-1.74.22-3.06.21-2.7.51-6.6.9-11.53v.05c-1.41-4.8-3.11-10.62-5.08-17.33l-.24-.8.59.6,2.75,2.79h-.32l5-5.34-.06.2a49.143,49.143,0,0,0-2-8.1,4.825,4.825,0,0,0-.46-.91.645.645,0,0,0-.27-.25,2.117,2.117,0,0,0-.45,0,21.183,21.183,0,0,0-2.1.58c-1.41.45-2.81,1-4.23,1.53h0l-4.23,2.16-.85.44.52-.8,4.23-6.5.15-.23.23.18a7.508,7.508,0,0,0,3.9,1.7,2.561,2.561,0,0,0,2.47-1.5,1.7,1.7,0,0,0,0-1,8.936,8.936,0,0,0-2-3.28,31.526,31.526,0,0,0-2.77-2.81c-.48-.43-1-.86-1.47-1.27a6.224,6.224,0,0,0-1.5-1.07,2.771,2.771,0,0,0-1.75,0l-1.87.37-.31.07v-.33a2.931,2.931,0,0,0-1.2-2.24,3.49,3.49,0,0,0-2.46-.77,5.208,5.208,0,0,0-4.22,2.68l-.06.11h-.11l-2.61.47h0a4.139,4.139,0,0,0-2.58.91,4.581,4.581,0,0,0-1.46,2.29q-1,2.69-1.94,5.26-1.911,5.13-3.61,9.76V979c2.2,9.63,4,17.53,5.26,23.06l1.42,6.37c.16.71.28,1.26.36,1.67A5.833,5.833,0,0,1,648.482,1010.716Z" fill="#eb996e"/>
      <path id="Trazado_100089" data-name="Trazado 100089" d="M666.542,982.026a28.168,28.168,0,0,1,4.38-2.36l1.63-.8-1.35,1.22a4.234,4.234,0,0,0-.81,5.33,11.709,11.709,0,0,0,1.19,1.44,2.868,2.868,0,0,1-1.5-1.25,4.353,4.353,0,0,1-.76-2,4.485,4.485,0,0,1,.52-2.6,4.684,4.684,0,0,1,1-1.29l.27.42A28.689,28.689,0,0,1,666.542,982.026Z" fill="#eb996e"/>
      <path id="Trazado_100090" data-name="Trazado 100090" d="M654.542,973.576a12.529,12.529,0,0,1,1.22-2.36c.81-1.43,2-3.37,3.27-5.5.66-1.07,1.27-2.08,1.87-3a6.2,6.2,0,0,1,2.07-2.1,3.353,3.353,0,0,1,1.95-.43,1.182,1.182,0,0,1,.69.24h-.7a3.449,3.449,0,0,0-1.75.55c-1.38.81-2.35,2.95-3.68,5.05s-2.51,4-3.4,5.42A14.915,14.915,0,0,1,654.542,973.576Z" fill="#eb996e"/>
      <path id="Trazado_100091" data-name="Trazado 100091" d="M646.812,973.516a8.609,8.609,0,0,1,.74-2.12c.53-1.29,1.31-3,2.25-4.94s1.86-3.58,2.56-4.77a9.574,9.574,0,0,1,1.25-1.88,11.169,11.169,0,0,1-.92,2c-.71,1.42-1.53,3-2.42,4.83l-2.39,4.86A10.092,10.092,0,0,1,646.812,973.516Z" fill="#eb996e"/>
      <path id="Trazado_100092" data-name="Trazado 100092" d="M628.7,1068.606a5.763,5.763,0,0,1-.37,1.16l-1.15,3.1c-1,2.62-2.34,6.24-3.77,10.25s-2.66,7.68-3.54,10.33c-.42,1.25-.78,2.3-1.06,3.14a5.984,5.984,0,0,1-.45,1.13,5.378,5.378,0,0,1,.25-1.19c.2-.76.51-1.85.9-3.19.8-2.68,2-6.37,3.41-10.39s2.84-7.63,3.91-10.21c.54-1.29,1-2.33,1.32-3.05A5.544,5.544,0,0,1,628.7,1068.606Z" fill="#eb996e"/>
      <path id="Trazado_100093" data-name="Trazado 100093" d="M662.122,1098.186a.832.832,0,0,1,0,.29c0,.23-.07.51-.11.86-.12.8-.28,1.9-.48,3.31s-.48,3.19-.89,5.21a42.249,42.249,0,0,1-1.88,6.76,22.336,22.336,0,0,1-4.41,7.27,33.207,33.207,0,0,1-7.6,6.13,41.137,41.137,0,0,1-10,4.15,22.335,22.335,0,0,1-5.69.79,17,17,0,0,1-5.82-1,21.542,21.542,0,0,1-9.29-6.86,36.929,36.929,0,0,1-5.38-9.36c-1.3-3.19-2.08-6.38-3-9.28s-1.74-5.62-2.5-8.1c-1.55-4.95-2.73-9-3.47-11.78-.37-1.41-.64-2.5-.81-3.24l-.19-.85a.882.882,0,0,1,0-.29,1.064,1.064,0,0,1,.1.28c.06.21.14.49.23.83.22.77.52,1.85.91,3.21.79,2.79,2,6.8,3.62,11.73.78,2.48,1.64,5.18,2.56,8.09s1.71,6.07,3,9.22a36.507,36.507,0,0,0,5.33,9.22,21.052,21.052,0,0,0,9.06,6.69,16.744,16.744,0,0,0,5.65,1,21.543,21.543,0,0,0,5.56-.77,40.7,40.7,0,0,0,9.85-4.06,33.269,33.269,0,0,0,7.52-6,22.389,22.389,0,0,0,4.39-7.11,44.706,44.706,0,0,0,1.94-6.69c.43-2,.72-3.76,1-5.18s.44-2.5.57-3.29l.17-.86A2.855,2.855,0,0,1,662.122,1098.186Z" fill="#eb996e"/>
    </g>
    <g id="freepik--Plant--inject-241">
      <path id="Trazado_100094" data-name="Trazado 100094" d="M339.418,1083.476c-.9-3.12-2.83-6.14-5.82-7.43s-6.71-.57-9.89.58-6.3,2.7-9.67,2.91-7.19-1.39-8.2-4.62c-1-3,.88-6.27,3.17-8.48a20,20,0,0,1,32.78,7.83" fill="#d9a171"/>
      <g id="Grupo_53407" data-name="Grupo 53407" opacity="0.5">
        <path id="Trazado_100095" data-name="Trazado 100095" d="M339.418,1083.476c-.9-3.12-2.83-6.14-5.82-7.43s-6.71-.57-9.89.58-6.3,2.7-9.67,2.91-7.19-1.39-8.2-4.62c-1-3,.88-6.27,3.17-8.48a20,20,0,0,1,32.78,7.83"/>
      </g>
      <path id="Trazado_100096" data-name="Trazado 100096" d="M366.168,1097.046c4.95-4.71,4.71-12.9,2.24-19.27s-7.87-11.26-13.89-14.51a44,44,0,0,0-38.34-1.24,18.179,18.179,0,0,1,14.71,8.64c2.72,4.51,3.32,10,5.56,14.74a23.211,23.211,0,0,0,29.72,11.62" fill="#d9a171"/>
      <path id="Trazado_100097" data-name="Trazado 100097" d="M368.548,1068.766c5.49-6.47,6.22-16.86,5.41-25.31s-2.77-16.95-1.44-25.33c.79-5,2.72-9.7,3.37-14.68s-.27-10.63-4.13-13.84c-4.44-3.7-11.43-2.83-16,.64s-7.29,8.93-9.25,14.37c-4.29,11.94-5.87,25.19-2.34,37.38s11.81,23.09,24,26.77" fill="#d9a171"/>
      <path id="Trazado_100098" data-name="Trazado 100098" d="M371.178,1121.886a3.159,3.159,0,0,0,0-.74v-2.14c-.07-1.86-.25-4.55-.66-7.84a104.644,104.644,0,0,0-2.11-11.49,52.854,52.854,0,0,0-5.24-13.29,55.233,55.233,0,0,0-17.51-18.91c-1.37-.95-2.69-1.67-3.83-2.33s-2.19-1.12-3-1.53l-2-.83-.7-.26a3.361,3.361,0,0,0,.66.35l1.93.9c.83.43,1.83,1,3,1.59a31.636,31.636,0,0,1,3.78,2.37,56.378,56.378,0,0,1,17.26,18.87c5,8.82,6.42,18.1,7.42,24.6.46,3.28.68,6,.81,7.81l.12,2.13A5.4,5.4,0,0,0,371.178,1121.886Z" fill="#344154"/>
      <path id="Trazado_100099" data-name="Trazado 100099" d="M418.488,1043.266c10.15,6.13,10.12,11.7,8.42,17s-7.92,8.91-13.08,6.94c-2.92-1.11-5-3.65-6.84-6.19s-3.51-5.28-6-7.11-6.2-2.54-8.74-.72" fill="#d9a171"/>
      <g id="Grupo_53408" data-name="Grupo 53408" opacity="0.5">
        <path id="Trazado_100100" data-name="Trazado 100100" d="M418.488,1043.266c10.15,6.13,10.12,11.7,8.42,17s-7.92,8.91-13.08,6.94c-2.92-1.11-5-3.65-6.84-6.19s-3.51-5.28-6-7.11-6.2-2.54-8.74-.72"/>
      </g>
      <path id="Trazado_100101" data-name="Trazado 100101" d="M426.088,1049.946c-2.66-3.67-9.21-4.73-13.35-2.9s-7.17,5.46-9.89,9.08-5.35,7.44-9.11,10-9,3.44-12.76.9a11,11,0,0,1-4.33-7.51,24.668,24.668,0,0,1,.6-8.84c.89-4.26,2.35-8.7,5.76-11.41,3.8-3,9.06-3.15,13.91-3,5.55.19,11.2.6,16.41,2.53s10.54,6.09,12.76,11.19" fill="#d9a171"/>
      <path id="Trazado_100102" data-name="Trazado 100102" d="M379.658,1113.766a.983.983,0,0,0,0-.23v-.65q0-.92.09-2.52c.06-2.22.15-5.38.26-9.26s.28-8.57.57-13.73.67-10.84,1.45-16.74a54.994,54.994,0,0,1,1.68-8.51,45.029,45.029,0,0,1,3.11-7.44,44.29,44.29,0,0,1,3.93-6.16,39.793,39.793,0,0,1,4.28-4.7,31.653,31.653,0,0,1,7.59-5.18c.5-.22.93-.45,1.32-.6l1-.39.61-.24.2-.1-.21.05-.63.2-1,.35c-.4.15-.83.36-1.34.57a30.736,30.736,0,0,0-7.74,5.1,40.244,40.244,0,0,0-4.36,4.71,43.068,43.068,0,0,0-4,6.2,43.927,43.927,0,0,0-3.16,7.5,53.318,53.318,0,0,0-1.71,8.58c-.78,5.93-1.15,11.61-1.42,16.78s-.39,9.83-.47,13.74-.11,7.08-.12,9.27v3.17A.621.621,0,0,0,379.658,1113.766Z" fill="#344154"/>
      <path id="Trazado_100103" data-name="Trazado 100103" d="M375.968,1118.346a29.923,29.923,0,0,0,1.11-4.36,45.679,45.679,0,0,0,.46-12.24,81.657,81.657,0,0,0-3.88-17.76c-2.09-6.53-4.91-13.51-7.33-21a94.591,94.591,0,0,1-2.91-11.11,97.648,97.648,0,0,1-1.42-10.61,156.313,156.313,0,0,1-.34-18.16c.18-5.17.45-9.35.63-12.24.08-1.42.15-2.54.19-3.33v-.86a1.076,1.076,0,0,0,0-.3,1.5,1.5,0,0,0,0,.3,3.323,3.323,0,0,1-.09.86c-.07.79-.16,1.9-.28,3.32-.23,2.88-.55,7.06-.77,12.23a151.068,151.068,0,0,0,.24,18.18,98.084,98.084,0,0,0,1.42,10.66,96.7,96.7,0,0,0,2.92,11.17c2.42,7.53,5.26,14.5,7.36,21a82.757,82.757,0,0,1,3.94,17.66,46.824,46.824,0,0,1-.32,12.18c-.25,1.42-.47,2.52-.67,3.26q-.129.529-.21.84A1.3,1.3,0,0,0,375.968,1118.346Z" fill="#344154"/>
      <path id="Trazado_100104" data-name="Trazado 100104" d="M350.808,1122.936h47.65l1.08-9.17h-48.73Z" fill="#455a64"/>
      <path id="Trazado_100105" data-name="Trazado 100105" d="M393.338,1121.886l-5.96,27.51h-25.89l-5.57-27.51Z" fill="#455a64"/>
      <path id="Trazado_100106" data-name="Trazado 100106" d="M350.808,1122.936c0,.12,10.47.19,23.39.16s23.4-.17,23.4-.29-10.47-.2-23.4-.17S350.808,1122.806,350.808,1122.936Z" fill="#455a64"/>
      <path id="Trazado_100107" data-name="Trazado 100107" d="M358.988,1136.516a19.224,19.224,0,0,1,4.19-2.41,14.8,14.8,0,0,1,5.11-1,17.7,17.7,0,0,1,6.27,1.16c2.17.73,4.2,1.59,6.17,2.06a14.8,14.8,0,0,0,5.34.16,11.126,11.126,0,0,0,3.43-1.09,7.491,7.491,0,0,0,.83-.52c.18-.14.26-.21.26-.23s-.41.24-1.17.59a11.775,11.775,0,0,1-3.39.93,14.886,14.886,0,0,1-5.2-.25c-1.91-.48-3.94-1.34-6.13-2.08a17.819,17.819,0,0,0-6.43-1.14,14.625,14.625,0,0,0-5.21,1.14,13.536,13.536,0,0,0-3.1,1.82,7.916,7.916,0,0,0-.74.63C359.048,1136.416,358.978,1136.506,358.988,1136.516Z" fill="#344154"/>
      <path id="Trazado_100108" data-name="Trazado 100108" d="M359.348,1138.346a20.842,20.842,0,0,1,4-2.37,13.513,13.513,0,0,1,4.92-1,17.633,17.633,0,0,1,6.07,1.09c2.1.7,4.07,1.51,6,2a15.6,15.6,0,0,0,5.13.58,8.778,8.778,0,0,0,3.36-.9,6.732,6.732,0,0,0,.8-.51c.17-.13.26-.21.25-.22s-.4.23-1.13.57a9.264,9.264,0,0,1-3.3.74,15.93,15.93,0,0,1-5-.66c-1.84-.52-3.8-1.34-5.92-2.05a17.548,17.548,0,0,0-6.22-1.08,13.457,13.457,0,0,0-8,2.94,6.537,6.537,0,0,0-.71.62C359.408,1138.266,359.338,1138.336,359.348,1138.346Z" fill="#fff"/>
      <path id="Trazado_100109" data-name="Trazado 100109" d="M358.508,1134.686a23.6,23.6,0,0,1,4.31-2.54,15.927,15.927,0,0,1,5.23-1.25,16.723,16.723,0,0,1,6.48,1.14,58.524,58.524,0,0,0,6.39,2.08,16.129,16.129,0,0,0,5.51,0,12.4,12.4,0,0,0,3.54-1.12,5.659,5.659,0,0,0,.86-.53c.19-.14.28-.22.27-.23s-.42.25-1.21.6a13.4,13.4,0,0,1-3.51,1,16.666,16.666,0,0,1-5.38-.11,63.225,63.225,0,0,1-6.33-2.1,16.918,16.918,0,0,0-6.64-1.13,15.993,15.993,0,0,0-8.51,3.29q-.4.311-.77.66C358.588,1134.586,358.5,1134.676,358.508,1134.686Z" fill="#fff"/>
      <path id="Trazado_100110" data-name="Trazado 100110" d="M350.388,1122.976c0,.12,10.72.22,23.93.22s23.94-.1,23.94-.22-10.71-.23-23.94-.23S350.388,1122.846,350.388,1122.976Z" fill="#344154"/>
    </g>
    <g id="freepik--Desk--inject-241">
      <path id="Trazado_100111" data-name="Trazado 100111" d="M1007.2,1149.608c0,.227-165.191.421-368.905.421s-368.94-.194-368.94-.421,165.141-.438,368.94-.438S1007.2,1149.381,1007.2,1149.608Z" fill="#344154"/>
    </g>
  </g>
</svg>
