<svg id="Layer_1" data-name="Layer 1" xmlns="http://www.w3.org/2000/svg" width="396" height="396" viewBox="0 0 396 396">
  <defs>
    <style>
      .cls-1, .cls-3 {
        fill: #afd3f0;
      }

      .cls-1 {
        fill-opacity: 0;
      }

      .cls-2 {
        fill: #e0e9f1;
      }

      .cls-4 {
        fill: #354154;
      }

      .cls-5 {
        fill: #d9a172;
      }

      .cls-6 {
        opacity: 0.3;
      }

      .cls-7 {
        fill: #fafbfb;
      }

      .cls-8 {
        fill: #f7a8a8;
      }

      .cls-9 {
        fill: #aa6551;
      }

      .cls-10 {
        opacity: 0.2;
      }

      .cls-11 {
        fill: #fbbe9e;
      }
    </style>
  </defs>
  <g id="Grupo_54615" data-name="Grupo 54615">
    <rect id="Rectángulo_5364" data-name="Rectángulo 5364" class="cls-1" width="396" height="396"/>
    <g id="Grupo_54614" data-name="Grupo 54614">
      <g id="freepik--background-complete--inject-42">
        <path id="Trazado_101262" data-name="Trazado 101262" class="cls-2" d="M59,67.57a12.66,12.66,0,0,1,9.77,1.78,22.34,22.34,0,0,1,6.93,7.38c3.46,5.6,4.63,13.08,4.75,19.66C73.13,96,67,90.22,64,87.09c-4.69-5-10.07-16.79-5-19.52"/>
        <path id="Trazado_101263" data-name="Trazado 101263" class="cls-2" d="M92.13,100.91a10.81,10.81,0,0,1-3.62-10.24,14.38,14.38,0,0,1,6.27-9.16c1.46-1,3.26-1.75,4.94-1.23a4.61,4.61,0,0,1,3,3.63,9.37,9.37,0,0,1-.6,4.83c-1.9,5.3-4.7,10.1-10,12.17"/>
        <path id="Trazado_101264" data-name="Trazado 101264" class="cls-3" d="M96.38,116.83A21.45,21.45,0,0,1,94.31,113a20.13,20.13,0,0,1-1.46-4.53,44.14,44.14,0,0,1-.94-5.71,21.8,21.8,0,0,1,1.65-10.4,15.84,15.84,0,0,1,1.58-2.77,5,5,0,0,1,.79-.86,22.11,22.11,0,0,0-3.33,14,48.71,48.71,0,0,0,.84,5.65,21.63,21.63,0,0,0,1.27,4.46A25.24,25.24,0,0,1,96.38,116.83Z"/>
        <path id="Trazado_101265" data-name="Trazado 101265" class="cls-3" d="M63.92,76.2a12.69,12.69,0,0,1,1.53,1.58c.94,1,2.3,2.6,4,4.51,3.3,3.84,7.8,9.19,12.66,15.22s9.05,11.62,12,15.72c1.48,2,2.66,3.72,3.45,4.9a1.1,1.1,0,0,1,1.51.41,1.1,1.1,0,1,1-1.74-.24l-3.64-4.75c-3.07-4-7.35-9.55-12.17-15.57L69,82.63,65.23,78A14.2,14.2,0,0,1,63.92,76.2Z"/>
        <path id="Trazado_101266" data-name="Trazado 101266" class="cls-2" d="M87.16,108a25.31,25.31,0,0,0-23-2.9c-1.92.71-4,2.05-4,4.09s1.94,3.5,3.84,4.29a21.64,21.64,0,0,0,23.44-5"/>
        <path id="Trazado_101267" data-name="Trazado 101267" class="cls-3" d="M69.33,108.29a3.88,3.88,0,0,1,1.1-.38c.71-.2,1.77-.43,3.07-.67a28.91,28.91,0,0,1,10.41-.09,17.82,17.82,0,0,1,5.4,2.07A17.32,17.32,0,0,1,95,114.65a3.63,3.63,0,0,1,.56,1c-.12.08-1-1.3-2.89-3.17a17.67,17.67,0,0,0-8.86-4.67,32.19,32.19,0,0,0-10.18-.12C71,108.06,69.35,108.37,69.33,108.29Z"/>
        <path id="Trazado_101268" data-name="Trazado 101268" class="cls-3" d="M97.87,268.71c23.6-11.46,32.81-38.24,35.9-63.13.52-4.16,1.67-8.44.28-12.38s-5.58-7.12-9.56-6c-3.3.95-5.2,4.31-7.39,7a24.58,24.58,0,0,1-11.17,7.72c-2.85.94-6.23,1.25-8.61-.59-3.25-2.53-2.89-7.53-2.21-11.64l3.8-22.95c.69-4.11,1.36-8.3.7-12.41s-2.9-8.18-6.64-9.9-8.93-.23-10.39,3.66c-.62,1.62-.55,3.41-.93,5.1s-1.48,3.44-3.17,3.67-3.17-1.2-4.21-2.6c-3.58-4.83-5.61-10.63-7.46-16.38s-3.58-11.6-6.72-16.74-7.91-9.58-13.71-10.85-12.67,1.37-15.09,6.91,0,12,3,17.25A92.91,92.91,0,0,0,50.46,155.7c1.15,1.13,2.37,2.37,2.64,4,.46,2.88-2.57,5.2-5.42,5.66-3.22.53-6.5-.31-9.77-.44s-6.95.73-8.65,3.56c-2.37,4,.46,8.9,3.46,12.33a79.53,79.53,0,0,0,21.11,17.13c2.84,1.58,5.88,3.06,8,5.58s3,6.44,1.05,9.1-5.86,3-8.93,1.89-5.64-3.27-8.48-4.85c-5.3-3-12.66-3.81-17.06.5-2.88,2.83-3.8,7.26-3.21,11.28s2.51,7.7,4.62,11.15c7.36,12.06,17.58,22.46,30,29.09s24.33,9.8,38.1,7.12"/>
        <path id="Trazado_101269" data-name="Trazado 101269" class="cls-3" d="M94.52,270c.67-9.95,1.11-4.79-.56-17.86a376.21,376.21,0,0,0-8.32-41.95l-2.74-10.9c-.91-3.57-1.8-7.13-2.9-10.53a186.75,186.75,0,0,0-7.42-19.24c-2.65-6-5.39-11.61-8-16.83S59.47,142.66,57,138.37A147.48,147.48,0,0,0,43.72,119c-1.73-2.15-3.17-3.77-4.1-4.87l-1.11-1.23a2.52,2.52,0,0,0-.4-.4,3.9,3.9,0,0,0,.34.46c.26.31.61.73,1,1.28.92,1.12,2.29,2.78,4,5a157.58,157.58,0,0,1,13,19.45C58.91,143,61.4,147.77,64,153s5.28,10.83,7.92,16.83A186.6,186.6,0,0,1,79.24,189c1.09,3.4,2,6.91,2.88,10.5s1.82,7.21,2.74,10.88a380.36,380.36,0,0,1,8.36,41.89c1.69,13,1.32,7.81.73,17.73"/>
        <path id="Trazado_101270" data-name="Trazado 101270" class="cls-3" d="M79.79,188.71a9.28,9.28,0,0,0,.68-1.7c.4-1.1.92-2.7,1.53-4.71,1.23-4,2.74-9.58,4.39-15.74s3.24-11.71,4.53-15.68c.63-2,1.17-3.59,1.58-4.69a8.34,8.34,0,0,0,.51-1.75,8.55,8.55,0,0,0-.79,1.64c-.46,1.07-1.08,2.65-1.79,4.63-1.42,3.95-3.1,9.5-4.75,15.64s-3.06,11.59-4.17,15.83c-.51,1.9-1,3.49-1.29,4.75A7.23,7.23,0,0,0,79.79,188.71Z"/>
        <path id="Trazado_101271" data-name="Trazado 101271" class="cls-3" d="M28.5,170.41a10.76,10.76,0,0,0,2.08.6c1.33.33,3.27.79,5.64,1.47,4.75,1.3,11.26,3.31,18.35,5.85s13.39,5.14,17.9,7.13c2.26,1,4.07,1.83,5.33,2.37a10.8,10.8,0,0,0,2,.84,11.2,11.2,0,0,0-1.85-1.11c-1.22-.66-3-1.58-5.24-2.64-4.46-2.12-10.76-4.79-17.86-7.36a192.08,192.08,0,0,0-18.48-5.65c-2.37-.59-4.36-1-5.72-1.24A12.65,12.65,0,0,0,28.5,170.41Z"/>
        <path id="Trazado_101272" data-name="Trazado 101272" class="cls-3" d="M93.49,251.09a5.18,5.18,0,0,0,.47-.58l1.21-1.77c1-1.54,2.49-3.81,4.25-6.63,3.51-5.65,8.12-13.61,13.08-22.46s9.5-16.83,12.89-22.55c1.66-2.77,3-5.06,4-6.75.44-.74.79-1.35,1.09-1.84a2.55,2.55,0,0,0,.34-.68,5.29,5.29,0,0,0-.47.59l-1.27,1.76c-1,1.55-2.49,3.81-4.25,6.64-3.49,5.66-8.1,13.58-13.06,22.45s-9.5,16.84-12.88,22.55c-1.67,2.77-3,5.06-4,6.75l-1.09,1.85A2.69,2.69,0,0,0,93.49,251.09Z"/>
        <path id="Trazado_101273" data-name="Trazado 101273" class="cls-3" d="M26.83,217.29a3.34,3.34,0,0,0,.65.4l1.9,1,7.13,3.63c6,3.08,14.29,7.41,23.42,12.22s17.41,9.06,23.54,12c3,1.47,5.54,2.64,7.24,3.41l2,.88a3.1,3.1,0,0,0,.72.26,2.59,2.59,0,0,0-.65-.4l-1.93-1-7.13-3.64c-6-3.07-14.29-7.41-23.42-12.21s-17.41-9.07-23.53-12c-3-1.47-5.54-2.63-7.25-3.41l-2-.89A3,3,0,0,0,26.83,217.29Z"/>
      </g>
      <g id="freepik--Floor--inject-42">
        <path id="Trazado_101274" data-name="Trazado 101274" class="cls-4" d="M363.69,336.25c0,.11-74.93.21-167.34.21S29,336.37,29,336.25s74.91-.2,167.36-.2S363.69,336.14,363.69,336.25Z"/>
      </g>
      <g id="freepik--Plant--inject-42">
        <path id="Trazado_101275" data-name="Trazado 101275" class="cls-5" d="M47.37,205.17s5.46-3.69,12.29,9.4a169.91,169.91,0,0,1,9.43,20.64s1.8,2.74,3.68.92,4.41-6.95,7.64-6.06,4.48,4.63,3.9,10.11-1.43,17.53-1.5,18.61.55,2.64,2,1.58,9.94-10.63,14.25-6.33.18,19.27-.24,20.92-.1,2.38.69,2.75,3.32-3.1,5.84-5.73,5.9-5.24,8.18-2.56,3.11,13.89-7.4,32.21l-5.42,8.17-9.84-.46c-21-2.25-29.58-9.5-30.41-12.92s3.26-4.62,6.87-5.11,7.92-.5,8.07-1.37-.24-1.55-1.82-2.17-16.14-6.08-17.07-12.09,11.79-7.22,13.5-7.81.79-2-.11-2.58-11.17-7-16-9.72-7.12-5.83-5.9-9.09,6.82-2.17,9.4-2.62,1.41-3.52,1.41-3.52-4.59-6.54-11.16-19.79-.23-15.49-.23-15.49"/>
        <path id="Trazado_101276" data-name="Trazado 101276" class="cls-4" d="M53.51,216.88a1.71,1.71,0,0,1,.13.23l.37.7,1.39,2.7,5.06,10c4.32,8.41,10.29,20,16.82,32.79S89.81,287.65,94,296.09c2.09,4.21,3.77,7.63,5,10l1.32,2.73.34.72c.07.16.1.25.1.25a1.76,1.76,0,0,1-.14-.23l-.36-.7c-.34-.64-.8-1.58-1.39-2.71-1.21-2.37-2.94-5.76-5.06-10-4.25-8.4-10.24-20-16.83-32.77S64.43,239,60.25,230.58l-5-10c-.56-1.17-1-2.09-1.32-2.73l-.33-.72A.82.82,0,0,1,53.51,216.88Z"/>
        <path id="Trazado_101277" data-name="Trazado 101277" class="cls-4" d="M77.14,237.39A19.08,19.08,0,0,1,76.6,240c-.38,1.69-.87,3.82-1.42,6.2s-1.06,4.6-1.47,6.18q-.33,1.2-.54,1.86a2.46,2.46,0,0,1-.26.65,22.73,22.73,0,0,1,.54-2.58l1.36-6.2c.56-2.43,1.1-4.61,1.53-6.19.22-.79.41-1.41.56-1.84A2.28,2.28,0,0,1,77.14,237.39Z"/>
        <path id="Trazado_101278" data-name="Trazado 101278" class="cls-4" d="M72,255.06c0,.09-4.53-1.06-10.06-2.6s-10-2.85-9.94-3,4.52,1.06,10.05,2.59S72,255,72,255.06Z"/>
        <path id="Trazado_101279" data-name="Trazado 101279" class="cls-4" d="M84.7,277.08a2.91,2.91,0,0,1-.72.1c-.46.05-1.13.1-2,.13-1.67.08-4,.14-6.51.07s-4.83-.26-6.48-.43c-.79-.09-1.5-.17-2-.25a2.09,2.09,0,0,1-.7-.15,21.86,21.86,0,0,1,2.68.13c1.66.11,4,.25,6.48.32s4.82.06,6.48,0A21.93,21.93,0,0,1,84.7,277.08Z"/>
        <path id="Trazado_101280" data-name="Trazado 101280" class="cls-4" d="M92.87,262.12a17.09,17.09,0,0,1-1.1,2.23c-.73,1.35-1.75,3.21-2.9,5.25s-2.21,3.89-3,5.21a15.26,15.26,0,0,1-1.34,2.1,16.49,16.49,0,0,1,1.1-2.23c.73-1.35,1.75-3.21,2.9-5.26s2.21-3.88,3-5.2A15.89,15.89,0,0,1,92.87,262.12Z"/>
        <path id="Trazado_101281" data-name="Trazado 101281" class="cls-4" d="M106.55,280.13a3.84,3.84,0,0,1-.36.8L105.08,283c-1,1.71-2.29,4.08-3.79,6.68s-2.87,5-3.89,6.64c-.47.8-.88,1.45-1.21,2a3.39,3.39,0,0,1-.49.7,3.76,3.76,0,0,1,.36-.79l1.11-2c1-1.73,2.29-4.09,3.79-6.7s2.87-4.95,3.89-6.64l1.21-2A4.19,4.19,0,0,1,106.55,280.13Z"/>
        <path id="Trazado_101282" data-name="Trazado 101282" class="cls-4" d="M95.87,298.46a3.12,3.12,0,0,1-.91.08c-.59,0-1.45,0-2.5,0-2.11,0-5,0-8.24-.21s-6.13-.45-8.22-.7c-1-.12-1.9-.24-2.48-.33a3.43,3.43,0,0,1-.89-.18,4.61,4.61,0,0,1,.91,0l2.49.21c2.1.18,5,.41,8.21.58s6.11.27,8.22.33l2.5.07A4.61,4.61,0,0,1,95.87,298.46Z"/>
      </g>
      <g id="freepik--Character--inject-42">
        <path id="Trazado_101283" data-name="Trazado 101283" class="cls-5" d="M353.21,200.81l-26.49,25.8L302.31,273.2l-27.45,52.67L241.13,310l-36.46-18.66L228,246.83,242.48,197c-10.24,6.8-29.28,16-52,11.22C165.84,203,177.67,110,177.67,110l27.08-.7,2.73,65.52,30.59-13.52.05.11c1.84-.79,3.45-1.59,4.31-2,16.93-9.24,28-10.36,46.21-3.87h0l26.21,8.7c6.73,3.17,31.56,15.4,38.36,36.56"/>
        <path id="Trazado_101284" data-name="Trazado 101284" class="cls-4" d="M260.51,153.6s-.61.35-1.64,1.09a17.87,17.87,0,0,0-3.8,3.72,27.19,27.19,0,0,0-3.74,7,95.17,95.17,0,0,0-2.79,9.33l-4.66,17.12c-.61,2.15-1.1,3.9-1.46,5.17l-.41,1.4a2,2,0,0,1-.18.48,3,3,0,0,1,.1-.5l.34-1.42c.33-1.28.8-3,1.33-5.21,1.18-4.43,2.78-10.47,4.55-17.15a90,90,0,0,1,2.83-9.36,26.89,26.89,0,0,1,3.86-7,17.1,17.1,0,0,1,4-3.68,10.85,10.85,0,0,1,1.27-.75A3.49,3.49,0,0,1,260.51,153.6Z"/>
        <g id="Grupo_54608" data-name="Grupo 54608" class="cls-6">
          <path id="Trazado_101285" data-name="Trazado 101285" class="cls-4" d="M250.62,166.73c-7.58,20.51-21.2,32-40.49,42.25a71.11,71.11,0,0,0,31.81-11.65"/>
        </g>
        <g id="Grupo_54609" data-name="Grupo 54609" class="cls-6">
          <path id="Trazado_101286" data-name="Trazado 101286" class="cls-4" d="M274.75,152.14l9.63,154.14-9.5,19.59Z"/>
        </g>
        <path id="Trazado_101287" data-name="Trazado 101287" class="cls-7" d="M304.58,205.45c-.11,0-1.08-2.38-2.43-5.3s-2.56-5.24-2.46-5.3a6.59,6.59,0,0,1,.95,1.43c.53.92,1.21,2.22,1.88,3.69s1.23,2.82,1.58,3.82A6.07,6.07,0,0,1,304.58,205.45Z"/>
        <path id="Trazado_101288" data-name="Trazado 101288" class="cls-7" d="M326.14,194.61a44.46,44.46,0,0,1-5.15,3.45,46.89,46.89,0,0,1-5.36,3.1,48.15,48.15,0,0,1,5.15-3.45A45.23,45.23,0,0,1,326.14,194.61Z"/>
        <path id="Trazado_101289" data-name="Trazado 101289" class="cls-7" d="M316.78,186.81a41.81,41.81,0,0,1-.42-8.44,21.24,21.24,0,0,1,.42,4.21A21.35,21.35,0,0,1,316.78,186.81Z"/>
        <path id="Trazado_101290" data-name="Trazado 101290" class="cls-7" d="M338.3,185.3a48.83,48.83,0,0,1-7.55-4.66,25,25,0,0,1,3.89,2.15A23.49,23.49,0,0,1,338.3,185.3Z"/>
        <path id="Trazado_101291" data-name="Trazado 101291" class="cls-7" d="M305.4,228a42.33,42.33,0,0,1,2.14-5.48,43,43,0,0,1,2.52-5.31,43.48,43.48,0,0,1-2.14,5.48A43.67,43.67,0,0,1,305.4,228Z"/>
        <path id="Trazado_101292" data-name="Trazado 101292" class="cls-7" d="M295.81,237.7a38.53,38.53,0,0,1-3.51-7,19,19,0,0,1,1.94,3.4A18.18,18.18,0,0,1,295.81,237.7Z"/>
        <path id="Trazado_101293" data-name="Trazado 101293" class="cls-7" d="M303.83,250.77a19,19,0,0,1-8.27,1.16c0-.12,1.86-.2,4.14-.53S303.8,250.64,303.83,250.77Z"/>
        <path id="Trazado_101294" data-name="Trazado 101294" class="cls-7" d="M314.11,236.47a21.81,21.81,0,0,1,1.41-3.84A21.15,21.15,0,0,1,317.3,229a19.39,19.39,0,0,1-1.4,3.84A18.68,18.68,0,0,1,314.11,236.47Z"/>
        <path id="Trazado_101295" data-name="Trazado 101295" class="cls-7" d="M289.11,266.66c-.1.06-1.27-1.54-2.86-3.39s-3-3.23-2.94-3.31A21.57,21.57,0,0,1,289.11,266.66Z"/>
        <path id="Trazado_101296" data-name="Trazado 101296" class="cls-7" d="M284.58,234.2a49.28,49.28,0,0,1-4.5,7.73,25.25,25.25,0,0,1,2.07-4A24.47,24.47,0,0,1,284.58,234.2Z"/>
        <path id="Trazado_101297" data-name="Trazado 101297" class="cls-7" d="M287.81,223.06a25.85,25.85,0,0,1-4.43-.93,2.26,2.26,0,1,1,.1-.4A25.19,25.19,0,0,1,287.81,223.06Z"/>
        <path id="Trazado_101298" data-name="Trazado 101298" class="cls-7" d="M287.61,200.11a27.69,27.69,0,0,1,2.38,3.23,27.27,27.27,0,0,1,2.2,3.32,26.53,26.53,0,0,1-4.58-6.55Z"/>
        <path id="Trazado_101299" data-name="Trazado 101299" class="cls-7" d="M280.29,199a34.61,34.61,0,0,1-5.74,5,18.08,18.08,0,0,1,2.73-2.66A18.4,18.4,0,0,1,280.29,199Z"/>
        <path id="Trazado_101300" data-name="Trazado 101300" class="cls-7" d="M286.08,187a25.78,25.78,0,0,1-6.55-7.7c.1-.07,1.4,1.78,3.21,3.91S286.17,186.87,286.08,187Z"/>
        <path id="Trazado_101301" data-name="Trazado 101301" class="cls-7" d="M306.33,183.26a51.94,51.94,0,0,1-9,2.75,27.57,27.57,0,0,1,4.44-1.58A26.3,26.3,0,0,1,306.33,183.26Z"/>
        <path id="Trazado_101302" data-name="Trazado 101302" class="cls-7" d="M277.82,164c-.12,0-.06-1.82-.35-4s-.79-4-.64-4a14.66,14.66,0,0,1,1,8Z"/>
        <path id="Trazado_101303" data-name="Trazado 101303" class="cls-7" d="M259.81,221.37a14.68,14.68,0,0,1-1.86,1.38c-1.17.79-2.77,2-4.48,3.31s-3.21,2.62-4.29,3.56a16.92,16.92,0,0,1-1.78,1.49,9.81,9.81,0,0,1,1.58-1.7,52.85,52.85,0,0,1,4.24-3.67c1.46-1.15,3-2.24,4.56-3.24A12.22,12.22,0,0,1,259.81,221.37Z"/>
        <path id="Trazado_101304" data-name="Trazado 101304" class="cls-7" d="M258.77,215c-.1.06-1.43-2-3.27-4.42s-3.48-4.25-3.39-4.34a6,6,0,0,1,1.2,1.1,37.93,37.93,0,0,1,2.52,3,37,37,0,0,1,2.2,3.23A6,6,0,0,1,258.77,215Z"/>
        <path id="Trazado_101305" data-name="Trazado 101305" class="cls-7" d="M263.59,190a48,48,0,0,1-7.75,4.29,23.22,23.22,0,0,1,3.78-2.32A23.66,23.66,0,0,1,263.59,190Z"/>
        <path id="Trazado_101306" data-name="Trazado 101306" class="cls-7" d="M258.82,179.08a5.84,5.84,0,0,1-1.35-1.07,26.34,26.34,0,0,1-2.86-3,27.94,27.94,0,0,1-2.42-3.4,6.34,6.34,0,0,1-.79-1.53c.11-.07,1.46,2.18,3.52,4.67S258.92,179,258.82,179.08Z"/>
        <path id="Trazado_101307" data-name="Trazado 101307" class="cls-7" d="M267,178.85a33.87,33.87,0,0,1,3.28-6.74A35,35,0,0,1,267,178.85Z"/>
        <path id="Trazado_101308" data-name="Trazado 101308" class="cls-7" d="M264.84,166.35c-.12,0,0-2.46-.46-5.43s-1.33-5.26-1.21-5.31a5.59,5.59,0,0,1,.67,1.47,20.54,20.54,0,0,1,1,3.78,23,23,0,0,1,.24,3.89A4.82,4.82,0,0,1,264.84,166.35Z"/>
        <path id="Trazado_101309" data-name="Trazado 101309" class="cls-7" d="M266.84,229.4a15,15,0,0,1,0-2.32c.05-1.43.1-3.4,0-5.54s-.2-4.14-.32-5.55a14.78,14.78,0,0,1-.14-2.31,11.9,11.9,0,0,1,.43,2.28,52.35,52.35,0,0,1,.28,11.19A11.37,11.37,0,0,1,266.84,229.4Z"/>
        <path id="Trazado_101310" data-name="Trazado 101310" class="cls-7" d="M265.67,249.1a35.31,35.31,0,0,0-3.51-2.83,33.5,33.5,0,0,0-4-2,11.49,11.49,0,0,1,7.55,4.82Z"/>
        <path id="Trazado_101311" data-name="Trazado 101311" class="cls-7" d="M275.54,261.29a47.35,47.35,0,0,1-5.43,3,46,46,0,0,1-5.63,2.68,46.65,46.65,0,0,1,5.44-3A45.18,45.18,0,0,1,275.54,261.29Z"/>
        <path id="Trazado_101312" data-name="Trazado 101312" class="cls-7" d="M247.7,266.69a48.16,48.16,0,0,1-4-5.09,48.58,48.58,0,0,1-3.67-5.34,53.1,53.1,0,0,1,4,5.1A52.48,52.48,0,0,1,247.7,266.69Z"/>
        <path id="Trazado_101313" data-name="Trazado 101313" class="cls-7" d="M239.13,244.18a6.29,6.29,0,0,1-.18-1.62c0-1,0-2.38,0-4s.21-2.92.35-4a6.09,6.09,0,0,1,.33-1.58c.11,0-.12,2.49-.27,5.54S239.21,244.18,239.13,244.18Z"/>
        <path id="Trazado_101314" data-name="Trazado 101314" class="cls-7" d="M229.81,282.61a84.41,84.41,0,0,1-9-7.47,41.93,41.93,0,0,1,4.62,3.58A41.21,41.21,0,0,1,229.81,282.61Z"/>
        <path id="Trazado_101315" data-name="Trazado 101315" class="cls-7" d="M235.38,281.43a47.63,47.63,0,0,1-.35-6.2,46.12,46.12,0,0,1,.06-6.22,47.7,47.7,0,0,1,.36,6.21A47.67,47.67,0,0,1,235.38,281.43Z"/>
        <path id="Trazado_101316" data-name="Trazado 101316" class="cls-7" d="M246.39,305.26c0,.07-1-.32-2.59-.83A36.71,36.71,0,0,0,231,302.68c-1.67.06-2.7.18-2.71.11a2.54,2.54,0,0,1,.71-.17,19.83,19.83,0,0,1,2-.24,31.07,31.07,0,0,1,12.93,1.78,15.82,15.82,0,0,1,1.85.79A2.83,2.83,0,0,1,246.39,305.26Z"/>
        <path id="Trazado_101317" data-name="Trazado 101317" class="cls-7" d="M255.45,309.62a9,9,0,0,1,1.79,1.22,45.65,45.65,0,0,1,7.38,7.39,8.88,8.88,0,0,1,1.23,1.79,13.76,13.76,0,0,1-1.46-1.59c-.87-1-2.1-2.37-3.54-3.8s-2.8-2.66-3.8-3.54A13.94,13.94,0,0,1,255.45,309.62Z"/>
        <path id="Trazado_101318" data-name="Trazado 101318" class="cls-7" d="M259.4,268.38a31.23,31.23,0,0,1-2-4.62,30.4,30.4,0,0,1-1.67-4.75,32.81,32.81,0,0,1,2.05,4.62A31.46,31.46,0,0,1,259.4,268.38Z"/>
        <path id="Trazado_101319" data-name="Trazado 101319" class="cls-7" d="M227.6,188.16a6.07,6.07,0,0,1-1.21,1.32,26.74,26.74,0,0,1-7.17,4.78,6.33,6.33,0,0,1-1.69.61c0-.12,2.46-1.2,5.24-3.06S227.51,188.06,227.6,188.16Z"/>
        <path id="Trazado_101320" data-name="Trazado 101320" class="cls-7" d="M229.64,179.77a29.74,29.74,0,0,1,.33-7.05A30.8,30.8,0,0,1,229.64,179.77Z"/>
        <path id="Trazado_101321" data-name="Trazado 101321" class="cls-7" d="M213.84,186.81a23.43,23.43,0,0,1-4.1-1.65,24.29,24.29,0,0,1-4-2,24.37,24.37,0,0,1,4.11,1.66A23.39,23.39,0,0,1,213.84,186.81Z"/>
        <path id="Trazado_101322" data-name="Trazado 101322" class="cls-7" d="M242,176.08a22.9,22.9,0,0,1,.13-4.38,22.7,22.7,0,0,1,.54-4.34,23.63,23.63,0,0,1-.13,4.37A23.52,23.52,0,0,1,242,176.08Z"/>
        <path id="Trazado_101323" data-name="Trazado 101323" class="cls-7" d="M205.46,203.59a14.94,14.94,0,0,1-4.52-2,14.7,14.7,0,0,1-3.87-3.06c.08-.1,1.77,1.32,4.08,2.71S205.5,203.48,205.46,203.59Z"/>
        <path id="Trazado_101324" data-name="Trazado 101324" class="cls-7" d="M193.72,187.49a34.28,34.28,0,0,1-3.37,3.95,33.15,33.15,0,0,1-3.68,3.72,66.87,66.87,0,0,1,7.05-7.71Z"/>
        <path id="Trazado_101325" data-name="Trazado 101325" class="cls-7" d="M192.71,173.06A11.74,11.74,0,0,1,189,171a11.93,11.93,0,0,1-3-3c.08-.08,1.41,1.25,3.26,2.63S192.77,173,192.71,173.06Z"/>
        <path id="Trazado_101326" data-name="Trazado 101326" class="cls-7" d="M185.31,176.08a9.84,9.84,0,0,1-1.68,2.31,10.5,10.5,0,0,1-2,2.05A20,20,0,0,1,185.31,176.08Z"/>
        <path id="Trazado_101327" data-name="Trazado 101327" class="cls-7" d="M201.14,149.29a32.59,32.59,0,0,1-3.09,4.1,29.79,29.79,0,0,1-3.42,3.85,64.48,64.48,0,0,1,6.51-8Z"/>
        <path id="Trazado_101328" data-name="Trazado 101328" class="cls-7" d="M187.58,152.34a58.11,58.11,0,0,1-6.42-7.33,28.13,28.13,0,0,1,3.37,3.53A29.34,29.34,0,0,1,187.58,152.34Z"/>
        <path id="Trazado_101329" data-name="Trazado 101329" class="cls-7" d="M194.37,135.15A23.94,23.94,0,0,1,192,131.4a25.34,25.34,0,0,1-2-4,23.77,23.77,0,0,1,2.37,3.76A23.62,23.62,0,0,1,194.37,135.15Z"/>
        <path id="Trazado_101330" data-name="Trazado 101330" class="cls-7" d="M194,124.06c-.1-.08,1.09-1.58,2-3.71s1.28-4,1.41-4a12.27,12.27,0,0,1-3.44,7.7Z"/>
        <path id="Trazado_101331" data-name="Trazado 101331" class="cls-7" d="M181,123.4a9.12,9.12,0,0,1,1-4.84,11.56,11.56,0,0,1,1.93-3,4.05,4.05,0,0,1,1.1-1,23.16,23.16,0,0,0-2.66,4.07A22.53,22.53,0,0,0,181,123.4Z"/>
        <path id="Trazado_101332" data-name="Trazado 101332" class="cls-4" d="M295.09,104.57A49.34,49.34,0,0,1,295,94.7a16.88,16.88,0,0,1,3.64-9A10.25,10.25,0,0,1,307.36,82c2,.26,4,1.26,6,1.2,2.38-.07,4.41-1.53,6.56-2.5a17.21,17.21,0,0,1,10.8-1.13,10.22,10.22,0,0,1,5.1,2.58,5.7,5.7,0,0,1,1.65,5.29,27.1,27.1,0,0,1,7.13.62,9.22,9.22,0,0,1,5.69,4,5.62,5.62,0,0,1-.6,6.61,4.57,4.57,0,0,1,5,3.43,5.87,5.87,0,0,1-2.38,5.89,10.91,10.91,0,0,1-7.4,1.49,16.14,16.14,0,0,1-6.51-2.37"/>
        <path id="Trazado_101333" data-name="Trazado 101333" class="cls-8" d="M293.37,179.14h0A17.09,17.09,0,0,0,314.13,167c1.34-5.07,2.43-9.32,2.43-9.32s13.23,2.27,17.6-10.29S346,105.23,346,105.23h0A46.12,46.12,0,0,0,300.28,96l-2.38.79L281.1,158A17.1,17.1,0,0,0,293,179Z"/>
        <path id="Trazado_101334" data-name="Trazado 101334" class="cls-9" d="M316.64,157.46a30.89,30.89,0,0,1-14.83-10.15s.84,10.34,13.76,13.45Z"/>
        <path id="Trazado_101335" data-name="Trazado 101335" class="cls-8" d="M295.13,110.4c-.18-.17-7.78-5.45-10.39,3.24s6.65,9.5,6.74,9.27S295.13,110.4,295.13,110.4Z"/>
        <path id="Trazado_101336" data-name="Trazado 101336" class="cls-9" d="M289.79,118.81a1.88,1.88,0,0,1-.47.1,1.53,1.53,0,0,1-1.11-.33c-.79-.61-1.15-2.3-.72-3.88a5.14,5.14,0,0,1,1.07-2,1.82,1.82,0,0,1,1.48-.79.79.79,0,0,1,.79.68c.05.28-.06.44,0,.47s.23-.1.27-.48a1,1,0,0,0-.18-.64,1.15,1.15,0,0,0-.79-.47,2.21,2.21,0,0,0-2,.87,5.41,5.41,0,0,0-1.25,2.26c-.47,1.77-.07,3.67,1.08,4.42a1.74,1.74,0,0,0,1.46.18C289.74,119,289.84,118.84,289.79,118.81Z"/>
        <path id="Trazado_101337" data-name="Trazado 101337" class="cls-4" d="M335.39,123.37A1.9,1.9,0,0,1,333,124.6a1.82,1.82,0,0,1-1.32-2.2h0v0a1.91,1.91,0,0,1,2.34-1.24,1.84,1.84,0,0,1,1.36,2.19h0S335.4,123.35,335.39,123.37Z"/>
        <path id="Trazado_101338" data-name="Trazado 101338" class="cls-4" d="M337.74,122.15c-.3.16-1.32-1.3-3.26-1.94s-3.68-.15-3.8-.46c-.07-.14.3-.48,1.07-.73a5.1,5.1,0,0,1,3.16.08,5,5,0,0,1,2.5,1.84C337.82,121.6,337.88,122.09,337.74,122.15Z"/>
        <path id="Trazado_101339" data-name="Trazado 101339" class="cls-4" d="M316.39,117a1.9,1.9,0,0,1-2.33,1.24,1.82,1.82,0,0,1-1.32-2.2h0V116a1.9,1.9,0,0,1,2.34-1.23,1.82,1.82,0,0,1,1.32,2.2h0Z"/>
        <path id="Trazado_101340" data-name="Trazado 101340" class="cls-4" d="M318.63,116.14c-.3.17-1.33-1.3-3.27-2s-3.67-.15-3.8-.46c-.07-.13.3-.48,1.07-.72a5.28,5.28,0,0,1,3.17.07,5.08,5.08,0,0,1,2.5,1.85C318.71,115.59,318.77,116.08,318.63,116.14Z"/>
        <path id="Trazado_101341" data-name="Trazado 101341" class="cls-4" d="M320.83,132.84a13.31,13.31,0,0,1,3.32.48c.52.12,1,.17,1.21-.14a2.68,2.68,0,0,0,.16-1.58c-.06-1.35-.12-2.77-.2-4.25-.23-6-.22-10.91,0-10.92s.63,4.87.86,10.9c.05,1.48.08,2.9.12,4.25a3,3,0,0,1-.38,2,1.34,1.34,0,0,1-1.06.45,3.34,3.34,0,0,1-.88-.17A14,14,0,0,1,320.83,132.84Z"/>
        <path id="Trazado_101342" data-name="Trazado 101342" class="cls-4" d="M314.69,132.25c.32.09-.38,2.19.92,4.28s3.6,2.61,3.52,2.9c0,.14-.64.24-1.58-.05a5.48,5.48,0,0,1-3-2.31,4.78,4.78,0,0,1-.63-3.54C314.15,132.63,314.55,132.19,314.69,132.25Z"/>
        <path id="Trazado_101343" data-name="Trazado 101343" class="cls-4" d="M338.16,118.52c-.48.32-1.66-.58-3.25-1.14s-3.06-.7-3.22-1.26c-.06-.27.3-.64,1-.85a5,5,0,0,1,5.22,1.93C338.35,117.84,338.38,118.35,338.16,118.52Z"/>
        <path id="Trazado_101344" data-name="Trazado 101344" class="cls-4" d="M318.45,108.29c-.29.16-.79-.1-1.35-.44a15,15,0,0,0-2.28-1.11,13.93,13.93,0,0,0-2.46-.65c-.68-.14-1.2-.24-1.32-.56s.26-.79,1.12-1.11a5.36,5.36,0,0,1,6.17,2.3C318.77,107.55,318.73,108.17,318.45,108.29Z"/>
        <path id="Trazado_101345" data-name="Trazado 101345" class="cls-4" d="M345.38,109.34a31.15,31.15,0,0,1-18-7.08c-5.68-4.66-12.8-7.92-14.74-7s-3.78,7.44-10.57,7.91c0,0-2.43,12.7-7.35,11.08s2.65-20.4,2.65-20.4L311,90.64l14,.52L337.54,94l10.87,6.24Z"/>
        <rect id="Rectángulo_5365" data-name="Rectángulo 5365" class="cls-7" x="97.14" y="59.51" width="177.72" height="276.75"/>
        <path id="Trazado_101346" data-name="Trazado 101346" class="cls-4" d="M274.86,336.25c0-1.7-.08-114.1-.19-276.74l.19.19H97.16l.21-.21c0,104.7,0,201.11-.05,276.75l-.16-.17,177.72.17-177.72.16H97v-.15c0-75.64,0-172,0-276.74V59.3H275.06v.19C274.93,222.16,274.86,334.56,274.86,336.25Z"/>
        <path id="Trazado_101347" data-name="Trazado 101347" class="cls-5" d="M144.77,121.14H122a2.85,2.85,0,0,1-2.85-2.84V86.82A2.85,2.85,0,0,1,122,84h14.42l11.16,11.5V118.3a2.84,2.84,0,0,1-2.84,2.84Z"/>
        <path id="Trazado_101348" data-name="Trazado 101348" class="cls-5" d="M136.45,84v8.86a2.64,2.64,0,0,0,2.64,2.64h8.52Z"/>
        <g id="Grupo_54610" data-name="Grupo 54610" class="cls-10">
          <path id="Trazado_101349" data-name="Trazado 101349" class="cls-4" d="M136.57,93.61a3,3,0,0,0,2.33,2.86l.28.06c1.11.2,8.43,1.5,8.43,1.33V95.49h-8.52S137,95.41,136.57,93.61Z"/>
        </g>
        <g id="Grupo_54611" data-name="Grupo 54611" class="cls-6">
          <path id="Trazado_101350" data-name="Trazado 101350" class="cls-11" d="M136.45,84v8.86a2.65,2.65,0,0,0,2.65,2.64h8.51Z"/>
        </g>
        <path id="Trazado_101352" data-name="Trazado 101352" class="cls-7" d="M141.33,97.48c0,.11-3.87.21-8.65.21s-8.66-.1-8.66-.21,3.88-.21,8.66-.21S141.33,97.36,141.33,97.48Z"/>
        <path id="Trazado_101353" data-name="Trazado 101353" class="cls-7" d="M142.89,101.66c0,.12-4.21.21-9.43.21s-9.44-.09-9.44-.21,4.23-.2,9.44-.2S142.89,101.55,142.89,101.66Z"/>
        <path id="Trazado_101354" data-name="Trazado 101354" class="cls-7" d="M142.89,105.61c0,.11-4.21.21-9.43.21s-9.44-.1-9.44-.21,4.23-.21,9.44-.21S142.89,105.49,142.89,105.61Z"/>
        <path id="Trazado_101355" data-name="Trazado 101355" class="cls-7" d="M142.89,109.55c0,.12-4.21.21-9.43.21s-9.44-.09-9.44-.21,4.23-.2,9.44-.2S142.89,109.44,142.89,109.55Z"/>
        <path id="Trazado_101356" data-name="Trazado 101356" class="cls-7" d="M142.89,113.5c0,.11-4.21.21-9.43.21s-9.44-.1-9.44-.21,4.23-.2,9.44-.2S142.89,113.38,142.89,113.5Z"/>
        <rect id="Rectángulo_5366" data-name="Rectángulo 5366" class="cls-3" x="261.46" y="76.55" width="3.04" height="232.37" rx="1.33"/>
        <rect id="Rectángulo_5367" data-name="Rectángulo 5367" class="cls-5" x="261.46" y="76.55" width="3.04" height="119.8" rx="1.33"/>
        <path id="Trazado_101357" data-name="Trazado 101357" class="cls-4" d="M244.86,164c0,.12-27.32.21-61,.21s-61-.09-61-.21,27.31-.21,61-.21S244.86,163.9,244.86,164Z"/>
        <path id="Trazado_101358" data-name="Trazado 101358" class="cls-4" d="M244.86,173.25c0,.11-27.32.2-61,.2s-61-.09-61-.2,27.31-.21,61-.21S244.86,173.13,244.86,173.25Z"/>
        <path id="Trazado_101359" data-name="Trazado 101359" class="cls-4" d="M244.86,182.48c0,.11-27.32.2-61,.2s-61-.09-61-.2,27.31-.21,61-.21S244.86,182.36,244.86,182.48Z"/>
        <path id="Trazado_101360" data-name="Trazado 101360" class="cls-4" d="M244.86,191.71c0,.11-27.32.21-61,.21s-61-.1-61-.21,27.31-.2,61-.2S244.86,191.59,244.86,191.71Z"/>
        <path id="Trazado_101361" data-name="Trazado 101361" class="cls-4" d="M244.86,200.94c0,.12-27.32.21-61,.21s-61-.09-61-.21,27.31-.2,61-.2S244.86,200.83,244.86,200.94Z"/>
        <path id="Trazado_101362" data-name="Trazado 101362" class="cls-4" d="M244.86,210.18c0,.11-27.32.2-61,.2s-61-.09-61-.2,27.31-.21,61-.21S244.86,210.06,244.86,210.18Z"/>
        <path id="Trazado_101363" data-name="Trazado 101363" class="cls-4" d="M244.86,245.23c0,.11-27.32.2-61,.2s-61-.1-61-.2,27.31-.21,61-.21S244.86,245.13,244.86,245.23Z"/>
        <path id="Trazado_101364" data-name="Trazado 101364" class="cls-3" d="M244.86,261.06c0,.11-27.32.2-61,.2s-61-.09-61-.2,27.31-.21,61-.21S244.86,260.93,244.86,261.06Z"/>
        <path id="Trazado_101365" data-name="Trazado 101365" class="cls-11" d="M210.72,297.94h-3.17l-.65,1.5H206l2.7-6h.84l2.72,6h-.9Zm-.3-.69-1.29-2.92-1.28,2.92Z"/>
        <path id="Trazado_101366" data-name="Trazado 101366" class="cls-11" d="M212.58,297.17a2.27,2.27,0,0,1,2.22-2.31H215a2,2,0,0,1,1.85,1l-.63.4a1.38,1.38,0,0,0-1.22-.65,1.58,1.58,0,1,0,0,3.16,1.38,1.38,0,0,0,1.22-.65l.63.39a2,2,0,0,1-1.85,1,2.27,2.27,0,0,1-2.37-2.15Z"/>
        <path id="Trazado_101367" data-name="Trazado 101367" class="cls-11" d="M217.38,297.17a2.27,2.27,0,0,1,2.22-2.31h.16a2,2,0,0,1,1.84,1l-.62.4a1.39,1.39,0,0,0-1.23-.65,1.58,1.58,0,0,0,0,3.16h0a1.39,1.39,0,0,0,1.23-.65l.62.39a2,2,0,0,1-1.84,1,2.26,2.26,0,0,1-2.37-2.15h0A.71.71,0,0,1,217.38,297.17Z"/>
        <path id="Trazado_101368" data-name="Trazado 101368" class="cls-11" d="M226.68,297.47H223a1.54,1.54,0,0,0,1.64,1.32,1.69,1.69,0,0,0,1.31-.55l.45.53a2.49,2.49,0,0,1-4.22-1.36h0v-.22a2.21,2.21,0,0,1,2.12-2.3h.15A2.17,2.17,0,0,1,226.7,297a.81.81,0,0,1,0,.22S226.69,297.36,226.68,297.47Zm-3.67-.6h2.9a1.46,1.46,0,0,0-2.9,0Z"/>
        <path id="Trazado_101369" data-name="Trazado 101369" class="cls-11" d="M232.52,297.17a2.2,2.2,0,0,1-2.07,2.31h-.22a1.94,1.94,0,0,1-1.58-.73v2.33h-.8V294.9h.8v.72a1.91,1.91,0,0,1,1.58-.79,2.2,2.2,0,0,1,2.29,2.09Zm-.84,0a1.53,1.53,0,1,0-1.52,1.58,1.51,1.51,0,0,0,1.53-1.46v-.12Z"/>
        <path id="Trazado_101370" data-name="Trazado 101370" class="cls-11" d="M236.2,299.16a1.57,1.57,0,0,1-1,.32,1.29,1.29,0,0,1-1.43-1.13h0a1.41,1.41,0,0,1,0-.29v-2.48H233v-.68h.8v-1h.79v1h1.3v.68h-1.3V298a.66.66,0,0,0,.52.78.55.55,0,0,0,.18,0,1,1,0,0,0,.64-.21Z"/>
        <path id="Trazado_101371" data-name="Trazado 101371" class="cls-8" d="M276.57,302.9l9.22-4.44-5.07-15-11.13-2.57c-1-.24-2.19-.52-3.47-.87a14.21,14.21,0,0,1-4.22-2,21.13,21.13,0,0,1-4.42-3.75c-1.05-1.43-3.28-.89-3.28.7s2.81,5.6,7.8,8.45-3.84,4.21-7,4.75-13,2.75-13.61,3.86c-.86,1.63.79,2.88,4,2.26s12.9-1.86,13.15-.17v0a7,7,0,0,0,.42,8.07c1.79,2.24,4.47,5.05,6.44,4.62C269,306.12,276.57,302.9,276.57,302.9Z"/>
        <path id="Trazado_101372" data-name="Trazado 101372" class="cls-5" d="M276,276.55l8.64,29.2,67.05-20.38a26.91,26.91,0,0,0,17.87-33.6c-.05-.16-.1-.33-.16-.5L353,200.11,317.26,209l19.6,47.33Z"/>
        <path id="Trazado_101373" data-name="Trazado 101373" class="cls-4" d="M353.21,284.86l-.33.12-1,.31-3.75,1.16-14.05,4.31-48.81,14.81-.18,0-.06-.17c-3-8.93-5.88-18.74-9.23-28.83l-.06-.19.2-.07,1.68-.55,59.18-19.65-.1.21c-4.75-11.48-8.61-20.88-11.29-27.44-1.33-3.26-2.38-5.81-3.09-7.55-.34-.87-.61-1.53-.79-2s-.25-.68-.25-.68.11.22.3.66l.83,2,3.17,7.52c2.72,6.54,6.63,15.93,11.41,27.39l.07.16-.17.05-59.17,19.74-1.69.56.13-.26c3.35,10.09,6.23,19.9,9.21,28.82l-.24-.12L334,290.53l14.1-4.2,3.77-1.1,1-.28Z"/>
        <path id="Trazado_101374" data-name="Trazado 101374" class="cls-4" d="M349.26,264.82c-.06,0-.51-.74-1.4-1.86a18.18,18.18,0,0,0-9.14-6.06c-1.38-.4-2.27-.5-2.26-.58a2.22,2.22,0,0,1,.63,0,12.32,12.32,0,0,1,1.7.29,16.46,16.46,0,0,1,5.19,2.26,16.22,16.22,0,0,1,4.11,3.9,11.57,11.57,0,0,1,.92,1.46A2.06,2.06,0,0,1,349.26,264.82Z"/>
        <path id="Trazado_101375" data-name="Trazado 101375" class="cls-7" d="M333,211.46a44.75,44.75,0,0,1,0-8.66A46.39,46.39,0,0,1,333,211.46Z"/>
        <path id="Trazado_101376" data-name="Trazado 101376" class="cls-7" d="M346.47,212.15A23.19,23.19,0,0,1,345,208a23.11,23.11,0,0,1-1.07-4.26A45.72,45.72,0,0,1,346.47,212.15Z"/>
        <path id="Trazado_101377" data-name="Trazado 101377" class="cls-7" d="M338.12,224.3a14.9,14.9,0,0,1-7.83-2.3c.06-.11,1.71.67,3.87,1.3S338.13,224.18,338.12,224.3Z"/>
        <path id="Trazado_101378" data-name="Trazado 101378" class="cls-7" d="M353.35,231a42.27,42.27,0,0,1,1.42-8.2,22.21,22.21,0,0,1-.51,4.14A20.92,20.92,0,0,1,353.35,231Z"/>
        <path id="Trazado_101379" data-name="Trazado 101379" class="cls-7" d="M347.91,241.89a43.4,43.4,0,0,1-3.56-7.78A45.53,45.53,0,0,1,347.91,241.89Z"/>
        <path id="Trazado_101380" data-name="Trazado 101380" class="cls-7" d="M345.67,251.43a20.65,20.65,0,0,1-3.76-1.58,20.31,20.31,0,0,1-3.57-2,21.72,21.72,0,0,1,3.75,1.58A20,20,0,0,1,345.67,251.43Z"/>
        <path id="Trazado_101381" data-name="Trazado 101381" class="cls-7" d="M362.8,248.89a31.19,31.19,0,0,1-1.51,3.63,31.94,31.94,0,0,1-1.58,3.6A20.81,20.81,0,0,1,362.8,248.89Z"/>
        <path id="Trazado_101382" data-name="Trazado 101382" class="cls-7" d="M358,271.89a46.6,46.6,0,0,1-.88-8.89,25.32,25.32,0,0,1,.64,4.42A25.67,25.67,0,0,1,358,271.89Z"/>
        <path id="Trazado_101383" data-name="Trazado 101383" class="cls-7" d="M345.94,279.14a19.75,19.75,0,0,1-3.16-2.61,20.77,20.77,0,0,1-2.87-2.91,38.91,38.91,0,0,1,6,5.52Z"/>
        <path id="Trazado_101384" data-name="Trazado 101384" class="cls-7" d="M325.05,281.23a45.91,45.91,0,0,1-5.18,7.06,46.17,46.17,0,0,1,5.18-7.06Z"/>
        <path id="Trazado_101385" data-name="Trazado 101385" class="cls-7" d="M331.67,271.44a14.88,14.88,0,0,1-3.21-2.82,14.39,14.39,0,0,1-2.56-3.4c.1-.07,1.27,1.41,2.87,3.12S331.74,271.35,331.67,271.44Z"/>
        <path id="Trazado_101386" data-name="Trazado 101386" class="cls-7" d="M315.91,273.66a6.2,6.2,0,0,1-3.16.39,6.52,6.52,0,0,1-3.08-.84c.05-.12,1.39.31,3.1.43S315.91,273.54,315.91,273.66Z"/>
        <path id="Trazado_101387" data-name="Trazado 101387" class="cls-7" d="M305.93,291a15.27,15.27,0,0,1-.79-3.4,14.57,14.57,0,0,1-.39-3.48A29.77,29.77,0,0,1,305.93,291Z"/>
        <path id="Trazado_101388" data-name="Trazado 101388" class="cls-7" d="M294.15,296.94a49.71,49.71,0,0,1-7.76-4.9,50.77,50.77,0,0,1,7.76,4.9Z"/>
        <path id="Trazado_101389" data-name="Trazado 101389" class="cls-7" d="M298.36,275.88c.08.07-1.06,1.43-2.34,3.21a36.71,36.71,0,0,1-2.33,3.23,12.93,12.93,0,0,1,2-3.48A12.58,12.58,0,0,1,298.36,275.88Z"/>
        <path id="Trazado_101390" data-name="Trazado 101390" class="cls-7" d="M289.25,279.87a14.79,14.79,0,0,1-4.44-2.23,14.94,14.94,0,0,1,4.44,2.23Z"/>
        <g id="Grupo_54612" data-name="Grupo 54612" class="cls-10">
          <path id="Trazado_101391" data-name="Trazado 101391" class="cls-4" d="M336.3,255.1c3.58.36,7.16.73,10.73,1.19a13.09,13.09,0,0,1,3.65.79,4.63,4.63,0,0,1,2.6,2.54,2.85,2.85,0,0,1-1,3.31,3.28,3.28,0,0,1-3.25-.14,16.91,16.91,0,0,1-2.67-2.1,14.87,14.87,0,0,0-5.5-2.87,9.91,9.91,0,0,1-2.63-.92,2.29,2.29,0,0,1-1.14-2.37"/>
        </g>
        <g id="Grupo_54613" data-name="Grupo 54613">
          <path id="Trazado_101392" data-name="Trazado 101392" class="cls-4" d="M135.29,141.18v3.37h-2V135h3.73a4.26,4.26,0,0,1,1.9.39,2.91,2.91,0,0,1,1.26,1.12,3.1,3.1,0,0,1,.44,1.65,2.76,2.76,0,0,1-1,2.22,4,4,0,0,1-2.67.81Zm0-1.6h1.76a1.78,1.78,0,0,0,1.2-.36,1.39,1.39,0,0,0,.41-1.06,1.49,1.49,0,0,0-1.56-1.58h-1.81Z"/>
          <path id="Trazado_101393" data-name="Trazado 101393" class="cls-4" d="M141.5,140.93a4.08,4.08,0,0,1,.4-1.88,3,3,0,0,1,1.18-1.28,3.34,3.34,0,0,1,1.77-.45,3.2,3.2,0,0,1,2.35.88,3.54,3.54,0,0,1,1,2.39v.48a3.73,3.73,0,0,1-.91,2.63,3.56,3.56,0,0,1-4.91,0,3.75,3.75,0,0,1-.91-2.68Zm1.9.14a2.58,2.58,0,0,0,.38,1.55,1.36,1.36,0,0,0,1.91.25,1.14,1.14,0,0,0,.25-.24,2.91,2.91,0,0,0,.39-1.7,2.61,2.61,0,0,0-.39-1.54,1.25,1.25,0,0,0-1.09-.54,1.21,1.21,0,0,0-1.07.54,2.9,2.9,0,0,0-.39,1.68Z"/>
          <path id="Trazado_101394" data-name="Trazado 101394" class="cls-4" d="M151.4,144.55h-1.9V134.46h1.9Z"/>
          <path id="Trazado_101395" data-name="Trazado 101395" class="cls-4" d="M155,144.56h-1.9v-7.11H155Zm-.56-10h2.07l-1.82,2h-1.55Z"/>
          <path id="Trazado_101396" data-name="Trazado 101396" class="cls-4" d="M158.93,135.7v1.74h1.21v1.4h-1.21v3.54a.82.82,0,0,0,.15.57.76.76,0,0,0,.58.17,2.56,2.56,0,0,0,.55-.05v1.44a3.73,3.73,0,0,1-1.15.17,1.8,1.8,0,0,1-2-1.56,1.69,1.69,0,0,1,0-.45v-3.83h-1v-1.4h1V135.7Z"/>
          <path id="Trazado_101397" data-name="Trazado 101397" class="cls-4" d="M161.19,135.61a.91.91,0,0,1,.28-.7,1.23,1.23,0,0,1,1.56,0,1,1,0,0,1,0,1.41,1.22,1.22,0,0,1-1.55,0A1,1,0,0,1,161.19,135.61Zm2,8.94h-1.9v-7.11h1.9Z"/>
          <path id="Trazado_101398" data-name="Trazado 101398" class="cls-4" d="M167.72,143.15a1.22,1.22,0,0,0,.86-.28,1,1,0,0,0,.34-.77h1.78a2.46,2.46,0,0,1-.39,1.32,2.6,2.6,0,0,1-1.07.93,3.17,3.17,0,0,1-1.48.33,3.08,3.08,0,0,1-2.4-1,3.8,3.8,0,0,1-.88-2.68v-.13a3.78,3.78,0,0,1,.87-2.62,3.05,3.05,0,0,1,2.4-1,3,3,0,0,1,2.14.76,2.73,2.73,0,0,1,.82,2h-1.78a1.32,1.32,0,0,0-.35-.9,1.26,1.26,0,0,0-1.79.05l-.08.09a2.76,2.76,0,0,0-.33,1.57v.2a2.81,2.81,0,0,0,.33,1.58A1.15,1.15,0,0,0,167.72,143.15Z"/>
          <path id="Trazado_101399" data-name="Trazado 101399" class="cls-4" d="M175.9,144.55a2.29,2.29,0,0,1-.19-.63,2.26,2.26,0,0,1-1.79.76,2.49,2.49,0,0,1-1.73-.6,1.92,1.92,0,0,1-.69-1.52,2,2,0,0,1,.84-1.73,4,4,0,0,1,2.42-.61h.87v-.41a1.12,1.12,0,0,0-.25-.79,1,1,0,0,0-.8-.3,1.12,1.12,0,0,0-.75.23.77.77,0,0,0-.27.63h-1.9a1.88,1.88,0,0,1,.38-1.14,2.46,2.46,0,0,1,1.08-.83,3.94,3.94,0,0,1,1.56-.3,3.17,3.17,0,0,1,2.09.66,2.33,2.33,0,0,1,.77,1.86v3.08a3.36,3.36,0,0,0,.28,1.53v.11Zm-1.57-1.32a1.63,1.63,0,0,0,.78-.18,1.25,1.25,0,0,0,.52-.5v-1.23h-.7c-1,0-1.46.33-1.52,1v.11a.78.78,0,0,0,.25.58A.91.91,0,0,0,174.33,143.23Z"/>
          <path id="Trazado_101400" data-name="Trazado 101400" class="cls-4" d="M185.31,143.15a1.2,1.2,0,0,0,.85-.28,1,1,0,0,0,.34-.77h1.78a2.46,2.46,0,0,1-.39,1.32,2.57,2.57,0,0,1-1.06.93,3.24,3.24,0,0,1-1.49.33,3.1,3.1,0,0,1-2.4-1,3.85,3.85,0,0,1-.88-2.68v-.13a3.78,3.78,0,0,1,.87-2.62,3.08,3.08,0,0,1,2.4-1,3,3,0,0,1,2.14.76,2.69,2.69,0,0,1,.82,2h-1.78a1.36,1.36,0,0,0-.34-.9,1.28,1.28,0,0,0-1.8.05l-.07.09a2.77,2.77,0,0,0-.34,1.57v.2a2.9,2.9,0,0,0,.33,1.58A1.16,1.16,0,0,0,185.31,143.15Z"/>
          <path id="Trazado_101401" data-name="Trazado 101401" class="cls-4" d="M189.07,140.93a4.22,4.22,0,0,1,.41-1.88,3,3,0,0,1,1.17-1.28,3.37,3.37,0,0,1,1.78-.45,3.21,3.21,0,0,1,2.35.88,3.49,3.49,0,0,1,1,2.39l0,.48a3.79,3.79,0,0,1-.92,2.63,3.55,3.55,0,0,1-4.9,0,3.75,3.75,0,0,1-.91-2.68Zm1.9.14a2.73,2.73,0,0,0,.38,1.55,1.37,1.37,0,0,0,1.92.25,1.42,1.42,0,0,0,.25-.24,3,3,0,0,0,.39-1.7,2.69,2.69,0,0,0-.39-1.54,1.28,1.28,0,0,0-1.09-.54,1.22,1.22,0,0,0-1.08.54,3,3,0,0,0-.38,1.68Z"/>
          <path id="Trazado_101402" data-name="Trazado 101402" class="cls-4" d="M198.72,137.44l.06.83a2.51,2.51,0,0,1,2.05-1,2.06,2.06,0,0,1,1.68.67,3,3,0,0,1,.56,2v4.59h-1.9V140a1.21,1.21,0,0,0-.26-.88,1.15,1.15,0,0,0-.87-.27,1.29,1.29,0,0,0-1.2.68v5h-1.9v-7.11Z"/>
          <path id="Trazado_101403" data-name="Trazado 101403" class="cls-4" d="M206.78,135.7v1.74H208v1.4h-1.22v3.54a.88.88,0,0,0,.15.57.77.77,0,0,0,.58.17,2.59,2.59,0,0,0,.56-.05v1.44a3.73,3.73,0,0,1-1.15.17,1.8,1.8,0,0,1-2-1.56,1.69,1.69,0,0,1,0-.45v-3.83h-1v-1.4h1V135.7Z"/>
          <path id="Trazado_101404" data-name="Trazado 101404" class="cls-4" d="M213.18,144.55a2,2,0,0,1-.19-.63,2.29,2.29,0,0,1-1.8.76,2.49,2.49,0,0,1-1.73-.6,1.92,1.92,0,0,1-.69-1.52,2,2,0,0,1,.84-1.73,4.06,4.06,0,0,1,2.42-.61h.88v-.41a1.18,1.18,0,0,0-.26-.79,1,1,0,0,0-.8-.3,1.13,1.13,0,0,0-.75.23.8.8,0,0,0-.27.63h-1.9a1.88,1.88,0,0,1,.38-1.14,2.52,2.52,0,0,1,1.08-.83,4,4,0,0,1,1.56-.3A3.13,3.13,0,0,1,214,138a2.3,2.3,0,0,1,.77,1.86v3.08a3.36,3.36,0,0,0,.28,1.53v.11Zm-1.57-1.32a1.59,1.59,0,0,0,.77-.18,1.28,1.28,0,0,0,.53-.5v-1.23h-.71c-.95,0-1.46.33-1.52,1v.11a.74.74,0,0,0,.25.58A.92.92,0,0,0,211.61,143.23Z"/>
          <path id="Trazado_101405" data-name="Trazado 101405" class="cls-4" d="M222.68,141.06a4.34,4.34,0,0,1-.73,2.67,2.45,2.45,0,0,1-2,1,2.25,2.25,0,0,1-1.85-.89l-.08.75h-1.71V134.46h1.9v3.62a2.15,2.15,0,0,1,1.73-.77,2.47,2.47,0,0,1,2,1,4.43,4.43,0,0,1,.74,2.69Zm-1.9-.13a2.88,2.88,0,0,0-.34-1.58,1.18,1.18,0,0,0-1-.5,1.25,1.25,0,0,0-1.25.75v2.8a1.27,1.27,0,0,0,1.26.75,1.18,1.18,0,0,0,1.21-.91,4.46,4.46,0,0,0,.14-1.31Z"/>
          <path id="Trazado_101406" data-name="Trazado 101406" class="cls-4" d="M225.85,144.55H224V134.46h1.9Z"/>
          <path id="Trazado_101407" data-name="Trazado 101407" class="cls-4" d="M230.69,144.68a3.47,3.47,0,0,1-2.55-1,3.4,3.4,0,0,1-1-2.56V141a4.35,4.35,0,0,1,.41-1.91,3.09,3.09,0,0,1,1.18-1.3,3.28,3.28,0,0,1,1.73-.46,3,3,0,0,1,2.3.92,3.69,3.69,0,0,1,.83,2.61v.77h-4.52a1.76,1.76,0,0,0,.55,1.12,1.64,1.64,0,0,0,1.17.42,2,2,0,0,0,1.72-.79l.93,1a2.77,2.77,0,0,1-1.15.94A3.63,3.63,0,0,1,230.69,144.68Zm-.22-5.84a1.2,1.2,0,0,0-.92.39,2,2,0,0,0-.45,1.09h2.64v-.15a1.36,1.36,0,0,0-.34-1,1.23,1.23,0,0,0-.93-.35Z"/>
        </g>
      </g>
    </g>
  </g>
</svg>
