<svg xmlns="http://www.w3.org/2000/svg" width="1228" height="517.662" viewBox="0 0 1228 517.662">
  <g id="Grupo_56416" data-name="Grupo 56416" transform="translate(-180 -4249)">
    <g id="Grupo_56415" data-name="Grupo 56415">
      <path id="Trazado_100676" data-name="Trazado 100676" d="M0,0H1228V517.662H0Z" transform="translate(180 4249)" fill="#f3f9ff"/>
    </g>
    <text id="_7.000" data-name="7.000" transform="translate(1327 4615.676)" fill="#12263f" font-size="16" font-family="SegoeUI, Segoe UI"><tspan x="0" y="0">7.000</tspan></text>
    <g id="Grupo_53611" data-name="Grupo 53611" transform="translate(0 392)">
      <path id="Trazado_103337" data-name="Trazado 103337" d="M11.54-8.446a4.1,4.1,0,0,1-.655,2.294A4.267,4.267,0,0,1,9.018-4.6,6.78,6.78,0,0,1,6.2-4.052H5.036V0h-3.8V-12.6H6.407a6.119,6.119,0,0,1,3.9,1.011A3.83,3.83,0,0,1,11.54-8.446Zm-4.017.132a1.477,1.477,0,0,0-.448-1.169,1.937,1.937,0,0,0-1.318-.4H5.036v3.111h.853Q7.523-6.768,7.523-8.314ZM17.692,0V-1.371h-.035A2.944,2.944,0,0,1,14.915.22a2.625,2.625,0,0,1-2-.756A2.808,2.808,0,0,1,12.2-2.558q0-2.654,3.261-3.076l2.232-.29a.851.851,0,0,0-.4-.721,1.8,1.8,0,0,0-1.063-.281,7,7,0,0,0-3.19.861V-8.5a8.535,8.535,0,0,1,1.828-.519,10.639,10.639,0,0,1,1.881-.2,4.722,4.722,0,0,1,3.327.98,4.368,4.368,0,0,1,1.033,3.274V0ZM15.478-3.059a.83.83,0,0,0,.233.606.888.888,0,0,0,.664.237,1.18,1.18,0,0,0,.954-.439,1.7,1.7,0,0,0,.365-1.125v-.343l-1.266.176Q15.478-3.788,15.478-3.059Zm17.077,1.8a5.116,5.116,0,0,1-1.63,4.039,6.962,6.962,0,0,1-4.759,1.446A9.93,9.93,0,0,1,24.53,4.1,4.5,4.5,0,0,1,23.4,3.8V.861a5.022,5.022,0,0,0,1.318.563,5.072,5.072,0,0,0,1.345.211,3.122,3.122,0,0,0,2.013-.606A1.959,1.959,0,0,0,28.828-.58v-.554h-.035a2.909,2.909,0,0,1-1.112.984A3.23,3.23,0,0,1,26.165.22,3.4,3.4,0,0,1,23.414-.989,5.045,5.045,0,0,1,22.4-4.324,5.964,5.964,0,0,1,22.931-6.9,4.018,4.018,0,0,1,24.4-8.618a3.769,3.769,0,0,1,2.074-.6,2.6,2.6,0,0,1,2.32,1.151h.035V-9h3.727Zm-3.665-3.5a2.02,2.02,0,0,0-.356-1.257,1.13,1.13,0,0,0-.945-.466,1.163,1.163,0,0,0-1.011.563,2.656,2.656,0,0,0-.378,1.5,2.6,2.6,0,0,0,.316,1.38,1.092,1.092,0,0,0,1,.51,1.161,1.161,0,0,0,1.006-.523,2.408,2.408,0,0,0,.365-1.4Zm15.478.1a4.687,4.687,0,0,1-1.375,3.577A5.375,5.375,0,0,1,39.146.22a5.4,5.4,0,0,1-3.819-1.27,4.546,4.546,0,0,1-1.367-3.5A4.692,4.692,0,0,1,34.6-7.04a4.172,4.172,0,0,1,1.828-1.617,6.311,6.311,0,0,1,2.733-.562,6.113,6.113,0,0,1,2.773.589A4.286,4.286,0,0,1,43.739-7,4.452,4.452,0,0,1,44.367-4.658Zm-3.8.018q0-1.837-1.406-1.837T37.758-4.553q0,2.03,1.424,2.03Q40.57-2.522,40.57-4.641Z" transform="translate(1054 3982.324)" fill="#12263f"/>
      <rect id="Rectángulo_5064" data-name="Rectángulo 5064" width="604" height="97" transform="translate(180 3976.676)" fill="#f6f6f6"/>
      <rect id="Rectángulo_5073" data-name="Rectángulo 5073" width="604" height="97" transform="translate(800 4073.676)" fill="#f6f6f6"/>
      <rect id="Rectángulo_5065" data-name="Rectángulo 5065" width="604" height="97" transform="translate(180 4073.676)" fill="#fff"/>
      <rect id="Rectángulo_5074" data-name="Rectángulo 5074" width="604" height="97" transform="translate(800 4170.676)" fill="#fff"/>
      <rect id="Rectángulo_5066" data-name="Rectángulo 5066" width="604" height="97" transform="translate(180 4170.676)" fill="#f6f6f6"/>
      <path id="Trazado_103338" data-name="Trazado 103338" d="M11.54,10.554a4.1,4.1,0,0,1-.655,2.294A4.267,4.267,0,0,1,9.018,14.4a6.78,6.78,0,0,1-2.821.549H5.036V19h-3.8V6.4H6.407a6.119,6.119,0,0,1,3.9,1.011A3.83,3.83,0,0,1,11.54,10.554Zm-4.017.132a1.477,1.477,0,0,0-.448-1.169,1.937,1.937,0,0,0-1.318-.4H5.036v3.111h.853Q7.523,12.232,7.523,10.686Zm11.944,2.522a3.6,3.6,0,0,0-1.169-.255q-1.854,0-1.854,2.145V19H12.7V10h3.744v1.582h.035a2.81,2.81,0,0,1,.976-1.3,2.506,2.506,0,0,1,1.477-.444,1.269,1.269,0,0,1,.536.105ZM30.56,14.342a4.687,4.687,0,0,1-1.375,3.577,5.375,5.375,0,0,1-3.845,1.3,5.4,5.4,0,0,1-3.819-1.27,4.546,4.546,0,0,1-1.367-3.5,4.692,4.692,0,0,1,.642-2.487,4.172,4.172,0,0,1,1.828-1.617,6.311,6.311,0,0,1,2.733-.562,6.113,6.113,0,0,1,2.773.589A4.286,4.286,0,0,1,29.931,12,4.452,4.452,0,0,1,30.56,14.342Zm-3.8.018q0-1.837-1.406-1.837T23.95,14.447q0,2.03,1.424,2.03Q26.763,16.478,26.763,14.359Zm15.346-.132a6.4,6.4,0,0,1-.5,2.61A4.046,4.046,0,0,1,40.192,18.6a3.564,3.564,0,0,1-2.057.624,2.755,2.755,0,0,1-2.4-1.151H35.7V23.14H31.957V10H35.7v1.222h.035a3.171,3.171,0,0,1,1.16-1.059,3.364,3.364,0,0,1,1.617-.382,3.215,3.215,0,0,1,2.667,1.16A5.147,5.147,0,0,1,42.108,14.228Zm-3.8.114a2.346,2.346,0,0,0-.33-1.336A1.237,1.237,0,0,0,36,13.032a2.341,2.341,0,0,0-.369,1.4v.176a2.562,2.562,0,0,0,.316,1.362,1.044,1.044,0,0,0,.949.51,1.182,1.182,0,0,0,1.046-.558A2.849,2.849,0,0,0,38.312,14.342Zm9.167-6.768A1.608,1.608,0,0,1,46.9,8.857a2.252,2.252,0,0,1-1.516.492,2.2,2.2,0,0,1-1.5-.51A1.612,1.612,0,0,1,43.3,7.574a1.561,1.561,0,0,1,.567-1.252,2.639,2.639,0,0,1,3.032,0A1.551,1.551,0,0,1,47.479,7.574ZM43.515,19V10h3.744v9Zm8.771-3.437a1.265,1.265,0,0,0,.668.91,3.012,3.012,0,0,0,1.512.33,6.226,6.226,0,0,0,2.479-.5v2.373a8.908,8.908,0,0,1-3.3.545,5.214,5.214,0,0,1-3.665-1.2,4.277,4.277,0,0,1-1.31-3.313,5.467,5.467,0,0,1,.576-2.558,4.142,4.142,0,0,1,1.705-1.736,5.038,5.038,0,0,1,2.492-.628,4.9,4.9,0,0,1,2.391.545,3.63,3.63,0,0,1,1.507,1.529,4.906,4.906,0,0,1,.514,2.3v1.406Zm2.25-1.96q0-1.556-1.116-1.556a.944.944,0,0,0-.782.426,2.127,2.127,0,0,0-.369,1.129ZM65.153,19V17.954h-.035a3.089,3.089,0,0,1-1.169.927,3.331,3.331,0,0,1-1.424.338,3.663,3.663,0,0,1-2.03-.567,3.443,3.443,0,0,1-1.314-1.586,6.106,6.106,0,0,1-.435-2.408,5.925,5.925,0,0,1,.519-2.54A4.059,4.059,0,0,1,60.724,10.4a3.769,3.769,0,0,1,2.109-.615,3.193,3.193,0,0,1,1.024.158,2.77,2.77,0,0,1,.817.426,1.273,1.273,0,0,1,.444.532h.035V5.676H68.9V19Zm.079-4.772a1.974,1.974,0,0,0-.356-1.257,1.2,1.2,0,0,0-1.951.11,2.593,2.593,0,0,0-.382,1.49q0,1.907,1.318,1.907a1.173,1.173,0,0,0,1-.514,2.531,2.531,0,0,0,.374-1.5ZM75.691,19V17.629h-.035a2.944,2.944,0,0,1-2.742,1.591,2.625,2.625,0,0,1-2-.756,2.808,2.808,0,0,1-.721-2.021q0-2.654,3.261-3.076l2.232-.29a.851.851,0,0,0-.4-.721,1.8,1.8,0,0,0-1.063-.281,7,7,0,0,0-3.19.861V10.5a8.535,8.535,0,0,1,1.828-.519,10.639,10.639,0,0,1,1.881-.2,4.722,4.722,0,0,1,3.327.98,4.368,4.368,0,0,1,1.033,3.274V19Zm-2.215-3.059a.83.83,0,0,0,.233.606.888.888,0,0,0,.664.237,1.18,1.18,0,0,0,.954-.439,1.7,1.7,0,0,0,.365-1.125v-.343l-1.266.176Q73.477,15.212,73.477,15.941ZM86.81,19V17.954h-.035a3.089,3.089,0,0,1-1.169.927,3.331,3.331,0,0,1-1.424.338,3.663,3.663,0,0,1-2.03-.567,3.443,3.443,0,0,1-1.314-1.586,6.106,6.106,0,0,1-.435-2.408,5.925,5.925,0,0,1,.519-2.54A4.059,4.059,0,0,1,82.38,10.4a3.769,3.769,0,0,1,2.109-.615,3.193,3.193,0,0,1,1.024.158,2.77,2.77,0,0,1,.817.426,1.273,1.273,0,0,1,.444.532h.035V5.676h3.744V19Zm.079-4.772a1.974,1.974,0,0,0-.356-1.257,1.2,1.2,0,0,0-1.951.11,2.593,2.593,0,0,0-.382,1.49q0,1.907,1.318,1.907a1.173,1.173,0,0,0,1-.514,2.531,2.531,0,0,0,.374-1.5ZM97.7,19V6.4h3.8V19Zm11.769,0V14.087a2.184,2.184,0,0,0-.25-1.2.915.915,0,0,0-.813-.365.88.88,0,0,0-.756.378,1.613,1.613,0,0,0-.272.967V19h-3.744V10h3.744v1.406h.035a3.177,3.177,0,0,1,1.2-1.2,3.29,3.29,0,0,1,1.644-.426q2.953,0,2.953,3.727V19Zm11.443,0V17.954h-.035a3.089,3.089,0,0,1-1.169.927,3.331,3.331,0,0,1-1.424.338,3.663,3.663,0,0,1-2.03-.567,3.443,3.443,0,0,1-1.314-1.586,6.106,6.106,0,0,1-.435-2.408,5.925,5.925,0,0,1,.519-2.54,4.059,4.059,0,0,1,1.459-1.723,3.769,3.769,0,0,1,2.109-.615,3.193,3.193,0,0,1,1.024.158,2.77,2.77,0,0,1,.817.426,1.273,1.273,0,0,1,.444.532h.035V5.676h3.744V19Zm.079-4.772a1.974,1.974,0,0,0-.356-1.257,1.2,1.2,0,0,0-1.951.11,2.593,2.593,0,0,0-.382,1.49q0,1.907,1.318,1.907a1.173,1.173,0,0,0,1-.514,2.531,2.531,0,0,0,.374-1.5ZM132.188,19V17.611h-.035a4.926,4.926,0,0,1-.839.94,3.23,3.23,0,0,1-.844.483,2.983,2.983,0,0,1-1.094.185,2.722,2.722,0,0,1-2.25-.958,4.429,4.429,0,0,1-.773-2.83V10H130.1v5.15q0,1.327.993,1.327a.972.972,0,0,0,.822-.36,1.642,1.642,0,0,0,.277-1.02V10h3.744v9Zm12.85-2.988a2.749,2.749,0,0,1-1.165,2.369,5.474,5.474,0,0,1-3.248.839,11.291,11.291,0,0,1-1.5-.123,9.257,9.257,0,0,1-1.455-.3V16.17a7.162,7.162,0,0,0,2.777.738q1.1,0,1.1-.571a.451.451,0,0,0-.255-.391,9.009,9.009,0,0,0-1.336-.514,3.773,3.773,0,0,1-1.74-1,2.382,2.382,0,0,1-.545-1.626,2.594,2.594,0,0,1,1.112-2.21,5.216,5.216,0,0,1,3.125-.813,9.931,9.931,0,0,1,2.5.343v2.522a7.549,7.549,0,0,0-1.213-.4,4.9,4.9,0,0,0-1.107-.158,1.205,1.205,0,0,0-.589.123.379.379,0,0,0-.22.343.478.478,0,0,0,.237.413,4.2,4.2,0,0,0,.949.378,4.4,4.4,0,0,1,1.978,1.037A2.272,2.272,0,0,1,145.037,16.012Zm7.717,2.865a3.648,3.648,0,0,1-.835.233,7.634,7.634,0,0,1-1.4.11,3.357,3.357,0,0,1-2.448-.861,3.269,3.269,0,0,1-.883-2.452V12.593h-1.415V10h1.415V8.233l3.691-1.02V10h1.872v2.593h-1.872v2.7q0,1.187.94,1.187a2.551,2.551,0,0,0,.932-.193Zm7.937-5.669a3.6,3.6,0,0,0-1.169-.255q-1.854,0-1.854,2.145V19h-3.744V10h3.744v1.582h.035a2.81,2.81,0,0,1,.976-1.3,2.506,2.506,0,0,1,1.477-.444,1.269,1.269,0,0,1,.536.105Zm5.045-5.634a1.608,1.608,0,0,1-.576,1.283,2.252,2.252,0,0,1-1.516.492,2.2,2.2,0,0,1-1.5-.51,1.612,1.612,0,0,1-.584-1.266,1.561,1.561,0,0,1,.567-1.252,2.639,2.639,0,0,1,3.032,0A1.551,1.551,0,0,1,165.735,7.574ZM161.771,19V10h3.744v9Zm10.538,0V17.629h-.035a2.944,2.944,0,0,1-2.742,1.591,2.625,2.625,0,0,1-2-.756,2.808,2.808,0,0,1-.721-2.021q0-2.654,3.261-3.076l2.232-.29a.851.851,0,0,0-.4-.721,1.8,1.8,0,0,0-1.063-.281,7,7,0,0,0-3.19.861V10.5a8.535,8.535,0,0,1,1.828-.519,10.639,10.639,0,0,1,1.881-.2,4.722,4.722,0,0,1,3.327.98,4.368,4.368,0,0,1,1.033,3.274V19Zm-2.215-3.059a.83.83,0,0,0,.233.606.888.888,0,0,0,.664.237,1.18,1.18,0,0,0,.954-.439,1.7,1.7,0,0,0,.365-1.125v-.343l-1.266.176Q170.095,15.212,170.095,15.941ZM177.416,19V5.676h3.744V19ZM11.54,37.554a4.1,4.1,0,0,1-.655,2.294A4.267,4.267,0,0,1,9.018,41.4a6.78,6.78,0,0,1-2.821.549H5.036V46h-3.8V33.4H6.407a6.119,6.119,0,0,1,3.9,1.011A3.83,3.83,0,0,1,11.54,37.554Zm-4.017.132a1.477,1.477,0,0,0-.448-1.169,1.937,1.937,0,0,0-1.318-.4H5.036v3.111h.853Q7.523,39.232,7.523,37.686ZM17.692,46V44.629h-.035a2.944,2.944,0,0,1-2.742,1.591,2.625,2.625,0,0,1-2-.756,2.808,2.808,0,0,1-.721-2.021q0-2.654,3.261-3.076l2.232-.29a.851.851,0,0,0-.4-.721,1.8,1.8,0,0,0-1.063-.281,7,7,0,0,0-3.19.861V37.5a8.535,8.535,0,0,1,1.828-.519,10.639,10.639,0,0,1,1.881-.2,4.722,4.722,0,0,1,3.327.98,4.368,4.368,0,0,1,1.033,3.274V46Zm-2.215-3.059a.83.83,0,0,0,.233.606.888.888,0,0,0,.664.237,1.18,1.18,0,0,0,.954-.439,1.7,1.7,0,0,0,.365-1.125v-.343l-1.266.176Q15.478,42.212,15.478,42.941Zm13.658,2.936a3.648,3.648,0,0,1-.835.233,7.634,7.634,0,0,1-1.4.11,3.357,3.357,0,0,1-2.448-.861,3.269,3.269,0,0,1-.883-2.452V39.593H22.157V37h1.415V35.233l3.691-1.02V37h1.872v2.593H27.264v2.7q0,1.187.94,1.187a2.551,2.551,0,0,0,.932-.193Zm4.395-3.313a1.265,1.265,0,0,0,.668.91,3.012,3.012,0,0,0,1.512.33,6.226,6.226,0,0,0,2.479-.5v2.373a8.908,8.908,0,0,1-3.3.545,5.214,5.214,0,0,1-3.665-1.2,4.277,4.277,0,0,1-1.31-3.313,5.467,5.467,0,0,1,.576-2.558,4.142,4.142,0,0,1,1.705-1.736,5.038,5.038,0,0,1,2.492-.628,4.9,4.9,0,0,1,2.391.545,3.63,3.63,0,0,1,1.507,1.529,4.906,4.906,0,0,1,.514,2.3v1.406Zm2.25-1.96q0-1.556-1.116-1.556a.944.944,0,0,0-.782.426,2.127,2.127,0,0,0-.369,1.129ZM46.222,46V41.087a2.184,2.184,0,0,0-.25-1.2.915.915,0,0,0-.813-.365.88.88,0,0,0-.756.378,1.613,1.613,0,0,0-.272.967V46H40.386V37H44.13v1.406h.035a3.177,3.177,0,0,1,1.2-1.2,3.29,3.29,0,0,1,1.644-.426q2.953,0,2.953,3.727V46Zm11.769-.123a3.648,3.648,0,0,1-.835.233,7.634,7.634,0,0,1-1.4.11,3.357,3.357,0,0,1-2.448-.861,3.269,3.269,0,0,1-.883-2.452V39.593H51.012V37h1.415V35.233l3.691-1.02V37H57.99v2.593H56.118v2.7q0,1.187.94,1.187a2.551,2.551,0,0,0,.932-.193Zm4.395-3.313a1.265,1.265,0,0,0,.668.91,3.012,3.012,0,0,0,1.512.33,6.226,6.226,0,0,0,2.479-.5v2.373a8.908,8.908,0,0,1-3.3.545,5.214,5.214,0,0,1-3.665-1.2,4.277,4.277,0,0,1-1.31-3.313,5.467,5.467,0,0,1,.576-2.558,4.142,4.142,0,0,1,1.705-1.736,5.038,5.038,0,0,1,2.492-.628,4.9,4.9,0,0,1,2.391.545,3.63,3.63,0,0,1,1.507,1.529,4.906,4.906,0,0,1,.514,2.3v1.406Zm2.25-1.96q0-1.556-1.116-1.556a.944.944,0,0,0-.782.426,2.127,2.127,0,0,0-.369,1.129Z" transform="translate(208 4011.676)" fill="#12263f"/>
      <path id="Trazado_103347" data-name="Trazado 103347" d="M10.617,18.657A10.653,10.653,0,0,1,7,19.22a7.351,7.351,0,0,1-3.472-.769,5.265,5.265,0,0,1-2.228-2.188,6.765,6.765,0,0,1-.769-3.274A7.207,7.207,0,0,1,1.4,9.438a5.957,5.957,0,0,1,2.435-2.4,7.512,7.512,0,0,1,3.621-.848,12.586,12.586,0,0,1,3.164.4v3.507A4.465,4.465,0,0,0,9.36,9.6,6.282,6.282,0,0,0,7.884,9.42a3.305,3.305,0,0,0-2.439.888,3.245,3.245,0,0,0-.892,2.408A3.189,3.189,0,0,0,5.445,15.1a3.261,3.261,0,0,0,2.386.875,6.191,6.191,0,0,0,2.786-.7Zm11.628-4.315a4.687,4.687,0,0,1-1.375,3.577,5.375,5.375,0,0,1-3.845,1.3,5.4,5.4,0,0,1-3.819-1.27,4.546,4.546,0,0,1-1.367-3.5,4.692,4.692,0,0,1,.642-2.487,4.172,4.172,0,0,1,1.828-1.617,6.311,6.311,0,0,1,2.733-.562,6.113,6.113,0,0,1,2.773.589A4.286,4.286,0,0,1,21.617,12,4.452,4.452,0,0,1,22.245,14.342Zm-3.8.018q0-1.837-1.406-1.837t-1.406,1.925q0,2.03,1.424,2.03Q18.448,16.478,18.448,14.359Zm12.507,1.652a2.749,2.749,0,0,1-1.165,2.369,5.474,5.474,0,0,1-3.248.839,11.291,11.291,0,0,1-1.5-.123,9.257,9.257,0,0,1-1.455-.3V16.17a7.162,7.162,0,0,0,2.777.738q1.1,0,1.1-.571a.451.451,0,0,0-.255-.391,9.009,9.009,0,0,0-1.336-.514,3.773,3.773,0,0,1-1.74-1A2.382,2.382,0,0,1,23.59,12.8a2.594,2.594,0,0,1,1.112-2.21,5.216,5.216,0,0,1,3.125-.813,9.931,9.931,0,0,1,2.5.343v2.522a7.549,7.549,0,0,0-1.213-.4A4.9,4.9,0,0,0,28,12.092a1.205,1.205,0,0,0-.589.123.379.379,0,0,0-.22.343.478.478,0,0,0,.237.413,4.2,4.2,0,0,0,.949.378,4.4,4.4,0,0,1,1.978,1.037A2.272,2.272,0,0,1,30.955,16.012Zm7.717,2.865a3.648,3.648,0,0,1-.835.233,7.634,7.634,0,0,1-1.4.11,3.357,3.357,0,0,1-2.448-.861,3.269,3.269,0,0,1-.883-2.452V12.593H31.693V10h1.415V8.233L36.8,7.214V10h1.872v2.593H36.8v2.7q0,1.187.94,1.187a2.551,2.551,0,0,0,.932-.193Zm11.18-4.535a4.687,4.687,0,0,1-1.375,3.577,5.375,5.375,0,0,1-3.845,1.3,5.4,5.4,0,0,1-3.819-1.27,4.546,4.546,0,0,1-1.367-3.5,4.692,4.692,0,0,1,.642-2.487,4.172,4.172,0,0,1,1.828-1.617,6.311,6.311,0,0,1,2.733-.562,6.113,6.113,0,0,1,2.773.589A4.286,4.286,0,0,1,49.223,12,4.452,4.452,0,0,1,49.852,14.342Zm-3.8.018q0-1.837-1.406-1.837t-1.406,1.925q0,2.03,1.424,2.03Q46.055,16.478,46.055,14.359Zm12.507,1.652A2.749,2.749,0,0,1,57.4,18.38a5.474,5.474,0,0,1-3.248.839,11.291,11.291,0,0,1-1.5-.123,9.257,9.257,0,0,1-1.455-.3V16.17a7.162,7.162,0,0,0,2.777.738q1.1,0,1.1-.571a.451.451,0,0,0-.255-.391,9.009,9.009,0,0,0-1.336-.514,3.773,3.773,0,0,1-1.74-1A2.382,2.382,0,0,1,51.2,12.8a2.594,2.594,0,0,1,1.112-2.21,5.216,5.216,0,0,1,3.125-.813,9.931,9.931,0,0,1,2.5.343v2.522a7.549,7.549,0,0,0-1.213-.4,4.9,4.9,0,0,0-1.107-.158,1.205,1.205,0,0,0-.589.123.379.379,0,0,0-.22.343.478.478,0,0,0,.237.413,4.2,4.2,0,0,0,.949.378,4.4,4.4,0,0,1,1.978,1.037A2.272,2.272,0,0,1,58.562,16.012Zm8.13,7.216a7.561,7.561,0,0,1-1.134-.092,5.5,5.5,0,0,1-1.081-.268V20.046a2.245,2.245,0,0,0,.655.308,2.676,2.676,0,0,0,.822.141,1.351,1.351,0,0,0,1.389-.826l.29-.7L63.87,10h4.14l1.09,4.342a10.78,10.78,0,0,1,.343,1.635h.035q.026-.193.075-.431T70.919,10h3.639l-3.313,9.255a6.873,6.873,0,0,1-1.85,3.05A4.07,4.07,0,0,1,66.691,23.228Zm24.97-5.054a8.127,8.127,0,0,1-2.127.725,12.21,12.21,0,0,1-2.7.321,7.285,7.285,0,0,1-5.115-1.657,5.994,5.994,0,0,1-1.8-4.645,6.92,6.92,0,0,1,.91-3.56,5.9,5.9,0,0,1,2.562-2.364,8.766,8.766,0,0,1,3.894-.809,14.489,14.489,0,0,1,3.507.466V9.965a7.456,7.456,0,0,0-1.67-.549,9.275,9.275,0,0,0-1.749-.154,3.341,3.341,0,0,0-2.492.94,3.52,3.52,0,0,0-.927,2.584,3.609,3.609,0,0,0,.778,2.461,2.739,2.739,0,0,0,2.175.888,4.709,4.709,0,0,0,.958-.07v-1.8H85.447V11.389h6.214Zm6.7.826V17.629h-.035a2.944,2.944,0,0,1-2.742,1.591,2.625,2.625,0,0,1-2-.756,2.808,2.808,0,0,1-.721-2.021q0-2.654,3.261-3.076l2.232-.29a.851.851,0,0,0-.4-.721,1.8,1.8,0,0,0-1.063-.281,7,7,0,0,0-3.19.861V10.5a8.535,8.535,0,0,1,1.828-.519,10.639,10.639,0,0,1,1.881-.2,4.722,4.722,0,0,1,3.327.98,4.368,4.368,0,0,1,1.033,3.274V19Zm-2.215-3.059a.83.83,0,0,0,.233.606.888.888,0,0,0,.664.237,1.18,1.18,0,0,0,.954-.439,1.7,1.7,0,0,0,.365-1.125v-.343l-1.266.176Q96.144,15.212,96.144,15.941Zm14.634.07a2.749,2.749,0,0,1-1.165,2.369,5.474,5.474,0,0,1-3.248.839,11.291,11.291,0,0,1-1.5-.123,9.257,9.257,0,0,1-1.455-.3V16.17a7.162,7.162,0,0,0,2.777.738q1.1,0,1.1-.571a.451.451,0,0,0-.255-.391,9.009,9.009,0,0,0-1.336-.514,3.773,3.773,0,0,1-1.74-1,2.382,2.382,0,0,1-.545-1.626,2.594,2.594,0,0,1,1.112-2.21,5.216,5.216,0,0,1,3.125-.813,9.931,9.931,0,0,1,2.5.343v2.522a7.549,7.549,0,0,0-1.213-.4,4.9,4.9,0,0,0-1.107-.158,1.205,1.205,0,0,0-.589.123.379.379,0,0,0-.22.343.478.478,0,0,0,.237.413,4.2,4.2,0,0,0,.949.378,4.4,4.4,0,0,1,1.978,1.037A2.272,2.272,0,0,1,110.777,16.012Zm7.717,2.865a3.648,3.648,0,0,1-.835.233,7.634,7.634,0,0,1-1.4.11,3.357,3.357,0,0,1-2.448-.861,3.269,3.269,0,0,1-.883-2.452V12.593h-1.415V10h1.415V8.233l3.691-1.02V10h1.872v2.593h-1.872v2.7q0,1.187.94,1.187a2.551,2.551,0,0,0,.932-.193Zm11.18-4.535a4.687,4.687,0,0,1-1.375,3.577,6.355,6.355,0,0,1-7.664.031,4.546,4.546,0,0,1-1.367-3.5,4.692,4.692,0,0,1,.642-2.487,4.172,4.172,0,0,1,1.828-1.617,6.311,6.311,0,0,1,2.733-.562,6.113,6.113,0,0,1,2.773.589,4.286,4.286,0,0,1,1.8,1.635A4.452,4.452,0,0,1,129.674,14.342Zm-3.8.018q0-1.837-1.406-1.837t-1.406,1.925q0,2.03,1.424,2.03Q125.877,16.478,125.877,14.359Zm12.507,1.652a2.749,2.749,0,0,1-1.165,2.369,5.474,5.474,0,0,1-3.248.839,11.291,11.291,0,0,1-1.5-.123,9.257,9.257,0,0,1-1.455-.3V16.17a7.162,7.162,0,0,0,2.777.738q1.1,0,1.1-.571a.451.451,0,0,0-.255-.391,9.009,9.009,0,0,0-1.336-.514,3.773,3.773,0,0,1-1.74-1,2.382,2.382,0,0,1-.545-1.626,2.594,2.594,0,0,1,1.112-2.21,5.216,5.216,0,0,1,3.125-.813,9.931,9.931,0,0,1,2.5.343v2.522a7.549,7.549,0,0,0-1.213-.4,4.9,4.9,0,0,0-1.107-.158,1.205,1.205,0,0,0-.589.123.379.379,0,0,0-.22.343.478.478,0,0,0,.237.413,4.2,4.2,0,0,0,.949.378,4.4,4.4,0,0,1,1.978,1.037A2.272,2.272,0,0,1,138.384,16.012Zm16.532-1.784a6.4,6.4,0,0,1-.5,2.61A4.046,4.046,0,0,1,153,18.6a3.564,3.564,0,0,1-2.057.624,2.755,2.755,0,0,1-2.4-1.151h-.035V23.14h-3.744V10h3.744v1.222h.035a3.171,3.171,0,0,1,1.16-1.059,3.364,3.364,0,0,1,1.617-.382,3.215,3.215,0,0,1,2.667,1.16A5.147,5.147,0,0,1,154.916,14.228Zm-3.8.114a2.346,2.346,0,0,0-.33-1.336,1.237,1.237,0,0,0-1.982.026,2.341,2.341,0,0,0-.369,1.4v.176a2.562,2.562,0,0,0,.316,1.362,1.044,1.044,0,0,0,.949.51,1.182,1.182,0,0,0,1.046-.558A2.849,2.849,0,0,0,151.119,14.342Zm15.214,0a4.687,4.687,0,0,1-1.375,3.577,6.355,6.355,0,0,1-7.664.031,4.546,4.546,0,0,1-1.367-3.5,4.692,4.692,0,0,1,.642-2.487,4.172,4.172,0,0,1,1.828-1.617,6.311,6.311,0,0,1,2.733-.562,6.113,6.113,0,0,1,2.773.589A4.286,4.286,0,0,1,165.7,12,4.452,4.452,0,0,1,166.333,14.342Zm-3.8.018q0-1.837-1.406-1.837t-1.406,1.925q0,2.03,1.424,2.03Q162.536,16.478,162.536,14.359ZM174.5,13.208a3.6,3.6,0,0,0-1.169-.255q-1.854,0-1.854,2.145V19H167.73V10h3.744v1.582h.035a2.81,2.81,0,0,1,.976-1.3,2.506,2.506,0,0,1,1.477-.444,1.269,1.269,0,0,1,.536.105Zm16.233,1.02a6.4,6.4,0,0,1-.5,2.61,4.046,4.046,0,0,1-1.415,1.758,3.564,3.564,0,0,1-2.057.624,2.755,2.755,0,0,1-2.4-1.151h-.035V23.14H180.58V10h3.744v1.222h.035a3.171,3.171,0,0,1,1.16-1.059,3.364,3.364,0,0,1,1.617-.382,3.215,3.215,0,0,1,2.667,1.16A5.147,5.147,0,0,1,190.731,14.228Zm-3.8.114a2.346,2.346,0,0,0-.33-1.336,1.237,1.237,0,0,0-1.982.026,2.341,2.341,0,0,0-.369,1.4v.176a2.562,2.562,0,0,0,.316,1.362,1.044,1.044,0,0,0,.949.51,1.182,1.182,0,0,0,1.046-.558A2.849,2.849,0,0,0,186.935,14.342ZM197.13,19V17.629h-.035a2.944,2.944,0,0,1-2.742,1.591,2.625,2.625,0,0,1-2-.756,2.808,2.808,0,0,1-.721-2.021q0-2.654,3.261-3.076l2.232-.29a.851.851,0,0,0-.4-.721,1.8,1.8,0,0,0-1.063-.281,7,7,0,0,0-3.19.861V10.5a8.535,8.535,0,0,1,1.828-.519,10.639,10.639,0,0,1,1.881-.2,4.722,4.722,0,0,1,3.327.98,4.368,4.368,0,0,1,1.033,3.274V19Zm-2.215-3.059a.83.83,0,0,0,.233.606.888.888,0,0,0,.664.237,1.18,1.18,0,0,0,.954-.439,1.7,1.7,0,0,0,.365-1.125v-.343l-1.266.176Q194.915,15.212,194.915,15.941Zm17.077,1.8a5.116,5.116,0,0,1-1.63,4.039,6.962,6.962,0,0,1-4.759,1.446,9.93,9.93,0,0,1-1.635-.132,4.5,4.5,0,0,1-1.134-.3V19.861a5.656,5.656,0,0,0,2.663.773,3.122,3.122,0,0,0,2.013-.606,1.959,1.959,0,0,0,.756-1.608v-.554h-.035a2.909,2.909,0,0,1-1.112.984,3.23,3.23,0,0,1-1.516.369,3.4,3.4,0,0,1-2.751-1.208,5.045,5.045,0,0,1-1.011-3.335,5.964,5.964,0,0,1,.527-2.575,4.018,4.018,0,0,1,1.468-1.718,3.769,3.769,0,0,1,2.074-.6,2.6,2.6,0,0,1,2.32,1.151h.035V10h3.727Zm-3.665-3.5a2.02,2.02,0,0,0-.356-1.257,1.13,1.13,0,0,0-.945-.466,1.163,1.163,0,0,0-1.011.563,2.656,2.656,0,0,0-.378,1.5,2.6,2.6,0,0,0,.316,1.38,1.092,1.092,0,0,0,1,.51,1.161,1.161,0,0,0,1.006-.523,2.408,2.408,0,0,0,.365-1.4ZM218.786,19V17.629h-.035a2.944,2.944,0,0,1-2.742,1.591,2.625,2.625,0,0,1-2-.756,2.808,2.808,0,0,1-.721-2.021q0-2.654,3.261-3.076l2.232-.29a.851.851,0,0,0-.4-.721,1.8,1.8,0,0,0-1.063-.281,7,7,0,0,0-3.19.861V10.5a8.535,8.535,0,0,1,1.828-.519,10.639,10.639,0,0,1,1.881-.2,4.722,4.722,0,0,1,3.327.98,4.368,4.368,0,0,1,1.033,3.274V19Zm-2.215-3.059a.83.83,0,0,0,.233.606.888.888,0,0,0,.664.237,1.18,1.18,0,0,0,.954-.439,1.7,1.7,0,0,0,.365-1.125v-.343l-1.266.176Q216.571,15.212,216.571,15.941Zm14.089-2.733a3.6,3.6,0,0,0-1.169-.255q-1.854,0-1.854,2.145V19h-3.744V10h3.744v1.582h.035a2.81,2.81,0,0,1,.976-1.3,2.506,2.506,0,0,1,1.477-.444,1.269,1.269,0,0,1,.536.105Z" transform="translate(828 4108.676)" fill="#12263f"/>
      <path id="Trazado_103340" data-name="Trazado 103340" d="M11.54,10.554a4.1,4.1,0,0,1-.655,2.294A4.267,4.267,0,0,1,9.018,14.4a6.78,6.78,0,0,1-2.821.549H5.036V19h-3.8V6.4H6.407a6.119,6.119,0,0,1,3.9,1.011A3.83,3.83,0,0,1,11.54,10.554Zm-4.017.132a1.477,1.477,0,0,0-.448-1.169,1.937,1.937,0,0,0-1.318-.4H5.036v3.111h.853Q7.523,12.232,7.523,10.686Zm11.944,2.522a3.6,3.6,0,0,0-1.169-.255q-1.854,0-1.854,2.145V19H12.7V10h3.744v1.582h.035a2.81,2.81,0,0,1,.976-1.3,2.506,2.506,0,0,1,1.477-.444,1.269,1.269,0,0,1,.536.105ZM30.56,14.342a4.687,4.687,0,0,1-1.375,3.577,5.375,5.375,0,0,1-3.845,1.3,5.4,5.4,0,0,1-3.819-1.27,4.546,4.546,0,0,1-1.367-3.5,4.692,4.692,0,0,1,.642-2.487,4.172,4.172,0,0,1,1.828-1.617,6.311,6.311,0,0,1,2.733-.562,6.113,6.113,0,0,1,2.773.589A4.286,4.286,0,0,1,29.931,12,4.452,4.452,0,0,1,30.56,14.342Zm-3.8.018q0-1.837-1.406-1.837T23.95,14.447q0,2.03,1.424,2.03Q26.763,16.478,26.763,14.359Zm15.346-.132a6.4,6.4,0,0,1-.5,2.61A4.046,4.046,0,0,1,40.192,18.6a3.564,3.564,0,0,1-2.057.624,2.755,2.755,0,0,1-2.4-1.151H35.7V23.14H31.957V10H35.7v1.222h.035a3.171,3.171,0,0,1,1.16-1.059,3.364,3.364,0,0,1,1.617-.382,3.215,3.215,0,0,1,2.667,1.16A5.147,5.147,0,0,1,42.108,14.228Zm-3.8.114a2.346,2.346,0,0,0-.33-1.336A1.237,1.237,0,0,0,36,13.032a2.341,2.341,0,0,0-.369,1.4v.176a2.562,2.562,0,0,0,.316,1.362,1.044,1.044,0,0,0,.949.51,1.182,1.182,0,0,0,1.046-.558A2.849,2.849,0,0,0,38.312,14.342Zm9.167-6.768A1.608,1.608,0,0,1,46.9,8.857a2.252,2.252,0,0,1-1.516.492,2.2,2.2,0,0,1-1.5-.51A1.612,1.612,0,0,1,43.3,7.574a1.561,1.561,0,0,1,.567-1.252,2.639,2.639,0,0,1,3.032,0A1.551,1.551,0,0,1,47.479,7.574ZM43.515,19V10h3.744v9Zm8.771-3.437a1.265,1.265,0,0,0,.668.91,3.012,3.012,0,0,0,1.512.33,6.226,6.226,0,0,0,2.479-.5v2.373a8.908,8.908,0,0,1-3.3.545,5.214,5.214,0,0,1-3.665-1.2,4.277,4.277,0,0,1-1.31-3.313,5.467,5.467,0,0,1,.576-2.558,4.142,4.142,0,0,1,1.705-1.736,5.038,5.038,0,0,1,2.492-.628,4.9,4.9,0,0,1,2.391.545,3.63,3.63,0,0,1,1.507,1.529,4.906,4.906,0,0,1,.514,2.3v1.406Zm2.25-1.96q0-1.556-1.116-1.556a.944.944,0,0,0-.782.426,2.127,2.127,0,0,0-.369,1.129ZM65.153,19V17.954h-.035a3.089,3.089,0,0,1-1.169.927,3.331,3.331,0,0,1-1.424.338,3.663,3.663,0,0,1-2.03-.567,3.443,3.443,0,0,1-1.314-1.586,6.106,6.106,0,0,1-.435-2.408,5.925,5.925,0,0,1,.519-2.54A4.059,4.059,0,0,1,60.724,10.4a3.769,3.769,0,0,1,2.109-.615,3.193,3.193,0,0,1,1.024.158,2.77,2.77,0,0,1,.817.426,1.273,1.273,0,0,1,.444.532h.035V5.676H68.9V19Zm.079-4.772a1.974,1.974,0,0,0-.356-1.257,1.2,1.2,0,0,0-1.951.11,2.593,2.593,0,0,0-.382,1.49q0,1.907,1.318,1.907a1.173,1.173,0,0,0,1-.514,2.531,2.531,0,0,0,.374-1.5ZM75.691,19V17.629h-.035a2.944,2.944,0,0,1-2.742,1.591,2.625,2.625,0,0,1-2-.756,2.808,2.808,0,0,1-.721-2.021q0-2.654,3.261-3.076l2.232-.29a.851.851,0,0,0-.4-.721,1.8,1.8,0,0,0-1.063-.281,7,7,0,0,0-3.19.861V10.5a8.535,8.535,0,0,1,1.828-.519,10.639,10.639,0,0,1,1.881-.2,4.722,4.722,0,0,1,3.327.98,4.368,4.368,0,0,1,1.033,3.274V19Zm-2.215-3.059a.83.83,0,0,0,.233.606.888.888,0,0,0,.664.237,1.18,1.18,0,0,0,.954-.439,1.7,1.7,0,0,0,.365-1.125v-.343l-1.266.176Q73.477,15.212,73.477,15.941ZM86.81,19V17.954h-.035a3.089,3.089,0,0,1-1.169.927,3.331,3.331,0,0,1-1.424.338,3.663,3.663,0,0,1-2.03-.567,3.443,3.443,0,0,1-1.314-1.586,6.106,6.106,0,0,1-.435-2.408,5.925,5.925,0,0,1,.519-2.54A4.059,4.059,0,0,1,82.38,10.4a3.769,3.769,0,0,1,2.109-.615,3.193,3.193,0,0,1,1.024.158,2.77,2.77,0,0,1,.817.426,1.273,1.273,0,0,1,.444.532h.035V5.676h3.744V19Zm.079-4.772a1.974,1.974,0,0,0-.356-1.257,1.2,1.2,0,0,0-1.951.11,2.593,2.593,0,0,0-.382,1.49q0,1.907,1.318,1.907a1.173,1.173,0,0,0,1-.514,2.531,2.531,0,0,0,.374-1.5ZM97.7,19V6.4h3.8V19Zm11.769,0V14.087a2.184,2.184,0,0,0-.25-1.2.915.915,0,0,0-.813-.365.88.88,0,0,0-.756.378,1.613,1.613,0,0,0-.272.967V19h-3.744V10h3.744v1.406h.035a3.177,3.177,0,0,1,1.2-1.2,3.29,3.29,0,0,1,1.644-.426q2.953,0,2.953,3.727V19Zm11.443,0V17.954h-.035a3.089,3.089,0,0,1-1.169.927,3.331,3.331,0,0,1-1.424.338,3.663,3.663,0,0,1-2.03-.567,3.443,3.443,0,0,1-1.314-1.586,6.106,6.106,0,0,1-.435-2.408,5.925,5.925,0,0,1,.519-2.54,4.059,4.059,0,0,1,1.459-1.723,3.769,3.769,0,0,1,2.109-.615,3.193,3.193,0,0,1,1.024.158,2.77,2.77,0,0,1,.817.426,1.273,1.273,0,0,1,.444.532h.035V5.676h3.744V19Zm.079-4.772a1.974,1.974,0,0,0-.356-1.257,1.2,1.2,0,0,0-1.951.11,2.593,2.593,0,0,0-.382,1.49q0,1.907,1.318,1.907a1.173,1.173,0,0,0,1-.514,2.531,2.531,0,0,0,.374-1.5ZM132.188,19V17.611h-.035a4.926,4.926,0,0,1-.839.94,3.23,3.23,0,0,1-.844.483,2.983,2.983,0,0,1-1.094.185,2.722,2.722,0,0,1-2.25-.958,4.429,4.429,0,0,1-.773-2.83V10H130.1v5.15q0,1.327.993,1.327a.972.972,0,0,0,.822-.36,1.642,1.642,0,0,0,.277-1.02V10h3.744v9Zm12.85-2.988a2.749,2.749,0,0,1-1.165,2.369,5.474,5.474,0,0,1-3.248.839,11.291,11.291,0,0,1-1.5-.123,9.257,9.257,0,0,1-1.455-.3V16.17a7.162,7.162,0,0,0,2.777.738q1.1,0,1.1-.571a.451.451,0,0,0-.255-.391,9.009,9.009,0,0,0-1.336-.514,3.773,3.773,0,0,1-1.74-1,2.382,2.382,0,0,1-.545-1.626,2.594,2.594,0,0,1,1.112-2.21,5.216,5.216,0,0,1,3.125-.813,9.931,9.931,0,0,1,2.5.343v2.522a7.549,7.549,0,0,0-1.213-.4,4.9,4.9,0,0,0-1.107-.158,1.205,1.205,0,0,0-.589.123.379.379,0,0,0-.22.343.478.478,0,0,0,.237.413,4.2,4.2,0,0,0,.949.378,4.4,4.4,0,0,1,1.978,1.037A2.272,2.272,0,0,1,145.037,16.012Zm7.717,2.865a3.648,3.648,0,0,1-.835.233,7.634,7.634,0,0,1-1.4.11,3.357,3.357,0,0,1-2.448-.861,3.269,3.269,0,0,1-.883-2.452V12.593h-1.415V10h1.415V8.233l3.691-1.02V10h1.872v2.593h-1.872v2.7q0,1.187.94,1.187a2.551,2.551,0,0,0,.932-.193Zm7.937-5.669a3.6,3.6,0,0,0-1.169-.255q-1.854,0-1.854,2.145V19h-3.744V10h3.744v1.582h.035a2.81,2.81,0,0,1,.976-1.3,2.506,2.506,0,0,1,1.477-.444,1.269,1.269,0,0,1,.536.105Zm5.045-5.634a1.608,1.608,0,0,1-.576,1.283,2.252,2.252,0,0,1-1.516.492,2.2,2.2,0,0,1-1.5-.51,1.612,1.612,0,0,1-.584-1.266,1.561,1.561,0,0,1,.567-1.252,2.639,2.639,0,0,1,3.032,0A1.551,1.551,0,0,1,165.735,7.574ZM161.771,19V10h3.744v9Zm10.538,0V17.629h-.035a2.944,2.944,0,0,1-2.742,1.591,2.625,2.625,0,0,1-2-.756,2.808,2.808,0,0,1-.721-2.021q0-2.654,3.261-3.076l2.232-.29a.851.851,0,0,0-.4-.721,1.8,1.8,0,0,0-1.063-.281,7,7,0,0,0-3.19.861V10.5a8.535,8.535,0,0,1,1.828-.519,10.639,10.639,0,0,1,1.881-.2,4.722,4.722,0,0,1,3.327.98,4.368,4.368,0,0,1,1.033,3.274V19Zm-2.215-3.059a.83.83,0,0,0,.233.606.888.888,0,0,0,.664.237,1.18,1.18,0,0,0,.954-.439,1.7,1.7,0,0,0,.365-1.125v-.343l-1.266.176Q170.095,15.212,170.095,15.941ZM177.416,19V5.676h3.744V19ZM11.54,37.554a4.1,4.1,0,0,1-.655,2.294A4.267,4.267,0,0,1,9.018,41.4a6.78,6.78,0,0,1-2.821.549H5.036V46h-3.8V33.4H6.407a6.119,6.119,0,0,1,3.9,1.011A3.83,3.83,0,0,1,11.54,37.554Zm-4.017.132a1.477,1.477,0,0,0-.448-1.169,1.937,1.937,0,0,0-1.318-.4H5.036v3.111h.853Q7.523,39.232,7.523,37.686ZM17.692,46V44.629h-.035a2.944,2.944,0,0,1-2.742,1.591,2.625,2.625,0,0,1-2-.756,2.808,2.808,0,0,1-.721-2.021q0-2.654,3.261-3.076l2.232-.29a.851.851,0,0,0-.4-.721,1.8,1.8,0,0,0-1.063-.281,7,7,0,0,0-3.19.861V37.5a8.535,8.535,0,0,1,1.828-.519,10.639,10.639,0,0,1,1.881-.2,4.722,4.722,0,0,1,3.327.98,4.368,4.368,0,0,1,1.033,3.274V46Zm-2.215-3.059a.83.83,0,0,0,.233.606.888.888,0,0,0,.664.237,1.18,1.18,0,0,0,.954-.439,1.7,1.7,0,0,0,.365-1.125v-.343l-1.266.176Q15.478,42.212,15.478,42.941Zm13.658,2.936a3.648,3.648,0,0,1-.835.233,7.634,7.634,0,0,1-1.4.11,3.357,3.357,0,0,1-2.448-.861,3.269,3.269,0,0,1-.883-2.452V39.593H22.157V37h1.415V35.233l3.691-1.02V37h1.872v2.593H27.264v2.7q0,1.187.94,1.187a2.551,2.551,0,0,0,.932-.193Zm4.395-3.313a1.265,1.265,0,0,0,.668.91,3.012,3.012,0,0,0,1.512.33,6.226,6.226,0,0,0,2.479-.5v2.373a8.908,8.908,0,0,1-3.3.545,5.214,5.214,0,0,1-3.665-1.2,4.277,4.277,0,0,1-1.31-3.313,5.467,5.467,0,0,1,.576-2.558,4.142,4.142,0,0,1,1.705-1.736,5.038,5.038,0,0,1,2.492-.628,4.9,4.9,0,0,1,2.391.545,3.63,3.63,0,0,1,1.507,1.529,4.906,4.906,0,0,1,.514,2.3v1.406Zm2.25-1.96q0-1.556-1.116-1.556a.944.944,0,0,0-.782.426,2.127,2.127,0,0,0-.369,1.129ZM46.222,46V41.087a2.184,2.184,0,0,0-.25-1.2.915.915,0,0,0-.813-.365.88.88,0,0,0-.756.378,1.613,1.613,0,0,0-.272.967V46H40.386V37H44.13v1.406h.035a3.177,3.177,0,0,1,1.2-1.2,3.29,3.29,0,0,1,1.644-.426q2.953,0,2.953,3.727V46Zm11.769-.123a3.648,3.648,0,0,1-.835.233,7.634,7.634,0,0,1-1.4.11,3.357,3.357,0,0,1-2.448-.861,3.269,3.269,0,0,1-.883-2.452V39.593H51.012V37h1.415V35.233l3.691-1.02V37H57.99v2.593H56.118v2.7q0,1.187.94,1.187a2.551,2.551,0,0,0,.932-.193Zm4.395-3.313a1.265,1.265,0,0,0,.668.91,3.012,3.012,0,0,0,1.512.33,6.226,6.226,0,0,0,2.479-.5v2.373a8.908,8.908,0,0,1-3.3.545,5.214,5.214,0,0,1-3.665-1.2,4.277,4.277,0,0,1-1.31-3.313,5.467,5.467,0,0,1,.576-2.558,4.142,4.142,0,0,1,1.705-1.736,5.038,5.038,0,0,1,2.492-.628,4.9,4.9,0,0,1,2.391.545,3.63,3.63,0,0,1,1.507,1.529,4.906,4.906,0,0,1,.514,2.3v1.406Zm2.25-1.96q0-1.556-1.116-1.556a.944.944,0,0,0-.782.426,2.127,2.127,0,0,0-.369,1.129Z" transform="translate(208 4111.676)" fill="#12263f"/>
      <path id="Trazado_103349" data-name="Trazado 103349" d="M1.239,19V6.4H9.088V9.367H5.036V11.2H8.842v2.971H5.036v1.854H9.378V19ZM17.763,8.4a3.3,3.3,0,0,0-1.081-.2,1.2,1.2,0,0,0-.923.321,1.22,1.22,0,0,0-.3.866V10h2.083v2.593H15.46V19H11.716V12.593H10.2V10h1.512V9.174a3.659,3.659,0,0,1,.51-1.938,3.4,3.4,0,0,1,1.481-1.305,5.423,5.423,0,0,1,2.36-.466,6.406,6.406,0,0,1,1.7.193Zm4.052,7.163a1.265,1.265,0,0,0,.668.91,3.012,3.012,0,0,0,1.512.33,6.226,6.226,0,0,0,2.479-.5v2.373a8.908,8.908,0,0,1-3.3.545,5.214,5.214,0,0,1-3.665-1.2,4.277,4.277,0,0,1-1.31-3.313,5.467,5.467,0,0,1,.576-2.558,4.142,4.142,0,0,1,1.705-1.736,5.038,5.038,0,0,1,2.492-.628,4.9,4.9,0,0,1,2.391.545,3.63,3.63,0,0,1,1.507,1.529,4.906,4.906,0,0,1,.514,2.3v1.406Zm2.25-1.96q0-1.556-1.116-1.556a.944.944,0,0,0-.782.426A2.127,2.127,0,0,0,21.8,13.6Zm12.023,5.142a3.529,3.529,0,0,1-1.134.343,10.719,10.719,0,0,1-1.784.132,5.488,5.488,0,0,1-2.544-.576,4.2,4.2,0,0,1-1.736-1.613,4.478,4.478,0,0,1-.615-2.329,5.1,5.1,0,0,1,.655-2.65A4.268,4.268,0,0,1,30.8,10.365a6.407,6.407,0,0,1,2.813-.584,9.839,9.839,0,0,1,1.578.114,2.411,2.411,0,0,1,.9.264v2.918a2.6,2.6,0,0,0-.809-.387,3.248,3.248,0,0,0-.976-.167,2.375,2.375,0,0,0-1.666.523,1.9,1.9,0,0,0-.567,1.472,1.868,1.868,0,0,0,.558,1.446,2.177,2.177,0,0,0,1.534.514,3.82,3.82,0,0,0,1.925-.5Zm7.831.132a3.648,3.648,0,0,1-.835.233,7.634,7.634,0,0,1-1.4.11,3.357,3.357,0,0,1-2.448-.861,3.269,3.269,0,0,1-.883-2.452V12.593H36.94V10h1.415V8.233l3.691-1.02V10h1.872v2.593H42.047v2.7q0,1.187.94,1.187a2.551,2.551,0,0,0,.932-.193Zm5.133-11.3a1.608,1.608,0,0,1-.576,1.283,2.252,2.252,0,0,1-1.516.492,2.2,2.2,0,0,1-1.5-.51,1.612,1.612,0,0,1-.584-1.266,1.561,1.561,0,0,1,.567-1.252,2.639,2.639,0,0,1,3.032,0A1.551,1.551,0,0,1,49.052,7.574ZM45.088,19V10h3.744v9Zm12.1,0H52.743l-3.006-9h3.9l1.1,4.913a11.366,11.366,0,0,1,.29,1.784h.053q.018-.176.048-.36T56.435,10h3.885Zm14.036-4.658a4.687,4.687,0,0,1-1.375,3.577,6.355,6.355,0,0,1-7.664.031,4.546,4.546,0,0,1-1.367-3.5,4.692,4.692,0,0,1,.642-2.487,4.172,4.172,0,0,1,1.828-1.617,6.311,6.311,0,0,1,2.733-.562,6.113,6.113,0,0,1,2.773.589A4.286,4.286,0,0,1,70.6,12,4.452,4.452,0,0,1,71.227,14.342Zm-3.8.018q0-1.837-1.406-1.837t-1.406,1.925q0,2.03,1.424,2.03Q67.43,16.478,67.43,14.359Zm11.944,8.868a7.561,7.561,0,0,1-1.134-.092,5.5,5.5,0,0,1-1.081-.268V20.046a2.245,2.245,0,0,0,.655.308,2.676,2.676,0,0,0,.822.141,1.351,1.351,0,0,0,1.389-.826l.29-.7L76.553,10h4.14l1.09,4.342a10.78,10.78,0,0,1,.343,1.635h.035q.026-.193.075-.431T83.6,10H87.24l-3.313,9.255a6.873,6.873,0,0,1-1.85,3.05A4.07,4.07,0,0,1,79.374,23.228ZM93.3,19V6.4h7.849V9.367H97.1V11.2h3.806v2.971H97.1v1.854h4.342V19Zm15.6,4.14V17.972h-.035a3.018,3.018,0,0,1-1.138.905,3.375,3.375,0,0,1-1.472.343,3.643,3.643,0,0,1-1.964-.527,3.515,3.515,0,0,1-1.323-1.534,5.8,5.8,0,0,1-.475-2.483,5.964,5.964,0,0,1,.527-2.575,4.018,4.018,0,0,1,1.468-1.718,3.769,3.769,0,0,1,2.074-.6,2.579,2.579,0,0,1,2.3,1.151h.035V10h3.744V23.14Zm.079-8.877a2.048,2.048,0,0,0-.356-1.279,1.134,1.134,0,0,0-.945-.461,1.17,1.17,0,0,0-1,.563,2.609,2.609,0,0,0-.387,1.5,2.544,2.544,0,0,0,.325,1.38,1.08,1.08,0,0,0,.976.51,1.189,1.189,0,0,0,1.02-.51,2.375,2.375,0,0,0,.369-1.415ZM120.182,19V17.611h-.035a4.926,4.926,0,0,1-.839.94,3.23,3.23,0,0,1-.844.483,2.983,2.983,0,0,1-1.094.185,2.722,2.722,0,0,1-2.25-.958,4.429,4.429,0,0,1-.773-2.83V10h3.744v5.15q0,1.327.993,1.327a.972.972,0,0,0,.822-.36,1.642,1.642,0,0,0,.277-1.02V10h3.744v9Zm9.5-11.426a1.608,1.608,0,0,1-.576,1.283,2.252,2.252,0,0,1-1.516.492,2.2,2.2,0,0,1-1.5-.51,1.612,1.612,0,0,1-.584-1.266,1.561,1.561,0,0,1,.567-1.252,2.639,2.639,0,0,1,3.032,0A1.551,1.551,0,0,1,129.683,7.574ZM125.719,19V10h3.744v9Zm12.1,0h-4.447l-3.006-9h3.9l1.1,4.913a11.366,11.366,0,0,1,.29,1.784h.053q.018-.176.048-.36T137.065,10h3.885Zm9.018,0V17.629H146.8a2.944,2.944,0,0,1-2.742,1.591,2.625,2.625,0,0,1-2-.756,2.808,2.808,0,0,1-.721-2.021q0-2.654,3.261-3.076l2.232-.29a.851.851,0,0,0-.4-.721,1.8,1.8,0,0,0-1.063-.281,7,7,0,0,0-3.19.861V10.5a8.535,8.535,0,0,1,1.828-.519,10.639,10.639,0,0,1,1.881-.2,4.722,4.722,0,0,1,3.327.98,4.368,4.368,0,0,1,1.033,3.274V19Zm-2.215-3.059a.83.83,0,0,0,.233.606.888.888,0,0,0,.664.237,1.18,1.18,0,0,0,.954-.439,1.7,1.7,0,0,0,.365-1.125v-.343l-1.266.176Q144.624,15.212,144.624,15.941ZM151.945,19V5.676h3.744V19Zm8.771-3.437a1.265,1.265,0,0,0,.668.91,3.012,3.012,0,0,0,1.512.33,6.226,6.226,0,0,0,2.479-.5v2.373a8.908,8.908,0,0,1-3.3.545,5.214,5.214,0,0,1-3.665-1.2A4.277,4.277,0,0,1,157.1,14.7a5.467,5.467,0,0,1,.576-2.558,4.142,4.142,0,0,1,1.705-1.736,5.038,5.038,0,0,1,2.492-.628,4.9,4.9,0,0,1,2.391.545,3.63,3.63,0,0,1,1.507,1.529,4.906,4.906,0,0,1,.514,2.3v1.406Zm2.25-1.96q0-1.556-1.116-1.556a.944.944,0,0,0-.782.426A2.127,2.127,0,0,0,160.7,13.6ZM173.408,19V14.087a2.184,2.184,0,0,0-.25-1.2.915.915,0,0,0-.813-.365.88.88,0,0,0-.756.378,1.613,1.613,0,0,0-.272.967V19h-3.744V10h3.744v1.406h.035a3.177,3.177,0,0,1,1.2-1.2A3.29,3.29,0,0,1,174.2,9.78q2.953,0,2.953,3.727V19Zm11.769-.123a3.648,3.648,0,0,1-.835.233,7.634,7.634,0,0,1-1.4.11,3.357,3.357,0,0,1-2.448-.861,3.269,3.269,0,0,1-.883-2.452V12.593H178.2V10h1.415V8.233l3.691-1.02V10h1.872v2.593H183.3v2.7q0,1.187.94,1.187a2.551,2.551,0,0,0,.932-.193Zm4.395-3.313a1.265,1.265,0,0,0,.668.91,3.012,3.012,0,0,0,1.512.33,6.226,6.226,0,0,0,2.479-.5v2.373a8.908,8.908,0,0,1-3.3.545,5.214,5.214,0,0,1-3.665-1.2,4.277,4.277,0,0,1-1.31-3.313,5.467,5.467,0,0,1,.576-2.558,4.142,4.142,0,0,1,1.705-1.736,5.038,5.038,0,0,1,2.492-.628,4.9,4.9,0,0,1,2.391.545,3.63,3.63,0,0,1,1.507,1.529,4.906,4.906,0,0,1,.514,2.3v1.406Zm2.25-1.96q0-1.556-1.116-1.556a.944.944,0,0,0-.782.426,2.127,2.127,0,0,0-.369,1.129Zm11.918,2.408a2.749,2.749,0,0,1-1.165,2.369,5.474,5.474,0,0,1-3.248.839,11.291,11.291,0,0,1-1.5-.123,9.257,9.257,0,0,1-1.455-.3V16.17a7.162,7.162,0,0,0,2.777.738q1.1,0,1.1-.571a.451.451,0,0,0-.255-.391,9.009,9.009,0,0,0-1.336-.514,3.773,3.773,0,0,1-1.74-1,2.382,2.382,0,0,1-.545-1.626,2.594,2.594,0,0,1,1.112-2.21,5.216,5.216,0,0,1,3.125-.813,9.931,9.931,0,0,1,2.5.343v2.522a7.549,7.549,0,0,0-1.213-.4,4.9,4.9,0,0,0-1.107-.158,1.205,1.205,0,0,0-.589.123.379.379,0,0,0-.22.343.478.478,0,0,0,.237.413,4.2,4.2,0,0,0,.949.378,4.4,4.4,0,0,1,1.978,1.037A2.272,2.272,0,0,1,203.739,16.012ZM215.112,19V17.629h-.035a2.944,2.944,0,0,1-2.742,1.591,2.625,2.625,0,0,1-2-.756,2.808,2.808,0,0,1-.721-2.021q0-2.654,3.261-3.076l2.232-.29a.851.851,0,0,0-.4-.721,1.8,1.8,0,0,0-1.063-.281,7,7,0,0,0-3.19.861V10.5a8.535,8.535,0,0,1,1.828-.519,10.639,10.639,0,0,1,1.881-.2,4.722,4.722,0,0,1,3.327.98,4.368,4.368,0,0,1,1.033,3.274V19ZM212.9,15.941a.83.83,0,0,0,.233.606.888.888,0,0,0,.664.237,1.18,1.18,0,0,0,.954-.439,1.7,1.7,0,0,0,.365-1.125v-.343l-1.266.176Q212.9,15.212,212.9,15.941ZM1.239,46V33.4H9.088v2.971H5.036V38.2H8.842v2.971H5.036v1.854H9.378V46ZM17.763,35.4a3.3,3.3,0,0,0-1.081-.2,1.2,1.2,0,0,0-.923.321,1.22,1.22,0,0,0-.3.866V37h2.083v2.593H15.46V46H11.716V39.593H10.2V37h1.512v-.826a3.659,3.659,0,0,1,.51-1.938,3.4,3.4,0,0,1,1.481-1.305,5.423,5.423,0,0,1,2.36-.466,6.406,6.406,0,0,1,1.7.193Zm4.052,7.163a1.265,1.265,0,0,0,.668.91,3.012,3.012,0,0,0,1.512.33,6.226,6.226,0,0,0,2.479-.5v2.373a8.908,8.908,0,0,1-3.3.545,5.214,5.214,0,0,1-3.665-1.2,4.277,4.277,0,0,1-1.31-3.313,5.467,5.467,0,0,1,.576-2.558,4.142,4.142,0,0,1,1.705-1.736,5.038,5.038,0,0,1,2.492-.628,4.9,4.9,0,0,1,2.391.545,3.63,3.63,0,0,1,1.507,1.529,4.906,4.906,0,0,1,.514,2.3v1.406Zm2.25-1.96q0-1.556-1.116-1.556a.944.944,0,0,0-.782.426A2.127,2.127,0,0,0,21.8,40.6Zm12.023,5.142a3.529,3.529,0,0,1-1.134.343,10.719,10.719,0,0,1-1.784.132,5.488,5.488,0,0,1-2.544-.576,4.2,4.2,0,0,1-1.736-1.613,4.478,4.478,0,0,1-.615-2.329,5.1,5.1,0,0,1,.655-2.65A4.268,4.268,0,0,1,30.8,37.365a6.407,6.407,0,0,1,2.813-.584,9.839,9.839,0,0,1,1.578.114,2.41,2.41,0,0,1,.9.264v2.918a2.6,2.6,0,0,0-.809-.387,3.248,3.248,0,0,0-.976-.167,2.375,2.375,0,0,0-1.666.523,1.9,1.9,0,0,0-.567,1.472,1.868,1.868,0,0,0,.558,1.446,2.177,2.177,0,0,0,1.534.514,3.82,3.82,0,0,0,1.925-.5Zm7.831.132a3.648,3.648,0,0,1-.835.233,7.634,7.634,0,0,1-1.4.11,3.357,3.357,0,0,1-2.448-.861,3.269,3.269,0,0,1-.883-2.452V39.593H36.94V37h1.415V35.233l3.691-1.02V37h1.872v2.593H42.047v2.7q0,1.187.94,1.187a2.551,2.551,0,0,0,.932-.193Zm5.133-11.3a1.608,1.608,0,0,1-.576,1.283,2.252,2.252,0,0,1-1.516.492,2.2,2.2,0,0,1-1.5-.51,1.612,1.612,0,0,1-.584-1.266,1.561,1.561,0,0,1,.567-1.252,2.639,2.639,0,0,1,3.032,0A1.551,1.551,0,0,1,49.052,34.574ZM45.088,46V37h3.744v9Zm12.1,0H52.743l-3.006-9h3.9l1.1,4.913a11.366,11.366,0,0,1,.29,1.784h.053q.018-.176.048-.36T56.435,37h3.885Zm14.036-4.658a4.687,4.687,0,0,1-1.375,3.577,6.355,6.355,0,0,1-7.664.031,4.546,4.546,0,0,1-1.367-3.5,4.692,4.692,0,0,1,.642-2.487,4.172,4.172,0,0,1,1.828-1.617,6.311,6.311,0,0,1,2.733-.562,6.113,6.113,0,0,1,2.773.589A4.286,4.286,0,0,1,70.6,39,4.452,4.452,0,0,1,71.227,41.342Zm-3.8.018q0-1.837-1.406-1.837t-1.406,1.925q0,2.03,1.424,2.03Q67.43,43.478,67.43,41.359Zm5.555,1.187V40.023h4.808v2.522Zm23.08-.413a3.4,3.4,0,0,1-1.3,2.861A5.968,5.968,0,0,1,91.046,46H85.3V33.4H90.65q5.019,0,5.019,3.05a2.378,2.378,0,0,1-.316,1.208,2.846,2.846,0,0,1-.962.962,4.027,4.027,0,0,1-1.419.563v.035a4,4,0,0,1,1.608.532,3.139,3.139,0,0,1,1.1,1.063A2.515,2.515,0,0,1,96.064,42.133Zm-4.43-5.027q0-1.169-1.837-1.169h-.7v2.382h1.1a1.561,1.561,0,0,0,1.037-.338A1.088,1.088,0,0,0,91.635,37.105Zm.4,5.01a1.146,1.146,0,0,0-.4-.9,1.516,1.516,0,0,0-1.046-.352H89.095v2.575H90.36a1.913,1.913,0,0,0,1.222-.356A1.173,1.173,0,0,0,92.03,42.115ZM102.384,46V44.629h-.035a2.944,2.944,0,0,1-2.742,1.591,2.625,2.625,0,0,1-2-.756,2.808,2.808,0,0,1-.721-2.021q0-2.654,3.261-3.076l2.232-.29a.851.851,0,0,0-.4-.721,1.8,1.8,0,0,0-1.063-.281,7,7,0,0,0-3.19.861V37.5a8.535,8.535,0,0,1,1.828-.519,10.639,10.639,0,0,1,1.881-.2,4.722,4.722,0,0,1,3.327.98,4.368,4.368,0,0,1,1.033,3.274V46Zm-2.215-3.059a.83.83,0,0,0,.233.606.888.888,0,0,0,.664.237,1.18,1.18,0,0,0,.954-.439,1.7,1.7,0,0,0,.365-1.125v-.343l-1.266.176Q100.169,42.212,100.169,42.941ZM113.326,46V41.087a2.184,2.184,0,0,0-.25-1.2.915.915,0,0,0-.813-.365.88.88,0,0,0-.756.378,1.613,1.613,0,0,0-.272.967V46H107.49V37h3.744v1.406h.035a3.177,3.177,0,0,1,1.2-1.2,3.29,3.29,0,0,1,1.644-.426q2.953,0,2.953,3.727V46Zm12.85-.255a3.529,3.529,0,0,1-1.134.343,10.719,10.719,0,0,1-1.784.132,5.488,5.488,0,0,1-2.544-.576,4.2,4.2,0,0,1-1.736-1.613,4.478,4.478,0,0,1-.615-2.329,5.1,5.1,0,0,1,.655-2.65,4.268,4.268,0,0,1,1.868-1.687,6.407,6.407,0,0,1,2.813-.584,9.839,9.839,0,0,1,1.578.114,2.41,2.41,0,0,1,.9.264v2.918a2.6,2.6,0,0,0-.809-.387,3.248,3.248,0,0,0-.976-.167,2.375,2.375,0,0,0-1.666.523,1.9,1.9,0,0,0-.567,1.472,1.868,1.868,0,0,0,.558,1.446,2.177,2.177,0,0,0,1.534.514,3.82,3.82,0,0,0,1.925-.5Zm11.5-4.4a4.687,4.687,0,0,1-1.375,3.577,6.355,6.355,0,0,1-7.664.031,4.546,4.546,0,0,1-1.367-3.5,4.692,4.692,0,0,1,.642-2.487,4.172,4.172,0,0,1,1.828-1.617,6.311,6.311,0,0,1,2.733-.562,6.113,6.113,0,0,1,2.773.589,4.286,4.286,0,0,1,1.8,1.635A4.452,4.452,0,0,1,137.681,41.342Zm-3.8.018q0-1.837-1.406-1.837t-1.406,1.925q0,2.03,1.424,2.03Q133.884,43.478,133.884,41.359Zm12.507,1.652a2.749,2.749,0,0,1-1.165,2.369,5.474,5.474,0,0,1-3.248.839,11.291,11.291,0,0,1-1.5-.123,9.257,9.257,0,0,1-1.455-.3V43.17a7.162,7.162,0,0,0,2.777.738q1.1,0,1.1-.571a.451.451,0,0,0-.255-.391,9.009,9.009,0,0,0-1.336-.514,3.773,3.773,0,0,1-1.74-1,2.382,2.382,0,0,1-.545-1.626,2.594,2.594,0,0,1,1.112-2.21,5.216,5.216,0,0,1,3.125-.813,9.931,9.931,0,0,1,2.5.343v2.522a7.549,7.549,0,0,0-1.213-.4,4.9,4.9,0,0,0-1.107-.158,1.205,1.205,0,0,0-.589.123.379.379,0,0,0-.22.343.478.478,0,0,0,.237.413,4.2,4.2,0,0,0,.949.378,4.4,4.4,0,0,1,1.978,1.037A2.272,2.272,0,0,1,146.391,43.012Z" transform="translate(828 4194.676)" fill="#12263f"/>
      <path id="Trazado_103342" data-name="Trazado 103342" d="M10.617,18.657A10.653,10.653,0,0,1,7,19.22a7.351,7.351,0,0,1-3.472-.769,5.265,5.265,0,0,1-2.228-2.188,6.765,6.765,0,0,1-.769-3.274A7.207,7.207,0,0,1,1.4,9.438a5.957,5.957,0,0,1,2.435-2.4,7.512,7.512,0,0,1,3.621-.848,12.586,12.586,0,0,1,3.164.4v3.507A4.465,4.465,0,0,0,9.36,9.6,6.282,6.282,0,0,0,7.884,9.42a3.305,3.305,0,0,0-2.439.888,3.245,3.245,0,0,0-.892,2.408A3.189,3.189,0,0,0,5.445,15.1a3.261,3.261,0,0,0,2.386.875,6.191,6.191,0,0,0,2.786-.7Zm11.628-4.315a4.687,4.687,0,0,1-1.375,3.577,5.375,5.375,0,0,1-3.845,1.3,5.4,5.4,0,0,1-3.819-1.27,4.546,4.546,0,0,1-1.367-3.5,4.692,4.692,0,0,1,.642-2.487,4.172,4.172,0,0,1,1.828-1.617,6.311,6.311,0,0,1,2.733-.562,6.113,6.113,0,0,1,2.773.589A4.286,4.286,0,0,1,21.617,12,4.452,4.452,0,0,1,22.245,14.342Zm-3.8.018q0-1.837-1.406-1.837t-1.406,1.925q0,2.03,1.424,2.03Q18.448,16.478,18.448,14.359Zm12.507,1.652a2.749,2.749,0,0,1-1.165,2.369,5.474,5.474,0,0,1-3.248.839,11.291,11.291,0,0,1-1.5-.123,9.257,9.257,0,0,1-1.455-.3V16.17a7.162,7.162,0,0,0,2.777.738q1.1,0,1.1-.571a.451.451,0,0,0-.255-.391,9.009,9.009,0,0,0-1.336-.514,3.773,3.773,0,0,1-1.74-1A2.382,2.382,0,0,1,23.59,12.8a2.594,2.594,0,0,1,1.112-2.21,5.216,5.216,0,0,1,3.125-.813,9.931,9.931,0,0,1,2.5.343v2.522a7.549,7.549,0,0,0-1.213-.4A4.9,4.9,0,0,0,28,12.092a1.205,1.205,0,0,0-.589.123.379.379,0,0,0-.22.343.478.478,0,0,0,.237.413,4.2,4.2,0,0,0,.949.378,4.4,4.4,0,0,1,1.978,1.037A2.272,2.272,0,0,1,30.955,16.012Zm7.717,2.865a3.648,3.648,0,0,1-.835.233,7.634,7.634,0,0,1-1.4.11,3.357,3.357,0,0,1-2.448-.861,3.269,3.269,0,0,1-.883-2.452V12.593H31.693V10h1.415V8.233L36.8,7.214V10h1.872v2.593H36.8v2.7q0,1.187.94,1.187a2.551,2.551,0,0,0,.932-.193Zm11.18-4.535a4.687,4.687,0,0,1-1.375,3.577,5.375,5.375,0,0,1-3.845,1.3,5.4,5.4,0,0,1-3.819-1.27,4.546,4.546,0,0,1-1.367-3.5,4.692,4.692,0,0,1,.642-2.487,4.172,4.172,0,0,1,1.828-1.617,6.311,6.311,0,0,1,2.733-.562,6.113,6.113,0,0,1,2.773.589A4.286,4.286,0,0,1,49.223,12,4.452,4.452,0,0,1,49.852,14.342Zm-3.8.018q0-1.837-1.406-1.837t-1.406,1.925q0,2.03,1.424,2.03Q46.055,16.478,46.055,14.359Zm12.507,1.652A2.749,2.749,0,0,1,57.4,18.38a5.474,5.474,0,0,1-3.248.839,11.291,11.291,0,0,1-1.5-.123,9.257,9.257,0,0,1-1.455-.3V16.17a7.162,7.162,0,0,0,2.777.738q1.1,0,1.1-.571a.451.451,0,0,0-.255-.391,9.009,9.009,0,0,0-1.336-.514,3.773,3.773,0,0,1-1.74-1A2.382,2.382,0,0,1,51.2,12.8a2.594,2.594,0,0,1,1.112-2.21,5.216,5.216,0,0,1,3.125-.813,9.931,9.931,0,0,1,2.5.343v2.522a7.549,7.549,0,0,0-1.213-.4,4.9,4.9,0,0,0-1.107-.158,1.205,1.205,0,0,0-.589.123.379.379,0,0,0-.22.343.478.478,0,0,0,.237.413,4.2,4.2,0,0,0,.949.378,4.4,4.4,0,0,1,1.978,1.037A2.272,2.272,0,0,1,58.562,16.012Zm8.13,7.216a7.561,7.561,0,0,1-1.134-.092,5.5,5.5,0,0,1-1.081-.268V20.046a2.245,2.245,0,0,0,.655.308,2.676,2.676,0,0,0,.822.141,1.351,1.351,0,0,0,1.389-.826l.29-.7L63.87,10h4.14l1.09,4.342a10.78,10.78,0,0,1,.343,1.635h.035q.026-.193.075-.431T70.919,10h3.639l-3.313,9.255a6.873,6.873,0,0,1-1.85,3.05A4.07,4.07,0,0,1,66.691,23.228Zm24.97-5.054a8.127,8.127,0,0,1-2.127.725,12.21,12.21,0,0,1-2.7.321,7.285,7.285,0,0,1-5.115-1.657,5.994,5.994,0,0,1-1.8-4.645,6.92,6.92,0,0,1,.91-3.56,5.9,5.9,0,0,1,2.562-2.364,8.766,8.766,0,0,1,3.894-.809,14.489,14.489,0,0,1,3.507.466V9.965a7.456,7.456,0,0,0-1.67-.549,9.275,9.275,0,0,0-1.749-.154,3.341,3.341,0,0,0-2.492.94,3.52,3.52,0,0,0-.927,2.584,3.609,3.609,0,0,0,.778,2.461,2.739,2.739,0,0,0,2.175.888,4.709,4.709,0,0,0,.958-.07v-1.8H85.447V11.389h6.214Zm6.7.826V17.629h-.035a2.944,2.944,0,0,1-2.742,1.591,2.625,2.625,0,0,1-2-.756,2.808,2.808,0,0,1-.721-2.021q0-2.654,3.261-3.076l2.232-.29a.851.851,0,0,0-.4-.721,1.8,1.8,0,0,0-1.063-.281,7,7,0,0,0-3.19.861V10.5a8.535,8.535,0,0,1,1.828-.519,10.639,10.639,0,0,1,1.881-.2,4.722,4.722,0,0,1,3.327.98,4.368,4.368,0,0,1,1.033,3.274V19Zm-2.215-3.059a.83.83,0,0,0,.233.606.888.888,0,0,0,.664.237,1.18,1.18,0,0,0,.954-.439,1.7,1.7,0,0,0,.365-1.125v-.343l-1.266.176Q96.144,15.212,96.144,15.941Zm14.634.07a2.749,2.749,0,0,1-1.165,2.369,5.474,5.474,0,0,1-3.248.839,11.291,11.291,0,0,1-1.5-.123,9.257,9.257,0,0,1-1.455-.3V16.17a7.162,7.162,0,0,0,2.777.738q1.1,0,1.1-.571a.451.451,0,0,0-.255-.391,9.009,9.009,0,0,0-1.336-.514,3.773,3.773,0,0,1-1.74-1,2.382,2.382,0,0,1-.545-1.626,2.594,2.594,0,0,1,1.112-2.21,5.216,5.216,0,0,1,3.125-.813,9.931,9.931,0,0,1,2.5.343v2.522a7.549,7.549,0,0,0-1.213-.4,4.9,4.9,0,0,0-1.107-.158,1.205,1.205,0,0,0-.589.123.379.379,0,0,0-.22.343.478.478,0,0,0,.237.413,4.2,4.2,0,0,0,.949.378,4.4,4.4,0,0,1,1.978,1.037A2.272,2.272,0,0,1,110.777,16.012Zm7.717,2.865a3.648,3.648,0,0,1-.835.233,7.634,7.634,0,0,1-1.4.11,3.357,3.357,0,0,1-2.448-.861,3.269,3.269,0,0,1-.883-2.452V12.593h-1.415V10h1.415V8.233l3.691-1.02V10h1.872v2.593h-1.872v2.7q0,1.187.94,1.187a2.551,2.551,0,0,0,.932-.193Zm11.18-4.535a4.687,4.687,0,0,1-1.375,3.577,6.355,6.355,0,0,1-7.664.031,4.546,4.546,0,0,1-1.367-3.5,4.692,4.692,0,0,1,.642-2.487,4.172,4.172,0,0,1,1.828-1.617,6.311,6.311,0,0,1,2.733-.562,6.113,6.113,0,0,1,2.773.589,4.286,4.286,0,0,1,1.8,1.635A4.452,4.452,0,0,1,129.674,14.342Zm-3.8.018q0-1.837-1.406-1.837t-1.406,1.925q0,2.03,1.424,2.03Q125.877,16.478,125.877,14.359Zm12.507,1.652a2.749,2.749,0,0,1-1.165,2.369,5.474,5.474,0,0,1-3.248.839,11.291,11.291,0,0,1-1.5-.123,9.257,9.257,0,0,1-1.455-.3V16.17a7.162,7.162,0,0,0,2.777.738q1.1,0,1.1-.571a.451.451,0,0,0-.255-.391,9.009,9.009,0,0,0-1.336-.514,3.773,3.773,0,0,1-1.74-1,2.382,2.382,0,0,1-.545-1.626,2.594,2.594,0,0,1,1.112-2.21,5.216,5.216,0,0,1,3.125-.813,9.931,9.931,0,0,1,2.5.343v2.522a7.549,7.549,0,0,0-1.213-.4,4.9,4.9,0,0,0-1.107-.158,1.205,1.205,0,0,0-.589.123.379.379,0,0,0-.22.343.478.478,0,0,0,.237.413,4.2,4.2,0,0,0,.949.378,4.4,4.4,0,0,1,1.978,1.037A2.272,2.272,0,0,1,138.384,16.012Zm16.532-1.784a6.4,6.4,0,0,1-.5,2.61A4.046,4.046,0,0,1,153,18.6a3.564,3.564,0,0,1-2.057.624,2.755,2.755,0,0,1-2.4-1.151h-.035V23.14h-3.744V10h3.744v1.222h.035a3.171,3.171,0,0,1,1.16-1.059,3.364,3.364,0,0,1,1.617-.382,3.215,3.215,0,0,1,2.667,1.16A5.147,5.147,0,0,1,154.916,14.228Zm-3.8.114a2.346,2.346,0,0,0-.33-1.336,1.237,1.237,0,0,0-1.982.026,2.341,2.341,0,0,0-.369,1.4v.176a2.562,2.562,0,0,0,.316,1.362,1.044,1.044,0,0,0,.949.51,1.182,1.182,0,0,0,1.046-.558A2.849,2.849,0,0,0,151.119,14.342Zm15.214,0a4.687,4.687,0,0,1-1.375,3.577,6.355,6.355,0,0,1-7.664.031,4.546,4.546,0,0,1-1.367-3.5,4.692,4.692,0,0,1,.642-2.487,4.172,4.172,0,0,1,1.828-1.617,6.311,6.311,0,0,1,2.733-.562,6.113,6.113,0,0,1,2.773.589A4.286,4.286,0,0,1,165.7,12,4.452,4.452,0,0,1,166.333,14.342Zm-3.8.018q0-1.837-1.406-1.837t-1.406,1.925q0,2.03,1.424,2.03Q162.536,16.478,162.536,14.359ZM174.5,13.208a3.6,3.6,0,0,0-1.169-.255q-1.854,0-1.854,2.145V19H167.73V10h3.744v1.582h.035a2.81,2.81,0,0,1,.976-1.3,2.506,2.506,0,0,1,1.477-.444,1.269,1.269,0,0,1,.536.105Zm16.233,1.02a6.4,6.4,0,0,1-.5,2.61,4.046,4.046,0,0,1-1.415,1.758,3.564,3.564,0,0,1-2.057.624,2.755,2.755,0,0,1-2.4-1.151h-.035V23.14H180.58V10h3.744v1.222h.035a3.171,3.171,0,0,1,1.16-1.059,3.364,3.364,0,0,1,1.617-.382,3.215,3.215,0,0,1,2.667,1.16A5.147,5.147,0,0,1,190.731,14.228Zm-3.8.114a2.346,2.346,0,0,0-.33-1.336,1.237,1.237,0,0,0-1.982.026,2.341,2.341,0,0,0-.369,1.4v.176a2.562,2.562,0,0,0,.316,1.362,1.044,1.044,0,0,0,.949.51,1.182,1.182,0,0,0,1.046-.558A2.849,2.849,0,0,0,186.935,14.342ZM197.13,19V17.629h-.035a2.944,2.944,0,0,1-2.742,1.591,2.625,2.625,0,0,1-2-.756,2.808,2.808,0,0,1-.721-2.021q0-2.654,3.261-3.076l2.232-.29a.851.851,0,0,0-.4-.721,1.8,1.8,0,0,0-1.063-.281,7,7,0,0,0-3.19.861V10.5a8.535,8.535,0,0,1,1.828-.519,10.639,10.639,0,0,1,1.881-.2,4.722,4.722,0,0,1,3.327.98,4.368,4.368,0,0,1,1.033,3.274V19Zm-2.215-3.059a.83.83,0,0,0,.233.606.888.888,0,0,0,.664.237,1.18,1.18,0,0,0,.954-.439,1.7,1.7,0,0,0,.365-1.125v-.343l-1.266.176Q194.915,15.212,194.915,15.941Zm17.077,1.8a5.116,5.116,0,0,1-1.63,4.039,6.962,6.962,0,0,1-4.759,1.446,9.93,9.93,0,0,1-1.635-.132,4.5,4.5,0,0,1-1.134-.3V19.861a5.656,5.656,0,0,0,2.663.773,3.122,3.122,0,0,0,2.013-.606,1.959,1.959,0,0,0,.756-1.608v-.554h-.035a2.909,2.909,0,0,1-1.112.984,3.23,3.23,0,0,1-1.516.369,3.4,3.4,0,0,1-2.751-1.208,5.045,5.045,0,0,1-1.011-3.335,5.964,5.964,0,0,1,.527-2.575,4.018,4.018,0,0,1,1.468-1.718,3.769,3.769,0,0,1,2.074-.6,2.6,2.6,0,0,1,2.32,1.151h.035V10h3.727Zm-3.665-3.5a2.02,2.02,0,0,0-.356-1.257,1.13,1.13,0,0,0-.945-.466,1.163,1.163,0,0,0-1.011.563,2.656,2.656,0,0,0-.378,1.5,2.6,2.6,0,0,0,.316,1.38,1.092,1.092,0,0,0,1,.51,1.161,1.161,0,0,0,1.006-.523,2.408,2.408,0,0,0,.365-1.4ZM218.786,19V17.629h-.035a2.944,2.944,0,0,1-2.742,1.591,2.625,2.625,0,0,1-2-.756,2.808,2.808,0,0,1-.721-2.021q0-2.654,3.261-3.076l2.232-.29a.851.851,0,0,0-.4-.721,1.8,1.8,0,0,0-1.063-.281,7,7,0,0,0-3.19.861V10.5a8.535,8.535,0,0,1,1.828-.519,10.639,10.639,0,0,1,1.881-.2,4.722,4.722,0,0,1,3.327.98,4.368,4.368,0,0,1,1.033,3.274V19Zm-2.215-3.059a.83.83,0,0,0,.233.606.888.888,0,0,0,.664.237,1.18,1.18,0,0,0,.954-.439,1.7,1.7,0,0,0,.365-1.125v-.343l-1.266.176Q216.571,15.212,216.571,15.941Zm14.089-2.733a3.6,3.6,0,0,0-1.169-.255q-1.854,0-1.854,2.145V19h-3.744V10h3.744v1.582h.035a2.81,2.81,0,0,1,.976-1.3,2.506,2.506,0,0,1,1.477-.444,1.269,1.269,0,0,1,.536.105Z" transform="translate(208 4208.676)" fill="#12263f"/>
      <path id="Trazado_103339" data-name="Trazado 103339" d="M6.641-11.2v7.4H8.078v1.172H6.641V0H5.375V-2.633H.109V-3.742q.734-.828,1.484-1.77t1.434-1.91q.684-.969,1.266-1.934a17.671,17.671,0,0,0,.98-1.848ZM1.555-3.8h3.82V-9.289Q4.789-8.266,4.266-7.461T3.27-6q-.473.656-.9,1.188T1.555-3.8ZM10.367.172a.829.829,0,0,1-.613-.258A.849.849,0,0,1,9.5-.7a.862.862,0,0,1,.254-.621.823.823,0,0,1,.613-.262.845.845,0,0,1,.625.262A.855.855,0,0,1,11.25-.7a.842.842,0,0,1-.258.617A.851.851,0,0,1,10.367.172Zm9.3-3.594a3.771,3.771,0,0,1-.281,1.484,3.245,3.245,0,0,1-.8,1.141,3.586,3.586,0,0,1-1.254.734A4.9,4.9,0,0,1,15.7.2a4.511,4.511,0,0,1-2.32-.469V-1.633A4.266,4.266,0,0,0,15.711-.9a3.161,3.161,0,0,0,1.1-.18,2.439,2.439,0,0,0,.832-.5,2.141,2.141,0,0,0,.527-.773,2.618,2.618,0,0,0,.184-.992,2.125,2.125,0,0,0-.734-1.715,3.221,3.221,0,0,0-2.133-.621q-.227,0-.477.008t-.5.02q-.25.012-.488.027t-.434.039l.383-5.617h5.18v1.156h-4.07l-.227,3.289q.25-.016.531-.027t.5-.012a5.028,5.028,0,0,1,1.594.234,3.377,3.377,0,0,1,1.191.668,2.8,2.8,0,0,1,.742,1.063A3.737,3.737,0,0,1,19.664-3.422Zm9.023-2.227a11.005,11.005,0,0,1-.254,2.492A5.807,5.807,0,0,1,27.7-1.324,3.305,3.305,0,0,1,26.52-.191,3.23,3.23,0,0,1,24.93.2a3.016,3.016,0,0,1-1.5-.371,3.152,3.152,0,0,1-1.113-1.082A5.484,5.484,0,0,1,21.625-3a10.8,10.8,0,0,1-.234-2.371,12.222,12.222,0,0,1,.246-2.594,5.933,5.933,0,0,1,.723-1.887A3.216,3.216,0,0,1,23.543-11a3.323,3.323,0,0,1,1.621-.387Q28.688-11.391,28.688-5.648Zm-1.312.125q0-4.781-2.273-4.781-2.4,0-2.4,4.867Q22.7-.9,25.055-.9,27.375-.9,27.375-5.523Zm9.938-.125a11.005,11.005,0,0,1-.254,2.492,5.807,5.807,0,0,1-.734,1.832,3.305,3.305,0,0,1-1.18,1.133A3.23,3.23,0,0,1,33.555.2a3.016,3.016,0,0,1-1.5-.371,3.152,3.152,0,0,1-1.113-1.082A5.484,5.484,0,0,1,30.25-3a10.8,10.8,0,0,1-.234-2.371,12.222,12.222,0,0,1,.246-2.594,5.933,5.933,0,0,1,.723-1.887A3.216,3.216,0,0,1,32.168-11a3.323,3.323,0,0,1,1.621-.387Q37.312-11.391,37.313-5.648ZM36-5.523Q36-10.3,33.727-10.3q-2.4,0-2.4,4.867Q31.328-.9,33.68-.9,36-.9,36-5.523Z" transform="translate(492 4026.676)" fill="#12263f"/>
      <path id="Trazado_103348" data-name="Trazado 103348" d="M7.891-10.461q-.258.445-.621,1.109T6.5-7.859q-.406.828-.828,1.781T4.883-4.109q-.367,1.016-.645,2.059A15.315,15.315,0,0,0,3.836,0H2.461a15.579,15.579,0,0,1,.434-2.043q.293-1.043.664-2.047t.785-1.934q.414-.93.8-1.711t.715-1.379q.324-.6.52-.934H.766V-11.2H7.891ZM10.367.172a.829.829,0,0,1-.613-.258A.849.849,0,0,1,9.5-.7a.862.862,0,0,1,.254-.621.823.823,0,0,1,.613-.262.845.845,0,0,1,.625.262A.855.855,0,0,1,11.25-.7a.842.842,0,0,1-.258.617A.851.851,0,0,1,10.367.172Zm9.7-5.82a11.005,11.005,0,0,1-.254,2.492,5.807,5.807,0,0,1-.734,1.832,3.305,3.305,0,0,1-1.18,1.133A3.23,3.23,0,0,1,16.3.2a3.016,3.016,0,0,1-1.5-.371,3.152,3.152,0,0,1-1.113-1.082A5.484,5.484,0,0,1,13-3a10.8,10.8,0,0,1-.234-2.371,12.222,12.222,0,0,1,.246-2.594,5.933,5.933,0,0,1,.723-1.887A3.216,3.216,0,0,1,14.918-11a3.323,3.323,0,0,1,1.621-.387Q20.063-11.391,20.063-5.648Zm-1.312.125q0-4.781-2.273-4.781-2.4,0-2.4,4.867Q14.078-.9,16.43-.9,18.75-.9,18.75-5.523Zm9.938-.125a11.005,11.005,0,0,1-.254,2.492A5.807,5.807,0,0,1,27.7-1.324,3.305,3.305,0,0,1,26.52-.191,3.23,3.23,0,0,1,24.93.2a3.016,3.016,0,0,1-1.5-.371,3.152,3.152,0,0,1-1.113-1.082A5.484,5.484,0,0,1,21.625-3a10.8,10.8,0,0,1-.234-2.371,12.222,12.222,0,0,1,.246-2.594,5.933,5.933,0,0,1,.723-1.887A3.216,3.216,0,0,1,23.543-11a3.323,3.323,0,0,1,1.621-.387Q28.688-11.391,28.688-5.648Zm-1.312.125q0-4.781-2.273-4.781-2.4,0-2.4,4.867Q22.7-.9,25.055-.9,27.375-.9,27.375-5.523Zm9.938-.125a11.005,11.005,0,0,1-.254,2.492,5.807,5.807,0,0,1-.734,1.832,3.305,3.305,0,0,1-1.18,1.133A3.23,3.23,0,0,1,33.555.2a3.016,3.016,0,0,1-1.5-.371,3.152,3.152,0,0,1-1.113-1.082A5.484,5.484,0,0,1,30.25-3a10.8,10.8,0,0,1-.234-2.371,12.222,12.222,0,0,1,.246-2.594,5.933,5.933,0,0,1,.723-1.887A3.216,3.216,0,0,1,32.168-11a3.323,3.323,0,0,1,1.621-.387Q37.312-11.391,37.313-5.648ZM36-5.523Q36-10.3,33.727-10.3q-2.4,0-2.4,4.867Q31.328-.9,33.68-.9,36-.9,36-5.523Z" transform="translate(1168 4123.676)" fill="#12263f"/>
      <path id="Trazado_103350" data-name="Trazado 103350" d="M7.891-10.461q-.258.445-.621,1.109T6.5-7.859q-.406.828-.828,1.781T4.883-4.109q-.367,1.016-.645,2.059A15.315,15.315,0,0,0,3.836,0H2.461a15.579,15.579,0,0,1,.434-2.043q.293-1.043.664-2.047t.785-1.934q.414-.93.8-1.711t.715-1.379q.324-.6.52-.934H.766V-11.2H7.891ZM10.367.172a.829.829,0,0,1-.613-.258A.849.849,0,0,1,9.5-.7a.862.862,0,0,1,.254-.621.823.823,0,0,1,.613-.262.845.845,0,0,1,.625.262A.855.855,0,0,1,11.25-.7a.842.842,0,0,1-.258.617A.851.851,0,0,1,10.367.172Zm9.7-5.82a11.005,11.005,0,0,1-.254,2.492,5.807,5.807,0,0,1-.734,1.832,3.305,3.305,0,0,1-1.18,1.133A3.23,3.23,0,0,1,16.3.2a3.016,3.016,0,0,1-1.5-.371,3.152,3.152,0,0,1-1.113-1.082A5.484,5.484,0,0,1,13-3a10.8,10.8,0,0,1-.234-2.371,12.222,12.222,0,0,1,.246-2.594,5.933,5.933,0,0,1,.723-1.887A3.216,3.216,0,0,1,14.918-11a3.323,3.323,0,0,1,1.621-.387Q20.063-11.391,20.063-5.648Zm-1.312.125q0-4.781-2.273-4.781-2.4,0-2.4,4.867Q14.078-.9,16.43-.9,18.75-.9,18.75-5.523Zm9.938-.125a11.005,11.005,0,0,1-.254,2.492A5.807,5.807,0,0,1,27.7-1.324,3.305,3.305,0,0,1,26.52-.191,3.23,3.23,0,0,1,24.93.2a3.016,3.016,0,0,1-1.5-.371,3.152,3.152,0,0,1-1.113-1.082A5.484,5.484,0,0,1,21.625-3a10.8,10.8,0,0,1-.234-2.371,12.222,12.222,0,0,1,.246-2.594,5.933,5.933,0,0,1,.723-1.887A3.216,3.216,0,0,1,23.543-11a3.323,3.323,0,0,1,1.621-.387Q28.688-11.391,28.688-5.648Zm-1.312.125q0-4.781-2.273-4.781-2.4,0-2.4,4.867Q22.7-.9,25.055-.9,27.375-.9,27.375-5.523Zm9.938-.125a11.005,11.005,0,0,1-.254,2.492,5.807,5.807,0,0,1-.734,1.832,3.305,3.305,0,0,1-1.18,1.133A3.23,3.23,0,0,1,33.555.2a3.016,3.016,0,0,1-1.5-.371,3.152,3.152,0,0,1-1.113-1.082A5.484,5.484,0,0,1,30.25-3a10.8,10.8,0,0,1-.234-2.371,12.222,12.222,0,0,1,.246-2.594,5.933,5.933,0,0,1,.723-1.887A3.216,3.216,0,0,1,32.168-11a3.323,3.323,0,0,1,1.621-.387Q37.312-11.391,37.313-5.648ZM36-5.523Q36-10.3,33.727-10.3q-2.4,0-2.4,4.867Q31.328-.9,33.68-.9,36-.9,36-5.523Z" transform="translate(1304 4234.176)" fill="#12263f"/>
      <path id="Trazado_103341" data-name="Trazado 103341" d="M6.031-8.266a2.316,2.316,0,0,0-.16-.9A1.78,1.78,0,0,0,5.434-9.8a1.793,1.793,0,0,0-.652-.379,2.555,2.555,0,0,0-.812-.125,2.688,2.688,0,0,0-.734.1,3.57,3.57,0,0,0-.7.281,4.3,4.3,0,0,0-.656.43,4.74,4.74,0,0,0-.59.555v-1.375a3.831,3.831,0,0,1,1.207-.8,4.25,4.25,0,0,1,1.629-.277,3.932,3.932,0,0,1,1.273.2,2.92,2.92,0,0,1,1.016.582,2.691,2.691,0,0,1,.676.945,3.188,3.188,0,0,1,.246,1.289,4.42,4.42,0,0,1-.152,1.2,3.721,3.721,0,0,1-.461,1.016,4.9,4.9,0,0,1-.777.914,11.011,11.011,0,0,1-1.1.891q-.789.563-1.3.961a5.75,5.75,0,0,0-.812.746,2.165,2.165,0,0,0-.422.7,2.43,2.43,0,0,0-.121.8H7.766V0H.852V-.555A4.622,4.622,0,0,1,1.008-1.82a3.286,3.286,0,0,1,.516-1.039,5.767,5.767,0,0,1,.941-.984q.582-.492,1.426-1.109a9.014,9.014,0,0,0,1.02-.836,4.346,4.346,0,0,0,.66-.8,2.862,2.862,0,0,0,.355-.809A3.486,3.486,0,0,0,6.031-8.266ZM10.367.172a.829.829,0,0,1-.613-.258A.849.849,0,0,1,9.5-.7a.862.862,0,0,1,.254-.621.823.823,0,0,1,.613-.262.845.845,0,0,1,.625.262A.855.855,0,0,1,11.25-.7a.842.842,0,0,1-.258.617A.851.851,0,0,1,10.367.172Zm9.3-3.594a3.771,3.771,0,0,1-.281,1.484,3.245,3.245,0,0,1-.8,1.141,3.586,3.586,0,0,1-1.254.734A4.9,4.9,0,0,1,15.7.2a4.511,4.511,0,0,1-2.32-.469V-1.633A4.266,4.266,0,0,0,15.711-.9a3.161,3.161,0,0,0,1.1-.18,2.439,2.439,0,0,0,.832-.5,2.141,2.141,0,0,0,.527-.773,2.618,2.618,0,0,0,.184-.992,2.125,2.125,0,0,0-.734-1.715,3.221,3.221,0,0,0-2.133-.621q-.227,0-.477.008t-.5.02q-.25.012-.488.027t-.434.039l.383-5.617h5.18v1.156h-4.07l-.227,3.289q.25-.016.531-.027t.5-.012a5.028,5.028,0,0,1,1.594.234,3.377,3.377,0,0,1,1.191.668,2.8,2.8,0,0,1,.742,1.063A3.737,3.737,0,0,1,19.664-3.422Zm9.023-2.227a11.005,11.005,0,0,1-.254,2.492A5.807,5.807,0,0,1,27.7-1.324,3.305,3.305,0,0,1,26.52-.191,3.23,3.23,0,0,1,24.93.2a3.016,3.016,0,0,1-1.5-.371,3.152,3.152,0,0,1-1.113-1.082A5.484,5.484,0,0,1,21.625-3a10.8,10.8,0,0,1-.234-2.371,12.222,12.222,0,0,1,.246-2.594,5.933,5.933,0,0,1,.723-1.887A3.216,3.216,0,0,1,23.543-11a3.323,3.323,0,0,1,1.621-.387Q28.688-11.391,28.688-5.648Zm-1.312.125q0-4.781-2.273-4.781-2.4,0-2.4,4.867Q22.7-.9,25.055-.9,27.375-.9,27.375-5.523Zm9.938-.125a11.005,11.005,0,0,1-.254,2.492,5.807,5.807,0,0,1-.734,1.832,3.305,3.305,0,0,1-1.18,1.133A3.23,3.23,0,0,1,33.555.2a3.016,3.016,0,0,1-1.5-.371,3.152,3.152,0,0,1-1.113-1.082A5.484,5.484,0,0,1,30.25-3a10.8,10.8,0,0,1-.234-2.371,12.222,12.222,0,0,1,.246-2.594,5.933,5.933,0,0,1,.723-1.887A3.216,3.216,0,0,1,32.168-11a3.323,3.323,0,0,1,1.621-.387Q37.312-11.391,37.313-5.648ZM36-5.523Q36-10.3,33.727-10.3q-2.4,0-2.4,4.867Q31.328-.9,33.68-.9,36-.9,36-5.523Z" transform="translate(492 4118.676)" fill="#12263f"/>
      <path id="Trazado_103343" data-name="Trazado 103343" d="M7.891-10.461q-.258.445-.621,1.109T6.5-7.859q-.406.828-.828,1.781T4.883-4.109q-.367,1.016-.645,2.059A15.315,15.315,0,0,0,3.836,0H2.461a15.579,15.579,0,0,1,.434-2.043q.293-1.043.664-2.047t.785-1.934q.414-.93.8-1.711t.715-1.379q.324-.6.52-.934H.766V-11.2H7.891ZM10.367.172a.829.829,0,0,1-.613-.258A.849.849,0,0,1,9.5-.7a.862.862,0,0,1,.254-.621.823.823,0,0,1,.613-.262.845.845,0,0,1,.625.262A.855.855,0,0,1,11.25-.7a.842.842,0,0,1-.258.617A.851.851,0,0,1,10.367.172Zm9.7-5.82a11.005,11.005,0,0,1-.254,2.492,5.807,5.807,0,0,1-.734,1.832,3.305,3.305,0,0,1-1.18,1.133A3.23,3.23,0,0,1,16.3.2a3.016,3.016,0,0,1-1.5-.371,3.152,3.152,0,0,1-1.113-1.082A5.484,5.484,0,0,1,13-3a10.8,10.8,0,0,1-.234-2.371,12.222,12.222,0,0,1,.246-2.594,5.933,5.933,0,0,1,.723-1.887A3.216,3.216,0,0,1,14.918-11a3.323,3.323,0,0,1,1.621-.387Q20.063-11.391,20.063-5.648Zm-1.312.125q0-4.781-2.273-4.781-2.4,0-2.4,4.867Q14.078-.9,16.43-.9,18.75-.9,18.75-5.523Zm9.938-.125a11.005,11.005,0,0,1-.254,2.492A5.807,5.807,0,0,1,27.7-1.324,3.305,3.305,0,0,1,26.52-.191,3.23,3.23,0,0,1,24.93.2a3.016,3.016,0,0,1-1.5-.371,3.152,3.152,0,0,1-1.113-1.082A5.484,5.484,0,0,1,21.625-3a10.8,10.8,0,0,1-.234-2.371,12.222,12.222,0,0,1,.246-2.594,5.933,5.933,0,0,1,.723-1.887A3.216,3.216,0,0,1,23.543-11a3.323,3.323,0,0,1,1.621-.387Q28.688-11.391,28.688-5.648Zm-1.312.125q0-4.781-2.273-4.781-2.4,0-2.4,4.867Q22.7-.9,25.055-.9,27.375-.9,27.375-5.523Zm9.938-.125a11.005,11.005,0,0,1-.254,2.492,5.807,5.807,0,0,1-.734,1.832,3.305,3.305,0,0,1-1.18,1.133A3.23,3.23,0,0,1,33.555.2a3.016,3.016,0,0,1-1.5-.371,3.152,3.152,0,0,1-1.113-1.082A5.484,5.484,0,0,1,30.25-3a10.8,10.8,0,0,1-.234-2.371,12.222,12.222,0,0,1,.246-2.594,5.933,5.933,0,0,1,.723-1.887A3.216,3.216,0,0,1,32.168-11a3.323,3.323,0,0,1,1.621-.387Q37.312-11.391,37.313-5.648ZM36-5.523Q36-10.3,33.727-10.3q-2.4,0-2.4,4.867Q31.328-.9,33.68-.9,36-.9,36-5.523Z" transform="translate(680 4223.676)" fill="#12263f"/>
      <line id="Línea_137" data-name="Línea 137" y2="291" transform="translate(472 3976.676)" fill="none" stroke="#afafaf" stroke-linecap="round" stroke-width="1"/>
      <line id="Línea_141" data-name="Línea 141" y2="194" transform="translate(1092 4073.676)" fill="none" stroke="#afafaf" stroke-linecap="round" stroke-width="1"/>
      <line id="Línea_138" data-name="Línea 138" y2="291" transform="translate(630 3976.676)" fill="none" stroke="#afafaf" stroke-linecap="round" stroke-width="1"/>
      <line id="Línea_142" data-name="Línea 142" y2="194" transform="translate(1250 4073.676)" fill="none" stroke="#afafaf" stroke-linecap="round" stroke-width="1"/>
      <path id="Trazado_99452" data-name="Trazado 99452" d="M0,0H604V60.672H0Z" transform="translate(180 3916)" fill="#d9a171"/>
      <path id="Trazado_99454" data-name="Trazado 99454" d="M0,0H604V60.672H0Z" transform="translate(800 4013)" fill="#d9a171"/>
      <path id="Trazado_103334" data-name="Trazado 103334" d="M-20.162-.343A10.653,10.653,0,0,1-23.774.22a7.351,7.351,0,0,1-3.472-.769,5.265,5.265,0,0,1-2.228-2.188,6.765,6.765,0,0,1-.769-3.274,7.207,7.207,0,0,1,.861-3.551,5.957,5.957,0,0,1,2.435-2.4,7.512,7.512,0,0,1,3.621-.848,12.586,12.586,0,0,1,3.164.4v3.507A4.465,4.465,0,0,0-21.419-9.4,6.282,6.282,0,0,0-22.9-9.58a3.305,3.305,0,0,0-2.439.888,3.245,3.245,0,0,0-.892,2.408A3.189,3.189,0,0,0-25.334-3.9a3.261,3.261,0,0,0,2.386.875,6.191,6.191,0,0,0,2.786-.7ZM-12.814,0V-1.389h-.035a4.926,4.926,0,0,1-.839.94,3.23,3.23,0,0,1-.844.483A2.983,2.983,0,0,1-15.627.22a2.722,2.722,0,0,1-2.25-.958,4.429,4.429,0,0,1-.773-2.83V-9h3.744v5.15q0,1.327.993,1.327a.972.972,0,0,0,.822-.36,1.642,1.642,0,0,0,.277-1.02V-9H-9.07V0Zm8.763-3.437a1.265,1.265,0,0,0,.668.91,3.012,3.012,0,0,0,1.512.33A6.226,6.226,0,0,0,.606-2.7V-.325A8.908,8.908,0,0,1-2.7.22a5.214,5.214,0,0,1-3.665-1.2A4.277,4.277,0,0,1-7.673-4.3,5.467,5.467,0,0,1-7.1-6.855,4.142,4.142,0,0,1-5.392-8.591,5.038,5.038,0,0,1-2.9-9.22,4.9,4.9,0,0,1-.51-8.675,3.63,3.63,0,0,1,1-7.146a4.906,4.906,0,0,1,.514,2.3v1.406ZM-1.8-5.4q0-1.556-1.116-1.556a.944.944,0,0,0-.782.426A2.127,2.127,0,0,0-4.069-5.4ZM8.64,0V-4.913a2.184,2.184,0,0,0-.25-1.2.915.915,0,0,0-.813-.365A.88.88,0,0,0,6.82-6.1a1.613,1.613,0,0,0-.272.967V0H2.8V-9H6.548v1.406h.035a3.177,3.177,0,0,1,1.2-1.2A3.29,3.29,0,0,1,9.431-9.22q2.953,0,2.953,3.727V0ZM20.408-.123a3.648,3.648,0,0,1-.835.233,7.634,7.634,0,0,1-1.4.11,3.357,3.357,0,0,1-2.448-.861,3.269,3.269,0,0,1-.883-2.452V-6.407H13.43V-9h1.415v-1.767l3.691-1.02V-9h1.872v2.593H18.536v2.7q0,1.187.94,1.187a2.551,2.551,0,0,0,.932-.193ZM26.569,0V-1.371h-.035A2.944,2.944,0,0,1,23.792.22a2.625,2.625,0,0,1-2-.756,2.808,2.808,0,0,1-.721-2.021q0-2.654,3.261-3.076l2.232-.29a.851.851,0,0,0-.4-.721,1.8,1.8,0,0,0-1.063-.281,7,7,0,0,0-3.19.861V-8.5a8.535,8.535,0,0,1,1.828-.519,10.639,10.639,0,0,1,1.881-.2,4.722,4.722,0,0,1,3.327.98,4.368,4.368,0,0,1,1.033,3.274V0ZM24.354-3.059a.83.83,0,0,0,.233.606.888.888,0,0,0,.664.237,1.18,1.18,0,0,0,.954-.439,1.7,1.7,0,0,0,.365-1.125v-.343L25.3-3.946Q24.354-3.788,24.354-3.059Z" transform="translate(288 3952.676)" fill="#fff"/>
      <path id="Trazado_103344" data-name="Trazado 103344" d="M-20.162-.343A10.653,10.653,0,0,1-23.774.22a7.351,7.351,0,0,1-3.472-.769,5.265,5.265,0,0,1-2.228-2.188,6.765,6.765,0,0,1-.769-3.274,7.207,7.207,0,0,1,.861-3.551,5.957,5.957,0,0,1,2.435-2.4,7.512,7.512,0,0,1,3.621-.848,12.586,12.586,0,0,1,3.164.4v3.507A4.465,4.465,0,0,0-21.419-9.4,6.282,6.282,0,0,0-22.9-9.58a3.305,3.305,0,0,0-2.439.888,3.245,3.245,0,0,0-.892,2.408A3.189,3.189,0,0,0-25.334-3.9a3.261,3.261,0,0,0,2.386.875,6.191,6.191,0,0,0,2.786-.7ZM-12.814,0V-1.389h-.035a4.926,4.926,0,0,1-.839.94,3.23,3.23,0,0,1-.844.483A2.983,2.983,0,0,1-15.627.22a2.722,2.722,0,0,1-2.25-.958,4.429,4.429,0,0,1-.773-2.83V-9h3.744v5.15q0,1.327.993,1.327a.972.972,0,0,0,.822-.36,1.642,1.642,0,0,0,.277-1.02V-9H-9.07V0Zm8.763-3.437a1.265,1.265,0,0,0,.668.91,3.012,3.012,0,0,0,1.512.33A6.226,6.226,0,0,0,.606-2.7V-.325A8.908,8.908,0,0,1-2.7.22a5.214,5.214,0,0,1-3.665-1.2A4.277,4.277,0,0,1-7.673-4.3,5.467,5.467,0,0,1-7.1-6.855,4.142,4.142,0,0,1-5.392-8.591,5.038,5.038,0,0,1-2.9-9.22,4.9,4.9,0,0,1-.51-8.675,3.63,3.63,0,0,1,1-7.146a4.906,4.906,0,0,1,.514,2.3v1.406ZM-1.8-5.4q0-1.556-1.116-1.556a.944.944,0,0,0-.782.426A2.127,2.127,0,0,0-4.069-5.4ZM8.64,0V-4.913a2.184,2.184,0,0,0-.25-1.2.915.915,0,0,0-.813-.365A.88.88,0,0,0,6.82-6.1a1.613,1.613,0,0,0-.272.967V0H2.8V-9H6.548v1.406h.035a3.177,3.177,0,0,1,1.2-1.2A3.29,3.29,0,0,1,9.431-9.22q2.953,0,2.953,3.727V0ZM20.408-.123a3.648,3.648,0,0,1-.835.233,7.634,7.634,0,0,1-1.4.11,3.357,3.357,0,0,1-2.448-.861,3.269,3.269,0,0,1-.883-2.452V-6.407H13.43V-9h1.415v-1.767l3.691-1.02V-9h1.872v2.593H18.536v2.7q0,1.187.94,1.187a2.551,2.551,0,0,0,.932-.193ZM26.569,0V-1.371h-.035A2.944,2.944,0,0,1,23.792.22a2.625,2.625,0,0,1-2-.756,2.808,2.808,0,0,1-.721-2.021q0-2.654,3.261-3.076l2.232-.29a.851.851,0,0,0-.4-.721,1.8,1.8,0,0,0-1.063-.281,7,7,0,0,0-3.19.861V-8.5a8.535,8.535,0,0,1,1.828-.519,10.639,10.639,0,0,1,1.881-.2,4.722,4.722,0,0,1,3.327.98,4.368,4.368,0,0,1,1.033,3.274V0ZM24.354-3.059a.83.83,0,0,0,.233.606.888.888,0,0,0,.664.237,1.18,1.18,0,0,0,.954-.439,1.7,1.7,0,0,0,.365-1.125v-.343L25.3-3.946Q24.354-3.788,24.354-3.059Z" transform="translate(908 4049.676)" fill="#fff"/>
      <path id="Trazado_103335" data-name="Trazado 103335" d="M-9.567-6.46a6.954,6.954,0,0,1-.8,3.388A5.542,5.542,0,0,1-12.669-.8a7.189,7.189,0,0,1-3.445.8H-21.45V-12.6h5.221Q-9.567-12.6-9.567-6.46Zm-4.034.035a3.627,3.627,0,0,0-.374-1.661,2.7,2.7,0,0,0-1.068-1.143,3.191,3.191,0,0,0-1.635-.4h-.976v6.662h1.063a2.736,2.736,0,0,0,2.175-.936A3.707,3.707,0,0,0-13.6-6.425Zm8.692,2.988a1.265,1.265,0,0,0,.668.91,3.012,3.012,0,0,0,1.512.33A6.226,6.226,0,0,0-.25-2.7V-.325a8.908,8.908,0,0,1-3.3.545A5.214,5.214,0,0,1-7.22-.984,4.277,4.277,0,0,1-8.53-4.3a5.467,5.467,0,0,1,.576-2.558A4.142,4.142,0,0,1-6.249-8.591,5.038,5.038,0,0,1-3.757-9.22a4.9,4.9,0,0,1,2.391.545A3.63,3.63,0,0,1,.141-7.146a4.906,4.906,0,0,1,.514,2.3v1.406Zm2.25-1.96q0-1.556-1.116-1.556a.944.944,0,0,0-.782.426A2.127,2.127,0,0,0-4.926-5.4ZM12.1-4.772a6.586,6.586,0,0,1-.488,2.615A3.975,3.975,0,0,1,10.226-.4,3.486,3.486,0,0,1,8.2.22,3.2,3.2,0,0,1,6.706-.1a2.683,2.683,0,0,1-.98-.831H5.691V0H1.947V-13.324H5.691v5.546h.035A3.083,3.083,0,0,1,6.917-8.833,3.567,3.567,0,0,1,8.574-9.22a3.157,3.157,0,0,1,2.615,1.134A5.2,5.2,0,0,1,12.1-4.772Zm-3.8.114a2.234,2.234,0,0,0-.347-1.362,1.177,1.177,0,0,0-1-.457A1.174,1.174,0,0,0,6-6a1.933,1.933,0,0,0-.382,1.244v.545a2,2,0,0,0,.343,1.23,1.094,1.094,0,0,0,.923.457,1.182,1.182,0,0,0,1.046-.558A2.849,2.849,0,0,0,8.3-4.658ZM16.73-3.437a1.265,1.265,0,0,0,.668.91,3.012,3.012,0,0,0,1.512.33,6.226,6.226,0,0,0,2.479-.5V-.325a8.908,8.908,0,0,1-3.3.545,5.214,5.214,0,0,1-3.665-1.2A4.277,4.277,0,0,1,13.109-4.3a5.467,5.467,0,0,1,.576-2.558A4.142,4.142,0,0,1,15.39-8.591a5.038,5.038,0,0,1,2.492-.628,4.9,4.9,0,0,1,2.391.545,3.63,3.63,0,0,1,1.507,1.529,4.906,4.906,0,0,1,.514,2.3v1.406ZM18.98-5.4q0-1.556-1.116-1.556a.944.944,0,0,0-.782.426A2.127,2.127,0,0,0,16.712-5.4Z" transform="translate(548 3952.676)" fill="#fff"/>
      <path id="Trazado_103345" data-name="Trazado 103345" d="M-9.567-6.46a6.954,6.954,0,0,1-.8,3.388A5.542,5.542,0,0,1-12.669-.8a7.189,7.189,0,0,1-3.445.8H-21.45V-12.6h5.221Q-9.567-12.6-9.567-6.46Zm-4.034.035a3.627,3.627,0,0,0-.374-1.661,2.7,2.7,0,0,0-1.068-1.143,3.191,3.191,0,0,0-1.635-.4h-.976v6.662h1.063a2.736,2.736,0,0,0,2.175-.936A3.707,3.707,0,0,0-13.6-6.425Zm8.692,2.988a1.265,1.265,0,0,0,.668.91,3.012,3.012,0,0,0,1.512.33A6.226,6.226,0,0,0-.25-2.7V-.325a8.908,8.908,0,0,1-3.3.545A5.214,5.214,0,0,1-7.22-.984,4.277,4.277,0,0,1-8.53-4.3a5.467,5.467,0,0,1,.576-2.558A4.142,4.142,0,0,1-6.249-8.591,5.038,5.038,0,0,1-3.757-9.22a4.9,4.9,0,0,1,2.391.545A3.63,3.63,0,0,1,.141-7.146a4.906,4.906,0,0,1,.514,2.3v1.406Zm2.25-1.96q0-1.556-1.116-1.556a.944.944,0,0,0-.782.426A2.127,2.127,0,0,0-4.926-5.4ZM12.1-4.772a6.586,6.586,0,0,1-.488,2.615A3.975,3.975,0,0,1,10.226-.4,3.486,3.486,0,0,1,8.2.22,3.2,3.2,0,0,1,6.706-.1a2.683,2.683,0,0,1-.98-.831H5.691V0H1.947V-13.324H5.691v5.546h.035A3.083,3.083,0,0,1,6.917-8.833,3.567,3.567,0,0,1,8.574-9.22a3.157,3.157,0,0,1,2.615,1.134A5.2,5.2,0,0,1,12.1-4.772Zm-3.8.114a2.234,2.234,0,0,0-.347-1.362,1.177,1.177,0,0,0-1-.457A1.174,1.174,0,0,0,6-6a1.933,1.933,0,0,0-.382,1.244v.545a2,2,0,0,0,.343,1.23,1.094,1.094,0,0,0,.923.457,1.182,1.182,0,0,0,1.046-.558A2.849,2.849,0,0,0,8.3-4.658ZM16.73-3.437a1.265,1.265,0,0,0,.668.91,3.012,3.012,0,0,0,1.512.33,6.226,6.226,0,0,0,2.479-.5V-.325a8.908,8.908,0,0,1-3.3.545,5.214,5.214,0,0,1-3.665-1.2A4.277,4.277,0,0,1,13.109-4.3a5.467,5.467,0,0,1,.576-2.558A4.142,4.142,0,0,1,15.39-8.591a5.038,5.038,0,0,1,2.492-.628,4.9,4.9,0,0,1,2.391.545,3.63,3.63,0,0,1,1.507,1.529,4.906,4.906,0,0,1,.514,2.3v1.406ZM18.98-5.4q0-1.556-1.116-1.556a.944.944,0,0,0-.782.426A2.127,2.127,0,0,0,16.712-5.4Z" transform="translate(1168 4049.676)" fill="#fff"/>
      <path id="Trazado_103336" data-name="Trazado 103336" d="M-17.618,0V-4.7h-4.359V0h-3.8V-12.6h3.8v4.667h4.359V-12.6h3.8V0ZM-6.684,0V-1.371h-.035A2.944,2.944,0,0,1-9.461.22a2.625,2.625,0,0,1-2-.756,2.808,2.808,0,0,1-.721-2.021q0-2.654,3.261-3.076l2.232-.29a.851.851,0,0,0-.4-.721,1.8,1.8,0,0,0-1.063-.281,7,7,0,0,0-3.19.861V-8.5a8.535,8.535,0,0,1,1.828-.519,10.639,10.639,0,0,1,1.881-.2A4.722,4.722,0,0,1-4.3-8.24,4.368,4.368,0,0,1-3.265-4.966V0ZM-8.9-3.059a.83.83,0,0,0,.233.606A.888.888,0,0,0-8-2.215a1.18,1.18,0,0,0,.954-.439,1.7,1.7,0,0,0,.365-1.125v-.343l-1.266.176Q-8.9-3.788-8.9-3.059ZM8.574-4.772a6.586,6.586,0,0,1-.488,2.615A3.975,3.975,0,0,1,6.7-.4a3.486,3.486,0,0,1-2.03.62A3.2,3.2,0,0,1,3.182-.1,2.683,2.683,0,0,1,2.2-.932H2.167V0H-1.578V-13.324H2.167v5.546H2.2A3.083,3.083,0,0,1,3.393-8.833,3.567,3.567,0,0,1,5.049-9.22,3.157,3.157,0,0,1,7.664-8.086,5.2,5.2,0,0,1,8.574-4.772Zm-3.8.114A2.234,2.234,0,0,0,4.43-6.021a1.177,1.177,0,0,0-1-.457A1.174,1.174,0,0,0,2.479-6,1.933,1.933,0,0,0,2.1-4.755v.545a2,2,0,0,0,.343,1.23,1.094,1.094,0,0,0,.923.457,1.182,1.182,0,0,0,1.046-.558A2.849,2.849,0,0,0,4.777-4.658Zm8.429,1.222a1.265,1.265,0,0,0,.668.91,3.012,3.012,0,0,0,1.512.33,6.226,6.226,0,0,0,2.479-.5V-.325a8.908,8.908,0,0,1-3.3.545,5.214,5.214,0,0,1-3.665-1.2A4.277,4.277,0,0,1,9.584-4.3a5.467,5.467,0,0,1,.576-2.558,4.142,4.142,0,0,1,1.705-1.736,5.038,5.038,0,0,1,2.492-.628,4.9,4.9,0,0,1,2.391.545,3.63,3.63,0,0,1,1.507,1.529,4.906,4.906,0,0,1,.514,2.3v1.406Zm2.25-1.96q0-1.556-1.116-1.556a.944.944,0,0,0-.782.426A2.127,2.127,0,0,0,13.188-5.4Zm11.373-.4a2.91,2.91,0,0,0-.571-.176,2.891,2.891,0,0,0-.6-.079q-1.854,0-1.854,2.145V0H20.061V-9h3.744v1.582h.035a2.81,2.81,0,0,1,.976-1.3,2.506,2.506,0,0,1,1.477-.444,1.269,1.269,0,0,1,.536.105Z" transform="translate(713 3952.676)" fill="#fff"/>
    </g>
    <path id="Trazado_103346" data-name="Trazado 103346" d="M-17.618,0V-4.7h-4.359V0h-3.8V-12.6h3.8v4.667h4.359V-12.6h3.8V0ZM-6.684,0V-1.371h-.035A2.944,2.944,0,0,1-9.461.22a2.625,2.625,0,0,1-2-.756,2.808,2.808,0,0,1-.721-2.021q0-2.654,3.261-3.076l2.232-.29a.851.851,0,0,0-.4-.721,1.8,1.8,0,0,0-1.063-.281,7,7,0,0,0-3.19.861V-8.5a8.535,8.535,0,0,1,1.828-.519,10.639,10.639,0,0,1,1.881-.2A4.722,4.722,0,0,1-4.3-8.24,4.368,4.368,0,0,1-3.265-4.966V0ZM-8.9-3.059a.83.83,0,0,0,.233.606A.888.888,0,0,0-8-2.215a1.18,1.18,0,0,0,.954-.439,1.7,1.7,0,0,0,.365-1.125v-.343l-1.266.176Q-8.9-3.788-8.9-3.059ZM8.574-4.772a6.586,6.586,0,0,1-.488,2.615A3.975,3.975,0,0,1,6.7-.4a3.486,3.486,0,0,1-2.03.62A3.2,3.2,0,0,1,3.182-.1,2.683,2.683,0,0,1,2.2-.932H2.167V0H-1.578V-13.324H2.167v5.546H2.2A3.083,3.083,0,0,1,3.393-8.833,3.567,3.567,0,0,1,5.049-9.22,3.157,3.157,0,0,1,7.664-8.086,5.2,5.2,0,0,1,8.574-4.772Zm-3.8.114A2.234,2.234,0,0,0,4.43-6.021a1.177,1.177,0,0,0-1-.457A1.174,1.174,0,0,0,2.479-6,1.933,1.933,0,0,0,2.1-4.755v.545a2,2,0,0,0,.343,1.23,1.094,1.094,0,0,0,.923.457,1.182,1.182,0,0,0,1.046-.558A2.849,2.849,0,0,0,4.777-4.658Zm8.429,1.222a1.265,1.265,0,0,0,.668.91,3.012,3.012,0,0,0,1.512.33,6.226,6.226,0,0,0,2.479-.5V-.325a8.908,8.908,0,0,1-3.3.545,5.214,5.214,0,0,1-3.665-1.2A4.277,4.277,0,0,1,9.584-4.3a5.467,5.467,0,0,1,.576-2.558,4.142,4.142,0,0,1,1.705-1.736,5.038,5.038,0,0,1,2.492-.628,4.9,4.9,0,0,1,2.391.545,3.63,3.63,0,0,1,1.507,1.529,4.906,4.906,0,0,1,.514,2.3v1.406Zm2.25-1.96q0-1.556-1.116-1.556a.944.944,0,0,0-.782.426A2.127,2.127,0,0,0,13.188-5.4Zm11.373-.4a2.91,2.91,0,0,0-.571-.176,2.891,2.891,0,0,0-.6-.079q-1.854,0-1.854,2.145V0H20.061V-9h3.744v1.582h.035a2.81,2.81,0,0,1,.976-1.3,2.506,2.506,0,0,1,1.477-.444,1.269,1.269,0,0,1,.536.105Z" transform="translate(1333 4441.676)" fill="#fff"/>
  </g>
</svg>
