<svg xmlns="http://www.w3.org/2000/svg" xmlns:xlink="http://www.w3.org/1999/xlink" width="1228" height="505.037" viewBox="0 0 1228 505.037">
  <defs>
    <clipPath id="clip-path">
      <rect y="-70" width="1226" height="385.601" fill="none"/>
    </clipPath>
  </defs>
  <g id="Grupo_56414" data-name="Grupo 56414" transform="translate(-180 -4437.2)">
    <path id="Trazado_103317" data-name="Trazado 103317" d="M0,0H1228V505.037H0Z" transform="translate(180 4437.2)" fill="#f3f9ff"/>
    <g id="Grupo_de_desplazamiento_1" data-name="Grupo de desplazamiento 1" transform="translate(180 4519.099)" clip-path="url(#clip-path)" style="isolation: isolate">
      <g id="Grupo_56358" data-name="Grupo 56358">
        <g id="Grupo_56413" data-name="Grupo 56413">
          <path id="Trazado_103318" data-name="Trazado 103318" d="M122.7,19l-.94-2.716a3.377,3.377,0,0,0-.708-1.257,1.292,1.292,0,0,0-.945-.457h-.149V19h-3.8V6.4H121.2a7,7,0,0,1,3.907.866,2.941,2.941,0,0,1,1.261,2.6,3.286,3.286,0,0,1-.734,2.18,4.182,4.182,0,0,1-2.184,1.274v.035a3.052,3.052,0,0,1,1.332.8,4.948,4.948,0,0,1,.954,1.644L126.979,19Zm-.36-8.6a1.32,1.32,0,0,0-.387-1,1.707,1.707,0,0,0-1.213-.369h-.782v2.883h.686a1.741,1.741,0,0,0,1.23-.431A1.41,1.41,0,0,0,122.338,10.4Zm8.982,5.168a1.265,1.265,0,0,0,.668.91,3.012,3.012,0,0,0,1.512.33,6.226,6.226,0,0,0,2.479-.5v2.373a8.908,8.908,0,0,1-3.3.545,5.214,5.214,0,0,1-3.665-1.2A4.277,4.277,0,0,1,127.7,14.7a5.467,5.467,0,0,1,.576-2.558,4.142,4.142,0,0,1,1.705-1.736,5.038,5.038,0,0,1,2.492-.628,4.9,4.9,0,0,1,2.391.545,3.63,3.63,0,0,1,1.507,1.529,4.906,4.906,0,0,1,.514,2.3v1.406Zm2.25-1.96q0-1.556-1.116-1.556a.944.944,0,0,0-.782.426A2.127,2.127,0,0,0,131.3,13.6Zm12.023,5.142a3.529,3.529,0,0,1-1.134.343,10.719,10.719,0,0,1-1.784.132,5.488,5.488,0,0,1-2.544-.576,4.2,4.2,0,0,1-1.736-1.613,4.478,4.478,0,0,1-.615-2.329,5.1,5.1,0,0,1,.655-2.65,4.268,4.268,0,0,1,1.868-1.687,6.407,6.407,0,0,1,2.813-.584,9.839,9.839,0,0,1,1.578.114,2.41,2.41,0,0,1,.9.264v2.918a2.6,2.6,0,0,0-.809-.387,3.248,3.248,0,0,0-.976-.167,2.375,2.375,0,0,0-1.666.523,1.9,1.9,0,0,0-.567,1.472,1.868,1.868,0,0,0,.558,1.446,2.177,2.177,0,0,0,1.534.514,3.82,3.82,0,0,0,1.925-.5Zm11.5-4.4a4.687,4.687,0,0,1-1.375,3.577,6.355,6.355,0,0,1-7.664.031,4.546,4.546,0,0,1-1.367-3.5,4.692,4.692,0,0,1,.642-2.487,4.172,4.172,0,0,1,1.828-1.617A6.311,6.311,0,0,1,151.9,9.78a6.113,6.113,0,0,1,2.773.589,4.286,4.286,0,0,1,1.8,1.635A4.452,4.452,0,0,1,157.1,14.342Zm-3.8.018q0-1.837-1.406-1.837t-1.406,1.925q0,2.03,1.424,2.03Q153.3,16.478,153.3,14.359ZM164.333,19V14.087a2.184,2.184,0,0,0-.25-1.2.915.915,0,0,0-.813-.365.88.88,0,0,0-.756.378,1.613,1.613,0,0,0-.272.967V19H158.5V10h3.744v1.406h.035a3.177,3.177,0,0,1,1.2-1.2,3.29,3.29,0,0,1,1.644-.426q2.953,0,2.953,3.727V19Zm15.442-4.658a4.687,4.687,0,0,1-1.375,3.577,6.355,6.355,0,0,1-7.664.031,4.546,4.546,0,0,1-1.367-3.5,4.692,4.692,0,0,1,.642-2.487,4.172,4.172,0,0,1,1.828-1.617,6.311,6.311,0,0,1,2.733-.562,6.113,6.113,0,0,1,2.773.589,4.286,4.286,0,0,1,1.8,1.635A4.452,4.452,0,0,1,179.775,14.342Zm-3.8.018q0-1.837-1.406-1.837t-1.406,1.925q0,2.03,1.424,2.03Q175.978,16.478,175.978,14.359Zm12.612,4.386a3.529,3.529,0,0,1-1.134.343,10.719,10.719,0,0,1-1.784.132,5.488,5.488,0,0,1-2.544-.576,4.2,4.2,0,0,1-1.736-1.613,4.478,4.478,0,0,1-.615-2.329,5.1,5.1,0,0,1,.655-2.65,4.268,4.268,0,0,1,1.868-1.687,6.407,6.407,0,0,1,2.813-.584,9.839,9.839,0,0,1,1.578.114,2.41,2.41,0,0,1,.9.264v2.918a2.6,2.6,0,0,0-.809-.387,3.248,3.248,0,0,0-.976-.167,2.375,2.375,0,0,0-1.666.523,1.9,1.9,0,0,0-.567,1.472,1.868,1.868,0,0,0,.558,1.446,2.177,2.177,0,0,0,1.534.514,3.82,3.82,0,0,0,1.925-.5Zm5.458-11.171a1.608,1.608,0,0,1-.576,1.283,2.252,2.252,0,0,1-1.516.492,2.2,2.2,0,0,1-1.5-.51,1.612,1.612,0,0,1-.584-1.266,1.561,1.561,0,0,1,.567-1.252,2.639,2.639,0,0,1,3.032,0A1.551,1.551,0,0,1,194.048,7.574ZM190.084,19V10h3.744v9ZM207.3,19V13.814a1.654,1.654,0,0,0-.233-.971.876.876,0,0,0-.76-.321.949.949,0,0,0-.809.391A1.79,1.79,0,0,0,205.21,14v5h-3.744V13.9q0-1.38-.94-1.38a1,1,0,0,0-.861.4,1.933,1.933,0,0,0-.29,1.147V19H195.63V10h3.744v1.424h.035a2.9,2.9,0,0,1,.672-.769,3.946,3.946,0,0,1,1.042-.633,3.235,3.235,0,0,1,1.257-.242,3.181,3.181,0,0,1,1.613.378,2.931,2.931,0,0,1,1.094,1.2,3.207,3.207,0,0,1,1.266-1.165,3.772,3.772,0,0,1,1.758-.409,2.645,2.645,0,0,1,2.171.923,4.109,4.109,0,0,1,.756,2.663V19Zm9.4-11.426a1.608,1.608,0,0,1-.576,1.283,2.252,2.252,0,0,1-1.516.492,2.2,2.2,0,0,1-1.5-.51,1.612,1.612,0,0,1-.584-1.266,1.561,1.561,0,0,1,.567-1.252,2.639,2.639,0,0,1,3.032,0A1.551,1.551,0,0,1,216.7,7.574ZM212.734,19V10h3.744v9Zm8.771-3.437a1.265,1.265,0,0,0,.668.91,3.012,3.012,0,0,0,1.512.33,6.226,6.226,0,0,0,2.479-.5v2.373a8.908,8.908,0,0,1-3.3.545,5.214,5.214,0,0,1-3.665-1.2,4.277,4.277,0,0,1-1.31-3.313,5.467,5.467,0,0,1,.576-2.558,4.142,4.142,0,0,1,1.705-1.736,5.038,5.038,0,0,1,2.492-.628,4.9,4.9,0,0,1,2.391.545,3.63,3.63,0,0,1,1.507,1.529,4.906,4.906,0,0,1,.514,2.3v1.406Zm2.25-1.96q0-1.556-1.116-1.556a.944.944,0,0,0-.782.426,2.127,2.127,0,0,0-.369,1.129ZM234.2,19V14.087a2.184,2.184,0,0,0-.25-1.2.915.915,0,0,0-.813-.365.88.88,0,0,0-.756.378,1.613,1.613,0,0,0-.272.967V19h-3.744V10H232.1v1.406h.035a3.177,3.177,0,0,1,1.2-1.2,3.29,3.29,0,0,1,1.644-.426q2.953,0,2.953,3.727V19Zm11.769-.123a3.648,3.648,0,0,1-.835.233,7.634,7.634,0,0,1-1.4.11,3.357,3.357,0,0,1-2.448-.861,3.269,3.269,0,0,1-.883-2.452V12.593h-1.415V10H240.4V8.233l3.691-1.02V10h1.872v2.593h-1.872v2.7q0,1.187.94,1.187a2.551,2.551,0,0,0,.932-.193Zm11.18-4.535a4.687,4.687,0,0,1-1.375,3.577,6.355,6.355,0,0,1-7.664.031,4.546,4.546,0,0,1-1.367-3.5,4.692,4.692,0,0,1,.642-2.487,4.172,4.172,0,0,1,1.828-1.617,6.311,6.311,0,0,1,2.733-.562,6.113,6.113,0,0,1,2.773.589,4.286,4.286,0,0,1,1.8,1.635A4.452,4.452,0,0,1,257.145,14.342Zm-3.8.018q0-1.837-1.406-1.837t-1.406,1.925q0,2.03,1.424,2.03Q253.348,16.478,253.348,14.359Zm17.613,4.386a3.529,3.529,0,0,1-1.134.343,10.719,10.719,0,0,1-1.784.132,5.488,5.488,0,0,1-2.544-.576,4.2,4.2,0,0,1-1.736-1.613,4.478,4.478,0,0,1-.615-2.329,5.1,5.1,0,0,1,.655-2.65,4.268,4.268,0,0,1,1.868-1.687,6.407,6.407,0,0,1,2.813-.584,9.839,9.839,0,0,1,1.578.114,2.41,2.41,0,0,1,.9.264v2.918a2.6,2.6,0,0,0-.809-.387,3.248,3.248,0,0,0-.976-.167,2.375,2.375,0,0,0-1.666.523,1.9,1.9,0,0,0-.567,1.472,1.868,1.868,0,0,0,.558,1.446,2.177,2.177,0,0,0,1.534.514,3.82,3.82,0,0,0,1.925-.5Zm11.5-4.4a4.687,4.687,0,0,1-1.375,3.577,6.355,6.355,0,0,1-7.664.031,4.546,4.546,0,0,1-1.367-3.5,4.692,4.692,0,0,1,.642-2.487,4.172,4.172,0,0,1,1.828-1.617,6.311,6.311,0,0,1,2.733-.562,6.113,6.113,0,0,1,2.773.589,4.286,4.286,0,0,1,1.8,1.635A4.452,4.452,0,0,1,282.466,14.342Zm-3.8.018q0-1.837-1.406-1.837t-1.406,1.925q0,2.03,1.424,2.03Q278.669,16.478,278.669,14.359ZM295.536,19V13.814a1.654,1.654,0,0,0-.233-.971.876.876,0,0,0-.76-.321.949.949,0,0,0-.809.391,1.79,1.79,0,0,0-.29,1.085v5H289.7V13.9q0-1.38-.94-1.38a1,1,0,0,0-.861.4,1.933,1.933,0,0,0-.29,1.147V19h-3.744V10h3.744v1.424h.035a2.9,2.9,0,0,1,.672-.769,3.946,3.946,0,0,1,1.042-.633,3.235,3.235,0,0,1,1.257-.242,3.181,3.181,0,0,1,1.613.378,2.931,2.931,0,0,1,1.094,1.2,3.207,3.207,0,0,1,1.266-1.165,3.772,3.772,0,0,1,1.758-.409,2.645,2.645,0,0,1,2.171.923,4.109,4.109,0,0,1,.756,2.663V19Zm15.583-4.772a6.4,6.4,0,0,1-.5,2.61A4.046,4.046,0,0,1,309.2,18.6a3.564,3.564,0,0,1-2.057.624,2.755,2.755,0,0,1-2.4-1.151h-.035V23.14h-3.744V10h3.744v1.222h.035a3.171,3.171,0,0,1,1.16-1.059,3.364,3.364,0,0,1,1.617-.382,3.215,3.215,0,0,1,2.667,1.16A5.147,5.147,0,0,1,311.119,14.228Zm-3.8.114a2.346,2.346,0,0,0-.33-1.336,1.237,1.237,0,0,0-1.982.026,2.341,2.341,0,0,0-.369,1.4v.176a2.562,2.562,0,0,0,.316,1.362,1.044,1.044,0,0,0,.949.51,1.182,1.182,0,0,0,1.046-.558A2.849,2.849,0,0,0,307.322,14.342Zm11.971-1.134a3.6,3.6,0,0,0-1.169-.255q-1.854,0-1.854,2.145V19h-3.744V10h3.744v1.582h.035a2.81,2.81,0,0,1,.976-1.3,2.506,2.506,0,0,1,1.477-.444,1.269,1.269,0,0,1,.536.105ZM325.366,19V17.629h-.035a2.944,2.944,0,0,1-2.742,1.591,2.625,2.625,0,0,1-2-.756,2.808,2.808,0,0,1-.721-2.021q0-2.654,3.261-3.076l2.232-.29a.851.851,0,0,0-.4-.721,1.8,1.8,0,0,0-1.063-.281,7,7,0,0,0-3.19.861V10.5a8.535,8.535,0,0,1,1.828-.519,10.639,10.639,0,0,1,1.881-.2,4.722,4.722,0,0,1,3.327.98,4.368,4.368,0,0,1,1.033,3.274V19Zm-2.215-3.059a.83.83,0,0,0,.233.606.888.888,0,0,0,.664.237,1.18,1.18,0,0,0,.954-.439,1.7,1.7,0,0,0,.365-1.125v-.343l-1.266.176Q323.151,15.212,323.151,15.941Zm22.474-1.714a6.4,6.4,0,0,1-.5,2.61,4.046,4.046,0,0,1-1.415,1.758,3.564,3.564,0,0,1-2.057.624,2.755,2.755,0,0,1-2.4-1.151h-.035V23.14h-3.744V10h3.744v1.222h.035a3.171,3.171,0,0,1,1.16-1.059,3.364,3.364,0,0,1,1.617-.382,3.215,3.215,0,0,1,2.667,1.16A5.147,5.147,0,0,1,345.625,14.228Zm-3.8.114a2.346,2.346,0,0,0-.33-1.336,1.237,1.237,0,0,0-1.982.026,2.341,2.341,0,0,0-.369,1.4v.176a2.562,2.562,0,0,0,.316,1.362,1.044,1.044,0,0,0,.949.51,1.182,1.182,0,0,0,1.046-.558A2.849,2.849,0,0,0,341.828,14.342Zm15.214,0a4.687,4.687,0,0,1-1.375,3.577A6.355,6.355,0,0,1,348,17.95a4.546,4.546,0,0,1-1.367-3.5,4.692,4.692,0,0,1,.642-2.487,4.172,4.172,0,0,1,1.828-1.617,6.311,6.311,0,0,1,2.733-.562,6.113,6.113,0,0,1,2.773.589,4.286,4.286,0,0,1,1.8,1.635A4.452,4.452,0,0,1,357.042,14.342Zm-3.8.018q0-1.837-1.406-1.837t-1.406,1.925q0,2.03,1.424,2.03Q353.245,16.478,353.245,14.359Zm-.94-5.783h-2.646l2.628-2.821h3.146ZM358.439,19V5.676h3.744V19Zm9.51-11.426a1.608,1.608,0,0,1-.576,1.283,2.252,2.252,0,0,1-1.516.492,2.2,2.2,0,0,1-1.5-.51,1.612,1.612,0,0,1-.584-1.266,1.561,1.561,0,0,1,.567-1.252,2.639,2.639,0,0,1,3.032,0A1.551,1.551,0,0,1,367.949,7.574ZM363.985,19V10h3.744v9Zm9.782-2.593h3.709V19h-8.622V17.269l4.043-4.676h-3.665V10H377.4v2.127ZM383.681,19V17.629h-.035A2.944,2.944,0,0,1,380.9,19.22a2.625,2.625,0,0,1-2-.756,2.808,2.808,0,0,1-.721-2.021q0-2.654,3.261-3.076l2.232-.29a.851.851,0,0,0-.4-.721,1.8,1.8,0,0,0-1.063-.281,7,7,0,0,0-3.19.861V10.5a8.535,8.535,0,0,1,1.828-.519,10.639,10.639,0,0,1,1.881-.2,4.722,4.722,0,0,1,3.327.98,4.368,4.368,0,0,1,1.033,3.274V19Zm-2.215-3.059a.83.83,0,0,0,.233.606.888.888,0,0,0,.664.237,1.18,1.18,0,0,0,.954-.439,1.7,1.7,0,0,0,.365-1.125v-.343l-1.266.176Q381.466,15.212,381.466,15.941ZM399.8,19V17.954h-.035a3.089,3.089,0,0,1-1.169.927,3.331,3.331,0,0,1-1.424.338,3.663,3.663,0,0,1-2.03-.567,3.443,3.443,0,0,1-1.314-1.586,6.106,6.106,0,0,1-.435-2.408,5.925,5.925,0,0,1,.519-2.54,4.059,4.059,0,0,1,1.459-1.723,3.769,3.769,0,0,1,2.109-.615,3.193,3.193,0,0,1,1.024.158,2.77,2.77,0,0,1,.817.426,1.273,1.273,0,0,1,.444.532h.035V5.676h3.744V19Zm.079-4.772a1.974,1.974,0,0,0-.356-1.257,1.2,1.2,0,0,0-1.951.11,2.593,2.593,0,0,0-.382,1.49q0,1.907,1.318,1.907a1.173,1.173,0,0,0,1-.514,2.531,2.531,0,0,0,.374-1.5Zm8.692,1.336a1.265,1.265,0,0,0,.668.91,3.012,3.012,0,0,0,1.512.33,6.226,6.226,0,0,0,2.479-.5v2.373a8.908,8.908,0,0,1-3.3.545,5.214,5.214,0,0,1-3.665-1.2,4.277,4.277,0,0,1-1.31-3.313,5.467,5.467,0,0,1,.576-2.558,4.142,4.142,0,0,1,1.705-1.736,5.038,5.038,0,0,1,2.492-.628,4.9,4.9,0,0,1,2.391.545,3.63,3.63,0,0,1,1.507,1.529,4.906,4.906,0,0,1,.514,2.3v1.406Zm2.25-1.96q0-1.556-1.116-1.556a.944.944,0,0,0-.782.426,2.127,2.127,0,0,0-.369,1.129Zm16.919,2.408a2.749,2.749,0,0,1-1.165,2.369,5.474,5.474,0,0,1-3.248.839,11.291,11.291,0,0,1-1.5-.123,9.257,9.257,0,0,1-1.455-.3V16.17a7.162,7.162,0,0,0,2.777.738q1.1,0,1.1-.571a.451.451,0,0,0-.255-.391,9.009,9.009,0,0,0-1.336-.514,3.773,3.773,0,0,1-1.74-1,2.382,2.382,0,0,1-.545-1.626,2.594,2.594,0,0,1,1.112-2.21,5.216,5.216,0,0,1,3.125-.813,9.931,9.931,0,0,1,2.5.343v2.522a7.549,7.549,0,0,0-1.213-.4,4.9,4.9,0,0,0-1.107-.158,1.205,1.205,0,0,0-.589.123.379.379,0,0,0-.22.343.478.478,0,0,0,.237.413,4.2,4.2,0,0,0,.949.378,4.4,4.4,0,0,1,1.978,1.037A2.272,2.272,0,0,1,427.741,16.012Zm4.605-.448a1.265,1.265,0,0,0,.668.91,3.012,3.012,0,0,0,1.512.33A6.226,6.226,0,0,0,437,16.3v2.373a8.908,8.908,0,0,1-3.3.545,5.214,5.214,0,0,1-3.665-1.2,4.277,4.277,0,0,1-1.31-3.313,5.467,5.467,0,0,1,.576-2.558,4.142,4.142,0,0,1,1.705-1.736A5.038,5.038,0,0,1,433.5,9.78a4.9,4.9,0,0,1,2.391.545,3.63,3.63,0,0,1,1.507,1.529,4.906,4.906,0,0,1,.514,2.3v1.406Zm2.25-1.96q0-1.556-1.116-1.556a.944.944,0,0,0-.782.426,2.127,2.127,0,0,0-.369,1.129Zm14.361,4.14a5.116,5.116,0,0,1-1.63,4.039,6.962,6.962,0,0,1-4.759,1.446,9.93,9.93,0,0,1-1.635-.132,4.5,4.5,0,0,1-1.134-.3V19.861a5.656,5.656,0,0,0,2.663.773,3.122,3.122,0,0,0,2.013-.606,1.959,1.959,0,0,0,.756-1.608v-.554H445.2a2.909,2.909,0,0,1-1.112.984,3.23,3.23,0,0,1-1.516.369,3.4,3.4,0,0,1-2.751-1.208,5.045,5.045,0,0,1-1.011-3.335,5.964,5.964,0,0,1,.527-2.575,4.018,4.018,0,0,1,1.468-1.718,3.769,3.769,0,0,1,2.074-.6,2.6,2.6,0,0,1,2.32,1.151h.035V10h3.727Zm-3.665-3.5a2.02,2.02,0,0,0-.356-1.257,1.13,1.13,0,0,0-.945-.466,1.163,1.163,0,0,0-1.011.563,2.656,2.656,0,0,0-.378,1.5,2.6,2.6,0,0,0,.316,1.38,1.092,1.092,0,0,0,1,.51,1.161,1.161,0,0,0,1.006-.523,2.408,2.408,0,0,0,.365-1.4ZM456.49,19V17.611h-.035a4.926,4.926,0,0,1-.839.94,3.23,3.23,0,0,1-.844.483,2.983,2.983,0,0,1-1.094.185,2.722,2.722,0,0,1-2.25-.958,4.429,4.429,0,0,1-.773-2.83V10H454.4v5.15q0,1.327.993,1.327a.972.972,0,0,0,.822-.36,1.642,1.642,0,0,0,.277-1.02V10h3.744v9Zm12.3-5.792a3.6,3.6,0,0,0-1.169-.255q-1.854,0-1.854,2.145V19h-3.744V10h3.744v1.582h.035a2.81,2.81,0,0,1,.976-1.3,2.506,2.506,0,0,1,1.477-.444,1.269,1.269,0,0,1,.536.105Zm11.092,1.134a4.687,4.687,0,0,1-1.375,3.577,6.355,6.355,0,0,1-7.664.031,4.546,4.546,0,0,1-1.367-3.5,4.692,4.692,0,0,1,.642-2.487,4.172,4.172,0,0,1,1.828-1.617,6.311,6.311,0,0,1,2.733-.562,6.113,6.113,0,0,1,2.773.589,4.286,4.286,0,0,1,1.8,1.635A4.452,4.452,0,0,1,479.886,14.342Zm-3.8.018q0-1.837-1.406-1.837t-1.406,1.925q0,2.03,1.424,2.03Q476.089,16.478,476.089,14.359ZM488.6,16.012a2.749,2.749,0,0,1-1.165,2.369,5.474,5.474,0,0,1-3.248.839,11.291,11.291,0,0,1-1.5-.123,9.257,9.257,0,0,1-1.455-.3V16.17a7.162,7.162,0,0,0,2.777.738q1.1,0,1.1-.571a.451.451,0,0,0-.255-.391,9.009,9.009,0,0,0-1.336-.514,3.773,3.773,0,0,1-1.74-1,2.382,2.382,0,0,1-.545-1.626,2.594,2.594,0,0,1,1.112-2.21,5.216,5.216,0,0,1,3.125-.813,9.931,9.931,0,0,1,2.5.343v2.522a7.549,7.549,0,0,0-1.213-.4,4.9,4.9,0,0,0-1.107-.158,1.205,1.205,0,0,0-.589.123.379.379,0,0,0-.22.343.478.478,0,0,0,.237.413,4.2,4.2,0,0,0,.949.378A4.4,4.4,0,0,1,488,14.386,2.272,2.272,0,0,1,488.6,16.012Z" transform="translate(0 -5.676)" fill="#12263f"/>
          <path id="Trazado_103319" data-name="Trazado 103319" d="M230.606,19V12.092q0-.976.062-2.145l.026-.58h-.105q-.281,1.485-.431,2.057L228.3,19h-3.568l-1.942-7.488q-.079-.281-.413-2.145h-.105q.123,2.953.123,3.691V19h-3.331V6.4h5.687l1.731,6.847a8.451,8.451,0,0,1,.163.857q.1.646.127,1h.053q.1-.8.308-1.89L228.752,6.4h5.6V19ZM246.5,14.342a4.687,4.687,0,0,1-1.375,3.577,6.355,6.355,0,0,1-7.664.031,4.546,4.546,0,0,1-1.367-3.5,4.692,4.692,0,0,1,.642-2.487,4.172,4.172,0,0,1,1.828-1.617,6.311,6.311,0,0,1,2.733-.562,6.113,6.113,0,0,1,2.773.589,4.286,4.286,0,0,1,1.8,1.635A4.452,4.452,0,0,1,246.5,14.342Zm-3.8.018q0-1.837-1.406-1.837t-1.406,1.925q0,2.03,1.424,2.03Q242.7,16.478,242.7,14.359ZM259.566,19V13.814a1.654,1.654,0,0,0-.233-.971.876.876,0,0,0-.76-.321.949.949,0,0,0-.809.391,1.79,1.79,0,0,0-.29,1.085v5H253.73V13.9q0-1.38-.94-1.38a1,1,0,0,0-.861.4,1.933,1.933,0,0,0-.29,1.147V19h-3.744V10h3.744v1.424h.035a2.9,2.9,0,0,1,.672-.769,3.946,3.946,0,0,1,1.042-.633,3.235,3.235,0,0,1,1.257-.242,3.181,3.181,0,0,1,1.613.378,2.931,2.931,0,0,1,1.094,1.2,3.207,3.207,0,0,1,1.266-1.165,3.772,3.772,0,0,1,1.758-.409,2.645,2.645,0,0,1,2.171.923,4.109,4.109,0,0,1,.756,2.663V19Zm8.657-3.437a1.265,1.265,0,0,0,.668.91,3.012,3.012,0,0,0,1.512.33,6.226,6.226,0,0,0,2.479-.5v2.373a8.908,8.908,0,0,1-3.3.545,5.214,5.214,0,0,1-3.665-1.2A4.277,4.277,0,0,1,264.6,14.7a5.467,5.467,0,0,1,.576-2.558,4.142,4.142,0,0,1,1.705-1.736,5.038,5.038,0,0,1,2.492-.628,4.9,4.9,0,0,1,2.391.545,3.63,3.63,0,0,1,1.507,1.529,4.906,4.906,0,0,1,.514,2.3v1.406Zm2.25-1.96q0-1.556-1.116-1.556a.944.944,0,0,0-.782.426,2.127,2.127,0,0,0-.369,1.129ZM280.915,19V14.087a2.184,2.184,0,0,0-.25-1.2.915.915,0,0,0-.813-.365.88.88,0,0,0-.756.378,1.613,1.613,0,0,0-.272.967V19h-3.744V10h3.744v1.406h.035a3.177,3.177,0,0,1,1.2-1.2,3.29,3.29,0,0,1,1.644-.426q2.953,0,2.953,3.727V19Zm11.769-.123a3.648,3.648,0,0,1-.835.233,7.634,7.634,0,0,1-1.4.11A3.357,3.357,0,0,1,288,18.358a3.269,3.269,0,0,1-.883-2.452V12.593h-1.415V10h1.415V8.233l3.691-1.02V10h1.872v2.593h-1.872v2.7q0,1.187.94,1.187a2.551,2.551,0,0,0,.932-.193Zm11.18-4.535a4.687,4.687,0,0,1-1.375,3.577,6.355,6.355,0,0,1-7.664.031,4.546,4.546,0,0,1-1.367-3.5,4.692,4.692,0,0,1,.642-2.487,4.172,4.172,0,0,1,1.828-1.617,6.311,6.311,0,0,1,2.733-.562,6.113,6.113,0,0,1,2.773.589,4.286,4.286,0,0,1,1.8,1.635A4.452,4.452,0,0,1,303.863,14.342Zm-3.8.018q0-1.837-1.406-1.837t-1.406,1.925q0,2.03,1.424,2.03Q300.066,16.478,300.066,14.359ZM316.273,19V17.954h-.035a3.089,3.089,0,0,1-1.169.927,3.331,3.331,0,0,1-1.424.338,3.663,3.663,0,0,1-2.03-.567,3.443,3.443,0,0,1-1.314-1.586,6.106,6.106,0,0,1-.435-2.408,5.925,5.925,0,0,1,.519-2.54,4.059,4.059,0,0,1,1.459-1.723,3.769,3.769,0,0,1,2.109-.615,3.193,3.193,0,0,1,1.024.158,2.77,2.77,0,0,1,.817.426,1.273,1.273,0,0,1,.444.532h.035V5.676h3.744V19Zm.079-4.772A1.974,1.974,0,0,0,316,12.971a1.2,1.2,0,0,0-1.951.11,2.593,2.593,0,0,0-.382,1.49q0,1.907,1.318,1.907a1.173,1.173,0,0,0,1-.514,2.531,2.531,0,0,0,.374-1.5Zm8.692,1.336a1.265,1.265,0,0,0,.668.91,3.012,3.012,0,0,0,1.512.33,6.226,6.226,0,0,0,2.479-.5v2.373a8.908,8.908,0,0,1-3.3.545,5.214,5.214,0,0,1-3.665-1.2,4.277,4.277,0,0,1-1.31-3.313A5.467,5.467,0,0,1,322,12.145a4.142,4.142,0,0,1,1.705-1.736A5.038,5.038,0,0,1,326.2,9.78a4.9,4.9,0,0,1,2.391.545,3.63,3.63,0,0,1,1.507,1.529,4.906,4.906,0,0,1,.514,2.3v1.406Zm2.25-1.96q0-1.556-1.116-1.556a.944.944,0,0,0-.782.426,2.127,2.127,0,0,0-.369,1.129ZM331.9,19V5.676h3.744V19Zm20.7-4.772a6.4,6.4,0,0,1-.5,2.61,4.046,4.046,0,0,1-1.415,1.758,3.564,3.564,0,0,1-2.057.624,2.755,2.755,0,0,1-2.4-1.151h-.035V23.14h-3.744V10h3.744v1.222h.035a3.171,3.171,0,0,1,1.16-1.059A3.364,3.364,0,0,1,349,9.78a3.215,3.215,0,0,1,2.667,1.16A5.147,5.147,0,0,1,352.6,14.228Zm-3.8.114a2.346,2.346,0,0,0-.33-1.336,1.237,1.237,0,0,0-1.982.026,2.341,2.341,0,0,0-.369,1.4v.176a2.562,2.562,0,0,0,.316,1.362,1.044,1.044,0,0,0,.949.51,1.182,1.182,0,0,0,1.046-.558A2.849,2.849,0,0,0,348.8,14.342ZM359,19V17.629h-.035a2.944,2.944,0,0,1-2.742,1.591,2.625,2.625,0,0,1-2-.756,2.808,2.808,0,0,1-.721-2.021q0-2.654,3.261-3.076l2.232-.29a.851.851,0,0,0-.4-.721,1.8,1.8,0,0,0-1.063-.281,7,7,0,0,0-3.19.861V10.5a8.535,8.535,0,0,1,1.828-.519,10.639,10.639,0,0,1,1.881-.2,4.722,4.722,0,0,1,3.327.98,4.368,4.368,0,0,1,1.033,3.274V19Zm-2.215-3.059a.83.83,0,0,0,.233.606.888.888,0,0,0,.664.237,1.18,1.18,0,0,0,.954-.439A1.7,1.7,0,0,0,359,15.221v-.343l-1.266.176Q356.782,15.212,356.782,15.941Zm17.077,1.8a5.116,5.116,0,0,1-1.63,4.039,6.962,6.962,0,0,1-4.759,1.446,9.93,9.93,0,0,1-1.635-.132,4.5,4.5,0,0,1-1.134-.3V19.861a5.656,5.656,0,0,0,2.663.773,3.122,3.122,0,0,0,2.013-.606,1.959,1.959,0,0,0,.756-1.608v-.554H370.1a2.909,2.909,0,0,1-1.112.984,3.23,3.23,0,0,1-1.516.369,3.4,3.4,0,0,1-2.751-1.208,5.045,5.045,0,0,1-1.011-3.335,5.964,5.964,0,0,1,.527-2.575,4.018,4.018,0,0,1,1.468-1.718,3.769,3.769,0,0,1,2.074-.6,2.6,2.6,0,0,1,2.32,1.151h.035V10h3.727Zm-3.665-3.5a2.02,2.02,0,0,0-.356-1.257,1.13,1.13,0,0,0-.945-.466,1.163,1.163,0,0,0-1.011.563,2.656,2.656,0,0,0-.378,1.5,2.6,2.6,0,0,0,.316,1.38,1.092,1.092,0,0,0,1,.51,1.161,1.161,0,0,0,1.006-.523,2.408,2.408,0,0,0,.365-1.4Zm15.478.1a4.687,4.687,0,0,1-1.375,3.577,6.355,6.355,0,0,1-7.664.031,4.546,4.546,0,0,1-1.367-3.5,4.692,4.692,0,0,1,.642-2.487,4.172,4.172,0,0,1,1.828-1.617,6.311,6.311,0,0,1,2.733-.562,6.113,6.113,0,0,1,2.773.589,4.286,4.286,0,0,1,1.8,1.635A4.452,4.452,0,0,1,385.672,14.342Zm-3.8.018q0-1.837-1.406-1.837t-1.406,1.925q0,2.03,1.424,2.03Q381.875,16.478,381.875,14.359Z" transform="translate(622 -5.676)" fill="#12263f"/>
          <rect id="Rectángulo_5072" data-name="Rectángulo 5072" width="604" height="97" transform="translate(0 126.776)" fill="#f6f6f6"/>
          <rect id="Rectángulo_5083" data-name="Rectángulo 5083" width="604" height="97" transform="translate(622 126.776)" fill="#f6f6f6"/>
          <rect id="Rectángulo_5071" data-name="Rectángulo 5071" width="604" height="97" transform="translate(0 234.693)" fill="#fff"/>
          <rect id="Rectángulo_5082" data-name="Rectángulo 5082" width="604" height="97" transform="translate(622 234.693)" fill="#fff"/>
          <path id="Trazado_103326" data-name="Trazado 103326" d="M9.141,19l-.554-2.32H4.825L4.228,19H.123L4.465,6.4H9.176L13.263,19ZM6.75,9.139H6.662a6.123,6.123,0,0,1-.123.694q-.105.483-1.063,4.148H7.884L7,10.554A10.84,10.84,0,0,1,6.75,9.139Zm15.064,9.606a3.529,3.529,0,0,1-1.134.343,10.719,10.719,0,0,1-1.784.132,5.488,5.488,0,0,1-2.544-.576,4.2,4.2,0,0,1-1.736-1.613A4.478,4.478,0,0,1,14,14.7a5.1,5.1,0,0,1,.655-2.65,4.268,4.268,0,0,1,1.868-1.687,6.407,6.407,0,0,1,2.813-.584,9.839,9.839,0,0,1,1.578.114,2.41,2.41,0,0,1,.9.264v2.918a2.6,2.6,0,0,0-.809-.387,3.248,3.248,0,0,0-.976-.167,2.375,2.375,0,0,0-1.666.523,1.9,1.9,0,0,0-.567,1.472,1.868,1.868,0,0,0,.558,1.446,2.177,2.177,0,0,0,1.534.514,3.82,3.82,0,0,0,1.925-.5Zm7.831.132a3.648,3.648,0,0,1-.835.233,7.634,7.634,0,0,1-1.4.11,3.357,3.357,0,0,1-2.448-.861,3.269,3.269,0,0,1-.883-2.452V12.593H22.667V10h1.415V8.233l3.691-1.02V10h1.872v2.593H27.773v2.7q0,1.187.94,1.187a2.551,2.551,0,0,0,.932-.193Zm5.133-11.3A1.608,1.608,0,0,1,34.2,8.857a2.252,2.252,0,0,1-1.516.492,2.2,2.2,0,0,1-1.5-.51A1.612,1.612,0,0,1,30.6,7.574a1.561,1.561,0,0,1,.567-1.252,2.639,2.639,0,0,1,3.032,0A1.551,1.551,0,0,1,34.778,7.574ZM30.814,19V10h3.744v9Zm12.1,0H38.47l-3.006-9h3.9l1.1,4.913a11.366,11.366,0,0,1,.29,1.784h.053q.018-.176.048-.36T42.161,10h3.885Zm14.036-4.658a4.687,4.687,0,0,1-1.375,3.577,5.375,5.375,0,0,1-3.845,1.3,5.4,5.4,0,0,1-3.819-1.27,4.546,4.546,0,0,1-1.367-3.5,4.692,4.692,0,0,1,.642-2.487,4.172,4.172,0,0,1,1.828-1.617A6.311,6.311,0,0,1,51.75,9.78a6.113,6.113,0,0,1,2.773.589A4.286,4.286,0,0,1,56.325,12,4.452,4.452,0,0,1,56.953,14.342Zm-3.8.018q0-1.837-1.406-1.837t-1.406,1.925q0,2.03,1.424,2.03Q53.156,16.478,53.156,14.359Zm5.555,1.187V13.023h4.808v2.522Zm22.614-4.992a4.1,4.1,0,0,1-.655,2.294A4.267,4.267,0,0,1,78.8,14.4a6.78,6.78,0,0,1-2.821.549h-1.16V19h-3.8V6.4h5.168a6.119,6.119,0,0,1,3.9,1.011A3.83,3.83,0,0,1,81.325,10.554Zm-4.017.132a1.477,1.477,0,0,0-.448-1.169,1.937,1.937,0,0,0-1.318-.4h-.721v3.111h.853Q77.309,12.232,77.309,10.686ZM92.5,14.342a4.687,4.687,0,0,1-1.375,3.577,6.355,6.355,0,0,1-7.664.031,4.546,4.546,0,0,1-1.367-3.5,4.692,4.692,0,0,1,.642-2.487,4.172,4.172,0,0,1,1.828-1.617,6.311,6.311,0,0,1,2.733-.562,6.113,6.113,0,0,1,2.773.589A4.286,4.286,0,0,1,91.868,12,4.452,4.452,0,0,1,92.5,14.342Zm-3.8.018q0-1.837-1.406-1.837t-1.406,1.925q0,2.03,1.424,2.03Q88.7,16.478,88.7,14.359Zm-.94-5.783H85.113l2.628-2.821h3.146ZM93.894,19V5.676h3.744V19ZM103.4,7.574a1.608,1.608,0,0,1-.576,1.283,2.252,2.252,0,0,1-1.516.492,2.2,2.2,0,0,1-1.5-.51,1.612,1.612,0,0,1-.584-1.266A1.561,1.561,0,0,1,99.8,6.322a2.639,2.639,0,0,1,3.032,0A1.551,1.551,0,0,1,103.4,7.574ZM99.439,19V10h3.744v9Zm9.782-2.593h3.709V19h-8.622V17.269l4.043-4.676h-3.665V10h8.165v2.127ZM119.136,19V17.629H119.1a2.944,2.944,0,0,1-2.742,1.591,2.625,2.625,0,0,1-2-.756,2.808,2.808,0,0,1-.721-2.021q0-2.654,3.261-3.076l2.232-.29a.851.851,0,0,0-.4-.721,1.8,1.8,0,0,0-1.063-.281,7,7,0,0,0-3.19.861V10.5a8.535,8.535,0,0,1,1.828-.519,10.639,10.639,0,0,1,1.881-.2,4.722,4.722,0,0,1,3.327.98,4.368,4.368,0,0,1,1.033,3.274V19Zm-2.215-3.059a.83.83,0,0,0,.233.606.888.888,0,0,0,.664.237,1.18,1.18,0,0,0,.954-.439,1.7,1.7,0,0,0,.365-1.125v-.343l-1.266.176Q116.921,15.212,116.921,15.941ZM135.255,19V17.954h-.035a3.089,3.089,0,0,1-1.169.927,3.331,3.331,0,0,1-1.424.338,3.663,3.663,0,0,1-2.03-.567,3.443,3.443,0,0,1-1.314-1.586,6.106,6.106,0,0,1-.435-2.408,5.925,5.925,0,0,1,.519-2.54,4.059,4.059,0,0,1,1.459-1.723,3.769,3.769,0,0,1,2.109-.615,3.193,3.193,0,0,1,1.024.158,2.77,2.77,0,0,1,.817.426,1.273,1.273,0,0,1,.444.532h.035V5.676H139V19Zm.079-4.772a1.974,1.974,0,0,0-.356-1.257,1.2,1.2,0,0,0-1.951.11,2.593,2.593,0,0,0-.382,1.49q0,1.907,1.318,1.907a1.173,1.173,0,0,0,1-.514,2.531,2.531,0,0,0,.374-1.5Zm8.692,1.336a1.265,1.265,0,0,0,.668.91,3.012,3.012,0,0,0,1.512.33,6.226,6.226,0,0,0,2.479-.5v2.373a8.908,8.908,0,0,1-3.3.545,5.214,5.214,0,0,1-3.665-1.2,4.277,4.277,0,0,1-1.31-3.313,5.467,5.467,0,0,1,.576-2.558,4.142,4.142,0,0,1,1.705-1.736,5.038,5.038,0,0,1,2.492-.628,4.9,4.9,0,0,1,2.391.545,3.63,3.63,0,0,1,1.507,1.529,4.906,4.906,0,0,1,.514,2.3v1.406Zm2.25-1.96q0-1.556-1.116-1.556a.944.944,0,0,0-.782.426,2.127,2.127,0,0,0-.369,1.129Zm18.7,1.582a3.64,3.64,0,0,1-.672,2.188,3.985,3.985,0,0,1-1.885,1.389,8.291,8.291,0,0,1-2.918.457,9.531,9.531,0,0,1-3.621-.668V15.1a7.153,7.153,0,0,0,1.749.936,5.145,5.145,0,0,0,1.784.356,1.761,1.761,0,0,0,.967-.224.733.733,0,0,0,.343-.655.888.888,0,0,0-.171-.541,1.683,1.683,0,0,0-.519-.435,9.659,9.659,0,0,0-1.288-.554q-3.041-1.169-3.041-3.779A3.531,3.531,0,0,1,157.1,7.28a5.858,5.858,0,0,1,3.727-1.094q.659,0,1.213.053t1.006.132q.453.079,1.27.3V9.877a6.49,6.49,0,0,0-3.129-.87,1.931,1.931,0,0,0-1.02.237.73.73,0,0,0-.387.65.816.816,0,0,0,.312.655,5.85,5.85,0,0,0,1.305.672,7.237,7.237,0,0,1,2.773,1.731A3.3,3.3,0,0,1,164.979,15.186Zm4.421.378a1.265,1.265,0,0,0,.668.91,3.012,3.012,0,0,0,1.512.33,6.226,6.226,0,0,0,2.479-.5v2.373a8.908,8.908,0,0,1-3.3.545,5.214,5.214,0,0,1-3.665-1.2,4.277,4.277,0,0,1-1.31-3.313,5.467,5.467,0,0,1,.576-2.558,4.142,4.142,0,0,1,1.705-1.736,5.038,5.038,0,0,1,2.492-.628,4.9,4.9,0,0,1,2.391.545,3.63,3.63,0,0,1,1.507,1.529,4.906,4.906,0,0,1,.514,2.3v1.406Zm2.25-1.96q0-1.556-1.116-1.556a.944.944,0,0,0-.782.426,2.127,2.127,0,0,0-.369,1.129Zm14.361,4.14a5.116,5.116,0,0,1-1.63,4.039,6.962,6.962,0,0,1-4.759,1.446,9.93,9.93,0,0,1-1.635-.132,4.5,4.5,0,0,1-1.134-.3V19.861a5.656,5.656,0,0,0,2.663.773,3.122,3.122,0,0,0,2.013-.606,1.959,1.959,0,0,0,.756-1.608v-.554h-.035a2.909,2.909,0,0,1-1.112.984,3.23,3.23,0,0,1-1.516.369,3.4,3.4,0,0,1-2.751-1.208,5.045,5.045,0,0,1-1.011-3.335,5.964,5.964,0,0,1,.527-2.575,4.018,4.018,0,0,1,1.468-1.718,3.769,3.769,0,0,1,2.074-.6,2.6,2.6,0,0,1,2.32,1.151h.035V10h3.727Zm-3.665-3.5a2.02,2.02,0,0,0-.356-1.257,1.13,1.13,0,0,0-.945-.466,1.163,1.163,0,0,0-1.011.563,2.656,2.656,0,0,0-.378,1.5,2.6,2.6,0,0,0,.316,1.38,1.092,1.092,0,0,0,1,.51,1.161,1.161,0,0,0,1.006-.523,2.408,2.408,0,0,0,.365-1.4ZM193.544,19V17.611h-.035a4.926,4.926,0,0,1-.839.94,3.23,3.23,0,0,1-.844.483,2.983,2.983,0,0,1-1.094.185,2.722,2.722,0,0,1-2.25-.958,4.429,4.429,0,0,1-.773-2.83V10h3.744v5.15q0,1.327.993,1.327a.972.972,0,0,0,.822-.36,1.642,1.642,0,0,0,.277-1.02V10h3.744v9Zm12.3-5.792a3.6,3.6,0,0,0-1.169-.255q-1.854,0-1.854,2.145V19h-3.744V10h3.744v1.582h.035a2.81,2.81,0,0,1,.976-1.3,2.506,2.506,0,0,1,1.477-.444,1.269,1.269,0,0,1,.536.105Zm11.092,1.134a4.687,4.687,0,0,1-1.375,3.577,6.355,6.355,0,0,1-7.664.031,4.546,4.546,0,0,1-1.367-3.5,4.692,4.692,0,0,1,.642-2.487A4.172,4.172,0,0,1,209,10.343a6.311,6.311,0,0,1,2.733-.562,6.113,6.113,0,0,1,2.773.589,4.286,4.286,0,0,1,1.8,1.635A4.452,4.452,0,0,1,216.94,14.342Zm-3.8.018q0-1.837-1.406-1.837t-1.406,1.925q0,2.03,1.424,2.03Q213.144,16.478,213.144,14.359Zm12.507,1.652a2.749,2.749,0,0,1-1.165,2.369,5.474,5.474,0,0,1-3.248.839,11.291,11.291,0,0,1-1.5-.123,9.257,9.257,0,0,1-1.455-.3V16.17a7.162,7.162,0,0,0,2.777.738q1.1,0,1.1-.571a.451.451,0,0,0-.255-.391,9.009,9.009,0,0,0-1.336-.514,3.773,3.773,0,0,1-1.74-1,2.382,2.382,0,0,1-.545-1.626,2.594,2.594,0,0,1,1.112-2.21,5.216,5.216,0,0,1,3.125-.813,9.931,9.931,0,0,1,2.5.343v2.522a7.549,7.549,0,0,0-1.213-.4,4.9,4.9,0,0,0-1.107-.158,1.205,1.205,0,0,0-.589.123.379.379,0,0,0-.22.343.478.478,0,0,0,.237.413,4.2,4.2,0,0,0,.949.378,4.4,4.4,0,0,1,1.978,1.037A2.272,2.272,0,0,1,225.65,16.012Zm1.74-.466V13.023H232.2v2.522ZM1.239,46V33.4h3.8V46Zm11.769,0V41.087a2.184,2.184,0,0,0-.25-1.2.915.915,0,0,0-.813-.365.88.88,0,0,0-.756.378,1.613,1.613,0,0,0-.272.967V46H7.172V37h3.744v1.406h.035a3.177,3.177,0,0,1,1.2-1.2A3.29,3.29,0,0,1,13.8,36.78q2.953,0,2.953,3.727V46Zm12.85-.255a3.529,3.529,0,0,1-1.134.343,10.719,10.719,0,0,1-1.784.132,5.488,5.488,0,0,1-2.544-.576,4.2,4.2,0,0,1-1.736-1.613,4.478,4.478,0,0,1-.615-2.329,5.1,5.1,0,0,1,.655-2.65,4.268,4.268,0,0,1,1.868-1.687,6.407,6.407,0,0,1,2.813-.584,9.839,9.839,0,0,1,1.578.114,2.41,2.41,0,0,1,.9.264v2.918a2.6,2.6,0,0,0-.809-.387,3.248,3.248,0,0,0-.976-.167,2.375,2.375,0,0,0-1.666.523,1.9,1.9,0,0,0-.567,1.472,1.868,1.868,0,0,0,.558,1.446,2.177,2.177,0,0,0,1.534.514,3.82,3.82,0,0,0,1.925-.5Zm4.72-3.182a1.265,1.265,0,0,0,.668.91,3.012,3.012,0,0,0,1.512.33,6.226,6.226,0,0,0,2.479-.5v2.373a8.908,8.908,0,0,1-3.3.545,5.214,5.214,0,0,1-3.665-1.2,4.277,4.277,0,0,1-1.31-3.313,5.467,5.467,0,0,1,.576-2.558,4.142,4.142,0,0,1,1.705-1.736,5.038,5.038,0,0,1,2.492-.628,4.9,4.9,0,0,1,2.391.545,3.63,3.63,0,0,1,1.507,1.529,4.906,4.906,0,0,1,.514,2.3v1.406Zm2.25-1.96q0-1.556-1.116-1.556a.944.944,0,0,0-.782.426A2.127,2.127,0,0,0,30.56,40.6ZM43.269,46V41.087a2.184,2.184,0,0,0-.25-1.2.915.915,0,0,0-.813-.365.88.88,0,0,0-.756.378,1.613,1.613,0,0,0-.272.967V46H37.433V37h3.744v1.406h.035a3.177,3.177,0,0,1,1.2-1.2,3.29,3.29,0,0,1,1.644-.426q2.953,0,2.953,3.727V46Zm11.443,0V44.954h-.035a3.089,3.089,0,0,1-1.169.927,3.331,3.331,0,0,1-1.424.338,3.663,3.663,0,0,1-2.03-.567,3.443,3.443,0,0,1-1.314-1.586,6.106,6.106,0,0,1-.435-2.408,5.925,5.925,0,0,1,.519-2.54A4.059,4.059,0,0,1,50.282,37.4a3.769,3.769,0,0,1,2.109-.615,3.193,3.193,0,0,1,1.024.158,2.77,2.77,0,0,1,.817.426,1.273,1.273,0,0,1,.444.532h.035V32.676h3.744V46Zm.079-4.772a1.974,1.974,0,0,0-.356-1.257,1.2,1.2,0,0,0-1.951.11,2.593,2.593,0,0,0-.382,1.49q0,1.907,1.318,1.907a1.173,1.173,0,0,0,1-.514,2.531,2.531,0,0,0,.374-1.5Zm9.431-6.653a1.608,1.608,0,0,1-.576,1.283,2.252,2.252,0,0,1-1.516.492,2.2,2.2,0,0,1-1.5-.51,1.612,1.612,0,0,1-.584-1.266,1.561,1.561,0,0,1,.567-1.252,2.639,2.639,0,0,1,3.032,0A1.551,1.551,0,0,1,64.222,34.574ZM60.258,46V37H64v9Zm15.557-4.658a4.687,4.687,0,0,1-1.375,3.577,6.355,6.355,0,0,1-7.664.031,4.546,4.546,0,0,1-1.367-3.5,4.692,4.692,0,0,1,.642-2.487,4.172,4.172,0,0,1,1.828-1.617,6.311,6.311,0,0,1,2.733-.562,6.113,6.113,0,0,1,2.773.589A4.286,4.286,0,0,1,75.186,39,4.452,4.452,0,0,1,75.814,41.342Zm-3.8.018q0-1.837-1.406-1.837t-1.406,1.925q0,2.03,1.424,2.03Q72.018,43.478,72.018,41.359Zm12.507,1.652A2.749,2.749,0,0,1,83.36,45.38a5.474,5.474,0,0,1-3.248.839,11.291,11.291,0,0,1-1.5-.123,9.257,9.257,0,0,1-1.455-.3V43.17a7.162,7.162,0,0,0,2.777.738q1.1,0,1.1-.571a.451.451,0,0,0-.255-.391,9.009,9.009,0,0,0-1.336-.514,3.773,3.773,0,0,1-1.74-1,2.382,2.382,0,0,1-.545-1.626,2.594,2.594,0,0,1,1.112-2.21A5.216,5.216,0,0,1,81.4,36.78a9.931,9.931,0,0,1,2.5.343v2.522a7.549,7.549,0,0,0-1.213-.4,4.9,4.9,0,0,0-1.107-.158,1.205,1.205,0,0,0-.589.123.379.379,0,0,0-.22.343.478.478,0,0,0,.237.413,4.2,4.2,0,0,0,.949.378,4.4,4.4,0,0,1,1.978,1.037A2.272,2.272,0,0,1,84.524,43.012Z" transform="translate(14 157.239)" fill="#12263f"/>
          <path id="Trazado_103332" data-name="Trazado 103332" d="M9.141,19l-.554-2.32H4.825L4.228,19H.123L4.465,6.4H9.176L13.263,19ZM6.75,9.139H6.662a6.123,6.123,0,0,1-.123.694q-.105.483-1.063,4.148H7.884L7,10.554A10.84,10.84,0,0,1,6.75,9.139Zm15.064,9.606a3.529,3.529,0,0,1-1.134.343,10.719,10.719,0,0,1-1.784.132,5.488,5.488,0,0,1-2.544-.576,4.2,4.2,0,0,1-1.736-1.613A4.478,4.478,0,0,1,14,14.7a5.1,5.1,0,0,1,.655-2.65,4.268,4.268,0,0,1,1.868-1.687,6.407,6.407,0,0,1,2.813-.584,9.839,9.839,0,0,1,1.578.114,2.41,2.41,0,0,1,.9.264v2.918a2.6,2.6,0,0,0-.809-.387,3.248,3.248,0,0,0-.976-.167,2.375,2.375,0,0,0-1.666.523,1.9,1.9,0,0,0-.567,1.472,1.868,1.868,0,0,0,.558,1.446,2.177,2.177,0,0,0,1.534.514,3.82,3.82,0,0,0,1.925-.5Zm7.831.132a3.648,3.648,0,0,1-.835.233,7.634,7.634,0,0,1-1.4.11,3.357,3.357,0,0,1-2.448-.861,3.269,3.269,0,0,1-.883-2.452V12.593H22.667V10h1.415V8.233l3.691-1.02V10h1.872v2.593H27.773v2.7q0,1.187.94,1.187a2.551,2.551,0,0,0,.932-.193Zm5.133-11.3A1.608,1.608,0,0,1,34.2,8.857a2.252,2.252,0,0,1-1.516.492,2.2,2.2,0,0,1-1.5-.51A1.612,1.612,0,0,1,30.6,7.574a1.561,1.561,0,0,1,.567-1.252,2.639,2.639,0,0,1,3.032,0A1.551,1.551,0,0,1,34.778,7.574ZM30.814,19V10h3.744v9Zm12.1,0H38.47l-3.006-9h3.9l1.1,4.913a11.366,11.366,0,0,1,.29,1.784h.053q.018-.176.048-.36T42.161,10h3.885Zm14.036-4.658a4.687,4.687,0,0,1-1.375,3.577,5.375,5.375,0,0,1-3.845,1.3,5.4,5.4,0,0,1-3.819-1.27,4.546,4.546,0,0,1-1.367-3.5,4.692,4.692,0,0,1,.642-2.487,4.172,4.172,0,0,1,1.828-1.617A6.311,6.311,0,0,1,51.75,9.78a6.113,6.113,0,0,1,2.773.589A4.286,4.286,0,0,1,56.325,12,4.452,4.452,0,0,1,56.953,14.342Zm-3.8.018q0-1.837-1.406-1.837t-1.406,1.925q0,2.03,1.424,2.03Q53.156,16.478,53.156,14.359Zm5.555,1.187V13.023h4.808v2.522Zm23.08-.413a3.4,3.4,0,0,1-1.3,2.861A5.968,5.968,0,0,1,76.772,19H71.024V6.4h5.353q5.019,0,5.019,3.05a2.378,2.378,0,0,1-.316,1.208,2.846,2.846,0,0,1-.962.962,4.027,4.027,0,0,1-1.419.563v.035a4,4,0,0,1,1.608.532,3.139,3.139,0,0,1,1.1,1.063A2.515,2.515,0,0,1,81.791,15.133Zm-4.43-5.027q0-1.169-1.837-1.169h-.7v2.382h1.1a1.561,1.561,0,0,0,1.037-.338A1.088,1.088,0,0,0,77.361,10.105Zm.4,5.01a1.146,1.146,0,0,0-.4-.9,1.516,1.516,0,0,0-1.046-.352H74.821v2.575h1.266a1.913,1.913,0,0,0,1.222-.356A1.173,1.173,0,0,0,77.757,15.115ZM88.11,19V17.629h-.035a2.944,2.944,0,0,1-2.742,1.591,2.625,2.625,0,0,1-2-.756,2.808,2.808,0,0,1-.721-2.021q0-2.654,3.261-3.076l2.232-.29a.851.851,0,0,0-.4-.721,1.8,1.8,0,0,0-1.063-.281,7,7,0,0,0-3.19.861V10.5a8.535,8.535,0,0,1,1.828-.519,10.639,10.639,0,0,1,1.881-.2,4.722,4.722,0,0,1,3.327.98,4.368,4.368,0,0,1,1.033,3.274V19ZM85.9,15.941a.83.83,0,0,0,.233.606.888.888,0,0,0,.664.237,1.18,1.18,0,0,0,.954-.439,1.7,1.7,0,0,0,.365-1.125v-.343l-1.266.176Q85.9,15.212,85.9,15.941ZM99.053,19V14.087a2.184,2.184,0,0,0-.25-1.2.915.915,0,0,0-.813-.365.88.88,0,0,0-.756.378,1.613,1.613,0,0,0-.272.967V19H93.217V10h3.744v1.406H97a3.177,3.177,0,0,1,1.2-1.2,3.29,3.29,0,0,1,1.644-.426q2.953,0,2.953,3.727V19Zm12.85-.255a3.529,3.529,0,0,1-1.134.343,10.719,10.719,0,0,1-1.784.132,5.488,5.488,0,0,1-2.544-.576,4.2,4.2,0,0,1-1.736-1.613,4.478,4.478,0,0,1-.615-2.329,5.1,5.1,0,0,1,.655-2.65,4.268,4.268,0,0,1,1.868-1.687,6.407,6.407,0,0,1,2.813-.584A9.839,9.839,0,0,1,111,9.895a2.41,2.41,0,0,1,.9.264v2.918a2.6,2.6,0,0,0-.809-.387,3.248,3.248,0,0,0-.976-.167,2.375,2.375,0,0,0-1.666.523,1.9,1.9,0,0,0-.567,1.472,1.868,1.868,0,0,0,.558,1.446,2.177,2.177,0,0,0,1.534.514,3.82,3.82,0,0,0,1.925-.5Zm11.5-4.4a4.687,4.687,0,0,1-1.375,3.577,6.355,6.355,0,0,1-7.664.031,4.546,4.546,0,0,1-1.367-3.5,4.692,4.692,0,0,1,.642-2.487,4.172,4.172,0,0,1,1.828-1.617A6.311,6.311,0,0,1,118.2,9.78a6.113,6.113,0,0,1,2.773.589,4.286,4.286,0,0,1,1.8,1.635A4.452,4.452,0,0,1,123.407,14.342Zm-3.8.018q0-1.837-1.406-1.837T116.8,14.447q0,2.03,1.424,2.03Q119.61,16.478,119.61,14.359Zm12.507,1.652a2.749,2.749,0,0,1-1.165,2.369,5.474,5.474,0,0,1-3.248.839,11.291,11.291,0,0,1-1.5-.123,9.257,9.257,0,0,1-1.455-.3V16.17a7.162,7.162,0,0,0,2.777.738q1.1,0,1.1-.571a.451.451,0,0,0-.255-.391,9.009,9.009,0,0,0-1.336-.514,3.773,3.773,0,0,1-1.74-1,2.382,2.382,0,0,1-.545-1.626,2.594,2.594,0,0,1,1.112-2.21,5.216,5.216,0,0,1,3.125-.813,9.931,9.931,0,0,1,2.5.343v2.522a7.549,7.549,0,0,0-1.213-.4,4.9,4.9,0,0,0-1.107-.158,1.205,1.205,0,0,0-.589.123.379.379,0,0,0-.22.343.478.478,0,0,0,.237.413,4.2,4.2,0,0,0,.949.378,4.4,4.4,0,0,1,1.978,1.037A2.272,2.272,0,0,1,132.117,16.012ZM147.647,19,143.2,12.918a14.5,14.5,0,0,1-.861-1.3H142.3q.053.932.053,2.092V19h-3.516V6.4h3.586l4.263,5.783q.079.114.193.272t.229.325q.114.167.215.325a2,2,0,0,1,.154.281h.035a11.423,11.423,0,0,1-.053-1.336V6.4h3.516V19Zm10.459,0V17.629h-.035a2.944,2.944,0,0,1-2.742,1.591,2.625,2.625,0,0,1-2-.756,2.808,2.808,0,0,1-.721-2.021q0-2.654,3.261-3.076l2.232-.29a.851.851,0,0,0-.4-.721,1.8,1.8,0,0,0-1.063-.281,7,7,0,0,0-3.19.861V10.5a8.535,8.535,0,0,1,1.828-.519,10.639,10.639,0,0,1,1.881-.2,4.722,4.722,0,0,1,3.327.98,4.368,4.368,0,0,1,1.033,3.274V19Zm-2.215-3.059a.83.83,0,0,0,.233.606.888.888,0,0,0,.664.237,1.18,1.18,0,0,0,.954-.439,1.7,1.7,0,0,0,.365-1.125v-.343l-1.266.176Q155.892,15.212,155.892,15.941Zm14.739,2.8a3.529,3.529,0,0,1-1.134.343,10.719,10.719,0,0,1-1.784.132,5.488,5.488,0,0,1-2.544-.576,4.2,4.2,0,0,1-1.736-1.613,4.478,4.478,0,0,1-.615-2.329,5.1,5.1,0,0,1,.655-2.65,4.268,4.268,0,0,1,1.868-1.687,6.407,6.407,0,0,1,2.813-.584,9.839,9.839,0,0,1,1.578.114,2.41,2.41,0,0,1,.9.264v2.918a2.6,2.6,0,0,0-.809-.387,3.248,3.248,0,0,0-.976-.167,2.375,2.375,0,0,0-1.666.523,1.9,1.9,0,0,0-.567,1.472,1.868,1.868,0,0,0,.558,1.446,2.177,2.177,0,0,0,1.534.514,3.82,3.82,0,0,0,1.925-.5Zm5.458-11.171a1.608,1.608,0,0,1-.576,1.283A2.252,2.252,0,0,1,174,9.35a2.2,2.2,0,0,1-1.5-.51,1.612,1.612,0,0,1-.584-1.266,1.561,1.561,0,0,1,.567-1.252,2.639,2.639,0,0,1,3.032,0A1.551,1.551,0,0,1,176.089,7.574ZM172.125,19V10h3.744v9Zm15.557-4.658a4.687,4.687,0,0,1-1.375,3.577,6.355,6.355,0,0,1-7.664.031,4.546,4.546,0,0,1-1.367-3.5,4.692,4.692,0,0,1,.642-2.487,4.172,4.172,0,0,1,1.828-1.617,6.311,6.311,0,0,1,2.733-.562,6.113,6.113,0,0,1,2.773.589,4.286,4.286,0,0,1,1.8,1.635A4.452,4.452,0,0,1,187.682,14.342Zm-3.8.018q0-1.837-1.406-1.837t-1.406,1.925q0,2.03,1.424,2.03Q183.885,16.478,183.885,14.359ZM194.915,19V14.087a2.184,2.184,0,0,0-.25-1.2.915.915,0,0,0-.813-.365.88.88,0,0,0-.756.378,1.613,1.613,0,0,0-.272.967V19h-3.744V10h3.744v1.406h.035a3.177,3.177,0,0,1,1.2-1.2,3.29,3.29,0,0,1,1.644-.426q2.953,0,2.953,3.727V19Zm10.424,0V17.629H205.3a2.944,2.944,0,0,1-2.742,1.591,2.625,2.625,0,0,1-2-.756,2.808,2.808,0,0,1-.721-2.021q0-2.654,3.261-3.076l2.232-.29a.851.851,0,0,0-.4-.721,1.8,1.8,0,0,0-1.063-.281,7,7,0,0,0-3.19.861V10.5a8.535,8.535,0,0,1,1.828-.519,10.639,10.639,0,0,1,1.881-.2,4.722,4.722,0,0,1,3.327.98,4.368,4.368,0,0,1,1.033,3.274V19Zm-2.215-3.059a.83.83,0,0,0,.233.606.888.888,0,0,0,.664.237,1.18,1.18,0,0,0,.954-.439,1.7,1.7,0,0,0,.365-1.125v-.343l-1.266.176Q203.124,15.212,203.124,15.941ZM210.445,19V5.676h3.744V19Zm8.771-3.437a1.265,1.265,0,0,0,.668.91,3.012,3.012,0,0,0,1.512.33,6.226,6.226,0,0,0,2.479-.5v2.373a8.908,8.908,0,0,1-3.3.545,5.214,5.214,0,0,1-3.665-1.2A4.277,4.277,0,0,1,215.6,14.7a5.467,5.467,0,0,1,.576-2.558,4.142,4.142,0,0,1,1.705-1.736,5.038,5.038,0,0,1,2.492-.628,4.9,4.9,0,0,1,2.391.545,3.63,3.63,0,0,1,1.507,1.529,4.906,4.906,0,0,1,.514,2.3v1.406Zm2.25-1.96q0-1.556-1.116-1.556a.944.944,0,0,0-.782.426A2.127,2.127,0,0,0,219.2,13.6Zm11.918,2.408a2.749,2.749,0,0,1-1.165,2.369,5.474,5.474,0,0,1-3.248.839,11.291,11.291,0,0,1-1.5-.123,9.257,9.257,0,0,1-1.455-.3V16.17a7.162,7.162,0,0,0,2.777.738q1.1,0,1.1-.571a.451.451,0,0,0-.255-.391,9.009,9.009,0,0,0-1.336-.514,3.773,3.773,0,0,1-1.74-1,2.382,2.382,0,0,1-.545-1.626,2.594,2.594,0,0,1,1.112-2.21,5.216,5.216,0,0,1,3.125-.813,9.931,9.931,0,0,1,2.5.343v2.522a7.549,7.549,0,0,0-1.213-.4,4.9,4.9,0,0,0-1.107-.158,1.205,1.205,0,0,0-.589.123.379.379,0,0,0-.22.343.478.478,0,0,0,.237.413,4.2,4.2,0,0,0,.949.378,4.4,4.4,0,0,1,1.978,1.037A2.272,2.272,0,0,1,233.385,16.012ZM13.122,39.54a6.954,6.954,0,0,1-.8,3.388,5.542,5.542,0,0,1-2.3,2.272,7.189,7.189,0,0,1-3.445.8H1.239V33.4H6.46Q13.122,33.4,13.122,39.54Zm-4.034.035a3.627,3.627,0,0,0-.374-1.661,2.7,2.7,0,0,0-1.068-1.143,3.191,3.191,0,0,0-1.635-.4H5.036v6.662H6.1a2.736,2.736,0,0,0,2.175-.936A3.707,3.707,0,0,0,9.088,39.575ZM19.547,46V44.629h-.035A2.944,2.944,0,0,1,16.77,46.22a2.625,2.625,0,0,1-2-.756,2.808,2.808,0,0,1-.721-2.021q0-2.654,3.261-3.076l2.232-.29a.851.851,0,0,0-.4-.721,1.8,1.8,0,0,0-1.063-.281,7,7,0,0,0-3.19.861V37.5a8.535,8.535,0,0,1,1.828-.519,10.639,10.639,0,0,1,1.881-.2,4.722,4.722,0,0,1,3.327.98,4.368,4.368,0,0,1,1.033,3.274V46Zm-2.215-3.059a.83.83,0,0,0,.233.606.888.888,0,0,0,.664.237,1.18,1.18,0,0,0,.954-.439,1.7,1.7,0,0,0,.365-1.125v-.343l-1.266.176Q17.332,42.212,17.332,42.941ZM31.21,46H26.763l-3.006-9h3.9l1.1,4.913a11.366,11.366,0,0,1,.29,1.784H29.1q.018-.176.048-.36T30.454,37h3.885ZM39.2,34.574a1.608,1.608,0,0,1-.576,1.283,2.252,2.252,0,0,1-1.516.492,2.2,2.2,0,0,1-1.5-.51,1.612,1.612,0,0,1-.584-1.266,1.561,1.561,0,0,1,.567-1.252,2.639,2.639,0,0,1,3.032,0A1.551,1.551,0,0,1,39.2,34.574ZM35.235,46V37h3.744v9Zm12.1,0H42.891l-3.006-9h3.9l1.1,4.913a11.366,11.366,0,0,1,.29,1.784h.053q.018-.176.048-.36T46.582,37h3.885Zm7.989-11.426a1.608,1.608,0,0,1-.576,1.283,2.252,2.252,0,0,1-1.516.492,2.2,2.2,0,0,1-1.5-.51,1.612,1.612,0,0,1-.584-1.266,1.561,1.561,0,0,1,.567-1.252,2.639,2.639,0,0,1,3.032,0A1.551,1.551,0,0,1,55.327,34.574ZM51.363,46V37h3.744v9Zm8.771-3.437a1.265,1.265,0,0,0,.668.91,3.012,3.012,0,0,0,1.512.33,6.226,6.226,0,0,0,2.479-.5v2.373a8.908,8.908,0,0,1-3.3.545,5.214,5.214,0,0,1-3.665-1.2,4.277,4.277,0,0,1-1.31-3.313,5.467,5.467,0,0,1,.576-2.558,4.142,4.142,0,0,1,1.705-1.736,5.038,5.038,0,0,1,2.492-.628,4.9,4.9,0,0,1,2.391.545,3.63,3.63,0,0,1,1.507,1.529,4.906,4.906,0,0,1,.514,2.3v1.406Zm2.25-1.96q0-1.556-1.116-1.556a.944.944,0,0,0-.782.426,2.127,2.127,0,0,0-.369,1.129ZM72.826,46V41.087a2.184,2.184,0,0,0-.25-1.2.915.915,0,0,0-.813-.365.88.88,0,0,0-.756.378,1.613,1.613,0,0,0-.272.967V46H66.99V37h3.744v1.406h.035a3.177,3.177,0,0,1,1.2-1.2,3.29,3.29,0,0,1,1.644-.426q2.953,0,2.953,3.727V46ZM84.27,46V44.954h-.035a3.089,3.089,0,0,1-1.169.927,3.331,3.331,0,0,1-1.424.338,3.663,3.663,0,0,1-2.03-.567A3.443,3.443,0,0,1,78.3,44.066a6.106,6.106,0,0,1-.435-2.408,5.925,5.925,0,0,1,.519-2.54A4.059,4.059,0,0,1,79.84,37.4a3.769,3.769,0,0,1,2.109-.615,3.193,3.193,0,0,1,1.024.158,2.77,2.77,0,0,1,.817.426,1.273,1.273,0,0,1,.444.532h.035V32.676h3.744V46Zm.079-4.772a1.974,1.974,0,0,0-.356-1.257,1.2,1.2,0,0,0-1.951.11,2.593,2.593,0,0,0-.382,1.49q0,1.907,1.318,1.907a1.173,1.173,0,0,0,1-.514,2.531,2.531,0,0,0,.374-1.5ZM94.808,46V44.629h-.035A2.944,2.944,0,0,1,92.03,46.22a2.625,2.625,0,0,1-2-.756,2.808,2.808,0,0,1-.721-2.021q0-2.654,3.261-3.076l2.232-.29a.851.851,0,0,0-.4-.721,1.8,1.8,0,0,0-1.063-.281,7,7,0,0,0-3.19.861V37.5a8.535,8.535,0,0,1,1.828-.519,10.639,10.639,0,0,1,1.881-.2,4.722,4.722,0,0,1,3.327.98,4.368,4.368,0,0,1,1.033,3.274V46Zm-2.215-3.059a.83.83,0,0,0,.233.606.888.888,0,0,0,.664.237,1.18,1.18,0,0,0,.954-.439,1.7,1.7,0,0,0,.365-1.125v-.343l-1.266.176Q92.593,42.212,92.593,42.941Z" transform="translate(661.818 251.193)" fill="#12263f"/>
          <path id="Trazado_103328" data-name="Trazado 103328" d="M10.617,18.657A10.653,10.653,0,0,1,7,19.22a7.351,7.351,0,0,1-3.472-.769,5.265,5.265,0,0,1-2.228-2.188,6.765,6.765,0,0,1-.769-3.274A7.207,7.207,0,0,1,1.4,9.438a5.957,5.957,0,0,1,2.435-2.4,7.512,7.512,0,0,1,3.621-.848,12.586,12.586,0,0,1,3.164.4v3.507A4.465,4.465,0,0,0,9.36,9.6,6.281,6.281,0,0,0,7.884,9.42a3.305,3.305,0,0,0-2.439.888,3.245,3.245,0,0,0-.892,2.408A3.189,3.189,0,0,0,5.445,15.1a3.261,3.261,0,0,0,2.386.875,6.191,6.191,0,0,0,2.786-.7ZM17.965,19V17.611H17.93a4.926,4.926,0,0,1-.839.94,3.23,3.23,0,0,1-.844.483,2.983,2.983,0,0,1-1.094.185,2.722,2.722,0,0,1-2.25-.958,4.429,4.429,0,0,1-.773-2.83V10h3.744v5.15q0,1.327.993,1.327a.972.972,0,0,0,.822-.36,1.642,1.642,0,0,0,.277-1.02V10h3.744v9Zm8.763-3.437a1.265,1.265,0,0,0,.668.91,3.012,3.012,0,0,0,1.512.33,6.226,6.226,0,0,0,2.479-.5v2.373a8.908,8.908,0,0,1-3.3.545,5.214,5.214,0,0,1-3.665-1.2,4.277,4.277,0,0,1-1.31-3.313,5.467,5.467,0,0,1,.576-2.558,4.142,4.142,0,0,1,1.705-1.736,5.038,5.038,0,0,1,2.492-.628,4.9,4.9,0,0,1,2.391.545,3.63,3.63,0,0,1,1.507,1.529,4.906,4.906,0,0,1,.514,2.3v1.406Zm2.25-1.96q0-1.556-1.116-1.556a.944.944,0,0,0-.782.426A2.127,2.127,0,0,0,26.71,13.6ZM39.419,19V14.087a2.184,2.184,0,0,0-.25-1.2.915.915,0,0,0-.813-.365.88.88,0,0,0-.756.378,1.613,1.613,0,0,0-.272.967V19H33.583V10h3.744v1.406h.035a3.177,3.177,0,0,1,1.2-1.2A3.29,3.29,0,0,1,40.21,9.78q2.953,0,2.953,3.727V19Zm11.769-.123a3.648,3.648,0,0,1-.835.233,7.634,7.634,0,0,1-1.4.11,3.357,3.357,0,0,1-2.448-.861,3.269,3.269,0,0,1-.883-2.452V12.593H44.209V10h1.415V8.233l3.691-1.02V10h1.872v2.593H49.315v2.7q0,1.187.94,1.187a2.551,2.551,0,0,0,.932-.193ZM57.349,19V17.629h-.035a2.944,2.944,0,0,1-2.742,1.591,2.625,2.625,0,0,1-2-.756,2.808,2.808,0,0,1-.721-2.021q0-2.654,3.261-3.076l2.232-.29a.851.851,0,0,0-.4-.721,1.8,1.8,0,0,0-1.063-.281,7,7,0,0,0-3.19.861V10.5a8.535,8.535,0,0,1,1.828-.519,10.639,10.639,0,0,1,1.881-.2,4.722,4.722,0,0,1,3.327.98,4.368,4.368,0,0,1,1.033,3.274V19Zm-2.215-3.059a.83.83,0,0,0,.233.606.888.888,0,0,0,.664.237,1.18,1.18,0,0,0,.954-.439,1.7,1.7,0,0,0,.365-1.125v-.343l-1.266.176Q55.134,15.212,55.134,15.941Zm14.634.07A2.749,2.749,0,0,1,68.6,18.38a5.474,5.474,0,0,1-3.248.839,11.291,11.291,0,0,1-1.5-.123,9.257,9.257,0,0,1-1.455-.3V16.17a7.162,7.162,0,0,0,2.777.738q1.1,0,1.1-.571a.451.451,0,0,0-.255-.391,9.009,9.009,0,0,0-1.336-.514,3.773,3.773,0,0,1-1.74-1A2.382,2.382,0,0,1,62.4,12.8a2.594,2.594,0,0,1,1.112-2.21,5.216,5.216,0,0,1,3.125-.813,9.931,9.931,0,0,1,2.5.343v2.522a7.549,7.549,0,0,0-1.213-.4,4.9,4.9,0,0,0-1.107-.158,1.205,1.205,0,0,0-.589.123.379.379,0,0,0-.22.343.478.478,0,0,0,.237.413,4.2,4.2,0,0,0,.949.378,4.4,4.4,0,0,1,1.978,1.037A2.272,2.272,0,0,1,69.768,16.012ZM86.3,14.228a6.4,6.4,0,0,1-.5,2.61A4.046,4.046,0,0,1,84.384,18.6a3.564,3.564,0,0,1-2.057.624,2.755,2.755,0,0,1-2.4-1.151h-.035V23.14H76.148V10h3.744v1.222h.035a3.171,3.171,0,0,1,1.16-1.059,3.364,3.364,0,0,1,1.617-.382,3.215,3.215,0,0,1,2.667,1.16A5.147,5.147,0,0,1,86.3,14.228Zm-3.8.114a2.346,2.346,0,0,0-.33-1.336,1.237,1.237,0,0,0-1.982.026,2.341,2.341,0,0,0-.369,1.4v.176a2.562,2.562,0,0,0,.316,1.362,1.044,1.044,0,0,0,.949.51,1.182,1.182,0,0,0,1.046-.558A2.849,2.849,0,0,0,82.5,14.342Zm15.214,0a4.687,4.687,0,0,1-1.375,3.577,6.355,6.355,0,0,1-7.664.031,4.546,4.546,0,0,1-1.367-3.5,4.692,4.692,0,0,1,.642-2.487,4.172,4.172,0,0,1,1.828-1.617,6.311,6.311,0,0,1,2.733-.562,6.113,6.113,0,0,1,2.773.589A4.286,4.286,0,0,1,97.088,12,4.452,4.452,0,0,1,97.717,14.342Zm-3.8.018q0-1.837-1.406-1.837t-1.406,1.925q0,2.03,1.424,2.03Q93.92,16.478,93.92,14.359Zm11.962-1.151a3.6,3.6,0,0,0-1.169-.255q-1.854,0-1.854,2.145V19H99.114V10h3.744v1.582h.035a2.81,2.81,0,0,1,.976-1.3,2.506,2.506,0,0,1,1.477-.444,1.269,1.269,0,0,1,.536.105Zm16.726-2.654a4.1,4.1,0,0,1-.655,2.294,4.267,4.267,0,0,1-1.868,1.551,6.78,6.78,0,0,1-2.821.549H116.1V19h-3.8V6.4h5.168a6.119,6.119,0,0,1,3.9,1.011A3.83,3.83,0,0,1,122.607,10.554Zm-4.017.132a1.477,1.477,0,0,0-.448-1.169,1.937,1.937,0,0,0-1.318-.4H116.1v3.111h.853Q118.591,12.232,118.591,10.686ZM128.76,19V17.629h-.035a2.944,2.944,0,0,1-2.742,1.591,2.625,2.625,0,0,1-2-.756,2.808,2.808,0,0,1-.721-2.021q0-2.654,3.261-3.076l2.232-.29a.851.851,0,0,0-.4-.721,1.8,1.8,0,0,0-1.063-.281,7,7,0,0,0-3.19.861V10.5a8.535,8.535,0,0,1,1.828-.519,10.639,10.639,0,0,1,1.881-.2,4.722,4.722,0,0,1,3.327.98,4.368,4.368,0,0,1,1.033,3.274V19Zm-2.215-3.059a.83.83,0,0,0,.233.606.888.888,0,0,0,.664.237,1.18,1.18,0,0,0,.954-.439,1.7,1.7,0,0,0,.365-1.125v-.343l-1.266.176Q126.545,15.212,126.545,15.941Zm17.077,1.8a5.116,5.116,0,0,1-1.63,4.039,6.962,6.962,0,0,1-4.759,1.446A9.93,9.93,0,0,1,135.6,23.1a4.5,4.5,0,0,1-1.134-.3V19.861a5.656,5.656,0,0,0,2.663.773,3.122,3.122,0,0,0,2.013-.606,1.959,1.959,0,0,0,.756-1.608v-.554h-.035a2.909,2.909,0,0,1-1.112.984,3.23,3.23,0,0,1-1.516.369,3.4,3.4,0,0,1-2.751-1.208,5.045,5.045,0,0,1-1.011-3.335A5.964,5.964,0,0,1,134,12.1a4.018,4.018,0,0,1,1.468-1.718,3.769,3.769,0,0,1,2.074-.6,2.6,2.6,0,0,1,2.32,1.151h.035V10h3.727Zm-3.665-3.5a2.02,2.02,0,0,0-.356-1.257,1.13,1.13,0,0,0-.945-.466,1.163,1.163,0,0,0-1.011.563,2.656,2.656,0,0,0-.378,1.5,2.6,2.6,0,0,0,.316,1.38,1.092,1.092,0,0,0,1,.51,1.161,1.161,0,0,0,1.006-.523,2.408,2.408,0,0,0,.365-1.4ZM150.416,19V17.629h-.035a2.944,2.944,0,0,1-2.742,1.591,2.625,2.625,0,0,1-2-.756,2.808,2.808,0,0,1-.721-2.021q0-2.654,3.261-3.076l2.232-.29a.851.851,0,0,0-.4-.721,1.8,1.8,0,0,0-1.063-.281,7,7,0,0,0-3.19.861V10.5a8.535,8.535,0,0,1,1.828-.519,10.639,10.639,0,0,1,1.881-.2,4.722,4.722,0,0,1,3.327.98,4.368,4.368,0,0,1,1.033,3.274V19ZM148.2,15.941a.83.83,0,0,0,.233.606.888.888,0,0,0,.664.237,1.18,1.18,0,0,0,.954-.439,1.7,1.7,0,0,0,.365-1.125v-.343l-1.266.176Q148.2,15.212,148.2,15.941Zm14.089-2.733a3.6,3.6,0,0,0-1.169-.255q-1.854,0-1.854,2.145V19h-3.744V10h3.744v1.582h.035a2.81,2.81,0,0,1,.976-1.3,2.506,2.506,0,0,1,1.477-.444,1.269,1.269,0,0,1,.536.105Z" transform="translate(14 264.693)" fill="#12263f"/>
          <path id="Trazado_103330" data-name="Trazado 103330" d="M10.617,18.657A10.653,10.653,0,0,1,7,19.22a7.351,7.351,0,0,1-3.472-.769,5.265,5.265,0,0,1-2.228-2.188,6.765,6.765,0,0,1-.769-3.274A7.207,7.207,0,0,1,1.4,9.438a5.957,5.957,0,0,1,2.435-2.4,7.512,7.512,0,0,1,3.621-.848,12.586,12.586,0,0,1,3.164.4v3.507A4.465,4.465,0,0,0,9.36,9.6,6.281,6.281,0,0,0,7.884,9.42a3.305,3.305,0,0,0-2.439.888,3.245,3.245,0,0,0-.892,2.408A3.189,3.189,0,0,0,5.445,15.1a3.261,3.261,0,0,0,2.386.875,6.191,6.191,0,0,0,2.786-.7ZM17.965,19V17.611H17.93a4.926,4.926,0,0,1-.839.94,3.23,3.23,0,0,1-.844.483,2.983,2.983,0,0,1-1.094.185,2.722,2.722,0,0,1-2.25-.958,4.429,4.429,0,0,1-.773-2.83V10h3.744v5.15q0,1.327.993,1.327a.972.972,0,0,0,.822-.36,1.642,1.642,0,0,0,.277-1.02V10h3.744v9Zm8.763-3.437a1.265,1.265,0,0,0,.668.91,3.012,3.012,0,0,0,1.512.33,6.226,6.226,0,0,0,2.479-.5v2.373a8.908,8.908,0,0,1-3.3.545,5.214,5.214,0,0,1-3.665-1.2,4.277,4.277,0,0,1-1.31-3.313,5.467,5.467,0,0,1,.576-2.558,4.142,4.142,0,0,1,1.705-1.736,5.038,5.038,0,0,1,2.492-.628,4.9,4.9,0,0,1,2.391.545,3.63,3.63,0,0,1,1.507,1.529,4.906,4.906,0,0,1,.514,2.3v1.406Zm2.25-1.96q0-1.556-1.116-1.556a.944.944,0,0,0-.782.426A2.127,2.127,0,0,0,26.71,13.6ZM39.419,19V14.087a2.184,2.184,0,0,0-.25-1.2.915.915,0,0,0-.813-.365.88.88,0,0,0-.756.378,1.613,1.613,0,0,0-.272.967V19H33.583V10h3.744v1.406h.035a3.177,3.177,0,0,1,1.2-1.2A3.29,3.29,0,0,1,40.21,9.78q2.953,0,2.953,3.727V19Zm11.769-.123a3.648,3.648,0,0,1-.835.233,7.634,7.634,0,0,1-1.4.11,3.357,3.357,0,0,1-2.448-.861,3.269,3.269,0,0,1-.883-2.452V12.593H44.209V10h1.415V8.233l3.691-1.02V10h1.872v2.593H49.315v2.7q0,1.187.94,1.187a2.551,2.551,0,0,0,.932-.193ZM57.349,19V17.629h-.035a2.944,2.944,0,0,1-2.742,1.591,2.625,2.625,0,0,1-2-.756,2.808,2.808,0,0,1-.721-2.021q0-2.654,3.261-3.076l2.232-.29a.851.851,0,0,0-.4-.721,1.8,1.8,0,0,0-1.063-.281,7,7,0,0,0-3.19.861V10.5a8.535,8.535,0,0,1,1.828-.519,10.639,10.639,0,0,1,1.881-.2,4.722,4.722,0,0,1,3.327.98,4.368,4.368,0,0,1,1.033,3.274V19Zm-2.215-3.059a.83.83,0,0,0,.233.606.888.888,0,0,0,.664.237,1.18,1.18,0,0,0,.954-.439,1.7,1.7,0,0,0,.365-1.125v-.343l-1.266.176Q55.134,15.212,55.134,15.941Zm14.634.07A2.749,2.749,0,0,1,68.6,18.38a5.474,5.474,0,0,1-3.248.839,11.291,11.291,0,0,1-1.5-.123,9.257,9.257,0,0,1-1.455-.3V16.17a7.162,7.162,0,0,0,2.777.738q1.1,0,1.1-.571a.451.451,0,0,0-.255-.391,9.009,9.009,0,0,0-1.336-.514,3.773,3.773,0,0,1-1.74-1A2.382,2.382,0,0,1,62.4,12.8a2.594,2.594,0,0,1,1.112-2.21,5.216,5.216,0,0,1,3.125-.813,9.931,9.931,0,0,1,2.5.343v2.522a7.549,7.549,0,0,0-1.213-.4,4.9,4.9,0,0,0-1.107-.158,1.205,1.205,0,0,0-.589.123.379.379,0,0,0-.22.343.478.478,0,0,0,.237.413,4.2,4.2,0,0,0,.949.378,4.4,4.4,0,0,1,1.978,1.037A2.272,2.272,0,0,1,69.768,16.012ZM86.3,14.228a6.4,6.4,0,0,1-.5,2.61A4.046,4.046,0,0,1,84.384,18.6a3.564,3.564,0,0,1-2.057.624,2.755,2.755,0,0,1-2.4-1.151h-.035V23.14H76.148V10h3.744v1.222h.035a3.171,3.171,0,0,1,1.16-1.059,3.364,3.364,0,0,1,1.617-.382,3.215,3.215,0,0,1,2.667,1.16A5.147,5.147,0,0,1,86.3,14.228Zm-3.8.114a2.346,2.346,0,0,0-.33-1.336,1.237,1.237,0,0,0-1.982.026,2.341,2.341,0,0,0-.369,1.4v.176a2.562,2.562,0,0,0,.316,1.362,1.044,1.044,0,0,0,.949.51,1.182,1.182,0,0,0,1.046-.558A2.849,2.849,0,0,0,82.5,14.342Zm15.214,0a4.687,4.687,0,0,1-1.375,3.577,6.355,6.355,0,0,1-7.664.031,4.546,4.546,0,0,1-1.367-3.5,4.692,4.692,0,0,1,.642-2.487,4.172,4.172,0,0,1,1.828-1.617,6.311,6.311,0,0,1,2.733-.562,6.113,6.113,0,0,1,2.773.589A4.286,4.286,0,0,1,97.088,12,4.452,4.452,0,0,1,97.717,14.342Zm-3.8.018q0-1.837-1.406-1.837t-1.406,1.925q0,2.03,1.424,2.03Q93.92,16.478,93.92,14.359Zm11.962-1.151a3.6,3.6,0,0,0-1.169-.255q-1.854,0-1.854,2.145V19H99.114V10h3.744v1.582h.035a2.81,2.81,0,0,1,.976-1.3,2.506,2.506,0,0,1,1.477-.444,1.269,1.269,0,0,1,.536.105Zm16.726-2.654a4.1,4.1,0,0,1-.655,2.294,4.267,4.267,0,0,1-1.868,1.551,6.78,6.78,0,0,1-2.821.549H116.1V19h-3.8V6.4h5.168a6.119,6.119,0,0,1,3.9,1.011A3.83,3.83,0,0,1,122.607,10.554Zm-4.017.132a1.477,1.477,0,0,0-.448-1.169,1.937,1.937,0,0,0-1.318-.4H116.1v3.111h.853Q118.591,12.232,118.591,10.686ZM128.76,19V17.629h-.035a2.944,2.944,0,0,1-2.742,1.591,2.625,2.625,0,0,1-2-.756,2.808,2.808,0,0,1-.721-2.021q0-2.654,3.261-3.076l2.232-.29a.851.851,0,0,0-.4-.721,1.8,1.8,0,0,0-1.063-.281,7,7,0,0,0-3.19.861V10.5a8.535,8.535,0,0,1,1.828-.519,10.639,10.639,0,0,1,1.881-.2,4.722,4.722,0,0,1,3.327.98,4.368,4.368,0,0,1,1.033,3.274V19Zm-2.215-3.059a.83.83,0,0,0,.233.606.888.888,0,0,0,.664.237,1.18,1.18,0,0,0,.954-.439,1.7,1.7,0,0,0,.365-1.125v-.343l-1.266.176Q126.545,15.212,126.545,15.941Zm17.077,1.8a5.116,5.116,0,0,1-1.63,4.039,6.962,6.962,0,0,1-4.759,1.446A9.93,9.93,0,0,1,135.6,23.1a4.5,4.5,0,0,1-1.134-.3V19.861a5.656,5.656,0,0,0,2.663.773,3.122,3.122,0,0,0,2.013-.606,1.959,1.959,0,0,0,.756-1.608v-.554h-.035a2.909,2.909,0,0,1-1.112.984,3.23,3.23,0,0,1-1.516.369,3.4,3.4,0,0,1-2.751-1.208,5.045,5.045,0,0,1-1.011-3.335A5.964,5.964,0,0,1,134,12.1a4.018,4.018,0,0,1,1.468-1.718,3.769,3.769,0,0,1,2.074-.6,2.6,2.6,0,0,1,2.32,1.151h.035V10h3.727Zm-3.665-3.5a2.02,2.02,0,0,0-.356-1.257,1.13,1.13,0,0,0-.945-.466,1.163,1.163,0,0,0-1.011.563,2.656,2.656,0,0,0-.378,1.5,2.6,2.6,0,0,0,.316,1.38,1.092,1.092,0,0,0,1,.51,1.161,1.161,0,0,0,1.006-.523,2.408,2.408,0,0,0,.365-1.4ZM150.416,19V17.629h-.035a2.944,2.944,0,0,1-2.742,1.591,2.625,2.625,0,0,1-2-.756,2.808,2.808,0,0,1-.721-2.021q0-2.654,3.261-3.076l2.232-.29a.851.851,0,0,0-.4-.721,1.8,1.8,0,0,0-1.063-.281,7,7,0,0,0-3.19.861V10.5a8.535,8.535,0,0,1,1.828-.519,10.639,10.639,0,0,1,1.881-.2,4.722,4.722,0,0,1,3.327.98,4.368,4.368,0,0,1,1.033,3.274V19ZM148.2,15.941a.83.83,0,0,0,.233.606.888.888,0,0,0,.664.237,1.18,1.18,0,0,0,.954-.439,1.7,1.7,0,0,0,.365-1.125v-.343l-1.266.176Q148.2,15.212,148.2,15.941Zm14.089-2.733a3.6,3.6,0,0,0-1.169-.255q-1.854,0-1.854,2.145V19h-3.744V10h3.744v1.582h.035a2.81,2.81,0,0,1,.976-1.3,2.506,2.506,0,0,1,1.477-.444,1.269,1.269,0,0,1,.536.105Z" transform="translate(661.818 161.619)" fill="#12263f"/>
          <path id="Trazado_103327" data-name="Trazado 103327" d="M6.641-11.2v7.4H8.078v1.172H6.641V0H5.375V-2.633H.109V-3.742q.734-.828,1.484-1.77t1.434-1.91q.684-.969,1.266-1.934a17.671,17.671,0,0,0,.98-1.848ZM1.555-3.8h3.82V-9.289Q4.789-8.266,4.266-7.461T3.27-6q-.473.656-.9,1.188T1.555-3.8ZM10.367.172a.829.829,0,0,1-.613-.258A.849.849,0,0,1,9.5-.7a.862.862,0,0,1,.254-.621.823.823,0,0,1,.613-.262.845.845,0,0,1,.625.262A.855.855,0,0,1,11.25-.7a.842.842,0,0,1-.258.617A.851.851,0,0,1,10.367.172Zm9.7-5.82a11.005,11.005,0,0,1-.254,2.492,5.807,5.807,0,0,1-.734,1.832,3.305,3.305,0,0,1-1.18,1.133A3.23,3.23,0,0,1,16.3.2a3.016,3.016,0,0,1-1.5-.371,3.152,3.152,0,0,1-1.113-1.082A5.484,5.484,0,0,1,13-3a10.8,10.8,0,0,1-.234-2.371,12.222,12.222,0,0,1,.246-2.594,5.933,5.933,0,0,1,.723-1.887A3.216,3.216,0,0,1,14.918-11a3.323,3.323,0,0,1,1.621-.387Q20.063-11.391,20.063-5.648Zm-1.312.125q0-4.781-2.273-4.781-2.4,0-2.4,4.867Q14.078-.9,16.43-.9,18.75-.9,18.75-5.523Zm9.938-.125a11.005,11.005,0,0,1-.254,2.492A5.807,5.807,0,0,1,27.7-1.324,3.305,3.305,0,0,1,26.52-.191,3.23,3.23,0,0,1,24.93.2a3.016,3.016,0,0,1-1.5-.371,3.152,3.152,0,0,1-1.113-1.082A5.484,5.484,0,0,1,21.625-3a10.8,10.8,0,0,1-.234-2.371,12.222,12.222,0,0,1,.246-2.594,5.933,5.933,0,0,1,.723-1.887A3.216,3.216,0,0,1,23.543-11a3.323,3.323,0,0,1,1.621-.387Q28.688-11.391,28.688-5.648Zm-1.312.125q0-4.781-2.273-4.781-2.4,0-2.4,4.867Q22.7-.9,25.055-.9,27.375-.9,27.375-5.523Zm9.938-.125a11.005,11.005,0,0,1-.254,2.492,5.807,5.807,0,0,1-.734,1.832,3.305,3.305,0,0,1-1.18,1.133A3.23,3.23,0,0,1,33.555.2a3.016,3.016,0,0,1-1.5-.371,3.152,3.152,0,0,1-1.113-1.082A5.484,5.484,0,0,1,30.25-3a10.8,10.8,0,0,1-.234-2.371,12.222,12.222,0,0,1,.246-2.594,5.933,5.933,0,0,1,.723-1.887A3.216,3.216,0,0,1,32.168-11a3.323,3.323,0,0,1,1.621-.387Q37.312-11.391,37.313-5.648ZM36-5.523Q36-10.3,33.727-10.3q-2.4,0-2.4,4.867Q31.328-.9,33.68-.9,36-.9,36-5.523Zm3.711,5.7A.829.829,0,0,1,39.1-.086.849.849,0,0,1,38.844-.7a.862.862,0,0,1,.254-.621.823.823,0,0,1,.613-.262.845.845,0,0,1,.625.262.855.855,0,0,1,.258.621.842.842,0,0,1-.258.617A.851.851,0,0,1,39.711.172Zm9.7-5.82a11.005,11.005,0,0,1-.254,2.492,5.807,5.807,0,0,1-.734,1.832,3.305,3.305,0,0,1-1.18,1.133A3.23,3.23,0,0,1,45.648.2a3.016,3.016,0,0,1-1.5-.371,3.152,3.152,0,0,1-1.113-1.082A5.484,5.484,0,0,1,42.344-3a10.8,10.8,0,0,1-.234-2.371,12.222,12.222,0,0,1,.246-2.594,5.933,5.933,0,0,1,.723-1.887A3.216,3.216,0,0,1,44.262-11a3.323,3.323,0,0,1,1.621-.387Q49.406-11.391,49.406-5.648Zm-1.312.125q0-4.781-2.273-4.781-2.4,0-2.4,4.867Q43.422-.9,45.773-.9,48.094-.9,48.094-5.523Zm9.938-.125a11.005,11.005,0,0,1-.254,2.492,5.807,5.807,0,0,1-.734,1.832,3.305,3.305,0,0,1-1.18,1.133A3.23,3.23,0,0,1,54.273.2a3.016,3.016,0,0,1-1.5-.371,3.152,3.152,0,0,1-1.113-1.082A5.484,5.484,0,0,1,50.969-3a10.8,10.8,0,0,1-.234-2.371,12.222,12.222,0,0,1,.246-2.594A5.933,5.933,0,0,1,51.7-9.855,3.216,3.216,0,0,1,52.887-11a3.323,3.323,0,0,1,1.621-.387Q58.031-11.391,58.031-5.648Zm-1.312.125q0-4.781-2.273-4.781-2.4,0-2.4,4.867Q52.047-.9,54.4-.9,56.719-.9,56.719-5.523Zm9.938-.125A11.005,11.005,0,0,1,66.4-3.156a5.807,5.807,0,0,1-.734,1.832,3.305,3.305,0,0,1-1.18,1.133A3.23,3.23,0,0,1,62.9.2a3.016,3.016,0,0,1-1.5-.371,3.152,3.152,0,0,1-1.113-1.082A5.484,5.484,0,0,1,59.594-3a10.8,10.8,0,0,1-.234-2.371,12.222,12.222,0,0,1,.246-2.594,5.933,5.933,0,0,1,.723-1.887A3.216,3.216,0,0,1,61.512-11a3.323,3.323,0,0,1,1.621-.387Q66.656-11.391,66.656-5.648Zm-1.312.125q0-4.781-2.273-4.781-2.4,0-2.4,4.867Q60.672-.9,63.023-.9,65.344-.9,65.344-5.523Z" transform="translate(312 176.182)" fill="#12263f"/>
          <path id="Trazado_103331" data-name="Trazado 103331" d="M6.641-11.2v7.4H8.078v1.172H6.641V0H5.375V-2.633H.109V-3.742q.734-.828,1.484-1.77t1.434-1.91q.684-.969,1.266-1.934a17.671,17.671,0,0,0,.98-1.848ZM1.555-3.8h3.82V-9.289Q4.789-8.266,4.266-7.461T3.27-6q-.473.656-.9,1.188T1.555-3.8ZM10.367.172a.829.829,0,0,1-.613-.258A.849.849,0,0,1,9.5-.7a.862.862,0,0,1,.254-.621.823.823,0,0,1,.613-.262.845.845,0,0,1,.625.262A.855.855,0,0,1,11.25-.7a.842.842,0,0,1-.258.617A.851.851,0,0,1,10.367.172Zm9.7-5.82a11.005,11.005,0,0,1-.254,2.492,5.807,5.807,0,0,1-.734,1.832,3.305,3.305,0,0,1-1.18,1.133A3.23,3.23,0,0,1,16.3.2a3.016,3.016,0,0,1-1.5-.371,3.152,3.152,0,0,1-1.113-1.082A5.484,5.484,0,0,1,13-3a10.8,10.8,0,0,1-.234-2.371,12.222,12.222,0,0,1,.246-2.594,5.933,5.933,0,0,1,.723-1.887A3.216,3.216,0,0,1,14.918-11a3.323,3.323,0,0,1,1.621-.387Q20.063-11.391,20.063-5.648Zm-1.312.125q0-4.781-2.273-4.781-2.4,0-2.4,4.867Q14.078-.9,16.43-.9,18.75-.9,18.75-5.523Zm9.938-.125a11.005,11.005,0,0,1-.254,2.492A5.807,5.807,0,0,1,27.7-1.324,3.305,3.305,0,0,1,26.52-.191,3.23,3.23,0,0,1,24.93.2a3.016,3.016,0,0,1-1.5-.371,3.152,3.152,0,0,1-1.113-1.082A5.484,5.484,0,0,1,21.625-3a10.8,10.8,0,0,1-.234-2.371,12.222,12.222,0,0,1,.246-2.594,5.933,5.933,0,0,1,.723-1.887A3.216,3.216,0,0,1,23.543-11a3.323,3.323,0,0,1,1.621-.387Q28.688-11.391,28.688-5.648Zm-1.312.125q0-4.781-2.273-4.781-2.4,0-2.4,4.867Q22.7-.9,25.055-.9,27.375-.9,27.375-5.523Zm9.938-.125a11.005,11.005,0,0,1-.254,2.492,5.807,5.807,0,0,1-.734,1.832,3.305,3.305,0,0,1-1.18,1.133A3.23,3.23,0,0,1,33.555.2a3.016,3.016,0,0,1-1.5-.371,3.152,3.152,0,0,1-1.113-1.082A5.484,5.484,0,0,1,30.25-3a10.8,10.8,0,0,1-.234-2.371,12.222,12.222,0,0,1,.246-2.594,5.933,5.933,0,0,1,.723-1.887A3.216,3.216,0,0,1,32.168-11a3.323,3.323,0,0,1,1.621-.387Q37.312-11.391,37.313-5.648ZM36-5.523Q36-10.3,33.727-10.3q-2.4,0-2.4,4.867Q31.328-.9,33.68-.9,36-.9,36-5.523Zm3.711,5.7A.829.829,0,0,1,39.1-.086.849.849,0,0,1,38.844-.7a.862.862,0,0,1,.254-.621.823.823,0,0,1,.613-.262.845.845,0,0,1,.625.262.855.855,0,0,1,.258.621.842.842,0,0,1-.258.617A.851.851,0,0,1,39.711.172Zm9.7-5.82a11.005,11.005,0,0,1-.254,2.492,5.807,5.807,0,0,1-.734,1.832,3.305,3.305,0,0,1-1.18,1.133A3.23,3.23,0,0,1,45.648.2a3.016,3.016,0,0,1-1.5-.371,3.152,3.152,0,0,1-1.113-1.082A5.484,5.484,0,0,1,42.344-3a10.8,10.8,0,0,1-.234-2.371,12.222,12.222,0,0,1,.246-2.594,5.933,5.933,0,0,1,.723-1.887A3.216,3.216,0,0,1,44.262-11a3.323,3.323,0,0,1,1.621-.387Q49.406-11.391,49.406-5.648Zm-1.312.125q0-4.781-2.273-4.781-2.4,0-2.4,4.867Q43.422-.9,45.773-.9,48.094-.9,48.094-5.523Zm9.938-.125a11.005,11.005,0,0,1-.254,2.492,5.807,5.807,0,0,1-.734,1.832,3.305,3.305,0,0,1-1.18,1.133A3.23,3.23,0,0,1,54.273.2a3.016,3.016,0,0,1-1.5-.371,3.152,3.152,0,0,1-1.113-1.082A5.484,5.484,0,0,1,50.969-3a10.8,10.8,0,0,1-.234-2.371,12.222,12.222,0,0,1,.246-2.594A5.933,5.933,0,0,1,51.7-9.855,3.216,3.216,0,0,1,52.887-11a3.323,3.323,0,0,1,1.621-.387Q58.031-11.391,58.031-5.648Zm-1.312.125q0-4.781-2.273-4.781-2.4,0-2.4,4.867Q52.047-.9,54.4-.9,56.719-.9,56.719-5.523Zm9.938-.125A11.005,11.005,0,0,1,66.4-3.156a5.807,5.807,0,0,1-.734,1.832,3.305,3.305,0,0,1-1.18,1.133A3.23,3.23,0,0,1,62.9.2a3.016,3.016,0,0,1-1.5-.371,3.152,3.152,0,0,1-1.113-1.082A5.484,5.484,0,0,1,59.594-3a10.8,10.8,0,0,1-.234-2.371,12.222,12.222,0,0,1,.246-2.594,5.933,5.933,0,0,1,.723-1.887A3.216,3.216,0,0,1,61.512-11a3.323,3.323,0,0,1,1.621-.387Q66.656-11.391,66.656-5.648Zm-1.312.125q0-4.781-2.273-4.781-2.4,0-2.4,4.867Q60.672-.9,63.023-.9,65.344-.9,65.344-5.523Z" transform="translate(934 176.182)" fill="#12263f"/>
          <path id="Trazado_103329" data-name="Trazado 103329" d="M-27.016-11.2v7.4h1.438v1.172h-1.437V0h-1.266V-2.633h-5.266V-3.742q.734-.828,1.484-1.77t1.434-1.91q.684-.969,1.266-1.934a17.671,17.671,0,0,0,.98-1.848ZM-32.1-3.8h3.82V-9.289q-.586,1.023-1.109,1.828t-1,1.461q-.473.656-.9,1.188T-32.1-3.8ZM-23.289.172A.829.829,0,0,1-23.9-.086.849.849,0,0,1-24.156-.7a.862.862,0,0,1,.254-.621.823.823,0,0,1,.613-.262.845.845,0,0,1,.625.262.855.855,0,0,1,.258.621.842.842,0,0,1-.258.617A.851.851,0,0,1-23.289.172Zm9.7-5.82a11.005,11.005,0,0,1-.254,2.492,5.807,5.807,0,0,1-.734,1.832,3.305,3.305,0,0,1-1.18,1.133A3.23,3.23,0,0,1-17.352.2a3.016,3.016,0,0,1-1.5-.371,3.152,3.152,0,0,1-1.113-1.082A5.484,5.484,0,0,1-20.656-3a10.8,10.8,0,0,1-.234-2.371,12.222,12.222,0,0,1,.246-2.594,5.933,5.933,0,0,1,.723-1.887A3.216,3.216,0,0,1-18.738-11a3.323,3.323,0,0,1,1.621-.387Q-13.594-11.391-13.594-5.648Zm-1.312.125q0-4.781-2.273-4.781-2.4,0-2.4,4.867,0,4.539,2.352,4.539Q-14.906-.9-14.906-5.523Zm9.938-.125a11.005,11.005,0,0,1-.254,2.492,5.807,5.807,0,0,1-.734,1.832A3.305,3.305,0,0,1-7.137-.191,3.23,3.23,0,0,1-8.727.2a3.016,3.016,0,0,1-1.5-.371,3.152,3.152,0,0,1-1.113-1.082A5.484,5.484,0,0,1-12.031-3a10.8,10.8,0,0,1-.234-2.371,12.222,12.222,0,0,1,.246-2.594A5.933,5.933,0,0,1-11.3-9.855,3.216,3.216,0,0,1-10.113-11a3.323,3.323,0,0,1,1.621-.387Q-4.969-11.391-4.969-5.648Zm-1.312.125q0-4.781-2.273-4.781-2.4,0-2.4,4.867Q-10.953-.9-8.6-.9-6.281-.9-6.281-5.523Zm9.938-.125A11.005,11.005,0,0,1,3.4-3.156a5.807,5.807,0,0,1-.734,1.832A3.305,3.305,0,0,1,1.488-.191,3.23,3.23,0,0,1-.1.2a3.016,3.016,0,0,1-1.5-.371A3.152,3.152,0,0,1-2.719-1.258,5.484,5.484,0,0,1-3.406-3a10.8,10.8,0,0,1-.234-2.371,12.222,12.222,0,0,1,.246-2.594,5.933,5.933,0,0,1,.723-1.887A3.216,3.216,0,0,1-1.488-11a3.323,3.323,0,0,1,1.621-.387Q3.656-11.391,3.656-5.648Zm-1.312.125Q2.344-10.3.07-10.3q-2.4,0-2.4,4.867Q-2.328-.9.023-.9,2.344-.9,2.344-5.523ZM6.055.172a.829.829,0,0,1-.613-.258A.849.849,0,0,1,5.188-.7a.862.862,0,0,1,.254-.621.823.823,0,0,1,.613-.262.845.845,0,0,1,.625.262A.855.855,0,0,1,6.938-.7a.842.842,0,0,1-.258.617A.851.851,0,0,1,6.055.172Zm9.7-5.82A11.005,11.005,0,0,1,15.5-3.156a5.807,5.807,0,0,1-.734,1.832,3.305,3.305,0,0,1-1.18,1.133A3.23,3.23,0,0,1,11.992.2a3.016,3.016,0,0,1-1.5-.371A3.152,3.152,0,0,1,9.375-1.258,5.484,5.484,0,0,1,8.688-3a10.8,10.8,0,0,1-.234-2.371A12.222,12.222,0,0,1,8.7-7.969a5.933,5.933,0,0,1,.723-1.887A3.216,3.216,0,0,1,10.605-11a3.323,3.323,0,0,1,1.621-.387Q15.75-11.391,15.75-5.648Zm-1.312.125q0-4.781-2.273-4.781-2.4,0-2.4,4.867Q9.766-.9,12.117-.9,14.437-.9,14.438-5.523Zm9.938-.125a11.005,11.005,0,0,1-.254,2.492,5.807,5.807,0,0,1-.734,1.832,3.305,3.305,0,0,1-1.18,1.133A3.23,3.23,0,0,1,20.617.2a3.016,3.016,0,0,1-1.5-.371A3.152,3.152,0,0,1,18-1.258,5.484,5.484,0,0,1,17.313-3a10.8,10.8,0,0,1-.234-2.371,12.222,12.222,0,0,1,.246-2.594,5.933,5.933,0,0,1,.723-1.887A3.216,3.216,0,0,1,19.23-11a3.323,3.323,0,0,1,1.621-.387Q24.375-11.391,24.375-5.648Zm-1.312.125q0-4.781-2.273-4.781-2.4,0-2.4,4.867Q18.391-.9,20.742-.9,23.063-.9,23.063-5.523ZM33-5.648a11.005,11.005,0,0,1-.254,2.492,5.807,5.807,0,0,1-.734,1.832,3.305,3.305,0,0,1-1.18,1.133A3.23,3.23,0,0,1,29.242.2a3.016,3.016,0,0,1-1.5-.371,3.152,3.152,0,0,1-1.113-1.082A5.484,5.484,0,0,1,25.938-3,10.8,10.8,0,0,1,25.7-5.375a12.222,12.222,0,0,1,.246-2.594,5.933,5.933,0,0,1,.723-1.887A3.216,3.216,0,0,1,27.855-11a3.323,3.323,0,0,1,1.621-.387Q33-11.391,33-5.648Zm-1.312.125q0-4.781-2.273-4.781-2.4,0-2.4,4.867Q27.016-.9,29.367-.9,31.688-.9,31.688-5.523Z" transform="translate(536 275.525)" fill="#12263f"/>
          <path id="Trazado_103333" data-name="Trazado 103333" d="M-27.016-11.2v7.4h1.438v1.172h-1.437V0h-1.266V-2.633h-5.266V-3.742q.734-.828,1.484-1.77t1.434-1.91q.684-.969,1.266-1.934a17.671,17.671,0,0,0,.98-1.848ZM-32.1-3.8h3.82V-9.289q-.586,1.023-1.109,1.828t-1,1.461q-.473.656-.9,1.188T-32.1-3.8ZM-23.289.172A.829.829,0,0,1-23.9-.086.849.849,0,0,1-24.156-.7a.862.862,0,0,1,.254-.621.823.823,0,0,1,.613-.262.845.845,0,0,1,.625.262.855.855,0,0,1,.258.621.842.842,0,0,1-.258.617A.851.851,0,0,1-23.289.172Zm9.7-5.82a11.005,11.005,0,0,1-.254,2.492,5.807,5.807,0,0,1-.734,1.832,3.305,3.305,0,0,1-1.18,1.133A3.23,3.23,0,0,1-17.352.2a3.016,3.016,0,0,1-1.5-.371,3.152,3.152,0,0,1-1.113-1.082A5.484,5.484,0,0,1-20.656-3a10.8,10.8,0,0,1-.234-2.371,12.222,12.222,0,0,1,.246-2.594,5.933,5.933,0,0,1,.723-1.887A3.216,3.216,0,0,1-18.738-11a3.323,3.323,0,0,1,1.621-.387Q-13.594-11.391-13.594-5.648Zm-1.312.125q0-4.781-2.273-4.781-2.4,0-2.4,4.867,0,4.539,2.352,4.539Q-14.906-.9-14.906-5.523Zm9.938-.125a11.005,11.005,0,0,1-.254,2.492,5.807,5.807,0,0,1-.734,1.832A3.305,3.305,0,0,1-7.137-.191,3.23,3.23,0,0,1-8.727.2a3.016,3.016,0,0,1-1.5-.371,3.152,3.152,0,0,1-1.113-1.082A5.484,5.484,0,0,1-12.031-3a10.8,10.8,0,0,1-.234-2.371,12.222,12.222,0,0,1,.246-2.594A5.933,5.933,0,0,1-11.3-9.855,3.216,3.216,0,0,1-10.113-11a3.323,3.323,0,0,1,1.621-.387Q-4.969-11.391-4.969-5.648Zm-1.312.125q0-4.781-2.273-4.781-2.4,0-2.4,4.867Q-10.953-.9-8.6-.9-6.281-.9-6.281-5.523Zm9.938-.125A11.005,11.005,0,0,1,3.4-3.156a5.807,5.807,0,0,1-.734,1.832A3.305,3.305,0,0,1,1.488-.191,3.23,3.23,0,0,1-.1.2a3.016,3.016,0,0,1-1.5-.371A3.152,3.152,0,0,1-2.719-1.258,5.484,5.484,0,0,1-3.406-3a10.8,10.8,0,0,1-.234-2.371,12.222,12.222,0,0,1,.246-2.594,5.933,5.933,0,0,1,.723-1.887A3.216,3.216,0,0,1-1.488-11a3.323,3.323,0,0,1,1.621-.387Q3.656-11.391,3.656-5.648Zm-1.312.125Q2.344-10.3.07-10.3q-2.4,0-2.4,4.867Q-2.328-.9.023-.9,2.344-.9,2.344-5.523ZM6.055.172a.829.829,0,0,1-.613-.258A.849.849,0,0,1,5.188-.7a.862.862,0,0,1,.254-.621.823.823,0,0,1,.613-.262.845.845,0,0,1,.625.262A.855.855,0,0,1,6.938-.7a.842.842,0,0,1-.258.617A.851.851,0,0,1,6.055.172Zm9.7-5.82A11.005,11.005,0,0,1,15.5-3.156a5.807,5.807,0,0,1-.734,1.832,3.305,3.305,0,0,1-1.18,1.133A3.23,3.23,0,0,1,11.992.2a3.016,3.016,0,0,1-1.5-.371A3.152,3.152,0,0,1,9.375-1.258,5.484,5.484,0,0,1,8.688-3a10.8,10.8,0,0,1-.234-2.371A12.222,12.222,0,0,1,8.7-7.969a5.933,5.933,0,0,1,.723-1.887A3.216,3.216,0,0,1,10.605-11a3.323,3.323,0,0,1,1.621-.387Q15.75-11.391,15.75-5.648Zm-1.312.125q0-4.781-2.273-4.781-2.4,0-2.4,4.867Q9.766-.9,12.117-.9,14.437-.9,14.438-5.523Zm9.938-.125a11.005,11.005,0,0,1-.254,2.492,5.807,5.807,0,0,1-.734,1.832,3.305,3.305,0,0,1-1.18,1.133A3.23,3.23,0,0,1,20.617.2a3.016,3.016,0,0,1-1.5-.371A3.152,3.152,0,0,1,18-1.258,5.484,5.484,0,0,1,17.313-3a10.8,10.8,0,0,1-.234-2.371,12.222,12.222,0,0,1,.246-2.594,5.933,5.933,0,0,1,.723-1.887A3.216,3.216,0,0,1,19.23-11a3.323,3.323,0,0,1,1.621-.387Q24.375-11.391,24.375-5.648Zm-1.312.125q0-4.781-2.273-4.781-2.4,0-2.4,4.867Q18.391-.9,20.742-.9,23.063-.9,23.063-5.523ZM33-5.648a11.005,11.005,0,0,1-.254,2.492,5.807,5.807,0,0,1-.734,1.832,3.305,3.305,0,0,1-1.18,1.133A3.23,3.23,0,0,1,29.242.2a3.016,3.016,0,0,1-1.5-.371,3.152,3.152,0,0,1-1.113-1.082A5.484,5.484,0,0,1,25.938-3,10.8,10.8,0,0,1,25.7-5.375a12.222,12.222,0,0,1,.246-2.594,5.933,5.933,0,0,1,.723-1.887A3.216,3.216,0,0,1,27.855-11a3.323,3.323,0,0,1,1.621-.387Q33-11.391,33-5.648Zm-1.312.125q0-4.781-2.273-4.781-2.4,0-2.4,4.867Q27.016-.9,29.367-.9,31.688-.9,31.688-5.523Z" transform="translate(1158 290.693)" fill="#12263f"/>
          <line id="Línea_140" data-name="Línea 140" y2="194" transform="translate(292 137.693)" fill="none" stroke="#afafaf" stroke-linecap="round" stroke-width="1"/>
          <line id="Línea_157" data-name="Línea 157" y2="194" transform="translate(914 137.693)" fill="none" stroke="#afafaf" stroke-linecap="round" stroke-width="1"/>
          <line id="Línea_139" data-name="Línea 139" y2="194" transform="translate(450 137.693)" fill="none" stroke="#afafaf" stroke-linecap="round" stroke-width="1"/>
          <line id="Línea_156" data-name="Línea 156" y2="244.408" transform="translate(1072 87.693)" fill="none" stroke="#afafaf" stroke-linecap="round" stroke-width="1"/>
          <path id="Trazado_99453" data-name="Trazado 99453" d="M0,0H604V60.672H0Z" transform="translate(0 58.424)" fill="#d9a171"/>
          <path id="Trazado_99458" data-name="Trazado 99458" d="M0,0H604V60.672H0Z" transform="translate(622 58.424)" fill="#d9a171"/>
          <path id="Trazado_103320" data-name="Trazado 103320" d="M-20.162-.343A10.653,10.653,0,0,1-23.774.22a7.351,7.351,0,0,1-3.472-.769,5.265,5.265,0,0,1-2.228-2.188,6.765,6.765,0,0,1-.769-3.274,7.207,7.207,0,0,1,.861-3.551,5.957,5.957,0,0,1,2.435-2.4,7.512,7.512,0,0,1,3.621-.848,12.586,12.586,0,0,1,3.164.4v3.507A4.465,4.465,0,0,0-21.419-9.4,6.282,6.282,0,0,0-22.9-9.58a3.305,3.305,0,0,0-2.439.888,3.245,3.245,0,0,0-.892,2.408A3.189,3.189,0,0,0-25.334-3.9a3.261,3.261,0,0,0,2.386.875,6.191,6.191,0,0,0,2.786-.7ZM-12.814,0V-1.389h-.035a4.926,4.926,0,0,1-.839.94,3.23,3.23,0,0,1-.844.483A2.983,2.983,0,0,1-15.627.22a2.722,2.722,0,0,1-2.25-.958,4.429,4.429,0,0,1-.773-2.83V-9h3.744v5.15q0,1.327.993,1.327a.972.972,0,0,0,.822-.36,1.642,1.642,0,0,0,.277-1.02V-9H-9.07V0Zm8.763-3.437a1.265,1.265,0,0,0,.668.91,3.012,3.012,0,0,0,1.512.33A6.226,6.226,0,0,0,.606-2.7V-.325A8.908,8.908,0,0,1-2.7.22a5.214,5.214,0,0,1-3.665-1.2A4.277,4.277,0,0,1-7.673-4.3,5.467,5.467,0,0,1-7.1-6.855,4.142,4.142,0,0,1-5.392-8.591,5.038,5.038,0,0,1-2.9-9.22,4.9,4.9,0,0,1-.51-8.675,3.63,3.63,0,0,1,1-7.146a4.906,4.906,0,0,1,.514,2.3v1.406ZM-1.8-5.4q0-1.556-1.116-1.556a.944.944,0,0,0-.782.426A2.127,2.127,0,0,0-4.069-5.4ZM8.64,0V-4.913a2.184,2.184,0,0,0-.25-1.2.915.915,0,0,0-.813-.365A.88.88,0,0,0,6.82-6.1a1.613,1.613,0,0,0-.272.967V0H2.8V-9H6.548v1.406h.035a3.177,3.177,0,0,1,1.2-1.2A3.29,3.29,0,0,1,9.431-9.22q2.953,0,2.953,3.727V0ZM20.408-.123a3.648,3.648,0,0,1-.835.233,7.634,7.634,0,0,1-1.4.11,3.357,3.357,0,0,1-2.448-.861,3.269,3.269,0,0,1-.883-2.452V-6.407H13.43V-9h1.415v-1.767l3.691-1.02V-9h1.872v2.593H18.536v2.7q0,1.187.94,1.187a2.551,2.551,0,0,0,.932-.193ZM26.569,0V-1.371h-.035A2.944,2.944,0,0,1,23.792.22a2.625,2.625,0,0,1-2-.756,2.808,2.808,0,0,1-.721-2.021q0-2.654,3.261-3.076l2.232-.29a.851.851,0,0,0-.4-.721,1.8,1.8,0,0,0-1.063-.281,7,7,0,0,0-3.19.861V-8.5a8.535,8.535,0,0,1,1.828-.519,10.639,10.639,0,0,1,1.881-.2,4.722,4.722,0,0,1,3.327.98,4.368,4.368,0,0,1,1.033,3.274V0ZM24.354-3.059a.83.83,0,0,0,.233.606.888.888,0,0,0,.664.237,1.18,1.18,0,0,0,.954-.439,1.7,1.7,0,0,0,.365-1.125v-.343L25.3-3.946Q24.354-3.788,24.354-3.059Z" transform="translate(108 96.191)" fill="#fff"/>
          <path id="Trazado_103323" data-name="Trazado 103323" d="M-20.162-.343A10.653,10.653,0,0,1-23.774.22a7.351,7.351,0,0,1-3.472-.769,5.265,5.265,0,0,1-2.228-2.188,6.765,6.765,0,0,1-.769-3.274,7.207,7.207,0,0,1,.861-3.551,5.957,5.957,0,0,1,2.435-2.4,7.512,7.512,0,0,1,3.621-.848,12.586,12.586,0,0,1,3.164.4v3.507A4.465,4.465,0,0,0-21.419-9.4,6.282,6.282,0,0,0-22.9-9.58a3.305,3.305,0,0,0-2.439.888,3.245,3.245,0,0,0-.892,2.408A3.189,3.189,0,0,0-25.334-3.9a3.261,3.261,0,0,0,2.386.875,6.191,6.191,0,0,0,2.786-.7ZM-12.814,0V-1.389h-.035a4.926,4.926,0,0,1-.839.94,3.23,3.23,0,0,1-.844.483A2.983,2.983,0,0,1-15.627.22a2.722,2.722,0,0,1-2.25-.958,4.429,4.429,0,0,1-.773-2.83V-9h3.744v5.15q0,1.327.993,1.327a.972.972,0,0,0,.822-.36,1.642,1.642,0,0,0,.277-1.02V-9H-9.07V0Zm8.763-3.437a1.265,1.265,0,0,0,.668.91,3.012,3.012,0,0,0,1.512.33A6.226,6.226,0,0,0,.606-2.7V-.325A8.908,8.908,0,0,1-2.7.22a5.214,5.214,0,0,1-3.665-1.2A4.277,4.277,0,0,1-7.673-4.3,5.467,5.467,0,0,1-7.1-6.855,4.142,4.142,0,0,1-5.392-8.591,5.038,5.038,0,0,1-2.9-9.22,4.9,4.9,0,0,1-.51-8.675,3.63,3.63,0,0,1,1-7.146a4.906,4.906,0,0,1,.514,2.3v1.406ZM-1.8-5.4q0-1.556-1.116-1.556a.944.944,0,0,0-.782.426A2.127,2.127,0,0,0-4.069-5.4ZM8.64,0V-4.913a2.184,2.184,0,0,0-.25-1.2.915.915,0,0,0-.813-.365A.88.88,0,0,0,6.82-6.1a1.613,1.613,0,0,0-.272.967V0H2.8V-9H6.548v1.406h.035a3.177,3.177,0,0,1,1.2-1.2A3.29,3.29,0,0,1,9.431-9.22q2.953,0,2.953,3.727V0ZM20.408-.123a3.648,3.648,0,0,1-.835.233,7.634,7.634,0,0,1-1.4.11,3.357,3.357,0,0,1-2.448-.861,3.269,3.269,0,0,1-.883-2.452V-6.407H13.43V-9h1.415v-1.767l3.691-1.02V-9h1.872v2.593H18.536v2.7q0,1.187.94,1.187a2.551,2.551,0,0,0,.932-.193ZM26.569,0V-1.371h-.035A2.944,2.944,0,0,1,23.792.22a2.625,2.625,0,0,1-2-.756,2.808,2.808,0,0,1-.721-2.021q0-2.654,3.261-3.076l2.232-.29a.851.851,0,0,0-.4-.721,1.8,1.8,0,0,0-1.063-.281,7,7,0,0,0-3.19.861V-8.5a8.535,8.535,0,0,1,1.828-.519,10.639,10.639,0,0,1,1.881-.2,4.722,4.722,0,0,1,3.327.98,4.368,4.368,0,0,1,1.033,3.274V0ZM24.354-3.059a.83.83,0,0,0,.233.606.888.888,0,0,0,.664.237,1.18,1.18,0,0,0,.954-.439,1.7,1.7,0,0,0,.365-1.125v-.343L25.3-3.946Q24.354-3.788,24.354-3.059Z" transform="translate(730 96.191)" fill="#fff"/>
          <path id="Trazado_103321" data-name="Trazado 103321" d="M-9.567-6.46a6.954,6.954,0,0,1-.8,3.388A5.542,5.542,0,0,1-12.669-.8a7.189,7.189,0,0,1-3.445.8H-21.45V-12.6h5.221Q-9.567-12.6-9.567-6.46Zm-4.034.035a3.627,3.627,0,0,0-.374-1.661,2.7,2.7,0,0,0-1.068-1.143,3.191,3.191,0,0,0-1.635-.4h-.976v6.662h1.063a2.736,2.736,0,0,0,2.175-.936A3.707,3.707,0,0,0-13.6-6.425Zm8.692,2.988a1.265,1.265,0,0,0,.668.91,3.012,3.012,0,0,0,1.512.33A6.226,6.226,0,0,0-.25-2.7V-.325a8.908,8.908,0,0,1-3.3.545A5.214,5.214,0,0,1-7.22-.984,4.277,4.277,0,0,1-8.53-4.3a5.467,5.467,0,0,1,.576-2.558A4.142,4.142,0,0,1-6.249-8.591,5.038,5.038,0,0,1-3.757-9.22a4.9,4.9,0,0,1,2.391.545A3.63,3.63,0,0,1,.141-7.146a4.906,4.906,0,0,1,.514,2.3v1.406Zm2.25-1.96q0-1.556-1.116-1.556a.944.944,0,0,0-.782.426A2.127,2.127,0,0,0-4.926-5.4ZM12.1-4.772a6.586,6.586,0,0,1-.488,2.615A3.975,3.975,0,0,1,10.226-.4,3.486,3.486,0,0,1,8.2.22,3.2,3.2,0,0,1,6.706-.1a2.683,2.683,0,0,1-.98-.831H5.691V0H1.947V-13.324H5.691v5.546h.035A3.083,3.083,0,0,1,6.917-8.833,3.567,3.567,0,0,1,8.574-9.22a3.157,3.157,0,0,1,2.615,1.134A5.2,5.2,0,0,1,12.1-4.772Zm-3.8.114a2.234,2.234,0,0,0-.347-1.362,1.177,1.177,0,0,0-1-.457A1.174,1.174,0,0,0,6-6a1.933,1.933,0,0,0-.382,1.244v.545a2,2,0,0,0,.343,1.23,1.094,1.094,0,0,0,.923.457,1.182,1.182,0,0,0,1.046-.558A2.849,2.849,0,0,0,8.3-4.658ZM16.73-3.437a1.265,1.265,0,0,0,.668.91,3.012,3.012,0,0,0,1.512.33,6.226,6.226,0,0,0,2.479-.5V-.325a8.908,8.908,0,0,1-3.3.545,5.214,5.214,0,0,1-3.665-1.2A4.277,4.277,0,0,1,13.109-4.3a5.467,5.467,0,0,1,.576-2.558A4.142,4.142,0,0,1,15.39-8.591a5.038,5.038,0,0,1,2.492-.628,4.9,4.9,0,0,1,2.391.545,3.63,3.63,0,0,1,1.507,1.529,4.906,4.906,0,0,1,.514,2.3v1.406ZM18.98-5.4q0-1.556-1.116-1.556a.944.944,0,0,0-.782.426A2.127,2.127,0,0,0,16.712-5.4Z" transform="translate(368 96.161)" fill="#fff"/>
          <path id="Trazado_103324" data-name="Trazado 103324" d="M-9.567-6.46a6.954,6.954,0,0,1-.8,3.388A5.542,5.542,0,0,1-12.669-.8a7.189,7.189,0,0,1-3.445.8H-21.45V-12.6h5.221Q-9.567-12.6-9.567-6.46Zm-4.034.035a3.627,3.627,0,0,0-.374-1.661,2.7,2.7,0,0,0-1.068-1.143,3.191,3.191,0,0,0-1.635-.4h-.976v6.662h1.063a2.736,2.736,0,0,0,2.175-.936A3.707,3.707,0,0,0-13.6-6.425Zm8.692,2.988a1.265,1.265,0,0,0,.668.91,3.012,3.012,0,0,0,1.512.33A6.226,6.226,0,0,0-.25-2.7V-.325a8.908,8.908,0,0,1-3.3.545A5.214,5.214,0,0,1-7.22-.984,4.277,4.277,0,0,1-8.53-4.3a5.467,5.467,0,0,1,.576-2.558A4.142,4.142,0,0,1-6.249-8.591,5.038,5.038,0,0,1-3.757-9.22a4.9,4.9,0,0,1,2.391.545A3.63,3.63,0,0,1,.141-7.146a4.906,4.906,0,0,1,.514,2.3v1.406Zm2.25-1.96q0-1.556-1.116-1.556a.944.944,0,0,0-.782.426A2.127,2.127,0,0,0-4.926-5.4ZM12.1-4.772a6.586,6.586,0,0,1-.488,2.615A3.975,3.975,0,0,1,10.226-.4,3.486,3.486,0,0,1,8.2.22,3.2,3.2,0,0,1,6.706-.1a2.683,2.683,0,0,1-.98-.831H5.691V0H1.947V-13.324H5.691v5.546h.035A3.083,3.083,0,0,1,6.917-8.833,3.567,3.567,0,0,1,8.574-9.22a3.157,3.157,0,0,1,2.615,1.134A5.2,5.2,0,0,1,12.1-4.772Zm-3.8.114a2.234,2.234,0,0,0-.347-1.362,1.177,1.177,0,0,0-1-.457A1.174,1.174,0,0,0,6-6a1.933,1.933,0,0,0-.382,1.244v.545a2,2,0,0,0,.343,1.23,1.094,1.094,0,0,0,.923.457,1.182,1.182,0,0,0,1.046-.558A2.849,2.849,0,0,0,8.3-4.658ZM16.73-3.437a1.265,1.265,0,0,0,.668.91,3.012,3.012,0,0,0,1.512.33,6.226,6.226,0,0,0,2.479-.5V-.325a8.908,8.908,0,0,1-3.3.545,5.214,5.214,0,0,1-3.665-1.2A4.277,4.277,0,0,1,13.109-4.3a5.467,5.467,0,0,1,.576-2.558A4.142,4.142,0,0,1,15.39-8.591a5.038,5.038,0,0,1,2.492-.628,4.9,4.9,0,0,1,2.391.545,3.63,3.63,0,0,1,1.507,1.529,4.906,4.906,0,0,1,.514,2.3v1.406ZM18.98-5.4q0-1.556-1.116-1.556a.944.944,0,0,0-.782.426A2.127,2.127,0,0,0,16.712-5.4Z" transform="translate(990 96.161)" fill="#fff"/>
          <path id="Trazado_103322" data-name="Trazado 103322" d="M-17.618,0V-4.7h-4.359V0h-3.8V-12.6h3.8v4.667h4.359V-12.6h3.8V0ZM-6.684,0V-1.371h-.035A2.944,2.944,0,0,1-9.461.22a2.625,2.625,0,0,1-2-.756,2.808,2.808,0,0,1-.721-2.021q0-2.654,3.261-3.076l2.232-.29a.851.851,0,0,0-.4-.721,1.8,1.8,0,0,0-1.063-.281,7,7,0,0,0-3.19.861V-8.5a8.535,8.535,0,0,1,1.828-.519,10.639,10.639,0,0,1,1.881-.2A4.722,4.722,0,0,1-4.3-8.24,4.368,4.368,0,0,1-3.265-4.966V0ZM-8.9-3.059a.83.83,0,0,0,.233.606A.888.888,0,0,0-8-2.215a1.18,1.18,0,0,0,.954-.439,1.7,1.7,0,0,0,.365-1.125v-.343l-1.266.176Q-8.9-3.788-8.9-3.059ZM8.574-4.772a6.586,6.586,0,0,1-.488,2.615A3.975,3.975,0,0,1,6.7-.4a3.486,3.486,0,0,1-2.03.62A3.2,3.2,0,0,1,3.182-.1,2.683,2.683,0,0,1,2.2-.932H2.167V0H-1.578V-13.324H2.167v5.546H2.2A3.083,3.083,0,0,1,3.393-8.833,3.567,3.567,0,0,1,5.049-9.22,3.157,3.157,0,0,1,7.664-8.086,5.2,5.2,0,0,1,8.574-4.772Zm-3.8.114A2.234,2.234,0,0,0,4.43-6.021a1.177,1.177,0,0,0-1-.457A1.174,1.174,0,0,0,2.479-6,1.933,1.933,0,0,0,2.1-4.755v.545a2,2,0,0,0,.343,1.23,1.094,1.094,0,0,0,.923.457,1.182,1.182,0,0,0,1.046-.558A2.849,2.849,0,0,0,4.777-4.658Zm8.429,1.222a1.265,1.265,0,0,0,.668.91,3.012,3.012,0,0,0,1.512.33,6.226,6.226,0,0,0,2.479-.5V-.325a8.908,8.908,0,0,1-3.3.545,5.214,5.214,0,0,1-3.665-1.2A4.277,4.277,0,0,1,9.584-4.3a5.467,5.467,0,0,1,.576-2.558,4.142,4.142,0,0,1,1.705-1.736,5.038,5.038,0,0,1,2.492-.628,4.9,4.9,0,0,1,2.391.545,3.63,3.63,0,0,1,1.507,1.529,4.906,4.906,0,0,1,.514,2.3v1.406Zm2.25-1.96q0-1.556-1.116-1.556a.944.944,0,0,0-.782.426A2.127,2.127,0,0,0,13.188-5.4Zm11.373-.4a2.91,2.91,0,0,0-.571-.176,2.891,2.891,0,0,0-.6-.079q-1.854,0-1.854,2.145V0H20.061V-9h3.744v1.582h.035a2.81,2.81,0,0,1,.976-1.3,2.506,2.506,0,0,1,1.477-.444,1.269,1.269,0,0,1,.536.105Z" transform="translate(533 96.161)" fill="#fff"/>
          <path id="Trazado_103325" data-name="Trazado 103325" d="M-17.618,0V-4.7h-4.359V0h-3.8V-12.6h3.8v4.667h4.359V-12.6h3.8V0ZM-6.684,0V-1.371h-.035A2.944,2.944,0,0,1-9.461.22a2.625,2.625,0,0,1-2-.756,2.808,2.808,0,0,1-.721-2.021q0-2.654,3.261-3.076l2.232-.29a.851.851,0,0,0-.4-.721,1.8,1.8,0,0,0-1.063-.281,7,7,0,0,0-3.19.861V-8.5a8.535,8.535,0,0,1,1.828-.519,10.639,10.639,0,0,1,1.881-.2A4.722,4.722,0,0,1-4.3-8.24,4.368,4.368,0,0,1-3.265-4.966V0ZM-8.9-3.059a.83.83,0,0,0,.233.606A.888.888,0,0,0-8-2.215a1.18,1.18,0,0,0,.954-.439,1.7,1.7,0,0,0,.365-1.125v-.343l-1.266.176Q-8.9-3.788-8.9-3.059ZM8.574-4.772a6.586,6.586,0,0,1-.488,2.615A3.975,3.975,0,0,1,6.7-.4a3.486,3.486,0,0,1-2.03.62A3.2,3.2,0,0,1,3.182-.1,2.683,2.683,0,0,1,2.2-.932H2.167V0H-1.578V-13.324H2.167v5.546H2.2A3.083,3.083,0,0,1,3.393-8.833,3.567,3.567,0,0,1,5.049-9.22,3.157,3.157,0,0,1,7.664-8.086,5.2,5.2,0,0,1,8.574-4.772Zm-3.8.114A2.234,2.234,0,0,0,4.43-6.021a1.177,1.177,0,0,0-1-.457A1.174,1.174,0,0,0,2.479-6,1.933,1.933,0,0,0,2.1-4.755v.545a2,2,0,0,0,.343,1.23,1.094,1.094,0,0,0,.923.457,1.182,1.182,0,0,0,1.046-.558A2.849,2.849,0,0,0,4.777-4.658Zm8.429,1.222a1.265,1.265,0,0,0,.668.91,3.012,3.012,0,0,0,1.512.33,6.226,6.226,0,0,0,2.479-.5V-.325a8.908,8.908,0,0,1-3.3.545,5.214,5.214,0,0,1-3.665-1.2A4.277,4.277,0,0,1,9.584-4.3a5.467,5.467,0,0,1,.576-2.558,4.142,4.142,0,0,1,1.705-1.736,5.038,5.038,0,0,1,2.492-.628,4.9,4.9,0,0,1,2.391.545,3.63,3.63,0,0,1,1.507,1.529,4.906,4.906,0,0,1,.514,2.3v1.406Zm2.25-1.96q0-1.556-1.116-1.556a.944.944,0,0,0-.782.426A2.127,2.127,0,0,0,13.188-5.4Zm11.373-.4a2.91,2.91,0,0,0-.571-.176,2.891,2.891,0,0,0-.6-.079q-1.854,0-1.854,2.145V0H20.061V-9h3.744v1.582h.035a2.81,2.81,0,0,1,.976-1.3,2.506,2.506,0,0,1,1.477-.444,1.269,1.269,0,0,1,.536.105Z" transform="translate(1157 96.161)" fill="#fff"/>
        </g>
      </g>
    </g>
  </g>
</svg>
