<svg xmlns="http://www.w3.org/2000/svg" width="1228" height="517.662" viewBox="0 0 1228 517.662">
  <g id="Grupo_56413" data-name="Grupo 56413" transform="translate(9299 6299.102)">
    <path id="Trazado_103318" data-name="Trazado 103318" d="M0,0H1228V517.662H0Z" transform="translate(-9299 -6299.102)" fill="#f3f9ff"/>
    <path id="Trazado_103325" data-name="Trazado 103325" d="M.967,0V-12.8H5.089a6.064,6.064,0,0,1,3.05.769,5.406,5.406,0,0,1,2.114,2.171,6.554,6.554,0,0,1,.769,3.142v.589a6.592,6.592,0,0,1-.743,3.151A5.429,5.429,0,0,1,8.187-.8a5.93,5.93,0,0,1-3.01.8ZM4.052-10.415v8.042H5.124a2.4,2.4,0,0,0,2.039-.945,4.63,4.63,0,0,0,.712-2.808V-6.68a4.592,4.592,0,0,0-.712-2.795,2.442,2.442,0,0,0-2.074-.94ZM17.068.176a4.889,4.889,0,0,1-3.542-1.305,4.507,4.507,0,0,1-1.354-3.4v-.246a5.84,5.84,0,0,1,.541-2.575,3.955,3.955,0,0,1,1.578-1.727,4.763,4.763,0,0,1,2.461-.611,4.117,4.117,0,0,1,3.164,1.244,4.887,4.887,0,0,1,1.16,3.467v1.151H15.188a2.135,2.135,0,0,0,.694,1.257,2.066,2.066,0,0,0,1.389.457,2.662,2.662,0,0,0,2.2-.984l1.354,1.6A3.784,3.784,0,0,1,19.252-.277,5.3,5.3,0,0,1,17.068.176ZM16.734-7.4q-1.3,0-1.547,1.723h2.988v-.229a1.467,1.467,0,0,0-.36-1.1A1.434,1.434,0,0,0,16.734-7.4Zm8.982-4.474V-9.51h1.564v2.057H25.717V-3.1a1.111,1.111,0,0,0,.193.747,1.037,1.037,0,0,0,.765.211,4.345,4.345,0,0,0,.738-.053V-.079a5.466,5.466,0,0,1-1.67.255,3.1,3.1,0,0,1-2.259-.721,2.954,2.954,0,0,1-.729-2.188v-4.72H21.542V-9.51h1.213v-2.364ZM33.047.176A4.889,4.889,0,0,1,29.5-1.129a4.507,4.507,0,0,1-1.354-3.4v-.246a5.84,5.84,0,0,1,.541-2.575A3.955,3.955,0,0,1,30.27-9.075a4.763,4.763,0,0,1,2.461-.611,4.117,4.117,0,0,1,3.164,1.244,4.887,4.887,0,0,1,1.16,3.467v1.151H31.166a2.135,2.135,0,0,0,.694,1.257,2.066,2.066,0,0,0,1.389.457,2.662,2.662,0,0,0,2.2-.984l1.354,1.6A3.784,3.784,0,0,1,35.231-.277,5.3,5.3,0,0,1,33.047.176ZM32.713-7.4q-1.3,0-1.547,1.723h2.988v-.229a1.467,1.467,0,0,0-.36-1.1A1.434,1.434,0,0,0,32.713-7.4ZM44-6.829l-.976-.07a1.752,1.752,0,0,0-1.793.879V0H38.268V-9.51h2.777l.1,1.222a2.294,2.294,0,0,1,2.083-1.4,2.888,2.888,0,0,1,.826.105ZM48.19,0H45.22V-9.51H48.19ZM45.044-11.971a1.334,1.334,0,0,1,.457-1.043,1.718,1.718,0,0,1,1.187-.407,1.718,1.718,0,0,1,1.187.407,1.334,1.334,0,0,1,.457,1.043,1.334,1.334,0,0,1-.457,1.043,1.718,1.718,0,0,1-1.187.407,1.718,1.718,0,0,1-1.187-.407A1.334,1.334,0,0,1,45.044-11.971Zm4.6,7.128a5.613,5.613,0,0,1,.554-2.536,3.96,3.96,0,0,1,1.591-1.709,4.791,4.791,0,0,1,2.435-.6,4.373,4.373,0,0,1,3.366,1.323,5.076,5.076,0,0,1,1.23,3.6v.105a4.925,4.925,0,0,1-1.235,3.529A4.384,4.384,0,0,1,54.237.176a4.434,4.434,0,0,1-3.261-1.217,4.761,4.761,0,0,1-1.327-3.3Zm2.962.185a3.538,3.538,0,0,0,.413,1.934,1.376,1.376,0,0,0,1.222.615q1.582,0,1.617-2.435v-.3q0-2.558-1.635-2.558-1.485,0-1.608,2.206ZM65.874-6.829,64.9-6.9a1.752,1.752,0,0,0-1.793.879V0H60.144V-9.51h2.777l.1,1.222a2.294,2.294,0,0,1,2.083-1.4,2.888,2.888,0,0,1,.826.105Zm.378,1.986a5.613,5.613,0,0,1,.554-2.536A3.96,3.96,0,0,1,68.4-9.088a4.791,4.791,0,0,1,2.435-.6A4.373,4.373,0,0,1,74.2-8.363a5.076,5.076,0,0,1,1.23,3.6v.105a4.925,4.925,0,0,1-1.235,3.529A4.384,4.384,0,0,1,70.849.176a4.434,4.434,0,0,1-3.261-1.217,4.761,4.761,0,0,1-1.327-3.3Zm2.962.185a3.538,3.538,0,0,0,.413,1.934,1.376,1.376,0,0,0,1.222.615q1.582,0,1.617-2.435v-.3q0-2.558-1.635-2.558-1.485,0-1.608,2.206Z" transform="translate(-8515 -6216.622)" fill="#12263f"/>
    <path id="Trazado_103320" data-name="Trazado 103320" d="M0,0H616V97H0Z" transform="translate(-8791 -6120.271)" fill="#f6f6f6"/>
    <path id="Trazado_103321" data-name="Trazado 103321" d="M0,0H616V97H0Z" transform="translate(-8791 -6023.271)" fill="#fff"/>
    <path id="Trazado_103322" data-name="Trazado 103322" d="M4.052,12.658V17H.967V4.2H6.073a5.948,5.948,0,0,1,2.6.541,4.074,4.074,0,0,1,1.749,1.538,4.2,4.2,0,0,1,.62,2.263A3.7,3.7,0,0,1,9.7,11.538a5.561,5.561,0,0,1-3.678,1.121Zm0-2.382H6.073A1.906,1.906,0,0,0,7.44,9.828a1.665,1.665,0,0,0,.47-1.266A2.059,2.059,0,0,0,7.427,7.13a1.712,1.712,0,0,0-1.318-.545H4.052Zm12.981,6.9a4.889,4.889,0,0,1-3.542-1.305,4.507,4.507,0,0,1-1.354-3.4v-.246a5.84,5.84,0,0,1,.541-2.575,3.955,3.955,0,0,1,1.578-1.727,4.763,4.763,0,0,1,2.461-.611,4.117,4.117,0,0,1,3.164,1.244,4.887,4.887,0,0,1,1.16,3.467v1.151H15.152a2.135,2.135,0,0,0,.694,1.257,2.066,2.066,0,0,0,1.389.457,2.662,2.662,0,0,0,2.2-.984l1.354,1.6a3.784,3.784,0,0,1-1.569,1.217A5.3,5.3,0,0,1,17.033,17.176ZM16.7,9.6q-1.3,0-1.547,1.723h2.988v-.229a1.467,1.467,0,0,0-.36-1.1A1.434,1.434,0,0,0,16.7,9.6Zm-.035-6.108h3.129L17.35,6.251l-2.417,0Zm11.32,6.68-.976-.07a1.752,1.752,0,0,0-1.793.879V17H22.254V7.49h2.777l.1,1.222a2.294,2.294,0,0,1,2.083-1.4,2.888,2.888,0,0,1,.826.105Zm.527,2a5.809,5.809,0,0,1,.976-3.56,3.211,3.211,0,0,1,2.725-1.3,2.731,2.731,0,0,1,2.145,1V3.5h2.971V17H34.664l-.149-1.02a2.8,2.8,0,0,1-2.32,1.2,3.205,3.205,0,0,1-2.689-1.3A5.993,5.993,0,0,1,28.512,12.175Zm2.962.185q0,2.531,1.477,2.531a1.458,1.458,0,0,0,1.406-.826V10.443A1.419,1.419,0,0,0,32.968,9.6q-1.371,0-1.485,2.215ZM42.135,17H39.164V7.49h2.971ZM38.988,5.029a1.334,1.334,0,0,1,.457-1.043,1.934,1.934,0,0,1,2.373,0,1.334,1.334,0,0,1,.457,1.043,1.334,1.334,0,0,1-.457,1.043,1.934,1.934,0,0,1-2.373,0A1.334,1.334,0,0,1,38.988,5.029Zm4.6,7.146a5.809,5.809,0,0,1,.976-3.56,3.211,3.211,0,0,1,2.725-1.3,2.731,2.731,0,0,1,2.145,1V3.5H52.4V17H49.737l-.149-1.02a2.8,2.8,0,0,1-2.32,1.2,3.205,3.205,0,0,1-2.689-1.3A5.993,5.993,0,0,1,43.585,12.175Zm2.962.185q0,2.531,1.477,2.531a1.458,1.458,0,0,0,1.406-.826V10.443A1.419,1.419,0,0,0,48.041,9.6q-1.371,0-1.485,2.215ZM59.44,17a3.344,3.344,0,0,1-.281-.853,2.754,2.754,0,0,1-2.285,1.028,3.374,3.374,0,0,1-2.285-.813,2.588,2.588,0,0,1-.94-2.043,2.66,2.66,0,0,1,1.143-2.338,5.821,5.821,0,0,1,3.322-.791h.914v-.5q0-1.316-1.134-1.316a.927.927,0,0,0-1.055,1.042H53.877A2.655,2.655,0,0,1,55.05,8.175a4.931,4.931,0,0,1,2.993-.86,4.323,4.323,0,0,1,2.874.888A3.086,3.086,0,0,1,62,10.637v4.21a4.311,4.311,0,0,0,.4,2V17Zm-1.854-1.934a1.652,1.652,0,0,0,.918-.237,1.487,1.487,0,0,0,.523-.536V12.772h-.861q-1.547,0-1.547,1.389a.848.848,0,0,0,.272.655A.986.986,0,0,0,57.586,15.066Zm11.03-.738a.684.684,0,0,0-.4-.606,6.016,6.016,0,0,0-1.5-.475A6.853,6.853,0,0,1,64.89,12.6a3.062,3.062,0,0,1-1.1-.971,2.319,2.319,0,0,1-.378-1.31,2.628,2.628,0,0,1,1.081-2.158,4.453,4.453,0,0,1,2.83-.848,4.934,4.934,0,0,1,3.023.853,2.666,2.666,0,0,1,1.143,2.241H68.52q0-1.143-1.2-1.143a1.194,1.194,0,0,0-.782.259.8.8,0,0,0-.316.646.737.737,0,0,0,.387.642,3.654,3.654,0,0,0,1.235.4,10.671,10.671,0,0,1,1.49.378,2.706,2.706,0,0,1,2.145,2.646,2.491,2.491,0,0,1-1.156,2.118,5.068,5.068,0,0,1-2.993.817,5.172,5.172,0,0,1-2.18-.439,3.645,3.645,0,0,1-1.494-1.2,2.707,2.707,0,0,1-.536-1.591h2.769a1.145,1.145,0,0,0,.439.962,1.808,1.808,0,0,0,1.081.3,1.422,1.422,0,0,0,.91-.246A.787.787,0,0,0,68.616,14.328Zm17.552-2.013a5.735,5.735,0,0,1-1,3.538,3.2,3.2,0,0,1-2.694,1.323,2.742,2.742,0,0,1-2.153-.958v4.438H77.361V7.49H80.13l.088.879a2.742,2.742,0,0,1,2.241-1.055,3.224,3.224,0,0,1,2.733,1.3,5.805,5.805,0,0,1,.976,3.564Zm-2.962-.185q0-2.531-1.477-2.531a1.394,1.394,0,0,0-1.406.756V14.1a1.439,1.439,0,0,0,1.424.791q1.415,0,1.459-2.443Zm3.894.026a5.613,5.613,0,0,1,.554-2.536,3.96,3.96,0,0,1,1.591-1.709,4.791,4.791,0,0,1,2.435-.6,4.373,4.373,0,0,1,3.366,1.323,5.076,5.076,0,0,1,1.23,3.6v.105a4.925,4.925,0,0,1-1.235,3.529A4.384,4.384,0,0,1,91.7,17.176a4.434,4.434,0,0,1-3.261-1.217,4.761,4.761,0,0,1-1.327-3.3Zm2.962.185a3.538,3.538,0,0,0,.413,1.934,1.376,1.376,0,0,0,1.222.615q1.582,0,1.617-2.435v-.3q0-2.558-1.635-2.558-1.485,0-1.608,2.206Zm13.271-2.171-.976-.07a1.752,1.752,0,0,0-1.793.879V17H97.6V7.49h2.777l.1,1.222a2.294,2.294,0,0,1,2.083-1.4,2.888,2.888,0,0,1,.826.105Zm5.177,2a5.809,5.809,0,0,1,.976-3.56,3.211,3.211,0,0,1,2.725-1.3,2.731,2.731,0,0,1,2.145,1V3.5h2.971V17h-2.663l-.149-1.02a2.8,2.8,0,0,1-2.32,1.2,3.205,3.205,0,0,1-2.689-1.3A5.993,5.993,0,0,1,108.51,12.175Zm2.962.185q0,2.531,1.477,2.531a1.458,1.458,0,0,0,1.406-.826V10.443a1.419,1.419,0,0,0-1.389-.844q-1.371,0-1.485,2.215Zm12.138,4.816a4.889,4.889,0,0,1-3.542-1.305,4.507,4.507,0,0,1-1.354-3.4v-.246a5.84,5.84,0,0,1,.541-2.575,3.955,3.955,0,0,1,1.578-1.727,4.763,4.763,0,0,1,2.461-.611,4.117,4.117,0,0,1,3.164,1.244,4.887,4.887,0,0,1,1.16,3.467v1.151h-5.889a2.135,2.135,0,0,0,.694,1.257,2.066,2.066,0,0,0,1.389.457,2.662,2.662,0,0,0,2.2-.984l1.354,1.6a3.784,3.784,0,0,1-1.569,1.217A5.3,5.3,0,0,1,123.609,17.176ZM123.275,9.6q-1.3,0-1.547,1.723h2.988v-.229a1.467,1.467,0,0,0-.36-1.1A1.434,1.434,0,0,0,123.275,9.6Zm8.982-4.474V7.49h1.564V9.547h-1.564V13.9a1.111,1.111,0,0,0,.193.747,1.037,1.037,0,0,0,.765.211,4.345,4.345,0,0,0,.738-.053v2.118a5.466,5.466,0,0,1-1.67.255,3.1,3.1,0,0,1-2.259-.721,2.954,2.954,0,0,1-.729-2.188V9.547h-1.213V7.49H129.3V5.126Zm7.33,12.05a4.889,4.889,0,0,1-3.542-1.305,4.507,4.507,0,0,1-1.354-3.4v-.246a5.84,5.84,0,0,1,.541-2.575,3.955,3.955,0,0,1,1.578-1.727,4.763,4.763,0,0,1,2.461-.611,4.117,4.117,0,0,1,3.164,1.244,4.887,4.887,0,0,1,1.16,3.467v1.151h-5.889a2.135,2.135,0,0,0,.694,1.257,2.066,2.066,0,0,0,1.389.457,2.662,2.662,0,0,0,2.2-.984l1.354,1.6a3.784,3.784,0,0,1-1.569,1.217A5.3,5.3,0,0,1,139.588,17.176ZM139.254,9.6q-1.3,0-1.547,1.723H140.7v-.229a1.467,1.467,0,0,0-.36-1.1A1.434,1.434,0,0,0,139.254,9.6Zm11.285.571-.976-.07a1.752,1.752,0,0,0-1.793.879V17h-2.962V7.49h2.777l.1,1.222a2.294,2.294,0,0,1,2.083-1.4,2.888,2.888,0,0,1,.826.105ZM154.731,17h-2.971V7.49h2.971ZM151.585,5.029a1.334,1.334,0,0,1,.457-1.043,1.934,1.934,0,0,1,2.373,0,1.334,1.334,0,0,1,.457,1.043,1.334,1.334,0,0,1-.457,1.043,1.934,1.934,0,0,1-2.373,0A1.334,1.334,0,0,1,151.585,5.029Zm4.6,7.128a5.613,5.613,0,0,1,.554-2.536,3.96,3.96,0,0,1,1.591-1.709,4.791,4.791,0,0,1,2.435-.6,4.373,4.373,0,0,1,3.366,1.323,5.076,5.076,0,0,1,1.23,3.6v.105a4.925,4.925,0,0,1-1.235,3.529,4.384,4.384,0,0,1-3.344,1.305,4.434,4.434,0,0,1-3.261-1.217,4.761,4.761,0,0,1-1.327-3.3Zm2.962.185a3.538,3.538,0,0,0,.413,1.934,1.376,1.376,0,0,0,1.222.615q1.582,0,1.617-2.435v-.3q0-2.558-1.635-2.558-1.485,0-1.608,2.206Zm13.271-2.171-.976-.07a1.752,1.752,0,0,0-1.793.879V17h-2.962V7.49h2.777l.1,1.222a2.294,2.294,0,0,1,2.083-1.4,2.888,2.888,0,0,1,.826.105Zm.378,1.986a5.613,5.613,0,0,1,.554-2.536,3.96,3.96,0,0,1,1.591-1.709,4.791,4.791,0,0,1,2.435-.6,4.373,4.373,0,0,1,3.366,1.323,5.076,5.076,0,0,1,1.23,3.6v.105a4.925,4.925,0,0,1-1.235,3.529,4.384,4.384,0,0,1-3.344,1.305,4.434,4.434,0,0,1-3.261-1.217,4.761,4.761,0,0,1-1.327-3.3Zm2.962.185a3.538,3.538,0,0,0,.413,1.934,1.376,1.376,0,0,0,1.222.615q1.582,0,1.617-2.435v-.3q0-2.558-1.635-2.558-1.485,0-1.608,2.206Zm11.628-.167a5.809,5.809,0,0,1,.976-3.56,3.211,3.211,0,0,1,2.725-1.3,2.731,2.731,0,0,1,2.145,1V3.5H196.2V17h-2.663l-.149-1.02a2.8,2.8,0,0,1-2.32,1.2,3.205,3.205,0,0,1-2.689-1.3A5.993,5.993,0,0,1,187.383,12.175Zm2.962.185q0,2.531,1.477,2.531a1.458,1.458,0,0,0,1.406-.826V10.443a1.419,1.419,0,0,0-1.389-.844q-1.371,0-1.485,2.215Zm12.138,4.816a4.889,4.889,0,0,1-3.542-1.305,4.507,4.507,0,0,1-1.354-3.4v-.246a5.84,5.84,0,0,1,.541-2.575,3.955,3.955,0,0,1,1.578-1.727,4.763,4.763,0,0,1,2.461-.611,4.117,4.117,0,0,1,3.164,1.244,4.887,4.887,0,0,1,1.16,3.467v1.151H200.6a2.135,2.135,0,0,0,.694,1.257,2.066,2.066,0,0,0,1.389.457,2.662,2.662,0,0,0,2.2-.984l1.354,1.6a3.784,3.784,0,0,1-1.569,1.217A5.3,5.3,0,0,1,202.482,17.176ZM202.148,9.6q-1.3,0-1.547,1.723h2.988v-.229a1.467,1.467,0,0,0-.36-1.1A1.434,1.434,0,0,0,202.148,9.6Zm8.657,7.4h-2.971V3.5h2.971ZM6.188,44a3.344,3.344,0,0,1-.281-.853,2.754,2.754,0,0,1-2.285,1.028,3.374,3.374,0,0,1-2.285-.813A2.588,2.588,0,0,1,.4,41.319a2.66,2.66,0,0,1,1.143-2.338A5.821,5.821,0,0,1,4.86,38.19h.914v-.5q0-1.316-1.134-1.316a.927.927,0,0,0-1.055,1.042H.624A2.655,2.655,0,0,1,1.8,35.175a4.931,4.931,0,0,1,2.993-.86,4.323,4.323,0,0,1,2.874.888,3.086,3.086,0,0,1,1.081,2.435v4.21a4.311,4.311,0,0,0,.4,2V44ZM4.333,42.066a1.652,1.652,0,0,0,.918-.237,1.487,1.487,0,0,0,.523-.536V39.772H4.913q-1.547,0-1.547,1.389a.848.848,0,0,0,.272.655A.986.986,0,0,0,4.333,42.066Zm10.072-.176a1.317,1.317,0,0,0,.967-.338,1.241,1.241,0,0,0,.334-.945h2.777a3.288,3.288,0,0,1-1.121,2.566,4.168,4.168,0,0,1-2.887,1,4.22,4.22,0,0,1-3.27-1.3,5.125,5.125,0,0,1-1.2-3.6v-.123a5.792,5.792,0,0,1,.532-2.544,3.872,3.872,0,0,1,1.534-1.7,4.573,4.573,0,0,1,2.373-.593,4.116,4.116,0,0,1,2.944,1.028,3.647,3.647,0,0,1,1.09,2.786H15.706A1.626,1.626,0,0,0,15.346,37a1.244,1.244,0,0,0-.967-.4q-1.151,0-1.345,1.468a10.357,10.357,0,0,0-.062,1.283,4.068,4.068,0,0,0,.343,1.986A1.187,1.187,0,0,0,14.405,41.891Zm8.78-9.765V34.49H24.75v2.057H23.186V40.9a1.111,1.111,0,0,0,.193.747,1.037,1.037,0,0,0,.765.211,4.345,4.345,0,0,0,.738-.053v2.118a5.466,5.466,0,0,1-1.67.255,3.1,3.1,0,0,1-2.259-.721,2.954,2.954,0,0,1-.729-2.188v-4.72H19.011V34.49h1.213V32.126ZM29.039,44H26.068V34.49h2.971ZM25.893,32.029a1.334,1.334,0,0,1,.457-1.043,1.934,1.934,0,0,1,2.373,0,1.42,1.42,0,0,1,0,2.087,1.934,1.934,0,0,1-2.373,0A1.334,1.334,0,0,1,25.893,32.029Zm8.763,8.446,1.5-5.985h3.12L36.176,44H33.152l-3.1-9.51h3.129Zm5-1.318a5.613,5.613,0,0,1,.554-2.536A3.96,3.96,0,0,1,41.8,34.912a4.791,4.791,0,0,1,2.435-.6A4.373,4.373,0,0,1,47.6,35.637a5.076,5.076,0,0,1,1.23,3.6v.105A4.925,4.925,0,0,1,47.6,42.871a4.384,4.384,0,0,1-3.344,1.305,4.434,4.434,0,0,1-3.261-1.217,4.761,4.761,0,0,1-1.327-3.3Zm2.962.185a3.538,3.538,0,0,0,.413,1.934,1.376,1.376,0,0,0,1.222.615q1.582,0,1.617-2.435v-.3q0-2.558-1.635-2.558-1.485,0-1.608,2.206ZM58.043,44H54.967V31.2h3.076Zm4.729-9.51.1,1.116a3.225,3.225,0,0,1,2.716-1.292A2.713,2.713,0,0,1,67.8,35.2a4.226,4.226,0,0,1,.76,2.672V44H65.593V38a1.6,1.6,0,0,0-.29-1.059,1.342,1.342,0,0,0-1.055-.338,1.413,1.413,0,0,0-1.292.686V44H59.994V34.49Zm10.881-2.364V34.49h1.564v2.057H73.652V40.9a1.111,1.111,0,0,0,.193.747,1.037,1.037,0,0,0,.765.211,4.345,4.345,0,0,0,.738-.053v2.118a5.466,5.466,0,0,1-1.67.255,3.1,3.1,0,0,1-2.259-.721,2.954,2.954,0,0,1-.729-2.188v-4.72H69.478V34.49H70.69V32.126ZM81.738,44a3.344,3.344,0,0,1-.281-.853,2.754,2.754,0,0,1-2.285,1.028,3.374,3.374,0,0,1-2.285-.813,2.588,2.588,0,0,1-.94-2.043,2.66,2.66,0,0,1,1.143-2.338,5.821,5.821,0,0,1,3.322-.791h.914v-.5q0-1.316-1.134-1.316a.927.927,0,0,0-1.055,1.042H76.175a2.655,2.655,0,0,1,1.173-2.239,4.931,4.931,0,0,1,2.993-.86,4.323,4.323,0,0,1,2.874.888A3.086,3.086,0,0,1,84.3,37.637v4.21a4.311,4.311,0,0,0,.4,2V44Zm-1.854-1.934a1.652,1.652,0,0,0,.918-.237,1.487,1.487,0,0,0,.523-.536V39.772h-.861q-1.547,0-1.547,1.389a.848.848,0,0,0,.272.655A.986.986,0,0,0,79.884,42.066Zm8.771-7.576.1,1.116a3.225,3.225,0,0,1,2.716-1.292,2.713,2.713,0,0,1,2.219.888,4.226,4.226,0,0,1,.76,2.672V44H91.477V38a1.6,1.6,0,0,0-.29-1.059,1.342,1.342,0,0,0-1.055-.338,1.413,1.413,0,0,0-1.292.686V44H85.878V34.49Zm7.084,4.685a6.421,6.421,0,0,1,.475-2.549,3.821,3.821,0,0,1,1.362-1.709,3.591,3.591,0,0,1,2.065-.6,2.855,2.855,0,0,1,2.32,1l.105-.826h2.689V43.64a4.009,4.009,0,0,1-.584,2.184,3.75,3.75,0,0,1-1.692,1.424,6.219,6.219,0,0,1-2.566.5,5.365,5.365,0,0,1-2.026-.4,3.657,3.657,0,0,1-1.5-1.028l1.239-1.74a2.716,2.716,0,0,0,2.18.976,1.764,1.764,0,0,0,1.969-2.021v-.3a2.781,2.781,0,0,1-2.153.94,3.437,3.437,0,0,1-2.812-1.332,5.517,5.517,0,0,1-1.072-3.564Zm2.971.185a3.383,3.383,0,0,0,.439,1.85,1.387,1.387,0,0,0,1.23.681,1.573,1.573,0,0,0,1.4-.642v-4a1.534,1.534,0,0,0-1.38-.65,1.4,1.4,0,0,0-1.239.708A3.858,3.858,0,0,0,98.71,39.359ZM109.564,44h-2.971V34.49h2.971Zm-3.146-11.971a1.334,1.334,0,0,1,.457-1.043,1.934,1.934,0,0,1,2.373,0,1.42,1.42,0,0,1,0,2.087,1.934,1.934,0,0,1-2.373,0A1.334,1.334,0,0,1,106.418,32.029Zm13.8,7.295a5.8,5.8,0,0,1-.967,3.595,3.238,3.238,0,0,1-2.725,1.257,2.81,2.81,0,0,1-2.338-1.151l-.123.976H111.41V30.5h2.962v4.755a2.711,2.711,0,0,1,2.136-.94,3.239,3.239,0,0,1,2.742,1.274,5.826,5.826,0,0,1,.967,3.586Zm-2.971-.189a3.866,3.866,0,0,0-.365-1.952,1.229,1.229,0,0,0-1.121-.584,1.418,1.418,0,0,0-1.389.763v3.773a1.426,1.426,0,0,0,1.406.755,1.258,1.258,0,0,0,1.327-1.018A7.309,7.309,0,0,0,117.246,39.135Zm7.4,4.865h-2.971V30.5h2.971Zm6.425.176a4.889,4.889,0,0,1-3.542-1.305,4.507,4.507,0,0,1-1.354-3.4v-.246a5.84,5.84,0,0,1,.541-2.575,3.955,3.955,0,0,1,1.578-1.727,4.763,4.763,0,0,1,2.461-.611,4.117,4.117,0,0,1,3.164,1.244,4.887,4.887,0,0,1,1.16,3.467v1.151H129.19a2.135,2.135,0,0,0,.694,1.257,2.066,2.066,0,0,0,1.389.457,2.662,2.662,0,0,0,2.2-.984l1.354,1.6a3.784,3.784,0,0,1-1.569,1.217A5.3,5.3,0,0,1,131.071,44.176Zm-.334-7.576q-1.3,0-1.547,1.723h2.988v-.229a1.467,1.467,0,0,0-.36-1.1A1.434,1.434,0,0,0,130.737,36.6Zm5.757,2.2a13.431,13.431,0,0,1,.571-3.99,9.629,9.629,0,0,1,1.578-3.129,5.6,5.6,0,0,1,2.237-1.793l.563,1.459a5.73,5.73,0,0,0-1.9,2.826,13.782,13.782,0,0,0-.681,4.5v.387a14.051,14.051,0,0,0,.672,4.588,5.706,5.706,0,0,0,1.912,2.848l-.562,1.459a5.547,5.547,0,0,1-2.237-1.8,9.484,9.484,0,0,1-1.578-3.116,13.5,13.5,0,0,1-.571-3.85ZM151.506,44h-8.93V42.066l4.113-4.324a4.909,4.909,0,0,0,1.521-2.751,1.913,1.913,0,0,0-.36-1.257A1.287,1.287,0,0,0,146.8,33.3a1.3,1.3,0,0,0-1.1.576,2.366,2.366,0,0,0-.422,1.437h-2.971a4.2,4.2,0,0,1,.589-2.175,4.129,4.129,0,0,1,1.635-1.56,4.856,4.856,0,0,1,2.338-.562,4.777,4.777,0,0,1,3.195.958,3.42,3.42,0,0,1,1.121,2.751,4,4,0,0,1-.281,1.472,6.456,6.456,0,0,1-.875,1.5,22.029,22.029,0,0,1-1.912,2.1l-1.652,1.907h5.036Zm1.67-6.251.782-6.546h7.479v2.285h-5.071l-.29,2.56a3.493,3.493,0,0,1,.831-.327,4.179,4.179,0,0,1,3.938.988,5.146,5.146,0,0,1,.475,5.4,3.776,3.776,0,0,1-1.542,1.534,4.87,4.87,0,0,1-2.347.536,5.24,5.24,0,0,1-2.259-.5,4.052,4.052,0,0,1-1.652-1.361,3.308,3.308,0,0,1-.589-1.954H155.9a1.68,1.68,0,0,0,.448,1.114,1.423,1.423,0,0,0,1.063.412q1.494,0,1.494-2.21,0-2.044-1.828-2.044a1.824,1.824,0,0,0-1.547.667Zm19.134,1.021a6.11,6.11,0,0,1-1.165,4,4.551,4.551,0,0,1-6.587-.009,6.1,6.1,0,0,1-1.169-3.99V36.433a6.11,6.11,0,0,1,1.165-4,4.551,4.551,0,0,1,6.587.009,6.116,6.116,0,0,1,1.169,4Zm-2.962-2.716a4.564,4.564,0,0,0-.36-2.061,1.2,1.2,0,0,0-1.143-.681,1.176,1.176,0,0,0-1.112.633,4.3,4.3,0,0,0-.374,1.916v3.27a4.6,4.6,0,0,0,.36,2.1,1.209,1.209,0,0,0,1.143.664,1.193,1.193,0,0,0,1.116-.646,4.39,4.39,0,0,0,.369-2.026Zm13.386,2.716a6.11,6.11,0,0,1-1.165,4,4.551,4.551,0,0,1-6.587-.009,6.1,6.1,0,0,1-1.169-3.99V36.433a6.11,6.11,0,0,1,1.165-4,4.551,4.551,0,0,1,6.587.009,6.116,6.116,0,0,1,1.169,4Zm-2.962-2.716a4.564,4.564,0,0,0-.36-2.061,1.2,1.2,0,0,0-1.143-.681,1.176,1.176,0,0,0-1.112.633,4.3,4.3,0,0,0-.374,1.916v3.27a4.6,4.6,0,0,0,.36,2.1,1.209,1.209,0,0,0,1.143.664,1.193,1.193,0,0,0,1.116-.646,4.39,4.39,0,0,0,.369-2.026Zm6.812-.461-2.865-.79.571-1.659,2.8,1.15-.22-3.091h1.881l-.229,3.152,2.725-1.124.571,1.677-2.9.79,1.925,2.329-1.521,1.037-1.608-2.584-1.617,2.5-1.521-.993Zm14.941,3.177a6.11,6.11,0,0,1-1.165,4,4.551,4.551,0,0,1-6.587-.009,6.1,6.1,0,0,1-1.169-3.99V36.433a6.11,6.11,0,0,1,1.165-4,4.551,4.551,0,0,1,6.587.009,6.116,6.116,0,0,1,1.169,4Zm-2.962-2.716a4.564,4.564,0,0,0-.36-2.061,1.2,1.2,0,0,0-1.143-.681,1.176,1.176,0,0,0-1.112.633,4.3,4.3,0,0,0-.374,1.916v3.27a4.6,4.6,0,0,0,.36,2.1,1.209,1.209,0,0,0,1.143.664,1.193,1.193,0,0,0,1.116-.646,4.39,4.39,0,0,0,.369-2.026Zm6.381,5.071a1.686,1.686,0,0,1,1.169.417,1.457,1.457,0,0,1,0,2.136,1.844,1.844,0,0,1-2.342,0,1.456,1.456,0,0,1,0-2.127A1.672,1.672,0,0,1,204.943,41.126Zm6.267-4.764h1.4a1.453,1.453,0,0,0,1.661-1.626,1.406,1.406,0,0,0-.4-1.033,1.5,1.5,0,0,0-1.116-.4,1.606,1.606,0,0,0-1.024.343,1.046,1.046,0,0,0-.435.853h-2.962a3.032,3.032,0,0,1,.563-1.8,3.715,3.715,0,0,1,1.56-1.235,5.334,5.334,0,0,1,2.193-.444,5.241,5.241,0,0,1,3.357.976,3.243,3.243,0,0,1,1.222,2.681,2.7,2.7,0,0,1-.505,1.56,3.6,3.6,0,0,1-1.472,1.191,3.441,3.441,0,0,1,1.6,1.121,2.951,2.951,0,0,1,.58,1.859,3.3,3.3,0,0,1-1.318,2.742,5.472,5.472,0,0,1-3.463,1.028,5.675,5.675,0,0,1-2.333-.479,3.656,3.656,0,0,1-1.63-1.327,3.45,3.45,0,0,1-.554-1.929h2.979a1.334,1.334,0,0,0,.475,1.02,1.676,1.676,0,0,0,1.169.431A1.755,1.755,0,0,0,214,41.456a1.454,1.454,0,0,0,.466-1.112,1.7,1.7,0,0,0-.483-1.371,2.021,2.021,0,0,0-1.336-.4H211.21Zm12.437,2.681a12.532,12.532,0,0,1-.606,3.92,10.008,10.008,0,0,1-1.674,3.186,5.574,5.574,0,0,1-2.307,1.806L218.5,46.5a5.787,5.787,0,0,0,1.89-2.812,13.577,13.577,0,0,0,.694-4.368v-.536a14.051,14.051,0,0,0-.672-4.588,5.706,5.706,0,0,0-1.912-2.848l.563-1.459a5.676,5.676,0,0,1,2.29,1.789,9.885,9.885,0,0,1,1.67,3.138,12.426,12.426,0,0,1,.628,3.845Z" transform="translate(-8765 -6090.271)" fill="#12263f"/>
    <path id="Trazado_103323" data-name="Trazado 103323" d="M.967,17V4.2H5.089a6.064,6.064,0,0,1,3.05.769,5.406,5.406,0,0,1,2.114,2.171,6.554,6.554,0,0,1,.769,3.142v.589a6.592,6.592,0,0,1-.743,3.151A5.429,5.429,0,0,1,8.187,16.2a5.93,5.93,0,0,1-3.01.8ZM4.052,6.585v8.042H5.124a2.4,2.4,0,0,0,2.039-.945,4.63,4.63,0,0,0,.712-2.808V10.32a4.592,4.592,0,0,0-.712-2.795,2.442,2.442,0,0,0-2.074-.94ZM17.068,17.176a4.889,4.889,0,0,1-3.542-1.305,4.507,4.507,0,0,1-1.354-3.4v-.246a5.84,5.84,0,0,1,.541-2.575,3.955,3.955,0,0,1,1.578-1.727,4.763,4.763,0,0,1,2.461-.611,4.117,4.117,0,0,1,3.164,1.244,4.887,4.887,0,0,1,1.16,3.467v1.151H15.188a2.135,2.135,0,0,0,.694,1.257,2.066,2.066,0,0,0,1.389.457,2.662,2.662,0,0,0,2.2-.984l1.354,1.6a3.784,3.784,0,0,1-1.569,1.217A5.3,5.3,0,0,1,17.068,17.176ZM16.734,9.6q-1.3,0-1.547,1.723h2.988v-.229a1.467,1.467,0,0,0-.36-1.1A1.434,1.434,0,0,0,16.734,9.6Zm8.982-4.474V7.49h1.564V9.547H25.717V13.9a1.111,1.111,0,0,0,.193.747,1.037,1.037,0,0,0,.765.211,4.345,4.345,0,0,0,.738-.053v2.118a5.466,5.466,0,0,1-1.67.255,3.1,3.1,0,0,1-2.259-.721,2.954,2.954,0,0,1-.729-2.188V9.547H21.542V7.49h1.213V5.126Zm7.33,12.05A4.889,4.889,0,0,1,29.5,15.871a4.507,4.507,0,0,1-1.354-3.4v-.246a5.84,5.84,0,0,1,.541-2.575A3.955,3.955,0,0,1,30.27,7.925a4.763,4.763,0,0,1,2.461-.611,4.117,4.117,0,0,1,3.164,1.244,4.887,4.887,0,0,1,1.16,3.467v1.151H31.166a2.135,2.135,0,0,0,.694,1.257,2.066,2.066,0,0,0,1.389.457,2.662,2.662,0,0,0,2.2-.984l1.354,1.6a3.784,3.784,0,0,1-1.569,1.217A5.3,5.3,0,0,1,33.047,17.176ZM32.713,9.6q-1.3,0-1.547,1.723h2.988v-.229a1.467,1.467,0,0,0-.36-1.1A1.434,1.434,0,0,0,32.713,9.6ZM44,10.171l-.976-.07a1.752,1.752,0,0,0-1.793.879V17H38.268V7.49h2.777l.1,1.222a2.294,2.294,0,0,1,2.083-1.4,2.888,2.888,0,0,1,.826.105ZM48.19,17H45.22V7.49H48.19ZM45.044,5.029A1.334,1.334,0,0,1,45.5,3.986a1.934,1.934,0,0,1,2.373,0,1.334,1.334,0,0,1,.457,1.043,1.334,1.334,0,0,1-.457,1.043,1.934,1.934,0,0,1-2.373,0A1.334,1.334,0,0,1,45.044,5.029Zm4.6,7.128a5.613,5.613,0,0,1,.554-2.536,3.96,3.96,0,0,1,1.591-1.709,4.791,4.791,0,0,1,2.435-.6,4.373,4.373,0,0,1,3.366,1.323,5.076,5.076,0,0,1,1.23,3.6v.105a4.925,4.925,0,0,1-1.235,3.529,4.384,4.384,0,0,1-3.344,1.305,4.434,4.434,0,0,1-3.261-1.217,4.761,4.761,0,0,1-1.327-3.3Zm2.962.185a3.538,3.538,0,0,0,.413,1.934,1.376,1.376,0,0,0,1.222.615q1.582,0,1.617-2.435v-.3q0-2.558-1.635-2.558-1.485,0-1.608,2.206Zm13.271-2.171L64.9,10.1a1.752,1.752,0,0,0-1.793.879V17H60.144V7.49h2.777l.1,1.222a2.294,2.294,0,0,1,2.083-1.4,2.888,2.888,0,0,1,.826.105Zm.378,1.986a5.613,5.613,0,0,1,.554-2.536A3.96,3.96,0,0,1,68.4,7.912a4.791,4.791,0,0,1,2.435-.6A4.373,4.373,0,0,1,74.2,8.637a5.076,5.076,0,0,1,1.23,3.6v.105a4.925,4.925,0,0,1-1.235,3.529,4.384,4.384,0,0,1-3.344,1.305,4.434,4.434,0,0,1-3.261-1.217,4.761,4.761,0,0,1-1.327-3.3Zm2.962.185a3.538,3.538,0,0,0,.413,1.934,1.376,1.376,0,0,0,1.222.615q1.582,0,1.617-2.435v-.3q0-2.558-1.635-2.558-1.485,0-1.608,2.206Zm11.628-.167a5.809,5.809,0,0,1,.976-3.56,3.211,3.211,0,0,1,2.725-1.3,2.731,2.731,0,0,1,2.145,1V3.5h2.971V17H86.994l-.149-1.02a2.8,2.8,0,0,1-2.32,1.2,3.205,3.205,0,0,1-2.689-1.3A5.993,5.993,0,0,1,80.842,12.175Zm2.962.185q0,2.531,1.477,2.531a1.458,1.458,0,0,0,1.406-.826V10.443A1.419,1.419,0,0,0,85.3,9.6q-1.371,0-1.485,2.215Zm12.138,4.816A4.889,4.889,0,0,1,92.4,15.871a4.507,4.507,0,0,1-1.354-3.4v-.246a5.84,5.84,0,0,1,.541-2.575,3.955,3.955,0,0,1,1.578-1.727,4.763,4.763,0,0,1,2.461-.611,4.117,4.117,0,0,1,3.164,1.244,4.887,4.887,0,0,1,1.16,3.467v1.151H94.061a2.135,2.135,0,0,0,.694,1.257,2.066,2.066,0,0,0,1.389.457,2.662,2.662,0,0,0,2.2-.984l1.354,1.6a3.784,3.784,0,0,1-1.569,1.217A5.3,5.3,0,0,1,95.941,17.176ZM95.607,9.6q-1.3,0-1.547,1.723h2.988v-.229a1.467,1.467,0,0,0-.36-1.1A1.434,1.434,0,0,0,95.607,9.6Zm13.808,3.876,1.5-5.985h3.12l-3.1,9.51h-3.023l-3.1-9.51h3.129ZM120.146,17a3.344,3.344,0,0,1-.281-.853,2.754,2.754,0,0,1-2.285,1.028,3.374,3.374,0,0,1-2.285-.813,2.588,2.588,0,0,1-.94-2.043,2.66,2.66,0,0,1,1.143-2.338,5.821,5.821,0,0,1,3.322-.791h.914v-.5q0-1.316-1.134-1.316a.927.927,0,0,0-1.055,1.042h-2.962a2.655,2.655,0,0,1,1.173-2.239,4.931,4.931,0,0,1,2.993-.86,4.323,4.323,0,0,1,2.874.888,3.086,3.086,0,0,1,1.081,2.435v4.21a4.311,4.311,0,0,0,.4,2V17Zm-1.854-1.934a1.652,1.652,0,0,0,.918-.237,1.487,1.487,0,0,0,.523-.536V12.772h-.861q-1.547,0-1.547,1.389a.848.848,0,0,0,.272.655A.986.986,0,0,0,118.292,15.066ZM127.468,17H124.5V3.5h2.971Zm1.45-4.843a5.613,5.613,0,0,1,.554-2.536,3.96,3.96,0,0,1,1.591-1.709,4.791,4.791,0,0,1,2.435-.6,4.373,4.373,0,0,1,3.366,1.323,5.076,5.076,0,0,1,1.23,3.6v.105a4.925,4.925,0,0,1-1.235,3.529,4.384,4.384,0,0,1-3.344,1.305,4.434,4.434,0,0,1-3.261-1.217,4.761,4.761,0,0,1-1.327-3.3Zm2.962.185a3.538,3.538,0,0,0,.413,1.934,1.376,1.376,0,0,0,1.222.615q1.582,0,1.617-2.435v-.3q0-2.558-1.635-2.558-1.485,0-1.608,2.206Zm13.271-2.171-.976-.07a1.752,1.752,0,0,0-1.793.879V17h-2.962V7.49H142.2l.1,1.222a2.294,2.294,0,0,1,2.083-1.4,2.888,2.888,0,0,1,.826.105Zm5.177,2a5.809,5.809,0,0,1,.976-3.56,3.211,3.211,0,0,1,2.725-1.3,2.731,2.731,0,0,1,2.145,1V3.5h2.971V17H156.48l-.149-1.02a2.8,2.8,0,0,1-2.32,1.2,3.205,3.205,0,0,1-2.689-1.3A5.993,5.993,0,0,1,150.328,12.175Zm2.962.185q0,2.531,1.477,2.531a1.458,1.458,0,0,0,1.406-.826V10.443a1.419,1.419,0,0,0-1.389-.844q-1.371,0-1.485,2.215Zm12.138,4.816a4.889,4.889,0,0,1-3.542-1.305,4.507,4.507,0,0,1-1.354-3.4v-.246a5.84,5.84,0,0,1,.541-2.575,3.955,3.955,0,0,1,1.578-1.727,4.763,4.763,0,0,1,2.461-.611,4.117,4.117,0,0,1,3.164,1.244,4.887,4.887,0,0,1,1.16,3.467v1.151h-5.889a2.135,2.135,0,0,0,.694,1.257,2.066,2.066,0,0,0,1.389.457,2.662,2.662,0,0,0,2.2-.984l1.354,1.6a3.784,3.784,0,0,1-1.569,1.217A5.3,5.3,0,0,1,165.428,17.176ZM165.094,9.6q-1.3,0-1.547,1.723h2.988v-.229a1.467,1.467,0,0,0-.36-1.1A1.434,1.434,0,0,0,165.094,9.6Zm13.236,3.059V17h-3.085V4.2h5.106a5.948,5.948,0,0,1,2.6.541A4.074,4.074,0,0,1,184.7,6.282a4.2,4.2,0,0,1,.62,2.263,3.7,3.7,0,0,1-1.34,2.993,5.561,5.561,0,0,1-3.678,1.121Zm0-2.382h2.021a1.906,1.906,0,0,0,1.367-.448,1.665,1.665,0,0,0,.47-1.266,2.059,2.059,0,0,0-.483-1.433,1.712,1.712,0,0,0-1.318-.545H178.33Zm14.247-.105-.976-.07a1.752,1.752,0,0,0-1.793.879V17h-2.962V7.49h2.777l.1,1.222a2.294,2.294,0,0,1,2.083-1.4,2.888,2.888,0,0,1,.826.105Zm.378,1.986a5.613,5.613,0,0,1,.554-2.536A3.96,3.96,0,0,1,195.1,7.912a4.791,4.791,0,0,1,2.435-.6A4.373,4.373,0,0,1,200.9,8.637a5.076,5.076,0,0,1,1.23,3.6v.105a4.925,4.925,0,0,1-1.235,3.529,4.384,4.384,0,0,1-3.344,1.305,4.434,4.434,0,0,1-3.261-1.217,4.761,4.761,0,0,1-1.327-3.3Zm2.962.185a3.538,3.538,0,0,0,.413,1.934,1.376,1.376,0,0,0,1.222.615q1.582,0,1.617-2.435v-.3q0-2.558-1.635-2.558-1.485,0-1.608,2.206Zm16.348-.026a5.735,5.735,0,0,1-1,3.538,3.2,3.2,0,0,1-2.694,1.323,2.742,2.742,0,0,1-2.153-.958v4.438h-2.962V7.49h2.769l.088.879a2.742,2.742,0,0,1,2.241-1.055,3.224,3.224,0,0,1,2.733,1.3,5.805,5.805,0,0,1,.976,3.564Zm-2.962-.185q0-2.531-1.477-2.531a1.394,1.394,0,0,0-1.406.756V14.1a1.439,1.439,0,0,0,1.424.791q1.415,0,1.459-2.443ZM216.694,17h-2.971V7.49h2.971ZM213.548,5.029A1.334,1.334,0,0,1,214,3.986a1.934,1.934,0,0,1,2.373,0,1.334,1.334,0,0,1,.457,1.043,1.334,1.334,0,0,1-.457,1.043,1.934,1.934,0,0,1-2.373,0A1.334,1.334,0,0,1,213.548,5.029Zm9.571,12.146a4.889,4.889,0,0,1-3.542-1.305,4.507,4.507,0,0,1-1.354-3.4v-.246a5.84,5.84,0,0,1,.541-2.575,3.955,3.955,0,0,1,1.578-1.727,4.763,4.763,0,0,1,2.461-.611,4.117,4.117,0,0,1,3.164,1.244,4.887,4.887,0,0,1,1.16,3.467v1.151h-5.889a2.135,2.135,0,0,0,.694,1.257,2.066,2.066,0,0,0,1.389.457,2.662,2.662,0,0,0,2.2-.984l1.354,1.6a3.784,3.784,0,0,1-1.569,1.217A5.3,5.3,0,0,1,223.119,17.176ZM222.785,9.6q-1.3,0-1.547,1.723h2.988v-.229a1.467,1.467,0,0,0-.36-1.1A1.434,1.434,0,0,0,222.785,9.6Zm5.159,2.575a5.809,5.809,0,0,1,.976-3.56,3.211,3.211,0,0,1,2.725-1.3,2.731,2.731,0,0,1,2.145,1V3.5h2.971V17H234.1l-.149-1.02a2.8,2.8,0,0,1-2.32,1.2,3.205,3.205,0,0,1-2.689-1.3A5.993,5.993,0,0,1,227.944,12.175Zm2.962.185q0,2.531,1.477,2.531a1.458,1.458,0,0,0,1.406-.826V10.443A1.419,1.419,0,0,0,232.4,9.6q-1.371,0-1.485,2.215ZM243.8,17a3.344,3.344,0,0,1-.281-.853,2.754,2.754,0,0,1-2.285,1.028,3.374,3.374,0,0,1-2.285-.813,2.588,2.588,0,0,1-.94-2.043,2.66,2.66,0,0,1,1.143-2.338,5.821,5.821,0,0,1,3.322-.791h.914v-.5q0-1.316-1.134-1.316a.927.927,0,0,0-1.055,1.042h-2.962a2.655,2.655,0,0,1,1.173-2.239,4.931,4.931,0,0,1,2.993-.86,4.323,4.323,0,0,1,2.874.888,3.086,3.086,0,0,1,1.081,2.435v4.21a4.311,4.311,0,0,0,.4,2V17Zm-1.854-1.934a1.652,1.652,0,0,0,.918-.237,1.487,1.487,0,0,0,.523-.536V12.772h-.861q-1.547,0-1.547,1.389a.848.848,0,0,0,.272.655A.986.986,0,0,0,241.945,15.066Zm5.678-2.892a5.809,5.809,0,0,1,.976-3.56,3.211,3.211,0,0,1,2.725-1.3,2.731,2.731,0,0,1,2.145,1V3.5h2.971V17h-2.663l-.149-1.02a2.8,2.8,0,0,1-2.32,1.2,3.205,3.205,0,0,1-2.689-1.3A5.993,5.993,0,0,1,247.623,12.175Zm2.962.185q0,2.531,1.477,2.531a1.458,1.458,0,0,0,1.406-.826V10.443a1.419,1.419,0,0,0-1.389-.844q-1.371,0-1.485,2.215ZM4.254,44H1.178V31.2H4.254Zm4.729-9.51.1,1.116a3.225,3.225,0,0,1,2.716-1.292,2.713,2.713,0,0,1,2.219.888,4.226,4.226,0,0,1,.76,2.672V44H11.8V38a1.6,1.6,0,0,0-.29-1.059,1.342,1.342,0,0,0-1.055-.338,1.413,1.413,0,0,0-1.292.686V44H6.205V34.49Zm7.058,4.685a5.809,5.809,0,0,1,.976-3.56,3.211,3.211,0,0,1,2.725-1.3,2.731,2.731,0,0,1,2.145,1V30.5h2.971V44H22.192l-.149-1.02a2.8,2.8,0,0,1-2.32,1.2,3.205,3.205,0,0,1-2.689-1.3A5.993,5.993,0,0,1,16.04,39.175ZM19,39.359q0,2.531,1.477,2.531a1.458,1.458,0,0,0,1.406-.826V37.443A1.419,1.419,0,0,0,20.5,36.6q-1.371,0-1.485,2.215Zm13.2,3.612a3.054,3.054,0,0,1-2.54,1.2,3,3,0,0,1-2.369-.91,3.826,3.826,0,0,1-.8-2.615V34.49h2.962v6.179a1.065,1.065,0,0,0,1.187,1.222,1.548,1.548,0,0,0,1.45-.729V34.49h2.979V44H32.291Zm9.466-1.644a.684.684,0,0,0-.4-.606,6.016,6.016,0,0,0-1.5-.475,6.853,6.853,0,0,1-1.828-.646,3.062,3.062,0,0,1-1.1-.971,2.319,2.319,0,0,1-.378-1.31,2.628,2.628,0,0,1,1.081-2.158,4.453,4.453,0,0,1,2.83-.848,4.934,4.934,0,0,1,3.023.853,2.666,2.666,0,0,1,1.143,2.241H41.572q0-1.143-1.2-1.143a1.194,1.194,0,0,0-.782.259.8.8,0,0,0-.316.646.737.737,0,0,0,.387.642,3.654,3.654,0,0,0,1.235.4,10.671,10.671,0,0,1,1.49.378,2.706,2.706,0,0,1,2.145,2.646,2.491,2.491,0,0,1-1.156,2.118,5.068,5.068,0,0,1-2.993.817,5.172,5.172,0,0,1-2.18-.439,3.645,3.645,0,0,1-1.494-1.2,2.707,2.707,0,0,1-.536-1.591h2.769a1.145,1.145,0,0,0,.439.962,1.808,1.808,0,0,0,1.081.3,1.422,1.422,0,0,0,.91-.246A.787.787,0,0,0,41.669,41.328Zm7.69-9.2V34.49h1.564v2.057H49.359V40.9a1.111,1.111,0,0,0,.193.747,1.037,1.037,0,0,0,.765.211,4.345,4.345,0,0,0,.738-.053v2.118a5.466,5.466,0,0,1-1.67.255,3.1,3.1,0,0,1-2.259-.721,2.954,2.954,0,0,1-.729-2.188v-4.72H45.185V34.49H46.4V32.126Zm8.481,5.045-.976-.07a1.752,1.752,0,0,0-1.793.879V44H52.11V34.49h2.777l.1,1.222a2.294,2.294,0,0,1,2.083-1.4,2.888,2.888,0,0,1,.826.105ZM62.033,44H59.063V34.49h2.971ZM58.887,32.029a1.334,1.334,0,0,1,.457-1.043,1.934,1.934,0,0,1,2.373,0,1.42,1.42,0,0,1,0,2.087,1.934,1.934,0,0,1-2.373,0A1.334,1.334,0,0,1,58.887,32.029ZM69.214,44a3.344,3.344,0,0,1-.281-.853,2.754,2.754,0,0,1-2.285,1.028,3.374,3.374,0,0,1-2.285-.813,2.588,2.588,0,0,1-.94-2.043,2.66,2.66,0,0,1,1.143-2.338,5.821,5.821,0,0,1,3.322-.791H68.8v-.5q0-1.316-1.134-1.316a.927.927,0,0,0-1.055,1.042H63.65a2.655,2.655,0,0,1,1.173-2.239,4.931,4.931,0,0,1,2.993-.86,4.323,4.323,0,0,1,2.874.888,3.086,3.086,0,0,1,1.081,2.435v4.21a4.311,4.311,0,0,0,.4,2V44Zm-1.854-1.934a1.652,1.652,0,0,0,.918-.237,1.487,1.487,0,0,0,.523-.536V39.772h-.861q-1.547,0-1.547,1.389a.848.848,0,0,0,.272.655A.986.986,0,0,0,67.359,42.066ZM76.535,44H73.564V30.5h2.971ZM87.029,31.2l2.856,8.9,2.848-8.9h4.061V44H93.7V41.012l.3-6.117L90.905,44H88.866l-3.1-9.114.3,6.126V44H82.978V31.2ZM103.975,44a3.344,3.344,0,0,1-.281-.853,2.754,2.754,0,0,1-2.285,1.028,3.374,3.374,0,0,1-2.285-.813,2.588,2.588,0,0,1-.94-2.043,2.66,2.66,0,0,1,1.143-2.338,5.821,5.821,0,0,1,3.322-.791h.914v-.5q0-1.316-1.134-1.316a.927.927,0,0,0-1.055,1.042H98.411a2.655,2.655,0,0,1,1.173-2.239,4.931,4.931,0,0,1,2.993-.86,4.323,4.323,0,0,1,2.874.888,3.086,3.086,0,0,1,1.081,2.435v4.21a4.311,4.311,0,0,0,.4,2V44Zm-1.854-1.934a1.652,1.652,0,0,0,.918-.237,1.487,1.487,0,0,0,.523-.536V39.772H102.7q-1.547,0-1.547,1.389a.848.848,0,0,0,.272.655A.986.986,0,0,0,102.12,42.066Zm11.8-4.9-.976-.07a1.752,1.752,0,0,0-1.793.879V44h-2.962V34.49h2.777l.1,1.222a2.294,2.294,0,0,1,2.083-1.4,2.888,2.888,0,0,1,.826.105Zm4.922,4.72a1.317,1.317,0,0,0,.967-.338,1.241,1.241,0,0,0,.334-.945h2.777a3.288,3.288,0,0,1-1.121,2.566,4.168,4.168,0,0,1-2.887,1,4.22,4.22,0,0,1-3.27-1.3,5.125,5.125,0,0,1-1.2-3.6v-.123a5.792,5.792,0,0,1,.532-2.544,3.872,3.872,0,0,1,1.534-1.7,4.573,4.573,0,0,1,2.373-.593,4.116,4.116,0,0,1,2.944,1.028,3.647,3.647,0,0,1,1.09,2.786h-2.777a1.626,1.626,0,0,0-.36-1.134,1.244,1.244,0,0,0-.967-.4q-1.151,0-1.345,1.468a10.357,10.357,0,0,0-.062,1.283,4.068,4.068,0,0,0,.343,1.986A1.187,1.187,0,0,0,118.846,41.891ZM129.533,44a3.344,3.344,0,0,1-.281-.853,2.754,2.754,0,0,1-2.285,1.028,3.374,3.374,0,0,1-2.285-.813,2.588,2.588,0,0,1-.94-2.043,2.66,2.66,0,0,1,1.143-2.338,5.821,5.821,0,0,1,3.322-.791h.914v-.5q0-1.316-1.134-1.316a.927.927,0,0,0-1.055,1.042H123.97a2.655,2.655,0,0,1,1.173-2.239,4.931,4.931,0,0,1,2.993-.86,4.323,4.323,0,0,1,2.874.888,3.086,3.086,0,0,1,1.081,2.435v4.21a4.311,4.311,0,0,0,.4,2V44Zm-1.854-1.934a1.652,1.652,0,0,0,.918-.237,1.487,1.487,0,0,0,.523-.536V39.772h-.861q-1.547,0-1.547,1.389a.848.848,0,0,0,.272.655A.986.986,0,0,0,127.679,42.066Zm11.03-.738a.684.684,0,0,0-.4-.606,6.016,6.016,0,0,0-1.5-.475,6.853,6.853,0,0,1-1.828-.646,3.062,3.062,0,0,1-1.1-.971,2.319,2.319,0,0,1-.378-1.31,2.628,2.628,0,0,1,1.081-2.158,4.453,4.453,0,0,1,2.83-.848,4.934,4.934,0,0,1,3.023.853,2.666,2.666,0,0,1,1.143,2.241h-2.971q0-1.143-1.2-1.143a1.194,1.194,0,0,0-.782.259.8.8,0,0,0-.316.646.737.737,0,0,0,.387.642,3.654,3.654,0,0,0,1.235.4,10.671,10.671,0,0,1,1.49.378,2.706,2.706,0,0,1,2.145,2.646,2.491,2.491,0,0,1-1.156,2.118,5.068,5.068,0,0,1-2.993.817,5.172,5.172,0,0,1-2.18-.439,3.645,3.645,0,0,1-1.494-1.2,2.707,2.707,0,0,1-.536-1.591h2.769a1.145,1.145,0,0,0,.439.962,1.808,1.808,0,0,0,1.081.3,1.422,1.422,0,0,0,.91-.246A.787.787,0,0,0,138.709,41.328Z" transform="translate(-8765 -5993.271)" fill="#12263f"/>
    <path id="Trazado_103328" data-name="Trazado 103328" d="M8.289-10.562,3.578,0H2.063l4.7-10.187H.6v-1.187H8.289Zm2.3,4.859.578-5.672H17v1.336H12.4l-.344,3.1a3.671,3.671,0,0,1,1.9-.492A3.138,3.138,0,0,1,16.422-6.4a4.026,4.026,0,0,1,.914,2.777,3.886,3.886,0,0,1-.949,2.77A3.46,3.46,0,0,1,13.734.156,3.6,3.6,0,0,1,11.273-.68a3.337,3.337,0,0,1-1.086-2.312h1.367a2.3,2.3,0,0,0,.7,1.473,2.162,2.162,0,0,0,1.484.5,1.95,1.95,0,0,0,1.582-.687,2.874,2.874,0,0,0,.574-1.9,2.638,2.638,0,0,0-.621-1.832,2.113,2.113,0,0,0-1.652-.691,2.383,2.383,0,0,0-1.484.414l-.383.313Zm15.453.852a6.61,6.61,0,0,1-.867,3.773A3.084,3.084,0,0,1,22.469.156a3.107,3.107,0,0,1-2.7-1.207,6.274,6.274,0,0,1-.906-3.605v-1.93a6.463,6.463,0,0,1,.867-3.727,3.108,3.108,0,0,1,2.719-1.219,3.136,3.136,0,0,1,2.7,1.176,6.237,6.237,0,0,1,.891,3.629ZM24.6-6.828A5.3,5.3,0,0,0,24.086-9.5a1.775,1.775,0,0,0-1.633-.84,1.751,1.751,0,0,0-1.617.836,5.171,5.171,0,0,0-.523,2.57v2.313A5.381,5.381,0,0,0,20.848-1.9a1.771,1.771,0,0,0,1.621.879,1.747,1.747,0,0,0,1.59-.828A5.186,5.186,0,0,0,24.6-4.461Z" transform="translate(-8423 -6070.271)" fill="#12263f"/>
    <path id="Trazado_103330" data-name="Trazado 103330" d="M8.289-10.562,3.578,0H2.063l4.7-10.187H.6v-1.187H8.289Zm2.3,4.859.578-5.672H17v1.336H12.4l-.344,3.1a3.671,3.671,0,0,1,1.9-.492A3.138,3.138,0,0,1,16.422-6.4a4.026,4.026,0,0,1,.914,2.777,3.886,3.886,0,0,1-.949,2.77A3.46,3.46,0,0,1,13.734.156,3.6,3.6,0,0,1,11.273-.68a3.337,3.337,0,0,1-1.086-2.312h1.367a2.3,2.3,0,0,0,.7,1.473,2.162,2.162,0,0,0,1.484.5,1.95,1.95,0,0,0,1.582-.687,2.874,2.874,0,0,0,.574-1.9,2.638,2.638,0,0,0-.621-1.832,2.113,2.113,0,0,0-1.652-.691,2.383,2.383,0,0,0-1.484.414l-.383.313Zm15.453.852a6.61,6.61,0,0,1-.867,3.773A3.084,3.084,0,0,1,22.469.156a3.107,3.107,0,0,1-2.7-1.207,6.274,6.274,0,0,1-.906-3.605v-1.93a6.463,6.463,0,0,1,.867-3.727,3.108,3.108,0,0,1,2.719-1.219,3.136,3.136,0,0,1,2.7,1.176,6.237,6.237,0,0,1,.891,3.629ZM24.6-6.828A5.3,5.3,0,0,0,24.086-9.5a1.775,1.775,0,0,0-1.633-.84,1.751,1.751,0,0,0-1.617.836,5.171,5.171,0,0,0-.523,2.57v2.313A5.381,5.381,0,0,0,20.848-1.9a1.771,1.771,0,0,0,1.621.879,1.747,1.747,0,0,0,1.59-.828A5.186,5.186,0,0,0,24.6-4.461Z" transform="translate(-8273 -5978.271)" fill="#12263f"/>
    <path id="Trazado_103326" data-name="Trazado 103326" d="M0,0V194" transform="translate(-8487 -6120.271)" fill="none" stroke="#afafaf" stroke-linecap="round" stroke-width="1"/>
    <path id="Trazado_103329" data-name="Trazado 103329" d="M0,0V194" transform="translate(-8329 -6120.271)" fill="none" stroke="#afafaf" stroke-linecap="round" stroke-width="1"/>
    <path id="Trazado_103319" data-name="Trazado 103319" d="M0,0H616V60.672H0Z" transform="translate(-8791 -6180.946)" fill="#d9a171"/>
    <path id="Trazado_103324" data-name="Trazado 103324" d="M-17.5-4.333a4.673,4.673,0,0,1-.721,2.36,4.35,4.35,0,0,1-1.85,1.586,6.3,6.3,0,0,1-2.72.563,5.025,5.025,0,0,1-3.973-1.644,6.786,6.786,0,0,1-1.45-4.641v-.633a7.746,7.746,0,0,1,.655-3.292,4.961,4.961,0,0,1,1.885-2.18,5.26,5.26,0,0,1,2.848-.769,5.516,5.516,0,0,1,3.744,1.226,4.844,4.844,0,0,1,1.608,3.379h-3.076a2.292,2.292,0,0,0-.589-1.679,2.422,2.422,0,0,0-1.687-.51,1.843,1.843,0,0,0-1.687.861,5.536,5.536,0,0,0-.562,2.751v.905a6.126,6.126,0,0,0,.514,2.927,1.882,1.882,0,0,0,1.771.879,2.369,2.369,0,0,0,1.626-.5,2.126,2.126,0,0,0,.6-1.591Zm6.987,3.3a3.054,3.054,0,0,1-2.54,1.2,3,3,0,0,1-2.369-.91,3.826,3.826,0,0,1-.8-2.615V-9.51h2.962v6.179a1.065,1.065,0,0,0,1.187,1.222,1.548,1.548,0,0,0,1.45-.729V-9.51h2.979V0h-2.777Zm9.088,1.2A4.889,4.889,0,0,1-4.97-1.129a4.507,4.507,0,0,1-1.354-3.4v-.246a5.84,5.84,0,0,1,.541-2.575A3.955,3.955,0,0,1-4.206-9.075a4.763,4.763,0,0,1,2.461-.611A4.117,4.117,0,0,1,1.419-8.442,4.887,4.887,0,0,1,2.58-4.975v1.151H-3.309a2.135,2.135,0,0,0,.694,1.257,2.066,2.066,0,0,0,1.389.457,2.662,2.662,0,0,0,2.2-.984l1.354,1.6A3.784,3.784,0,0,1,.756-.277,5.3,5.3,0,0,1-1.428.176ZM-1.762-7.4q-1.3,0-1.547,1.723H-.321v-.229a1.467,1.467,0,0,0-.36-1.1A1.434,1.434,0,0,0-1.762-7.4ZM6.491-9.51l.1,1.116A3.225,3.225,0,0,1,9.3-9.686a2.713,2.713,0,0,1,2.219.888,4.226,4.226,0,0,1,.76,2.672V0H9.312V-6a1.6,1.6,0,0,0-.29-1.059A1.342,1.342,0,0,0,7.967-7.4a1.413,1.413,0,0,0-1.292.686V0H3.713V-9.51Zm10.881-2.364V-9.51h1.564v2.057H17.372V-3.1a1.111,1.111,0,0,0,.193.747,1.037,1.037,0,0,0,.765.211,4.345,4.345,0,0,0,.738-.053V-.079A5.466,5.466,0,0,1,17.4.176a3.1,3.1,0,0,1-2.259-.721,2.954,2.954,0,0,1-.729-2.188v-4.72H13.2V-9.51H14.41v-2.364ZM25.458,0a3.344,3.344,0,0,1-.281-.853A2.754,2.754,0,0,1,22.891.176a3.374,3.374,0,0,1-2.285-.813,2.588,2.588,0,0,1-.94-2.043,2.66,2.66,0,0,1,1.143-2.338A5.821,5.821,0,0,1,24.13-5.81h.914v-.5q0-1.316-1.134-1.316a.927.927,0,0,0-1.055,1.042H19.894a2.655,2.655,0,0,1,1.173-2.239,4.931,4.931,0,0,1,2.993-.86,4.323,4.323,0,0,1,2.874.888,3.086,3.086,0,0,1,1.081,2.435v4.21a4.311,4.311,0,0,0,.4,2V0ZM23.6-1.934a1.652,1.652,0,0,0,.918-.237,1.487,1.487,0,0,0,.523-.536V-4.228h-.861q-1.547,0-1.547,1.389a.848.848,0,0,0,.272.655A.986.986,0,0,0,23.6-1.934Z" transform="translate(-8671 -6144.271)" fill="#fff"/>
    <path id="Trazado_103327" data-name="Trazado 103327" d="M-19.718,0V-12.8H-15.6a6.064,6.064,0,0,1,3.05.769,5.406,5.406,0,0,1,2.114,2.171,6.554,6.554,0,0,1,.769,3.142v.589a6.592,6.592,0,0,1-.743,3.151A5.429,5.429,0,0,1-12.5-.8a5.93,5.93,0,0,1-3.01.8Zm3.085-10.415v8.042h1.072a2.4,2.4,0,0,0,2.039-.945,4.63,4.63,0,0,0,.712-2.808V-6.68a4.592,4.592,0,0,0-.712-2.795,2.442,2.442,0,0,0-2.074-.94ZM-3.617.176A4.889,4.889,0,0,1-7.159-1.129a4.507,4.507,0,0,1-1.354-3.4v-.246a5.84,5.84,0,0,1,.541-2.575A3.955,3.955,0,0,1-6.394-9.075a4.763,4.763,0,0,1,2.461-.611A4.117,4.117,0,0,1-.769-8.442,4.887,4.887,0,0,1,.391-4.975v1.151H-5.5A2.135,2.135,0,0,0-4.8-2.566a2.066,2.066,0,0,0,1.389.457,2.662,2.662,0,0,0,2.2-.984l1.354,1.6A3.784,3.784,0,0,1-1.433-.277,5.3,5.3,0,0,1-3.617.176ZM-3.951-7.4q-1.3,0-1.547,1.723h2.988v-.229a1.467,1.467,0,0,0-.36-1.1A1.434,1.434,0,0,0-3.951-7.4ZM10.411-4.676a5.8,5.8,0,0,1-.967,3.595A3.238,3.238,0,0,1,6.719.176,2.81,2.81,0,0,1,4.381-.976L4.258,0H1.6V-13.5H4.566v4.755A2.711,2.711,0,0,1,6.7-9.686,3.239,3.239,0,0,1,9.444-8.411a5.826,5.826,0,0,1,.967,3.586ZM7.44-4.865a3.866,3.866,0,0,0-.365-1.952A1.229,1.229,0,0,0,5.955-7.4a1.418,1.418,0,0,0-1.389.763v3.773a1.426,1.426,0,0,0,1.406.755A1.258,1.258,0,0,0,7.3-3.127,7.309,7.309,0,0,0,7.44-4.865ZM16.317.176a4.889,4.889,0,0,1-3.542-1.305,4.507,4.507,0,0,1-1.354-3.4v-.246a5.84,5.84,0,0,1,.541-2.575A3.955,3.955,0,0,1,13.54-9.075,4.763,4.763,0,0,1,16-9.686a4.117,4.117,0,0,1,3.164,1.244,4.887,4.887,0,0,1,1.16,3.467v1.151H14.436a2.135,2.135,0,0,0,.694,1.257,2.066,2.066,0,0,0,1.389.457,2.662,2.662,0,0,0,2.2-.984l1.354,1.6A3.784,3.784,0,0,1,18.5-.277,5.3,5.3,0,0,1,16.317.176ZM15.983-7.4q-1.3,0-1.547,1.723h2.988v-.229a1.467,1.467,0,0,0-.36-1.1A1.434,1.434,0,0,0,15.983-7.4Z" transform="translate(-8411 -6144.271)" fill="#fff"/>
    <path id="Trazado_103331" data-name="Trazado 103331" d="M-12.814,0h-3.067V-5.344h-4.544V0h-3.085V-12.8h3.085v5.08h4.544V-12.8h3.067Zm7.172,0a3.344,3.344,0,0,1-.281-.853A2.754,2.754,0,0,1-8.209.176a3.374,3.374,0,0,1-2.285-.813,2.588,2.588,0,0,1-.94-2.043,2.66,2.66,0,0,1,1.143-2.338A5.821,5.821,0,0,1-6.97-5.81h.914v-.5q0-1.316-1.134-1.316A.927.927,0,0,0-8.244-6.587h-2.962a2.655,2.655,0,0,1,1.173-2.239,4.931,4.931,0,0,1,2.993-.86A4.323,4.323,0,0,1-4.166-8.8,3.086,3.086,0,0,1-3.085-6.363v4.21a4.311,4.311,0,0,0,.4,2V0ZM-7.5-1.934a1.652,1.652,0,0,0,.918-.237,1.487,1.487,0,0,0,.523-.536V-4.228h-.861q-1.547,0-1.547,1.389a.848.848,0,0,0,.272.655A.986.986,0,0,0-7.5-1.934ZM7.383-4.676a5.8,5.8,0,0,1-.967,3.595A3.238,3.238,0,0,1,3.691.176,2.81,2.81,0,0,1,1.354-.976L1.23,0H-1.424V-13.5H1.538v4.755a2.711,2.711,0,0,1,2.136-.94A3.239,3.239,0,0,1,6.416-8.411a5.826,5.826,0,0,1,.967,3.586ZM4.412-4.865a3.866,3.866,0,0,0-.365-1.952A1.229,1.229,0,0,0,2.927-7.4a1.418,1.418,0,0,0-1.389.763v3.773a1.426,1.426,0,0,0,1.406.755A1.258,1.258,0,0,0,4.271-3.127,7.309,7.309,0,0,0,4.412-4.865ZM13.289.176A4.889,4.889,0,0,1,9.747-1.129a4.507,4.507,0,0,1-1.354-3.4v-.246a5.84,5.84,0,0,1,.541-2.575,3.955,3.955,0,0,1,1.578-1.727,4.763,4.763,0,0,1,2.461-.611,4.117,4.117,0,0,1,3.164,1.244A4.887,4.887,0,0,1,17.3-4.975v1.151H11.408A2.135,2.135,0,0,0,12.1-2.566a2.066,2.066,0,0,0,1.389.457,2.662,2.662,0,0,0,2.2-.984l1.354,1.6A3.784,3.784,0,0,1,15.473-.277,5.3,5.3,0,0,1,13.289.176ZM12.955-7.4q-1.3,0-1.547,1.723H14.4v-.229a1.467,1.467,0,0,0-.36-1.1A1.434,1.434,0,0,0,12.955-7.4Zm11.285.571-.976-.07a1.752,1.752,0,0,0-1.793.879V0H18.51V-9.51h2.777l.1,1.222a2.294,2.294,0,0,1,2.083-1.4,2.888,2.888,0,0,1,.826.105Z" transform="translate(-8246 -6144.271)" fill="#fff"/>
    <path id="Rectángulo_5271" data-name="Rectángulo 5271" d="M0,0H396V396H0Z" transform="translate(-9220 -6239)" fill="rgba(175,211,240,0)"/>
    <g id="Grupo_53881" data-name="Grupo 53881" transform="translate(-9220 -6239)">
      <rect id="Rectángulo_5272" data-name="Rectángulo 5272" width="178.12" height="250.77" transform="translate(180.94 66.26)" fill="#354154" opacity="0.15"/>
      <g id="Grupo_53622" data-name="Grupo 53622">
        <g id="Grupo_53616" data-name="Grupo 53616">
          <rect id="Rectángulo_5273" data-name="Rectángulo 5273" width="104.76" height="173.41" transform="translate(33.67 31.68)" fill="#839eb6"/>
        </g>
        <g id="Grupo_53617" data-name="Grupo 53617">
          <rect id="Rectángulo_5274" data-name="Rectángulo 5274" width="104.76" height="173.41" transform="translate(30.19 31.68)" fill="#afd3f0"/>
        </g>
        <g id="Grupo_53618" data-name="Grupo 53618">
          <rect id="Rectángulo_5275" data-name="Rectángulo 5275" width="95.84" height="166.38" transform="translate(34.65 35.19)" fill="#fafbfb"/>
        </g>
        <g id="Grupo_53621" data-name="Grupo 53621">
          <g id="Grupo_53619" data-name="Grupo 53619">
            <rect id="Rectángulo_5276" data-name="Rectángulo 5276" width="58.93" height="123.14" transform="translate(52.89 56.81)" fill="#afd3f0"/>
          </g>
          <g id="Grupo_53620" data-name="Grupo 53620">
            <path id="Trazado_100677" data-name="Trazado 100677" d="M52.89,136.38c-.13-11.5,10.21-22.73,21.6-24.34,5.44-.77,11.2.31,16.28-1.77,9.06-3.71,11.94-15.75,21.06-19.32l.42,89H52.89Z" fill="#839eb6"/>
          </g>
        </g>
      </g>
      <g id="Grupo_53624" data-name="Grupo 53624">
        <g id="Grupo_53623" data-name="Grupo 53623">
          <path id="Trazado_100678" data-name="Trazado 100678" d="M282.72,326.27a15.562,15.562,0,0,1,3.81-1.66l.78-3.76,6.37-.12.92,3.74a16.079,16.079,0,0,1,3.86,1.52l3.22-2.11,4.58,4.43-2,3.29a15.53,15.53,0,0,1,1.65,3.81l3.77.78.11,6.37-3.74.92a15.291,15.291,0,0,1-1.52,3.86l2.11,3.22-4.42,4.58-3.29-2a15.56,15.56,0,0,1-3.81,1.66l-.78,3.76-6.37.12-.92-3.74a15.669,15.669,0,0,1-3.86-1.52L280,355.53l-4.58-4.43,2-3.29a15.561,15.561,0,0,1-1.66-3.81l-3.77-.78-.11-6.37,3.74-.92a15.671,15.671,0,0,1,1.52-3.86L275,328.85l4.43-4.58,3.29,2Zm3.4,8.48a6.83,6.83,0,1,0,9.66-.17h0a6.83,6.83,0,0,0-9.66.17Z" fill="#f5f5f5"/>
        </g>
      </g>
      <g id="Grupo_53625" data-name="Grupo 53625">
        <path id="Trazado_100679" data-name="Trazado 100679" d="M374.69,364.12h4.63v.09c-18,.09-91.33.16-179,.16l-129.86-.06-39.35-.06h0L70.46,364l129.86-.06c87.67,0,161,.07,179,.16v.09h-3.48Z" fill="#354154"/>
      </g>
      <g id="Grupo_53642" data-name="Grupo 53642">
        <g id="Grupo_53638" data-name="Grupo 53638">
          <g id="Grupo_53627" data-name="Grupo 53627">
            <rect id="Rectángulo_5277" data-name="Rectángulo 5277" width="179.36" height="253.08" transform="translate(165.4 53.19)" fill="#fff"/>
            <g id="Grupo_53626" data-name="Grupo 53626">
              <path id="Trazado_100680" data-name="Trazado 100680" d="M344.75,306.26c0-1.68-.07-103.57-.18-253.07l.18.19H165.4l.2-.2V306.25l-.16-.17,179.35.17-179.35.17h-.17V53H345.02v.19C344.83,202.7,344.76,304.58,344.75,306.26Z" fill="#354154"/>
            </g>
          </g>
          <rect id="Rectángulo_5278" data-name="Rectángulo 5278" width="76.57" height="17.56" rx="6.69" transform="translate(177.48 221.21)" fill="#f5f5f5"/>
          <rect id="Rectángulo_5279" data-name="Rectángulo 5279" width="35.95" height="17.56" rx="6.69" transform="translate(215 221.21)" fill="#f5f5f5"/>
          <rect id="Rectángulo_5280" data-name="Rectángulo 5280" width="157.88" height="17.56" rx="6.69" transform="translate(177.12 257.2)" fill="#f5f5f5"/>
          <g id="Grupo_53628" data-name="Grupo 53628">
            <path id="Trazado_100681" data-name="Trazado 100681" d="M212.63,214.15c0,.12-7.4.21-16.52.21s-16.53-.09-16.53-.21,7.4-.21,16.53-.21S212.63,214,212.63,214.15Z" fill="#354154"/>
          </g>
          <g id="Grupo_53629" data-name="Grupo 53629">
            <path id="Trazado_100682" data-name="Trazado 100682" d="M233.61,250c0,.12-12,.21-26.81.21S180,250.07,180,250s12-.21,26.81-.21S233.61,249.84,233.61,250Z" fill="#354154"/>
          </g>
          <rect id="Rectángulo_5281" data-name="Rectángulo 5281" width="127.93" height="31.82" rx="6.51" transform="translate(202.07 150.83)" fill="#839eb6"/>
          <rect id="Rectángulo_5282" data-name="Rectángulo 5282" width="160.7" height="19.19" rx="6.51" transform="translate(174.3 64.68)" fill="#839eb6"/>
          <g id="Grupo_53630" data-name="Grupo 53630">
            <path id="Trazado_100683" data-name="Trazado 100683" d="M288.88,74.27c0,.12-14.26.21-31.85.21s-31.84-.09-31.84-.21,14.25-.2,31.84-.2S288.88,74.16,288.88,74.27Z" fill="#354154"/>
          </g>
          <g id="Grupo_53631" data-name="Grupo 53631">
            <path id="Trazado_100684" data-name="Trazado 100684" d="M344.76,88.52c0,.11-40.19.2-89.76.2s-89.77-.09-89.77-.2,40.19-.21,89.77-.21S344.76,88.4,344.76,88.52Z" fill="#afd3f0"/>
          </g>
          <g id="Grupo_53632" data-name="Grupo 53632">
            <path id="Trazado_100685" data-name="Trazado 100685" d="M344.76,173.41c0,.12-40.19.21-89.76.21s-89.77-.09-89.77-.21,40.19-.21,89.77-.21S344.76,173.3,344.76,173.41Z" fill="#afd3f0"/>
          </g>
          <rect id="Rectángulo_5283" data-name="Rectángulo 5283" width="76.57" height="17.56" rx="6.69" transform="translate(177.48 107.76)" fill="#f5f5f5"/>
          <rect id="Rectángulo_5284" data-name="Rectángulo 5284" width="35.95" height="17.56" rx="6.69" transform="translate(215 107.76)" fill="#f5f5f5"/>
          <rect id="Rectángulo_5285" data-name="Rectángulo 5285" width="75.82" height="17.56" rx="6.69" transform="translate(252.92 124.48)" fill="#f5f5f5"/>
          <g id="Grupo_53633" data-name="Grupo 53633">
            <path id="Trazado_100686" data-name="Trazado 100686" d="M212.63,100.69c0,.12-7.4.21-16.52.21s-16.53-.09-16.53-.21,7.4-.21,16.53-.21S212.63,100.58,212.63,100.69Z" fill="#354154"/>
          </g>
          <g id="Grupo_53634" data-name="Grupo 53634">
            <path id="Trazado_100687" data-name="Trazado 100687" d="M290.82,100.69c0,.12-5.82.21-13,.21s-13-.09-13-.21,5.83-.21,13-.21S290.82,100.58,290.82,100.69Z" fill="#354154"/>
          </g>
          <g id="Grupo_53635" data-name="Grupo 53635">
            <path id="Trazado_100688" data-name="Trazado 100688" d="M233.61,136.49c0,.12-12,.21-26.81.21s-26.81-.09-26.81-.21,12-.2,26.81-.2S233.61,136.38,233.61,136.49Z" fill="#354154"/>
          </g>
          <g id="Grupo_53636" data-name="Grupo 53636">
            <path id="Trazado_100689" data-name="Trazado 100689" d="M329.46,285.42c0,.12-11.71.21-26.15.21s-26.15-.09-26.15-.21,11.7-.21,26.15-.21S329.46,285.31,329.46,285.42Z" fill="#354154"/>
          </g>
          <g id="Grupo_53637" data-name="Grupo 53637">
            <path id="Trazado_100690" data-name="Trazado 100690" d="M276.77,156.27l-10.39,23.9h-5.63l10.41-22.57H257.8v-4.3h19Z" fill="#fff"/>
            <path id="Trazado_100691" data-name="Trazado 100691" d="M281,167l1.55-13.65h15.06v4.44H286.9l-.66,5.78a8.38,8.38,0,0,1,4-1,7.69,7.69,0,0,1,6,2.38,9.48,9.48,0,0,1,2.18,6.66,9.7,9.7,0,0,1-1.1,4.66,7.72,7.72,0,0,1-3.14,3.19,9.84,9.84,0,0,1-4.84,1.14,10.52,10.52,0,0,1-4.52-1,8.09,8.09,0,0,1-3.3-2.78,7.59,7.59,0,0,1-1.28-4.08h5.28a3.94,3.94,0,0,0,1.17,2.61,3.74,3.74,0,0,0,2.63.94,3.3,3.3,0,0,0,2.79-1.3,6,6,0,0,0,1-3.69,5,5,0,0,0-1.13-3.5,4.13,4.13,0,0,0-3.19-1.22,4.62,4.62,0,0,0-3.08,1l-.52.48Z" fill="#fff"/>
            <path id="Trazado_100692" data-name="Trazado 100692" d="M320,169.06q0,5.58-2.31,8.53a9.23,9.23,0,0,1-13,.49c-.15-.14-.3-.29-.44-.44q-2.32-2.89-2.38-8.3v-5q0-5.62,2.33-8.54a9.24,9.24,0,0,1,13.06-.42l.39.39q2.32,2.88,2.38,8.3Zm-5.33-5.44a9.87,9.87,0,0,0-.92-4.87,3.09,3.09,0,0,0-2.85-1.52,3,3,0,0,0-2.78,1.45,9.38,9.38,0,0,0-.95,4.54v6.54a10.38,10.38,0,0,0,.9,4.88,3.38,3.38,0,0,0,5.7.07,10.11,10.11,0,0,0,.9-4.69Z" fill="#fff"/>
          </g>
        </g>
        <g id="Grupo_53639" data-name="Grupo 53639">
          <path id="Trazado_100693" data-name="Trazado 100693" d="M242.28,118.38a10.22,10.22,0,0,1-1.24.31,14.63,14.63,0,0,1-9.24-1.33,5.11,5.11,0,0,1-1.42-1.07,3.38,3.38,0,0,1-.85-1.71,2.49,2.49,0,0,1,.41-2,2,2,0,0,1,2-.65,1.48,1.48,0,0,1,.89.75,1.83,1.83,0,0,1,.15,1.17,4.19,4.19,0,0,1-1.1,2.06,10.1,10.1,0,0,1-4,2.74,9.64,9.64,0,0,1-5.18.47,5.75,5.75,0,0,1-2.54-1.11,3,3,0,0,1-1.23-2.57,2.76,2.76,0,0,1,.55-1.4,2.17,2.17,0,0,1,1.26-.88,1.57,1.57,0,0,1,1.5.49,2.29,2.29,0,0,1,.54,1.48,3.08,3.08,0,0,1-.37,1.52,3.52,3.52,0,0,1-1.09,1.15,9.84,9.84,0,0,1-2.86,1.14,12.59,12.59,0,0,1-6.23.67,5.92,5.92,0,0,1-2.87-1.56,4.13,4.13,0,0,1-1.24-3.06,2.74,2.74,0,0,1,.87-1.94,2,2,0,0,1,2.11-.23,1.61,1.61,0,0,1,.9,1.89,3.14,3.14,0,0,1-1.25,1.64,16.13,16.13,0,0,1-7.2,2.74,7.25,7.25,0,0,1-3.75-.33,3.79,3.79,0,0,1-2.31-2.83,2.57,2.57,0,0,1,1.91-2.87,1.77,1.77,0,0,1,1.71.61,2.72,2.72,0,0,1,.6,1.66,3.3,3.3,0,0,1-.37,1.69,3.94,3.94,0,0,1-1.13,1.24,8.56,8.56,0,0,1-2.94,1.23,9.77,9.77,0,0,1-5.86.21,5,5,0,0,1-2.23-1.62,3.59,3.59,0,0,1-.78-2.47,3.48,3.48,0,0,1,1.06-2.17,2.36,2.36,0,0,1,2.14-.64h.09v.09a6.23,6.23,0,0,1-1.57,4.26,6.59,6.59,0,0,1-2.8,1.91,5.36,5.36,0,0,1-2.1.27,5.721,5.721,0,0,1-.72-.14,5.59,5.59,0,0,0,2.78-.25,6.46,6.46,0,0,0,2.7-1.91,6,6,0,0,0,1.48-4.13l.09.11a2.11,2.11,0,0,0-1.91.6,3.22,3.22,0,0,0-1,2,4,4,0,0,0,2.85,3.78,9.59,9.59,0,0,0,5.66-.25A8.47,8.47,0,0,0,200,118a3.59,3.59,0,0,0,1-1.13,3,3,0,0,0,.31-1.5,2.33,2.33,0,0,0-.51-1.43,1.41,1.41,0,0,0-1.36-.49,2.21,2.21,0,0,0-1.6,2.46,3.4,3.4,0,0,0,2.08,2.51,6.81,6.81,0,0,0,3.55.29,15.85,15.85,0,0,0,7-2.66,2.82,2.82,0,0,0,1.1-1.42,1.19,1.19,0,0,0-.67-1.41,1.58,1.58,0,0,0-1.66.17,2.3,2.3,0,0,0-.73,1.65,3.67,3.67,0,0,0,1.13,2.74,5.37,5.37,0,0,0,2.66,1.45,12.34,12.34,0,0,0,6-.65,9.64,9.64,0,0,0,2.75-1.09,3.16,3.16,0,0,0,1-1,2.66,2.66,0,0,0,.32-1.32A1.81,1.81,0,0,0,222,114a1.14,1.14,0,0,0-1.12-.38,2.21,2.21,0,0,0-1.51,1.93,2.63,2.63,0,0,0,1.08,2.24,5.49,5.49,0,0,0,2.37,1,9.46,9.46,0,0,0,5-.43,9.67,9.67,0,0,0,3.9-2.64,3.84,3.84,0,0,0,1-1.89,1.31,1.31,0,0,0-.82-1.58,1.65,1.65,0,0,0-1.72.53,2.31,2.31,0,0,0-.37,1.77,3.83,3.83,0,0,0,2.13,2.62,14.45,14.45,0,0,0,5.48,1.57,15.75,15.75,0,0,0,3.63-.12l.94-.18Z" fill="#d9a172"/>
        </g>
        <g id="Grupo_53640" data-name="Grupo 53640">
          <path id="Trazado_100694" data-name="Trazado 100694" d="M320.57,117.42a4.92,4.92,0,0,1-1,.5,9.25,9.25,0,0,1-3.15.67,9.69,9.69,0,0,1-4.95-1.16,6.29,6.29,0,0,1-2.41-2.11,3,3,0,0,1-.43-1.74,2.4,2.4,0,0,1,.93-1.65,1.46,1.46,0,0,1,1.95.09,2.38,2.38,0,0,1,.64,2,3.42,3.42,0,0,1-1,1.9,8.089,8.089,0,0,1-1.75,1.33,10.26,10.26,0,0,1-4.37,1.4,8.25,8.25,0,0,1-4.78-.89,4.68,4.68,0,0,1-1.85-1.79,3.61,3.61,0,0,1-.43-1.27,3.29,3.29,0,0,1,.2-1.36,3.18,3.18,0,0,1,1.91-1.92,1.85,1.85,0,0,1,1.44.14,2.24,2.24,0,0,1,1,1.08,3.34,3.34,0,0,1-.1,2.8,5.84,5.84,0,0,1-1.91,2.1,10.45,10.45,0,0,1-5.37,1.86,10.72,10.72,0,0,1-5.56-1.2,8.459,8.459,0,0,1-2.26-1.69,3.86,3.86,0,0,1-1.12-2.57,2.52,2.52,0,0,1,1.54-2.28,1.57,1.57,0,0,1,1.44.17,2.11,2.11,0,0,1,.79,1.17,3,3,0,0,1-.54,2.59,7.55,7.55,0,0,1-1.84,1.77,11.26,11.26,0,0,1-9,1.94,6.13,6.13,0,0,1-3.67-2.2,3.41,3.41,0,0,1-.68-1.95,3.75,3.75,0,0,1,.49-1.91,2.41,2.41,0,0,1,1.47-1.18,2.07,2.07,0,0,1,1.75.39,3.24,3.24,0,0,1,1.19,2.93,4,4,0,0,1-1.42,2.4,5.31,5.31,0,0,1-2.09,1.06,10.49,10.49,0,0,1-3.21.2l-.84-.07a1.37,1.37,0,0,1-.28,0h1.12a10.93,10.93,0,0,0,3.17-.28,5.2,5.2,0,0,0,2-1.05,3.77,3.77,0,0,0,1.31-2.28,3,3,0,0,0-1.11-2.69,1.84,1.84,0,0,0-1.52-.33,2.19,2.19,0,0,0-1.29,1.06,3.22,3.22,0,0,0,.2,3.52,5.82,5.82,0,0,0,3.48,2.05,11,11,0,0,0,8.74-1.91,8.239,8.239,0,0,0,1.75-1.69,2.63,2.63,0,0,0,.47-2.25,1.68,1.68,0,0,0-.63-1,1.15,1.15,0,0,0-1.08-.12,2.13,2.13,0,0,0-1.27,1.9,3.41,3.41,0,0,0,1,2.29,8,8,0,0,0,2.15,1.6,10.3,10.3,0,0,0,5.34,1.14,9.94,9.94,0,0,0,5.15-1.78,5.26,5.26,0,0,0,1.78-1.94,2.92,2.92,0,0,0,.1-2.45,1.6,1.6,0,0,0-1.92-1,2.73,2.73,0,0,0-1.64,1.68,2.591,2.591,0,0,0-.18,1.17,3.2,3.2,0,0,0,.37,1.13,4.39,4.39,0,0,0,1.7,1.64,8,8,0,0,0,4.56.86,10,10,0,0,0,4.23-1.33,7.721,7.721,0,0,0,1.69-1.27,3.16,3.16,0,0,0,.92-1.71,2.07,2.07,0,0,0-.54-1.71,1.19,1.19,0,0,0-1.56-.07,2.17,2.17,0,0,0-.82,1.44,2.56,2.56,0,0,0,.38,1.57,6,6,0,0,0,2.29,2,9.66,9.66,0,0,0,7.95.62A9.553,9.553,0,0,0,320.57,117.42Z" fill="#d9a172"/>
        </g>
        <g id="Grupo_53641" data-name="Grupo 53641">
          <path id="Trazado_100695" data-name="Trazado 100695" d="M246.18,152.77l-.31.16-.92.41c-.81.36-2,.89-3.59,1.48a29.473,29.473,0,0,1-5.93,1.58,22.439,22.439,0,0,1-3.84.23,13,13,0,0,1-4.28-.64,5.11,5.11,0,0,1-3.24-3.38,3.32,3.32,0,0,1,.31-2.56,2.92,2.92,0,0,1,2.21-1.49,2.44,2.44,0,0,1,2.3,1.49,3.73,3.73,0,0,1,.2,2.84,5.48,5.48,0,0,1-1.67,2.4,10.62,10.62,0,0,1-2.52,1.62,8.53,8.53,0,0,1-6.07.71,6.14,6.14,0,0,1-4.22-4.65,5,5,0,0,1,0-1.69,3.34,3.34,0,0,1,.69-1.59,2.18,2.18,0,0,1,1.54-.89,1.56,1.56,0,0,1,1.48,1,4.13,4.13,0,0,1-.59,3.4,10.23,10.23,0,0,1-2.24,2.66,9.46,9.46,0,0,1-12.54-.19,5.37,5.37,0,0,1-1.63-2.86,3.124,3.124,0,0,1,1.05-3.03,2.69,2.69,0,0,1,1.49-.7,1.92,1.92,0,0,1,1.57.49,3,3,0,0,1,.72,3,5.6,5.6,0,0,1-1.66,2.51,13.211,13.211,0,0,1-2.33,1.74,13.5,13.5,0,0,1-5.22,1.78,11.77,11.77,0,0,1-5.14-.46,5.76,5.76,0,0,1-2.11-1.27,4.06,4.06,0,0,1-1.15-2.07,3.7,3.7,0,0,1,.21-2.25,2.22,2.22,0,0,1,1.68-1.3,2.52,2.52,0,0,1,2,.53,1.88,1.88,0,0,1,.62,1.78,2.79,2.79,0,0,1-.93,1.51,5.3,5.3,0,0,1-1.35.9,15.161,15.161,0,0,1-2.63,1,14.68,14.68,0,0,1-3.84.57,8.71,8.71,0,0,1-1.35,0,1.29,1.29,0,0,1,.34,0h1a15.78,15.78,0,0,0,6.38-1.67,5.72,5.72,0,0,0,1.3-.88,2.57,2.57,0,0,0,.84-1.4,1.58,1.58,0,0,0-.55-1.55,2.25,2.25,0,0,0-1.75-.46A1.94,1.94,0,0,0,189,152.7a3.38,3.38,0,0,0-.17,2.06,4.34,4.34,0,0,0,3.08,3.09,11.35,11.35,0,0,0,5,.42,13.07,13.07,0,0,0,5.08-1.74,13.92,13.92,0,0,0,2.26-1.7,5.33,5.33,0,0,0,1.55-2.35,2.67,2.67,0,0,0-.61-2.6,1.88,1.88,0,0,0-2.54.21,3,3,0,0,0-.82,1.2,2.83,2.83,0,0,0-.09,1.47,4.94,4.94,0,0,0,1.51,2.64,9.06,9.06,0,0,0,12,.16,9.76,9.76,0,0,0,2.15-2.55,4.48,4.48,0,0,0,.61-1.5,2.78,2.78,0,0,0-.05-1.54,1.13,1.13,0,0,0-1.08-.77,1.78,1.78,0,0,0-1.23.74,3.7,3.7,0,0,0-.6,2.94,5.78,5.78,0,0,0,3.93,4.35,8.22,8.22,0,0,0,5.8-.68c1.74-.83,3.42-2.05,4-3.79a3.37,3.37,0,0,0-.18-2.57,2.09,2.09,0,0,0-1.95-1.3,2.53,2.53,0,0,0-2,1.31,3,3,0,0,0-.29,2.3,4.82,4.82,0,0,0,3,3.19,12.889,12.889,0,0,0,4.17.65,22.94,22.94,0,0,0,3.8-.2,29.54,29.54,0,0,0,5.92-1.5c1.58-.57,2.79-1.07,3.61-1.4l.93-.38A2,2,0,0,1,246.18,152.77Z" fill="#d9a172"/>
        </g>
      </g>
      <g id="Grupo_53667" data-name="Grupo 53667">
        <g id="Grupo_53663" data-name="Grupo 53663">
          <g id="Grupo_53643" data-name="Grupo 53643">
            <path id="Trazado_100696" data-name="Trazado 100696" d="M322.07,328.84s-18.42-21.19-25.36-42.39-3.65-18.76-3.65-18.76,9.38,20.59,16.5,30.53,19.8,24.54,19.8,24.54Z" fill="#5f6178"/>
          </g>
          <g id="Grupo_53644" data-name="Grupo 53644">
            <path id="Trazado_100697" data-name="Trazado 100697" d="M325.74,271a1.07,1.07,0,0,0-2,.69c1.12,7.44,3.55,24.91,3.45,36.24-.12,14.72,0,20.41,0,20.41h7.66s-1.36-30.43-3.09-39.7A63.938,63.938,0,0,0,325.74,271Z" fill="#5f6178"/>
          </g>
          <g id="Grupo_53645" data-name="Grupo 53645">
            <path id="Trazado_100698" data-name="Trazado 100698" d="M329.92,325.86A81.291,81.291,0,0,0,336.23,303c.63-5.41-.5-12.74-2.17-22.51a59.59,59.59,0,0,1-1-10.83,1.83,1.83,0,0,1,3.43-.86c.93,1.65,3.6,7.29,4.28,10.83,1.86,9.65,4,14.47,2.35,23.62s-7.54,23.26-7.54,23.26Z" fill="#5f6178"/>
          </g>
          <g id="Grupo_53646" data-name="Grupo 53646">
            <path id="Trazado_100699" data-name="Trazado 100699" d="M336.82,326.47S357,283,358.44,276.57s6.17-21.3,6.73-20.45,1.4,8.68-2.25,17.65-19.2,54-19.2,54h-6.9" fill="#5f6178"/>
          </g>
          <g id="Grupo_53648" data-name="Grupo 53648">
            <g id="Grupo_53647" data-name="Grupo 53647">
              <path id="Trazado_100700" data-name="Trazado 100700" d="M327.7,324.53a3.122,3.122,0,0,1-.56-.39c-.36-.27-.9-.65-1.57-1.2q-2.83-2.26-5.43-4.8a90.469,90.469,0,0,1-14.67-18.83,122.709,122.709,0,0,1-10-21.68c-1-2.89-1.76-5.25-2.24-6.89-.25-.82-.42-1.46-.54-1.9a5.432,5.432,0,0,1-.16-.67,3.808,3.808,0,0,1,.24.64c.16.47.36,1.09.62,1.87.53,1.63,1.31,4,2.36,6.84a132,132,0,0,0,10.1,21.57,95.4,95.4,0,0,0,14.51,18.83c2.17,2.15,4,3.79,5.33,4.88.65.56,1.17,1,1.51,1.26a3.269,3.269,0,0,1,.5.47Z" fill="#354154"/>
            </g>
          </g>
          <g id="Grupo_53650" data-name="Grupo 53650">
            <g id="Grupo_53649" data-name="Grupo 53649">
              <path id="Trazado_100701" data-name="Trazado 100701" d="M329.92,303.69a6.92,6.92,0,0,1-.18-1.28c-.1-.9-.22-2.07-.38-3.48-.31-2.94-.81-7-1.53-11.45s-1.51-8.46-2.13-11.35l-.74-3.42a7.868,7.868,0,0,1-.23-1.27,7.677,7.677,0,0,1,.4,1.23c.22.8.52,1.95.87,3.4.69,2.88,1.54,6.88,2.26,11.35s1.17,8.53,1.41,11.48c.12,1.48.2,2.67.24,3.5a7.937,7.937,0,0,1,.01,1.29Z" fill="#354154"/>
            </g>
          </g>
          <g id="Grupo_53652" data-name="Grupo 53652">
            <g id="Grupo_53651" data-name="Grupo 53651">
              <path id="Trazado_100702" data-name="Trazado 100702" d="M334.65,268.43a3,3,0,0,1,.24.55l.6,1.62c.27.7.58,1.56.87,2.58s.69,2.17,1,3.48c.16.65.33,1.33.5,2s.29,1.47.45,2.24c.33,1.54.53,3.22.78,5a74.09,74.09,0,0,1-.83,23c-.37,1.73-.69,3.39-1.13,4.9-.21.76-.38,1.5-.6,2.2s-.44,1.36-.64,2c-.39,1.28-.86,2.4-1.23,3.4s-.74,1.84-1.05,2.52l-.72,1.56a3.457,3.457,0,0,1-.28.54,2.751,2.751,0,0,1,.2-.57c.16-.4.38-.94.64-1.6s.64-1.53,1-2.54.8-2.12,1.17-3.41l.61-2c.21-.7.38-1.43.58-2.19.42-1.51.73-3.16,1.09-4.89a76.8,76.8,0,0,0,.82-22.85c-.23-1.75-.42-3.41-.74-4.95-.14-.77-.25-1.52-.42-2.23s-.31-1.39-.47-2c-.27-1.31-.64-2.46-.91-3.49s-.56-1.89-.8-2.6-.4-1.22-.53-1.63a2.941,2.941,0,0,1-.2-.64Z" fill="#354154"/>
            </g>
          </g>
          <g id="Grupo_53654" data-name="Grupo 53654">
            <g id="Grupo_53653" data-name="Grupo 53653">
              <path id="Trazado_100703" data-name="Trazado 100703" d="M364.93,257a.669.669,0,0,1,0,.2l-.09.56c-.09.5-.2,1.23-.4,2.16a74.8,74.8,0,0,1-2.05,7.83c-1.05,3.27-2.39,7.09-4,11.3s-3.53,8.79-5.32,13.66-3.23,9.63-4.55,13.94-2.54,8.19-3.74,11.39a70.751,70.751,0,0,1-3.2,7.43c-.41.87-.78,1.5-1,2l-.29.5a.42.42,0,0,1-.11.16.581.581,0,0,1,.08-.18l.24-.52c.22-.45.56-1.11.95-2,.82-1.72,1.91-4.25,3.06-7.46s2.37-7.08,3.65-11.4,2.7-9.09,4.52-14,3.71-9.47,5.36-13.67,3.06-8,4.1-11.24,1.74-5.91,2.18-7.76c.22-.93.36-1.66.48-2.15.05-.22.1-.4.13-.55a.661.661,0,0,1,0-.2Z" fill="#354154"/>
            </g>
          </g>
          <g id="Grupo_53662" data-name="Grupo 53662">
            <g id="Grupo_53655" data-name="Grupo 53655">
              <path id="Trazado_100704" data-name="Trazado 100704" d="M302.59,247.4a1.74,1.74,0,0,0-2.87,1.77,52.346,52.346,0,0,0,2.54,6.54c2.78,5.9,10.95,27.1,14.77,38.74s9.21,33.35,9.21,33.35l8.16-1.32s-7.47-35.68-14.76-48.54C313.77,267.61,307.91,252.69,302.59,247.4Z" fill="#5f6178"/>
            </g>
            <g id="Grupo_53657" data-name="Grupo 53657">
              <g id="Grupo_53656" data-name="Grupo 53656">
                <path id="Trazado_100705" data-name="Trazado 100705" d="M319.26,301.72a4.459,4.459,0,0,1,.42,1c.25.64.57,1.58.95,2.74.75,2.33,1.67,5.58,2.6,9.19s1.69,6.9,2.23,9.29l.61,2.83a5.229,5.229,0,0,1,.17,1.05,4.589,4.589,0,0,1-.33-1l-.75-2.8c-.62-2.46-1.44-5.68-2.35-9.25s-1.8-6.87-2.47-9.21c-.33-1.11-.6-2-.81-2.78a5,5,0,0,1-.27-1.06Z" fill="#354154"/>
              </g>
            </g>
            <g id="Grupo_53659" data-name="Grupo 53659">
              <g id="Grupo_53658" data-name="Grupo 53658">
                <path id="Trazado_100706" data-name="Trazado 100706" d="M330.34,327.14a.87.87,0,0,1,0-.22,5.084,5.084,0,0,0-.09-.64c-.08-.57-.16-1.4-.33-2.48-.3-2.14-.84-5.23-1.71-9a130.51,130.51,0,0,0-3.82-13c-1.68-4.84-3.78-10.06-6.16-15.47-4.8-10.8-9.6-20.38-12.75-27.46-1.59-3.54-2.82-6.42-3.63-8.43-.42-1-.72-1.79-.92-2.32-.09-.25-.17-.45-.23-.61a.79.79,0,0,1-.06-.22,1.854,1.854,0,0,1,.1.2l.26.6c.25.55.58,1.32,1,2.29.86,2,2.13,4.85,3.76,8.36,3.22,7.05,8.06,16.6,12.87,27.42,2.38,5.42,4.47,10.66,6.13,15.51a122.144,122.144,0,0,1,3.74,13.1,89.662,89.662,0,0,1,1.58,9.05c.15,1.08.2,1.92.26,2.49v.64A.811.811,0,0,1,330.34,327.14Z" fill="#354154"/>
              </g>
            </g>
            <g id="Grupo_53661" data-name="Grupo 53661">
              <g id="Grupo_53660" data-name="Grupo 53660">
                <path id="Trazado_100707" data-name="Trazado 100707" d="M334.4,326.47a8.748,8.748,0,0,1-.28-1.37c-.16-1-.37-2.22-.63-3.75-.56-3.16-1.42-7.52-2.66-12.26s-2.6-9-3.65-12l-1.28-3.58a7.927,7.927,0,0,1-.43-1.33,8.555,8.555,0,0,1,.58,1.27c.36.83.85,2,1.41,3.54a117.426,117.426,0,0,1,3.79,12,125.738,125.738,0,0,1,2.54,12.32c.23,1.59.41,2.88.5,3.78a9.306,9.306,0,0,1,.11,1.38Z" fill="#354154"/>
              </g>
            </g>
          </g>
        </g>
        <g id="Grupo_53666" data-name="Grupo 53666">
          <g id="Grupo_53664" data-name="Grupo 53664">
            <rect id="Rectángulo_5286" data-name="Rectángulo 5286" width="31.86" height="38.81" transform="translate(319.29 325.3)" fill="#354154"/>
          </g>
          <g id="Grupo_53665" data-name="Grupo 53665">
            <rect id="Rectángulo_5287" data-name="Rectángulo 5287" width="28.26" height="38.81" transform="translate(312.73 325.3)" fill="#6595bf"/>
          </g>
        </g>
      </g>
      <g id="Grupo_53880" data-name="Grupo 53880">
        <g id="Grupo_53834" data-name="Grupo 53834">
          <g id="Grupo_53830" data-name="Grupo 53830">
            <g id="Grupo_53700" data-name="Grupo 53700">
              <g id="Grupo_53699" data-name="Grupo 53699">
                <g id="Grupo_53698" data-name="Grupo 53698">
                  <g id="Grupo_53682" data-name="Grupo 53682">
                    <g id="Grupo_53681" data-name="Grupo 53681">
                      <g id="Grupo_53680" data-name="Grupo 53680">
                        <g id="Grupo_53679" data-name="Grupo 53679">
                          <g id="Grupo_53678" data-name="Grupo 53678">
                            <g id="Grupo_53677" data-name="Grupo 53677">
                              <g id="Grupo_53676" data-name="Grupo 53676">
                                <g id="Grupo_53675" data-name="Grupo 53675">
                                  <g id="Grupo_53674" data-name="Grupo 53674">
                                    <g id="Grupo_53673" data-name="Grupo 53673">
                                      <g id="Grupo_53672" data-name="Grupo 53672">
                                        <g id="Grupo_53671" data-name="Grupo 53671">
                                          <g id="Grupo_53670" data-name="Grupo 53670">
                                            <g id="Grupo_53669" data-name="Grupo 53669">
                                              <g id="Grupo_53668" data-name="Grupo 53668">
                                                <path id="Trazado_100708" data-name="Trazado 100708" d="M82.11,119.52l-.9,72.92c-.16,12.4,2.15,30.64,21.76,30h0c17-1.85,21.48-17.92,21.62-29.49.06-5.49.12-10.07.17-10.63,0,0,18.58-1.52,20.15-19.87.76-8.87.83-27.27.7-43.91a34.31,34.31,0,0,0-31.82-33.95L112,84.46C92.82,84.18,81.86,100.33,82.11,119.52Z" fill="#fbbe9e"/>
                                              </g>
                                            </g>
                                          </g>
                                        </g>
                                      </g>
                                    </g>
                                  </g>
                                </g>
                              </g>
                            </g>
                          </g>
                        </g>
                      </g>
                    </g>
                  </g>
                  <g id="Grupo_53697" data-name="Grupo 53697">
                    <g id="Grupo_53696" data-name="Grupo 53696">
                      <g id="Grupo_53695" data-name="Grupo 53695">
                        <g id="Grupo_53694" data-name="Grupo 53694">
                          <g id="Grupo_53693" data-name="Grupo 53693">
                            <g id="Grupo_53692" data-name="Grupo 53692">
                              <g id="Grupo_53691" data-name="Grupo 53691">
                                <g id="Grupo_53690" data-name="Grupo 53690">
                                  <g id="Grupo_53689" data-name="Grupo 53689">
                                    <g id="Grupo_53688" data-name="Grupo 53688">
                                      <g id="Grupo_53687" data-name="Grupo 53687">
                                        <g id="Grupo_53686" data-name="Grupo 53686">
                                          <g id="Grupo_53685" data-name="Grupo 53685">
                                            <g id="Grupo_53684" data-name="Grupo 53684">
                                              <g id="Grupo_53683" data-name="Grupo 53683">
                                                <path id="Trazado_100709" data-name="Trazado 100709" d="M124.76,182.31a44.47,44.47,0,0,1-23.4-8.81s4.85,13.84,23.3,13.52Z" fill="#f7996e"/>
                                              </g>
                                            </g>
                                          </g>
                                        </g>
                                      </g>
                                    </g>
                                  </g>
                                </g>
                              </g>
                            </g>
                          </g>
                        </g>
                      </g>
                    </g>
                  </g>
                </g>
              </g>
            </g>
            <g id="Grupo_53784" data-name="Grupo 53784">
              <g id="Grupo_53783" data-name="Grupo 53783">
                <g id="Grupo_53752" data-name="Grupo 53752">
                  <g id="Grupo_53751" data-name="Grupo 53751">
                    <g id="Grupo_53750" data-name="Grupo 53750">
                      <g id="Grupo_53717" data-name="Grupo 53717">
                        <g id="Grupo_53716" data-name="Grupo 53716">
                          <g id="Grupo_53715" data-name="Grupo 53715">
                            <g id="Grupo_53714" data-name="Grupo 53714">
                              <g id="Grupo_53713" data-name="Grupo 53713">
                                <g id="Grupo_53712" data-name="Grupo 53712">
                                  <g id="Grupo_53711" data-name="Grupo 53711">
                                    <g id="Grupo_53710" data-name="Grupo 53710">
                                      <g id="Grupo_53709" data-name="Grupo 53709">
                                        <g id="Grupo_53708" data-name="Grupo 53708">
                                          <g id="Grupo_53707" data-name="Grupo 53707">
                                            <g id="Grupo_53706" data-name="Grupo 53706">
                                              <g id="Grupo_53705" data-name="Grupo 53705">
                                                <g id="Grupo_53704" data-name="Grupo 53704">
                                                  <g id="Grupo_53703" data-name="Grupo 53703">
                                                    <g id="Grupo_53702" data-name="Grupo 53702">
                                                      <g id="Grupo_53701" data-name="Grupo 53701">
                                                        <path id="Trazado_100710" data-name="Trazado 100710" d="M114.23,126.05c-.36.38-2.48-1.33-5.56-1.41s-5.37,1.42-5.69,1c-.16-.18.22-.86,1.22-1.56a7.66,7.66,0,0,1,4.57-1.3,7.4,7.4,0,0,1,4.42,1.6C114.11,125.19,114.41,125.89,114.23,126.05Z" fill="#354154"/>
                                                      </g>
                                                    </g>
                                                  </g>
                                                </g>
                                              </g>
                                            </g>
                                          </g>
                                        </g>
                                      </g>
                                    </g>
                                  </g>
                                </g>
                              </g>
                            </g>
                          </g>
                        </g>
                      </g>
                      <g id="Grupo_53733" data-name="Grupo 53733">
                        <g id="Grupo_53732" data-name="Grupo 53732">
                          <g id="Grupo_53731" data-name="Grupo 53731">
                            <g id="Grupo_53730" data-name="Grupo 53730">
                              <g id="Grupo_53729" data-name="Grupo 53729">
                                <g id="Grupo_53728" data-name="Grupo 53728">
                                  <g id="Grupo_53727" data-name="Grupo 53727">
                                    <g id="Grupo_53726" data-name="Grupo 53726">
                                      <g id="Grupo_53725" data-name="Grupo 53725">
                                        <g id="Grupo_53724" data-name="Grupo 53724">
                                          <g id="Grupo_53723" data-name="Grupo 53723">
                                            <g id="Grupo_53722" data-name="Grupo 53722">
                                              <g id="Grupo_53721" data-name="Grupo 53721">
                                                <g id="Grupo_53720" data-name="Grupo 53720">
                                                  <g id="Grupo_53719" data-name="Grupo 53719">
                                                    <g id="Grupo_53718" data-name="Grupo 53718">
                                                      <path id="Trazado_100711" data-name="Trazado 100711" d="M114.14,132.42a2.49,2.49,0,0,1-2.58,2.32,2.38,2.38,0,0,1-2.39-2.36v-.06a2.48,2.48,0,0,1,2.57-2.33,2.38,2.38,0,0,1,2.4,2.37Z" fill="#354154"/>
                                                    </g>
                                                  </g>
                                                </g>
                                              </g>
                                            </g>
                                          </g>
                                        </g>
                                      </g>
                                    </g>
                                  </g>
                                </g>
                              </g>
                            </g>
                          </g>
                        </g>
                      </g>
                      <g id="Grupo_53749" data-name="Grupo 53749">
                        <g id="Grupo_53748" data-name="Grupo 53748">
                          <g id="Grupo_53747" data-name="Grupo 53747">
                            <g id="Grupo_53746" data-name="Grupo 53746">
                              <g id="Grupo_53745" data-name="Grupo 53745">
                                <g id="Grupo_53744" data-name="Grupo 53744">
                                  <g id="Grupo_53743" data-name="Grupo 53743">
                                    <g id="Grupo_53742" data-name="Grupo 53742">
                                      <g id="Grupo_53741" data-name="Grupo 53741">
                                        <g id="Grupo_53740" data-name="Grupo 53740">
                                          <g id="Grupo_53739" data-name="Grupo 53739">
                                            <g id="Grupo_53738" data-name="Grupo 53738">
                                              <g id="Grupo_53737" data-name="Grupo 53737">
                                                <g id="Grupo_53736" data-name="Grupo 53736">
                                                  <g id="Grupo_53735" data-name="Grupo 53735">
                                                    <g id="Grupo_53734" data-name="Grupo 53734">
                                                      <path id="Trazado_100712" data-name="Trazado 100712" d="M121.94,147.45c0-.17,1.77-.34,4.64-.5.73,0,1.42-.11,1.58-.6a3.69,3.69,0,0,0-.33-2.17c-.55-1.79-1.12-3.68-1.73-5.64-2.39-8-4.06-14.62-3.74-14.71s2.53,6.34,4.92,14.37l1.64,5.67a4.14,4.14,0,0,1,.16,2.86,1.83,1.83,0,0,1-1.26,1,5.62,5.62,0,0,1-1.23.08C123.71,147.72,121.93,147.61,121.94,147.45Z" fill="#354154"/>
                                                    </g>
                                                  </g>
                                                </g>
                                              </g>
                                            </g>
                                          </g>
                                        </g>
                                      </g>
                                    </g>
                                  </g>
                                </g>
                              </g>
                            </g>
                          </g>
                        </g>
                      </g>
                    </g>
                  </g>
                </g>
                <g id="Grupo_53767" data-name="Grupo 53767">
                  <g id="Grupo_53766" data-name="Grupo 53766">
                    <g id="Grupo_53765" data-name="Grupo 53765">
                      <g id="Grupo_53764" data-name="Grupo 53764">
                        <g id="Grupo_53763" data-name="Grupo 53763">
                          <g id="Grupo_53762" data-name="Grupo 53762">
                            <g id="Grupo_53761" data-name="Grupo 53761">
                              <g id="Grupo_53760" data-name="Grupo 53760">
                                <g id="Grupo_53759" data-name="Grupo 53759">
                                  <g id="Grupo_53758" data-name="Grupo 53758">
                                    <g id="Grupo_53757" data-name="Grupo 53757">
                                      <g id="Grupo_53756" data-name="Grupo 53756">
                                        <g id="Grupo_53755" data-name="Grupo 53755">
                                          <g id="Grupo_53754" data-name="Grupo 53754">
                                            <g id="Grupo_53753" data-name="Grupo 53753">
                                              <path id="Trazado_100713" data-name="Trazado 100713" d="M112.92,114.49c-.3.68-2.76.17-5.7.32s-5.38.8-5.72.15c-.15-.32.31-.94,1.31-1.55a9.63,9.63,0,0,1,8.7-.36C112.55,113.58,113.05,114.17,112.92,114.49Z" fill="#354154"/>
                                            </g>
                                          </g>
                                        </g>
                                      </g>
                                    </g>
                                  </g>
                                </g>
                              </g>
                            </g>
                          </g>
                        </g>
                      </g>
                    </g>
                  </g>
                </g>
                <g id="Grupo_53782" data-name="Grupo 53782">
                  <g id="Grupo_53781" data-name="Grupo 53781">
                    <g id="Grupo_53780" data-name="Grupo 53780">
                      <g id="Grupo_53779" data-name="Grupo 53779">
                        <g id="Grupo_53778" data-name="Grupo 53778">
                          <g id="Grupo_53777" data-name="Grupo 53777">
                            <g id="Grupo_53776" data-name="Grupo 53776">
                              <g id="Grupo_53775" data-name="Grupo 53775">
                                <g id="Grupo_53774" data-name="Grupo 53774">
                                  <g id="Grupo_53773" data-name="Grupo 53773">
                                    <g id="Grupo_53772" data-name="Grupo 53772">
                                      <g id="Grupo_53771" data-name="Grupo 53771">
                                        <g id="Grupo_53770" data-name="Grupo 53770">
                                          <g id="Grupo_53769" data-name="Grupo 53769">
                                            <g id="Grupo_53768" data-name="Grupo 53768">
                                              <path id="Trazado_100714" data-name="Trazado 100714" d="M142.13,120.19c-.32.56-2.72-.06-5.63-.15s-5.32.28-5.63-.3c-.13-.28.35-.78,1.36-1.22a10.33,10.33,0,0,1,4.3-.71,10.64,10.64,0,0,1,4.28,1.06C141.81,119.39,142.28,119.92,142.13,120.19Z" fill="#354154"/>
                                            </g>
                                          </g>
                                        </g>
                                      </g>
                                    </g>
                                  </g>
                                </g>
                              </g>
                            </g>
                          </g>
                        </g>
                      </g>
                    </g>
                  </g>
                </g>
              </g>
            </g>
            <g id="Grupo_53797" data-name="Grupo 53797">
              <g id="Grupo_53796" data-name="Grupo 53796">
                <g id="Grupo_53795" data-name="Grupo 53795">
                  <g id="Grupo_53794" data-name="Grupo 53794">
                    <g id="Grupo_53793" data-name="Grupo 53793">
                      <g id="Grupo_53792" data-name="Grupo 53792">
                        <g id="Grupo_53791" data-name="Grupo 53791">
                          <g id="Grupo_53790" data-name="Grupo 53790">
                            <g id="Grupo_53789" data-name="Grupo 53789">
                              <g id="Grupo_53788" data-name="Grupo 53788">
                                <g id="Grupo_53787" data-name="Grupo 53787">
                                  <g id="Grupo_53786" data-name="Grupo 53786">
                                    <g id="Grupo_53785" data-name="Grupo 53785">
                                      <path id="Trazado_100715" data-name="Trazado 100715" d="M82.62,133.23c-.3-.15-12.35-4.65-12.87,7.94S82,151.68,82,151.32,82.62,133.23,82.62,133.23Z" fill="#fbbe9e"/>
                                    </g>
                                  </g>
                                </g>
                              </g>
                            </g>
                          </g>
                        </g>
                      </g>
                    </g>
                  </g>
                </g>
              </g>
            </g>
            <g id="Grupo_53811" data-name="Grupo 53811">
              <g id="Grupo_53810" data-name="Grupo 53810">
                <g id="Grupo_53809" data-name="Grupo 53809">
                  <g id="Grupo_53808" data-name="Grupo 53808">
                    <g id="Grupo_53807" data-name="Grupo 53807">
                      <g id="Grupo_53806" data-name="Grupo 53806">
                        <g id="Grupo_53805" data-name="Grupo 53805">
                          <g id="Grupo_53804" data-name="Grupo 53804">
                            <g id="Grupo_53803" data-name="Grupo 53803">
                              <g id="Grupo_53802" data-name="Grupo 53802">
                                <g id="Grupo_53801" data-name="Grupo 53801">
                                  <g id="Grupo_53800" data-name="Grupo 53800">
                                    <g id="Grupo_53799" data-name="Grupo 53799">
                                      <g id="Grupo_53798" data-name="Grupo 53798">
                                        <path id="Trazado_100716" data-name="Trazado 100716" d="M78.37,146.39c-.06,0-.23.15-.6.3a2.17,2.17,0,0,1-1.64,0c-1.31-.54-2.35-2.7-2.32-5a7.35,7.35,0,0,1,.75-3.12A2.5,2.5,0,0,1,76.28,137a1.11,1.11,0,0,1,1.27.65c.15.36.06.61.13.63s.27-.2.2-.72a1.37,1.37,0,0,0-.47-.81,1.62,1.62,0,0,0-1.2-.37,3.07,3.07,0,0,0-2.37,1.85,7.45,7.45,0,0,0-.9,3.48c0,2.54,1.18,5,3,5.57a2.33,2.33,0,0,0,2-.25C78.33,146.7,78.41,146.42,78.37,146.39Z" fill="#f7996e"/>
                                      </g>
                                    </g>
                                  </g>
                                </g>
                              </g>
                            </g>
                          </g>
                        </g>
                      </g>
                    </g>
                  </g>
                </g>
              </g>
            </g>
            <g id="Grupo_53812" data-name="Grupo 53812">
              <path id="Trazado_100717" data-name="Trazado 100717" d="M119,156.16c.14-.32-2.32-1.06-4.06-3.37a14,14,0,0,1-1.74-3.29c-.37-.91-.65-1.48-.78-1.44s-.1.66.1,1.65a9.23,9.23,0,0,0,1.62,3.68,7.57,7.57,0,0,0,3.21,2.47C118.28,156.25,118.93,156.27,119,156.16Z" fill="#354154"/>
            </g>
            <g id="Grupo_53821" data-name="Grupo 53821">
              <g id="Grupo_53820" data-name="Grupo 53820">
                <g id="Grupo_53819" data-name="Grupo 53819">
                  <g id="Grupo_53818" data-name="Grupo 53818">
                    <g id="Grupo_53817" data-name="Grupo 53817">
                      <g id="Grupo_53816" data-name="Grupo 53816">
                        <g id="Grupo_53815" data-name="Grupo 53815">
                          <g id="Grupo_53814" data-name="Grupo 53814">
                            <g id="Grupo_53813" data-name="Grupo 53813">
                              <path id="Trazado_100718" data-name="Trazado 100718" d="M142.27,127.21c-.37.37-2.48-1.33-5.56-1.41s-5.37,1.42-5.7,1c-.16-.17.23-.85,1.23-1.55a7.66,7.66,0,0,1,4.57-1.3,7.37,7.37,0,0,1,4.41,1.6C142.15,126.35,142.45,127.05,142.27,127.21Z" fill="#354154"/>
                            </g>
                          </g>
                        </g>
                      </g>
                    </g>
                  </g>
                </g>
              </g>
            </g>
            <g id="Grupo_53829" data-name="Grupo 53829">
              <g id="Grupo_53828" data-name="Grupo 53828">
                <g id="Grupo_53827" data-name="Grupo 53827">
                  <g id="Grupo_53826" data-name="Grupo 53826">
                    <g id="Grupo_53825" data-name="Grupo 53825">
                      <g id="Grupo_53824" data-name="Grupo 53824">
                        <g id="Grupo_53823" data-name="Grupo 53823">
                          <g id="Grupo_53822" data-name="Grupo 53822">
                            <path id="Trazado_100719" data-name="Trazado 100719" d="M141.76,133.31a2.48,2.48,0,0,1-2.57,2.33,2.38,2.38,0,0,1-2.4-2.36v-.06a2.49,2.49,0,0,1,2.58-2.33,2.38,2.38,0,0,1,2.39,2.36Z" fill="#354154"/>
                          </g>
                        </g>
                      </g>
                    </g>
                  </g>
                </g>
              </g>
            </g>
          </g>
          <g id="Grupo_53831" data-name="Grupo 53831">
            <path id="Trazado_100720" data-name="Trazado 100720" d="M158.42,94.16A9.94,9.94,0,0,0,146,90.24,13.6,13.6,0,0,0,122.61,78.5a5.55,5.55,0,0,0-2.71-3.73,11,11,0,0,0-4.52-1.35A21.62,21.62,0,0,0,95.64,82,23.54,23.54,0,0,0,75.7,89.31c-5.91,6.55-7,21.73-.55,34.84l1.53,8.23c2,0,3.89.14,5.14,1.26,1.7,1.53,2.46,4.41,5.29,3.32,1.44-.56,2.75-3.58,3.23-5a71.51,71.51,0,0,0,3.1-30.33,23.12,23.12,0,0,1,7.11-5.13l-.21.2c5.13-1.78,10.93-3.54,15.8-1.13,3.77,1.87,6,5.79,8.81,8.91a28.83,28.83,0,0,0,20.54,9.49c.28,5.17-.16,12.47.11,17.64l4.35-8.28h0c.36-.61.65-1.22.94-1.83l.1-.19h0c.79-.65,1.4-1.83,2.74-3.37a10.85,10.85,0,0,0,1.78-11.1A9.92,9.92,0,0,0,158.42,94.16Z" fill="#354154"/>
            <path id="Trazado_100721" data-name="Trazado 100721" d="M152.49,118.4Z" fill="#354154"/>
          </g>
          <g id="Grupo_53832" data-name="Grupo 53832">
            <path id="Trazado_100722" data-name="Trazado 100722" d="M150.89,94.35a1.1,1.1,0,0,1,.09.27,3.689,3.689,0,0,1,.12.81,5.53,5.53,0,0,1-.73,2.95A5.65,5.65,0,0,1,149,100a5.08,5.08,0,0,1-2.3,1,5.67,5.67,0,0,1-5.24-2l.31-.27a3.52,3.52,0,0,1,.89,2.47,4.59,4.59,0,0,1-1.41,3.17,5.1,5.1,0,0,1-3,1.27,8,8,0,0,1-5.17-1.42,16.4,16.4,0,0,1-2.77-2.35,6.93,6.93,0,0,1-.88-1,9.161,9.161,0,0,1,1,.88,20,20,0,0,0,2.81,2.22,7.84,7.84,0,0,0,5,1.29,4.79,4.79,0,0,0,2.74-1.18,4.21,4.21,0,0,0,1.27-2.89,3,3,0,0,0-.77-2.17l.31-.27a5.35,5.35,0,0,0,4.87,1.87,4.92,4.92,0,0,0,3.52-2.39,5.6,5.6,0,0,0,.82-2.81A7.809,7.809,0,0,0,150.89,94.35Z" fill="#5f6178"/>
          </g>
          <g id="Grupo_53833" data-name="Grupo 53833">
            <path id="Trazado_100723" data-name="Trazado 100723" d="M135.14,80.55a.86.86,0,0,1,.27.12,5.7,5.7,0,0,1,.7.47,6.14,6.14,0,0,1,1.9,2.47,4.83,4.83,0,0,1-.43,4.54,3.71,3.71,0,0,1-2.29,1.57,3.78,3.78,0,0,1-2.94-.57,3.27,3.27,0,0,1-.7-.69l.36-.2a3.53,3.53,0,0,1-.09,2.83A3.87,3.87,0,0,1,130.09,93a5.07,5.07,0,0,1-4.29,0,6.59,6.59,0,0,1-2.31-1.74,3.31,3.31,0,0,1-.62-.86s.25.28.73.75a7.07,7.07,0,0,0,2.31,1.59,4.88,4.88,0,0,0,4-.06,3.56,3.56,0,0,0,1.63-1.71,3.15,3.15,0,0,0,.08-2.5L131,86.88l1,1.34a3.1,3.1,0,0,0,.6.6,3.38,3.38,0,0,0,4.67-.89,4.57,4.57,0,0,0,.47-4.21A6.41,6.41,0,0,0,136,81.27C135.47,80.79,135.12,80.58,135.14,80.55Z" fill="#5f6178"/>
          </g>
        </g>
        <g id="Grupo_53879" data-name="Grupo 53879">
          <g id="Grupo_53849" data-name="Grupo 53849">
            <g id="Grupo_53835" data-name="Grupo 53835">
              <path id="Trazado_100724" data-name="Trazado 100724" d="M242,172.33l-29,22.18a3.77,3.77,0,0,0-.71,5.28l.15.18h0a3.76,3.76,0,0,0,5.15.5l28.8-22.38,3.9-7.69Z" fill="#d9a172"/>
              <path id="Trazado_100725" data-name="Trazado 100725" d="M246.49,171.28l2.06,2.4-2.22,4.41a1.77,1.77,0,0,1-2-1.57,2.171,2.171,0,0,1,0-.44,1.54,1.54,0,0,1-1.81-1.25,1.51,1.51,0,0,1,0-.76s-1.51-.14-.66-1.73Z" fill="#fff" opacity="0.5"/>
              <path id="Trazado_100726" data-name="Trazado 100726" d="M212.93,194.51l4.76,5.83,1.6-1.25-4.57-6Z" fill="#354154"/>
            </g>
            <g id="Grupo_53836" data-name="Grupo 53836">
              <path id="Trazado_100727" data-name="Trazado 100727" d="M210.78,250.12l-1-.19,21.4-37.41-3.39-10.78s-3.92-15.36-.65-19.28c0,0,7.15-8.41,9.47-8.3s4.17.58,4.63,2.32c0,0,4-.46,5,.81a21.3,21.3,0,0,1,1.85,2.78s4.29-.35,5.45,3.37c0,0,4.06,2.08,4.41,5.1s-.81,17-2.09,20.63-6,11.13-7.42,22.26-6.29,18.36-10.65,34.62l-11.84,4.69Z" fill="#fbbe9e"/>
            </g>
            <g id="Grupo_53838" data-name="Grupo 53838">
              <g id="Grupo_53837" data-name="Grupo 53837">
                <path id="Trazado_100728" data-name="Trazado 100728" d="M241,176.24a12.65,12.65,0,0,0-4,6.4A7.25,7.25,0,0,1,241,176.24Z" fill="#f7996e"/>
              </g>
            </g>
            <g id="Grupo_53840" data-name="Grupo 53840">
              <g id="Grupo_53839" data-name="Grupo 53839">
                <path id="Trazado_100729" data-name="Trazado 100729" d="M247.82,180.07a12.46,12.46,0,0,0-4.06,5.76,6.73,6.73,0,0,1,4.06-5.76Z" fill="#f7996e"/>
              </g>
            </g>
            <g id="Grupo_53842" data-name="Grupo 53842">
              <g id="Grupo_53841" data-name="Grupo 53841">
                <path id="Trazado_100730" data-name="Trazado 100730" d="M253.27,183.32c.09.11-1,1-2,2.46s-1.5,2.72-1.64,2.68a7.58,7.58,0,0,1,3.64-5.14Z" fill="#f7996e"/>
              </g>
            </g>
            <g id="Grupo_53844" data-name="Grupo 53844">
              <g id="Grupo_53843" data-name="Grupo 53843">
                <path id="Trazado_100731" data-name="Trazado 100731" d="M233.17,184.55a5.14,5.14,0,0,0-4.67.32,1.461,1.461,0,0,1,.5-.59,3.51,3.51,0,0,1,3.59-.25C233,184.27,233.21,184.5,233.17,184.55Z" fill="#f7996e"/>
              </g>
            </g>
            <g id="Grupo_53846" data-name="Grupo 53846">
              <g id="Grupo_53845" data-name="Grupo 53845">
                <path id="Trazado_100732" data-name="Trazado 100732" d="M241.71,189.89a6.21,6.21,0,0,0-4.28-3.26c0-.06.33-.14.87-.07a4.26,4.26,0,0,1,3.24,2.47C241.75,189.53,241.76,189.87,241.71,189.89Z" fill="#f7996e"/>
              </g>
            </g>
            <g id="Grupo_53848" data-name="Grupo 53848">
              <g id="Grupo_53847" data-name="Grupo 53847">
                <path id="Trazado_100733" data-name="Trazado 100733" d="M250.18,191.7a6.94,6.94,0,0,0-5.59-1.52c0-.05.28-.25.85-.38a4.74,4.74,0,0,1,4.2,1.14C250.06,191.34,250.23,191.66,250.18,191.7Z" fill="#f7996e"/>
              </g>
            </g>
          </g>
          <g id="Grupo_53873" data-name="Grupo 53873">
            <g id="Grupo_53850" data-name="Grupo 53850">
              <path id="Trazado_100734" data-name="Trazado 100734" d="M34.28,232.5S21.17,307,21.8,314s4.12,18.05,12,19.95a34.76,34.76,0,0,0,15.19,0l-9.5-91.49Z" fill="#d9a172"/>
            </g>
            <g id="Grupo_53851" data-name="Grupo 53851">
              <path id="Trazado_100735" data-name="Trazado 100735" d="M72.68,194.08S57,205.23,53.51,208.51C39,222.24,36,227.85,34.28,232.5S44.35,345,44.35,345l2.39,18.84h0l110.16.29h0V267.84l-16.55-67.75-10.18-2.9-2.06-8.07s-12.65-9.35-33.52-9.62c-6.42-.08-15.5,2.44-20.58,6.38h0Z" fill="#d9a172"/>
            </g>
            <g id="Grupo_53852" data-name="Grupo 53852">
              <path id="Trazado_100736" data-name="Trazado 100736" d="M128,200.37s11.32-.51,12.32-.27c3.49.8,13.07,9.59,24,20.41,10.41,10.33,30.9,31.82,30.9,31.82s3.68-3.72,7.88,1.24L219.29,230s24.28,3,28.1,21.31c0,0-7.44,14.21-13.54,24.36,0,0-22.56,37.45-40.38,30.67-16.28-6.2-36.69-22.76-39.57-26.3l-24-17.1s-16.42-31.3-9.17-47Z" fill="#d9a172"/>
            </g>
            <g id="Grupo_53854" data-name="Grupo 53854">
              <g id="Grupo_53853" data-name="Grupo 53853">
                <path id="Trazado_100737" data-name="Trazado 100737" d="M130.16,197.2a3,3,0,0,1-.58-.12l-1.63-.43c-1.42-.37-3.49-.86-6.07-1.35a169.468,169.468,0,0,0-20.33-2.51,140,140,0,0,0-20.48.06c-2.61.23-4.71.56-6.15.82l-1.66.33a3.853,3.853,0,0,1-.58.08,2.81,2.81,0,0,1,.56-.18l1.64-.42a53.3,53.3,0,0,1,6.16-1,124.667,124.667,0,0,1,20.54-.2A148.6,148.6,0,0,1,122,195c2.58.53,4.64,1.08,6,1.5l1.61.52A2.6,2.6,0,0,1,130.16,197.2Z" fill="#354154"/>
              </g>
            </g>
            <g id="Grupo_53858" data-name="Grupo 53858">
              <g id="Grupo_53857" data-name="Grupo 53857">
                <path id="Trazado_100739" data-name="Trazado 100739" d="M91.37,191.24a13.11,13.11,0,0,1-.58-8.34c.14,0-.07,1.89.09,4.18S91.51,191.2,91.37,191.24Z" fill="#354154"/>
              </g>
            </g>
            <g id="Grupo_53860" data-name="Grupo 53860" opacity="0.3">
              <g id="Grupo_53859" data-name="Grupo 53859">
                <path id="Trazado_100740" data-name="Trazado 100740" d="M73,194c17.24,3.05,34.72,0,53,2.19-17.61-3.65-36-5.38-53-2.19" fill="#d9a172"/>
              </g>
            </g>
            <g id="Grupo_53862" data-name="Grupo 53862" opacity="0.3">
              <g id="Grupo_53861" data-name="Grupo 53861">
                <path id="Trazado_100741" data-name="Trazado 100741" d="M42.79,334c-9.7-22.71-8.55-48.38-7.24-73.05Z" fill="#d9a172"/>
              </g>
            </g>
            <g id="Grupo_53864" data-name="Grupo 53864">
              <g id="Grupo_53863" data-name="Grupo 53863">
                <path id="Trazado_100742" data-name="Trazado 100742" d="M34.28,248.74a1.35,1.35,0,0,1,0,.29c0,.21.06.49.1.84.08.78.2,1.87.35,3.25.28,2.86.68,6.94,1.18,12,1,10.1,2.33,24.07,3.94,39.47s3.21,29.34,4.5,39.41c.63,5,1.17,9.11,1.56,11.92l.42,3.24a6.462,6.462,0,0,0,.1.84,1,1,0,0,1,0,.29,1.27,1.27,0,0,1-.06-.28l-.15-.84c-.12-.77-.3-1.85-.52-3.22-.44-2.8-1-6.87-1.71-11.9-1.38-10.06-3-24-4.64-39.4s-2.9-29.38-3.8-39.49c-.43-5-.78-9.11-1-12-.11-1.39-.19-2.48-.25-3.26a3.478,3.478,0,0,0-.06-.85A1.4,1.4,0,0,1,34.28,248.74Z" fill="#354154"/>
              </g>
            </g>
            <g id="Grupo_53866" data-name="Grupo 53866">
              <g id="Grupo_53865" data-name="Grupo 53865">
                <path id="Trazado_100743" data-name="Trazado 100743" d="M108.86,236.55a5.531,5.531,0,0,1-.71,0h-2c-1.77,0-4.32,0-7.48.09-6.31.15-15,.6-24.59,1.74s-18.15,2.74-24.32,4.08c-3.08.67-5.57,1.25-7.29,1.67l-2,.46a.34.34,0,1,1,0-.09l2-.55c1.7-.48,4.18-1.1,7.26-1.82a230.08,230.08,0,0,1,49-5.83c3.16,0,5.72,0,7.48.06l2,.08a4.141,4.141,0,0,1,.65.11Z" fill="#354154"/>
              </g>
            </g>
            <g id="Grupo_53868" data-name="Grupo 53868">
              <g id="Grupo_53867" data-name="Grupo 53867">
                <path id="Trazado_100744" data-name="Trazado 100744" d="M66.56,260.67c-.14,0,.12-10.32.56-23s.92-23,1-23-.11,10.32-.56,23S66.69,260.68,66.56,260.67Z" fill="#354154"/>
              </g>
            </g>
            <g id="Grupo_53870" data-name="Grupo 53870">
              <g id="Grupo_53869" data-name="Grupo 53869">
                <path id="Trazado_100745" data-name="Trazado 100745" d="M122.86,259.4a5.471,5.471,0,0,1-.41-.65c-.28-.47-.64-1.11-1.1-1.9l-4.07-7a60.87,60.87,0,0,1-5.1-10.87,35.669,35.669,0,0,1-1.52-6.94,41.379,41.379,0,0,1,0-7.63,40.57,40.57,0,0,1,3.64-14.22,23.49,23.49,0,0,1,3.58-5.35,20.319,20.319,0,0,1,4.31-3.6,16.32,16.32,0,0,1,7.64-2.56,10.56,10.56,0,0,1,3,.16,29,29,0,0,0-2.95,0,16.78,16.78,0,0,0-7.48,2.67,20.12,20.12,0,0,0-4.19,3.57,23.551,23.551,0,0,0-3.48,5.28,40.58,40.58,0,0,0-3.55,14.07,41.169,41.169,0,0,0,0,7.53,35.68,35.68,0,0,0,1.47,6.86,62.81,62.81,0,0,0,5,10.84l3.93,7.05,1,1.95a4.051,4.051,0,0,1,.28.74Z" fill="#354154"/>
              </g>
            </g>
            <g id="Grupo_53872" data-name="Grupo 53872" opacity="0.3">
              <g id="Grupo_53871" data-name="Grupo 53871">
                <path id="Trazado_100746" data-name="Trazado 100746" d="M41.55,244.72A131.26,131.26,0,0,0,62.25,242a31.14,31.14,0,0,0-1.16,9.26,21.31,21.31,0,0,0,4.6-8.47,12.81,12.81,0,0,0,5.22,8.57,27.74,27.74,0,0,0,.46-9.44q15.47-1.86,30.7-5.08a208.059,208.059,0,0,0-60.94,7.59" fill="#d9a172"/>
              </g>
            </g>
          </g>
          <g id="Grupo_53874" data-name="Grupo 53874">
            <path id="Trazado_100747" data-name="Trazado 100747" d="M174,296.07a2.831,2.831,0,0,1-.47-.29l-1.32-.88c-1.14-.76-2.77-1.89-4.78-3.31-4-2.82-9.54-6.78-15.55-11.26s-11.38-8.64-15.23-11.69c-1.93-1.52-3.48-2.77-4.54-3.64l-1.22-1a.28.28,0,0,1-.37-.41.27.27,0,0,1,.39,0,.29.29,0,0,1,0,.33l1.26.95,4.62,3.54c3.9,3,9.29,7.1,15.3,11.58s11.49,8.48,15.47,11.36l4.7,3.42,1.27.94a2.49,2.49,0,0,1,.47.36Z" fill="#354154"/>
          </g>
          <g id="Grupo_53875" data-name="Grupo 53875">
            <path id="Trazado_100748" data-name="Trazado 100748" d="M200.87,271.51c-.07,0,0-1.21-.16-3.15A33,33,0,0,0,196.25,254c-1-1.67-1.7-2.64-1.64-2.68a3.37,3.37,0,0,1,.56.63,20.278,20.278,0,0,1,1.33,1.9,29.2,29.2,0,0,1,4.5,14.47,20,20,0,0,1,0,2.32A3,3,0,0,1,200.87,271.51Z" fill="#354154"/>
          </g>
          <g id="Grupo_53876" data-name="Grupo 53876">
            <path id="Trazado_100749" data-name="Trazado 100749" d="M205.83,269.7c-.07,0,.09-.95.2-2.46a30.87,30.87,0,0,0-1.35-11.73c-.46-1.45-.82-2.33-.76-2.35a1.881,1.881,0,0,1,.34.58c.26.55.49,1.11.7,1.68a25.76,25.76,0,0,1,1.36,11.84,17.776,17.776,0,0,1-.3,1.8,2.051,2.051,0,0,1-.19.64Z" fill="#354154"/>
          </g>
          <g id="Grupo_53877" data-name="Grupo 53877">
            <path id="Trazado_100750" data-name="Trazado 100750" d="M243.42,259.39a.4.4,0,0,0-.19-.29.93.93,0,0,1-.32-.36c-.1-.16-.16-.37-.27-.56-.22-.4-.75-.71-1.13-1.3a8.66,8.66,0,0,1-1-2.12,14.21,14.21,0,0,0-2.74-5.18,22.159,22.159,0,0,0-2.48-2.46,26.117,26.117,0,0,0-3-2.28,24,24,0,0,0-3.2-2L226,241.31c-1-.48-2-1-2.88-1.37l-2.56-1.09c-.38-.15-.75-.32-1.12-.51s-.62-.43-.91-.58l-.83-.45a5.392,5.392,0,0,1-.66-.44,9.19,9.19,0,0,0-1-.5.86.86,0,0,1-.33-.2,1.74,1.74,0,0,1,.36.13,7,7,0,0,1,1,.44,11.686,11.686,0,0,0,1.52.81c.31.16.61.38.93.56s.72.3,1.1.47l2.58,1c.92.38,1.88.87,2.91,1.34l3.18,1.53a23.914,23.914,0,0,1,3.24,2,25.315,25.315,0,0,1,3,2.32,23.893,23.893,0,0,1,2.5,2.53,14.15,14.15,0,0,1,2.73,5.33,8.29,8.29,0,0,0,.88,2.08c.33.56.85.89,1.08,1.35.11.23.16.44.23.59a1,1,0,0,0,.28.35C243.49,259.23,243.42,259.41,243.42,259.39Z" fill="#354154"/>
          </g>
          <g id="Grupo_53878" data-name="Grupo 53878">
            <path id="Trazado_100751" data-name="Trazado 100751" d="M140.75,362.25c-.11,0-.2-20.25-.2-45.22s.09-45.22.2-45.22S141,292.05,141,317,140.87,362.25,140.75,362.25Z" fill="#354154"/>
          </g>
        </g>
      </g>
    </g>
  </g>
</svg>
